<?xml version="1.0" encoding="UTF-8" standalone="no"?>
<!DOCTYPE svg PUBLIC "-//W3C//DTD SVG 1.1//EN"
 "http://www.w3.org/Graphics/SVG/1.1/DTD/svg11.dtd">
<!-- Generated by graphviz version 2.44.0 ()
 -->
<!-- Title: include/yaclib/async/detail/base_core.hpp Pages: 1 -->
<svg width="478pt" height="397pt"
 viewBox="0.00 0.00 478.00 397.00" xmlns="http://www.w3.org/2000/svg" xmlns:xlink="http://www.w3.org/1999/xlink">
<g id="graph0" class="graph" transform="scale(1 1) rotate(0) translate(4 393)">
<title>include/yaclib/async/detail/base_core.hpp</title>
<!-- Node1 -->
<g id="node1" class="node">
<title>Node1</title>
<g id="a_node1"><a xlink:title=" ">
<polygon fill="#bfbfbf" stroke="black" points="183.5,-358.5 183.5,-388.5 292.5,-388.5 292.5,-358.5 183.5,-358.5"/>
<text text-anchor="start" x="191.5" y="-376.5" font-family="Helvetica,sans-Serif" font-size="10.00">include/yaclib/async</text>
<text text-anchor="middle" x="238" y="-365.5" font-family="Helvetica,sans-Serif" font-size="10.00">/detail/base_core.hpp</text>
</a>
</g>
</g>
<!-- Node2 -->
<g id="node2" class="node">
<title>Node2</title>
<g id="a_node2"><a xlink:href="executor_8hpp.html" target="_top" xlink:title=" ">
<polygon fill="none" stroke="black" points="187.5,-246.5 187.5,-265.5 326.5,-265.5 326.5,-246.5 187.5,-246.5"/>
<text text-anchor="middle" x="257" y="-253.5" font-family="Helvetica,sans-Serif" font-size="10.00">yaclib/executor/executor.hpp</text>
</a>
</g>
</g>
<!-- Node1&#45;&gt;Node2 -->
<g id="edge1" class="edge">
<title>Node1&#45;&gt;Node2</title>
<path fill="none" stroke="midnightblue" d="M270.59,-358.44C285.47,-350.16 301.62,-338.12 310,-322 320.1,-302.57 300.05,-283.54 281.78,-271.14"/>
<polygon fill="midnightblue" stroke="midnightblue" points="283.41,-268.03 273.09,-265.61 279.65,-273.94 283.41,-268.03"/>
</g>
<!-- Node3 -->
<g id="node3" class="node">
<title>Node3</title>
<g id="a_node3"><a xlink:href="task_8hpp.html" target="_top" xlink:title=" ">
<polygon fill="none" stroke="black" points="133.5,-190.5 133.5,-209.5 254.5,-209.5 254.5,-190.5 133.5,-190.5"/>
<text text-anchor="middle" x="194" y="-197.5" font-family="Helvetica,sans-Serif" font-size="10.00">yaclib/executor/task.hpp</text>
</a>
</g>
</g>
<!-- Node1&#45;&gt;Node3 -->
<g id="edge19" class="edge">
<title>Node1&#45;&gt;Node3</title>
<path fill="none" stroke="midnightblue" d="M205.85,-358.34C191.17,-350.03 175.25,-338 167,-322 149.48,-288.04 169.25,-242.99 183.01,-218.56"/>
<polygon fill="midnightblue" stroke="midnightblue" points="186.16,-220.11 188.24,-209.72 180.14,-216.54 186.16,-220.11"/>
</g>
<!-- Node7 -->
<g id="node7" class="node">
<title>Node7</title>
<g id="a_node7"><a xlink:title=" ">
<polygon fill="none" stroke="#bfbfbf" points="0,-0.5 0,-19.5 46,-19.5 46,-0.5 0,-0.5"/>
<text text-anchor="middle" x="23" y="-7.5" font-family="Helvetica,sans-Serif" font-size="10.00">atomic</text>
</a>
</g>
</g>
<!-- Node1&#45;&gt;Node7 -->
<g id="edge21" class="edge">
<title>Node1&#45;&gt;Node7</title>
<path fill="none" stroke="midnightblue" d="M183.47,-366.85C119.77,-356.89 23,-329.77 23,-257 23,-257 23,-257 23,-137.5 23,-99.2 23,-54.38 23,-29.7"/>
<polygon fill="midnightblue" stroke="midnightblue" points="26.5,-29.59 23,-19.59 19.5,-29.59 26.5,-29.59"/>
</g>
<!-- Node8 -->
<g id="node8" class="node">
<title>Node8</title>
<g id="a_node8"><a xlink:href="intrusive__ptr_8hpp.html" target="_top" xlink:title=" ">
<polygon fill="none" stroke="black" points="318.5,-56.5 318.5,-86.5 415.5,-86.5 415.5,-56.5 318.5,-56.5"/>
<text text-anchor="start" x="326.5" y="-74.5" font-family="Helvetica,sans-Serif" font-size="10.00">yaclib/util/intrusive</text>
<text text-anchor="middle" x="367" y="-63.5" font-family="Helvetica,sans-Serif" font-size="10.00">_ptr.hpp</text>
</a>
</g>
</g>
<!-- Node1&#45;&gt;Node8 -->
<g id="edge20" class="edge">
<title>Node1&#45;&gt;Node8</title>
<path fill="none" stroke="midnightblue" d="M274.28,-358.37C312.43,-340.85 367,-307.05 367,-257 367,-257 367,-257 367,-199 367,-163.42 367,-122.2 367,-96.74"/>
<polygon fill="midnightblue" stroke="midnightblue" points="370.5,-96.54 367,-86.54 363.5,-96.54 370.5,-96.54"/>
</g>
<!-- Node14 -->
<g id="node14" class="node">
<title>Node14</title>
<g id="a_node14"><a xlink:href="inline_8hpp.html" target="_top" xlink:title=" ">
<polygon fill="none" stroke="black" points="175.5,-302.5 175.5,-321.5 300.5,-321.5 300.5,-302.5 175.5,-302.5"/>
<text text-anchor="middle" x="238" y="-309.5" font-family="Helvetica,sans-Serif" font-size="10.00">yaclib/executor/inline.hpp</text>
</a>
</g>
</g>
<!-- Node1&#45;&gt;Node14 -->
<g id="edge17" class="edge">
<title>Node1&#45;&gt;Node14</title>
<path fill="none" stroke="midnightblue" d="M238,-358.4C238,-350.47 238,-340.46 238,-331.86"/>
<polygon fill="midnightblue" stroke="midnightblue" points="241.5,-331.66 238,-321.66 234.5,-331.66 241.5,-331.66"/>
</g>
<!-- Node2&#45;&gt;Node3 -->
<g id="edge2" class="edge">
<title>Node2&#45;&gt;Node3</title>
<path fill="none" stroke="midnightblue" d="M246.88,-246.32C237.47,-238.26 223.26,-226.08 211.93,-216.37"/>
<polygon fill="midnightblue" stroke="midnightblue" points="214.18,-213.68 204.31,-209.83 209.62,-219 214.18,-213.68"/>
</g>
<!-- Node2&#45;&gt;Node8 -->
<g id="edge16" class="edge">
<title>Node2&#45;&gt;Node8</title>
<path fill="none" stroke="midnightblue" d="M262.31,-246.2C278.67,-219.05 328.73,-136 353.21,-95.37"/>
<polygon fill="midnightblue" stroke="midnightblue" points="356.28,-97.07 358.44,-86.69 350.28,-93.45 356.28,-97.07"/>
</g>
<!-- Node4 -->
<g id="node4" class="node">
<title>Node4</title>
<g id="a_node4"><a xlink:href="func_8hpp.html" target="_top" xlink:title=" ">
<polygon fill="none" stroke="black" points="203.5,-129 203.5,-148 300.5,-148 300.5,-129 203.5,-129"/>
<text text-anchor="middle" x="252" y="-136" font-family="Helvetica,sans-Serif" font-size="10.00">yaclib/util/func.hpp</text>
</a>
</g>
</g>
<!-- Node3&#45;&gt;Node4 -->
<g id="edge3" class="edge">
<title>Node3&#45;&gt;Node4</title>
<path fill="none" stroke="midnightblue" d="M202.31,-190.48C211.18,-181.37 225.45,-166.74 236.42,-155.48"/>
<polygon fill="midnightblue" stroke="midnightblue" points="239.23,-157.61 243.71,-148.01 234.22,-152.73 239.23,-157.61"/>
</g>
<!-- Node13 -->
<g id="node13" class="node">
<title>Node13</title>
<g id="a_node13"><a xlink:href="intrusive__node_8hpp.html" target="_top" xlink:title=" ">
<polygon fill="none" stroke="black" points="88.5,-123.5 88.5,-153.5 185.5,-153.5 185.5,-123.5 88.5,-123.5"/>
<text text-anchor="start" x="96.5" y="-141.5" font-family="Helvetica,sans-Serif" font-size="10.00">yaclib/util/intrusive</text>
<text text-anchor="middle" x="137" y="-130.5" font-family="Helvetica,sans-Serif" font-size="10.00">_node.hpp</text>
</a>
</g>
</g>
<!-- Node3&#45;&gt;Node13 -->
<g id="edge15" class="edge">
<title>Node3&#45;&gt;Node13</title>
<path fill="none" stroke="midnightblue" d="M185.83,-190.48C178.47,-182.79 167.34,-171.17 157.56,-160.96"/>
<polygon fill="midnightblue" stroke="midnightblue" points="159.88,-158.32 150.43,-153.52 154.82,-163.17 159.88,-158.32"/>
</g>
<!-- Node5 -->
<g id="node5" class="node">
<title>Node5</title>
<g id="a_node5"><a xlink:href="counters_8hpp.html" target="_top" xlink:title=" ">
<polygon fill="none" stroke="black" points="51,-62 51,-81 167,-81 167,-62 51,-62"/>
<text text-anchor="middle" x="109" y="-69" font-family="Helvetica,sans-Serif" font-size="10.00">yaclib/util/counters.hpp</text>
</a>
</g>
</g>
<!-- Node4&#45;&gt;Node5 -->
<g id="edge4" class="edge">
<title>Node4&#45;&gt;Node5</title>
<path fill="none" stroke="midnightblue" d="M233.01,-128.87C208.54,-117.75 165.8,-98.32 137.44,-85.43"/>
<polygon fill="midnightblue" stroke="midnightblue" points="138.62,-82.12 128.07,-81.17 135.72,-88.49 138.62,-82.12"/>
</g>
<!-- Node4&#45;&gt;Node8 -->
<g id="edge7" class="edge">
<title>Node4&#45;&gt;Node8</title>
<path fill="none" stroke="midnightblue" d="M267.51,-128.73C284.25,-119.27 311.42,-103.91 333.14,-91.64"/>
<polygon fill="midnightblue" stroke="midnightblue" points="335.09,-94.56 342.07,-86.59 331.65,-88.46 335.09,-94.56"/>
</g>
<!-- Node9 -->
<g id="node9" class="node">
<title>Node9</title>
<g id="a_node9"><a xlink:href="ref_8hpp.html" target="_top" xlink:title=" ">
<polygon fill="none" stroke="black" points="169.5,-0.5 169.5,-19.5 258.5,-19.5 258.5,-0.5 169.5,-0.5"/>
<text text-anchor="middle" x="214" y="-7.5" font-family="Helvetica,sans-Serif" font-size="10.00">yaclib/util/ref.hpp</text>
</a>
</g>
</g>
<!-- Node4&#45;&gt;Node9 -->
<g id="edge12" class="edge">
<title>Node4&#45;&gt;Node9</title>
<path fill="none" stroke="midnightblue" d="M249.39,-128.81C243.26,-108.4 227.85,-57.1 219.53,-29.41"/>
<polygon fill="midnightblue" stroke="midnightblue" points="222.86,-28.33 216.63,-19.76 216.16,-30.34 222.86,-28.33"/>
</g>
<!-- Node11 -->
<g id="node11" class="node">
<title>Node11</title>
<g id="a_node11"><a xlink:title=" ">
<polygon fill="none" stroke="#bfbfbf" points="276,-0.5 276,-19.5 338,-19.5 338,-0.5 276,-0.5"/>
<text text-anchor="middle" x="307" y="-7.5" font-family="Helvetica,sans-Serif" font-size="10.00">type_traits</text>
</a>
</g>
</g>
<!-- Node4&#45;&gt;Node11 -->
<g id="edge13" class="edge">
<title>Node4&#45;&gt;Node11</title>
<path fill="none" stroke="midnightblue" d="M253.65,-128.6C256.72,-113.25 264.07,-81.03 276,-56 280.74,-46.06 287.55,-35.89 293.58,-27.74"/>
<polygon fill="midnightblue" stroke="midnightblue" points="296.37,-29.85 299.68,-19.79 290.82,-25.59 296.37,-29.85"/>
</g>
<!-- Node12 -->
<g id="node12" class="node">
<title>Node12</title>
<g id="a_node12"><a xlink:title=" ">
<polygon fill="none" stroke="#bfbfbf" points="356.5,-0.5 356.5,-19.5 395.5,-19.5 395.5,-0.5 356.5,-0.5"/>
<text text-anchor="middle" x="376" y="-7.5" font-family="Helvetica,sans-Serif" font-size="10.00">utility</text>
</a>
</g>
</g>
<!-- Node4&#45;&gt;Node12 -->
<g id="edge14" class="edge">
<title>Node4&#45;&gt;Node12</title>
<path fill="none" stroke="midnightblue" d="M256.74,-128.9C265.68,-113.16 286.31,-79.22 310,-56 322.27,-43.97 338.13,-33.04 351.22,-24.97"/>
<polygon fill="midnightblue" stroke="midnightblue" points="353.39,-27.75 360.18,-19.62 349.8,-21.74 353.39,-27.75"/>
</g>
<!-- Node6 -->
<g id="node6" class="node">
<title>Node6</title>
<g id="a_node6"><a xlink:title=" ">
<polygon fill="none" stroke="#bfbfbf" points="64,-0.5 64,-19.5 152,-19.5 152,-0.5 64,-0.5"/>
<text text-anchor="middle" x="108" y="-7.5" font-family="Helvetica,sans-Serif" font-size="10.00">yaclib/config.hpp</text>
</a>
</g>
</g>
<!-- Node5&#45;&gt;Node6 -->
<g id="edge5" class="edge">
<title>Node5&#45;&gt;Node6</title>
<path fill="none" stroke="midnightblue" d="M108.86,-61.98C108.72,-53.58 108.5,-40.48 108.31,-29.66"/>
<polygon fill="midnightblue" stroke="midnightblue" points="111.81,-29.45 108.14,-19.51 104.81,-29.57 111.81,-29.45"/>
</g>
<!-- Node5&#45;&gt;Node7 -->
<g id="edge6" class="edge">
<title>Node5&#45;&gt;Node7</title>
<path fill="none" stroke="midnightblue" d="M96.68,-61.98C82.88,-52.43 60.3,-36.81 43.77,-25.37"/>
<polygon fill="midnightblue" stroke="midnightblue" points="45.51,-22.32 35.3,-19.51 41.53,-28.08 45.51,-22.32"/>
</g>
<!-- Node8&#45;&gt;Node9 -->
<g id="edge8" class="edge">
<title>Node8&#45;&gt;Node9</title>
<path fill="none" stroke="midnightblue" d="M330.74,-56.4C304.96,-46.37 270.64,-33.03 245.9,-23.4"/>
<polygon fill="midnightblue" stroke="midnightblue" points="246.85,-20.02 236.26,-19.66 244.31,-26.54 246.85,-20.02"/>
</g>
<!-- Node10 -->
<g id="node10" class="node">
<title>Node10</title>
<g id="a_node10"><a xlink:title=" ">
<polygon fill="none" stroke="#bfbfbf" points="414,-0.5 414,-19.5 470,-19.5 470,-0.5 414,-0.5"/>
<text text-anchor="middle" x="442" y="-7.5" font-family="Helvetica,sans-Serif" font-size="10.00">algorithm</text>
</a>
</g>
</g>
<!-- Node8&#45;&gt;Node10 -->
<g id="edge9" class="edge">
<title>Node8&#45;&gt;Node10</title>
<path fill="none" stroke="midnightblue" d="M384.77,-56.4C396.35,-47.22 411.42,-35.26 423.2,-25.92"/>
<polygon fill="midnightblue" stroke="midnightblue" points="425.43,-28.61 431.09,-19.66 421.08,-23.13 425.43,-28.61"/>
</g>
<!-- Node8&#45;&gt;Node11 -->
<g id="edge10" class="edge">
<title>Node8&#45;&gt;Node11</title>
<path fill="none" stroke="midnightblue" d="M352.78,-56.4C343.79,-47.49 332.16,-35.95 322.87,-26.74"/>
<polygon fill="midnightblue" stroke="midnightblue" points="325.3,-24.21 315.73,-19.66 320.37,-29.18 325.3,-24.21"/>
</g>
<!-- Node8&#45;&gt;Node12 -->
<g id="edge11" class="edge">
<title>Node8&#45;&gt;Node12</title>
<path fill="none" stroke="midnightblue" d="M369.13,-56.4C370.35,-48.38 371.88,-38.23 373.19,-29.57"/>
<polygon fill="midnightblue" stroke="midnightblue" points="376.66,-30.07 374.69,-19.66 369.73,-29.02 376.66,-30.07"/>
</g>
<!-- Node14&#45;&gt;Node2 -->
<g id="edge18" class="edge">
<title>Node14&#45;&gt;Node2</title>
<path fill="none" stroke="midnightblue" d="M241.14,-302.08C243.68,-294.85 247.36,-284.41 250.53,-275.4"/>
<polygon fill="midnightblue" stroke="midnightblue" points="253.9,-276.35 253.92,-265.75 247.3,-274.02 253.9,-276.35"/>
</g>
</g>
</svg>
