<?xml version="1.0" encoding="UTF-8" standalone="no"?>
<!DOCTYPE svg PUBLIC "-//W3C//DTD SVG 1.1//EN"
 "http://www.w3.org/Graphics/SVG/1.1/DTD/svg11.dtd">
<!-- Generated by graphviz version 2.44.0 ()
 -->
<!-- Title: include/yaclib/async/detail/base_core.hpp Pages: 1 -->
<svg width="1049pt" height="508pt"
 viewBox="0.00 0.00 1048.54 508.00" xmlns="http://www.w3.org/2000/svg" xmlns:xlink="http://www.w3.org/1999/xlink">
<g id="graph0" class="graph" transform="scale(1 1) rotate(0) translate(4 504)">
<title>include/yaclib/async/detail/base_core.hpp</title>
<!-- Node1 -->
<g id="node1" class="node">
<title>Node1</title>
<g id="a_node1"><a xlink:title=" ">
<polygon fill="#bfbfbf" stroke="black" points="692.54,-469.5 692.54,-499.5 801.54,-499.5 801.54,-469.5 692.54,-469.5"/>
<text text-anchor="start" x="700.54" y="-487.5" font-family="Helvetica,sans-Serif" font-size="10.00">include/yaclib/async</text>
<text text-anchor="middle" x="747.04" y="-476.5" font-family="Helvetica,sans-Serif" font-size="10.00">/detail/base_core.hpp</text>
</a>
</g>
</g>
<!-- Node2 -->
<g id="node2" class="node">
<title>Node2</title>
<g id="a_node2"><a xlink:href="wait__impl_8hpp.html" target="_top" xlink:title=" ">
<polygon fill="none" stroke="black" points="694.54,-402.5 694.54,-432.5 799.54,-432.5 799.54,-402.5 694.54,-402.5"/>
<text text-anchor="start" x="702.54" y="-420.5" font-family="Helvetica,sans-Serif" font-size="10.00">include/yaclib/algo</text>
<text text-anchor="middle" x="747.04" y="-409.5" font-family="Helvetica,sans-Serif" font-size="10.00">/detail/wait_impl.hpp</text>
</a>
</g>
</g>
<!-- Node1&#45;&gt;Node2 -->
<g id="edge1" class="edge">
<title>Node1&#45;&gt;Node2</title>
<path fill="none" stroke="midnightblue" d="M747.04,-459.11C747.04,-450.15 747.04,-440.32 747.04,-432.58"/>
<polygon fill="midnightblue" stroke="midnightblue" points="743.54,-459.4 747.04,-469.4 750.54,-459.4 743.54,-459.4"/>
</g>
<!-- Node18 -->
<g id="node18" class="node">
<title>Node18</title>
<g id="a_node18"><a xlink:href="result__core_8hpp.html" target="_top" xlink:title=" ">
<polygon fill="none" stroke="black" points="355.04,-402.5 355.04,-432.5 467.04,-432.5 467.04,-402.5 355.04,-402.5"/>
<text text-anchor="start" x="363.04" y="-420.5" font-family="Helvetica,sans-Serif" font-size="10.00">include/yaclib/async</text>
<text text-anchor="middle" x="411.04" y="-409.5" font-family="Helvetica,sans-Serif" font-size="10.00">/detail/result_core.hpp</text>
</a>
</g>
</g>
<!-- Node1&#45;&gt;Node18 -->
<g id="edge23" class="edge">
<title>Node1&#45;&gt;Node18</title>
<path fill="none" stroke="midnightblue" d="M682.19,-470.95C619.79,-458.88 526.43,-440.82 467.15,-429.35"/>
<polygon fill="midnightblue" stroke="midnightblue" points="681.82,-474.45 692.31,-472.91 683.15,-467.58 681.82,-474.45"/>
</g>
<!-- Node21 -->
<g id="node21" class="node">
<title>Node21</title>
<g id="a_node21"><a xlink:href="base__core_8cpp.html" target="_top" xlink:title=" ">
<polygon fill="none" stroke="black" points="817.54,-408 817.54,-427 942.54,-427 942.54,-408 817.54,-408"/>
<text text-anchor="middle" x="880.04" y="-415" font-family="Helvetica,sans-Serif" font-size="10.00">src/async/base_core.cpp</text>
</a>
</g>
</g>
<!-- Node1&#45;&gt;Node21 -->
<g id="edge30" class="edge">
<title>Node1&#45;&gt;Node21</title>
<path fill="none" stroke="midnightblue" d="M784.96,-464.97C810.51,-452.48 843.01,-436.6 862.63,-427.01"/>
<polygon fill="midnightblue" stroke="midnightblue" points="783.35,-461.86 775.9,-469.4 786.42,-468.15 783.35,-461.86"/>
</g>
<!-- Node3 -->
<g id="node3" class="node">
<title>Node3</title>
<g id="a_node3"><a xlink:href="wait_8hpp.html" target="_top" xlink:title=" ">
<polygon fill="none" stroke="black" points="585.04,-335.5 585.04,-365.5 681.04,-365.5 681.04,-335.5 585.04,-335.5"/>
<text text-anchor="start" x="593.04" y="-353.5" font-family="Helvetica,sans-Serif" font-size="10.00">include/yaclib/algo</text>
<text text-anchor="middle" x="633.04" y="-342.5" font-family="Helvetica,sans-Serif" font-size="10.00">/wait.hpp</text>
</a>
</g>
</g>
<!-- Node2&#45;&gt;Node3 -->
<g id="edge2" class="edge">
<title>Node2&#45;&gt;Node3</title>
<path fill="none" stroke="midnightblue" d="M713.36,-397.3C695.52,-387.12 674,-374.85 657.73,-365.58"/>
<polygon fill="midnightblue" stroke="midnightblue" points="711.88,-400.48 722.3,-402.4 715.35,-394.4 711.88,-400.48"/>
</g>
<!-- Node15 -->
<g id="node15" class="node">
<title>Node15</title>
<g id="a_node15"><a xlink:href="wait__for_8hpp.html" target="_top" xlink:title=" ">
<polygon fill="none" stroke="black" points="699.04,-335.5 699.04,-365.5 795.04,-365.5 795.04,-335.5 699.04,-335.5"/>
<text text-anchor="start" x="707.04" y="-353.5" font-family="Helvetica,sans-Serif" font-size="10.00">include/yaclib/algo</text>
<text text-anchor="middle" x="747.04" y="-342.5" font-family="Helvetica,sans-Serif" font-size="10.00">/wait_for.hpp</text>
</a>
</g>
</g>
<!-- Node2&#45;&gt;Node15 -->
<g id="edge20" class="edge">
<title>Node2&#45;&gt;Node15</title>
<path fill="none" stroke="midnightblue" d="M747.04,-392.11C747.04,-383.15 747.04,-373.32 747.04,-365.58"/>
<polygon fill="midnightblue" stroke="midnightblue" points="743.54,-392.4 747.04,-402.4 750.54,-392.4 743.54,-392.4"/>
</g>
<!-- Node16 -->
<g id="node16" class="node">
<title>Node16</title>
<g id="a_node16"><a xlink:href="wait__until_8hpp.html" target="_top" xlink:title=" ">
<polygon fill="none" stroke="black" points="813.04,-335.5 813.04,-365.5 909.04,-365.5 909.04,-335.5 813.04,-335.5"/>
<text text-anchor="start" x="821.04" y="-353.5" font-family="Helvetica,sans-Serif" font-size="10.00">include/yaclib/algo</text>
<text text-anchor="middle" x="861.04" y="-342.5" font-family="Helvetica,sans-Serif" font-size="10.00">/wait_until.hpp</text>
</a>
</g>
</g>
<!-- Node2&#45;&gt;Node16 -->
<g id="edge21" class="edge">
<title>Node2&#45;&gt;Node16</title>
<path fill="none" stroke="midnightblue" d="M780.72,-397.3C798.56,-387.12 820.08,-374.85 836.35,-365.58"/>
<polygon fill="midnightblue" stroke="midnightblue" points="778.73,-394.4 771.78,-402.4 782.2,-400.48 778.73,-394.4"/>
</g>
<!-- Node17 -->
<g id="node17" class="node">
<title>Node17</title>
<g id="a_node17"><a xlink:href="wait__impl_8cpp.html" target="_top" xlink:title=" ">
<polygon fill="none" stroke="black" points="927.54,-341 927.54,-360 1040.54,-360 1040.54,-341 927.54,-341"/>
<text text-anchor="middle" x="984.04" y="-348" font-family="Helvetica,sans-Serif" font-size="10.00">src/algo/wait_impl.cpp</text>
</a>
</g>
</g>
<!-- Node2&#45;&gt;Node17 -->
<g id="edge22" class="edge">
<title>Node2&#45;&gt;Node17</title>
<path fill="none" stroke="midnightblue" d="M807.82,-399.83C854.2,-387.11 916.2,-370.11 952.94,-360.03"/>
<polygon fill="midnightblue" stroke="midnightblue" points="806.89,-396.46 798.17,-402.48 808.74,-403.21 806.89,-396.46"/>
</g>
<!-- Node4 -->
<g id="node4" class="node">
<title>Node4</title>
<g id="a_node4"><a xlink:href="future__impl_8hpp.html" target="_top" xlink:title=" ">
<polygon fill="none" stroke="black" points="271.04,-268.5 271.04,-298.5 383.04,-298.5 383.04,-268.5 271.04,-268.5"/>
<text text-anchor="start" x="279.04" y="-286.5" font-family="Helvetica,sans-Serif" font-size="10.00">include/yaclib/async</text>
<text text-anchor="middle" x="327.04" y="-275.5" font-family="Helvetica,sans-Serif" font-size="10.00">/detail/future_impl.hpp</text>
</a>
</g>
</g>
<!-- Node3&#45;&gt;Node4 -->
<g id="edge3" class="edge">
<title>Node3&#45;&gt;Node4</title>
<path fill="none" stroke="midnightblue" d="M574.78,-334.77C503.22,-318.57 431.39,-304.33 383.08,-295.05"/>
<polygon fill="midnightblue" stroke="midnightblue" points="574.35,-338.26 584.88,-337.07 575.9,-331.44 574.35,-338.26"/>
</g>
<!-- Node5 -->
<g id="node5" class="node">
<title>Node5</title>
<g id="a_node5"><a xlink:href="future_8hpp.html" target="_top" xlink:title=" ">
<polygon fill="none" stroke="black" points="241.04,-201.5 241.04,-231.5 345.04,-231.5 345.04,-201.5 241.04,-201.5"/>
<text text-anchor="start" x="249.04" y="-219.5" font-family="Helvetica,sans-Serif" font-size="10.00">include/yaclib/async</text>
<text text-anchor="middle" x="293.04" y="-208.5" font-family="Helvetica,sans-Serif" font-size="10.00">/future.hpp</text>
</a>
</g>
</g>
<!-- Node4&#45;&gt;Node5 -->
<g id="edge4" class="edge">
<title>Node4&#45;&gt;Node5</title>
<path fill="none" stroke="midnightblue" d="M314.9,-259.28C310.05,-250.02 304.63,-239.66 300.4,-231.58"/>
<polygon fill="midnightblue" stroke="midnightblue" points="311.93,-261.16 319.66,-268.4 318.13,-257.91 311.93,-261.16"/>
</g>
<!-- Node10 -->
<g id="node10" class="node">
<title>Node10</title>
<g id="a_node10"><a xlink:href="promise_8hpp.html" target="_top" xlink:title=" ">
<polygon fill="none" stroke="black" points="359.04,-134.5 359.04,-164.5 463.04,-164.5 463.04,-134.5 359.04,-134.5"/>
<text text-anchor="start" x="367.04" y="-152.5" font-family="Helvetica,sans-Serif" font-size="10.00">include/yaclib/async</text>
<text text-anchor="middle" x="411.04" y="-141.5" font-family="Helvetica,sans-Serif" font-size="10.00">/promise.hpp</text>
</a>
</g>
</g>
<!-- Node4&#45;&gt;Node10 -->
<g id="edge19" class="edge">
<title>Node4&#45;&gt;Node10</title>
<path fill="none" stroke="midnightblue" d="M341.46,-259.83C358.88,-232.47 387.63,-187.28 402.11,-164.52"/>
<polygon fill="midnightblue" stroke="midnightblue" points="338.44,-258.06 336.03,-268.37 344.35,-261.82 338.44,-258.06"/>
</g>
<!-- Node6 -->
<g id="node6" class="node">
<title>Node6</title>
<g id="a_node6"><a xlink:href="when__any_8hpp.html" target="_top" xlink:title=" ">
<polygon fill="none" stroke="black" points="172.04,-67.5 172.04,-97.5 268.04,-97.5 268.04,-67.5 172.04,-67.5"/>
<text text-anchor="start" x="180.04" y="-85.5" font-family="Helvetica,sans-Serif" font-size="10.00">include/yaclib/algo</text>
<text text-anchor="middle" x="220.04" y="-74.5" font-family="Helvetica,sans-Serif" font-size="10.00">/when_any.hpp</text>
</a>
</g>
</g>
<!-- Node5&#45;&gt;Node6 -->
<g id="edge5" class="edge">
<title>Node5&#45;&gt;Node6</title>
<path fill="none" stroke="midnightblue" d="M231.89,-198.36C203.48,-189.04 174.18,-177 166.04,-165 150.12,-141.54 177.95,-114.01 199.23,-97.7"/>
<polygon fill="midnightblue" stroke="midnightblue" points="230.87,-201.71 241.46,-201.42 232.99,-195.04 230.87,-201.71"/>
</g>
<!-- Node8 -->
<g id="node8" class="node">
<title>Node8</title>
<g id="a_node8"><a xlink:href="when__all_8hpp.html" target="_top" xlink:title=" ">
<polygon fill="none" stroke="black" points="286.04,-67.5 286.04,-97.5 382.04,-97.5 382.04,-67.5 286.04,-67.5"/>
<text text-anchor="start" x="294.04" y="-85.5" font-family="Helvetica,sans-Serif" font-size="10.00">include/yaclib/algo</text>
<text text-anchor="middle" x="334.04" y="-74.5" font-family="Helvetica,sans-Serif" font-size="10.00">/when_all.hpp</text>
</a>
</g>
</g>
<!-- Node5&#45;&gt;Node8 -->
<g id="edge7" class="edge">
<title>Node5&#45;&gt;Node8</title>
<path fill="none" stroke="midnightblue" d="M302.45,-191.91C305.67,-183.48 309.18,-173.87 312.04,-165 319.55,-141.7 326.62,-114.12 330.63,-97.76"/>
<polygon fill="midnightblue" stroke="midnightblue" points="299.09,-190.89 298.73,-201.48 305.62,-193.43 299.09,-190.89"/>
</g>
<!-- Node5&#45;&gt;Node10 -->
<g id="edge9" class="edge">
<title>Node5&#45;&gt;Node10</title>
<path fill="none" stroke="midnightblue" d="M321.68,-196.3C339.29,-186.12 361.75,-173.85 379.81,-164.58"/>
<polygon fill="midnightblue" stroke="midnightblue" points="319.83,-193.32 312.97,-201.4 323.36,-199.37 319.83,-193.32"/>
</g>
<!-- Node12 -->
<g id="node12" class="node">
<title>Node12</title>
<g id="a_node12"><a xlink:href="run_8hpp.html" target="_top" xlink:title=" ">
<polygon fill="none" stroke="black" points="15.04,-134.5 15.04,-164.5 119.04,-164.5 119.04,-134.5 15.04,-134.5"/>
<text text-anchor="start" x="23.04" y="-152.5" font-family="Helvetica,sans-Serif" font-size="10.00">include/yaclib/async</text>
<text text-anchor="middle" x="67.04" y="-141.5" font-family="Helvetica,sans-Serif" font-size="10.00">/run.hpp</text>
</a>
</g>
</g>
<!-- Node5&#45;&gt;Node12 -->
<g id="edge14" class="edge">
<title>Node5&#45;&gt;Node12</title>
<path fill="none" stroke="midnightblue" d="M234.21,-198.58C197.5,-188.02 150.81,-174.59 116.1,-164.61"/>
<polygon fill="midnightblue" stroke="midnightblue" points="233.7,-202.08 244.28,-201.48 235.64,-195.35 233.7,-202.08"/>
</g>
<!-- Node14 -->
<g id="node14" class="node">
<title>Node14</title>
<g id="a_node14"><a xlink:href="future__impl_8cpp.html" target="_top" xlink:title=" ">
<polygon fill="none" stroke="black" points="175.04,-140 175.04,-159 303.04,-159 303.04,-140 175.04,-140"/>
<text text-anchor="middle" x="239.04" y="-147" font-family="Helvetica,sans-Serif" font-size="10.00">src/async/future_impl.cpp</text>
</a>
</g>
</g>
<!-- Node5&#45;&gt;Node14 -->
<g id="edge18" class="edge">
<title>Node5&#45;&gt;Node14</title>
<path fill="none" stroke="midnightblue" d="M274.89,-193.66C265.1,-181.86 253.55,-167.97 246.26,-159.19"/>
<polygon fill="midnightblue" stroke="midnightblue" points="272.24,-195.94 281.32,-201.4 277.62,-191.47 272.24,-195.94"/>
</g>
<!-- Node7 -->
<g id="node7" class="node">
<title>Node7</title>
<g id="a_node7"><a xlink:href="when__any_8cpp.html" target="_top" xlink:title=" ">
<polygon fill="none" stroke="black" points="50.54,-0.5 50.54,-30.5 151.54,-30.5 151.54,-0.5 50.54,-0.5"/>
<text text-anchor="start" x="58.54" y="-18.5" font-family="Helvetica,sans-Serif" font-size="10.00">test/example/async</text>
<text text-anchor="middle" x="101.04" y="-7.5" font-family="Helvetica,sans-Serif" font-size="10.00">/when_any.cpp</text>
</a>
</g>
</g>
<!-- Node6&#45;&gt;Node7 -->
<g id="edge6" class="edge">
<title>Node6&#45;&gt;Node7</title>
<path fill="none" stroke="midnightblue" d="M185.39,-62.57C166.67,-52.35 143.95,-39.94 126.81,-30.58"/>
<polygon fill="midnightblue" stroke="midnightblue" points="183.76,-65.67 194.22,-67.4 187.12,-59.53 183.76,-65.67"/>
</g>
<!-- Node9 -->
<g id="node9" class="node">
<title>Node9</title>
<g id="a_node9"><a xlink:href="when__all_8cpp.html" target="_top" xlink:title=" ">
<polygon fill="none" stroke="black" points="188.54,-0.5 188.54,-30.5 289.54,-30.5 289.54,-0.5 188.54,-0.5"/>
<text text-anchor="start" x="196.54" y="-18.5" font-family="Helvetica,sans-Serif" font-size="10.00">test/example/async</text>
<text text-anchor="middle" x="239.04" y="-7.5" font-family="Helvetica,sans-Serif" font-size="10.00">/when_all.cpp</text>
</a>
</g>
</g>
<!-- Node8&#45;&gt;Node9 -->
<g id="edge8" class="edge">
<title>Node8&#45;&gt;Node9</title>
<path fill="none" stroke="midnightblue" d="M305.15,-61.73C290.45,-51.68 272.92,-39.68 259.61,-30.58"/>
<polygon fill="midnightblue" stroke="midnightblue" points="303.2,-64.64 313.43,-67.4 307.15,-58.86 303.2,-64.64"/>
</g>
<!-- Node10&#45;&gt;Node5 -->
<g id="edge12" class="edge">
<title>Node10&#45;&gt;Node5</title>
<path fill="none" stroke="midnightblue" d="M382.45,-169.67C364.85,-179.84 342.39,-192.11 324.32,-201.4"/>
<polygon fill="midnightblue" stroke="midnightblue" points="384.3,-172.65 391.16,-164.58 380.76,-166.61 384.3,-172.65"/>
</g>
<!-- Node10&#45;&gt;Node6 -->
<g id="edge10" class="edge">
<title>Node10&#45;&gt;Node6</title>
<path fill="none" stroke="midnightblue" d="M359.89,-131.09C329.05,-120.6 290.29,-107.41 261.4,-97.58"/>
<polygon fill="midnightblue" stroke="midnightblue" points="359,-134.49 369.6,-134.4 361.26,-127.86 359,-134.49"/>
</g>
<!-- Node10&#45;&gt;Node8 -->
<g id="edge11" class="edge">
<title>Node10&#45;&gt;Node8</title>
<path fill="none" stroke="midnightblue" d="M386.62,-127.88C374.92,-118.01 361.2,-106.43 350.71,-97.58"/>
<polygon fill="midnightblue" stroke="midnightblue" points="384.43,-130.62 394.33,-134.4 388.95,-125.27 384.43,-130.62"/>
</g>
<!-- Node11 -->
<g id="node11" class="node">
<title>Node11</title>
<g id="a_node11"><a xlink:href="promise__impl_8cpp.html" target="_top" xlink:title=" ">
<polygon fill="none" stroke="black" points="400.54,-73 400.54,-92 537.54,-92 537.54,-73 400.54,-73"/>
<text text-anchor="middle" x="469.04" y="-80" font-family="Helvetica,sans-Serif" font-size="10.00">src/async/promise_impl.cpp</text>
</a>
</g>
</g>
<!-- Node10&#45;&gt;Node11 -->
<g id="edge13" class="edge">
<title>Node10&#45;&gt;Node11</title>
<path fill="none" stroke="midnightblue" d="M430.53,-126.66C441.05,-114.86 453.45,-100.97 461.28,-92.19"/>
<polygon fill="midnightblue" stroke="midnightblue" points="427.67,-124.6 423.62,-134.4 432.89,-129.26 427.67,-124.6"/>
</g>
<!-- Node12&#45;&gt;Node7 -->
<g id="edge17" class="edge">
<title>Node12&#45;&gt;Node7</title>
<path fill="none" stroke="midnightblue" d="M31.96,-128.54C21.3,-120.54 10.87,-110.27 5.04,-98 -0.87,-85.56 -2.08,-78.79 5.04,-67 15.36,-49.91 33.59,-38.32 51.41,-30.6"/>
<polygon fill="midnightblue" stroke="midnightblue" points="30.27,-131.63 40.48,-134.47 34.27,-125.88 30.27,-131.63"/>
</g>
<!-- Node12&#45;&gt;Node9 -->
<g id="edge15" class="edge">
<title>Node12&#45;&gt;Node9</title>
<path fill="none" stroke="midnightblue" d="M91.07,-127.54C114.63,-107.1 148.98,-77.58 163.04,-67 180.38,-53.95 200.93,-40.4 216.28,-30.63"/>
<polygon fill="midnightblue" stroke="midnightblue" points="88.49,-125.14 83.24,-134.34 93.09,-130.43 88.49,-125.14"/>
</g>
<!-- Node13 -->
<g id="node13" class="node">
<title>Node13</title>
<g id="a_node13"><a xlink:href="simple_8cpp.html" target="_top" xlink:title=" ">
<polygon fill="none" stroke="black" points="14.54,-67.5 14.54,-97.5 115.54,-97.5 115.54,-67.5 14.54,-67.5"/>
<text text-anchor="start" x="22.54" y="-85.5" font-family="Helvetica,sans-Serif" font-size="10.00">test/example/async</text>
<text text-anchor="middle" x="65.04" y="-74.5" font-family="Helvetica,sans-Serif" font-size="10.00">/simple.cpp</text>
</a>
</g>
</g>
<!-- Node12&#45;&gt;Node13 -->
<g id="edge16" class="edge">
<title>Node12&#45;&gt;Node13</title>
<path fill="none" stroke="midnightblue" d="M66.29,-124.11C66.01,-115.15 65.71,-105.32 65.47,-97.58"/>
<polygon fill="midnightblue" stroke="midnightblue" points="62.8,-124.51 66.61,-134.4 69.8,-124.29 62.8,-124.51"/>
</g>
<!-- Node18&#45;&gt;Node5 -->
<g id="edge27" class="edge">
<title>Node18&#45;&gt;Node5</title>
<path fill="none" stroke="midnightblue" d="M344.66,-409.73C315.89,-403.21 284.6,-390.53 266.04,-366 239.74,-331.24 250.19,-309.95 262.04,-268 265.84,-254.54 274.35,-241.12 281.5,-231.51"/>
<polygon fill="midnightblue" stroke="midnightblue" points="344.21,-413.21 354.71,-411.79 345.61,-406.36 344.21,-413.21"/>
</g>
<!-- Node18&#45;&gt;Node10 -->
<g id="edge28" class="edge">
<title>Node18&#45;&gt;Node10</title>
<path fill="none" stroke="midnightblue" d="M411.04,-392.07C411.04,-337.57 411.04,-207.52 411.04,-164.55"/>
<polygon fill="midnightblue" stroke="midnightblue" points="407.54,-392.2 411.04,-402.2 414.54,-392.2 407.54,-392.2"/>
</g>
<!-- Node19 -->
<g id="node19" class="node">
<title>Node19</title>
<g id="a_node19"><a xlink:href="core_8hpp.html" target="_top" xlink:title=" ">
<polygon fill="none" stroke="black" points="275.04,-335.5 275.04,-365.5 379.04,-365.5 379.04,-335.5 275.04,-335.5"/>
<text text-anchor="start" x="283.04" y="-353.5" font-family="Helvetica,sans-Serif" font-size="10.00">include/yaclib/async</text>
<text text-anchor="middle" x="327.04" y="-342.5" font-family="Helvetica,sans-Serif" font-size="10.00">/detail/core.hpp</text>
</a>
</g>
</g>
<!-- Node18&#45;&gt;Node19 -->
<g id="edge24" class="edge">
<title>Node18&#45;&gt;Node19</title>
<path fill="none" stroke="midnightblue" d="M384.76,-396.17C371.92,-386.23 356.78,-374.51 345.23,-365.58"/>
<polygon fill="midnightblue" stroke="midnightblue" points="382.76,-399.04 392.81,-402.4 387.05,-393.51 382.76,-399.04"/>
</g>
<!-- Node20 -->
<g id="node20" class="node">
<title>Node20</title>
<g id="a_node20"><a xlink:href="result__core_8cpp.html" target="_top" xlink:title=" ">
<polygon fill="none" stroke="black" points="439.04,-341 439.04,-360 567.04,-360 567.04,-341 439.04,-341"/>
<text text-anchor="middle" x="503.04" y="-348" font-family="Helvetica,sans-Serif" font-size="10.00">src/async/result_core.cpp</text>
</a>
</g>
</g>
<!-- Node18&#45;&gt;Node20 -->
<g id="edge29" class="edge">
<title>Node18&#45;&gt;Node20</title>
<path fill="none" stroke="midnightblue" d="M439.62,-396.31C456.9,-384.1 478.02,-369.18 491,-360.01"/>
<polygon fill="midnightblue" stroke="midnightblue" points="437.15,-393.77 431,-402.4 441.19,-399.48 437.15,-393.77"/>
</g>
<!-- Node19&#45;&gt;Node4 -->
<g id="edge25" class="edge">
<title>Node19&#45;&gt;Node4</title>
<path fill="none" stroke="midnightblue" d="M327.04,-325.11C327.04,-316.15 327.04,-306.32 327.04,-298.58"/>
<polygon fill="midnightblue" stroke="midnightblue" points="323.54,-325.4 327.04,-335.4 330.54,-325.4 323.54,-325.4"/>
</g>
<!-- Node19&#45;&gt;Node12 -->
<g id="edge26" class="edge">
<title>Node19&#45;&gt;Node12</title>
<path fill="none" stroke="midnightblue" d="M300.12,-328.89C247.19,-288.39 130.83,-199.33 85.57,-164.68"/>
<polygon fill="midnightblue" stroke="midnightblue" points="298.27,-331.89 308.34,-335.19 302.53,-326.33 298.27,-331.89"/>
</g>
</g>
</svg>
