<?xml version="1.0" encoding="UTF-8" standalone="no"?>
<!DOCTYPE svg PUBLIC "-//W3C//DTD SVG 1.1//EN"
 "http://www.w3.org/Graphics/SVG/1.1/DTD/svg11.dtd">
<!-- Generated by graphviz version 2.44.0 ()
 -->
<!-- Title: yaclib::ITask Pages: 1 -->
<svg width="244pt" height="153pt"
 viewBox="0.00 0.00 244.00 153.00" xmlns="http://www.w3.org/2000/svg" xmlns:xlink="http://www.w3.org/1999/xlink">
<g id="graph0" class="graph" transform="scale(1 1) rotate(0) translate(4 149)">
<title>yaclib::ITask</title>
<!-- Node1 -->
<g id="node1" class="node">
<title>Node1</title>
<g id="a_node1"><a xlink:title="Callable that can be executed in an IExecutor.">
<polygon fill="#bfbfbf" stroke="black" points="60.5,-0.5 60.5,-19.5 131.5,-19.5 131.5,-0.5 60.5,-0.5"/>
<text text-anchor="middle" x="96" y="-7.5" font-family="Helvetica,sans-Serif" font-size="10.00">yaclib::ITask</text>
</a>
</g>
</g>
<!-- Node2 -->
<g id="node2" class="node">
<title>Node2</title>
<g id="a_node2"><a xlink:href="classyaclib_1_1util_1_1IFunc.html" target="_top" xlink:title="Shared callable interface.">
<polygon fill="none" stroke="black" points="0,-63 0,-82 88,-82 88,-63 0,-63"/>
<text text-anchor="middle" x="44" y="-70" font-family="Helvetica,sans-Serif" font-size="10.00">yaclib::util::IFunc</text>
</a>
</g>
</g>
<!-- Node2&#45;&gt;Node1 -->
<g id="edge1" class="edge">
<title>Node2&#45;&gt;Node1</title>
<path fill="none" stroke="midnightblue" d="M57.99,-55.23C67.83,-43.78 80.61,-28.9 88.56,-19.65"/>
<polygon fill="midnightblue" stroke="midnightblue" points="55.31,-52.97 51.45,-62.83 60.62,-57.53 55.31,-52.97"/>
</g>
<!-- Node3 -->
<g id="node3" class="node">
<title>Node3</title>
<g id="a_node3"><a xlink:href="classyaclib_1_1util_1_1IRef.html" target="_top" xlink:title="Reference counting interface.">
<polygon fill="none" stroke="black" points="3.5,-125.5 3.5,-144.5 84.5,-144.5 84.5,-125.5 3.5,-125.5"/>
<text text-anchor="middle" x="44" y="-132.5" font-family="Helvetica,sans-Serif" font-size="10.00">yaclib::util::IRef</text>
</a>
</g>
</g>
<!-- Node3&#45;&gt;Node2 -->
<g id="edge2" class="edge">
<title>Node3&#45;&gt;Node2</title>
<path fill="none" stroke="midnightblue" d="M44,-115C44,-104 44,-90.68 44,-82.15"/>
<polygon fill="midnightblue" stroke="midnightblue" points="40.5,-115.33 44,-125.33 47.5,-115.33 40.5,-115.33"/>
</g>
<!-- Node4 -->
<g id="node4" class="node">
<title>Node4</title>
<g id="a_node4"><a xlink:href="classyaclib_1_1util_1_1detail_1_1Node.html" target="_top" xlink:title="Intrusive node class.">
<polygon fill="none" stroke="black" points="106,-57.5 106,-87.5 192,-87.5 192,-57.5 106,-57.5"/>
<text text-anchor="start" x="114" y="-75.5" font-family="Helvetica,sans-Serif" font-size="10.00">yaclib::util::detail</text>
<text text-anchor="middle" x="149" y="-64.5" font-family="Helvetica,sans-Serif" font-size="10.00">::Node</text>
</a>
</g>
</g>
<!-- Node4&#45;&gt;Node1 -->
<g id="edge3" class="edge">
<title>Node4&#45;&gt;Node1</title>
<path fill="none" stroke="midnightblue" d="M130.03,-49.84C120.85,-39.37 110.36,-27.39 103.48,-19.54"/>
<polygon fill="midnightblue" stroke="midnightblue" points="127.49,-52.25 136.71,-57.47 132.75,-47.64 127.49,-52.25"/>
</g>
<!-- Node4&#45;&gt;Node4 -->
<g id="edge4" class="edge">
<title>Node4&#45;&gt;Node4</title>
<path fill="none" stroke="#9a32cd" stroke-dasharray="5,2" d="M202.25,-77.54C207.01,-76.48 210,-74.8 210,-72.5 210,-68.81 202.35,-66.73 192.04,-66.24"/>
<polygon fill="#9a32cd" stroke="#9a32cd" points="201.55,-74.1 192.04,-78.76 202.38,-81.05 201.55,-74.1"/>
<text text-anchor="middle" x="223" y="-75.5" font-family="Helvetica,sans-Serif" font-size="10.00"> _next</text>
<text text-anchor="middle" x="223" y="-64.5" font-family="Helvetica,sans-Serif" font-size="10.00">_prev</text>
</g>
</g>
</svg>
