<?xml version="1.0" encoding="UTF-8" standalone="no"?>
<!DOCTYPE svg PUBLIC "-//W3C//DTD SVG 1.1//EN"
 "http://www.w3.org/Graphics/SVG/1.1/DTD/svg11.dtd">
<!-- Generated by graphviz version 2.44.0 ()
 -->
<!-- Title: yaclib::util::Counter&lt; CounterBase, Deleter &gt; Pages: 1 -->
<svg width="186pt" height="106pt"
 viewBox="0.00 0.00 185.50 106.00" xmlns="http://www.w3.org/2000/svg" xmlns:xlink="http://www.w3.org/1999/xlink">
<g id="graph0" class="graph" transform="scale(1 1) rotate(0) translate(4 102)">
<title>yaclib::util::Counter&lt; CounterBase, Deleter &gt;</title>
<!-- Node1 -->
<g id="node1" class="node">
<title>Node1</title>
<g id="a_node1"><a xlink:title=" ">
<polygon fill="#bfbfbf" stroke="black" points="23,-0.5 23,-30.5 148,-30.5 148,-0.5 23,-0.5"/>
<text text-anchor="start" x="31" y="-18.5" font-family="Helvetica,sans-Serif" font-size="10.00">yaclib::util::Counter</text>
<text text-anchor="middle" x="85.5" y="-7.5" font-family="Helvetica,sans-Serif" font-size="10.00">&lt; CounterBase, Deleter &gt;</text>
</a>
</g>
</g>
<!-- Node2 -->
<g id="node2" class="node">
<title>Node2</title>
<g id="a_node2"><a xlink:href="classCounterBase.html" target="_top" xlink:title=" ">
<polygon fill="none" stroke="black" points="0,-73 0,-92 73,-92 73,-73 0,-73"/>
<text text-anchor="middle" x="36.5" y="-80" font-family="Helvetica,sans-Serif" font-size="10.00">CounterBase</text>
</a>
</g>
</g>
<!-- Node2&#45;&gt;Node1 -->
<g id="edge1" class="edge">
<title>Node2&#45;&gt;Node1</title>
<path fill="none" stroke="midnightblue" d="M49.19,-64.67C57.16,-54.09 67.33,-40.6 74.88,-30.59"/>
<polygon fill="midnightblue" stroke="midnightblue" points="46.33,-62.64 43.11,-72.73 51.92,-66.86 46.33,-62.64"/>
</g>
<!-- Node3 -->
<g id="node3" class="node">
<title>Node3</title>
<g id="a_node3"><a xlink:href="structyaclib_1_1util_1_1detail_1_1DefaultDeleter.html" target="_top" xlink:title=" ">
<polygon fill="none" stroke="black" points="91.5,-67.5 91.5,-97.5 177.5,-97.5 177.5,-67.5 91.5,-67.5"/>
<text text-anchor="start" x="99.5" y="-85.5" font-family="Helvetica,sans-Serif" font-size="10.00">yaclib::util::detail</text>
<text text-anchor="middle" x="134.5" y="-74.5" font-family="Helvetica,sans-Serif" font-size="10.00">::DefaultDeleter</text>
</a>
</g>
</g>
<!-- Node3&#45;&gt;Node1 -->
<g id="edge2" class="edge">
<title>Node3&#45;&gt;Node1</title>
<path fill="none" stroke="midnightblue" d="M117.66,-59.16C110.51,-49.68 102.4,-38.92 96.11,-30.58"/>
<polygon fill="midnightblue" stroke="midnightblue" points="115.05,-61.52 123.87,-67.4 120.64,-57.3 115.05,-61.52"/>
</g>
</g>
</svg>
