<?xml version="1.0" encoding="UTF-8" standalone="no"?>
<!DOCTYPE svg PUBLIC "-//W3C//DTD SVG 1.1//EN"
 "http://www.w3.org/Graphics/SVG/1.1/DTD/svg11.dtd">
<!-- Generated by graphviz version 2.44.0 ()
 -->
<!-- Title: yaclib::detail::WaitCore Pages: 1 -->
<svg width="316pt" height="95pt"
 viewBox="0.00 0.00 316.00 95.00" xmlns="http://www.w3.org/2000/svg" xmlns:xlink="http://www.w3.org/1999/xlink">
<g id="graph0" class="graph" transform="scale(1 1) rotate(0) translate(4 91)">
<title>yaclib::detail::WaitCore</title>
<!-- Node1 -->
<g id="node1" class="node">
<title>Node1</title>
<g id="a_node1"><a xlink:title=" ">
<polygon fill="#bfbfbf" stroke="black" points="133,-0.5 133,-19.5 246,-19.5 246,-0.5 133,-0.5"/>
<text text-anchor="middle" x="189.5" y="-7.5" font-family="Helvetica,sans-Serif" font-size="10.00">yaclib::detail::WaitCore</text>
</a>
</g>
</g>
<!-- Node2 -->
<g id="node2" class="node">
<title>Node2</title>
<g id="a_node2"><a xlink:href="classyaclib_1_1util_1_1IRef.html" target="_top" xlink:title="Reference counting interface.">
<polygon fill="none" stroke="black" points="0,-67.5 0,-86.5 81,-86.5 81,-67.5 0,-67.5"/>
<text text-anchor="middle" x="40.5" y="-74.5" font-family="Helvetica,sans-Serif" font-size="10.00">yaclib::util::IRef</text>
</a>
</g>
</g>
<!-- Node2&#45;&gt;Node1 -->
<g id="edge1" class="edge">
<title>Node2&#45;&gt;Node1</title>
<path fill="none" stroke="midnightblue" d="M69.66,-63.28C99.16,-50.41 143.99,-30.85 169.63,-19.67"/>
<polygon fill="midnightblue" stroke="midnightblue" points="68.05,-60.16 60.29,-67.37 70.85,-66.58 68.05,-60.16"/>
</g>
<!-- Node3 -->
<g id="node3" class="node">
<title>Node3</title>
<g id="a_node3"><a xlink:title=" ">
<polygon fill="none" stroke="#bfbfbf" points="99,-67.5 99,-86.5 194,-86.5 194,-67.5 99,-67.5"/>
<text text-anchor="middle" x="146.5" y="-74.5" font-family="Helvetica,sans-Serif" font-size="10.00">condition_variable</text>
</a>
</g>
</g>
<!-- Node3&#45;&gt;Node1 -->
<g id="edge2" class="edge">
<title>Node3&#45;&gt;Node1</title>
<path fill="none" stroke="#9a32cd" stroke-dasharray="5,2" d="M158.05,-58.53C166.38,-45.95 177.26,-29.51 183.79,-19.63"/>
<polygon fill="#9a32cd" stroke="#9a32cd" points="154.9,-56.96 152.3,-67.23 160.74,-60.82 154.9,-56.96"/>
<text text-anchor="middle" x="178" y="-41" font-family="Helvetica,sans-Serif" font-size="10.00"> cv</text>
</g>
<!-- Node4 -->
<g id="node4" class="node">
<title>Node4</title>
<g id="a_node4"><a xlink:title=" ">
<polygon fill="none" stroke="#bfbfbf" points="212,-67.5 212,-86.5 255,-86.5 255,-67.5 212,-67.5"/>
<text text-anchor="middle" x="233.5" y="-74.5" font-family="Helvetica,sans-Serif" font-size="10.00">mutex</text>
</a>
</g>
</g>
<!-- Node4&#45;&gt;Node1 -->
<g id="edge3" class="edge">
<title>Node4&#45;&gt;Node1</title>
<path fill="none" stroke="#9a32cd" stroke-dasharray="5,2" d="M221.93,-58.9C213.38,-46.27 202.09,-29.6 195.34,-19.63"/>
<polygon fill="#9a32cd" stroke="#9a32cd" points="219.06,-60.91 227.57,-67.23 224.86,-56.99 219.06,-60.91"/>
<text text-anchor="middle" x="219" y="-41" font-family="Helvetica,sans-Serif" font-size="10.00"> m</text>
</g>
<!-- Node5 -->
<g id="node5" class="node">
<title>Node5</title>
<g id="a_node5"><a xlink:title=" ">
<polygon fill="none" stroke="#bfbfbf" points="273,-67.5 273,-86.5 308,-86.5 308,-67.5 273,-67.5"/>
<text text-anchor="middle" x="290.5" y="-74.5" font-family="Helvetica,sans-Serif" font-size="10.00">bool</text>
</a>
</g>
</g>
<!-- Node5&#45;&gt;Node1 -->
<g id="edge4" class="edge">
<title>Node5&#45;&gt;Node1</title>
<path fill="none" stroke="#9a32cd" stroke-dasharray="5,2" d="M268.39,-61.77C248.39,-48.9 219.61,-30.38 202.91,-19.63"/>
<polygon fill="#9a32cd" stroke="#9a32cd" points="266.58,-64.77 276.88,-67.23 270.36,-58.88 266.58,-64.77"/>
<text text-anchor="middle" x="265" y="-41" font-family="Helvetica,sans-Serif" font-size="10.00"> is_ready</text>
</g>
</g>
</svg>
