<?xml version="1.0" encoding="UTF-8" standalone="no"?>
<!DOCTYPE svg PUBLIC "-//W3C//DTD SVG 1.1//EN"
 "http://www.w3.org/Graphics/SVG/1.1/DTD/svg11.dtd">
<!-- Generated by graphviz version 2.44.0 ()
 -->
<!-- Title: yaclib::detail::AnyCombinator&lt; T, P &gt; Pages: 1 -->
<svg width="320pt" height="285pt"
 viewBox="0.00 0.00 320.00 285.00" xmlns="http://www.w3.org/2000/svg" xmlns:xlink="http://www.w3.org/1999/xlink">
<g id="graph0" class="graph" transform="scale(1 1) rotate(0) translate(4 281)">
<title>yaclib::detail::AnyCombinator&lt; T, P &gt;</title>
<!-- Node1 -->
<g id="node1" class="node">
<title>Node1</title>
<g id="a_node1"><a xlink:title=" ">
<polygon fill="#bfbfbf" stroke="black" points="99,-0.5 99,-30.5 239,-30.5 239,-0.5 99,-0.5"/>
<text text-anchor="start" x="107" y="-18.5" font-family="Helvetica,sans-Serif" font-size="10.00">yaclib::detail::AnyCombinator</text>
<text text-anchor="middle" x="169" y="-7.5" font-family="Helvetica,sans-Serif" font-size="10.00">&lt; T, P &gt;</text>
</a>
</g>
</g>
<!-- Node2 -->
<g id="node2" class="node">
<title>Node2</title>
<g id="a_node2"><a xlink:href="classyaclib_1_1detail_1_1BaseCore.html" target="_top" xlink:title=" ">
<polygon fill="none" stroke="black" points="38,-73 38,-92 154,-92 154,-73 38,-73"/>
<text text-anchor="middle" x="96" y="-80" font-family="Helvetica,sans-Serif" font-size="10.00">yaclib::detail::BaseCore</text>
</a>
</g>
</g>
<!-- Node2&#45;&gt;Node1 -->
<g id="edge1" class="edge">
<title>Node2&#45;&gt;Node1</title>
<path fill="none" stroke="midnightblue" d="M113.49,-65.93C125.56,-55.18 141.48,-41 153.18,-30.59"/>
<polygon fill="midnightblue" stroke="midnightblue" points="110.99,-63.47 105.85,-72.73 115.64,-68.7 110.99,-63.47"/>
</g>
<!-- Node3 -->
<g id="node3" class="node">
<title>Node3</title>
<g id="a_node3"><a xlink:href="classyaclib_1_1ITask.html" target="_top" xlink:title="Callable that can be executed in an IExecutor.">
<polygon fill="none" stroke="black" points="60.5,-134.5 60.5,-153.5 131.5,-153.5 131.5,-134.5 60.5,-134.5"/>
<text text-anchor="middle" x="96" y="-141.5" font-family="Helvetica,sans-Serif" font-size="10.00">yaclib::ITask</text>
</a>
</g>
</g>
<!-- Node3&#45;&gt;Node2 -->
<g id="edge2" class="edge">
<title>Node3&#45;&gt;Node2</title>
<path fill="none" stroke="midnightblue" d="M96,-124.32C96,-113.5 96,-100.4 96,-92.01"/>
<polygon fill="midnightblue" stroke="midnightblue" points="92.5,-124.48 96,-134.48 99.5,-124.48 92.5,-124.48"/>
</g>
<!-- Node4 -->
<g id="node4" class="node">
<title>Node4</title>
<g id="a_node4"><a xlink:href="classyaclib_1_1util_1_1IFunc.html" target="_top" xlink:title="Shared callable interface.">
<polygon fill="none" stroke="black" points="0,-196 0,-215 88,-215 88,-196 0,-196"/>
<text text-anchor="middle" x="44" y="-203" font-family="Helvetica,sans-Serif" font-size="10.00">yaclib::util::IFunc</text>
</a>
</g>
</g>
<!-- Node4&#45;&gt;Node3 -->
<g id="edge3" class="edge">
<title>Node4&#45;&gt;Node3</title>
<path fill="none" stroke="midnightblue" d="M58.27,-188.17C68.08,-176.95 80.69,-162.52 88.56,-153.51"/>
<polygon fill="midnightblue" stroke="midnightblue" points="55.4,-186.14 51.45,-195.98 60.67,-190.75 55.4,-186.14"/>
</g>
<!-- Node5 -->
<g id="node5" class="node">
<title>Node5</title>
<g id="a_node5"><a xlink:href="classyaclib_1_1util_1_1IRef.html" target="_top" xlink:title="Reference counting interface.">
<polygon fill="none" stroke="black" points="3.5,-257.5 3.5,-276.5 84.5,-276.5 84.5,-257.5 3.5,-257.5"/>
<text text-anchor="middle" x="44" y="-264.5" font-family="Helvetica,sans-Serif" font-size="10.00">yaclib::util::IRef</text>
</a>
</g>
</g>
<!-- Node5&#45;&gt;Node4 -->
<g id="edge4" class="edge">
<title>Node5&#45;&gt;Node4</title>
<path fill="none" stroke="midnightblue" d="M44,-247.32C44,-236.5 44,-223.4 44,-215.01"/>
<polygon fill="midnightblue" stroke="midnightblue" points="40.5,-247.48 44,-257.48 47.5,-247.48 40.5,-247.48"/>
</g>
<!-- Node6 -->
<g id="node6" class="node">
<title>Node6</title>
<g id="a_node6"><a xlink:href="classyaclib_1_1util_1_1detail_1_1Node.html" target="_top" xlink:title="Intrusive node class.">
<polygon fill="none" stroke="black" points="106,-190.5 106,-220.5 192,-220.5 192,-190.5 106,-190.5"/>
<text text-anchor="start" x="114" y="-208.5" font-family="Helvetica,sans-Serif" font-size="10.00">yaclib::util::detail</text>
<text text-anchor="middle" x="149" y="-197.5" font-family="Helvetica,sans-Serif" font-size="10.00">::Node</text>
</a>
</g>
</g>
<!-- Node6&#45;&gt;Node3 -->
<g id="edge5" class="edge">
<title>Node6&#45;&gt;Node3</title>
<path fill="none" stroke="midnightblue" d="M129.58,-182.7C120.62,-172.64 110.48,-161.26 103.71,-153.66"/>
<polygon fill="midnightblue" stroke="midnightblue" points="127.17,-185.26 136.44,-190.4 132.4,-180.6 127.17,-185.26"/>
</g>
<!-- Node7 -->
<g id="node7" class="node">
<title>Node7</title>
<g id="a_node7"><a xlink:href="classyaclib_1_1detail_1_1AnyCombinatorBase.html" target="_top" xlink:title=" ">
<polygon fill="none" stroke="black" points="172,-67.5 172,-97.5 312,-97.5 312,-67.5 172,-67.5"/>
<text text-anchor="start" x="180" y="-85.5" font-family="Helvetica,sans-Serif" font-size="10.00">yaclib::detail::AnyCombinator</text>
<text text-anchor="middle" x="242" y="-74.5" font-family="Helvetica,sans-Serif" font-size="10.00">Base&lt; T, P &gt;</text>
</a>
</g>
</g>
<!-- Node7&#45;&gt;Node1 -->
<g id="edge6" class="edge">
<title>Node7&#45;&gt;Node1</title>
<path fill="none" stroke="midnightblue" d="M218.53,-60.6C207.5,-50.78 194.66,-39.34 184.81,-30.58"/>
<polygon fill="midnightblue" stroke="midnightblue" points="216.36,-63.36 226.16,-67.4 221.02,-58.13 216.36,-63.36"/>
</g>
</g>
</svg>
