<?xml version="1.0" encoding="UTF-8" standalone="no"?>
<!DOCTYPE svg PUBLIC "-//W3C//DTD SVG 1.1//EN"
 "http://www.w3.org/Graphics/SVG/1.1/DTD/svg11.dtd">
<!-- Generated by graphviz version 2.44.0 ()
 -->
<!-- Title: yaclib::detail::WaitCore Pages: 1 -->
<svg width="429pt" height="50pt"
 viewBox="0.00 0.00 429.00 50.00" xmlns="http://www.w3.org/2000/svg" xmlns:xlink="http://www.w3.org/1999/xlink">
<g id="graph0" class="graph" transform="scale(1 1) rotate(0) translate(4 46)">
<title>yaclib::detail::WaitCore</title>
<!-- Node1 -->
<g id="node1" class="node">
<title>Node1</title>
<g id="a_node1"><a xlink:title=" ">
<polygon fill="#bfbfbf" stroke="black" points="117,-11.5 117,-30.5 230,-30.5 230,-11.5 117,-11.5"/>
<text text-anchor="middle" x="173.5" y="-18.5" font-family="Helvetica,sans-Serif" font-size="10.00">yaclib::detail::WaitCore</text>
</a>
</g>
</g>
<!-- Node3 -->
<g id="node3" class="node">
<title>Node3</title>
<g id="a_node3"><a xlink:href="classyaclib_1_1util_1_1Counter.html" target="_top" xlink:title=" ">
<polygon fill="none" stroke="black" points="266,-0.5 266,-41.5 421,-41.5 421,-0.5 266,-0.5"/>
<text text-anchor="start" x="274" y="-29.5" font-family="Helvetica,sans-Serif" font-size="10.00">yaclib::util::Counter</text>
<text text-anchor="start" x="274" y="-18.5" font-family="Helvetica,sans-Serif" font-size="10.00">&lt; yaclib::detail::WaitCore,</text>
<text text-anchor="middle" x="343.5" y="-7.5" font-family="Helvetica,sans-Serif" font-size="10.00"> yaclib::detail::WaitCoreDeleter &gt;</text>
</a>
</g>
</g>
<!-- Node1&#45;&gt;Node3 -->
<g id="edge2" class="edge">
<title>Node1&#45;&gt;Node3</title>
<path fill="none" stroke="midnightblue" d="M240.46,-21C248.8,-21 257.38,-21 265.86,-21"/>
<polygon fill="midnightblue" stroke="midnightblue" points="240.44,-17.5 230.44,-21 240.44,-24.5 240.44,-17.5"/>
</g>
<!-- Node2 -->
<g id="node2" class="node">
<title>Node2</title>
<g id="a_node2"><a xlink:href="classyaclib_1_1util_1_1IRef.html" target="_top" xlink:title="Reference counting interface.">
<polygon fill="none" stroke="black" points="0,-11.5 0,-30.5 81,-30.5 81,-11.5 0,-11.5"/>
<text text-anchor="middle" x="40.5" y="-18.5" font-family="Helvetica,sans-Serif" font-size="10.00">yaclib::util::IRef</text>
</a>
</g>
</g>
<!-- Node2&#45;&gt;Node1 -->
<g id="edge1" class="edge">
<title>Node2&#45;&gt;Node1</title>
<path fill="none" stroke="midnightblue" d="M91.36,-21C99.59,-21 108.17,-21 116.54,-21"/>
<polygon fill="midnightblue" stroke="midnightblue" points="91.16,-17.5 81.16,-21 91.16,-24.5 91.16,-17.5"/>
</g>
</g>
</svg>
