<?xml version="1.0" encoding="UTF-8" standalone="no"?>
<!DOCTYPE svg PUBLIC "-//W3C//DTD SVG 1.1//EN"
 "http://www.w3.org/Graphics/SVG/1.1/DTD/svg11.dtd">
<!-- Generated by graphviz version 2.44.0 ()
 -->
<!-- Title: CounterBase Pages: 1 -->
<svg width="579pt" height="95pt"
 viewBox="0.00 0.00 579.00 94.50" xmlns="http://www.w3.org/2000/svg" xmlns:xlink="http://www.w3.org/1999/xlink">
<g id="graph0" class="graph" transform="scale(1 1) rotate(0) translate(4 90.5)">
<title>CounterBase</title>
<!-- Node1 -->
<g id="node1" class="node">
<title>Node1</title>
<g id="a_node1"><a xlink:title=" ">
<polygon fill="#bfbfbf" stroke="black" points="0,-18 0,-37 73,-37 73,-18 0,-18"/>
<text text-anchor="middle" x="36.5" y="-25" font-family="Helvetica,sans-Serif" font-size="10.00">CounterBase</text>
</a>
</g>
</g>
<!-- Node2 -->
<g id="node2" class="node">
<title>Node2</title>
<g id="a_node2"><a xlink:href="classyaclib_1_1util_1_1Counter.html" target="_top" xlink:title=" ">
<polygon fill="none" stroke="black" points="113,-49.5 113,-79.5 238,-79.5 238,-49.5 113,-49.5"/>
<text text-anchor="start" x="121" y="-67.5" font-family="Helvetica,sans-Serif" font-size="10.00">yaclib::util::Counter</text>
<text text-anchor="middle" x="175.5" y="-56.5" font-family="Helvetica,sans-Serif" font-size="10.00">&lt; CounterBase, Deleter &gt;</text>
</a>
</g>
</g>
<!-- Node1&#45;&gt;Node2 -->
<g id="edge1" class="edge">
<title>Node1&#45;&gt;Node2</title>
<path fill="none" stroke="midnightblue" d="M82.66,-39.7C94.24,-42.82 106.83,-46.22 118.87,-49.48"/>
<polygon fill="midnightblue" stroke="midnightblue" points="83.35,-36.26 72.78,-37.03 81.52,-43.01 83.35,-36.26"/>
</g>
<!-- Node4 -->
<g id="node4" class="node">
<title>Node4</title>
<g id="a_node4"><a xlink:href="classyaclib_1_1util_1_1NothingCounter.html" target="_top" xlink:title=" ">
<polygon fill="none" stroke="black" points="110,-0.5 110,-30.5 241,-30.5 241,-0.5 110,-0.5"/>
<text text-anchor="start" x="118" y="-18.5" font-family="Helvetica,sans-Serif" font-size="10.00">yaclib::util::NothingCounter</text>
<text text-anchor="middle" x="175.5" y="-7.5" font-family="Helvetica,sans-Serif" font-size="10.00">&lt; CounterBase &gt;</text>
</a>
</g>
</g>
<!-- Node1&#45;&gt;Node4 -->
<g id="edge3" class="edge">
<title>Node1&#45;&gt;Node4</title>
<path fill="none" stroke="midnightblue" d="M83.25,-23.49C91.79,-22.74 100.86,-21.95 109.84,-21.16"/>
<polygon fill="midnightblue" stroke="midnightblue" points="82.79,-20.02 73.14,-24.38 83.4,-26.99 82.79,-20.02"/>
</g>
<!-- Node3 -->
<g id="node3" class="node">
<title>Node3</title>
<g id="a_node3"><a xlink:href="classyaclib_1_1util_1_1Counter.html" target="_top" xlink:title=" ">
<polygon fill="none" stroke="black" points="416,-44 416,-85 571,-85 571,-44 416,-44"/>
<text text-anchor="start" x="424" y="-73" font-family="Helvetica,sans-Serif" font-size="10.00">yaclib::util::Counter</text>
<text text-anchor="start" x="424" y="-62" font-family="Helvetica,sans-Serif" font-size="10.00">&lt; yaclib::detail::WaitCore,</text>
<text text-anchor="middle" x="493.5" y="-51" font-family="Helvetica,sans-Serif" font-size="10.00"> yaclib::detail::WaitCoreDeleter &gt;</text>
</a>
</g>
</g>
<!-- Node2&#45;&gt;Node3 -->
<g id="edge2" class="edge">
<title>Node2&#45;&gt;Node3</title>
<path fill="none" stroke="orange" stroke-dasharray="5,2" d="M248.26,-64.5C298.26,-64.5 364.86,-64.5 415.89,-64.5"/>
<polygon fill="orange" stroke="orange" points="248.18,-61 238.18,-64.5 248.18,-68 248.18,-61"/>
<text text-anchor="start" x="259" y="-78.5" font-family="Helvetica,sans-Serif" font-size="10.00"> &lt; yaclib::detail::WaitCore,</text>
<text text-anchor="middle" x="328.5" y="-67.5" font-family="Helvetica,sans-Serif" font-size="10.00"> yaclib::detail::WaitCoreDeleter &gt;</text>
</g>
</g>
</svg>
