<?xml version="1.0" encoding="UTF-8" standalone="no"?>
<!DOCTYPE svg PUBLIC "-//W3C//DTD SVG 1.1//EN"
 "http://www.w3.org/Graphics/SVG/1.1/DTD/svg11.dtd">
<!-- Generated by graphviz version 2.44.0 ()
 -->
<!-- Title: yaclib::util::detail::CallImpl&lt; Interface, Functor &gt; Pages: 1 -->
<svg width="158pt" height="253pt"
 viewBox="0.00 0.00 158.00 253.00" xmlns="http://www.w3.org/2000/svg" xmlns:xlink="http://www.w3.org/1999/xlink">
<g id="graph0" class="graph" transform="scale(1 1) rotate(0) translate(4 249)">
<title>yaclib::util::detail::CallImpl&lt; Interface, Functor &gt;</title>
<!-- Node1 -->
<g id="node1" class="node">
<title>Node1</title>
<g id="a_node1"><a xlink:title=" ">
<polygon fill="#bfbfbf" stroke="black" points="15,-146.5 15,-187.5 121,-187.5 121,-146.5 15,-146.5"/>
<text text-anchor="start" x="23" y="-175.5" font-family="Helvetica,sans-Serif" font-size="10.00">yaclib::util::detail</text>
<text text-anchor="start" x="23" y="-164.5" font-family="Helvetica,sans-Serif" font-size="10.00">::CallImpl&lt; Interface,</text>
<text text-anchor="middle" x="68" y="-153.5" font-family="Helvetica,sans-Serif" font-size="10.00"> Functor &gt;</text>
</a>
</g>
</g>
<!-- Node3 -->
<g id="node3" class="node">
<title>Node3</title>
<g id="a_node3"><a xlink:href="classyaclib_1_1util_1_1detail_1_1CallImpl.html" target="_top" xlink:title=" ">
<polygon fill="none" stroke="black" points="0,-68.5 0,-98.5 136,-98.5 136,-68.5 0,-68.5"/>
<text text-anchor="start" x="8" y="-86.5" font-family="Helvetica,sans-Serif" font-size="10.00">yaclib::util::detail</text>
<text text-anchor="middle" x="68" y="-75.5" font-family="Helvetica,sans-Serif" font-size="10.00">::CallImpl&lt; ITask, Functor &gt;</text>
</a>
</g>
</g>
<!-- Node1&#45;&gt;Node3 -->
<g id="edge2" class="edge">
<title>Node1&#45;&gt;Node3</title>
<path fill="none" stroke="orange" stroke-dasharray="5,2" d="M68,-136.03C68,-123.26 68,-108.97 68,-98.68"/>
<polygon fill="orange" stroke="orange" points="64.5,-136.27 68,-146.27 71.5,-136.27 64.5,-136.27"/>
<text text-anchor="middle" x="109" y="-120" font-family="Helvetica,sans-Serif" font-size="10.00"> &lt; ITask, Functor &gt;</text>
</g>
<!-- Node2 -->
<g id="node2" class="node">
<title>Node2</title>
<g id="a_node2"><a xlink:href="classInterface.html" target="_top" xlink:title=" ">
<polygon fill="none" stroke="black" points="40.5,-225.5 40.5,-244.5 95.5,-244.5 95.5,-225.5 40.5,-225.5"/>
<text text-anchor="middle" x="68" y="-232.5" font-family="Helvetica,sans-Serif" font-size="10.00">Interface</text>
</a>
</g>
</g>
<!-- Node2&#45;&gt;Node1 -->
<g id="edge1" class="edge">
<title>Node2&#45;&gt;Node1</title>
<path fill="none" stroke="midnightblue" d="M68,-215.25C68,-206.65 68,-196.45 68,-187.74"/>
<polygon fill="midnightblue" stroke="midnightblue" points="64.5,-215.37 68,-225.37 71.5,-215.37 64.5,-215.37"/>
</g>
<!-- Node4 -->
<g id="node4" class="node">
<title>Node4</title>
<g id="a_node4"><a xlink:href="classyaclib_1_1detail_1_1UniqueTask.html" target="_top" xlink:title=" ">
<polygon fill="none" stroke="black" points="5,-0.5 5,-30.5 131,-30.5 131,-0.5 5,-0.5"/>
<text text-anchor="start" x="13" y="-18.5" font-family="Helvetica,sans-Serif" font-size="10.00">yaclib::detail::UniqueTask</text>
<text text-anchor="middle" x="68" y="-7.5" font-family="Helvetica,sans-Serif" font-size="10.00">&lt; Functor &gt;</text>
</a>
</g>
</g>
<!-- Node3&#45;&gt;Node4 -->
<g id="edge3" class="edge">
<title>Node3&#45;&gt;Node4</title>
<path fill="none" stroke="midnightblue" d="M68,-58.03C68,-48.86 68,-38.74 68,-30.79"/>
<polygon fill="midnightblue" stroke="midnightblue" points="64.5,-58.18 68,-68.18 71.5,-58.18 64.5,-58.18"/>
</g>
</g>
</svg>
