<?xml version="1.0" encoding="UTF-8" standalone="no"?>
<!DOCTYPE svg PUBLIC "-//W3C//DTD SVG 1.1//EN"
 "http://www.w3.org/Graphics/SVG/1.1/DTD/svg11.dtd">
<!-- Generated by graphviz version 2.44.0 ()
 -->
<!-- Title: yaclib::detail::UniqueTask&lt; Functor &gt; Pages: 1 -->
<svg width="312pt" height="321pt"
 viewBox="0.00 0.00 312.00 321.00" xmlns="http://www.w3.org/2000/svg" xmlns:xlink="http://www.w3.org/1999/xlink">
<g id="graph0" class="graph" transform="scale(1 1) rotate(0) translate(4 317)">
<title>yaclib::detail::UniqueTask&lt; Functor &gt;</title>
<!-- Node1 -->
<g id="node1" class="node">
<title>Node1</title>
<g id="a_node1"><a xlink:title=" ">
<polygon fill="#bfbfbf" stroke="black" points="130,-0.5 130,-30.5 256,-30.5 256,-0.5 130,-0.5"/>
<text text-anchor="start" x="138" y="-18.5" font-family="Helvetica,sans-Serif" font-size="10.00">yaclib::detail::UniqueTask</text>
<text text-anchor="middle" x="193" y="-7.5" font-family="Helvetica,sans-Serif" font-size="10.00">&lt; Functor &gt;</text>
</a>
</g>
</g>
<!-- Node2 -->
<g id="node2" class="node">
<title>Node2</title>
<g id="a_node2"><a xlink:href="classyaclib_1_1util_1_1detail_1_1CallImpl.html" target="_top" xlink:title=" ">
<polygon fill="none" stroke="black" points="125,-68.5 125,-98.5 261,-98.5 261,-68.5 125,-68.5"/>
<text text-anchor="start" x="133" y="-86.5" font-family="Helvetica,sans-Serif" font-size="10.00">yaclib::util::detail</text>
<text text-anchor="middle" x="193" y="-75.5" font-family="Helvetica,sans-Serif" font-size="10.00">::CallImpl&lt; ITask, Functor &gt;</text>
</a>
</g>
</g>
<!-- Node2&#45;&gt;Node1 -->
<g id="edge1" class="edge">
<title>Node2&#45;&gt;Node1</title>
<path fill="none" stroke="midnightblue" d="M193,-58.03C193,-48.86 193,-38.74 193,-30.79"/>
<polygon fill="midnightblue" stroke="midnightblue" points="189.5,-58.18 193,-68.18 196.5,-58.18 189.5,-58.18"/>
</g>
<!-- Node3 -->
<g id="node3" class="node">
<title>Node3</title>
<g id="a_node3"><a xlink:href="classyaclib_1_1ITask.html" target="_top" xlink:title="Callable that can be executed in an IExecutor.">
<polygon fill="none" stroke="black" points="104.5,-157.5 104.5,-176.5 175.5,-176.5 175.5,-157.5 104.5,-157.5"/>
<text text-anchor="middle" x="140" y="-164.5" font-family="Helvetica,sans-Serif" font-size="10.00">yaclib::ITask</text>
</a>
</g>
</g>
<!-- Node3&#45;&gt;Node2 -->
<g id="edge2" class="edge">
<title>Node3&#45;&gt;Node2</title>
<path fill="none" stroke="midnightblue" d="M151.37,-148.52C161.06,-133.61 174.83,-112.45 183.83,-98.6"/>
<polygon fill="midnightblue" stroke="midnightblue" points="148.19,-146.99 145.67,-157.28 154.06,-150.8 148.19,-146.99"/>
</g>
<!-- Node4 -->
<g id="node4" class="node">
<title>Node4</title>
<g id="a_node4"><a xlink:href="classyaclib_1_1util_1_1IFunc.html" target="_top" xlink:title="Shared callable interface.">
<polygon fill="none" stroke="black" points="0,-231 0,-250 88,-250 88,-231 0,-231"/>
<text text-anchor="middle" x="44" y="-238" font-family="Helvetica,sans-Serif" font-size="10.00">yaclib::util::IFunc</text>
</a>
</g>
</g>
<!-- Node4&#45;&gt;Node3 -->
<g id="edge3" class="edge">
<title>Node4&#45;&gt;Node3</title>
<path fill="none" stroke="midnightblue" d="M63.98,-224.62C83.48,-210.09 112.48,-188.5 128.43,-176.62"/>
<polygon fill="midnightblue" stroke="midnightblue" points="61.7,-221.95 55.77,-230.73 65.88,-227.57 61.7,-221.95"/>
</g>
<!-- Node5 -->
<g id="node5" class="node">
<title>Node5</title>
<g id="a_node5"><a xlink:href="classyaclib_1_1util_1_1IRef.html" target="_top" xlink:title="Reference counting interface.">
<polygon fill="none" stroke="black" points="3.5,-293.5 3.5,-312.5 84.5,-312.5 84.5,-293.5 3.5,-293.5"/>
<text text-anchor="middle" x="44" y="-300.5" font-family="Helvetica,sans-Serif" font-size="10.00">yaclib::util::IRef</text>
</a>
</g>
</g>
<!-- Node5&#45;&gt;Node4 -->
<g id="edge4" class="edge">
<title>Node5&#45;&gt;Node4</title>
<path fill="none" stroke="midnightblue" d="M44,-283C44,-272 44,-258.68 44,-250.15"/>
<polygon fill="midnightblue" stroke="midnightblue" points="40.5,-283.33 44,-293.33 47.5,-283.33 40.5,-283.33"/>
</g>
<!-- Node6 -->
<g id="node6" class="node">
<title>Node6</title>
<g id="a_node6"><a xlink:href="classyaclib_1_1util_1_1detail_1_1Node.html" target="_top" xlink:title="Intrusive node class.">
<polygon fill="none" stroke="black" points="106,-225.5 106,-255.5 192,-255.5 192,-225.5 106,-225.5"/>
<text text-anchor="start" x="114" y="-243.5" font-family="Helvetica,sans-Serif" font-size="10.00">yaclib::util::detail</text>
<text text-anchor="middle" x="149" y="-232.5" font-family="Helvetica,sans-Serif" font-size="10.00">::Node</text>
</a>
</g>
</g>
<!-- Node6&#45;&gt;Node3 -->
<g id="edge5" class="edge">
<title>Node6&#45;&gt;Node3</title>
<path fill="none" stroke="midnightblue" d="M145.96,-215.36C144.28,-202.01 142.3,-186.25 141.09,-176.7"/>
<polygon fill="midnightblue" stroke="midnightblue" points="142.5,-215.89 147.22,-225.37 149.45,-215.02 142.5,-215.89"/>
</g>
<!-- Node7 -->
<g id="node7" class="node">
<title>Node7</title>
<g id="a_node7"><a xlink:href="classyaclib_1_1util_1_1detail_1_1CallImpl.html" target="_top" xlink:title=" ">
<polygon fill="none" stroke="black" points="194,-146.5 194,-187.5 300,-187.5 300,-146.5 194,-146.5"/>
<text text-anchor="start" x="202" y="-175.5" font-family="Helvetica,sans-Serif" font-size="10.00">yaclib::util::detail</text>
<text text-anchor="start" x="202" y="-164.5" font-family="Helvetica,sans-Serif" font-size="10.00">::CallImpl&lt; Interface,</text>
<text text-anchor="middle" x="247" y="-153.5" font-family="Helvetica,sans-Serif" font-size="10.00"> Functor &gt;</text>
</a>
</g>
</g>
<!-- Node7&#45;&gt;Node2 -->
<g id="edge6" class="edge">
<title>Node7&#45;&gt;Node2</title>
<path fill="none" stroke="orange" stroke-dasharray="5,2" d="M228.4,-137.93C219.63,-124.7 209.55,-109.48 202.4,-98.68"/>
<polygon fill="orange" stroke="orange" points="225.49,-139.87 233.93,-146.27 231.32,-136 225.49,-139.87"/>
<text text-anchor="middle" x="263" y="-120" font-family="Helvetica,sans-Serif" font-size="10.00"> &lt; ITask, Functor &gt;</text>
</g>
<!-- Node8 -->
<g id="node8" class="node">
<title>Node8</title>
<g id="a_node8"><a xlink:href="classInterface.html" target="_top" xlink:title=" ">
<polygon fill="none" stroke="black" points="219.5,-231 219.5,-250 274.5,-250 274.5,-231 219.5,-231"/>
<text text-anchor="middle" x="247" y="-238" font-family="Helvetica,sans-Serif" font-size="10.00">Interface</text>
</a>
</g>
</g>
<!-- Node8&#45;&gt;Node7 -->
<g id="edge7" class="edge">
<title>Node8&#45;&gt;Node7</title>
<path fill="none" stroke="midnightblue" d="M247,-220.51C247,-210.36 247,-197.89 247,-187.64"/>
<polygon fill="midnightblue" stroke="midnightblue" points="243.5,-220.73 247,-230.73 250.5,-220.73 243.5,-220.73"/>
</g>
</g>
</svg>
