<?xml version="1.0" encoding="UTF-8" standalone="no"?>
<!DOCTYPE svg PUBLIC "-//W3C//DTD SVG 1.1//EN"
 "http://www.w3.org/Graphics/SVG/1.1/DTD/svg11.dtd">
<!-- Generated by graphviz version 2.44.0 ()
 -->
<!-- Title: yaclib::detail::ResultCore&lt; Value &gt; Pages: 1 -->
<svg width="200pt" height="424pt"
 viewBox="0.00 0.00 200.00 424.00" xmlns="http://www.w3.org/2000/svg" xmlns:xlink="http://www.w3.org/1999/xlink">
<g id="graph0" class="graph" transform="scale(1 1) rotate(0) translate(4 420)">
<title>yaclib::detail::ResultCore&lt; Value &gt;</title>
<!-- Node1 -->
<g id="node1" class="node">
<title>Node1</title>
<g id="a_node1"><a xlink:title=" ">
<polygon fill="#bfbfbf" stroke="black" points="61,-146.5 61,-176.5 183,-176.5 183,-146.5 61,-146.5"/>
<text text-anchor="start" x="69" y="-164.5" font-family="Helvetica,sans-Serif" font-size="10.00">yaclib::detail::ResultCore</text>
<text text-anchor="middle" x="122" y="-153.5" font-family="Helvetica,sans-Serif" font-size="10.00">&lt; Value &gt;</text>
</a>
</g>
</g>
<!-- Node7 -->
<g id="node7" class="node">
<title>Node7</title>
<g id="a_node7"><a xlink:href="classyaclib_1_1detail_1_1ResultCore.html" target="_top" xlink:title=" ">
<polygon fill="none" stroke="black" points="61,-68.5 61,-98.5 183,-98.5 183,-68.5 61,-68.5"/>
<text text-anchor="start" x="69" y="-86.5" font-family="Helvetica,sans-Serif" font-size="10.00">yaclib::detail::ResultCore</text>
<text text-anchor="middle" x="122" y="-75.5" font-family="Helvetica,sans-Serif" font-size="10.00">&lt; Ret &gt;</text>
</a>
</g>
</g>
<!-- Node1&#45;&gt;Node7 -->
<g id="edge6" class="edge">
<title>Node1&#45;&gt;Node7</title>
<path fill="none" stroke="orange" stroke-dasharray="5,2" d="M122,-136.09C122,-123.76 122,-109.22 122,-98.73"/>
<polygon fill="orange" stroke="orange" points="118.5,-136.2 122,-146.2 125.5,-136.21 118.5,-136.2"/>
<text text-anchor="middle" x="139" y="-120" font-family="Helvetica,sans-Serif" font-size="10.00"> &lt; Ret &gt;</text>
</g>
<!-- Node2 -->
<g id="node2" class="node">
<title>Node2</title>
<g id="a_node2"><a xlink:href="classyaclib_1_1detail_1_1BaseCore.html" target="_top" xlink:title=" ">
<polygon fill="none" stroke="black" points="64,-214.5 64,-233.5 180,-233.5 180,-214.5 64,-214.5"/>
<text text-anchor="middle" x="122" y="-221.5" font-family="Helvetica,sans-Serif" font-size="10.00">yaclib::detail::BaseCore</text>
</a>
</g>
</g>
<!-- Node2&#45;&gt;Node1 -->
<g id="edge1" class="edge">
<title>Node2&#45;&gt;Node1</title>
<path fill="none" stroke="midnightblue" d="M122,-204.22C122,-195.36 122,-184.96 122,-176.76"/>
<polygon fill="midnightblue" stroke="midnightblue" points="118.5,-204.33 122,-214.33 125.5,-204.33 118.5,-204.33"/>
</g>
<!-- Node3 -->
<g id="node3" class="node">
<title>Node3</title>
<g id="a_node3"><a xlink:href="classyaclib_1_1ITask.html" target="_top" xlink:title="Callable that can be executed in an IExecutor.">
<polygon fill="none" stroke="black" points="86.5,-271.5 86.5,-290.5 157.5,-290.5 157.5,-271.5 86.5,-271.5"/>
<text text-anchor="middle" x="122" y="-278.5" font-family="Helvetica,sans-Serif" font-size="10.00">yaclib::ITask</text>
</a>
</g>
</g>
<!-- Node3&#45;&gt;Node2 -->
<g id="edge2" class="edge">
<title>Node3&#45;&gt;Node2</title>
<path fill="none" stroke="midnightblue" d="M122,-261.12C122,-251.82 122,-241.06 122,-233.71"/>
<polygon fill="midnightblue" stroke="midnightblue" points="118.5,-261.41 122,-271.41 125.5,-261.41 118.5,-261.41"/>
</g>
<!-- Node4 -->
<g id="node4" class="node">
<title>Node4</title>
<g id="a_node4"><a xlink:href="classyaclib_1_1util_1_1IFunc.html" target="_top" xlink:title="Shared callable interface.">
<polygon fill="none" stroke="black" points="0,-334 0,-353 88,-353 88,-334 0,-334"/>
<text text-anchor="middle" x="44" y="-341" font-family="Helvetica,sans-Serif" font-size="10.00">yaclib::util::IFunc</text>
</a>
</g>
</g>
<!-- Node4&#45;&gt;Node3 -->
<g id="edge3" class="edge">
<title>Node4&#45;&gt;Node3</title>
<path fill="none" stroke="midnightblue" d="M63.28,-327.55C78.24,-315.94 98.46,-300.26 110.85,-290.65"/>
<polygon fill="midnightblue" stroke="midnightblue" points="60.93,-324.94 55.18,-333.83 65.22,-330.47 60.93,-324.94"/>
</g>
<!-- Node5 -->
<g id="node5" class="node">
<title>Node5</title>
<g id="a_node5"><a xlink:href="classyaclib_1_1util_1_1IRef.html" target="_top" xlink:title="Reference counting interface.">
<polygon fill="none" stroke="black" points="3.5,-396.5 3.5,-415.5 84.5,-415.5 84.5,-396.5 3.5,-396.5"/>
<text text-anchor="middle" x="44" y="-403.5" font-family="Helvetica,sans-Serif" font-size="10.00">yaclib::util::IRef</text>
</a>
</g>
</g>
<!-- Node5&#45;&gt;Node4 -->
<g id="edge4" class="edge">
<title>Node5&#45;&gt;Node4</title>
<path fill="none" stroke="midnightblue" d="M44,-386C44,-375 44,-361.68 44,-353.15"/>
<polygon fill="midnightblue" stroke="midnightblue" points="40.5,-386.33 44,-396.33 47.5,-386.33 40.5,-386.33"/>
</g>
<!-- Node6 -->
<g id="node6" class="node">
<title>Node6</title>
<g id="a_node6"><a xlink:href="classyaclib_1_1util_1_1detail_1_1Node.html" target="_top" xlink:title="Intrusive node class.">
<polygon fill="none" stroke="black" points="106,-328.5 106,-358.5 192,-358.5 192,-328.5 106,-328.5"/>
<text text-anchor="start" x="114" y="-346.5" font-family="Helvetica,sans-Serif" font-size="10.00">yaclib::util::detail</text>
<text text-anchor="middle" x="149" y="-335.5" font-family="Helvetica,sans-Serif" font-size="10.00">::Node</text>
</a>
</g>
</g>
<!-- Node6&#45;&gt;Node3 -->
<g id="edge5" class="edge">
<title>Node6&#45;&gt;Node3</title>
<path fill="none" stroke="midnightblue" d="M138.64,-319.29C134.14,-309.2 129.14,-298.01 125.81,-290.54"/>
<polygon fill="midnightblue" stroke="midnightblue" points="135.47,-320.76 142.74,-328.47 141.86,-317.91 135.47,-320.76"/>
</g>
<!-- Node8 -->
<g id="node8" class="node">
<title>Node8</title>
<g id="a_node8"><a xlink:href="classyaclib_1_1detail_1_1Core.html" target="_top" xlink:title=" ">
<polygon fill="none" stroke="black" points="60,-0.5 60,-30.5 184,-30.5 184,-0.5 60,-0.5"/>
<text text-anchor="start" x="68" y="-18.5" font-family="Helvetica,sans-Serif" font-size="10.00">yaclib::detail::Core</text>
<text text-anchor="middle" x="122" y="-7.5" font-family="Helvetica,sans-Serif" font-size="10.00">&lt; Ret, InvokeType, Arg &gt;</text>
</a>
</g>
</g>
<!-- Node7&#45;&gt;Node8 -->
<g id="edge7" class="edge">
<title>Node7&#45;&gt;Node8</title>
<path fill="none" stroke="midnightblue" d="M122,-58.03C122,-48.86 122,-38.74 122,-30.79"/>
<polygon fill="midnightblue" stroke="midnightblue" points="118.5,-58.18 122,-68.18 125.5,-58.18 118.5,-58.18"/>
</g>
</g>
</svg>
