<?xml version="1.0" encoding="UTF-8" standalone="no"?>
<!DOCTYPE svg PUBLIC "-//W3C//DTD SVG 1.1//EN"
 "http://www.w3.org/Graphics/SVG/1.1/DTD/svg11.dtd">
<!-- Generated by graphviz version 2.44.0 ()
 -->
<!-- Title: yaclib::detail::AnyCombinator&lt; T, P &gt; Pages: 1 -->
<!--zoomable 332 -->
<svg id="main" version="1.1" xmlns="http://www.w3.org/2000/svg" xmlns:xlink="http://www.w3.org/1999/xlink" xml:space="preserve" onload="init(evt)">
<style type="text/css"><![CDATA[
.edge:hover path { stroke: red; }
.edge:hover polygon { stroke: red; fill: red; }
]]></style>
<script type="text/javascript"><![CDATA[
var edges = document.getElementsByTagName('g');
if (edges && edges.length) {
  for (var i=0;i<edges.length;i++) {
    if (edges[i].id.substr(0,4)=='edge') {
      edges[i].setAttribute('class','edge');
    }
  }
}
]]></script>
        <defs>
                <circle id="rim" cx="0" cy="0" r="7"/>
                <circle id="rim2" cx="0" cy="0" r="3.5"/>
                <g id="zoomPlus">
                        <use xlink:href="#rim" fill="#404040">
                                <set attributeName="fill" to="#808080" begin="zoomplus.mouseover" end="zoomplus.mouseout"/>
                        </use>
                        <path d="M-4,0h8M0,-4v8" fill="none" stroke="white" stroke-width="1.5" pointer-events="none"/>
                </g>
                <g id="zoomMin">
                        <use xlink:href="#rim" fill="#404040">
                                <set attributeName="fill" to="#808080" begin="zoomminus.mouseover" end="zoomminus.mouseout"/>
                        </use>
                        <path d="M-4,0h8" fill="none" stroke="white" stroke-width="1.5" pointer-events="none"/>
                </g>
                <g id="dirArrow">
                        <path fill="none" stroke="white" stroke-width="1.5" d="M0,-3.0v7 M-2.5,-0.5L0,-3.0L2.5,-0.5"/>
                </g>
               <g id="resetDef">
                       <use xlink:href="#rim2" fill="#404040">
                               <set attributeName="fill" to="#808080" begin="reset.mouseover" end="reset.mouseout"/>
                       </use>
               </g>
        </defs>

<script type="text/javascript">
var viewWidth = 819;
var viewHeight = 332;
var sectionId = 'dynsection-1';
</script>
<script xlink:href="svgpan.js"/>
<svg id="graph" class="graph">
<g id="viewport">
<title>yaclib::detail::AnyCombinator&lt; T, P &gt;</title>
<!-- Node1 -->
<g id="node1" class="node">
<title>Node1</title>
<g id="a_node1"><a xlink:title=" ">
<polygon fill="#bfbfbf" stroke="black" points="671,-70 671,-100 811,-100 811,-70 671,-70"/>
<text text-anchor="start" x="679" y="-88" font-family="Helvetica,sans-Serif" font-size="10.00">yaclib::detail::AnyCombinator</text>
<text text-anchor="middle" x="741" y="-77" font-family="Helvetica,sans-Serif" font-size="10.00">&lt; T, P &gt;</text>
</a>
</g>
</g>
<!-- Node2 -->
<g id="node2" class="node">
<title>Node2</title>
<g id="a_node2"><a xlink:href="classyaclib_1_1detail_1_1BaseCore.html" target="_top" xlink:title=" ">
<polygon fill="none" stroke="black" points="506,-133.5 506,-152.5 622,-152.5 622,-133.5 506,-133.5"/>
<text text-anchor="middle" x="564" y="-140.5" font-family="Helvetica,sans-Serif" font-size="10.00">yaclib::detail::BaseCore</text>
</a>
</g>
</g>
<!-- Node2&#45;&gt;Node1 -->
<g id="edge1" class="edge">
<title>Node2&#45;&gt;Node1</title>
<path fill="none" stroke="midnightblue" d="M603.71,-130.17C630.56,-121.27 666.42,-109.39 694.61,-100.04"/>
<polygon fill="midnightblue" stroke="midnightblue" points="602.29,-126.95 593.9,-133.42 604.49,-133.6 602.29,-126.95"/>
</g>
<!-- Node3 -->
<g id="node3" class="node">
<title>Node3</title>
<g id="a_node3"><a xlink:href="classyaclib_1_1ITask.html" target="_top" xlink:title="Callable that can be executed in an IExecutor.">
<polygon fill="none" stroke="black" points="333.5,-251.5 333.5,-270.5 404.5,-270.5 404.5,-251.5 333.5,-251.5"/>
<text text-anchor="middle" x="369" y="-258.5" font-family="Helvetica,sans-Serif" font-size="10.00">yaclib::ITask</text>
</a>
</g>
</g>
<!-- Node3&#45;&gt;Node2 -->
<g id="edge2" class="edge">
<title>Node3&#45;&gt;Node2</title>
<path fill="none" stroke="midnightblue" d="M401.78,-247.3C405.58,-245.56 409.39,-243.77 413,-242 441.57,-228 449.18,-225.12 476,-208 504.13,-190.04 534.95,-165.84 551.29,-152.62"/>
<polygon fill="midnightblue" stroke="midnightblue" points="400.16,-244.18 392.47,-251.47 403.03,-250.57 400.16,-244.18"/>
</g>
<!-- Node4 -->
<g id="node4" class="node">
<title>Node4</title>
<g id="a_node4"><a xlink:href="classyaclib_1_1util_1_1IFunc.html" target="_top" xlink:title="Shared callable interface.">
<polygon fill="none" stroke="black" points="123,-304.5 123,-323.5 211,-323.5 211,-304.5 123,-304.5"/>
<text text-anchor="middle" x="167" y="-311.5" font-family="Helvetica,sans-Serif" font-size="10.00">yaclib::util::IFunc</text>
</a>
</g>
</g>
<!-- Node4&#45;&gt;Node3 -->
<g id="edge3" class="edge">
<title>Node4&#45;&gt;Node3</title>
<path fill="none" stroke="midnightblue" d="M214.09,-301.79C250.45,-292.15 300.38,-278.92 333.39,-270.17"/>
<polygon fill="midnightblue" stroke="midnightblue" points="212.99,-298.46 204.22,-304.4 214.78,-305.22 212.99,-298.46"/>
</g>
<!-- Node5 -->
<g id="node5" class="node">
<title>Node5</title>
<g id="a_node5"><a xlink:href="classyaclib_1_1util_1_1IRef.html" target="_top" xlink:title="Reference counting interface.">
<polygon fill="none" stroke="black" points="0,-304.5 0,-323.5 81,-323.5 81,-304.5 0,-304.5"/>
<text text-anchor="middle" x="40.5" y="-311.5" font-family="Helvetica,sans-Serif" font-size="10.00">yaclib::util::IRef</text>
</a>
</g>
</g>
<!-- Node5&#45;&gt;Node4 -->
<g id="edge4" class="edge">
<title>Node5&#45;&gt;Node4</title>
<path fill="none" stroke="midnightblue" d="M91.41,-314C101.79,-314 112.65,-314 122.77,-314"/>
<polygon fill="midnightblue" stroke="midnightblue" points="91.23,-310.5 81.23,-314 91.23,-317.5 91.23,-310.5"/>
</g>
<!-- Node6 -->
<g id="node6" class="node">
<title>Node6</title>
<g id="a_node6"><a xlink:href="classyaclib_1_1util_1_1detail_1_1Node.html" target="_top" xlink:title="Intrusive node class.">
<polygon fill="none" stroke="black" points="124,-215 124,-245 210,-245 210,-215 124,-215"/>
<text text-anchor="start" x="132" y="-233" font-family="Helvetica,sans-Serif" font-size="10.00">yaclib::util::detail</text>
<text text-anchor="middle" x="167" y="-222" font-family="Helvetica,sans-Serif" font-size="10.00">::Node</text>
</a>
</g>
</g>
<!-- Node6&#45;&gt;Node3 -->
<g id="edge5" class="edge">
<title>Node6&#45;&gt;Node3</title>
<path fill="none" stroke="midnightblue" d="M220.63,-238.16C256.22,-243.67 302.23,-250.81 333.3,-255.62"/>
<polygon fill="midnightblue" stroke="midnightblue" points="220.83,-234.65 210.41,-236.57 219.76,-241.56 220.83,-234.65"/>
</g>
<!-- Node6&#45;&gt;Node6 -->
<g id="edge6" class="edge">
<title>Node6&#45;&gt;Node6</title>
<path fill="none" stroke="#9a32cd" stroke-dasharray="5,2" d="M155.27,-255.46C156.73,-260.18 160.64,-263.5 167,-263.5 177.44,-263.5 181.28,-254.56 178.5,-245.16"/>
<polygon fill="#9a32cd" stroke="#9a32cd" points="158.78,-255.23 155.5,-245.16 151.78,-255.08 158.78,-255.23"/>
<text text-anchor="middle" x="167" y="-277.5" font-family="Helvetica,sans-Serif" font-size="10.00"> _next</text>
<text text-anchor="middle" x="167" y="-266.5" font-family="Helvetica,sans-Serif" font-size="10.00">_prev</text>
</g>
<!-- Node7 -->
<g id="node7" class="node">
<title>Node7</title>
<g id="a_node7"><a xlink:href="classyaclib_1_1util_1_1Ptr.html" target="_top" xlink:title=" ">
<polygon fill="none" stroke="black" points="328,-202 328,-232 410,-232 410,-202 328,-202"/>
<text text-anchor="start" x="336" y="-220" font-family="Helvetica,sans-Serif" font-size="10.00">yaclib::util::Ptr&lt;</text>
<text text-anchor="middle" x="369" y="-209" font-family="Helvetica,sans-Serif" font-size="10.00"> IRef &gt;</text>
</a>
</g>
</g>
<!-- Node7&#45;&gt;Node2 -->
<g id="edge7" class="edge">
<title>Node7&#45;&gt;Node2</title>
<path fill="none" stroke="#9a32cd" stroke-dasharray="5,2" d="M418.89,-198.25C456.96,-183.66 508.21,-164.01 538.22,-152.5"/>
<polygon fill="#9a32cd" stroke="#9a32cd" points="417.61,-195 409.52,-201.85 420.11,-201.53 417.61,-195"/>
<text text-anchor="middle" x="453.5" y="-196" font-family="Helvetica,sans-Serif" font-size="10.00"> _callback</text>
</g>
<!-- Node8 -->
<g id="node8" class="node">
<title>Node8</title>
<g id="a_node8"><a xlink:href="classyaclib_1_1util_1_1Ptr.html" target="_top" xlink:title="A intrusive pointer to objects with an embedded reference count.">
<polygon fill="none" stroke="black" points="118,-172.5 118,-191.5 216,-191.5 216,-172.5 118,-172.5"/>
<text text-anchor="middle" x="167" y="-179.5" font-family="Helvetica,sans-Serif" font-size="10.00">yaclib::util::Ptr&lt; T &gt;</text>
</a>
</g>
</g>
<!-- Node8&#45;&gt;Node7 -->
<g id="edge8" class="edge">
<title>Node8&#45;&gt;Node7</title>
<path fill="none" stroke="orange" stroke-dasharray="5,2" d="M226.06,-192.16C258.77,-197.88 298.8,-204.89 328,-210"/>
<polygon fill="orange" stroke="orange" points="226.61,-188.7 216.16,-190.43 225.41,-195.6 226.61,-188.7"/>
<text text-anchor="middle" x="270.5" y="-208" font-family="Helvetica,sans-Serif" font-size="10.00"> &lt; IRef &gt;</text>
</g>
<!-- Node9 -->
<g id="node9" class="node">
<title>Node9</title>
<g id="a_node9"><a xlink:href="classyaclib_1_1util_1_1Ptr.html" target="_top" xlink:title=" ">
<polygon fill="none" stroke="black" points="328,-153 328,-183 410,-183 410,-153 328,-153"/>
<text text-anchor="start" x="336" y="-171" font-family="Helvetica,sans-Serif" font-size="10.00">yaclib::util::Ptr&lt;</text>
<text text-anchor="middle" x="369" y="-160" font-family="Helvetica,sans-Serif" font-size="10.00"> yaclib::ITask &gt;</text>
</a>
</g>
</g>
<!-- Node8&#45;&gt;Node9 -->
<g id="edge10" class="edge">
<title>Node8&#45;&gt;Node9</title>
<path fill="none" stroke="orange" stroke-dasharray="5,2" d="M226.48,-177.91C259.11,-175.62 298.92,-172.84 328,-170.8"/>
<polygon fill="orange" stroke="orange" points="225.89,-174.44 216.16,-178.63 226.38,-181.42 225.89,-174.44"/>
<text text-anchor="middle" x="270.5" y="-180" font-family="Helvetica,sans-Serif" font-size="10.00"> &lt; yaclib::ITask &gt;</text>
</g>
<!-- Node9&#45;&gt;Node2 -->
<g id="edge9" class="edge">
<title>Node9&#45;&gt;Node2</title>
<path fill="none" stroke="#9a32cd" stroke-dasharray="5,2" d="M420.54,-161.45C446.68,-158.07 478.7,-153.92 505.76,-150.41"/>
<polygon fill="#9a32cd" stroke="#9a32cd" points="419.93,-158 410.46,-162.76 420.83,-164.95 419.93,-158"/>
<text text-anchor="middle" x="453.5" y="-162" font-family="Helvetica,sans-Serif" font-size="10.00"> _caller</text>
</g>
<!-- Node10 -->
<g id="node10" class="node">
<title>Node10</title>
<g id="a_node10"><a xlink:title=" ">
<polygon fill="none" stroke="#bfbfbf" points="326,-114.5 326,-133.5 412,-133.5 412,-114.5 326,-114.5"/>
<text text-anchor="middle" x="369" y="-121.5" font-family="Helvetica,sans-Serif" font-size="10.00">atomic&lt; State &gt;</text>
</a>
</g>
</g>
<!-- Node10&#45;&gt;Node2 -->
<g id="edge11" class="edge">
<title>Node10&#45;&gt;Node2</title>
<path fill="none" stroke="#9a32cd" stroke-dasharray="5,2" d="M422.47,-126.01C439.57,-126.93 458.61,-128.21 476,-130 485.57,-130.98 495.7,-132.27 505.53,-133.65"/>
<polygon fill="#9a32cd" stroke="#9a32cd" points="422.27,-122.5 412.11,-125.49 421.92,-129.49 422.27,-122.5"/>
<text text-anchor="middle" x="453.5" y="-133" font-family="Helvetica,sans-Serif" font-size="10.00"> _state</text>
</g>
<!-- Node11 -->
<g id="node11" class="node">
<title>Node11</title>
<g id="a_node11"><a xlink:title=" ">
<polygon fill="none" stroke="#bfbfbf" points="326,-76.5 326,-95.5 412,-95.5 412,-76.5 326,-76.5"/>
<text text-anchor="middle" x="369" y="-83.5" font-family="Helvetica,sans-Serif" font-size="10.00">Ptr&lt; IExecutor &gt;</text>
</a>
</g>
</g>
<!-- Node11&#45;&gt;Node2 -->
<g id="edge12" class="edge">
<title>Node11&#45;&gt;Node2</title>
<path fill="none" stroke="#9a32cd" stroke-dasharray="5,2" d="M422.02,-96.95C439.31,-100.94 458.59,-105.77 476,-111 497.73,-117.53 521.92,-126.58 539.26,-133.38"/>
<polygon fill="#9a32cd" stroke="#9a32cd" points="422.62,-93.5 412.1,-94.7 421.07,-100.32 422.62,-93.5"/>
<text text-anchor="middle" x="453.5" y="-114" font-family="Helvetica,sans-Serif" font-size="10.00"> _executor</text>
</g>
<!-- Node12 -->
<g id="node12" class="node">
<title>Node12</title>
<g id="a_node12"><a xlink:href="classyaclib_1_1detail_1_1AnyCombinatorBase.html" target="_top" xlink:title=" ">
<polygon fill="none" stroke="black" points="494,-33 494,-63 634,-63 634,-33 494,-33"/>
<text text-anchor="start" x="502" y="-51" font-family="Helvetica,sans-Serif" font-size="10.00">yaclib::detail::AnyCombinator</text>
<text text-anchor="middle" x="564" y="-40" font-family="Helvetica,sans-Serif" font-size="10.00">Base&lt; T, P &gt;</text>
</a>
</g>
</g>
<!-- Node12&#45;&gt;Node1 -->
<g id="edge13" class="edge">
<title>Node12&#45;&gt;Node1</title>
<path fill="none" stroke="midnightblue" d="M644.13,-64.73C653.01,-66.61 662.02,-68.51 670.76,-70.36"/>
<polygon fill="midnightblue" stroke="midnightblue" points="644.67,-61.27 634.16,-62.62 643.22,-68.12 644.67,-61.27"/>
</g>
<!-- Node13 -->
<g id="node13" class="node">
<title>Node13</title>
<g id="a_node13"><a xlink:title=" ">
<polygon fill="none" stroke="#bfbfbf" points="325,-38.5 325,-57.5 413,-57.5 413,-38.5 325,-38.5"/>
<text text-anchor="middle" x="369" y="-45.5" font-family="Helvetica,sans-Serif" font-size="10.00">atomic&lt; size_t &gt;</text>
</a>
</g>
</g>
<!-- Node13&#45;&gt;Node12 -->
<g id="edge14" class="edge">
<title>Node13&#45;&gt;Node12</title>
<path fill="none" stroke="#9a32cd" stroke-dasharray="5,2" d="M423.35,-48C445.1,-48 470.54,-48 493.7,-48"/>
<polygon fill="#9a32cd" stroke="#9a32cd" points="423.31,-44.5 413.31,-48 423.31,-51.5 423.31,-44.5"/>
<text text-anchor="middle" x="453.5" y="-51" font-family="Helvetica,sans-Serif" font-size="10.00"> _size</text>
</g>
<!-- Node14 -->
<g id="node14" class="node">
<title>Node14</title>
<g id="a_node14"><a xlink:title=" ">
<polygon fill="none" stroke="#bfbfbf" points="331.5,-0.5 331.5,-19.5 406.5,-19.5 406.5,-0.5 331.5,-0.5"/>
<text text-anchor="middle" x="369" y="-7.5" font-family="Helvetica,sans-Serif" font-size="10.00">Promise&lt; T &gt;</text>
</a>
</g>
</g>
<!-- Node14&#45;&gt;Node12 -->
<g id="edge15" class="edge">
<title>Node14&#45;&gt;Node12</title>
<path fill="none" stroke="#9a32cd" stroke-dasharray="5,2" d="M416.67,-19.19C439.85,-23.75 468.31,-29.36 493.95,-34.41"/>
<polygon fill="#9a32cd" stroke="#9a32cd" points="417.24,-15.73 406.76,-17.24 415.89,-22.6 417.24,-15.73"/>
<text text-anchor="middle" x="453.5" y="-34" font-family="Helvetica,sans-Serif" font-size="10.00"> _promise</text>
</g>
</g>
</svg>
        <g id="navigator" transform="translate(0 0)" fill="#404254">
                <rect fill="#f2f5e9" fill-opacity="0.5" stroke="#606060" stroke-width=".5" x="0" y="0" width="60" height="60"/>
                <use id="zoomplus" xlink:href="#zoomPlus" x="17" y="9" onmousedown="handleZoom(evt,'in')"/>
                <use id="zoomminus" xlink:href="#zoomMin" x="42" y="9" onmousedown="handleZoom(evt,'out')"/>
                <use id="reset" xlink:href="#resetDef" x="30" y="36" onmousedown="handleReset()"/>
                <g id="arrowUp" xlink:href="#dirArrow" transform="translate(30 24)" onmousedown="handlePan(0,-1)">
                  <use xlink:href="#rim" fill="#404040">
                        <set attributeName="fill" to="#808080" begin="arrowUp.mouseover" end="arrowUp.mouseout"/>
                  </use>
                  <path fill="none" stroke="white" stroke-width="1.5" d="M0,-3.0v7 M-2.5,-0.5L0,-3.0L2.5,-0.5"/>
                </g>
                <g id="arrowRight" xlink:href="#dirArrow" transform="rotate(90) translate(36 -43)" onmousedown="handlePan(1,0)">
                  <use xlink:href="#rim" fill="#404040">
                        <set attributeName="fill" to="#808080" begin="arrowRight.mouseover" end="arrowRight.mouseout"/>
                  </use>
                  <path fill="none" stroke="white" stroke-width="1.5" d="M0,-3.0v7 M-2.5,-0.5L0,-3.0L2.5,-0.5"/>
                </g>
                <g id="arrowDown" xlink:href="#dirArrow" transform="rotate(180) translate(-30 -48)" onmousedown="handlePan(0,1)">
                  <use xlink:href="#rim" fill="#404040">
                        <set attributeName="fill" to="#808080" begin="arrowDown.mouseover" end="arrowDown.mouseout"/>
                  </use>
                  <path fill="none" stroke="white" stroke-width="1.5" d="M0,-3.0v7 M-2.5,-0.5L0,-3.0L2.5,-0.5"/>
                </g>
                <g id="arrowLeft" xlink:href="#dirArrow" transform="rotate(270) translate(-36 17)" onmousedown="handlePan(-1,0)">
                  <use xlink:href="#rim" fill="#404040">
                        <set attributeName="fill" to="#808080" begin="arrowLeft.mouseover" end="arrowLeft.mouseout"/>
                  </use>
                  <path fill="none" stroke="white" stroke-width="1.5" d="M0,-3.0v7 M-2.5,-0.5L0,-3.0L2.5,-0.5"/>
                </g>
        </g>
        <svg viewBox="0 0 15 15" width="100%" height="30px" preserveAspectRatio="xMaxYMin meet">
         <g id="arrow_out" transform="scale(0.3 0.3)">
          <a xlink:href="classyaclib_1_1detail_1_1AnyCombinator__coll__graph_org.svg" target="_base">
           <rect id="button" ry="5" rx="5" y="6" x="6" height="38" width="38"
                fill="#f2f5e9" fill-opacity="0.5" stroke="#606060" stroke-width="1.0"/>
           <path id="arrow"
             d="M 11.500037,31.436501 C 11.940474,20.09759 22.043105,11.32322 32.158766,21.979434 L 37.068811,17.246167 C 37.068811,17.246167 37.088388,32 37.088388,32 L 22.160133,31.978069 C 22.160133,31.978069 26.997745,27.140456 26.997745,27.140456 C 18.528582,18.264221 13.291696,25.230495 11.500037,31.436501 z"
             style="fill:#404040;"/>
          </a>
         </g>
        </svg>
</svg>
