<?xml version="1.0" encoding="UTF-8" standalone="no"?>
<!DOCTYPE svg PUBLIC "-//W3C//DTD SVG 1.1//EN"
 "http://www.w3.org/Graphics/SVG/1.1/DTD/svg11.dtd">
<!-- Generated by graphviz version 2.44.0 ()
 -->
<!-- Title: yaclib::detail::AllCombinator&lt; T, N, IsArray, FutureValue &gt; Pages: 1 -->
<svg width="690pt" height="176pt"
 viewBox="0.00 0.00 690.00 176.00" xmlns="http://www.w3.org/2000/svg" xmlns:xlink="http://www.w3.org/1999/xlink">
<g id="graph0" class="graph" transform="scale(1 1) rotate(0) translate(4 172)">
<title>yaclib::detail::AllCombinator&lt; T, N, IsArray, FutureValue &gt;</title>
<!-- Node1 -->
<g id="node1" class="node">
<title>Node1</title>
<g id="a_node1"><a xlink:title=" ">
<polygon fill="#bfbfbf" stroke="black" points="536,-80 536,-110 682,-110 682,-80 536,-80"/>
<text text-anchor="start" x="544" y="-98" font-family="Helvetica,sans-Serif" font-size="10.00">yaclib::detail::AllCombinator</text>
<text text-anchor="middle" x="609" y="-87" font-family="Helvetica,sans-Serif" font-size="10.00">&lt; T, N, IsArray, FutureValue &gt;</text>
</a>
</g>
</g>
<!-- Node2 -->
<g id="node2" class="node">
<title>Node2</title>
<g id="a_node2"><a xlink:href="classyaclib_1_1detail_1_1BaseCore.html" target="_top" xlink:title=" ">
<polygon fill="none" stroke="black" points="366,-126.5 366,-145.5 482,-145.5 482,-126.5 366,-126.5"/>
<text text-anchor="middle" x="424" y="-133.5" font-family="Helvetica,sans-Serif" font-size="10.00">yaclib::detail::BaseCore</text>
</a>
</g>
</g>
<!-- Node2&#45;&gt;Node1 -->
<g id="edge1" class="edge">
<title>Node2&#45;&gt;Node1</title>
<path fill="none" stroke="midnightblue" d="M477.45,-124.25C497.16,-119.83 519.83,-114.75 540.7,-110.08"/>
<polygon fill="midnightblue" stroke="midnightblue" points="476.44,-120.89 467.44,-126.49 477.97,-127.72 476.44,-120.89"/>
</g>
<!-- Node3 -->
<g id="node3" class="node">
<title>Node3</title>
<g id="a_node3"><a xlink:href="classyaclib_1_1ITask.html" target="_top" xlink:title="Callable that can be executed in an IExecutor.">
<polygon fill="none" stroke="black" points="241,-126.5 241,-145.5 312,-145.5 312,-126.5 241,-126.5"/>
<text text-anchor="middle" x="276.5" y="-133.5" font-family="Helvetica,sans-Serif" font-size="10.00">yaclib::ITask</text>
</a>
</g>
</g>
<!-- Node3&#45;&gt;Node2 -->
<g id="edge2" class="edge">
<title>Node3&#45;&gt;Node2</title>
<path fill="none" stroke="midnightblue" d="M322.52,-136C336.26,-136 351.56,-136 365.99,-136"/>
<polygon fill="midnightblue" stroke="midnightblue" points="322.35,-132.5 312.35,-136 322.35,-139.5 322.35,-132.5"/>
</g>
<!-- Node4 -->
<g id="node4" class="node">
<title>Node4</title>
<g id="a_node4"><a xlink:href="classyaclib_1_1util_1_1IFunc.html" target="_top" xlink:title="Shared callable interface.">
<polygon fill="none" stroke="black" points="117,-148.5 117,-167.5 205,-167.5 205,-148.5 117,-148.5"/>
<text text-anchor="middle" x="161" y="-155.5" font-family="Helvetica,sans-Serif" font-size="10.00">yaclib::util::IFunc</text>
</a>
</g>
</g>
<!-- Node4&#45;&gt;Node3 -->
<g id="edge3" class="edge">
<title>Node4&#45;&gt;Node3</title>
<path fill="none" stroke="midnightblue" d="M215.32,-147.67C223.99,-145.98 232.77,-144.28 240.85,-142.72"/>
<polygon fill="midnightblue" stroke="midnightblue" points="214.38,-144.28 205.23,-149.62 215.72,-151.15 214.38,-144.28"/>
</g>
<!-- Node5 -->
<g id="node5" class="node">
<title>Node5</title>
<g id="a_node5"><a xlink:href="classyaclib_1_1util_1_1IRef.html" target="_top" xlink:title="Reference counting interface.">
<polygon fill="none" stroke="black" points="0,-148.5 0,-167.5 81,-167.5 81,-148.5 0,-148.5"/>
<text text-anchor="middle" x="40.5" y="-155.5" font-family="Helvetica,sans-Serif" font-size="10.00">yaclib::util::IRef</text>
</a>
</g>
</g>
<!-- Node5&#45;&gt;Node4 -->
<g id="edge4" class="edge">
<title>Node5&#45;&gt;Node4</title>
<path fill="none" stroke="midnightblue" d="M91.43,-158C99.88,-158 108.6,-158 116.86,-158"/>
<polygon fill="midnightblue" stroke="midnightblue" points="91.29,-154.5 81.29,-158 91.29,-161.5 91.29,-154.5"/>
</g>
<!-- Node6 -->
<g id="node6" class="node">
<title>Node6</title>
<g id="a_node6"><a xlink:href="classyaclib_1_1util_1_1detail_1_1Node.html" target="_top" xlink:title="Intrusive node class.">
<polygon fill="none" stroke="black" points="118,-99 118,-129 204,-129 204,-99 118,-99"/>
<text text-anchor="start" x="126" y="-117" font-family="Helvetica,sans-Serif" font-size="10.00">yaclib::util::detail</text>
<text text-anchor="middle" x="161" y="-106" font-family="Helvetica,sans-Serif" font-size="10.00">::Node</text>
</a>
</g>
</g>
<!-- Node6&#45;&gt;Node3 -->
<g id="edge5" class="edge">
<title>Node6&#45;&gt;Node3</title>
<path fill="none" stroke="midnightblue" d="M214.35,-124.15C223.39,-125.9 232.57,-127.68 240.98,-129.31"/>
<polygon fill="midnightblue" stroke="midnightblue" points="214.75,-120.66 204.26,-122.19 213.41,-127.53 214.75,-120.66"/>
</g>
<!-- Node7 -->
<g id="node7" class="node">
<title>Node7</title>
<g id="a_node7"><a xlink:title=" ">
<polygon fill="none" stroke="#bfbfbf" points="348,-0.5 348,-107.5 500,-107.5 500,-0.5 348,-0.5"/>
<text text-anchor="start" x="356" y="-95.5" font-family="Helvetica,sans-Serif" font-size="10.00">AllCombinatorBase&lt;</text>
<text text-anchor="start" x="356" y="-84.5" font-family="Helvetica,sans-Serif" font-size="10.00"> std::conditional_t</text>
<text text-anchor="start" x="356" y="-73.5" font-family="Helvetica,sans-Serif" font-size="10.00">&lt;std::is_void_v&lt;T&gt;, void,</text>
<text text-anchor="start" x="356" y="-62.5" font-family="Helvetica,sans-Serif" font-size="10.00"> std::conditional_t&lt;(std</text>
<text text-anchor="start" x="356" y="-51.5" font-family="Helvetica,sans-Serif" font-size="10.00">::numeric_limits&lt;size_t&gt;</text>
<text text-anchor="start" x="356" y="-40.5" font-family="Helvetica,sans-Serif" font-size="10.00">::max() != std::numeric_limits</text>
<text text-anchor="start" x="356" y="-29.5" font-family="Helvetica,sans-Serif" font-size="10.00">&lt;size_t&gt;::max()) , std::array</text>
<text text-anchor="start" x="356" y="-18.5" font-family="Helvetica,sans-Serif" font-size="10.00">&lt;T, std::numeric_limits&lt;size_t&gt;</text>
<text text-anchor="middle" x="424" y="-7.5" font-family="Helvetica,sans-Serif" font-size="10.00">::max() &gt;, std::vector&lt;T&gt;&gt;&gt; &gt;</text>
</a>
</g>
</g>
<!-- Node7&#45;&gt;Node1 -->
<g id="edge6" class="edge">
<title>Node7&#45;&gt;Node1</title>
<path fill="none" stroke="midnightblue" d="M510.11,-73.07C520.47,-75.39 530.94,-77.73 540.98,-79.98"/>
<polygon fill="midnightblue" stroke="midnightblue" points="510.75,-69.62 500.23,-70.85 509.22,-76.46 510.75,-69.62"/>
</g>
</g>
</svg>
