<?xml version="1.0" encoding="UTF-8" standalone="no"?>
<!DOCTYPE svg PUBLIC "-//W3C//DTD SVG 1.1//EN"
 "http://www.w3.org/Graphics/SVG/1.1/DTD/svg11.dtd">
<!-- Generated by graphviz version 2.44.0 ()
 -->
<!-- Title: yaclib::detail::BaseCore Pages: 1 -->
<svg width="1011pt" height="157pt"
 viewBox="0.00 0.00 1011.00 157.20" xmlns="http://www.w3.org/2000/svg" xmlns:xlink="http://www.w3.org/1999/xlink">
<g id="graph0" class="graph" transform="scale(1 1) rotate(0) translate(4 153.2)">
<title>yaclib::detail::BaseCore</title>
<!-- Node1 -->
<g id="node1" class="node">
<title>Node1</title>
<g id="a_node1"><a xlink:title=" ">
<polygon fill="#bfbfbf" stroke="black" points="351,-79 351,-98 467,-98 467,-79 351,-79"/>
<text text-anchor="middle" x="409" y="-86" font-family="Helvetica,sans-Serif" font-size="10.00">yaclib::detail::BaseCore</text>
</a>
</g>
</g>
<!-- Node6 -->
<g id="node6" class="node">
<title>Node6</title>
<g id="a_node6"><a xlink:href="classyaclib_1_1detail_1_1ResultCore.html" target="_top" xlink:title=" ">
<polygon fill="none" stroke="black" points="720,-71.5 720,-101.5 842,-101.5 842,-71.5 720,-71.5"/>
<text text-anchor="start" x="728" y="-89.5" font-family="Helvetica,sans-Serif" font-size="10.00">yaclib::detail::ResultCore</text>
<text text-anchor="middle" x="781" y="-78.5" font-family="Helvetica,sans-Serif" font-size="10.00">&lt; Ret &gt;</text>
</a>
</g>
</g>
<!-- Node1&#45;&gt;Node6 -->
<g id="edge5" class="edge">
<title>Node1&#45;&gt;Node6</title>
<path fill="none" stroke="midnightblue" d="M431.59,-103.95C449.87,-116.02 477.3,-131.84 504,-138.5 566.96,-154.2 586.28,-150.77 650,-138.5 686.52,-131.47 725.82,-114.27 751.54,-101.56"/>
<polygon fill="midnightblue" stroke="midnightblue" points="433.39,-100.94 423.15,-98.21 429.45,-106.73 433.39,-100.94"/>
</g>
<!-- Node8 -->
<g id="node8" class="node">
<title>Node8</title>
<g id="a_node8"><a xlink:href="classyaclib_1_1detail_1_1AllCombinator.html" target="_top" xlink:title=" ">
<polygon fill="none" stroke="black" points="504,-98.5 504,-128.5 650,-128.5 650,-98.5 504,-98.5"/>
<text text-anchor="start" x="512" y="-116.5" font-family="Helvetica,sans-Serif" font-size="10.00">yaclib::detail::AllCombinator</text>
<text text-anchor="middle" x="577" y="-105.5" font-family="Helvetica,sans-Serif" font-size="10.00">&lt; T, N, IsArray, FutureValue &gt;</text>
</a>
</g>
</g>
<!-- Node1&#45;&gt;Node8 -->
<g id="edge7" class="edge">
<title>Node1&#45;&gt;Node8</title>
<path fill="none" stroke="midnightblue" d="M477.26,-98.63C486,-99.95 494.99,-101.3 503.81,-102.63"/>
<polygon fill="midnightblue" stroke="midnightblue" points="477.54,-95.13 467.13,-97.1 476.5,-102.05 477.54,-95.13"/>
</g>
<!-- Node9 -->
<g id="node9" class="node">
<title>Node9</title>
<g id="a_node9"><a xlink:href="classyaclib_1_1detail_1_1AnyCombinator.html" target="_top" xlink:title=" ">
<polygon fill="none" stroke="black" points="507,-49.5 507,-79.5 647,-79.5 647,-49.5 507,-49.5"/>
<text text-anchor="start" x="515" y="-67.5" font-family="Helvetica,sans-Serif" font-size="10.00">yaclib::detail::AnyCombinator</text>
<text text-anchor="middle" x="577" y="-56.5" font-family="Helvetica,sans-Serif" font-size="10.00">&lt; T, P &gt;</text>
</a>
</g>
</g>
<!-- Node1&#45;&gt;Node9 -->
<g id="edge8" class="edge">
<title>Node1&#45;&gt;Node9</title>
<path fill="none" stroke="midnightblue" d="M477.15,-78.79C486.89,-77.38 496.94,-75.93 506.73,-74.52"/>
<polygon fill="midnightblue" stroke="midnightblue" points="476.52,-75.35 467.13,-80.24 477.53,-82.27 476.52,-75.35"/>
</g>
<!-- Node10 -->
<g id="node10" class="node">
<title>Node10</title>
<g id="a_node10"><a xlink:href="classyaclib_1_1detail_1_1ResultCore.html" target="_top" xlink:title=" ">
<polygon fill="none" stroke="black" points="516,-0.5 516,-30.5 638,-30.5 638,-0.5 516,-0.5"/>
<text text-anchor="start" x="524" y="-18.5" font-family="Helvetica,sans-Serif" font-size="10.00">yaclib::detail::ResultCore</text>
<text text-anchor="middle" x="577" y="-7.5" font-family="Helvetica,sans-Serif" font-size="10.00">&lt; Value &gt;</text>
</a>
</g>
</g>
<!-- Node1&#45;&gt;Node10 -->
<g id="edge9" class="edge">
<title>Node1&#45;&gt;Node10</title>
<path fill="none" stroke="midnightblue" d="M435.34,-73.89C453.96,-63.5 480.09,-49.64 504,-39.5 511.4,-36.36 519.36,-33.36 527.2,-30.6"/>
<polygon fill="midnightblue" stroke="midnightblue" points="433.58,-70.86 426.59,-78.82 437.02,-76.96 433.58,-70.86"/>
</g>
<!-- Node2 -->
<g id="node2" class="node">
<title>Node2</title>
<g id="a_node2"><a xlink:href="classyaclib_1_1ITask.html" target="_top" xlink:title="Callable that can be executed in an IExecutor.">
<polygon fill="none" stroke="black" points="243,-79 243,-98 314,-98 314,-79 243,-79"/>
<text text-anchor="middle" x="278.5" y="-86" font-family="Helvetica,sans-Serif" font-size="10.00">yaclib::ITask</text>
</a>
</g>
</g>
<!-- Node2&#45;&gt;Node1 -->
<g id="edge1" class="edge">
<title>Node2&#45;&gt;Node1</title>
<path fill="none" stroke="midnightblue" d="M324.41,-88.5C332.97,-88.5 342.03,-88.5 350.91,-88.5"/>
<polygon fill="midnightblue" stroke="midnightblue" points="324.27,-85 314.27,-88.5 324.27,-92 324.27,-85"/>
</g>
<!-- Node3 -->
<g id="node3" class="node">
<title>Node3</title>
<g id="a_node3"><a xlink:href="classyaclib_1_1util_1_1IFunc.html" target="_top" xlink:title="Shared callable interface.">
<polygon fill="none" stroke="black" points="118,-111 118,-130 206,-130 206,-111 118,-111"/>
<text text-anchor="middle" x="162" y="-118" font-family="Helvetica,sans-Serif" font-size="10.00">yaclib::util::IFunc</text>
</a>
</g>
</g>
<!-- Node3&#45;&gt;Node2 -->
<g id="edge2" class="edge">
<title>Node3&#45;&gt;Node2</title>
<path fill="none" stroke="midnightblue" d="M206.95,-108.22C219.03,-104.84 231.95,-101.23 243.39,-98.03"/>
<polygon fill="midnightblue" stroke="midnightblue" points="205.73,-104.92 197.04,-110.99 207.62,-111.66 205.73,-104.92"/>
</g>
<!-- Node4 -->
<g id="node4" class="node">
<title>Node4</title>
<g id="a_node4"><a xlink:href="classyaclib_1_1util_1_1IRef.html" target="_top" xlink:title="Reference counting interface.">
<polygon fill="none" stroke="black" points="0,-111 0,-130 81,-130 81,-111 0,-111"/>
<text text-anchor="middle" x="40.5" y="-118" font-family="Helvetica,sans-Serif" font-size="10.00">yaclib::util::IRef</text>
</a>
</g>
</g>
<!-- Node4&#45;&gt;Node3 -->
<g id="edge3" class="edge">
<title>Node4&#45;&gt;Node3</title>
<path fill="none" stroke="midnightblue" d="M91.37,-120.5C100.11,-120.5 109.14,-120.5 117.68,-120.5"/>
<polygon fill="midnightblue" stroke="midnightblue" points="91.29,-117 81.29,-120.5 91.29,-124 91.29,-117"/>
</g>
<!-- Node5 -->
<g id="node5" class="node">
<title>Node5</title>
<g id="a_node5"><a xlink:href="classyaclib_1_1util_1_1detail_1_1Node.html" target="_top" xlink:title="Intrusive node class.">
<polygon fill="none" stroke="black" points="119,-61.5 119,-91.5 205,-91.5 205,-61.5 119,-61.5"/>
<text text-anchor="start" x="127" y="-79.5" font-family="Helvetica,sans-Serif" font-size="10.00">yaclib::util::detail</text>
<text text-anchor="middle" x="162" y="-68.5" font-family="Helvetica,sans-Serif" font-size="10.00">::Node</text>
</a>
</g>
</g>
<!-- Node5&#45;&gt;Node2 -->
<g id="edge4" class="edge">
<title>Node5&#45;&gt;Node2</title>
<path fill="none" stroke="midnightblue" d="M215.32,-81.98C224.66,-82.96 234.17,-83.96 242.85,-84.87"/>
<polygon fill="midnightblue" stroke="midnightblue" points="215.62,-78.5 205.31,-80.93 214.89,-85.46 215.62,-78.5"/>
</g>
<!-- Node7 -->
<g id="node7" class="node">
<title>Node7</title>
<g id="a_node7"><a xlink:href="classyaclib_1_1detail_1_1Core.html" target="_top" xlink:title=" ">
<polygon fill="none" stroke="black" points="879,-71.5 879,-101.5 1003,-101.5 1003,-71.5 879,-71.5"/>
<text text-anchor="start" x="887" y="-89.5" font-family="Helvetica,sans-Serif" font-size="10.00">yaclib::detail::Core</text>
<text text-anchor="middle" x="941" y="-78.5" font-family="Helvetica,sans-Serif" font-size="10.00">&lt; Ret, InvokeType, Arg &gt;</text>
</a>
</g>
</g>
<!-- Node6&#45;&gt;Node7 -->
<g id="edge6" class="edge">
<title>Node6&#45;&gt;Node7</title>
<path fill="none" stroke="midnightblue" d="M852.46,-86.5C861.29,-86.5 870.26,-86.5 878.94,-86.5"/>
<polygon fill="midnightblue" stroke="midnightblue" points="852.18,-83 842.18,-86.5 852.18,-90 852.18,-83"/>
</g>
<!-- Node10&#45;&gt;Node6 -->
<g id="edge10" class="edge">
<title>Node10&#45;&gt;Node6</title>
<path fill="none" stroke="orange" stroke-dasharray="5,2" d="M633.25,-33.76C638.92,-35.68 644.58,-37.62 650,-39.5 679.92,-49.9 713.55,-62.07 739.11,-71.42"/>
<polygon fill="orange" stroke="orange" points="634.36,-30.44 623.77,-30.56 632.12,-37.07 634.36,-30.44"/>
<text text-anchor="middle" x="685" y="-60.5" font-family="Helvetica,sans-Serif" font-size="10.00"> &lt; Ret &gt;</text>
</g>
</g>
</svg>
