<?xml version="1.0" encoding="UTF-8" standalone="no"?>
<!DOCTYPE svg PUBLIC "-//W3C//DTD SVG 1.1//EN"
 "http://www.w3.org/Graphics/SVG/1.1/DTD/svg11.dtd">
<!-- Generated by graphviz version 2.44.0 ()
 -->
<!-- Title: yaclib::detail::AnyCombinatorBase&lt; T, P &gt; Pages: 1 -->
<svg width="189pt" height="106pt"
 viewBox="0.00 0.00 188.50 106.00" xmlns="http://www.w3.org/2000/svg" xmlns:xlink="http://www.w3.org/1999/xlink">
<g id="graph0" class="graph" transform="scale(1 1) rotate(0) translate(4 102)">
<title>yaclib::detail::AnyCombinatorBase&lt; T, P &gt;</title>
<!-- Node1 -->
<g id="node1" class="node">
<title>Node1</title>
<g id="a_node1"><a xlink:title=" ">
<polygon fill="#bfbfbf" stroke="black" points="23,-0.5 23,-30.5 163,-30.5 163,-0.5 23,-0.5"/>
<text text-anchor="start" x="31" y="-18.5" font-family="Helvetica,sans-Serif" font-size="10.00">yaclib::detail::AnyCombinator</text>
<text text-anchor="middle" x="93" y="-7.5" font-family="Helvetica,sans-Serif" font-size="10.00">Base&lt; T, P &gt;</text>
</a>
</g>
</g>
<!-- Node2 -->
<g id="node2" class="node">
<title>Node2</title>
<g id="a_node2"><a xlink:title=" ">
<polygon fill="none" stroke="#bfbfbf" points="0,-78.5 0,-97.5 88,-97.5 88,-78.5 0,-78.5"/>
<text text-anchor="middle" x="44" y="-85.5" font-family="Helvetica,sans-Serif" font-size="10.00">atomic&lt; size_t &gt;</text>
</a>
</g>
</g>
<!-- Node2&#45;&gt;Node1 -->
<g id="edge1" class="edge">
<title>Node2&#45;&gt;Node1</title>
<path fill="none" stroke="#9a32cd" stroke-dasharray="5,2" d="M55.79,-70.04C64.18,-57.97 75.32,-41.94 83.22,-30.58"/>
<polygon fill="#9a32cd" stroke="#9a32cd" points="52.84,-68.15 50.01,-78.36 58.59,-72.14 52.84,-68.15"/>
<text text-anchor="middle" x="82.5" y="-52" font-family="Helvetica,sans-Serif" font-size="10.00"> _size</text>
</g>
<!-- Node3 -->
<g id="node3" class="node">
<title>Node3</title>
<g id="a_node3"><a xlink:title=" ">
<polygon fill="none" stroke="#bfbfbf" points="105.5,-78.5 105.5,-97.5 180.5,-97.5 180.5,-78.5 105.5,-78.5"/>
<text text-anchor="middle" x="143" y="-85.5" font-family="Helvetica,sans-Serif" font-size="10.00">Promise&lt; T &gt;</text>
</a>
</g>
</g>
<!-- Node3&#45;&gt;Node1 -->
<g id="edge2" class="edge">
<title>Node3&#45;&gt;Node1</title>
<path fill="none" stroke="#9a32cd" stroke-dasharray="5,2" d="M130.97,-70.04C122.41,-57.97 111.04,-41.94 102.98,-30.58"/>
<polygon fill="#9a32cd" stroke="#9a32cd" points="128.23,-72.22 136.87,-78.36 133.94,-68.17 128.23,-72.22"/>
<text text-anchor="middle" x="143.5" y="-52" font-family="Helvetica,sans-Serif" font-size="10.00"> _promise</text>
</g>
</g>
</svg>
