<?xml version="1.0" encoding="UTF-8" standalone="no"?>
<!DOCTYPE svg PUBLIC "-//W3C//DTD SVG 1.1//EN"
 "http://www.w3.org/Graphics/SVG/1.1/DTD/svg11.dtd">
<!-- Generated by graphviz version 2.44.0 ()
 -->
<!-- Title: yaclib::ITask Pages: 1 -->
<!--zoomable 225 -->
<svg id="main" version="1.1" xmlns="http://www.w3.org/2000/svg" xmlns:xlink="http://www.w3.org/1999/xlink" xml:space="preserve" onload="init(evt)">
<style type="text/css"><![CDATA[
.edge:hover path { stroke: red; }
.edge:hover polygon { stroke: red; fill: red; }
]]></style>
<script type="text/javascript"><![CDATA[
var edges = document.getElementsByTagName('g');
if (edges && edges.length) {
  for (var i=0;i<edges.length;i++) {
    if (edges[i].id.substr(0,4)=='edge') {
      edges[i].setAttribute('class','edge');
    }
  }
}
]]></script>
        <defs>
                <circle id="rim" cx="0" cy="0" r="7"/>
                <circle id="rim2" cx="0" cy="0" r="3.5"/>
                <g id="zoomPlus">
                        <use xlink:href="#rim" fill="#404040">
                                <set attributeName="fill" to="#808080" begin="zoomplus.mouseover" end="zoomplus.mouseout"/>
                        </use>
                        <path d="M-4,0h8M0,-4v8" fill="none" stroke="white" stroke-width="1.5" pointer-events="none"/>
                </g>
                <g id="zoomMin">
                        <use xlink:href="#rim" fill="#404040">
                                <set attributeName="fill" to="#808080" begin="zoomminus.mouseover" end="zoomminus.mouseout"/>
                        </use>
                        <path d="M-4,0h8" fill="none" stroke="white" stroke-width="1.5" pointer-events="none"/>
                </g>
                <g id="dirArrow">
                        <path fill="none" stroke="white" stroke-width="1.5" d="M0,-3.0v7 M-2.5,-0.5L0,-3.0L2.5,-0.5"/>
                </g>
               <g id="resetDef">
                       <use xlink:href="#rim2" fill="#404040">
                               <set attributeName="fill" to="#808080" begin="reset.mouseover" end="reset.mouseout"/>
                       </use>
               </g>
        </defs>

<script type="text/javascript">
var viewWidth = 1031;
var viewHeight = 225;
var sectionId = 'dynsection-0';
</script>
<script xlink:href="svgpan.js"/>
<svg id="graph" class="graph">
<g id="viewport">
<title>yaclib::ITask</title>
<!-- Node1 -->
<g id="node1" class="node">
<title>Node1</title>
<g id="a_node1"><a xlink:title="Callable that can be executed in an IExecutor.">
<polygon fill="#bfbfbf" stroke="black" points="243,-125 243,-144 314,-144 314,-125 243,-125"/>
<text text-anchor="middle" x="278.5" y="-132" font-family="Helvetica,sans-Serif" font-size="10.00">yaclib::ITask</text>
</a>
</g>
</g>
<!-- Node5 -->
<g id="node5" class="node">
<title>Node5</title>
<g id="a_node5"><a xlink:href="classyaclib_1_1util_1_1detail_1_1CallImpl.html" target="_top" xlink:title=" ">
<polygon fill="none" stroke="black" points="351,-164.5 351,-194.5 487,-194.5 487,-164.5 351,-164.5"/>
<text text-anchor="start" x="359" y="-182.5" font-family="Helvetica,sans-Serif" font-size="10.00">yaclib::util::detail</text>
<text text-anchor="middle" x="419" y="-171.5" font-family="Helvetica,sans-Serif" font-size="10.00">::CallImpl&lt; ITask, Functor &gt;</text>
</a>
</g>
</g>
<!-- Node1&#45;&gt;Node5 -->
<g id="edge4" class="edge">
<title>Node1&#45;&gt;Node5</title>
<path fill="none" stroke="midnightblue" d="M318.74,-147.25C335.25,-152.61 354.58,-158.89 371.77,-164.48"/>
<polygon fill="midnightblue" stroke="midnightblue" points="319.46,-143.8 308.87,-144.04 317.3,-150.46 319.46,-143.8"/>
</g>
<!-- Node7 -->
<g id="node7" class="node">
<title>Node7</title>
<g id="a_node7"><a xlink:href="classyaclib_1_1detail_1_1BaseCore.html" target="_top" xlink:title=" ">
<polygon fill="none" stroke="black" points="361,-104 361,-123 477,-123 477,-104 361,-104"/>
<text text-anchor="middle" x="419" y="-111" font-family="Helvetica,sans-Serif" font-size="10.00">yaclib::detail::BaseCore</text>
</a>
</g>
</g>
<!-- Node1&#45;&gt;Node7 -->
<g id="edge6" class="edge">
<title>Node1&#45;&gt;Node7</title>
<path fill="none" stroke="midnightblue" d="M324.09,-127.74C335.84,-125.96 348.67,-124.01 360.97,-122.15"/>
<polygon fill="midnightblue" stroke="midnightblue" points="323.45,-124.3 314.09,-129.25 324.5,-131.22 323.45,-124.3"/>
</g>
<!-- Node2 -->
<g id="node2" class="node">
<title>Node2</title>
<g id="a_node2"><a xlink:href="classyaclib_1_1util_1_1IFunc.html" target="_top" xlink:title="Shared callable interface.">
<polygon fill="none" stroke="black" points="118,-157 118,-176 206,-176 206,-157 118,-157"/>
<text text-anchor="middle" x="162" y="-164" font-family="Helvetica,sans-Serif" font-size="10.00">yaclib::util::IFunc</text>
</a>
</g>
</g>
<!-- Node2&#45;&gt;Node1 -->
<g id="edge1" class="edge">
<title>Node2&#45;&gt;Node1</title>
<path fill="none" stroke="midnightblue" d="M206.95,-154.22C219.03,-150.84 231.95,-147.23 243.39,-144.03"/>
<polygon fill="midnightblue" stroke="midnightblue" points="205.73,-150.92 197.04,-156.99 207.62,-157.66 205.73,-150.92"/>
</g>
<!-- Node3 -->
<g id="node3" class="node">
<title>Node3</title>
<g id="a_node3"><a xlink:href="classyaclib_1_1util_1_1IRef.html" target="_top" xlink:title="Reference counting interface.">
<polygon fill="none" stroke="black" points="0,-157 0,-176 81,-176 81,-157 0,-157"/>
<text text-anchor="middle" x="40.5" y="-164" font-family="Helvetica,sans-Serif" font-size="10.00">yaclib::util::IRef</text>
</a>
</g>
</g>
<!-- Node3&#45;&gt;Node2 -->
<g id="edge2" class="edge">
<title>Node3&#45;&gt;Node2</title>
<path fill="none" stroke="midnightblue" d="M91.37,-166.5C100.11,-166.5 109.14,-166.5 117.68,-166.5"/>
<polygon fill="midnightblue" stroke="midnightblue" points="91.29,-163 81.29,-166.5 91.29,-170 91.29,-163"/>
</g>
<!-- Node4 -->
<g id="node4" class="node">
<title>Node4</title>
<g id="a_node4"><a xlink:href="classyaclib_1_1util_1_1detail_1_1Node.html" target="_top" xlink:title="Intrusive node class.">
<polygon fill="none" stroke="black" points="119,-107.5 119,-137.5 205,-137.5 205,-107.5 119,-107.5"/>
<text text-anchor="start" x="127" y="-125.5" font-family="Helvetica,sans-Serif" font-size="10.00">yaclib::util::detail</text>
<text text-anchor="middle" x="162" y="-114.5" font-family="Helvetica,sans-Serif" font-size="10.00">::Node</text>
</a>
</g>
</g>
<!-- Node4&#45;&gt;Node1 -->
<g id="edge3" class="edge">
<title>Node4&#45;&gt;Node1</title>
<path fill="none" stroke="midnightblue" d="M215.32,-127.98C224.66,-128.96 234.17,-129.96 242.85,-130.87"/>
<polygon fill="midnightblue" stroke="midnightblue" points="215.62,-124.5 205.31,-126.93 214.89,-131.46 215.62,-124.5"/>
</g>
<!-- Node6 -->
<g id="node6" class="node">
<title>Node6</title>
<g id="a_node6"><a xlink:href="classyaclib_1_1detail_1_1UniqueTask.html" target="_top" xlink:title=" ">
<polygon fill="none" stroke="black" points="534,-186.5 534,-216.5 660,-216.5 660,-186.5 534,-186.5"/>
<text text-anchor="start" x="542" y="-204.5" font-family="Helvetica,sans-Serif" font-size="10.00">yaclib::detail::UniqueTask</text>
<text text-anchor="middle" x="597" y="-193.5" font-family="Helvetica,sans-Serif" font-size="10.00">&lt; Functor &gt;</text>
</a>
</g>
</g>
<!-- Node5&#45;&gt;Node6 -->
<g id="edge5" class="edge">
<title>Node5&#45;&gt;Node6</title>
<path fill="none" stroke="midnightblue" d="M497.22,-189.15C509.45,-190.68 521.95,-192.24 533.78,-193.72"/>
<polygon fill="midnightblue" stroke="midnightblue" points="497.4,-185.65 487.04,-187.88 496.53,-192.59 497.4,-185.65"/>
</g>
<!-- Node8 -->
<g id="node8" class="node">
<title>Node8</title>
<g id="a_node8"><a xlink:href="classyaclib_1_1detail_1_1ResultCore.html" target="_top" xlink:title=" ">
<polygon fill="none" stroke="black" points="740,-71.5 740,-101.5 862,-101.5 862,-71.5 740,-71.5"/>
<text text-anchor="start" x="748" y="-89.5" font-family="Helvetica,sans-Serif" font-size="10.00">yaclib::detail::ResultCore</text>
<text text-anchor="middle" x="801" y="-78.5" font-family="Helvetica,sans-Serif" font-size="10.00">&lt; Ret &gt;</text>
</a>
</g>
</g>
<!-- Node7&#45;&gt;Node8 -->
<g id="edge7" class="edge">
<title>Node7&#45;&gt;Node8</title>
<path fill="none" stroke="midnightblue" d="M462.61,-125.63C481.28,-130.35 503.56,-135.17 524,-137.5 588.47,-144.84 606.24,-149.56 670,-137.5 706.21,-130.65 745.25,-113.96 770.99,-101.52"/>
<polygon fill="midnightblue" stroke="midnightblue" points="463.48,-122.24 452.92,-123.11 461.72,-129.02 463.48,-122.24"/>
</g>
<!-- Node10 -->
<g id="node10" class="node">
<title>Node10</title>
<g id="a_node10"><a xlink:href="classyaclib_1_1detail_1_1AllCombinator.html" target="_top" xlink:title=" ">
<polygon fill="none" stroke="black" points="524,-98.5 524,-128.5 670,-128.5 670,-98.5 524,-98.5"/>
<text text-anchor="start" x="532" y="-116.5" font-family="Helvetica,sans-Serif" font-size="10.00">yaclib::detail::AllCombinator</text>
<text text-anchor="middle" x="597" y="-105.5" font-family="Helvetica,sans-Serif" font-size="10.00">&lt; T, N, IsArray, FutureValue &gt;</text>
</a>
</g>
</g>
<!-- Node7&#45;&gt;Node10 -->
<g id="edge9" class="edge">
<title>Node7&#45;&gt;Node10</title>
<path fill="none" stroke="midnightblue" d="M487.42,-113.5C499.3,-113.5 511.71,-113.5 523.72,-113.5"/>
<polygon fill="midnightblue" stroke="midnightblue" points="487.14,-110 477.14,-113.5 487.14,-117 487.14,-110"/>
</g>
<!-- Node11 -->
<g id="node11" class="node">
<title>Node11</title>
<g id="a_node11"><a xlink:href="classyaclib_1_1detail_1_1AnyCombinator.html" target="_top" xlink:title=" ">
<polygon fill="none" stroke="black" points="527,-49.5 527,-79.5 667,-79.5 667,-49.5 527,-49.5"/>
<text text-anchor="start" x="535" y="-67.5" font-family="Helvetica,sans-Serif" font-size="10.00">yaclib::detail::AnyCombinator</text>
<text text-anchor="middle" x="597" y="-56.5" font-family="Helvetica,sans-Serif" font-size="10.00">&lt; T, P &gt;</text>
</a>
</g>
</g>
<!-- Node7&#45;&gt;Node11 -->
<g id="edge10" class="edge">
<title>Node7&#45;&gt;Node11</title>
<path fill="none" stroke="midnightblue" d="M464.1,-101.22C487.72,-94.65 517.01,-86.49 541.99,-79.54"/>
<polygon fill="midnightblue" stroke="midnightblue" points="463.05,-97.88 454.35,-103.94 464.92,-104.63 463.05,-97.88"/>
</g>
<!-- Node12 -->
<g id="node12" class="node">
<title>Node12</title>
<g id="a_node12"><a xlink:href="classyaclib_1_1detail_1_1ResultCore.html" target="_top" xlink:title=" ">
<polygon fill="none" stroke="black" points="536,-0.5 536,-30.5 658,-30.5 658,-0.5 536,-0.5"/>
<text text-anchor="start" x="544" y="-18.5" font-family="Helvetica,sans-Serif" font-size="10.00">yaclib::detail::ResultCore</text>
<text text-anchor="middle" x="597" y="-7.5" font-family="Helvetica,sans-Serif" font-size="10.00">&lt; Value &gt;</text>
</a>
</g>
</g>
<!-- Node7&#45;&gt;Node12 -->
<g id="edge11" class="edge">
<title>Node7&#45;&gt;Node12</title>
<path fill="none" stroke="midnightblue" d="M438.87,-97.43C458.9,-81.04 492.02,-55.75 524,-39.5 530.46,-36.22 537.47,-33.24 544.49,-30.58"/>
<polygon fill="midnightblue" stroke="midnightblue" points="436.58,-94.78 431.13,-103.87 441.06,-100.17 436.58,-94.78"/>
</g>
<!-- Node9 -->
<g id="node9" class="node">
<title>Node9</title>
<g id="a_node9"><a xlink:href="classyaclib_1_1detail_1_1Core.html" target="_top" xlink:title=" ">
<polygon fill="none" stroke="black" points="899,-71.5 899,-101.5 1023,-101.5 1023,-71.5 899,-71.5"/>
<text text-anchor="start" x="907" y="-89.5" font-family="Helvetica,sans-Serif" font-size="10.00">yaclib::detail::Core</text>
<text text-anchor="middle" x="961" y="-78.5" font-family="Helvetica,sans-Serif" font-size="10.00">&lt; Ret, InvokeType, Arg &gt;</text>
</a>
</g>
</g>
<!-- Node8&#45;&gt;Node9 -->
<g id="edge8" class="edge">
<title>Node8&#45;&gt;Node9</title>
<path fill="none" stroke="midnightblue" d="M872.46,-86.5C881.29,-86.5 890.26,-86.5 898.94,-86.5"/>
<polygon fill="midnightblue" stroke="midnightblue" points="872.18,-83 862.18,-86.5 872.18,-90 872.18,-83"/>
</g>
<!-- Node12&#45;&gt;Node8 -->
<g id="edge12" class="edge">
<title>Node12&#45;&gt;Node8</title>
<path fill="none" stroke="orange" stroke-dasharray="5,2" d="M653.25,-33.76C658.92,-35.68 664.58,-37.62 670,-39.5 699.92,-49.9 733.55,-62.07 759.11,-71.42"/>
<polygon fill="orange" stroke="orange" points="654.36,-30.44 643.77,-30.56 652.12,-37.07 654.36,-30.44"/>
<text text-anchor="middle" x="705" y="-60.5" font-family="Helvetica,sans-Serif" font-size="10.00"> &lt; Ret &gt;</text>
</g>
</g>
</svg>
        <g id="navigator" transform="translate(0 0)" fill="#404254">
                <rect fill="#f2f5e9" fill-opacity="0.5" stroke="#606060" stroke-width=".5" x="0" y="0" width="60" height="60"/>
                <use id="zoomplus" xlink:href="#zoomPlus" x="17" y="9" onmousedown="handleZoom(evt,'in')"/>
                <use id="zoomminus" xlink:href="#zoomMin" x="42" y="9" onmousedown="handleZoom(evt,'out')"/>
                <use id="reset" xlink:href="#resetDef" x="30" y="36" onmousedown="handleReset()"/>
                <g id="arrowUp" xlink:href="#dirArrow" transform="translate(30 24)" onmousedown="handlePan(0,-1)">
                  <use xlink:href="#rim" fill="#404040">
                        <set attributeName="fill" to="#808080" begin="arrowUp.mouseover" end="arrowUp.mouseout"/>
                  </use>
                  <path fill="none" stroke="white" stroke-width="1.5" d="M0,-3.0v7 M-2.5,-0.5L0,-3.0L2.5,-0.5"/>
                </g>
                <g id="arrowRight" xlink:href="#dirArrow" transform="rotate(90) translate(36 -43)" onmousedown="handlePan(1,0)">
                  <use xlink:href="#rim" fill="#404040">
                        <set attributeName="fill" to="#808080" begin="arrowRight.mouseover" end="arrowRight.mouseout"/>
                  </use>
                  <path fill="none" stroke="white" stroke-width="1.5" d="M0,-3.0v7 M-2.5,-0.5L0,-3.0L2.5,-0.5"/>
                </g>
                <g id="arrowDown" xlink:href="#dirArrow" transform="rotate(180) translate(-30 -48)" onmousedown="handlePan(0,1)">
                  <use xlink:href="#rim" fill="#404040">
                        <set attributeName="fill" to="#808080" begin="arrowDown.mouseover" end="arrowDown.mouseout"/>
                  </use>
                  <path fill="none" stroke="white" stroke-width="1.5" d="M0,-3.0v7 M-2.5,-0.5L0,-3.0L2.5,-0.5"/>
                </g>
                <g id="arrowLeft" xlink:href="#dirArrow" transform="rotate(270) translate(-36 17)" onmousedown="handlePan(-1,0)">
                  <use xlink:href="#rim" fill="#404040">
                        <set attributeName="fill" to="#808080" begin="arrowLeft.mouseover" end="arrowLeft.mouseout"/>
                  </use>
                  <path fill="none" stroke="white" stroke-width="1.5" d="M0,-3.0v7 M-2.5,-0.5L0,-3.0L2.5,-0.5"/>
                </g>
        </g>
        <svg viewBox="0 0 15 15" width="100%" height="30px" preserveAspectRatio="xMaxYMin meet">
         <g id="arrow_out" transform="scale(0.3 0.3)">
          <a xlink:href="classyaclib_1_1ITask__inherit__graph_org.svg" target="_base">
           <rect id="button" ry="5" rx="5" y="6" x="6" height="38" width="38"
                fill="#f2f5e9" fill-opacity="0.5" stroke="#606060" stroke-width="1.0"/>
           <path id="arrow"
             d="M 11.500037,31.436501 C 11.940474,20.09759 22.043105,11.32322 32.158766,21.979434 L 37.068811,17.246167 C 37.068811,17.246167 37.088388,32 37.088388,32 L 22.160133,31.978069 C 22.160133,31.978069 26.997745,27.140456 26.997745,27.140456 C 18.528582,18.264221 13.291696,25.230495 11.500037,31.436501 z"
             style="fill:#404040;"/>
          </a>
         </g>
        </svg>
</svg>
