<?xml version="1.0" encoding="UTF-8" standalone="no"?>
<!DOCTYPE svg PUBLIC "-//W3C//DTD SVG 1.1//EN"
 "http://www.w3.org/Graphics/SVG/1.1/DTD/svg11.dtd">
<!-- Generated by graphviz version 2.44.0 ()
 -->
<!-- Title: yaclib::detail::Core&lt; Ret, InvokeType, Arg &gt; Pages: 1 -->
<!--zoomable 256 -->
<svg id="main" version="1.1" xmlns="http://www.w3.org/2000/svg" xmlns:xlink="http://www.w3.org/1999/xlink" xml:space="preserve" onload="init(evt)">
<style type="text/css"><![CDATA[
.edge:hover path { stroke: red; }
.edge:hover polygon { stroke: red; fill: red; }
]]></style>
<script type="text/javascript"><![CDATA[
var edges = document.getElementsByTagName('g');
if (edges && edges.length) {
  for (var i=0;i<edges.length;i++) {
    if (edges[i].id.substr(0,4)=='edge') {
      edges[i].setAttribute('class','edge');
    }
  }
}
]]></script>
        <defs>
                <circle id="rim" cx="0" cy="0" r="7"/>
                <circle id="rim2" cx="0" cy="0" r="3.5"/>
                <g id="zoomPlus">
                        <use xlink:href="#rim" fill="#404040">
                                <set attributeName="fill" to="#808080" begin="zoomplus.mouseover" end="zoomplus.mouseout"/>
                        </use>
                        <path d="M-4,0h8M0,-4v8" fill="none" stroke="white" stroke-width="1.5" pointer-events="none"/>
                </g>
                <g id="zoomMin">
                        <use xlink:href="#rim" fill="#404040">
                                <set attributeName="fill" to="#808080" begin="zoomminus.mouseover" end="zoomminus.mouseout"/>
                        </use>
                        <path d="M-4,0h8" fill="none" stroke="white" stroke-width="1.5" pointer-events="none"/>
                </g>
                <g id="dirArrow">
                        <path fill="none" stroke="white" stroke-width="1.5" d="M0,-3.0v7 M-2.5,-0.5L0,-3.0L2.5,-0.5"/>
                </g>
               <g id="resetDef">
                       <use xlink:href="#rim2" fill="#404040">
                               <set attributeName="fill" to="#808080" begin="reset.mouseover" end="reset.mouseout"/>
                       </use>
               </g>
        </defs>

<script type="text/javascript">
var viewWidth = 1128;
var viewHeight = 256;
var sectionId = 'dynsection-1';
</script>
<script xlink:href="svgpan.js"/>
<svg id="graph" class="graph">
<g id="viewport">
<title>yaclib::detail::Core&lt; Ret, InvokeType, Arg &gt;</title>
<!-- Node1 -->
<g id="node1" class="node">
<title>Node1</title>
<g id="a_node1"><a xlink:title=" ">
<polygon fill="#bfbfbf" stroke="black" points="996,-77 996,-107 1120,-107 1120,-77 996,-77"/>
<text text-anchor="start" x="1004" y="-95" font-family="Helvetica,sans-Serif" font-size="10.00">yaclib::detail::Core</text>
<text text-anchor="middle" x="1058" y="-84" font-family="Helvetica,sans-Serif" font-size="10.00">&lt; Ret, InvokeType, Arg &gt;</text>
</a>
</g>
</g>
<!-- Node2 -->
<g id="node2" class="node">
<title>Node2</title>
<g id="a_node2"><a xlink:href="classyaclib_1_1detail_1_1ResultCore.html" target="_top" xlink:title=" ">
<polygon fill="none" stroke="black" points="837,-77 837,-107 959,-107 959,-77 837,-77"/>
<text text-anchor="start" x="845" y="-95" font-family="Helvetica,sans-Serif" font-size="10.00">yaclib::detail::ResultCore</text>
<text text-anchor="middle" x="898" y="-84" font-family="Helvetica,sans-Serif" font-size="10.00">&lt; Ret &gt;</text>
</a>
</g>
</g>
<!-- Node2&#45;&gt;Node1 -->
<g id="edge1" class="edge">
<title>Node2&#45;&gt;Node1</title>
<path fill="none" stroke="midnightblue" d="M969.46,-92C978.29,-92 987.26,-92 995.94,-92"/>
<polygon fill="midnightblue" stroke="midnightblue" points="969.18,-88.5 959.18,-92 969.18,-95.5 969.18,-88.5"/>
</g>
<!-- Node3 -->
<g id="node3" class="node">
<title>Node3</title>
<g id="a_node3"><a xlink:href="classyaclib_1_1detail_1_1BaseCore.html" target="_top" xlink:title=" ">
<polygon fill="none" stroke="black" points="492,-82.5 492,-101.5 608,-101.5 608,-82.5 492,-82.5"/>
<text text-anchor="middle" x="550" y="-89.5" font-family="Helvetica,sans-Serif" font-size="10.00">yaclib::detail::BaseCore</text>
</a>
</g>
</g>
<!-- Node3&#45;&gt;Node2 -->
<g id="edge2" class="edge">
<title>Node3&#45;&gt;Node2</title>
<path fill="none" stroke="midnightblue" d="M618.18,-95.76C672.39,-98.26 750.63,-100.63 819,-98 824.84,-97.78 830.91,-97.46 836.98,-97.08"/>
<polygon fill="midnightblue" stroke="midnightblue" points="618.16,-92.26 608,-95.28 617.82,-99.25 618.16,-92.26"/>
</g>
<!-- Node13 -->
<g id="node13" class="node">
<title>Node13</title>
<g id="a_node13"><a xlink:href="classyaclib_1_1detail_1_1ResultCore.html" target="_top" xlink:title=" ">
<polygon fill="none" stroke="black" points="645,-55 645,-85 767,-85 767,-55 645,-55"/>
<text text-anchor="start" x="653" y="-73" font-family="Helvetica,sans-Serif" font-size="10.00">yaclib::detail::ResultCore</text>
<text text-anchor="middle" x="706" y="-62" font-family="Helvetica,sans-Serif" font-size="10.00">&lt; Value &gt;</text>
</a>
</g>
</g>
<!-- Node3&#45;&gt;Node13 -->
<g id="edge15" class="edge">
<title>Node3&#45;&gt;Node13</title>
<path fill="none" stroke="midnightblue" d="M618.5,-82.36C627.25,-81.11 636.16,-79.83 644.77,-78.6"/>
<polygon fill="midnightblue" stroke="midnightblue" points="617.75,-78.93 608.34,-83.81 618.74,-85.86 617.75,-78.93"/>
</g>
<!-- Node4 -->
<g id="node4" class="node">
<title>Node4</title>
<g id="a_node4"><a xlink:href="classyaclib_1_1ITask.html" target="_top" xlink:title="Callable that can be executed in an IExecutor.">
<polygon fill="none" stroke="black" points="332.5,-175.5 332.5,-194.5 403.5,-194.5 403.5,-175.5 332.5,-175.5"/>
<text text-anchor="middle" x="368" y="-182.5" font-family="Helvetica,sans-Serif" font-size="10.00">yaclib::ITask</text>
</a>
</g>
</g>
<!-- Node4&#45;&gt;Node3 -->
<g id="edge3" class="edge">
<title>Node4&#45;&gt;Node3</title>
<path fill="none" stroke="midnightblue" d="M403.07,-171.57C423.91,-162.98 450.91,-151.21 474,-139 496.01,-127.36 520.2,-111.63 534.99,-101.65"/>
<polygon fill="midnightblue" stroke="midnightblue" points="401.61,-168.38 393.67,-175.39 404.25,-174.86 401.61,-168.38"/>
</g>
<!-- Node5 -->
<g id="node5" class="node">
<title>Node5</title>
<g id="a_node5"><a xlink:href="classyaclib_1_1util_1_1IFunc.html" target="_top" xlink:title="Shared callable interface.">
<polygon fill="none" stroke="black" points="123,-228.5 123,-247.5 211,-247.5 211,-228.5 123,-228.5"/>
<text text-anchor="middle" x="167" y="-235.5" font-family="Helvetica,sans-Serif" font-size="10.00">yaclib::util::IFunc</text>
</a>
</g>
</g>
<!-- Node5&#45;&gt;Node4 -->
<g id="edge4" class="edge">
<title>Node5&#45;&gt;Node4</title>
<path fill="none" stroke="midnightblue" d="M213.83,-225.79C249.89,-216.19 299.38,-203.01 332.23,-194.26"/>
<polygon fill="midnightblue" stroke="midnightblue" points="212.8,-222.45 204.04,-228.4 214.6,-229.21 212.8,-222.45"/>
</g>
<!-- Node6 -->
<g id="node6" class="node">
<title>Node6</title>
<g id="a_node6"><a xlink:href="classyaclib_1_1util_1_1IRef.html" target="_top" xlink:title="Reference counting interface.">
<polygon fill="none" stroke="black" points="0,-228.5 0,-247.5 81,-247.5 81,-228.5 0,-228.5"/>
<text text-anchor="middle" x="40.5" y="-235.5" font-family="Helvetica,sans-Serif" font-size="10.00">yaclib::util::IRef</text>
</a>
</g>
</g>
<!-- Node6&#45;&gt;Node5 -->
<g id="edge5" class="edge">
<title>Node6&#45;&gt;Node5</title>
<path fill="none" stroke="midnightblue" d="M91.41,-238C101.79,-238 112.65,-238 122.77,-238"/>
<polygon fill="midnightblue" stroke="midnightblue" points="91.23,-234.5 81.23,-238 91.23,-241.5 91.23,-234.5"/>
</g>
<!-- Node7 -->
<g id="node7" class="node">
<title>Node7</title>
<g id="a_node7"><a xlink:href="classyaclib_1_1util_1_1detail_1_1Node.html" target="_top" xlink:title="Intrusive node class.">
<polygon fill="none" stroke="black" points="124,-139 124,-169 210,-169 210,-139 124,-139"/>
<text text-anchor="start" x="132" y="-157" font-family="Helvetica,sans-Serif" font-size="10.00">yaclib::util::detail</text>
<text text-anchor="middle" x="167" y="-146" font-family="Helvetica,sans-Serif" font-size="10.00">::Node</text>
</a>
</g>
</g>
<!-- Node7&#45;&gt;Node4 -->
<g id="edge6" class="edge">
<title>Node7&#45;&gt;Node4</title>
<path fill="none" stroke="midnightblue" d="M220.36,-162.16C255.78,-167.67 301.56,-174.81 332.47,-179.62"/>
<polygon fill="midnightblue" stroke="midnightblue" points="220.62,-158.66 210.2,-160.57 219.54,-165.57 220.62,-158.66"/>
</g>
<!-- Node7&#45;&gt;Node7 -->
<g id="edge7" class="edge">
<title>Node7&#45;&gt;Node7</title>
<path fill="none" stroke="#9a32cd" stroke-dasharray="5,2" d="M155.27,-179.46C156.73,-184.18 160.64,-187.5 167,-187.5 177.44,-187.5 181.28,-178.56 178.5,-169.16"/>
<polygon fill="#9a32cd" stroke="#9a32cd" points="158.78,-179.23 155.5,-169.16 151.78,-179.08 158.78,-179.23"/>
<text text-anchor="middle" x="167" y="-201.5" font-family="Helvetica,sans-Serif" font-size="10.00"> _next</text>
<text text-anchor="middle" x="167" y="-190.5" font-family="Helvetica,sans-Serif" font-size="10.00">_prev</text>
</g>
<!-- Node8 -->
<g id="node8" class="node">
<title>Node8</title>
<g id="a_node8"><a xlink:href="classyaclib_1_1util_1_1Ptr.html" target="_top" xlink:title=" ">
<polygon fill="none" stroke="black" points="327,-126 327,-156 409,-156 409,-126 327,-126"/>
<text text-anchor="start" x="335" y="-144" font-family="Helvetica,sans-Serif" font-size="10.00">yaclib::util::Ptr&lt;</text>
<text text-anchor="middle" x="368" y="-133" font-family="Helvetica,sans-Serif" font-size="10.00"> IRef &gt;</text>
</a>
</g>
</g>
<!-- Node8&#45;&gt;Node3 -->
<g id="edge8" class="edge">
<title>Node8&#45;&gt;Node3</title>
<path fill="none" stroke="#9a32cd" stroke-dasharray="5,2" d="M419.3,-127.31C449.43,-119.11 486.97,-108.89 513.9,-101.55"/>
<polygon fill="#9a32cd" stroke="#9a32cd" points="418.13,-124 409.4,-130 419.96,-130.75 418.13,-124"/>
<text text-anchor="middle" x="451.5" y="-127" font-family="Helvetica,sans-Serif" font-size="10.00"> _callback</text>
</g>
<!-- Node9 -->
<g id="node9" class="node">
<title>Node9</title>
<g id="a_node9"><a xlink:href="classyaclib_1_1util_1_1Ptr.html" target="_top" xlink:title="A intrusive pointer to objects with an embedded reference count.">
<polygon fill="none" stroke="black" points="118,-96.5 118,-115.5 216,-115.5 216,-96.5 118,-96.5"/>
<text text-anchor="middle" x="167" y="-103.5" font-family="Helvetica,sans-Serif" font-size="10.00">yaclib::util::Ptr&lt; T &gt;</text>
</a>
</g>
</g>
<!-- Node9&#45;&gt;Node8 -->
<g id="edge9" class="edge">
<title>Node9&#45;&gt;Node8</title>
<path fill="none" stroke="orange" stroke-dasharray="5,2" d="M226.41,-116.27C258.75,-121.96 298.13,-128.89 326.97,-133.96"/>
<polygon fill="orange" stroke="orange" points="226.63,-112.76 216.17,-114.47 225.41,-119.65 226.63,-112.76"/>
<text text-anchor="middle" x="270.5" y="-132" font-family="Helvetica,sans-Serif" font-size="10.00"> &lt; IRef &gt;</text>
</g>
<!-- Node10 -->
<g id="node10" class="node">
<title>Node10</title>
<g id="a_node10"><a xlink:href="classyaclib_1_1util_1_1Ptr.html" target="_top" xlink:title=" ">
<polygon fill="none" stroke="black" points="327,-77 327,-107 409,-107 409,-77 327,-77"/>
<text text-anchor="start" x="335" y="-95" font-family="Helvetica,sans-Serif" font-size="10.00">yaclib::util::Ptr&lt;</text>
<text text-anchor="middle" x="368" y="-84" font-family="Helvetica,sans-Serif" font-size="10.00"> yaclib::ITask &gt;</text>
</a>
</g>
</g>
<!-- Node9&#45;&gt;Node10 -->
<g id="edge11" class="edge">
<title>Node9&#45;&gt;Node10</title>
<path fill="none" stroke="orange" stroke-dasharray="5,2" d="M226.41,-101.89C258.75,-99.62 298.13,-96.85 326.97,-94.82"/>
<polygon fill="orange" stroke="orange" points="225.9,-98.42 216.17,-102.61 226.39,-105.4 225.9,-98.42"/>
<text text-anchor="middle" x="270.5" y="-105" font-family="Helvetica,sans-Serif" font-size="10.00"> &lt; yaclib::ITask &gt;</text>
</g>
<!-- Node10&#45;&gt;Node3 -->
<g id="edge10" class="edge">
<title>Node10&#45;&gt;Node3</title>
<path fill="none" stroke="#9a32cd" stroke-dasharray="5,2" d="M419.4,-92C441.87,-92 468.45,-92 491.67,-92"/>
<polygon fill="#9a32cd" stroke="#9a32cd" points="419.4,-88.5 409.4,-92 419.4,-95.5 419.4,-88.5"/>
<text text-anchor="middle" x="451.5" y="-95" font-family="Helvetica,sans-Serif" font-size="10.00"> _caller</text>
</g>
<!-- Node11 -->
<g id="node11" class="node">
<title>Node11</title>
<g id="a_node11"><a xlink:title=" ">
<polygon fill="none" stroke="#bfbfbf" points="325,-38.5 325,-57.5 411,-57.5 411,-38.5 325,-38.5"/>
<text text-anchor="middle" x="368" y="-45.5" font-family="Helvetica,sans-Serif" font-size="10.00">atomic&lt; State &gt;</text>
</a>
</g>
</g>
<!-- Node11&#45;&gt;Node3 -->
<g id="edge12" class="edge">
<title>Node11&#45;&gt;Node3</title>
<path fill="none" stroke="#9a32cd" stroke-dasharray="5,2" d="M417.96,-59.97C446.9,-67.04 483.03,-75.87 510.02,-82.47"/>
<polygon fill="#9a32cd" stroke="#9a32cd" points="418.6,-56.52 408.06,-57.55 416.94,-63.32 418.6,-56.52"/>
<text text-anchor="middle" x="451.5" y="-76" font-family="Helvetica,sans-Serif" font-size="10.00"> _state</text>
</g>
<!-- Node12 -->
<g id="node12" class="node">
<title>Node12</title>
<g id="a_node12"><a xlink:title=" ">
<polygon fill="none" stroke="#bfbfbf" points="325,-0.5 325,-19.5 411,-19.5 411,-0.5 325,-0.5"/>
<text text-anchor="middle" x="368" y="-7.5" font-family="Helvetica,sans-Serif" font-size="10.00">Ptr&lt; IExecutor &gt;</text>
</a>
</g>
</g>
<!-- Node12&#45;&gt;Node3 -->
<g id="edge13" class="edge">
<title>Node12&#45;&gt;Node3</title>
<path fill="none" stroke="#9a32cd" stroke-dasharray="5,2" d="M408.64,-22.98C428.57,-29.95 452.91,-39.12 474,-49 495.47,-59.06 519.01,-73.08 533.88,-82.34"/>
<polygon fill="#9a32cd" stroke="#9a32cd" points="409.55,-19.6 398.95,-19.65 407.27,-26.21 409.55,-19.6"/>
<text text-anchor="middle" x="451.5" y="-52" font-family="Helvetica,sans-Serif" font-size="10.00"> _executor</text>
</g>
<!-- Node13&#45;&gt;Node2 -->
<g id="edge14" class="edge">
<title>Node13&#45;&gt;Node2</title>
<path fill="none" stroke="orange" stroke-dasharray="5,2" d="M777.22,-78.13C796.84,-80.4 817.97,-82.85 836.95,-85.05"/>
<polygon fill="orange" stroke="orange" points="777.45,-74.63 767.12,-76.96 776.65,-81.59 777.45,-74.63"/>
<text text-anchor="middle" x="802" y="-86" font-family="Helvetica,sans-Serif" font-size="10.00"> &lt; Ret &gt;</text>
</g>
</g>
</svg>
        <g id="navigator" transform="translate(0 0)" fill="#404254">
                <rect fill="#f2f5e9" fill-opacity="0.5" stroke="#606060" stroke-width=".5" x="0" y="0" width="60" height="60"/>
                <use id="zoomplus" xlink:href="#zoomPlus" x="17" y="9" onmousedown="handleZoom(evt,'in')"/>
                <use id="zoomminus" xlink:href="#zoomMin" x="42" y="9" onmousedown="handleZoom(evt,'out')"/>
                <use id="reset" xlink:href="#resetDef" x="30" y="36" onmousedown="handleReset()"/>
                <g id="arrowUp" xlink:href="#dirArrow" transform="translate(30 24)" onmousedown="handlePan(0,-1)">
                  <use xlink:href="#rim" fill="#404040">
                        <set attributeName="fill" to="#808080" begin="arrowUp.mouseover" end="arrowUp.mouseout"/>
                  </use>
                  <path fill="none" stroke="white" stroke-width="1.5" d="M0,-3.0v7 M-2.5,-0.5L0,-3.0L2.5,-0.5"/>
                </g>
                <g id="arrowRight" xlink:href="#dirArrow" transform="rotate(90) translate(36 -43)" onmousedown="handlePan(1,0)">
                  <use xlink:href="#rim" fill="#404040">
                        <set attributeName="fill" to="#808080" begin="arrowRight.mouseover" end="arrowRight.mouseout"/>
                  </use>
                  <path fill="none" stroke="white" stroke-width="1.5" d="M0,-3.0v7 M-2.5,-0.5L0,-3.0L2.5,-0.5"/>
                </g>
                <g id="arrowDown" xlink:href="#dirArrow" transform="rotate(180) translate(-30 -48)" onmousedown="handlePan(0,1)">
                  <use xlink:href="#rim" fill="#404040">
                        <set attributeName="fill" to="#808080" begin="arrowDown.mouseover" end="arrowDown.mouseout"/>
                  </use>
                  <path fill="none" stroke="white" stroke-width="1.5" d="M0,-3.0v7 M-2.5,-0.5L0,-3.0L2.5,-0.5"/>
                </g>
                <g id="arrowLeft" xlink:href="#dirArrow" transform="rotate(270) translate(-36 17)" onmousedown="handlePan(-1,0)">
                  <use xlink:href="#rim" fill="#404040">
                        <set attributeName="fill" to="#808080" begin="arrowLeft.mouseover" end="arrowLeft.mouseout"/>
                  </use>
                  <path fill="none" stroke="white" stroke-width="1.5" d="M0,-3.0v7 M-2.5,-0.5L0,-3.0L2.5,-0.5"/>
                </g>
        </g>
        <svg viewBox="0 0 15 15" width="100%" height="30px" preserveAspectRatio="xMaxYMin meet">
         <g id="arrow_out" transform="scale(0.3 0.3)">
          <a xlink:href="classyaclib_1_1detail_1_1Core__coll__graph_org.svg" target="_base">
           <rect id="button" ry="5" rx="5" y="6" x="6" height="38" width="38"
                fill="#f2f5e9" fill-opacity="0.5" stroke="#606060" stroke-width="1.0"/>
           <path id="arrow"
             d="M 11.500037,31.436501 C 11.940474,20.09759 22.043105,11.32322 32.158766,21.979434 L 37.068811,17.246167 C 37.068811,17.246167 37.088388,32 37.088388,32 L 22.160133,31.978069 C 22.160133,31.978069 26.997745,27.140456 26.997745,27.140456 C 18.528582,18.264221 13.291696,25.230495 11.500037,31.436501 z"
             style="fill:#404040;"/>
          </a>
         </g>
        </svg>
</svg>
