<?xml version="1.0" encoding="UTF-8" standalone="no"?>
<!DOCTYPE svg PUBLIC "-//W3C//DTD SVG 1.1//EN"
 "http://www.w3.org/Graphics/SVG/1.1/DTD/svg11.dtd">
<!-- Generated by graphviz version 2.44.0 ()
 -->
<!-- Title: yaclib::detail::AllCombinator&lt; T, N, IsArray, FutureValue &gt; Pages: 1 -->
<svg width="835pt" height="300pt"
 viewBox="0.00 0.00 835.00 300.00" xmlns="http://www.w3.org/2000/svg" xmlns:xlink="http://www.w3.org/1999/xlink">
<g id="graph0" class="graph" transform="scale(1 1) rotate(0) translate(4 296)">
<title>yaclib::detail::AllCombinator&lt; T, N, IsArray, FutureValue &gt;</title>
<!-- Node1 -->
<g id="node1" class="node">
<title>Node1</title>
<g id="a_node1"><a xlink:title=" ">
<polygon fill="#bfbfbf" stroke="black" points="681,-51 681,-81 827,-81 827,-51 681,-51"/>
<text text-anchor="start" x="689" y="-69" font-family="Helvetica,sans-Serif" font-size="10.00">yaclib::detail::AllCombinator</text>
<text text-anchor="middle" x="754" y="-58" font-family="Helvetica,sans-Serif" font-size="10.00">&lt; T, N, IsArray, FutureValue &gt;</text>
</a>
</g>
</g>
<!-- Node2 -->
<g id="node2" class="node">
<title>Node2</title>
<g id="a_node2"><a xlink:href="classyaclib_1_1detail_1_1BaseCore.html" target="_top" xlink:title=" ">
<polygon fill="none" stroke="black" points="510,-126.5 510,-145.5 626,-145.5 626,-126.5 510,-126.5"/>
<text text-anchor="middle" x="568" y="-133.5" font-family="Helvetica,sans-Serif" font-size="10.00">yaclib::detail::BaseCore</text>
</a>
</g>
</g>
<!-- Node2&#45;&gt;Node1 -->
<g id="edge1" class="edge">
<title>Node2&#45;&gt;Node1</title>
<path fill="none" stroke="midnightblue" d="M622.51,-123.77C629.8,-121.72 637.13,-119.45 644,-117 672.14,-106.96 702.85,-92.22 724.48,-81.17"/>
<polygon fill="midnightblue" stroke="midnightblue" points="621.39,-120.45 612.65,-126.43 623.22,-127.2 621.39,-120.45"/>
</g>
<!-- Node3 -->
<g id="node3" class="node">
<title>Node3</title>
<g id="a_node3"><a xlink:href="classyaclib_1_1ITask.html" target="_top" xlink:title="Callable that can be executed in an IExecutor.">
<polygon fill="none" stroke="black" points="332.5,-219.5 332.5,-238.5 403.5,-238.5 403.5,-219.5 332.5,-219.5"/>
<text text-anchor="middle" x="368" y="-226.5" font-family="Helvetica,sans-Serif" font-size="10.00">yaclib::ITask</text>
</a>
</g>
</g>
<!-- Node3&#45;&gt;Node2 -->
<g id="edge2" class="edge">
<title>Node3&#45;&gt;Node2</title>
<path fill="none" stroke="midnightblue" d="M401.93,-215.6C422.76,-206.95 450.15,-195.25 474,-184 500.62,-171.44 530.79,-155.56 549.36,-145.58"/>
<polygon fill="midnightblue" stroke="midnightblue" points="400.47,-212.41 392.57,-219.47 403.15,-218.88 400.47,-212.41"/>
</g>
<!-- Node4 -->
<g id="node4" class="node">
<title>Node4</title>
<g id="a_node4"><a xlink:href="classyaclib_1_1util_1_1IFunc.html" target="_top" xlink:title="Shared callable interface.">
<polygon fill="none" stroke="black" points="123,-272.5 123,-291.5 211,-291.5 211,-272.5 123,-272.5"/>
<text text-anchor="middle" x="167" y="-279.5" font-family="Helvetica,sans-Serif" font-size="10.00">yaclib::util::IFunc</text>
</a>
</g>
</g>
<!-- Node4&#45;&gt;Node3 -->
<g id="edge3" class="edge">
<title>Node4&#45;&gt;Node3</title>
<path fill="none" stroke="midnightblue" d="M213.83,-269.79C249.89,-260.19 299.38,-247.01 332.23,-238.26"/>
<polygon fill="midnightblue" stroke="midnightblue" points="212.8,-266.45 204.04,-272.4 214.6,-273.21 212.8,-266.45"/>
</g>
<!-- Node5 -->
<g id="node5" class="node">
<title>Node5</title>
<g id="a_node5"><a xlink:href="classyaclib_1_1util_1_1IRef.html" target="_top" xlink:title="Reference counting interface.">
<polygon fill="none" stroke="black" points="0,-272.5 0,-291.5 81,-291.5 81,-272.5 0,-272.5"/>
<text text-anchor="middle" x="40.5" y="-279.5" font-family="Helvetica,sans-Serif" font-size="10.00">yaclib::util::IRef</text>
</a>
</g>
</g>
<!-- Node5&#45;&gt;Node4 -->
<g id="edge4" class="edge">
<title>Node5&#45;&gt;Node4</title>
<path fill="none" stroke="midnightblue" d="M91.41,-282C101.79,-282 112.65,-282 122.77,-282"/>
<polygon fill="midnightblue" stroke="midnightblue" points="91.23,-278.5 81.23,-282 91.23,-285.5 91.23,-278.5"/>
</g>
<!-- Node6 -->
<g id="node6" class="node">
<title>Node6</title>
<g id="a_node6"><a xlink:href="classyaclib_1_1util_1_1detail_1_1Node.html" target="_top" xlink:title="Intrusive node class.">
<polygon fill="none" stroke="black" points="124,-183 124,-213 210,-213 210,-183 124,-183"/>
<text text-anchor="start" x="132" y="-201" font-family="Helvetica,sans-Serif" font-size="10.00">yaclib::util::detail</text>
<text text-anchor="middle" x="167" y="-190" font-family="Helvetica,sans-Serif" font-size="10.00">::Node</text>
</a>
</g>
</g>
<!-- Node6&#45;&gt;Node3 -->
<g id="edge5" class="edge">
<title>Node6&#45;&gt;Node3</title>
<path fill="none" stroke="midnightblue" d="M220.36,-206.16C255.78,-211.67 301.56,-218.81 332.47,-223.62"/>
<polygon fill="midnightblue" stroke="midnightblue" points="220.62,-202.66 210.2,-204.57 219.54,-209.57 220.62,-202.66"/>
</g>
<!-- Node6&#45;&gt;Node6 -->
<g id="edge6" class="edge">
<title>Node6&#45;&gt;Node6</title>
<path fill="none" stroke="#9a32cd" stroke-dasharray="5,2" d="M155.27,-223.46C156.73,-228.18 160.64,-231.5 167,-231.5 177.44,-231.5 181.28,-222.56 178.5,-213.16"/>
<polygon fill="#9a32cd" stroke="#9a32cd" points="158.78,-223.23 155.5,-213.16 151.78,-223.08 158.78,-223.23"/>
<text text-anchor="middle" x="167" y="-245.5" font-family="Helvetica,sans-Serif" font-size="10.00"> _next</text>
<text text-anchor="middle" x="167" y="-234.5" font-family="Helvetica,sans-Serif" font-size="10.00">_prev</text>
</g>
<!-- Node7 -->
<g id="node7" class="node">
<title>Node7</title>
<g id="a_node7"><a xlink:href="classyaclib_1_1util_1_1Ptr.html" target="_top" xlink:title=" ">
<polygon fill="none" stroke="black" points="327,-170 327,-200 409,-200 409,-170 327,-170"/>
<text text-anchor="start" x="335" y="-188" font-family="Helvetica,sans-Serif" font-size="10.00">yaclib::util::Ptr&lt;</text>
<text text-anchor="middle" x="368" y="-177" font-family="Helvetica,sans-Serif" font-size="10.00"> IRef &gt;</text>
</a>
</g>
</g>
<!-- Node7&#45;&gt;Node2 -->
<g id="edge7" class="edge">
<title>Node7&#45;&gt;Node2</title>
<path fill="none" stroke="#9a32cd" stroke-dasharray="5,2" d="M418.8,-172.68C452.74,-164.28 497.04,-153.31 528.34,-145.57"/>
<polygon fill="#9a32cd" stroke="#9a32cd" points="417.93,-169.28 409.07,-175.08 419.62,-176.08 417.93,-169.28"/>
<text text-anchor="middle" x="451.5" y="-172" font-family="Helvetica,sans-Serif" font-size="10.00"> _callback</text>
</g>
<!-- Node8 -->
<g id="node8" class="node">
<title>Node8</title>
<g id="a_node8"><a xlink:href="classyaclib_1_1util_1_1Ptr.html" target="_top" xlink:title="A intrusive pointer to objects with an embedded reference count.">
<polygon fill="none" stroke="black" points="118,-140.5 118,-159.5 216,-159.5 216,-140.5 118,-140.5"/>
<text text-anchor="middle" x="167" y="-147.5" font-family="Helvetica,sans-Serif" font-size="10.00">yaclib::util::Ptr&lt; T &gt;</text>
</a>
</g>
</g>
<!-- Node8&#45;&gt;Node7 -->
<g id="edge8" class="edge">
<title>Node8&#45;&gt;Node7</title>
<path fill="none" stroke="orange" stroke-dasharray="5,2" d="M226.41,-160.27C258.75,-165.96 298.13,-172.89 326.97,-177.96"/>
<polygon fill="orange" stroke="orange" points="226.63,-156.76 216.17,-158.47 225.41,-163.65 226.63,-156.76"/>
<text text-anchor="middle" x="270.5" y="-176" font-family="Helvetica,sans-Serif" font-size="10.00"> &lt; IRef &gt;</text>
</g>
<!-- Node9 -->
<g id="node9" class="node">
<title>Node9</title>
<g id="a_node9"><a xlink:href="classyaclib_1_1util_1_1Ptr.html" target="_top" xlink:title=" ">
<polygon fill="none" stroke="black" points="327,-121 327,-151 409,-151 409,-121 327,-121"/>
<text text-anchor="start" x="335" y="-139" font-family="Helvetica,sans-Serif" font-size="10.00">yaclib::util::Ptr&lt;</text>
<text text-anchor="middle" x="368" y="-128" font-family="Helvetica,sans-Serif" font-size="10.00"> yaclib::ITask &gt;</text>
</a>
</g>
</g>
<!-- Node8&#45;&gt;Node9 -->
<g id="edge10" class="edge">
<title>Node8&#45;&gt;Node9</title>
<path fill="none" stroke="orange" stroke-dasharray="5,2" d="M226.41,-145.89C258.75,-143.62 298.13,-140.85 326.97,-138.82"/>
<polygon fill="orange" stroke="orange" points="225.9,-142.42 216.17,-146.61 226.39,-149.4 225.9,-142.42"/>
<text text-anchor="middle" x="270.5" y="-148" font-family="Helvetica,sans-Serif" font-size="10.00"> &lt; yaclib::ITask &gt;</text>
</g>
<!-- Node9&#45;&gt;Node2 -->
<g id="edge9" class="edge">
<title>Node9&#45;&gt;Node2</title>
<path fill="none" stroke="#9a32cd" stroke-dasharray="5,2" d="M419.28,-136C446.85,-136 481.13,-136 509.73,-136"/>
<polygon fill="#9a32cd" stroke="#9a32cd" points="419.07,-132.5 409.07,-136 419.07,-139.5 419.07,-132.5"/>
<text text-anchor="middle" x="451.5" y="-139" font-family="Helvetica,sans-Serif" font-size="10.00"> _caller</text>
</g>
<!-- Node10 -->
<g id="node10" class="node">
<title>Node10</title>
<g id="a_node10"><a xlink:title=" ">
<polygon fill="none" stroke="#bfbfbf" points="325,-82.5 325,-101.5 411,-101.5 411,-82.5 325,-82.5"/>
<text text-anchor="middle" x="368" y="-89.5" font-family="Helvetica,sans-Serif" font-size="10.00">atomic&lt; State &gt;</text>
</a>
</g>
</g>
<!-- Node10&#45;&gt;Node2 -->
<g id="edge11" class="edge">
<title>Node10&#45;&gt;Node2</title>
<path fill="none" stroke="#9a32cd" stroke-dasharray="5,2" d="M421.54,-103.68C453.5,-110.78 493.83,-119.74 523.91,-126.42"/>
<polygon fill="#9a32cd" stroke="#9a32cd" points="422,-100.19 411.48,-101.44 420.48,-107.03 422,-100.19"/>
<text text-anchor="middle" x="451.5" y="-118" font-family="Helvetica,sans-Serif" font-size="10.00"> _state</text>
</g>
<!-- Node11 -->
<g id="node11" class="node">
<title>Node11</title>
<g id="a_node11"><a xlink:title=" ">
<polygon fill="none" stroke="#bfbfbf" points="325,-44.5 325,-63.5 411,-63.5 411,-44.5 325,-44.5"/>
<text text-anchor="middle" x="368" y="-51.5" font-family="Helvetica,sans-Serif" font-size="10.00">Ptr&lt; IExecutor &gt;</text>
</a>
</g>
</g>
<!-- Node11&#45;&gt;Node2 -->
<g id="edge12" class="edge">
<title>Node11&#45;&gt;Node2</title>
<path fill="none" stroke="#9a32cd" stroke-dasharray="5,2" d="M420.89,-65.27C438.93,-70.92 458.51,-79.17 474,-91 485.17,-99.53 480.45,-108.99 492,-117 497.63,-120.91 503.99,-124.01 510.57,-126.48"/>
<polygon fill="#9a32cd" stroke="#9a32cd" points="421.64,-61.84 411.06,-62.39 419.67,-68.56 421.64,-61.84"/>
<text text-anchor="middle" x="451.5" y="-94" font-family="Helvetica,sans-Serif" font-size="10.00"> _executor</text>
</g>
<!-- Node12 -->
<g id="node12" class="node">
<title>Node12</title>
<g id="a_node12"><a xlink:title=" ">
<polygon fill="none" stroke="#bfbfbf" points="492,-0.5 492,-107.5 644,-107.5 644,-0.5 492,-0.5"/>
<text text-anchor="start" x="500" y="-95.5" font-family="Helvetica,sans-Serif" font-size="10.00">AllCombinatorBase&lt;</text>
<text text-anchor="start" x="500" y="-84.5" font-family="Helvetica,sans-Serif" font-size="10.00"> std::conditional_t</text>
<text text-anchor="start" x="500" y="-73.5" font-family="Helvetica,sans-Serif" font-size="10.00">&lt;std::is_void_v&lt;T&gt;, void,</text>
<text text-anchor="start" x="500" y="-62.5" font-family="Helvetica,sans-Serif" font-size="10.00"> std::conditional_t&lt;(std</text>
<text text-anchor="start" x="500" y="-51.5" font-family="Helvetica,sans-Serif" font-size="10.00">::numeric_limits&lt;size_t&gt;</text>
<text text-anchor="start" x="500" y="-40.5" font-family="Helvetica,sans-Serif" font-size="10.00">::max() != std::numeric_limits</text>
<text text-anchor="start" x="500" y="-29.5" font-family="Helvetica,sans-Serif" font-size="10.00">&lt;size_t&gt;::max()) , std::array</text>
<text text-anchor="start" x="500" y="-18.5" font-family="Helvetica,sans-Serif" font-size="10.00">&lt;T, std::numeric_limits&lt;size_t&gt;</text>
<text text-anchor="middle" x="568" y="-7.5" font-family="Helvetica,sans-Serif" font-size="10.00">::max() &gt;, std::vector&lt;T&gt;&gt;&gt; &gt;</text>
</a>
</g>
</g>
<!-- Node12&#45;&gt;Node1 -->
<g id="edge13" class="edge">
<title>Node12&#45;&gt;Node1</title>
<path fill="none" stroke="midnightblue" d="M654.12,-59.55C663.04,-60.13 672.05,-60.72 680.81,-61.29"/>
<polygon fill="midnightblue" stroke="midnightblue" points="654.31,-56.06 644.11,-58.9 653.86,-63.04 654.31,-56.06"/>
</g>
</g>
</svg>
