<?xml version="1.0" encoding="UTF-8" standalone="no"?>
<!DOCTYPE svg PUBLIC "-//W3C//DTD SVG 1.1//EN"
 "http://www.w3.org/Graphics/SVG/1.1/DTD/svg11.dtd">
<!-- Generated by graphviz version 2.44.0 ()
 -->
<!-- Title: yaclib::detail::AnyCombinatorBase&lt; T, PolicyWhenAny::FirstError &gt; Pages: 1 -->
<svg width="267pt" height="106pt"
 viewBox="0.00 0.00 267.00 106.00" xmlns="http://www.w3.org/2000/svg" xmlns:xlink="http://www.w3.org/1999/xlink">
<g id="graph0" class="graph" transform="scale(1 1) rotate(0) translate(4 102)">
<title>yaclib::detail::AnyCombinatorBase&lt; T, PolicyWhenAny::FirstError &gt;</title>
<!-- Node1 -->
<g id="node1" class="node">
<title>Node1</title>
<g id="a_node1"><a xlink:title=" ">
<polygon fill="#bfbfbf" stroke="black" points="36,-0.5 36,-30.5 215,-30.5 215,-0.5 36,-0.5"/>
<text text-anchor="start" x="44" y="-18.5" font-family="Helvetica,sans-Serif" font-size="10.00">yaclib::detail::AnyCombinator</text>
<text text-anchor="middle" x="125.5" y="-7.5" font-family="Helvetica,sans-Serif" font-size="10.00">Base&lt; T, PolicyWhenAny::FirstError &gt;</text>
</a>
</g>
</g>
<!-- Node2 -->
<g id="node2" class="node">
<title>Node2</title>
<g id="a_node2"><a xlink:title=" ">
<polygon fill="none" stroke="#bfbfbf" points="0,-78.5 0,-97.5 67,-97.5 67,-78.5 0,-78.5"/>
<text text-anchor="middle" x="33.5" y="-85.5" font-family="Helvetica,sans-Serif" font-size="10.00">Result&lt; T &gt;</text>
</a>
</g>
</g>
<!-- Node2&#45;&gt;Node1 -->
<g id="edge1" class="edge">
<title>Node2&#45;&gt;Node1</title>
<path fill="none" stroke="#9a32cd" stroke-dasharray="5,2" d="M43.4,-69.41C47.95,-62.43 53.82,-54.72 60.5,-49 69.03,-41.69 79.48,-35.54 89.49,-30.62"/>
<polygon fill="#9a32cd" stroke="#9a32cd" points="40.26,-67.85 38.07,-78.21 46.24,-71.47 40.26,-67.85"/>
<text text-anchor="middle" x="91" y="-52" font-family="Helvetica,sans-Serif" font-size="10.00"> _except_error</text>
</g>
<!-- Node3 -->
<g id="node3" class="node">
<title>Node3</title>
<g id="a_node3"><a xlink:title=" ">
<polygon fill="none" stroke="#bfbfbf" points="85.5,-78.5 85.5,-97.5 165.5,-97.5 165.5,-78.5 85.5,-78.5"/>
<text text-anchor="middle" x="125.5" y="-85.5" font-family="Helvetica,sans-Serif" font-size="10.00">atomic&lt; bool &gt;</text>
</a>
</g>
</g>
<!-- Node3&#45;&gt;Node1 -->
<g id="edge2" class="edge">
<title>Node3&#45;&gt;Node1</title>
<path fill="none" stroke="#9a32cd" stroke-dasharray="5,2" d="M125.5,-68.24C125.5,-56.41 125.5,-41.38 125.5,-30.58"/>
<polygon fill="#9a32cd" stroke="#9a32cd" points="122,-68.36 125.5,-78.36 129,-68.36 122,-68.36"/>
<text text-anchor="middle" x="139.5" y="-52" font-family="Helvetica,sans-Serif" font-size="10.00"> _error</text>
</g>
<!-- Node4 -->
<g id="node4" class="node">
<title>Node4</title>
<g id="a_node4"><a xlink:title=" ">
<polygon fill="none" stroke="#bfbfbf" points="184,-78.5 184,-97.5 259,-97.5 259,-78.5 184,-78.5"/>
<text text-anchor="middle" x="221.5" y="-85.5" font-family="Helvetica,sans-Serif" font-size="10.00">Promise&lt; T &gt;</text>
</a>
</g>
</g>
<!-- Node4&#45;&gt;Node1 -->
<g id="edge3" class="edge">
<title>Node4&#45;&gt;Node1</title>
<path fill="none" stroke="#9a32cd" stroke-dasharray="5,2" d="M201.25,-72.13C184.56,-59.87 161.05,-42.61 144.67,-30.58"/>
<polygon fill="#9a32cd" stroke="#9a32cd" points="199.6,-75.26 209.73,-78.36 203.74,-69.62 199.6,-75.26"/>
<text text-anchor="middle" x="203" y="-52" font-family="Helvetica,sans-Serif" font-size="10.00"> _promise</text>
</g>
</g>
</svg>
