<?xml version="1.0" encoding="UTF-8" standalone="no"?>
<!DOCTYPE svg PUBLIC "-//W3C//DTD SVG 1.1//EN"
 "http://www.w3.org/Graphics/SVG/1.1/DTD/svg11.dtd">
<!-- Generated by graphviz version 2.44.0 ()
 -->
<!-- Title: yaclib::detail::UniqueTask&lt; Functor &gt; Pages: 1 -->
<svg width="335pt" height="321pt"
 viewBox="0.00 0.00 335.00 321.00" xmlns="http://www.w3.org/2000/svg" xmlns:xlink="http://www.w3.org/1999/xlink">
<g id="graph0" class="graph" transform="scale(1 1) rotate(0) translate(4 317)">
<title>yaclib::detail::UniqueTask&lt; Functor &gt;</title>
<!-- Node1 -->
<g id="node1" class="node">
<title>Node1</title>
<g id="a_node1"><a xlink:title=" ">
<polygon fill="#bfbfbf" stroke="black" points="152,-0.5 152,-30.5 278,-30.5 278,-0.5 152,-0.5"/>
<text text-anchor="start" x="160" y="-18.5" font-family="Helvetica,sans-Serif" font-size="10.00">yaclib::detail::UniqueTask</text>
<text text-anchor="middle" x="215" y="-7.5" font-family="Helvetica,sans-Serif" font-size="10.00">&lt; Functor &gt;</text>
</a>
</g>
</g>
<!-- Node2 -->
<g id="node2" class="node">
<title>Node2</title>
<g id="a_node2"><a xlink:href="classyaclib_1_1util_1_1detail_1_1CallImpl.html" target="_top" xlink:title=" ">
<polygon fill="none" stroke="black" points="147,-68.5 147,-98.5 283,-98.5 283,-68.5 147,-68.5"/>
<text text-anchor="start" x="155" y="-86.5" font-family="Helvetica,sans-Serif" font-size="10.00">yaclib::util::detail</text>
<text text-anchor="middle" x="215" y="-75.5" font-family="Helvetica,sans-Serif" font-size="10.00">::CallImpl&lt; ITask, Functor &gt;</text>
</a>
</g>
</g>
<!-- Node2&#45;&gt;Node1 -->
<g id="edge1" class="edge">
<title>Node2&#45;&gt;Node1</title>
<path fill="none" stroke="midnightblue" d="M215,-58.03C215,-48.86 215,-38.74 215,-30.79"/>
<polygon fill="midnightblue" stroke="midnightblue" points="211.5,-58.18 215,-68.18 218.5,-58.18 211.5,-58.18"/>
</g>
<!-- Node3 -->
<g id="node3" class="node">
<title>Node3</title>
<g id="a_node3"><a xlink:href="classyaclib_1_1ITask.html" target="_top" xlink:title="Callable that can be executed in an IExecutor.">
<polygon fill="none" stroke="black" points="113.5,-157.5 113.5,-176.5 184.5,-176.5 184.5,-157.5 113.5,-157.5"/>
<text text-anchor="middle" x="149" y="-164.5" font-family="Helvetica,sans-Serif" font-size="10.00">yaclib::ITask</text>
</a>
</g>
</g>
<!-- Node3&#45;&gt;Node2 -->
<g id="edge2" class="edge">
<title>Node3&#45;&gt;Node2</title>
<path fill="none" stroke="midnightblue" d="M162.47,-149.37C174.57,-134.42 192.16,-112.71 203.58,-98.6"/>
<polygon fill="midnightblue" stroke="midnightblue" points="159.64,-147.3 156.06,-157.28 165.08,-151.71 159.64,-147.3"/>
</g>
<!-- Node4 -->
<g id="node4" class="node">
<title>Node4</title>
<g id="a_node4"><a xlink:href="classyaclib_1_1util_1_1IFunc.html" target="_top" xlink:title="Shared callable interface.">
<polygon fill="none" stroke="black" points="0,-231 0,-250 88,-250 88,-231 0,-231"/>
<text text-anchor="middle" x="44" y="-238" font-family="Helvetica,sans-Serif" font-size="10.00">yaclib::util::IFunc</text>
</a>
</g>
</g>
<!-- Node4&#45;&gt;Node3 -->
<g id="edge3" class="edge">
<title>Node4&#45;&gt;Node3</title>
<path fill="none" stroke="midnightblue" d="M65.28,-225.01C86.61,-210.48 118.74,-188.61 136.35,-176.62"/>
<polygon fill="midnightblue" stroke="midnightblue" points="63.17,-222.21 56.88,-230.73 67.11,-228 63.17,-222.21"/>
</g>
<!-- Node5 -->
<g id="node5" class="node">
<title>Node5</title>
<g id="a_node5"><a xlink:href="classyaclib_1_1util_1_1IRef.html" target="_top" xlink:title="Reference counting interface.">
<polygon fill="none" stroke="black" points="3.5,-293.5 3.5,-312.5 84.5,-312.5 84.5,-293.5 3.5,-293.5"/>
<text text-anchor="middle" x="44" y="-300.5" font-family="Helvetica,sans-Serif" font-size="10.00">yaclib::util::IRef</text>
</a>
</g>
</g>
<!-- Node5&#45;&gt;Node4 -->
<g id="edge4" class="edge">
<title>Node5&#45;&gt;Node4</title>
<path fill="none" stroke="midnightblue" d="M44,-283C44,-272 44,-258.68 44,-250.15"/>
<polygon fill="midnightblue" stroke="midnightblue" points="40.5,-283.33 44,-293.33 47.5,-283.33 40.5,-283.33"/>
</g>
<!-- Node6 -->
<g id="node6" class="node">
<title>Node6</title>
<g id="a_node6"><a xlink:href="classyaclib_1_1util_1_1detail_1_1Node.html" target="_top" xlink:title="Intrusive node class.">
<polygon fill="none" stroke="black" points="106,-225.5 106,-255.5 192,-255.5 192,-225.5 106,-225.5"/>
<text text-anchor="start" x="114" y="-243.5" font-family="Helvetica,sans-Serif" font-size="10.00">yaclib::util::detail</text>
<text text-anchor="middle" x="149" y="-232.5" font-family="Helvetica,sans-Serif" font-size="10.00">::Node</text>
</a>
</g>
</g>
<!-- Node6&#45;&gt;Node3 -->
<g id="edge5" class="edge">
<title>Node6&#45;&gt;Node3</title>
<path fill="none" stroke="midnightblue" d="M149,-215.36C149,-202.01 149,-186.25 149,-176.7"/>
<polygon fill="midnightblue" stroke="midnightblue" points="145.5,-215.37 149,-225.37 152.5,-215.37 145.5,-215.37"/>
</g>
<!-- Node6&#45;&gt;Node6 -->
<g id="edge6" class="edge">
<title>Node6&#45;&gt;Node6</title>
<path fill="none" stroke="#9a32cd" stroke-dasharray="5,2" d="M202.25,-245.54C207.01,-244.48 210,-242.8 210,-240.5 210,-236.81 202.35,-234.73 192.04,-234.24"/>
<polygon fill="#9a32cd" stroke="#9a32cd" points="201.55,-242.1 192.04,-246.76 202.38,-249.05 201.55,-242.1"/>
<text text-anchor="middle" x="223" y="-243.5" font-family="Helvetica,sans-Serif" font-size="10.00"> _next</text>
<text text-anchor="middle" x="223" y="-232.5" font-family="Helvetica,sans-Serif" font-size="10.00">_prev</text>
</g>
<!-- Node7 -->
<g id="node7" class="node">
<title>Node7</title>
<g id="a_node7"><a xlink:href="classyaclib_1_1util_1_1detail_1_1CallImpl.html" target="_top" xlink:title=" ">
<polygon fill="none" stroke="black" points="217,-146.5 217,-187.5 323,-187.5 323,-146.5 217,-146.5"/>
<text text-anchor="start" x="225" y="-175.5" font-family="Helvetica,sans-Serif" font-size="10.00">yaclib::util::detail</text>
<text text-anchor="start" x="225" y="-164.5" font-family="Helvetica,sans-Serif" font-size="10.00">::CallImpl&lt; Interface,</text>
<text text-anchor="middle" x="270" y="-153.5" font-family="Helvetica,sans-Serif" font-size="10.00"> Functor &gt;</text>
</a>
</g>
</g>
<!-- Node7&#45;&gt;Node2 -->
<g id="edge7" class="edge">
<title>Node7&#45;&gt;Node2</title>
<path fill="none" stroke="orange" stroke-dasharray="5,2" d="M251.06,-137.93C242.13,-124.7 231.86,-109.48 224.57,-98.68"/>
<polygon fill="orange" stroke="orange" points="248.19,-139.94 256.69,-146.27 253.99,-136.02 248.19,-139.94"/>
<text text-anchor="middle" x="286" y="-120" font-family="Helvetica,sans-Serif" font-size="10.00"> &lt; ITask, Functor &gt;</text>
</g>
<!-- Node8 -->
<g id="node8" class="node">
<title>Node8</title>
<g id="a_node8"><a xlink:href="classInterface.html" target="_top" xlink:title=" ">
<polygon fill="none" stroke="black" points="254.5,-231 254.5,-250 309.5,-250 309.5,-231 254.5,-231"/>
<text text-anchor="middle" x="282" y="-238" font-family="Helvetica,sans-Serif" font-size="10.00">Interface</text>
</a>
</g>
</g>
<!-- Node8&#45;&gt;Node7 -->
<g id="edge8" class="edge">
<title>Node8&#45;&gt;Node7</title>
<path fill="none" stroke="midnightblue" d="M278.87,-220.84C277.15,-210.63 275.03,-198 273.3,-187.64"/>
<polygon fill="midnightblue" stroke="midnightblue" points="275.42,-221.45 280.53,-230.73 282.33,-220.29 275.42,-221.45"/>
</g>
</g>
</svg>
