<?xml version="1.0" encoding="UTF-8" standalone="no"?>
<!DOCTYPE svg PUBLIC "-//W3C//DTD SVG 1.1//EN"
 "http://www.w3.org/Graphics/SVG/1.1/DTD/svg11.dtd">
<!-- Generated by graphviz version 2.44.0 ()
 -->
<!-- Title: yaclib::util::IRef Pages: 1 -->
<svg width="1140pt" height="302pt"
 viewBox="0.00 0.00 1140.00 301.50" xmlns="http://www.w3.org/2000/svg" xmlns:xlink="http://www.w3.org/1999/xlink">
<g id="graph0" class="graph" transform="scale(1 1) rotate(0) translate(4 297.5)">
<title>yaclib::util::IRef</title>
<!-- Node1 -->
<g id="node1" class="node">
<title>Node1</title>
<g id="a_node1"><a xlink:title="Reference counting interface.">
<polygon fill="#bfbfbf" stroke="black" points="0,-198 0,-217 81,-217 81,-198 0,-198"/>
<text text-anchor="middle" x="40.5" y="-205" font-family="Helvetica,sans-Serif" font-size="10.00">yaclib::util::IRef</text>
</a>
</g>
</g>
<!-- Node2 -->
<g id="node2" class="node">
<title>Node2</title>
<g id="a_node2"><a xlink:href="classyaclib_1_1IExecutor.html" target="_top" xlink:title=" ">
<polygon fill="none" stroke="black" points="131.5,-249 131.5,-268 217.5,-268 217.5,-249 131.5,-249"/>
<text text-anchor="middle" x="174.5" y="-256" font-family="Helvetica,sans-Serif" font-size="10.00">yaclib::IExecutor</text>
</a>
</g>
</g>
<!-- Node1&#45;&gt;Node2 -->
<g id="edge1" class="edge">
<title>Node1&#45;&gt;Node2</title>
<path fill="none" stroke="midnightblue" d="M72.93,-221.2C86.68,-227.05 103.06,-233.82 118,-239.5 126.57,-242.75 135.97,-246.07 144.56,-249"/>
<polygon fill="midnightblue" stroke="midnightblue" points="74.01,-217.85 63.44,-217.13 71.25,-224.29 74.01,-217.85"/>
</g>
<!-- Node5 -->
<g id="node5" class="node">
<title>Node5</title>
<g id="a_node5"><a xlink:href="classyaclib_1_1IThreadFactory.html" target="_top" xlink:title=" ">
<polygon fill="none" stroke="black" points="119,-211 119,-230 230,-230 230,-211 119,-211"/>
<text text-anchor="middle" x="174.5" y="-218" font-family="Helvetica,sans-Serif" font-size="10.00">yaclib::IThreadFactory</text>
</a>
</g>
</g>
<!-- Node1&#45;&gt;Node5 -->
<g id="edge4" class="edge">
<title>Node1&#45;&gt;Node5</title>
<path fill="none" stroke="midnightblue" d="M91.09,-212.38C100.13,-213.27 109.61,-214.21 118.79,-215.11"/>
<polygon fill="midnightblue" stroke="midnightblue" points="91.4,-208.9 81.1,-211.4 90.71,-215.86 91.4,-208.9"/>
</g>
<!-- Node6 -->
<g id="node6" class="node">
<title>Node6</title>
<g id="a_node6"><a xlink:href="classyaclib_1_1detail_1_1WaitCore.html" target="_top" xlink:title=" ">
<polygon fill="none" stroke="black" points="118,-173 118,-192 231,-192 231,-173 118,-173"/>
<text text-anchor="middle" x="174.5" y="-180" font-family="Helvetica,sans-Serif" font-size="10.00">yaclib::detail::WaitCore</text>
</a>
</g>
</g>
<!-- Node1&#45;&gt;Node6 -->
<g id="edge5" class="edge">
<title>Node1&#45;&gt;Node6</title>
<path fill="none" stroke="midnightblue" d="M90.96,-198.13C101.48,-196.14 112.59,-194.04 123.14,-192.04"/>
<polygon fill="midnightblue" stroke="midnightblue" points="90.28,-194.7 81.1,-200 91.58,-201.58 90.28,-194.7"/>
</g>
<!-- Node8 -->
<g id="node8" class="node">
<title>Node8</title>
<g id="a_node8"><a xlink:href="classyaclib_1_1util_1_1IFunc.html" target="_top" xlink:title="Shared callable interface.">
<polygon fill="none" stroke="black" points="130.5,-132 130.5,-151 218.5,-151 218.5,-132 130.5,-132"/>
<text text-anchor="middle" x="174.5" y="-139" font-family="Helvetica,sans-Serif" font-size="10.00">yaclib::util::IFunc</text>
</a>
</g>
</g>
<!-- Node1&#45;&gt;Node8 -->
<g id="edge7" class="edge">
<title>Node1&#45;&gt;Node8</title>
<path fill="none" stroke="midnightblue" d="M65.25,-192.65C80.11,-183.66 99.83,-172.27 118,-163.5 127.33,-158.99 137.84,-154.65 147.19,-151.03"/>
<polygon fill="midnightblue" stroke="midnightblue" points="63.38,-189.69 56.68,-197.9 67.03,-195.66 63.38,-189.69"/>
</g>
<!-- Node3 -->
<g id="node3" class="node">
<title>Node3</title>
<g id="a_node3"><a xlink:href="classyaclib_1_1IThreadPool.html" target="_top" xlink:title="Interface for thread&#45;pool&#45;like executors.">
<polygon fill="none" stroke="black" points="296.5,-274 296.5,-293 394.5,-293 394.5,-274 296.5,-274"/>
<text text-anchor="middle" x="345.5" y="-281" font-family="Helvetica,sans-Serif" font-size="10.00">yaclib::IThreadPool</text>
</a>
</g>
</g>
<!-- Node2&#45;&gt;Node3 -->
<g id="edge2" class="edge">
<title>Node2&#45;&gt;Node3</title>
<path fill="none" stroke="midnightblue" d="M227.81,-266.24C249.65,-269.47 274.87,-273.2 296.26,-276.36"/>
<polygon fill="midnightblue" stroke="midnightblue" points="228.11,-262.75 217.71,-264.74 227.09,-269.67 228.11,-262.75"/>
</g>
<!-- Node4 -->
<g id="node4" class="node">
<title>Node4</title>
<g id="a_node4"><a xlink:href="classyaclib_1_1Inline.html" target="_top" xlink:title=" ">
<polygon fill="none" stroke="black" points="311,-236 311,-255 380,-255 380,-236 311,-236"/>
<text text-anchor="middle" x="345.5" y="-243" font-family="Helvetica,sans-Serif" font-size="10.00">yaclib::Inline</text>
</a>
</g>
</g>
<!-- Node2&#45;&gt;Node4 -->
<g id="edge3" class="edge">
<title>Node2&#45;&gt;Node4</title>
<path fill="none" stroke="midnightblue" d="M227.79,-254.48C254.82,-252.4 287.02,-249.92 310.75,-248.1"/>
<polygon fill="midnightblue" stroke="midnightblue" points="227.41,-251 217.71,-255.25 227.95,-257.98 227.41,-251"/>
</g>
<!-- Node7 -->
<g id="node7" class="node">
<title>Node7</title>
<g id="a_node7"><a xlink:href="classyaclib_1_1util_1_1Counter.html" target="_top" xlink:title=" ">
<polygon fill="none" stroke="black" points="268,-163 268,-204 423,-204 423,-163 268,-163"/>
<text text-anchor="start" x="276" y="-192" font-family="Helvetica,sans-Serif" font-size="10.00">yaclib::util::Counter</text>
<text text-anchor="start" x="276" y="-181" font-family="Helvetica,sans-Serif" font-size="10.00">&lt; yaclib::detail::WaitCore,</text>
<text text-anchor="middle" x="345.5" y="-170" font-family="Helvetica,sans-Serif" font-size="10.00"> yaclib::detail::WaitCoreDeleter &gt;</text>
</a>
</g>
</g>
<!-- Node6&#45;&gt;Node7 -->
<g id="edge6" class="edge">
<title>Node6&#45;&gt;Node7</title>
<path fill="none" stroke="midnightblue" d="M241.38,-182.89C250.09,-182.94 259.07,-182.99 267.94,-183.05"/>
<polygon fill="midnightblue" stroke="midnightblue" points="241.33,-179.39 231.31,-182.83 241.28,-186.39 241.33,-179.39"/>
</g>
<!-- Node9 -->
<g id="node9" class="node">
<title>Node9</title>
<g id="a_node9"><a xlink:href="classyaclib_1_1ITask.html" target="_top" xlink:title="Callable that can be executed in an IExecutor.">
<polygon fill="none" stroke="black" points="310,-125 310,-144 381,-144 381,-125 310,-125"/>
<text text-anchor="middle" x="345.5" y="-132" font-family="Helvetica,sans-Serif" font-size="10.00">yaclib::ITask</text>
</a>
</g>
</g>
<!-- Node8&#45;&gt;Node9 -->
<g id="edge8" class="edge">
<title>Node8&#45;&gt;Node9</title>
<path fill="none" stroke="midnightblue" d="M228.83,-139.29C255.26,-138.2 286.42,-136.91 309.73,-135.94"/>
<polygon fill="midnightblue" stroke="midnightblue" points="228.43,-135.8 218.58,-139.72 228.72,-142.8 228.43,-135.8"/>
</g>
<!-- Node10 -->
<g id="node10" class="node">
<title>Node10</title>
<g id="a_node10"><a xlink:href="classyaclib_1_1util_1_1detail_1_1CallImpl.html" target="_top" xlink:title=" ">
<polygon fill="none" stroke="black" points="460,-164.5 460,-194.5 596,-194.5 596,-164.5 460,-164.5"/>
<text text-anchor="start" x="468" y="-182.5" font-family="Helvetica,sans-Serif" font-size="10.00">yaclib::util::detail</text>
<text text-anchor="middle" x="528" y="-171.5" font-family="Helvetica,sans-Serif" font-size="10.00">::CallImpl&lt; ITask, Functor &gt;</text>
</a>
</g>
</g>
<!-- Node9&#45;&gt;Node10 -->
<g id="edge9" class="edge">
<title>Node9&#45;&gt;Node10</title>
<path fill="none" stroke="midnightblue" d="M390.98,-145.53C401.48,-148.14 412.64,-150.92 423,-153.5 437.27,-157.05 452.63,-160.89 467.06,-164.5"/>
<polygon fill="midnightblue" stroke="midnightblue" points="391.71,-142.11 381.16,-143.1 390.02,-148.9 391.71,-142.11"/>
</g>
<!-- Node12 -->
<g id="node12" class="node">
<title>Node12</title>
<g id="a_node12"><a xlink:href="classyaclib_1_1detail_1_1BaseCore.html" target="_top" xlink:title=" ">
<polygon fill="none" stroke="black" points="470,-104 470,-123 586,-123 586,-104 470,-104"/>
<text text-anchor="middle" x="528" y="-111" font-family="Helvetica,sans-Serif" font-size="10.00">yaclib::detail::BaseCore</text>
</a>
</g>
</g>
<!-- Node9&#45;&gt;Node12 -->
<g id="edge11" class="edge">
<title>Node9&#45;&gt;Node12</title>
<path fill="none" stroke="midnightblue" d="M391.44,-129.27C415.19,-126.51 444.59,-123.09 469.94,-120.14"/>
<polygon fill="midnightblue" stroke="midnightblue" points="390.83,-125.82 381.3,-130.45 391.64,-132.77 390.83,-125.82"/>
</g>
<!-- Node11 -->
<g id="node11" class="node">
<title>Node11</title>
<g id="a_node11"><a xlink:href="classyaclib_1_1detail_1_1UniqueTask.html" target="_top" xlink:title=" ">
<polygon fill="none" stroke="black" points="643,-186.5 643,-216.5 769,-216.5 769,-186.5 643,-186.5"/>
<text text-anchor="start" x="651" y="-204.5" font-family="Helvetica,sans-Serif" font-size="10.00">yaclib::detail::UniqueTask</text>
<text text-anchor="middle" x="706" y="-193.5" font-family="Helvetica,sans-Serif" font-size="10.00">&lt; Functor &gt;</text>
</a>
</g>
</g>
<!-- Node10&#45;&gt;Node11 -->
<g id="edge10" class="edge">
<title>Node10&#45;&gt;Node11</title>
<path fill="none" stroke="midnightblue" d="M606.22,-189.15C618.45,-190.68 630.95,-192.24 642.78,-193.72"/>
<polygon fill="midnightblue" stroke="midnightblue" points="606.4,-185.65 596.04,-187.88 605.53,-192.59 606.4,-185.65"/>
</g>
<!-- Node13 -->
<g id="node13" class="node">
<title>Node13</title>
<g id="a_node13"><a xlink:href="classyaclib_1_1detail_1_1ResultCore.html" target="_top" xlink:title=" ">
<polygon fill="none" stroke="black" points="849,-71.5 849,-101.5 971,-101.5 971,-71.5 849,-71.5"/>
<text text-anchor="start" x="857" y="-89.5" font-family="Helvetica,sans-Serif" font-size="10.00">yaclib::detail::ResultCore</text>
<text text-anchor="middle" x="910" y="-78.5" font-family="Helvetica,sans-Serif" font-size="10.00">&lt; Ret &gt;</text>
</a>
</g>
</g>
<!-- Node12&#45;&gt;Node13 -->
<g id="edge12" class="edge">
<title>Node12&#45;&gt;Node13</title>
<path fill="none" stroke="midnightblue" d="M570.3,-125.8C589.22,-130.82 612.05,-136.02 633,-138.5 697.44,-146.14 715.28,-150.77 779,-138.5 815.52,-131.47 854.82,-114.27 880.54,-101.56"/>
<polygon fill="midnightblue" stroke="midnightblue" points="571.08,-122.38 560.51,-123.13 569.24,-129.14 571.08,-122.38"/>
</g>
<!-- Node15 -->
<g id="node15" class="node">
<title>Node15</title>
<g id="a_node15"><a xlink:href="classyaclib_1_1detail_1_1AllCombinator.html" target="_top" xlink:title=" ">
<polygon fill="none" stroke="black" points="633,-98.5 633,-128.5 779,-128.5 779,-98.5 633,-98.5"/>
<text text-anchor="start" x="641" y="-116.5" font-family="Helvetica,sans-Serif" font-size="10.00">yaclib::detail::AllCombinator</text>
<text text-anchor="middle" x="706" y="-105.5" font-family="Helvetica,sans-Serif" font-size="10.00">&lt; T, N, IsArray, FutureValue &gt;</text>
</a>
</g>
</g>
<!-- Node12&#45;&gt;Node15 -->
<g id="edge14" class="edge">
<title>Node12&#45;&gt;Node15</title>
<path fill="none" stroke="midnightblue" d="M596.42,-113.5C608.3,-113.5 620.71,-113.5 632.72,-113.5"/>
<polygon fill="midnightblue" stroke="midnightblue" points="596.14,-110 586.14,-113.5 596.14,-117 596.14,-110"/>
</g>
<!-- Node16 -->
<g id="node16" class="node">
<title>Node16</title>
<g id="a_node16"><a xlink:href="classyaclib_1_1detail_1_1AnyCombinator.html" target="_top" xlink:title=" ">
<polygon fill="none" stroke="black" points="636,-49.5 636,-79.5 776,-79.5 776,-49.5 636,-49.5"/>
<text text-anchor="start" x="644" y="-67.5" font-family="Helvetica,sans-Serif" font-size="10.00">yaclib::detail::AnyCombinator</text>
<text text-anchor="middle" x="706" y="-56.5" font-family="Helvetica,sans-Serif" font-size="10.00">&lt; T, P &gt;</text>
</a>
</g>
</g>
<!-- Node12&#45;&gt;Node16 -->
<g id="edge15" class="edge">
<title>Node12&#45;&gt;Node16</title>
<path fill="none" stroke="midnightblue" d="M573.1,-101.22C596.72,-94.65 626.01,-86.49 650.99,-79.54"/>
<polygon fill="midnightblue" stroke="midnightblue" points="572.05,-97.88 563.35,-103.94 573.92,-104.63 572.05,-97.88"/>
</g>
<!-- Node17 -->
<g id="node17" class="node">
<title>Node17</title>
<g id="a_node17"><a xlink:href="classyaclib_1_1detail_1_1ResultCore.html" target="_top" xlink:title=" ">
<polygon fill="none" stroke="black" points="645,-0.5 645,-30.5 767,-30.5 767,-0.5 645,-0.5"/>
<text text-anchor="start" x="653" y="-18.5" font-family="Helvetica,sans-Serif" font-size="10.00">yaclib::detail::ResultCore</text>
<text text-anchor="middle" x="706" y="-7.5" font-family="Helvetica,sans-Serif" font-size="10.00">&lt; Value &gt;</text>
</a>
</g>
</g>
<!-- Node12&#45;&gt;Node17 -->
<g id="edge16" class="edge">
<title>Node12&#45;&gt;Node17</title>
<path fill="none" stroke="midnightblue" d="M547.87,-97.43C567.9,-81.04 601.02,-55.75 633,-39.5 639.46,-36.22 646.47,-33.24 653.49,-30.58"/>
<polygon fill="midnightblue" stroke="midnightblue" points="545.58,-94.78 540.13,-103.87 550.06,-100.17 545.58,-94.78"/>
</g>
<!-- Node14 -->
<g id="node14" class="node">
<title>Node14</title>
<g id="a_node14"><a xlink:href="classyaclib_1_1detail_1_1Core.html" target="_top" xlink:title=" ">
<polygon fill="none" stroke="black" points="1008,-71.5 1008,-101.5 1132,-101.5 1132,-71.5 1008,-71.5"/>
<text text-anchor="start" x="1016" y="-89.5" font-family="Helvetica,sans-Serif" font-size="10.00">yaclib::detail::Core</text>
<text text-anchor="middle" x="1070" y="-78.5" font-family="Helvetica,sans-Serif" font-size="10.00">&lt; Ret, InvokeType, Arg &gt;</text>
</a>
</g>
</g>
<!-- Node13&#45;&gt;Node14 -->
<g id="edge13" class="edge">
<title>Node13&#45;&gt;Node14</title>
<path fill="none" stroke="midnightblue" d="M981.46,-86.5C990.29,-86.5 999.26,-86.5 1007.94,-86.5"/>
<polygon fill="midnightblue" stroke="midnightblue" points="981.18,-83 971.18,-86.5 981.18,-90 981.18,-83"/>
</g>
<!-- Node17&#45;&gt;Node13 -->
<g id="edge17" class="edge">
<title>Node17&#45;&gt;Node13</title>
<path fill="none" stroke="orange" stroke-dasharray="5,2" d="M762.25,-33.76C767.92,-35.68 773.58,-37.62 779,-39.5 808.92,-49.9 842.55,-62.07 868.11,-71.42"/>
<polygon fill="orange" stroke="orange" points="763.36,-30.44 752.77,-30.56 761.12,-37.07 763.36,-30.44"/>
<text text-anchor="middle" x="814" y="-60.5" font-family="Helvetica,sans-Serif" font-size="10.00"> &lt; Ret &gt;</text>
</g>
</g>
</svg>
