<?xml version="1.0" encoding="UTF-8" standalone="no"?>
<!DOCTYPE svg PUBLIC "-//W3C//DTD SVG 1.1//EN"
 "http://www.w3.org/Graphics/SVG/1.1/DTD/svg11.dtd">
<!-- Generated by graphviz version 2.44.0 ()
 -->
<!-- Title: include/yaclib/util/counters.hpp Pages: 1 -->
<svg width="1450pt" height="843pt"
 viewBox="0.00 0.00 1450.00 843.00" xmlns="http://www.w3.org/2000/svg" xmlns:xlink="http://www.w3.org/1999/xlink">
<g id="graph0" class="graph" transform="scale(1 1) rotate(0) translate(4 839)">
<title>include/yaclib/util/counters.hpp</title>
<!-- Node1 -->
<g id="node1" class="node">
<title>Node1</title>
<g id="a_node1"><a xlink:title=" ">
<polygon fill="#bfbfbf" stroke="black" points="345.5,-804.5 345.5,-834.5 436.5,-834.5 436.5,-804.5 345.5,-804.5"/>
<text text-anchor="start" x="353.5" y="-822.5" font-family="Helvetica,sans-Serif" font-size="10.00">include/yaclib/util</text>
<text text-anchor="middle" x="391" y="-811.5" font-family="Helvetica,sans-Serif" font-size="10.00">/counters.hpp</text>
</a>
</g>
</g>
<!-- Node2 -->
<g id="node2" class="node">
<title>Node2</title>
<g id="a_node2"><a xlink:href="wait__group_8hpp.html" target="_top" xlink:title=" ">
<polygon fill="none" stroke="black" points="261,-737.5 261,-767.5 357,-767.5 357,-737.5 261,-737.5"/>
<text text-anchor="start" x="269" y="-755.5" font-family="Helvetica,sans-Serif" font-size="10.00">include/yaclib/algo</text>
<text text-anchor="middle" x="309" y="-744.5" font-family="Helvetica,sans-Serif" font-size="10.00">/wait_group.hpp</text>
</a>
</g>
</g>
<!-- Node1&#45;&gt;Node2 -->
<g id="edge1" class="edge">
<title>Node1&#45;&gt;Node2</title>
<path fill="none" stroke="midnightblue" d="M365.35,-798.17C352.81,-788.23 338.03,-776.51 326.76,-767.58"/>
<polygon fill="midnightblue" stroke="midnightblue" points="363.2,-800.93 373.21,-804.4 367.54,-795.44 363.2,-800.93"/>
</g>
<!-- Node4 -->
<g id="node4" class="node">
<title>Node4</title>
<g id="a_node4"><a xlink:href="wait__impl_8hpp.html" target="_top" xlink:title=" ">
<polygon fill="none" stroke="black" points="287.5,-402.5 287.5,-432.5 392.5,-432.5 392.5,-402.5 287.5,-402.5"/>
<text text-anchor="start" x="295.5" y="-420.5" font-family="Helvetica,sans-Serif" font-size="10.00">include/yaclib/algo</text>
<text text-anchor="middle" x="340" y="-409.5" font-family="Helvetica,sans-Serif" font-size="10.00">/detail/wait_impl.hpp</text>
</a>
</g>
</g>
<!-- Node1&#45;&gt;Node4 -->
<g id="edge3" class="edge">
<title>Node1&#45;&gt;Node4</title>
<path fill="none" stroke="midnightblue" d="M391,-793.99C391,-767.49 391,-724 391,-686.5 391,-686.5 391,-686.5 391,-550.5 391,-505.05 364.37,-456.35 349.59,-432.84"/>
<polygon fill="midnightblue" stroke="midnightblue" points="387.5,-794.24 391,-804.24 394.5,-794.24 387.5,-794.24"/>
</g>
<!-- Node20 -->
<g id="node20" class="node">
<title>Node20</title>
<g id="a_node20"><a xlink:href="func_8hpp.html" target="_top" xlink:title=" ">
<polygon fill="none" stroke="black" points="594.5,-737.5 594.5,-767.5 685.5,-767.5 685.5,-737.5 594.5,-737.5"/>
<text text-anchor="start" x="602.5" y="-755.5" font-family="Helvetica,sans-Serif" font-size="10.00">include/yaclib/util</text>
<text text-anchor="middle" x="640" y="-744.5" font-family="Helvetica,sans-Serif" font-size="10.00">/func.hpp</text>
</a>
</g>
</g>
<!-- Node1&#45;&gt;Node20 -->
<g id="edge25" class="edge">
<title>Node1&#45;&gt;Node20</title>
<path fill="none" stroke="midnightblue" d="M446.44,-804.03C490.89,-792.42 552.52,-776.34 594.2,-765.46"/>
<polygon fill="midnightblue" stroke="midnightblue" points="445.46,-800.67 436.67,-806.58 447.23,-807.44 445.46,-800.67"/>
</g>
<!-- Node3 -->
<g id="node3" class="node">
<title>Node3</title>
<g id="a_node3"><a xlink:href="wait__group_8cpp.html" target="_top" xlink:title=" ">
<polygon fill="none" stroke="black" points="243.5,-676 243.5,-695 362.5,-695 362.5,-676 243.5,-676"/>
<text text-anchor="middle" x="303" y="-683" font-family="Helvetica,sans-Serif" font-size="10.00">src/algo/wait_group.cpp</text>
</a>
</g>
</g>
<!-- Node2&#45;&gt;Node3 -->
<g id="edge2" class="edge">
<title>Node2&#45;&gt;Node3</title>
<path fill="none" stroke="midnightblue" d="M306.76,-727.25C305.72,-716.02 304.56,-703.38 303.8,-695.19"/>
<polygon fill="midnightblue" stroke="midnightblue" points="303.29,-727.76 307.7,-737.4 310.26,-727.12 303.29,-727.76"/>
</g>
<!-- Node5 -->
<g id="node5" class="node">
<title>Node5</title>
<g id="a_node5"><a xlink:href="wait_8hpp.html" target="_top" xlink:title=" ">
<polygon fill="none" stroke="black" points="398,-335.5 398,-365.5 494,-365.5 494,-335.5 398,-335.5"/>
<text text-anchor="start" x="406" y="-353.5" font-family="Helvetica,sans-Serif" font-size="10.00">include/yaclib/algo</text>
<text text-anchor="middle" x="446" y="-342.5" font-family="Helvetica,sans-Serif" font-size="10.00">/wait.hpp</text>
</a>
</g>
</g>
<!-- Node4&#45;&gt;Node5 -->
<g id="edge4" class="edge">
<title>Node4&#45;&gt;Node5</title>
<path fill="none" stroke="midnightblue" d="M371.78,-397.02C388.27,-386.9 408.05,-374.77 423.04,-365.58"/>
<polygon fill="midnightblue" stroke="midnightblue" points="369.7,-394.18 363,-402.4 373.35,-400.15 369.7,-394.18"/>
</g>
<!-- Node17 -->
<g id="node17" class="node">
<title>Node17</title>
<g id="a_node17"><a xlink:href="wait__for_8hpp.html" target="_top" xlink:title=" ">
<polygon fill="none" stroke="black" points="0,-335.5 0,-365.5 96,-365.5 96,-335.5 0,-335.5"/>
<text text-anchor="start" x="8" y="-353.5" font-family="Helvetica,sans-Serif" font-size="10.00">include/yaclib/algo</text>
<text text-anchor="middle" x="48" y="-342.5" font-family="Helvetica,sans-Serif" font-size="10.00">/wait_for.hpp</text>
</a>
</g>
</g>
<!-- Node4&#45;&gt;Node17 -->
<g id="edge22" class="edge">
<title>Node4&#45;&gt;Node17</title>
<path fill="none" stroke="midnightblue" d="M277.32,-403.7C229.9,-393.85 163.22,-379.66 105,-366 102.12,-365.32 99.16,-364.61 96.17,-363.89"/>
<polygon fill="midnightblue" stroke="midnightblue" points="276.64,-407.13 287.14,-405.73 278.06,-400.27 276.64,-407.13"/>
</g>
<!-- Node18 -->
<g id="node18" class="node">
<title>Node18</title>
<g id="a_node18"><a xlink:href="wait__until_8hpp.html" target="_top" xlink:title=" ">
<polygon fill="none" stroke="black" points="114,-335.5 114,-365.5 210,-365.5 210,-335.5 114,-335.5"/>
<text text-anchor="start" x="122" y="-353.5" font-family="Helvetica,sans-Serif" font-size="10.00">include/yaclib/algo</text>
<text text-anchor="middle" x="162" y="-342.5" font-family="Helvetica,sans-Serif" font-size="10.00">/wait_until.hpp</text>
</a>
</g>
</g>
<!-- Node4&#45;&gt;Node18 -->
<g id="edge23" class="edge">
<title>Node4&#45;&gt;Node18</title>
<path fill="none" stroke="midnightblue" d="M291.95,-398.96C263.28,-388.48 227.36,-375.37 200.55,-365.58"/>
<polygon fill="midnightblue" stroke="midnightblue" points="290.78,-402.25 301.38,-402.4 293.18,-395.68 290.78,-402.25"/>
</g>
<!-- Node19 -->
<g id="node19" class="node">
<title>Node19</title>
<g id="a_node19"><a xlink:href="wait__impl_8cpp.html" target="_top" xlink:title=" ">
<polygon fill="none" stroke="black" points="228.5,-341 228.5,-360 341.5,-360 341.5,-341 228.5,-341"/>
<text text-anchor="middle" x="285" y="-348" font-family="Helvetica,sans-Serif" font-size="10.00">src/algo/wait_impl.cpp</text>
</a>
</g>
</g>
<!-- Node4&#45;&gt;Node19 -->
<g id="edge24" class="edge">
<title>Node4&#45;&gt;Node19</title>
<path fill="none" stroke="midnightblue" d="M321.52,-394.66C311.54,-382.86 299.78,-368.97 292.36,-360.19"/>
<polygon fill="midnightblue" stroke="midnightblue" points="318.93,-397.02 328.07,-402.4 324.28,-392.5 318.93,-397.02"/>
</g>
<!-- Node6 -->
<g id="node6" class="node">
<title>Node6</title>
<g id="a_node6"><a xlink:href="future__impl_8hpp.html" target="_top" xlink:title=" ">
<polygon fill="none" stroke="black" points="398,-268.5 398,-298.5 510,-298.5 510,-268.5 398,-268.5"/>
<text text-anchor="start" x="406" y="-286.5" font-family="Helvetica,sans-Serif" font-size="10.00">include/yaclib/async</text>
<text text-anchor="middle" x="454" y="-275.5" font-family="Helvetica,sans-Serif" font-size="10.00">/detail/future_impl.hpp</text>
</a>
</g>
</g>
<!-- Node5&#45;&gt;Node6 -->
<g id="edge5" class="edge">
<title>Node5&#45;&gt;Node6</title>
<path fill="none" stroke="midnightblue" d="M448.97,-325.4C450.08,-316.37 451.3,-306.41 452.27,-298.58"/>
<polygon fill="midnightblue" stroke="midnightblue" points="445.48,-325.04 447.74,-335.4 452.43,-325.9 445.48,-325.04"/>
</g>
<!-- Node7 -->
<g id="node7" class="node">
<title>Node7</title>
<g id="a_node7"><a xlink:href="future_8hpp.html" target="_top" xlink:title=" ">
<polygon fill="none" stroke="black" points="492,-201.5 492,-231.5 596,-231.5 596,-201.5 492,-201.5"/>
<text text-anchor="start" x="500" y="-219.5" font-family="Helvetica,sans-Serif" font-size="10.00">include/yaclib/async</text>
<text text-anchor="middle" x="544" y="-208.5" font-family="Helvetica,sans-Serif" font-size="10.00">/future.hpp</text>
</a>
</g>
</g>
<!-- Node6&#45;&gt;Node7 -->
<g id="edge6" class="edge">
<title>Node6&#45;&gt;Node7</title>
<path fill="none" stroke="midnightblue" d="M481.76,-262.45C495.61,-252.45 512.02,-240.6 524.51,-231.58"/>
<polygon fill="midnightblue" stroke="midnightblue" points="479.59,-259.7 473.53,-268.4 483.68,-265.38 479.59,-259.7"/>
</g>
<!-- Node12 -->
<g id="node12" class="node">
<title>Node12</title>
<g id="a_node12"><a xlink:href="promise_8hpp.html" target="_top" xlink:title=" ">
<polygon fill="none" stroke="black" points="412,-134.5 412,-164.5 516,-164.5 516,-134.5 412,-134.5"/>
<text text-anchor="start" x="420" y="-152.5" font-family="Helvetica,sans-Serif" font-size="10.00">include/yaclib/async</text>
<text text-anchor="middle" x="464" y="-141.5" font-family="Helvetica,sans-Serif" font-size="10.00">/promise.hpp</text>
</a>
</g>
</g>
<!-- Node6&#45;&gt;Node12 -->
<g id="edge21" class="edge">
<title>Node6&#45;&gt;Node12</title>
<path fill="none" stroke="midnightblue" d="M455.83,-258.39C457.91,-230.9 461.24,-186.89 462.94,-164.52"/>
<polygon fill="midnightblue" stroke="midnightblue" points="452.34,-258.14 455.07,-268.37 459.32,-258.67 452.34,-258.14"/>
</g>
<!-- Node8 -->
<g id="node8" class="node">
<title>Node8</title>
<g id="a_node8"><a xlink:href="when__any_8hpp.html" target="_top" xlink:title=" ">
<polygon fill="none" stroke="black" points="524,-67.5 524,-97.5 620,-97.5 620,-67.5 524,-67.5"/>
<text text-anchor="start" x="532" y="-85.5" font-family="Helvetica,sans-Serif" font-size="10.00">include/yaclib/algo</text>
<text text-anchor="middle" x="572" y="-74.5" font-family="Helvetica,sans-Serif" font-size="10.00">/when_any.hpp</text>
</a>
</g>
</g>
<!-- Node7&#45;&gt;Node8 -->
<g id="edge7" class="edge">
<title>Node7&#45;&gt;Node8</title>
<path fill="none" stroke="midnightblue" d="M549.11,-191.39C554.95,-163.9 564.28,-119.89 569.03,-97.52"/>
<polygon fill="midnightblue" stroke="midnightblue" points="545.65,-190.87 547,-201.37 552.5,-192.32 545.65,-190.87"/>
</g>
<!-- Node10 -->
<g id="node10" class="node">
<title>Node10</title>
<g id="a_node10"><a xlink:href="when__all_8hpp.html" target="_top" xlink:title=" ">
<polygon fill="none" stroke="black" points="680,-67.5 680,-97.5 776,-97.5 776,-67.5 680,-67.5"/>
<text text-anchor="start" x="688" y="-85.5" font-family="Helvetica,sans-Serif" font-size="10.00">include/yaclib/algo</text>
<text text-anchor="middle" x="728" y="-74.5" font-family="Helvetica,sans-Serif" font-size="10.00">/when_all.hpp</text>
</a>
</g>
</g>
<!-- Node7&#45;&gt;Node10 -->
<g id="edge9" class="edge">
<title>Node7&#45;&gt;Node10</title>
<path fill="none" stroke="midnightblue" d="M606.23,-211.37C641.06,-205.8 682.66,-193.19 709,-165 726.26,-146.53 728.83,-115.51 728.71,-97.54"/>
<polygon fill="midnightblue" stroke="midnightblue" points="605.53,-207.93 596.13,-212.82 606.53,-214.86 605.53,-207.93"/>
</g>
<!-- Node7&#45;&gt;Node12 -->
<g id="edge11" class="edge">
<title>Node7&#45;&gt;Node12</title>
<path fill="none" stroke="midnightblue" d="M512.66,-195.17C499.68,-185.23 485.48,-173.51 475.65,-164.58"/>
<polygon fill="midnightblue" stroke="midnightblue" points="510.86,-198.19 520.96,-201.4 515.07,-192.59 510.86,-198.19"/>
</g>
<!-- Node14 -->
<g id="node14" class="node">
<title>Node14</title>
<g id="a_node14"><a xlink:href="run_8hpp.html" target="_top" xlink:title=" ">
<polygon fill="none" stroke="black" points="767,-134.5 767,-164.5 871,-164.5 871,-134.5 767,-134.5"/>
<text text-anchor="start" x="775" y="-152.5" font-family="Helvetica,sans-Serif" font-size="10.00">include/yaclib/async</text>
<text text-anchor="middle" x="819" y="-141.5" font-family="Helvetica,sans-Serif" font-size="10.00">/run.hpp</text>
</a>
</g>
</g>
<!-- Node7&#45;&gt;Node14 -->
<g id="edge16" class="edge">
<title>Node7&#45;&gt;Node14</title>
<path fill="none" stroke="midnightblue" d="M605.79,-200.9C654.23,-189.45 720.88,-173.69 766.7,-162.86"/>
<polygon fill="midnightblue" stroke="midnightblue" points="604.98,-197.49 596.05,-203.2 606.59,-204.3 604.98,-197.49"/>
</g>
<!-- Node16 -->
<g id="node16" class="node">
<title>Node16</title>
<g id="a_node16"><a xlink:href="future__impl_8cpp.html" target="_top" xlink:title=" ">
<polygon fill="none" stroke="black" points="572,-140 572,-159 700,-159 700,-140 572,-140"/>
<text text-anchor="middle" x="636" y="-147" font-family="Helvetica,sans-Serif" font-size="10.00">src/async/future_impl.cpp</text>
</a>
</g>
</g>
<!-- Node7&#45;&gt;Node16 -->
<g id="edge20" class="edge">
<title>Node7&#45;&gt;Node16</title>
<path fill="none" stroke="midnightblue" d="M572.58,-195.31C589.86,-183.1 610.98,-168.18 623.96,-159.01"/>
<polygon fill="midnightblue" stroke="midnightblue" points="570.11,-192.77 563.96,-201.4 574.15,-198.48 570.11,-192.77"/>
</g>
<!-- Node9 -->
<g id="node9" class="node">
<title>Node9</title>
<g id="a_node9"><a xlink:href="when__any_8cpp.html" target="_top" xlink:title=" ">
<polygon fill="none" stroke="black" points="715.5,-0.5 715.5,-30.5 816.5,-30.5 816.5,-0.5 715.5,-0.5"/>
<text text-anchor="start" x="723.5" y="-18.5" font-family="Helvetica,sans-Serif" font-size="10.00">test/example/async</text>
<text text-anchor="middle" x="766" y="-7.5" font-family="Helvetica,sans-Serif" font-size="10.00">/when_any.cpp</text>
</a>
</g>
</g>
<!-- Node8&#45;&gt;Node9 -->
<g id="edge8" class="edge">
<title>Node8&#45;&gt;Node9</title>
<path fill="none" stroke="midnightblue" d="M623.96,-64.09C655.27,-53.6 694.64,-40.41 723.99,-30.58"/>
<polygon fill="midnightblue" stroke="midnightblue" points="622.47,-60.9 614.1,-67.4 624.69,-67.54 622.47,-60.9"/>
</g>
<!-- Node11 -->
<g id="node11" class="node">
<title>Node11</title>
<g id="a_node11"><a xlink:href="when__all_8cpp.html" target="_top" xlink:title=" ">
<polygon fill="none" stroke="black" points="834.5,-0.5 834.5,-30.5 935.5,-30.5 935.5,-0.5 834.5,-0.5"/>
<text text-anchor="start" x="842.5" y="-18.5" font-family="Helvetica,sans-Serif" font-size="10.00">test/example/async</text>
<text text-anchor="middle" x="885" y="-7.5" font-family="Helvetica,sans-Serif" font-size="10.00">/when_all.cpp</text>
</a>
</g>
</g>
<!-- Node10&#45;&gt;Node11 -->
<g id="edge10" class="edge">
<title>Node10&#45;&gt;Node11</title>
<path fill="none" stroke="midnightblue" d="M771.37,-63.54C796.49,-53.14 827.66,-40.24 851,-30.58"/>
<polygon fill="midnightblue" stroke="midnightblue" points="769.97,-60.34 762.07,-67.4 772.64,-66.8 769.97,-60.34"/>
</g>
<!-- Node12&#45;&gt;Node7 -->
<g id="edge14" class="edge">
<title>Node12&#45;&gt;Node7</title>
<path fill="none" stroke="midnightblue" d="M495.3,-170.8C508.28,-180.74 522.49,-192.45 532.32,-201.4"/>
<polygon fill="midnightblue" stroke="midnightblue" points="497.1,-167.78 487,-164.58 492.9,-173.38 497.1,-167.78"/>
</g>
<!-- Node12&#45;&gt;Node8 -->
<g id="edge12" class="edge">
<title>Node12&#45;&gt;Node8</title>
<path fill="none" stroke="midnightblue" d="M496.37,-129.02C513.18,-118.9 533.34,-106.77 548.61,-97.58"/>
<polygon fill="midnightblue" stroke="midnightblue" points="494.2,-126.24 487.43,-134.4 497.81,-132.24 494.2,-126.24"/>
</g>
<!-- Node12&#45;&gt;Node10 -->
<g id="edge13" class="edge">
<title>Node12&#45;&gt;Node10</title>
<path fill="none" stroke="midnightblue" d="M525.93,-133.25C572.97,-121.67 636.72,-105.97 679.95,-95.33"/>
<polygon fill="midnightblue" stroke="midnightblue" points="525.03,-129.87 516.16,-135.66 526.7,-136.67 525.03,-129.87"/>
</g>
<!-- Node13 -->
<g id="node13" class="node">
<title>Node13</title>
<g id="a_node13"><a xlink:href="promise__impl_8cpp.html" target="_top" xlink:title=" ">
<polygon fill="none" stroke="black" points="368.5,-73 368.5,-92 505.5,-92 505.5,-73 368.5,-73"/>
<text text-anchor="middle" x="437" y="-80" font-family="Helvetica,sans-Serif" font-size="10.00">src/async/promise_impl.cpp</text>
</a>
</g>
</g>
<!-- Node12&#45;&gt;Node13 -->
<g id="edge15" class="edge">
<title>Node12&#45;&gt;Node13</title>
<path fill="none" stroke="midnightblue" d="M454.21,-124.94C449.48,-113.54 444.08,-100.55 440.61,-92.19"/>
<polygon fill="midnightblue" stroke="midnightblue" points="451.07,-126.5 458.14,-134.4 457.54,-123.82 451.07,-126.5"/>
</g>
<!-- Node14&#45;&gt;Node9 -->
<g id="edge19" class="edge">
<title>Node14&#45;&gt;Node9</title>
<path fill="none" stroke="midnightblue" d="M809.47,-124.75C798.44,-97.29 780.65,-52.99 771.63,-30.52"/>
<polygon fill="midnightblue" stroke="midnightblue" points="806.35,-126.4 813.33,-134.37 812.85,-123.79 806.35,-126.4"/>
</g>
<!-- Node14&#45;&gt;Node11 -->
<g id="edge17" class="edge">
<title>Node14&#45;&gt;Node11</title>
<path fill="none" stroke="midnightblue" d="M830.69,-125.12C844.41,-97.68 866.71,-53.09 877.99,-30.52"/>
<polygon fill="midnightblue" stroke="midnightblue" points="827.4,-123.86 826.06,-134.37 833.67,-126.99 827.4,-123.86"/>
</g>
<!-- Node15 -->
<g id="node15" class="node">
<title>Node15</title>
<g id="a_node15"><a xlink:href="simple_8cpp.html" target="_top" xlink:title=" ">
<polygon fill="none" stroke="black" points="882.5,-67.5 882.5,-97.5 983.5,-97.5 983.5,-67.5 882.5,-67.5"/>
<text text-anchor="start" x="890.5" y="-85.5" font-family="Helvetica,sans-Serif" font-size="10.00">test/example/async</text>
<text text-anchor="middle" x="933" y="-74.5" font-family="Helvetica,sans-Serif" font-size="10.00">/simple.cpp</text>
</a>
</g>
</g>
<!-- Node14&#45;&gt;Node15 -->
<g id="edge18" class="edge">
<title>Node14&#45;&gt;Node15</title>
<path fill="none" stroke="midnightblue" d="M852.68,-129.3C870.52,-119.12 892.04,-106.85 908.31,-97.58"/>
<polygon fill="midnightblue" stroke="midnightblue" points="850.69,-126.4 843.74,-134.4 854.16,-132.48 850.69,-126.4"/>
</g>
<!-- Node21 -->
<g id="node21" class="node">
<title>Node21</title>
<g id="a_node21"><a xlink:href="task_8hpp.html" target="_top" xlink:title=" ">
<polygon fill="none" stroke="black" points="808.5,-670.5 808.5,-700.5 923.5,-700.5 923.5,-670.5 808.5,-670.5"/>
<text text-anchor="start" x="816.5" y="-688.5" font-family="Helvetica,sans-Serif" font-size="10.00">include/yaclib/executor</text>
<text text-anchor="middle" x="866" y="-677.5" font-family="Helvetica,sans-Serif" font-size="10.00">/task.hpp</text>
</a>
</g>
</g>
<!-- Node20&#45;&gt;Node21 -->
<g id="edge26" class="edge">
<title>Node20&#45;&gt;Node21</title>
<path fill="none" stroke="midnightblue" d="M695.44,-735.56C732.72,-724.83 781.4,-710.83 817.2,-700.53"/>
<polygon fill="midnightblue" stroke="midnightblue" points="694.38,-732.22 685.73,-738.35 696.31,-738.95 694.38,-732.22"/>
</g>
<!-- Node22 -->
<g id="node22" class="node">
<title>Node22</title>
<g id="a_node22"><a xlink:href="base__core_8hpp.html" target="_top" xlink:title=" ">
<polygon fill="none" stroke="black" points="469.5,-469.5 469.5,-499.5 578.5,-499.5 578.5,-469.5 469.5,-469.5"/>
<text text-anchor="start" x="477.5" y="-487.5" font-family="Helvetica,sans-Serif" font-size="10.00">include/yaclib/async</text>
<text text-anchor="middle" x="524" y="-476.5" font-family="Helvetica,sans-Serif" font-size="10.00">/detail/base_core.hpp</text>
</a>
</g>
</g>
<!-- Node21&#45;&gt;Node22 -->
<g id="edge27" class="edge">
<title>Node21&#45;&gt;Node22</title>
<path fill="none" stroke="midnightblue" d="M798.28,-683.2C717.5,-677.57 585.55,-654.55 523,-567 508.85,-547.2 514.17,-517.21 519.18,-499.67"/>
<polygon fill="midnightblue" stroke="midnightblue" points="798.15,-686.7 808.35,-683.83 798.59,-679.71 798.15,-686.7"/>
</g>
<!-- Node27 -->
<g id="node27" class="node">
<title>Node27</title>
<g id="a_node27"><a xlink:href="executor_8hpp.html" target="_top" xlink:title=" ">
<polygon fill="none" stroke="black" points="808.5,-603.5 808.5,-633.5 923.5,-633.5 923.5,-603.5 808.5,-603.5"/>
<text text-anchor="start" x="816.5" y="-621.5" font-family="Helvetica,sans-Serif" font-size="10.00">include/yaclib/executor</text>
<text text-anchor="middle" x="866" y="-610.5" font-family="Helvetica,sans-Serif" font-size="10.00">/executor.hpp</text>
</a>
</g>
</g>
<!-- Node21&#45;&gt;Node27 -->
<g id="edge37" class="edge">
<title>Node21&#45;&gt;Node27</title>
<path fill="none" stroke="midnightblue" d="M866,-660.11C866,-651.15 866,-641.32 866,-633.58"/>
<polygon fill="midnightblue" stroke="midnightblue" points="862.5,-660.4 866,-670.4 869.5,-660.4 862.5,-660.4"/>
</g>
<!-- Node36 -->
<g id="node36" class="node">
<title>Node36</title>
<g id="a_node36"><a xlink:href="thread__factory_8hpp.html" target="_top" xlink:title=" ">
<polygon fill="none" stroke="black" points="1142.5,-603.5 1142.5,-633.5 1257.5,-633.5 1257.5,-603.5 1142.5,-603.5"/>
<text text-anchor="start" x="1150.5" y="-621.5" font-family="Helvetica,sans-Serif" font-size="10.00">include/yaclib/executor</text>
<text text-anchor="middle" x="1200" y="-610.5" font-family="Helvetica,sans-Serif" font-size="10.00">/thread_factory.hpp</text>
</a>
</g>
</g>
<!-- Node21&#45;&gt;Node36 -->
<g id="edge57" class="edge">
<title>Node21&#45;&gt;Node36</title>
<path fill="none" stroke="midnightblue" d="M933.77,-671.31C995.08,-659.38 1084.39,-642 1142.35,-630.72"/>
<polygon fill="midnightblue" stroke="midnightblue" points="932.94,-667.91 923.8,-673.25 934.28,-674.78 932.94,-667.91"/>
</g>
<!-- Node38 -->
<g id="node38" class="node">
<title>Node38</title>
<g id="a_node38"><a xlink:href="intrusive__list_8cpp.html" target="_top" xlink:title=" ">
<polygon fill="none" stroke="black" points="1356,-536.5 1356,-566.5 1442,-566.5 1442,-536.5 1356,-536.5"/>
<text text-anchor="start" x="1364" y="-554.5" font-family="Helvetica,sans-Serif" font-size="10.00">src/util/intrusive</text>
<text text-anchor="middle" x="1399" y="-543.5" font-family="Helvetica,sans-Serif" font-size="10.00">_list.cpp</text>
</a>
</g>
</g>
<!-- Node21&#45;&gt;Node38 -->
<g id="edge61" class="edge">
<title>Node21&#45;&gt;Node38</title>
<path fill="none" stroke="midnightblue" d="M933.65,-684.66C1015.02,-682.91 1154.68,-673.63 1267,-634 1311.7,-618.23 1357.33,-585.62 1381.48,-566.78"/>
<polygon fill="midnightblue" stroke="midnightblue" points="933.47,-681.16 923.53,-684.85 933.6,-688.16 933.47,-681.16"/>
</g>
<!-- Node22&#45;&gt;Node4 -->
<g id="edge28" class="edge">
<title>Node22&#45;&gt;Node4</title>
<path fill="none" stroke="midnightblue" d="M474.33,-465.96C444.7,-455.48 407.56,-442.37 379.85,-432.58"/>
<polygon fill="midnightblue" stroke="midnightblue" points="473.48,-469.37 484.07,-469.4 475.81,-462.76 473.48,-469.37"/>
</g>
<!-- Node23 -->
<g id="node23" class="node">
<title>Node23</title>
<g id="a_node23"><a xlink:href="result__core_8hpp.html" target="_top" xlink:title=" ">
<polygon fill="none" stroke="black" points="467,-402.5 467,-432.5 579,-432.5 579,-402.5 467,-402.5"/>
<text text-anchor="start" x="475" y="-420.5" font-family="Helvetica,sans-Serif" font-size="10.00">include/yaclib/async</text>
<text text-anchor="middle" x="523" y="-409.5" font-family="Helvetica,sans-Serif" font-size="10.00">/detail/result_core.hpp</text>
</a>
</g>
</g>
<!-- Node22&#45;&gt;Node23 -->
<g id="edge29" class="edge">
<title>Node22&#45;&gt;Node23</title>
<path fill="none" stroke="midnightblue" d="M523.62,-459.11C523.49,-450.15 523.34,-440.32 523.22,-432.58"/>
<polygon fill="midnightblue" stroke="midnightblue" points="520.13,-459.45 523.78,-469.4 527.13,-459.34 520.13,-459.45"/>
</g>
<!-- Node26 -->
<g id="node26" class="node">
<title>Node26</title>
<g id="a_node26"><a xlink:href="base__core_8cpp.html" target="_top" xlink:title=" ">
<polygon fill="none" stroke="black" points="597.5,-408 597.5,-427 722.5,-427 722.5,-408 597.5,-408"/>
<text text-anchor="middle" x="660" y="-415" font-family="Helvetica,sans-Serif" font-size="10.00">src/async/base_core.cpp</text>
</a>
</g>
</g>
<!-- Node22&#45;&gt;Node26 -->
<g id="edge36" class="edge">
<title>Node22&#45;&gt;Node26</title>
<path fill="none" stroke="midnightblue" d="M562.78,-464.97C588.9,-452.48 622.13,-436.6 642.2,-427.01"/>
<polygon fill="midnightblue" stroke="midnightblue" points="561.02,-461.93 553.51,-469.4 564.04,-468.24 561.02,-461.93"/>
</g>
<!-- Node23&#45;&gt;Node7 -->
<g id="edge33" class="edge">
<title>Node23&#45;&gt;Node7</title>
<path fill="none" stroke="midnightblue" d="M525.59,-392C530.02,-349.93 538.96,-265.26 542.5,-231.68"/>
<polygon fill="midnightblue" stroke="midnightblue" points="522.08,-391.88 524.51,-402.19 529.04,-392.61 522.08,-391.88"/>
</g>
<!-- Node23&#45;&gt;Node12 -->
<g id="edge34" class="edge">
<title>Node23&#45;&gt;Node12</title>
<path fill="none" stroke="midnightblue" d="M457.11,-407.9C431.46,-400.97 404.55,-388.48 389,-366 342.69,-299.05 419.06,-200.72 450.99,-164.53"/>
<polygon fill="midnightblue" stroke="midnightblue" points="456.3,-411.3 466.85,-410.29 457.97,-404.5 456.3,-411.3"/>
</g>
<!-- Node24 -->
<g id="node24" class="node">
<title>Node24</title>
<g id="a_node24"><a xlink:href="core_8hpp.html" target="_top" xlink:title=" ">
<polygon fill="none" stroke="black" points="696,-335.5 696,-365.5 800,-365.5 800,-335.5 696,-335.5"/>
<text text-anchor="start" x="704" y="-353.5" font-family="Helvetica,sans-Serif" font-size="10.00">include/yaclib/async</text>
<text text-anchor="middle" x="748" y="-342.5" font-family="Helvetica,sans-Serif" font-size="10.00">/detail/core.hpp</text>
</a>
</g>
</g>
<!-- Node23&#45;&gt;Node24 -->
<g id="edge30" class="edge">
<title>Node23&#45;&gt;Node24</title>
<path fill="none" stroke="midnightblue" d="M581.57,-399.58C618.11,-389.02 664.6,-375.59 699.15,-365.61"/>
<polygon fill="midnightblue" stroke="midnightblue" points="580.18,-396.34 571.54,-402.48 582.12,-403.06 580.18,-396.34"/>
</g>
<!-- Node25 -->
<g id="node25" class="node">
<title>Node25</title>
<g id="a_node25"><a xlink:href="result__core_8cpp.html" target="_top" xlink:title=" ">
<polygon fill="none" stroke="black" points="550,-341 550,-360 678,-360 678,-341 550,-341"/>
<text text-anchor="middle" x="614" y="-348" font-family="Helvetica,sans-Serif" font-size="10.00">src/async/result_core.cpp</text>
</a>
</g>
</g>
<!-- Node23&#45;&gt;Node25 -->
<g id="edge35" class="edge">
<title>Node23&#45;&gt;Node25</title>
<path fill="none" stroke="midnightblue" d="M551.27,-396.31C568.36,-384.1 589.25,-369.18 602.09,-360.01"/>
<polygon fill="midnightblue" stroke="midnightblue" points="548.85,-393.74 542.75,-402.4 552.92,-399.43 548.85,-393.74"/>
</g>
<!-- Node24&#45;&gt;Node6 -->
<g id="edge31" class="edge">
<title>Node24&#45;&gt;Node6</title>
<path fill="none" stroke="midnightblue" d="M685.65,-334.72C619.94,-319.85 555.03,-305.88 510.09,-296.33"/>
<polygon fill="midnightblue" stroke="midnightblue" points="685.25,-338.21 695.77,-337.01 686.79,-331.39 685.25,-338.21"/>
</g>
<!-- Node24&#45;&gt;Node14 -->
<g id="edge32" class="edge">
<title>Node24&#45;&gt;Node14</title>
<path fill="none" stroke="midnightblue" d="M756.55,-325.53C771.49,-283.65 801.91,-198.4 813.94,-164.68"/>
<polygon fill="midnightblue" stroke="midnightblue" points="753.17,-324.59 753.11,-335.19 759.76,-326.95 753.17,-324.59"/>
</g>
<!-- Node27&#45;&gt;Node7 -->
<g id="edge39" class="edge">
<title>Node27&#45;&gt;Node7</title>
<path fill="none" stroke="midnightblue" d="M854.85,-593.86C843.63,-567.89 828,-524.66 828,-485.5 828,-485.5 828,-485.5 828,-349.5 828,-248.37 678.08,-224.51 596.09,-219.03"/>
<polygon fill="midnightblue" stroke="midnightblue" points="851.76,-595.53 859.03,-603.24 858.15,-592.68 851.76,-595.53"/>
</g>
<!-- Node27&#45;&gt;Node14 -->
<g id="edge40" class="edge">
<title>Node27&#45;&gt;Node14</title>
<path fill="none" stroke="midnightblue" d="M866,-592.99C866,-566.49 866,-523 866,-485.5 866,-485.5 866,-485.5 866,-282.5 866,-237.25 841.19,-188.07 827.62,-164.56"/>
<polygon fill="midnightblue" stroke="midnightblue" points="862.5,-593.24 866,-603.24 869.5,-593.24 862.5,-593.24"/>
</g>
<!-- Node27&#45;&gt;Node15 -->
<g id="edge56" class="edge">
<title>Node27&#45;&gt;Node15</title>
<path fill="none" stroke="midnightblue" d="M877.15,-593.86C888.37,-567.89 904,-524.66 904,-485.5 904,-485.5 904,-485.5 904,-215.5 904,-171.62 919.47,-121.41 927.82,-97.54"/>
<polygon fill="midnightblue" stroke="midnightblue" points="873.85,-592.68 872.97,-603.24 880.24,-595.53 873.85,-592.68"/>
</g>
<!-- Node27&#45;&gt;Node22 -->
<g id="edge38" class="edge">
<title>Node27&#45;&gt;Node22</title>
<path fill="none" stroke="midnightblue" d="M798.25,-615.59C714.64,-611.79 579.08,-600.51 543,-567 524.37,-549.7 522.33,-517.97 522.91,-499.62"/>
<polygon fill="midnightblue" stroke="midnightblue" points="798.28,-619.09 808.42,-616.02 798.58,-612.1 798.28,-619.09"/>
</g>
<!-- Node28 -->
<g id="node28" class="node">
<title>Node28</title>
<g id="a_node28"><a xlink:href="inline_8hpp.html" target="_top" xlink:title=" ">
<polygon fill="none" stroke="black" points="684.5,-536.5 684.5,-566.5 799.5,-566.5 799.5,-536.5 684.5,-536.5"/>
<text text-anchor="start" x="692.5" y="-554.5" font-family="Helvetica,sans-Serif" font-size="10.00">include/yaclib/executor</text>
<text text-anchor="middle" x="742" y="-543.5" font-family="Helvetica,sans-Serif" font-size="10.00">/inline.hpp</text>
</a>
</g>
</g>
<!-- Node27&#45;&gt;Node28 -->
<g id="edge41" class="edge">
<title>Node27&#45;&gt;Node28</title>
<path fill="none" stroke="midnightblue" d="M830.16,-598.71C810.61,-588.46 786.8,-575.98 768.85,-566.58"/>
<polygon fill="midnightblue" stroke="midnightblue" points="828.61,-601.85 839.09,-603.4 831.86,-595.65 828.61,-601.85"/>
</g>
<!-- Node30 -->
<g id="node30" class="node">
<title>Node30</title>
<g id="a_node30"><a xlink:href="serial_8hpp.html" target="_top" xlink:title=" ">
<polygon fill="none" stroke="black" points="932.5,-536.5 932.5,-566.5 1047.5,-566.5 1047.5,-536.5 932.5,-536.5"/>
<text text-anchor="start" x="940.5" y="-554.5" font-family="Helvetica,sans-Serif" font-size="10.00">include/yaclib/executor</text>
<text text-anchor="middle" x="990" y="-543.5" font-family="Helvetica,sans-Serif" font-size="10.00">/serial.hpp</text>
</a>
</g>
</g>
<!-- Node27&#45;&gt;Node30 -->
<g id="edge44" class="edge">
<title>Node27&#45;&gt;Node30</title>
<path fill="none" stroke="midnightblue" d="M901.84,-598.71C921.39,-588.46 945.2,-575.98 963.15,-566.58"/>
<polygon fill="midnightblue" stroke="midnightblue" points="900.14,-595.65 892.91,-603.4 903.39,-601.85 900.14,-595.65"/>
</g>
<!-- Node32 -->
<g id="node32" class="node">
<title>Node32</title>
<g id="a_node32"><a xlink:href="thread__pool_8hpp.html" target="_top" xlink:title=" ">
<polygon fill="none" stroke="black" points="1104.5,-536.5 1104.5,-566.5 1219.5,-566.5 1219.5,-536.5 1104.5,-536.5"/>
<text text-anchor="start" x="1112.5" y="-554.5" font-family="Helvetica,sans-Serif" font-size="10.00">include/yaclib/executor</text>
<text text-anchor="middle" x="1162" y="-543.5" font-family="Helvetica,sans-Serif" font-size="10.00">/thread_pool.hpp</text>
</a>
</g>
</g>
<!-- Node27&#45;&gt;Node32 -->
<g id="edge47" class="edge">
<title>Node27&#45;&gt;Node32</title>
<path fill="none" stroke="midnightblue" d="M933.83,-602.61C985.38,-591.29 1055.52,-575.88 1104.37,-565.15"/>
<polygon fill="midnightblue" stroke="midnightblue" points="932.79,-599.25 923.77,-604.81 934.29,-606.09 932.79,-599.25"/>
</g>
<!-- Node33 -->
<g id="node33" class="node">
<title>Node33</title>
<g id="a_node33"><a xlink:href="src_2executor_2thread__pool_8cpp.html" target="_top" xlink:title=" ">
<polygon fill="none" stroke="black" points="1100,-469.5 1100,-499.5 1200,-499.5 1200,-469.5 1100,-469.5"/>
<text text-anchor="start" x="1108" y="-487.5" font-family="Helvetica,sans-Serif" font-size="10.00">src/executor/thread</text>
<text text-anchor="middle" x="1150" y="-476.5" font-family="Helvetica,sans-Serif" font-size="10.00">_pool.cpp</text>
</a>
</g>
</g>
<!-- Node27&#45;&gt;Node33 -->
<g id="edge55" class="edge">
<title>Node27&#45;&gt;Node33</title>
<path fill="none" stroke="midnightblue" d="M933.61,-607.49C971.48,-599.99 1018.64,-587.41 1057,-567 1065.77,-562.34 1110.43,-521.85 1134.53,-499.75"/>
<polygon fill="midnightblue" stroke="midnightblue" points="932.87,-604.07 923.7,-609.38 934.18,-610.94 932.87,-604.07"/>
</g>
<!-- Node35 -->
<g id="node35" class="node">
<title>Node35</title>
<g id="a_node35"><a xlink:href="src_2executor_2serial_8cpp.html" target="_top" xlink:title=" ">
<polygon fill="none" stroke="black" points="552,-542 552,-561 666,-561 666,-542 552,-542"/>
<text text-anchor="middle" x="609" y="-549" font-family="Helvetica,sans-Serif" font-size="10.00">src/executor/serial.cpp</text>
</a>
</g>
</g>
<!-- Node27&#45;&gt;Node35 -->
<g id="edge54" class="edge">
<title>Node27&#45;&gt;Node35</title>
<path fill="none" stroke="midnightblue" d="M800.72,-600.99C750.36,-588.25 682.73,-571.15 642.72,-561.03"/>
<polygon fill="midnightblue" stroke="midnightblue" points="800,-604.42 810.55,-603.48 801.71,-597.63 800,-604.42"/>
</g>
<!-- Node28&#45;&gt;Node22 -->
<g id="edge42" class="edge">
<title>Node28&#45;&gt;Node22</title>
<path fill="none" stroke="midnightblue" d="M685.25,-533.58C649.84,-523.02 604.8,-509.59 571.33,-499.61"/>
<polygon fill="midnightblue" stroke="midnightblue" points="684.38,-536.97 694.97,-536.48 686.38,-530.26 684.38,-536.97"/>
</g>
<!-- Node29 -->
<g id="node29" class="node">
<title>Node29</title>
<g id="a_node29"><a xlink:href="inline_8cpp.html" target="_top" xlink:title=" ">
<polygon fill="none" stroke="black" points="685.5,-475 685.5,-494 798.5,-494 798.5,-475 685.5,-475"/>
<text text-anchor="middle" x="742" y="-482" font-family="Helvetica,sans-Serif" font-size="10.00">src/executor/inline.cpp</text>
</a>
</g>
</g>
<!-- Node28&#45;&gt;Node29 -->
<g id="edge43" class="edge">
<title>Node28&#45;&gt;Node29</title>
<path fill="none" stroke="midnightblue" d="M742,-526.25C742,-515.02 742,-502.38 742,-494.19"/>
<polygon fill="midnightblue" stroke="midnightblue" points="738.5,-526.4 742,-536.4 745.5,-526.4 738.5,-526.4"/>
</g>
<!-- Node30&#45;&gt;Node15 -->
<g id="edge45" class="edge">
<title>Node30&#45;&gt;Node15</title>
<path fill="none" stroke="midnightblue" d="M975.15,-527.91C970.08,-519.43 964.75,-509.53 961,-500 947.37,-465.39 942,-455.69 942,-418.5 942,-418.5 942,-418.5 942,-215.5 942,-172.55 937.2,-121.91 934.61,-97.74"/>
<polygon fill="midnightblue" stroke="midnightblue" points="972.21,-529.82 980.45,-536.48 978.16,-526.13 972.21,-529.82"/>
</g>
<!-- Node31 -->
<g id="node31" class="node">
<title>Node31</title>
<g id="a_node31"><a xlink:href="test_2example_2executor_2serial_8cpp.html" target="_top" xlink:title=" ">
<polygon fill="none" stroke="black" points="970,-469.5 970,-499.5 1082,-499.5 1082,-469.5 970,-469.5"/>
<text text-anchor="start" x="978" y="-487.5" font-family="Helvetica,sans-Serif" font-size="10.00">test/example/executor</text>
<text text-anchor="middle" x="1026" y="-476.5" font-family="Helvetica,sans-Serif" font-size="10.00">/serial.cpp</text>
</a>
</g>
</g>
<!-- Node30&#45;&gt;Node31 -->
<g id="edge46" class="edge">
<title>Node30&#45;&gt;Node31</title>
<path fill="none" stroke="midnightblue" d="M1002.7,-527.58C1007.87,-518.24 1013.68,-507.75 1018.2,-499.58"/>
<polygon fill="midnightblue" stroke="midnightblue" points="999.59,-525.95 997.81,-536.4 1005.72,-529.34 999.59,-525.95"/>
</g>
<!-- Node32&#45;&gt;Node9 -->
<g id="edge51" class="edge">
<title>Node32&#45;&gt;Node9</title>
<path fill="none" stroke="midnightblue" d="M1186.56,-529.14C1194.79,-520.8 1203.31,-510.68 1209,-500 1226.48,-467.17 1228,-455.69 1228,-418.5 1228,-418.5 1228,-418.5 1228,-148.5 1228,37.64 1007.46,-72.48 826,-31 822.97,-30.31 819.86,-29.59 816.72,-28.85"/>
<polygon fill="midnightblue" stroke="midnightblue" points="1183.94,-526.8 1179.17,-536.26 1188.8,-531.84 1183.94,-526.8"/>
</g>
<!-- Node32&#45;&gt;Node11 -->
<g id="edge49" class="edge">
<title>Node32&#45;&gt;Node11</title>
<path fill="none" stroke="midnightblue" d="M1229.74,-536.06C1314.69,-521.88 1356.6,-556.23 1415,-500 1441.79,-474.2 1434,-455.69 1434,-418.5 1434,-418.5 1434,-418.5 1434,-148.5 1434,-46.55 1071.57,-23.13 935.66,-17.93"/>
<polygon fill="midnightblue" stroke="midnightblue" points="1228.92,-532.65 1219.73,-537.92 1230.2,-539.53 1228.92,-532.65"/>
</g>
<!-- Node32&#45;&gt;Node15 -->
<g id="edge50" class="edge">
<title>Node32&#45;&gt;Node15</title>
<path fill="none" stroke="midnightblue" d="M1208.84,-531.53C1221.93,-523.8 1234.59,-513.44 1242,-500 1248.65,-487.93 1246.57,-482 1242,-469 1181.3,-296.23 1006.93,-143.51 950.7,-97.56"/>
<polygon fill="midnightblue" stroke="midnightblue" points="1206.88,-528.61 1199.77,-536.47 1210.23,-534.76 1206.88,-528.61"/>
</g>
<!-- Node32&#45;&gt;Node31 -->
<g id="edge52" class="edge">
<title>Node32&#45;&gt;Node31</title>
<path fill="none" stroke="midnightblue" d="M1123.28,-531.99C1101.72,-521.69 1075.31,-509.07 1055.45,-499.58"/>
<polygon fill="midnightblue" stroke="midnightblue" points="1121.96,-535.24 1132.49,-536.4 1124.98,-528.93 1121.96,-535.24"/>
</g>
<!-- Node32&#45;&gt;Node33 -->
<g id="edge48" class="edge">
<title>Node32&#45;&gt;Node33</title>
<path fill="none" stroke="midnightblue" d="M1157.55,-526.4C1155.88,-517.37 1154.04,-507.41 1152.6,-499.58"/>
<polygon fill="midnightblue" stroke="midnightblue" points="1154.14,-527.2 1159.4,-536.4 1161.02,-525.93 1154.14,-527.2"/>
</g>
<!-- Node34 -->
<g id="node34" class="node">
<title>Node34</title>
<g id="a_node34"><a xlink:href="test_2example_2executor_2thread__pool_8cpp.html" target="_top" xlink:title=" ">
<polygon fill="none" stroke="black" points="1294,-469.5 1294,-499.5 1406,-499.5 1406,-469.5 1294,-469.5"/>
<text text-anchor="start" x="1302" y="-487.5" font-family="Helvetica,sans-Serif" font-size="10.00">test/example/executor</text>
<text text-anchor="middle" x="1350" y="-476.5" font-family="Helvetica,sans-Serif" font-size="10.00">/thread_pool.cpp</text>
</a>
</g>
</g>
<!-- Node32&#45;&gt;Node34 -->
<g id="edge53" class="edge">
<title>Node32&#45;&gt;Node34</title>
<path fill="none" stroke="midnightblue" d="M1212.35,-533.09C1242.7,-522.6 1280.85,-509.41 1309.29,-499.58"/>
<polygon fill="midnightblue" stroke="midnightblue" points="1211.1,-529.82 1202.79,-536.4 1213.39,-536.44 1211.1,-529.82"/>
</g>
<!-- Node36&#45;&gt;Node32 -->
<g id="edge58" class="edge">
<title>Node36&#45;&gt;Node32</title>
<path fill="none" stroke="midnightblue" d="M1186.6,-594.58C1181.14,-585.24 1175.01,-574.75 1170.23,-566.58"/>
<polygon fill="midnightblue" stroke="midnightblue" points="1183.69,-596.53 1191.75,-603.4 1189.73,-593 1183.69,-596.53"/>
</g>
<!-- Node37 -->
<g id="node37" class="node">
<title>Node37</title>
<g id="a_node37"><a xlink:href="thread__factory_8cpp.html" target="_top" xlink:title=" ">
<polygon fill="none" stroke="black" points="1238,-536.5 1238,-566.5 1338,-566.5 1338,-536.5 1238,-536.5"/>
<text text-anchor="start" x="1246" y="-554.5" font-family="Helvetica,sans-Serif" font-size="10.00">src/executor/thread</text>
<text text-anchor="middle" x="1288" y="-543.5" font-family="Helvetica,sans-Serif" font-size="10.00">_factory.cpp</text>
</a>
</g>
</g>
<!-- Node36&#45;&gt;Node37 -->
<g id="edge59" class="edge">
<title>Node36&#45;&gt;Node37</title>
<path fill="none" stroke="midnightblue" d="M1227.14,-597.45C1240.68,-587.45 1256.73,-575.6 1268.94,-566.58"/>
<polygon fill="midnightblue" stroke="midnightblue" points="1225.06,-594.64 1219.09,-603.4 1229.22,-600.27 1225.06,-594.64"/>
</g>
<!-- Node36&#45;&gt;Node38 -->
<g id="edge60" class="edge">
<title>Node36&#45;&gt;Node38</title>
<path fill="none" stroke="midnightblue" d="M1252.88,-600.23C1285.07,-589.71 1325.67,-576.45 1355.9,-566.58"/>
<polygon fill="midnightblue" stroke="midnightblue" points="1251.6,-596.96 1243.18,-603.4 1253.77,-603.62 1251.6,-596.96"/>
</g>
</g>
</svg>
