<?xml version="1.0" encoding="UTF-8" standalone="no"?>
<!DOCTYPE svg PUBLIC "-//W3C//DTD SVG 1.1//EN"
 "http://www.w3.org/Graphics/SVG/1.1/DTD/svg11.dtd">
<!-- Generated by graphviz version 2.44.0 ()
 -->
<!-- Title: include/yaclib Pages: 1 -->
<svg width="182pt" height="327pt"
 viewBox="0.00 0.00 182.00 327.00" xmlns="http://www.w3.org/2000/svg" xmlns:xlink="http://www.w3.org/1999/xlink">
<g id="graph0" class="graph" transform="scale(1 1) rotate(0) translate(4 323)">
<title>include/yaclib</title>
<g id="clust1" class="cluster">
<title>clusterdir_d44c64559bbebec7f509842c48db8b23</title>
<g id="a_clust1"><a xlink:href="dir_d44c64559bbebec7f509842c48db8b23.html" target="_top" xlink:title="include">
<polygon fill="#ddddee" stroke="black" points="8,-8 8,-311 166,-311 166,-8 8,-8"/>
<text text-anchor="middle" x="87" y="-299" font-family="Helvetica,sans-Serif" font-size="10.00">include</text>
</a>
</g>
</g>
<g id="clust2" class="cluster">
<title>clusterdir_5202e9473254619c80971b7f5a23629e</title>
<g id="a_clust2"><a xlink:href="dir_5202e9473254619c80971b7f5a23629e.html" target="_top">
<polygon fill="#eeeeff" stroke="black" points="16,-16 16,-284 158,-284 158,-16 16,-16"/>
</a>
</g>
</g>
<!-- dir_5202e9473254619c80971b7f5a23629e -->
<g id="node1" class="node">
<title>dir_5202e9473254619c80971b7f5a23629e</title>
<text text-anchor="middle" x="123" y="-255.5" font-family="Helvetica,sans-Serif" font-size="10.00">yaclib</text>
</g>
<!-- dir_b9c60d6ac2345286a03f7e9bdef04560 -->
<g id="node2" class="node">
<title>dir_b9c60d6ac2345286a03f7e9bdef04560</title>
<g id="a_node2"><a xlink:href="dir_b9c60d6ac2345286a03f7e9bdef04560.html" target="_top" xlink:title="algo">
<polygon fill="white" stroke="red" points="78,-276 24,-276 24,-240 78,-240 78,-276"/>
<text text-anchor="middle" x="51" y="-255.5" font-family="Helvetica,sans-Serif" font-size="10.00">algo</text>
</a>
</g>
</g>
<!-- dir_4063a9e34a1302ac947dfe60cb383789 -->
<g id="node3" class="node">
<title>dir_4063a9e34a1302ac947dfe60cb383789</title>
<g id="a_node3"><a xlink:href="dir_4063a9e34a1302ac947dfe60cb383789.html" target="_top" xlink:title="async">
<polygon fill="white" stroke="red" points="78,-204 24,-204 24,-168 78,-168 78,-204"/>
<text text-anchor="middle" x="51" y="-183.5" font-family="Helvetica,sans-Serif" font-size="10.00">async</text>
</a>
</g>
</g>
<!-- dir_b9c60d6ac2345286a03f7e9bdef04560&#45;&gt;dir_4063a9e34a1302ac947dfe60cb383789 -->
<g id="edge2" class="edge">
<title>dir_b9c60d6ac2345286a03f7e9bdef04560&#45;&gt;dir_4063a9e34a1302ac947dfe60cb383789</title>
<path fill="none" stroke="black" d="M45.08,-239.7C44.29,-231.98 44.06,-222.71 44.4,-214.11"/>
<polygon fill="black" stroke="black" points="47.9,-214.32 45.1,-204.1 40.92,-213.84 47.9,-214.32"/>
<g id="a_edge2&#45;headlabel"><a xlink:href="dir_000003_000005.html" target="_top" xlink:title="7">
<text text-anchor="middle" x="50.48" y="-215.61" font-family="Helvetica,sans-Serif" font-size="10.00">7</text>
</a>
</g>
</g>
<!-- dir_9463e03d191b6d61661112ff0fb64dc7 -->
<g id="node5" class="node">
<title>dir_9463e03d191b6d61661112ff0fb64dc7</title>
<g id="a_node5"><a xlink:href="dir_9463e03d191b6d61661112ff0fb64dc7.html" target="_top" xlink:title="util">
<polygon fill="white" stroke="black" points="124,-60 70,-60 70,-24 124,-24 124,-60"/>
<text text-anchor="middle" x="97" y="-39.5" font-family="Helvetica,sans-Serif" font-size="10.00">util</text>
</a>
</g>
</g>
<!-- dir_b9c60d6ac2345286a03f7e9bdef04560&#45;&gt;dir_9463e03d191b6d61661112ff0fb64dc7 -->
<g id="edge3" class="edge">
<title>dir_b9c60d6ac2345286a03f7e9bdef04560&#45;&gt;dir_9463e03d191b6d61661112ff0fb64dc7</title>
<path fill="none" stroke="black" d="M65.96,-239.55C73.54,-229.74 82.13,-216.91 87,-204 103.77,-159.5 102.7,-103.2 100.07,-70.33"/>
<polygon fill="black" stroke="black" points="103.53,-69.78 99.14,-60.13 96.56,-70.41 103.53,-69.78"/>
<g id="a_edge3&#45;headlabel"><a xlink:href="dir_000003_000008.html" target="_top" xlink:title="3">
<text text-anchor="middle" x="106.68" y="-70.6" font-family="Helvetica,sans-Serif" font-size="10.00">3</text>
</a>
</g>
</g>
<!-- dir_4063a9e34a1302ac947dfe60cb383789&#45;&gt;dir_b9c60d6ac2345286a03f7e9bdef04560 -->
<g id="edge6" class="edge">
<title>dir_4063a9e34a1302ac947dfe60cb383789&#45;&gt;dir_b9c60d6ac2345286a03f7e9bdef04560</title>
<path fill="none" stroke="black" d="M56.9,-204.1C57.7,-211.79 57.94,-221.05 57.6,-229.67"/>
<polygon fill="black" stroke="black" points="54.11,-229.48 56.92,-239.7 61.09,-229.96 54.11,-229.48"/>
<g id="a_edge6&#45;headlabel"><a xlink:href="dir_000005_000003.html" target="_top" xlink:title="1">
<text text-anchor="middle" x="51.52" y="-223.2" font-family="Helvetica,sans-Serif" font-size="10.00">1</text>
</a>
</g>
</g>
<!-- dir_f6a9384b5ccd990c15687caf98c8deaa -->
<g id="node4" class="node">
<title>dir_f6a9384b5ccd990c15687caf98c8deaa</title>
<g id="a_node4"><a xlink:href="dir_f6a9384b5ccd990c15687caf98c8deaa.html" target="_top" xlink:title="executor">
<polygon fill="white" stroke="black" points="78,-132 24,-132 24,-96 78,-96 78,-132"/>
<text text-anchor="middle" x="51" y="-111.5" font-family="Helvetica,sans-Serif" font-size="10.00">executor</text>
</a>
</g>
</g>
<!-- dir_4063a9e34a1302ac947dfe60cb383789&#45;&gt;dir_f6a9384b5ccd990c15687caf98c8deaa -->
<g id="edge5" class="edge">
<title>dir_4063a9e34a1302ac947dfe60cb383789&#45;&gt;dir_f6a9384b5ccd990c15687caf98c8deaa</title>
<path fill="none" stroke="black" d="M51,-167.7C51,-159.98 51,-150.71 51,-142.11"/>
<polygon fill="black" stroke="black" points="54.5,-142.1 51,-132.1 47.5,-142.1 54.5,-142.1"/>
<g id="a_edge5&#45;headlabel"><a xlink:href="dir_000005_000007.html" target="_top" xlink:title="5">
<text text-anchor="middle" x="57.34" y="-143.2" font-family="Helvetica,sans-Serif" font-size="10.00">5</text>
</a>
</g>
</g>
<!-- dir_4063a9e34a1302ac947dfe60cb383789&#45;&gt;dir_9463e03d191b6d61661112ff0fb64dc7 -->
<g id="edge4" class="edge">
<title>dir_4063a9e34a1302ac947dfe60cb383789&#45;&gt;dir_9463e03d191b6d61661112ff0fb64dc7</title>
<path fill="none" stroke="black" d="M66.03,-167.58C73.62,-157.78 82.22,-144.94 87,-132 94.32,-112.22 96.69,-88.42 97.3,-70.41"/>
<polygon fill="black" stroke="black" points="100.8,-70.35 97.48,-60.29 93.8,-70.23 100.8,-70.35"/>
<g id="a_edge4&#45;headlabel"><a xlink:href="dir_000005_000008.html" target="_top" xlink:title="6">
<text text-anchor="middle" x="103.57" y="-71.5" font-family="Helvetica,sans-Serif" font-size="10.00">6</text>
</a>
</g>
</g>
<!-- dir_f6a9384b5ccd990c15687caf98c8deaa&#45;&gt;dir_9463e03d191b6d61661112ff0fb64dc7 -->
<g id="edge1" class="edge">
<title>dir_f6a9384b5ccd990c15687caf98c8deaa&#45;&gt;dir_9463e03d191b6d61661112ff0fb64dc7</title>
<path fill="none" stroke="black" d="M62.37,-95.7C67.72,-87.56 74.2,-77.69 80.11,-68.7"/>
<polygon fill="black" stroke="black" points="83.19,-70.38 85.76,-60.1 77.34,-66.54 83.19,-70.38"/>
<g id="a_edge1&#45;headlabel"><a xlink:href="dir_000007_000008.html" target="_top" xlink:title="4">
<text text-anchor="middle" x="83.59" y="-72.45" font-family="Helvetica,sans-Serif" font-size="10.00">4</text>
</a>
</g>
</g>
</g>
</svg>
