<?xml version="1.0" encoding="UTF-8" standalone="no"?>
<!DOCTYPE svg PUBLIC "-//W3C//DTD SVG 1.1//EN"
 "http://www.w3.org/Graphics/SVG/1.1/DTD/svg11.dtd">
<!-- Generated by graphviz version 2.44.0 ()
 -->
<!-- Title: include/yaclib/async/detail Pages: 1 -->
<svg width="150pt" height="223pt"
 viewBox="0.00 0.00 150.00 223.00" xmlns="http://www.w3.org/2000/svg" xmlns:xlink="http://www.w3.org/1999/xlink">
<g id="graph0" class="graph" transform="scale(1 1) rotate(0) translate(4 219)">
<title>include/yaclib/async/detail</title>
<g id="clust1" class="cluster">
<title>clusterdir_4063a9e34a1302ac947dfe60cb383789</title>
<g id="a_clust1"><a xlink:href="dir_4063a9e34a1302ac947dfe60cb383789.html" target="_top" xlink:title="async">
<polygon fill="#ddddee" stroke="black" points="8,-136 8,-207 78,-207 78,-136 8,-136"/>
<text text-anchor="middle" x="43" y="-195" font-family="Helvetica,sans-Serif" font-size="10.00">async</text>
</a>
</g>
</g>
<!-- dir_96588bce79aa7594b5dbc1ba98c8d3ae -->
<g id="node1" class="node">
<title>dir_96588bce79aa7594b5dbc1ba98c8d3ae</title>
<g id="a_node1"><a xlink:href="dir_96588bce79aa7594b5dbc1ba98c8d3ae.html" target="_top" xlink:title="detail">
<polygon fill="#eeeeff" stroke="black" points="70,-180 16,-180 16,-144 70,-144 70,-180"/>
<text text-anchor="middle" x="43" y="-159.5" font-family="Helvetica,sans-Serif" font-size="10.00">detail</text>
</a>
</g>
</g>
<!-- dir_9463e03d191b6d61661112ff0fb64dc7 -->
<g id="node2" class="node">
<title>dir_9463e03d191b6d61661112ff0fb64dc7</title>
<g id="a_node2"><a xlink:href="dir_9463e03d191b6d61661112ff0fb64dc7.html" target="_top" xlink:title="util">
<polygon fill="none" stroke="black" points="70,-36 16,-36 16,0 70,0 70,-36"/>
<text text-anchor="middle" x="43" y="-15.5" font-family="Helvetica,sans-Serif" font-size="10.00">util</text>
</a>
</g>
</g>
<!-- dir_96588bce79aa7594b5dbc1ba98c8d3ae&#45;&gt;dir_9463e03d191b6d61661112ff0fb64dc7 -->
<g id="edge1" class="edge">
<title>dir_96588bce79aa7594b5dbc1ba98c8d3ae&#45;&gt;dir_9463e03d191b6d61661112ff0fb64dc7</title>
<path fill="none" stroke="black" d="M27.39,-143.77C19.63,-134.03 11.05,-121.18 7,-108 2.3,-92.71 2.3,-87.29 7,-72 10.01,-62.22 15.51,-52.62 21.32,-44.33"/>
<polygon fill="black" stroke="black" points="24.19,-46.33 27.39,-36.23 18.59,-42.13 24.19,-46.33"/>
<g id="a_edge1&#45;headlabel"><a xlink:href="dir_000006_000008.html" target="_top" xlink:title="3">
<text text-anchor="middle" x="24.31" y="-48.41" font-family="Helvetica,sans-Serif" font-size="10.00">3</text>
</a>
</g>
</g>
<!-- dir_b9c60d6ac2345286a03f7e9bdef04560 -->
<g id="node3" class="node">
<title>dir_b9c60d6ac2345286a03f7e9bdef04560</title>
<g id="a_node3"><a xlink:href="dir_b9c60d6ac2345286a03f7e9bdef04560.html" target="_top" xlink:title="algo">
<polygon fill="none" stroke="red" points="70,-108 16,-108 16,-72 70,-72 70,-108"/>
<text text-anchor="middle" x="43" y="-87.5" font-family="Helvetica,sans-Serif" font-size="10.00">algo</text>
</a>
</g>
</g>
<!-- dir_96588bce79aa7594b5dbc1ba98c8d3ae&#45;&gt;dir_b9c60d6ac2345286a03f7e9bdef04560 -->
<g id="edge2" class="edge">
<title>dir_96588bce79aa7594b5dbc1ba98c8d3ae&#45;&gt;dir_b9c60d6ac2345286a03f7e9bdef04560</title>
<path fill="none" stroke="black" d="M37.08,-143.7C36.29,-135.98 36.06,-126.71 36.4,-118.11"/>
<polygon fill="black" stroke="black" points="39.9,-118.32 37.1,-108.1 32.92,-117.84 39.9,-118.32"/>
<g id="a_edge2&#45;headlabel"><a xlink:href="dir_000006_000003.html" target="_top" xlink:title="1">
<text text-anchor="middle" x="42.48" y="-119.61" font-family="Helvetica,sans-Serif" font-size="10.00">1</text>
</a>
</g>
</g>
<!-- dir_f6a9384b5ccd990c15687caf98c8deaa -->
<g id="node4" class="node">
<title>dir_f6a9384b5ccd990c15687caf98c8deaa</title>
<g id="a_node4"><a xlink:href="dir_f6a9384b5ccd990c15687caf98c8deaa.html" target="_top" xlink:title="executor">
<polygon fill="none" stroke="black" points="142,-108 88,-108 88,-72 142,-72 142,-108"/>
<text text-anchor="middle" x="115" y="-87.5" font-family="Helvetica,sans-Serif" font-size="10.00">executor</text>
</a>
</g>
</g>
<!-- dir_96588bce79aa7594b5dbc1ba98c8d3ae&#45;&gt;dir_f6a9384b5ccd990c15687caf98c8deaa -->
<g id="edge3" class="edge">
<title>dir_96588bce79aa7594b5dbc1ba98c8d3ae&#45;&gt;dir_f6a9384b5ccd990c15687caf98c8deaa</title>
<path fill="none" stroke="black" d="M60.8,-143.7C69.6,-135.14 80.38,-124.66 90,-115.3"/>
<polygon fill="black" stroke="black" points="92.68,-117.58 97.41,-108.1 87.8,-112.57 92.68,-117.58"/>
<g id="a_edge3&#45;headlabel"><a xlink:href="dir_000006_000007.html" target="_top" xlink:title="3">
<text text-anchor="middle" x="92.08" y="-119.63" font-family="Helvetica,sans-Serif" font-size="10.00">3</text>
</a>
</g>
</g>
<!-- dir_b9c60d6ac2345286a03f7e9bdef04560&#45;&gt;dir_96588bce79aa7594b5dbc1ba98c8d3ae -->
<g id="edge6" class="edge">
<title>dir_b9c60d6ac2345286a03f7e9bdef04560&#45;&gt;dir_96588bce79aa7594b5dbc1ba98c8d3ae</title>
<path fill="none" stroke="black" d="M48.9,-108.1C49.7,-115.79 49.94,-125.05 49.6,-133.67"/>
<polygon fill="black" stroke="black" points="46.11,-133.48 48.92,-143.7 53.09,-133.96 46.11,-133.48"/>
<g id="a_edge6&#45;headlabel"><a xlink:href="dir_000003_000006.html" target="_top" xlink:title="3">
<text text-anchor="middle" x="43.52" y="-127.2" font-family="Helvetica,sans-Serif" font-size="10.00">3</text>
</a>
</g>
</g>
<!-- dir_b9c60d6ac2345286a03f7e9bdef04560&#45;&gt;dir_9463e03d191b6d61661112ff0fb64dc7 -->
<g id="edge5" class="edge">
<title>dir_b9c60d6ac2345286a03f7e9bdef04560&#45;&gt;dir_9463e03d191b6d61661112ff0fb64dc7</title>
<path fill="none" stroke="black" d="M43,-71.7C43,-63.98 43,-54.71 43,-46.11"/>
<polygon fill="black" stroke="black" points="46.5,-46.1 43,-36.1 39.5,-46.1 46.5,-46.1"/>
<g id="a_edge5&#45;headlabel"><a xlink:href="dir_000003_000008.html" target="_top" xlink:title="3">
<text text-anchor="middle" x="49.34" y="-47.2" font-family="Helvetica,sans-Serif" font-size="10.00">3</text>
</a>
</g>
</g>
<!-- dir_f6a9384b5ccd990c15687caf98c8deaa&#45;&gt;dir_9463e03d191b6d61661112ff0fb64dc7 -->
<g id="edge4" class="edge">
<title>dir_f6a9384b5ccd990c15687caf98c8deaa&#45;&gt;dir_9463e03d191b6d61661112ff0fb64dc7</title>
<path fill="none" stroke="black" d="M97.2,-71.7C88.4,-63.14 77.62,-52.66 68,-43.3"/>
<polygon fill="black" stroke="black" points="70.2,-40.57 60.59,-36.1 65.32,-45.58 70.2,-40.57"/>
<g id="a_edge4&#45;headlabel"><a xlink:href="dir_000007_000008.html" target="_top" xlink:title="4">
<text text-anchor="middle" x="74.76" y="-38.54" font-family="Helvetica,sans-Serif" font-size="10.00">4</text>
</a>
</g>
</g>
</g>
</svg>
