<?xml version="1.0" encoding="UTF-8" standalone="no"?>
<!DOCTYPE svg PUBLIC "-//W3C//DTD SVG 1.1//EN"
 "http://www.w3.org/Graphics/SVG/1.1/DTD/svg11.dtd">
<!-- Generated by graphviz version 2.44.0 ()
 -->
<!-- Title: include/yaclib/async Pages: 1 -->
<svg width="204pt" height="319pt"
 viewBox="0.00 0.00 204.00 319.00" xmlns="http://www.w3.org/2000/svg" xmlns:xlink="http://www.w3.org/1999/xlink">
<g id="graph0" class="graph" transform="scale(1 1) rotate(0) translate(4 315)">
<title>include/yaclib/async</title>
<g id="clust1" class="cluster">
<title>clusterdir_5202e9473254619c80971b7f5a23629e</title>
<g id="a_clust1"><a xlink:href="dir_5202e9473254619c80971b7f5a23629e.html" target="_top" xlink:title="yaclib">
<polygon fill="#ddddee" stroke="black" points="8,-8 8,-303 188,-303 188,-8 8,-8"/>
<text text-anchor="middle" x="98" y="-291" font-family="Helvetica,sans-Serif" font-size="10.00">yaclib</text>
</a>
</g>
</g>
<g id="clust2" class="cluster">
<title>clusterdir_4063a9e34a1302ac947dfe60cb383789</title>
<g id="a_clust2"><a xlink:href="dir_4063a9e34a1302ac947dfe60cb383789.html" target="_top">
<polygon fill="#eeeeff" stroke="black" points="78,-152 78,-276 150,-276 150,-152 78,-152"/>
</a>
</g>
</g>
<!-- dir_9463e03d191b6d61661112ff0fb64dc7 -->
<g id="node1" class="node">
<title>dir_9463e03d191b6d61661112ff0fb64dc7</title>
<g id="a_node1"><a xlink:href="dir_9463e03d191b6d61661112ff0fb64dc7.html" target="_top" xlink:title="util">
<polygon fill="none" stroke="black" points="137,-52 83,-52 83,-16 137,-16 137,-52"/>
<text text-anchor="middle" x="110" y="-31.5" font-family="Helvetica,sans-Serif" font-size="10.00">util</text>
</a>
</g>
</g>
<!-- dir_f6a9384b5ccd990c15687caf98c8deaa -->
<g id="node2" class="node">
<title>dir_f6a9384b5ccd990c15687caf98c8deaa</title>
<g id="a_node2"><a xlink:href="dir_f6a9384b5ccd990c15687caf98c8deaa.html" target="_top" xlink:title="executor">
<polygon fill="none" stroke="black" points="160,-124 106,-124 106,-88 160,-88 160,-124"/>
<text text-anchor="middle" x="133" y="-103.5" font-family="Helvetica,sans-Serif" font-size="10.00">executor</text>
</a>
</g>
</g>
<!-- dir_f6a9384b5ccd990c15687caf98c8deaa&#45;&gt;dir_9463e03d191b6d61661112ff0fb64dc7 -->
<g id="edge4" class="edge">
<title>dir_f6a9384b5ccd990c15687caf98c8deaa&#45;&gt;dir_9463e03d191b6d61661112ff0fb64dc7</title>
<path fill="none" stroke="black" d="M127.31,-87.7C124.75,-79.9 121.67,-70.51 118.82,-61.83"/>
<polygon fill="black" stroke="black" points="122.07,-60.51 115.62,-52.1 115.42,-62.7 122.07,-60.51"/>
<g id="a_edge4&#45;headlabel"><a xlink:href="dir_000007_000008.html" target="_top" xlink:title="4">
<text text-anchor="middle" x="125.89" y="-60.54" font-family="Helvetica,sans-Serif" font-size="10.00">4</text>
</a>
</g>
</g>
<!-- dir_b9c60d6ac2345286a03f7e9bdef04560 -->
<g id="node3" class="node">
<title>dir_b9c60d6ac2345286a03f7e9bdef04560</title>
<g id="a_node3"><a xlink:href="dir_b9c60d6ac2345286a03f7e9bdef04560.html" target="_top" xlink:title="algo">
<polygon fill="none" stroke="red" points="70,-268 16,-268 16,-232 70,-232 70,-268"/>
<text text-anchor="middle" x="43" y="-247.5" font-family="Helvetica,sans-Serif" font-size="10.00">algo</text>
</a>
</g>
</g>
<!-- dir_b9c60d6ac2345286a03f7e9bdef04560&#45;&gt;dir_9463e03d191b6d61661112ff0fb64dc7 -->
<g id="edge6" class="edge">
<title>dir_b9c60d6ac2345286a03f7e9bdef04560&#45;&gt;dir_9463e03d191b6d61661112ff0fb64dc7</title>
<path fill="none" stroke="black" d="M47.74,-231.98C56.03,-202.51 73.91,-140.1 91,-88 93.82,-79.42 97.08,-70.12 100.09,-61.75"/>
<polygon fill="black" stroke="black" points="103.47,-62.7 103.6,-52.1 96.89,-60.3 103.47,-62.7"/>
<g id="a_edge6&#45;headlabel"><a xlink:href="dir_000003_000008.html" target="_top" xlink:title="3">
<text text-anchor="middle" x="104.91" y="-64.55" font-family="Helvetica,sans-Serif" font-size="10.00">3</text>
</a>
</g>
</g>
<!-- dir_4063a9e34a1302ac947dfe60cb383789 -->
<g id="node4" class="node">
<title>dir_4063a9e34a1302ac947dfe60cb383789</title>
<text text-anchor="middle" x="115" y="-247.5" font-family="Helvetica,sans-Serif" font-size="10.00">async</text>
</g>
<!-- dir_b9c60d6ac2345286a03f7e9bdef04560&#45;&gt;dir_4063a9e34a1302ac947dfe60cb383789 -->
<g id="edge5" class="edge">
<title>dir_b9c60d6ac2345286a03f7e9bdef04560&#45;&gt;dir_4063a9e34a1302ac947dfe60cb383789</title>
<path fill="none" stroke="black" d="M70.28,-250C72.74,-250 75.19,-250 77.65,-250"/>
<polygon fill="black" stroke="black" points="77.75,-253.5 87.75,-250 77.75,-246.5 77.75,-253.5"/>
<g id="a_edge5&#45;headlabel"><a xlink:href="dir_000003_000005.html" target="_top" xlink:title="7">
<text text-anchor="middle" x="74.15" y="-253.84" font-family="Helvetica,sans-Serif" font-size="10.00">7</text>
</a>
</g>
</g>
<!-- dir_96588bce79aa7594b5dbc1ba98c8d3ae -->
<g id="node5" class="node">
<title>dir_96588bce79aa7594b5dbc1ba98c8d3ae</title>
<g id="a_node5"><a xlink:href="dir_96588bce79aa7594b5dbc1ba98c8d3ae.html" target="_top" xlink:title="detail">
<polygon fill="white" stroke="black" points="140,-196 86,-196 86,-160 140,-160 140,-196"/>
<text text-anchor="middle" x="113" y="-175.5" font-family="Helvetica,sans-Serif" font-size="10.00">detail</text>
</a>
</g>
</g>
<!-- dir_b9c60d6ac2345286a03f7e9bdef04560&#45;&gt;dir_96588bce79aa7594b5dbc1ba98c8d3ae -->
<g id="edge7" class="edge">
<title>dir_b9c60d6ac2345286a03f7e9bdef04560&#45;&gt;dir_96588bce79aa7594b5dbc1ba98c8d3ae</title>
<path fill="none" stroke="black" d="M66.22,-231.7C75.57,-223.22 86.11,-212.86 94.89,-203.58"/>
<polygon fill="black" stroke="black" points="97.58,-205.83 101.79,-196.1 92.44,-201.08 97.58,-205.83"/>
<g id="a_edge7&#45;headlabel"><a xlink:href="dir_000003_000006.html" target="_top" xlink:title="3">
<text text-anchor="middle" x="97.23" y="-207.9" font-family="Helvetica,sans-Serif" font-size="10.00">3</text>
</a>
</g>
</g>
<!-- dir_4063a9e34a1302ac947dfe60cb383789&#45;&gt;dir_9463e03d191b6d61661112ff0fb64dc7 -->
<g id="edge8" class="edge">
<title>dir_4063a9e34a1302ac947dfe60cb383789&#45;&gt;dir_9463e03d191b6d61661112ff0fb64dc7</title>
<path fill="none" stroke="black" d="M131.3,-231.67C139.61,-221.9 149.18,-209.06 155,-196 174.7,-151.79 188.71,-132.21 169,-88 163.83,-76.41 154.73,-66.29 145.21,-58.09"/>
<polygon fill="black" stroke="black" points="147.17,-55.18 137.18,-51.66 142.8,-60.65 147.17,-55.18"/>
<g id="a_edge8&#45;headlabel"><a xlink:href="dir_000005_000008.html" target="_top" xlink:title="6">
<text text-anchor="middle" x="151.76" y="-52.71" font-family="Helvetica,sans-Serif" font-size="10.00">6</text>
</a>
</g>
</g>
<!-- dir_4063a9e34a1302ac947dfe60cb383789&#45;&gt;dir_f6a9384b5ccd990c15687caf98c8deaa -->
<g id="edge10" class="edge">
<title>dir_4063a9e34a1302ac947dfe60cb383789&#45;&gt;dir_f6a9384b5ccd990c15687caf98c8deaa</title>
<path fill="none" stroke="black" d="M129.75,-231.63C137.09,-221.85 145.19,-209.01 149,-196 155.01,-175.5 150.11,-151.65 144.2,-133.81"/>
<polygon fill="black" stroke="black" points="147.47,-132.54 140.78,-124.32 140.88,-134.91 147.47,-132.54"/>
<g id="a_edge10&#45;headlabel"><a xlink:href="dir_000005_000007.html" target="_top" xlink:title="5">
<text text-anchor="middle" x="151.36" y="-132.45" font-family="Helvetica,sans-Serif" font-size="10.00">5</text>
</a>
</g>
</g>
<!-- dir_4063a9e34a1302ac947dfe60cb383789&#45;&gt;dir_96588bce79aa7594b5dbc1ba98c8d3ae -->
<g id="edge9" class="edge">
<title>dir_4063a9e34a1302ac947dfe60cb383789&#45;&gt;dir_96588bce79aa7594b5dbc1ba98c8d3ae</title>
<path fill="none" stroke="black" d="M114.51,-231.7C114.29,-223.98 114.02,-214.71 113.77,-206.11"/>
<polygon fill="black" stroke="black" points="117.27,-206 113.49,-196.1 110.28,-206.2 117.27,-206"/>
<g id="a_edge9&#45;headlabel"><a xlink:href="dir_000005_000006.html" target="_top" xlink:title="7">
<text text-anchor="middle" x="120.21" y="-207.01" font-family="Helvetica,sans-Serif" font-size="10.00">7</text>
</a>
</g>
</g>
<!-- dir_96588bce79aa7594b5dbc1ba98c8d3ae&#45;&gt;dir_9463e03d191b6d61661112ff0fb64dc7 -->
<g id="edge1" class="edge">
<title>dir_96588bce79aa7594b5dbc1ba98c8d3ae&#45;&gt;dir_9463e03d191b6d61661112ff0fb64dc7</title>
<path fill="none" stroke="black" d="M106.35,-159.63C102.8,-149.42 98.8,-136.17 97,-124 94.66,-108.17 95.08,-103.88 97,-88 98.02,-79.53 99.93,-70.47 101.98,-62.28"/>
<polygon fill="black" stroke="black" points="105.4,-63.03 104.59,-52.47 98.64,-61.23 105.4,-63.03"/>
<g id="a_edge1&#45;headlabel"><a xlink:href="dir_000006_000008.html" target="_top" xlink:title="3">
<text text-anchor="middle" x="107.22" y="-64.74" font-family="Helvetica,sans-Serif" font-size="10.00">3</text>
</a>
</g>
</g>
<!-- dir_96588bce79aa7594b5dbc1ba98c8d3ae&#45;&gt;dir_f6a9384b5ccd990c15687caf98c8deaa -->
<g id="edge3" class="edge">
<title>dir_96588bce79aa7594b5dbc1ba98c8d3ae&#45;&gt;dir_f6a9384b5ccd990c15687caf98c8deaa</title>
<path fill="none" stroke="black" d="M117.94,-159.7C120.17,-151.9 122.85,-142.51 125.33,-133.83"/>
<polygon fill="black" stroke="black" points="128.73,-134.68 128.11,-124.1 122,-132.76 128.73,-134.68"/>
<g id="a_edge3&#45;headlabel"><a xlink:href="dir_000006_000007.html" target="_top" xlink:title="3">
<text text-anchor="middle" x="130.47" y="-136.42" font-family="Helvetica,sans-Serif" font-size="10.00">3</text>
</a>
</g>
</g>
<!-- dir_96588bce79aa7594b5dbc1ba98c8d3ae&#45;&gt;dir_b9c60d6ac2345286a03f7e9bdef04560 -->
<g id="edge2" class="edge">
<title>dir_96588bce79aa7594b5dbc1ba98c8d3ae&#45;&gt;dir_b9c60d6ac2345286a03f7e9bdef04560</title>
<path fill="none" stroke="black" d="M90,-196.1C80.67,-204.55 70.12,-214.9 61.31,-224.2"/>
<polygon fill="black" stroke="black" points="58.6,-221.98 54.39,-231.7 63.74,-226.73 58.6,-221.98"/>
<g id="a_edge2&#45;headlabel"><a xlink:href="dir_000006_000003.html" target="_top" xlink:title="1">
<text text-anchor="middle" x="58.95" y="-214.91" font-family="Helvetica,sans-Serif" font-size="10.00">1</text>
</a>
</g>
</g>
</g>
</svg>
