<?xml version="1.0" encoding="UTF-8" standalone="no"?>
<!DOCTYPE svg PUBLIC "-//W3C//DTD SVG 1.1//EN"
 "http://www.w3.org/Graphics/SVG/1.1/DTD/svg11.dtd">
<!-- Generated by graphviz version 2.44.0 ()
 -->
<!-- Title: src Pages: 1 -->
<svg width="310pt" height="204pt"
 viewBox="0.00 0.00 310.00 204.00" xmlns="http://www.w3.org/2000/svg" xmlns:xlink="http://www.w3.org/1999/xlink">
<g id="graph0" class="graph" transform="scale(1 1) rotate(0) translate(4 200)">
<title>src</title>
<g id="clust1" class="cluster">
<title>clusterdir_68267d1309a1af8e8297ef4c3efbcdba</title>
<g id="a_clust1"><a xlink:href="dir_68267d1309a1af8e8297ef4c3efbcdba.html" target="_top">
<polygon fill="#eeeeff" stroke="black" points="8,-64 8,-188 294,-188 294,-64 8,-64"/>
</a>
</g>
</g>
<!-- dir_68267d1309a1af8e8297ef4c3efbcdba -->
<g id="node1" class="node">
<title>dir_68267d1309a1af8e8297ef4c3efbcdba</title>
<text text-anchor="middle" x="259" y="-159.5" font-family="Helvetica,sans-Serif" font-size="10.00">src</text>
</g>
<!-- dir_8111f045ab156cab490d6e0f8a4c6c64 -->
<g id="node2" class="node">
<title>dir_8111f045ab156cab490d6e0f8a4c6c64</title>
<g id="a_node2"><a xlink:href="dir_8111f045ab156cab490d6e0f8a4c6c64.html" target="_top" xlink:title="algo">
<polygon fill="white" stroke="black" points="142,-180 88,-180 88,-144 142,-144 142,-180"/>
<text text-anchor="middle" x="115" y="-159.5" font-family="Helvetica,sans-Serif" font-size="10.00">algo</text>
</a>
</g>
</g>
<!-- dir_d44c64559bbebec7f509842c48db8b23 -->
<g id="node6" class="node">
<title>dir_d44c64559bbebec7f509842c48db8b23</title>
<g id="a_node6"><a xlink:href="dir_d44c64559bbebec7f509842c48db8b23.html" target="_top" xlink:title="include">
<polygon fill="none" stroke="red" points="144,-36 90,-36 90,0 144,0 144,-36"/>
<text text-anchor="middle" x="117" y="-15.5" font-family="Helvetica,sans-Serif" font-size="10.00">include</text>
</a>
</g>
</g>
<!-- dir_8111f045ab156cab490d6e0f8a4c6c64&#45;&gt;dir_d44c64559bbebec7f509842c48db8b23 -->
<g id="edge1" class="edge">
<title>dir_8111f045ab156cab490d6e0f8a4c6c64&#45;&gt;dir_d44c64559bbebec7f509842c48db8b23</title>
<path fill="none" stroke="black" d="M115.24,-143.87C115.58,-119.67 116.21,-75.21 116.61,-46.39"/>
<polygon fill="black" stroke="black" points="120.12,-46.24 116.76,-36.19 113.12,-46.14 120.12,-46.24"/>
<g id="a_edge1&#45;headlabel"><a xlink:href="dir_000010_000001.html" target="_top" xlink:title="2">
<text text-anchor="middle" x="122.91" y="-47.37" font-family="Helvetica,sans-Serif" font-size="10.00">2</text>
</a>
</g>
</g>
<!-- dir_b60a79ed93f318a37dbc9781b4452c17 -->
<g id="node3" class="node">
<title>dir_b60a79ed93f318a37dbc9781b4452c17</title>
<g id="a_node3"><a xlink:href="dir_b60a79ed93f318a37dbc9781b4452c17.html" target="_top" xlink:title="async">
<polygon fill="white" stroke="black" points="214,-180 160,-180 160,-144 214,-144 214,-180"/>
<text text-anchor="middle" x="187" y="-159.5" font-family="Helvetica,sans-Serif" font-size="10.00">async</text>
</a>
</g>
</g>
<!-- dir_b60a79ed93f318a37dbc9781b4452c17&#45;&gt;dir_d44c64559bbebec7f509842c48db8b23 -->
<g id="edge3" class="edge">
<title>dir_b60a79ed93f318a37dbc9781b4452c17&#45;&gt;dir_d44c64559bbebec7f509842c48db8b23</title>
<path fill="none" stroke="black" d="M178.56,-143.87C166.47,-119.35 144.13,-74.03 129.94,-45.26"/>
<polygon fill="black" stroke="black" points="133.03,-43.61 125.47,-36.19 126.76,-46.71 133.03,-43.61"/>
<g id="a_edge3&#45;headlabel"><a xlink:href="dir_000011_000001.html" target="_top" xlink:title="5">
<text text-anchor="middle" x="137.17" y="-43.08" font-family="Helvetica,sans-Serif" font-size="10.00">5</text>
</a>
</g>
</g>
<!-- dir_47269c51f9fc619a45fe5a093bf2488f -->
<g id="node4" class="node">
<title>dir_47269c51f9fc619a45fe5a093bf2488f</title>
<g id="a_node4"><a xlink:href="dir_47269c51f9fc619a45fe5a093bf2488f.html" target="_top" xlink:title="executor">
<polygon fill="white" stroke="black" points="70,-180 16,-180 16,-144 70,-144 70,-180"/>
<text text-anchor="middle" x="43" y="-159.5" font-family="Helvetica,sans-Serif" font-size="10.00">executor</text>
</a>
</g>
</g>
<!-- dir_b7878ad5ecbf2506f4125b9d34c97e45 -->
<g id="node5" class="node">
<title>dir_b7878ad5ecbf2506f4125b9d34c97e45</title>
<g id="a_node5"><a xlink:href="dir_b7878ad5ecbf2506f4125b9d34c97e45.html" target="_top" xlink:title="util">
<polygon fill="white" stroke="black" points="70,-108 16,-108 16,-72 70,-72 70,-108"/>
<text text-anchor="middle" x="43" y="-87.5" font-family="Helvetica,sans-Serif" font-size="10.00">util</text>
</a>
</g>
</g>
<!-- dir_47269c51f9fc619a45fe5a093bf2488f&#45;&gt;dir_b7878ad5ecbf2506f4125b9d34c97e45 -->
<g id="edge4" class="edge">
<title>dir_47269c51f9fc619a45fe5a093bf2488f&#45;&gt;dir_b7878ad5ecbf2506f4125b9d34c97e45</title>
<path fill="none" stroke="black" d="M43,-143.7C43,-135.98 43,-126.71 43,-118.11"/>
<polygon fill="black" stroke="black" points="46.5,-118.1 43,-108.1 39.5,-118.1 46.5,-118.1"/>
<g id="a_edge4&#45;headlabel"><a xlink:href="dir_000012_000016.html" target="_top" xlink:title="4">
<text text-anchor="middle" x="49.34" y="-119.2" font-family="Helvetica,sans-Serif" font-size="10.00">4</text>
</a>
</g>
</g>
<!-- dir_47269c51f9fc619a45fe5a093bf2488f&#45;&gt;dir_d44c64559bbebec7f509842c48db8b23 -->
<g id="edge5" class="edge">
<title>dir_47269c51f9fc619a45fe5a093bf2488f&#45;&gt;dir_d44c64559bbebec7f509842c48db8b23</title>
<path fill="none" stroke="black" d="M55.88,-143.87C63.17,-133.74 72.17,-120.49 79,-108 90.03,-87.82 100.13,-63.77 107.14,-45.76"/>
<polygon fill="black" stroke="black" points="110.5,-46.78 110.8,-36.19 103.96,-44.28 110.5,-46.78"/>
<g id="a_edge5&#45;headlabel"><a xlink:href="dir_000012_000001.html" target="_top" xlink:title="5">
<text text-anchor="middle" x="111.87" y="-48.65" font-family="Helvetica,sans-Serif" font-size="10.00">5</text>
</a>
</g>
</g>
<!-- dir_b7878ad5ecbf2506f4125b9d34c97e45&#45;&gt;dir_d44c64559bbebec7f509842c48db8b23 -->
<g id="edge2" class="edge">
<title>dir_b7878ad5ecbf2506f4125b9d34c97e45&#45;&gt;dir_d44c64559bbebec7f509842c48db8b23</title>
<path fill="none" stroke="black" d="M61.29,-71.7C70.43,-63.05 81.64,-52.45 91.6,-43.03"/>
<polygon fill="black" stroke="black" points="94.06,-45.52 98.92,-36.1 89.25,-40.43 94.06,-45.52"/>
<g id="a_edge2&#45;headlabel"><a xlink:href="dir_000016_000001.html" target="_top" xlink:title="4">
<text text-anchor="middle" x="93.4" y="-47.55" font-family="Helvetica,sans-Serif" font-size="10.00">4</text>
</a>
</g>
</g>
</g>
</svg>
