<?xml version="1.0" encoding="UTF-8" standalone="no"?>
<!DOCTYPE svg PUBLIC "-//W3C//DTD SVG 1.1//EN"
 "http://www.w3.org/Graphics/SVG/1.1/DTD/svg11.dtd">
<!-- Generated by graphviz version 2.44.0 ()
 -->
<!-- Title: include/yaclib/algo Pages: 1 -->
<svg width="142pt" height="319pt"
 viewBox="0.00 0.00 142.00 319.00" xmlns="http://www.w3.org/2000/svg" xmlns:xlink="http://www.w3.org/1999/xlink">
<g id="graph0" class="graph" transform="scale(1 1) rotate(0) translate(4 315)">
<title>include/yaclib/algo</title>
<g id="clust1" class="cluster">
<title>clusterdir_5202e9473254619c80971b7f5a23629e</title>
<g id="a_clust1"><a xlink:href="dir_5202e9473254619c80971b7f5a23629e.html" target="_top" xlink:title="yaclib">
<polygon fill="#ddddee" stroke="black" points="8,-8 8,-303 126,-303 126,-8 8,-8"/>
<text text-anchor="middle" x="67" y="-291" font-family="Helvetica,sans-Serif" font-size="10.00">yaclib</text>
</a>
</g>
</g>
<g id="clust2" class="cluster">
<title>clusterdir_b9c60d6ac2345286a03f7e9bdef04560</title>
<g id="a_clust2"><a xlink:href="dir_b9c60d6ac2345286a03f7e9bdef04560.html" target="_top">
<polygon fill="#eeeeff" stroke="black" points="16,-152 16,-276 86,-276 86,-152 16,-152"/>
</a>
</g>
</g>
<!-- dir_4063a9e34a1302ac947dfe60cb383789 -->
<g id="node1" class="node">
<title>dir_4063a9e34a1302ac947dfe60cb383789</title>
<g id="a_node1"><a xlink:href="dir_4063a9e34a1302ac947dfe60cb383789.html" target="_top" xlink:title="async">
<polygon fill="none" stroke="red" points="98,-124 44,-124 44,-88 98,-88 98,-124"/>
<text text-anchor="middle" x="71" y="-103.5" font-family="Helvetica,sans-Serif" font-size="10.00">async</text>
</a>
</g>
</g>
<!-- dir_9463e03d191b6d61661112ff0fb64dc7 -->
<g id="node2" class="node">
<title>dir_9463e03d191b6d61661112ff0fb64dc7</title>
<g id="a_node2"><a xlink:href="dir_9463e03d191b6d61661112ff0fb64dc7.html" target="_top" xlink:title="util">
<polygon fill="none" stroke="black" points="98,-52 44,-52 44,-16 98,-16 98,-52"/>
<text text-anchor="middle" x="71" y="-31.5" font-family="Helvetica,sans-Serif" font-size="10.00">util</text>
</a>
</g>
</g>
<!-- dir_4063a9e34a1302ac947dfe60cb383789&#45;&gt;dir_9463e03d191b6d61661112ff0fb64dc7 -->
<g id="edge6" class="edge">
<title>dir_4063a9e34a1302ac947dfe60cb383789&#45;&gt;dir_9463e03d191b6d61661112ff0fb64dc7</title>
<path fill="none" stroke="black" d="M71,-87.7C71,-79.98 71,-70.71 71,-62.11"/>
<polygon fill="black" stroke="black" points="74.5,-62.1 71,-52.1 67.5,-62.1 74.5,-62.1"/>
<g id="a_edge6&#45;headlabel"><a xlink:href="dir_000005_000008.html" target="_top" xlink:title="6">
<text text-anchor="middle" x="77.34" y="-63.2" font-family="Helvetica,sans-Serif" font-size="10.00">6</text>
</a>
</g>
</g>
<!-- dir_b9c60d6ac2345286a03f7e9bdef04560 -->
<g id="node3" class="node">
<title>dir_b9c60d6ac2345286a03f7e9bdef04560</title>
<text text-anchor="middle" x="51" y="-247.5" font-family="Helvetica,sans-Serif" font-size="10.00">algo</text>
</g>
<!-- dir_b9c60d6ac2345286a03f7e9bdef04560&#45;&gt;dir_4063a9e34a1302ac947dfe60cb383789 -->
<g id="edge3" class="edge">
<title>dir_b9c60d6ac2345286a03f7e9bdef04560&#45;&gt;dir_4063a9e34a1302ac947dfe60cb383789</title>
<path fill="none" stroke="black" d="M66.61,-231.77C74.37,-222.03 82.95,-209.18 87,-196 93.32,-175.46 88.3,-151.44 82.27,-133.53"/>
<polygon fill="black" stroke="black" points="85.51,-132.2 78.78,-124.02 78.94,-134.61 85.51,-132.2"/>
<g id="a_edge3&#45;headlabel"><a xlink:href="dir_000003_000005.html" target="_top" xlink:title="7">
<text text-anchor="middle" x="89.41" y="-132.1" font-family="Helvetica,sans-Serif" font-size="10.00">7</text>
</a>
</g>
</g>
<!-- dir_b9c60d6ac2345286a03f7e9bdef04560&#45;&gt;dir_9463e03d191b6d61661112ff0fb64dc7 -->
<g id="edge5" class="edge">
<title>dir_b9c60d6ac2345286a03f7e9bdef04560&#45;&gt;dir_9463e03d191b6d61661112ff0fb64dc7</title>
<path fill="none" stroke="black" d="M68.13,-231.81C76.87,-222.07 86.92,-209.23 93,-196 106.62,-166.38 103.87,-156.45 107,-124 108.53,-108.07 111.7,-103.29 107,-88 103.99,-78.22 98.49,-68.62 92.68,-60.33"/>
<polygon fill="black" stroke="black" points="95.41,-58.13 86.61,-52.23 89.81,-62.33 95.41,-58.13"/>
<g id="a_edge5&#45;headlabel"><a xlink:href="dir_000003_000008.html" target="_top" xlink:title="3">
<text text-anchor="middle" x="99.83" y="-56.8" font-family="Helvetica,sans-Serif" font-size="10.00">3</text>
</a>
</g>
</g>
<!-- dir_9039413c522f41ada5cc655e104f9ea8 -->
<g id="node4" class="node">
<title>dir_9039413c522f41ada5cc655e104f9ea8</title>
<g id="a_node4"><a xlink:href="dir_9039413c522f41ada5cc655e104f9ea8.html" target="_top" xlink:title="detail">
<polygon fill="white" stroke="black" points="78,-196 24,-196 24,-160 78,-160 78,-196"/>
<text text-anchor="middle" x="51" y="-175.5" font-family="Helvetica,sans-Serif" font-size="10.00">detail</text>
</a>
</g>
</g>
<!-- dir_b9c60d6ac2345286a03f7e9bdef04560&#45;&gt;dir_9039413c522f41ada5cc655e104f9ea8 -->
<g id="edge4" class="edge">
<title>dir_b9c60d6ac2345286a03f7e9bdef04560&#45;&gt;dir_9039413c522f41ada5cc655e104f9ea8</title>
<path fill="none" stroke="black" d="M51,-231.7C51,-223.98 51,-214.71 51,-206.11"/>
<polygon fill="black" stroke="black" points="54.5,-206.1 51,-196.1 47.5,-206.1 54.5,-206.1"/>
<g id="a_edge4&#45;headlabel"><a xlink:href="dir_000003_000004.html" target="_top" xlink:title="3">
<text text-anchor="middle" x="57.34" y="-207.2" font-family="Helvetica,sans-Serif" font-size="10.00">3</text>
</a>
</g>
</g>
<!-- dir_9039413c522f41ada5cc655e104f9ea8&#45;&gt;dir_4063a9e34a1302ac947dfe60cb383789 -->
<g id="edge1" class="edge">
<title>dir_9039413c522f41ada5cc655e104f9ea8&#45;&gt;dir_4063a9e34a1302ac947dfe60cb383789</title>
<path fill="none" stroke="black" d="M55.94,-159.7C58.17,-151.9 60.85,-142.51 63.33,-133.83"/>
<polygon fill="black" stroke="black" points="66.73,-134.68 66.11,-124.1 60,-132.76 66.73,-134.68"/>
<g id="a_edge1&#45;headlabel"><a xlink:href="dir_000004_000005.html" target="_top" xlink:title="2">
<text text-anchor="middle" x="68.47" y="-136.42" font-family="Helvetica,sans-Serif" font-size="10.00">2</text>
</a>
</g>
</g>
<!-- dir_9039413c522f41ada5cc655e104f9ea8&#45;&gt;dir_9463e03d191b6d61661112ff0fb64dc7 -->
<g id="edge2" class="edge">
<title>dir_9039413c522f41ada5cc655e104f9ea8&#45;&gt;dir_9463e03d191b6d61661112ff0fb64dc7</title>
<path fill="none" stroke="black" d="M43.22,-159.98C36.02,-141.85 27.48,-112.46 35,-88 38.01,-78.22 43.51,-68.62 49.32,-60.33"/>
<polygon fill="black" stroke="black" points="52.19,-62.33 55.39,-52.23 46.59,-58.13 52.19,-62.33"/>
<g id="a_edge2&#45;headlabel"><a xlink:href="dir_000004_000008.html" target="_top" xlink:title="2">
<text text-anchor="middle" x="52.31" y="-64.41" font-family="Helvetica,sans-Serif" font-size="10.00">2</text>
</a>
</g>
</g>
</g>
</svg>
