<?xml version="1.0" encoding="UTF-8" standalone="no"?>
<!DOCTYPE svg PUBLIC "-//W3C//DTD SVG 1.1//EN"
 "http://www.w3.org/Graphics/SVG/1.1/DTD/svg11.dtd">
<!-- Generated by graphviz version 2.44.0 ()
 -->
<!-- Title: include/yaclib/executor/executor.hpp Pages: 1 -->
<svg width="1411pt" height="642pt"
 viewBox="0.00 0.00 1410.50 642.00" xmlns="http://www.w3.org/2000/svg" xmlns:xlink="http://www.w3.org/1999/xlink">
<g id="graph0" class="graph" transform="scale(1 1) rotate(0) translate(4 638)">
<title>include/yaclib/executor/executor.hpp</title>
<!-- Node1 -->
<g id="node1" class="node">
<title>Node1</title>
<g id="a_node1"><a xlink:title=" ">
<polygon fill="#bfbfbf" stroke="black" points="846,-603.5 846,-633.5 961,-633.5 961,-603.5 846,-603.5"/>
<text text-anchor="start" x="854" y="-621.5" font-family="Helvetica,sans-Serif" font-size="10.00">include/yaclib/executor</text>
<text text-anchor="middle" x="903.5" y="-610.5" font-family="Helvetica,sans-Serif" font-size="10.00">/executor.hpp</text>
</a>
</g>
</g>
<!-- Node2 -->
<g id="node2" class="node">
<title>Node2</title>
<g id="a_node2"><a xlink:href="base__core_8hpp.html" target="_top" xlink:title=" ">
<polygon fill="none" stroke="black" points="559,-469.5 559,-499.5 668,-499.5 668,-469.5 559,-469.5"/>
<text text-anchor="start" x="567" y="-487.5" font-family="Helvetica,sans-Serif" font-size="10.00">include/yaclib/async</text>
<text text-anchor="middle" x="613.5" y="-476.5" font-family="Helvetica,sans-Serif" font-size="10.00">/detail/base_core.hpp</text>
</a>
</g>
</g>
<!-- Node1&#45;&gt;Node2 -->
<g id="edge1" class="edge">
<title>Node1&#45;&gt;Node2</title>
<path fill="none" stroke="midnightblue" d="M835.93,-614.73C787.9,-610 723.64,-597.8 675.5,-567 649.29,-550.23 629.94,-518.3 620.32,-499.78"/>
<polygon fill="midnightblue" stroke="midnightblue" points="835.65,-618.22 845.92,-615.63 836.28,-611.25 835.65,-618.22"/>
</g>
<!-- Node6 -->
<g id="node6" class="node">
<title>Node6</title>
<g id="a_node6"><a xlink:href="future_8hpp.html" target="_top" xlink:title=" ">
<polygon fill="none" stroke="black" points="485.5,-201.5 485.5,-231.5 589.5,-231.5 589.5,-201.5 485.5,-201.5"/>
<text text-anchor="start" x="493.5" y="-219.5" font-family="Helvetica,sans-Serif" font-size="10.00">include/yaclib/async</text>
<text text-anchor="middle" x="537.5" y="-208.5" font-family="Helvetica,sans-Serif" font-size="10.00">/future.hpp</text>
</a>
</g>
</g>
<!-- Node1&#45;&gt;Node6 -->
<g id="edge32" class="edge">
<title>Node1&#45;&gt;Node6</title>
<path fill="none" stroke="midnightblue" d="M877.19,-596.87C867.95,-588.46 858.21,-578.11 851.5,-567 831.98,-534.68 827.5,-523.26 827.5,-485.5 827.5,-485.5 827.5,-485.5 827.5,-416.5 827.5,-379.31 832.33,-363.56 808.5,-335 752.57,-267.96 651.17,-238.12 589.52,-225.65"/>
<polygon fill="midnightblue" stroke="midnightblue" points="874.92,-599.53 884.76,-603.44 879.51,-594.24 874.92,-599.53"/>
</g>
<!-- Node13 -->
<g id="node13" class="node">
<title>Node13</title>
<g id="a_node13"><a xlink:href="run_8hpp.html" target="_top" xlink:title=" ">
<polygon fill="none" stroke="black" points="767.5,-134.5 767.5,-164.5 871.5,-164.5 871.5,-134.5 767.5,-134.5"/>
<text text-anchor="start" x="775.5" y="-152.5" font-family="Helvetica,sans-Serif" font-size="10.00">include/yaclib/async</text>
<text text-anchor="middle" x="819.5" y="-141.5" font-family="Helvetica,sans-Serif" font-size="10.00">/run.hpp</text>
</a>
</g>
</g>
<!-- Node1&#45;&gt;Node13 -->
<g id="edge33" class="edge">
<title>Node1&#45;&gt;Node13</title>
<path fill="none" stroke="midnightblue" d="M892.35,-593.86C881.13,-567.89 865.5,-524.66 865.5,-485.5 865.5,-485.5 865.5,-485.5 865.5,-282.5 865.5,-237.36 841.22,-188.13 827.94,-164.59"/>
<polygon fill="midnightblue" stroke="midnightblue" points="889.26,-595.53 896.53,-603.24 895.65,-592.68 889.26,-595.53"/>
</g>
<!-- Node14 -->
<g id="node14" class="node">
<title>Node14</title>
<g id="a_node14"><a xlink:href="simple_8cpp.html" target="_top" xlink:title=" ">
<polygon fill="none" stroke="black" points="847,-67.5 847,-97.5 948,-97.5 948,-67.5 847,-67.5"/>
<text text-anchor="start" x="855" y="-85.5" font-family="Helvetica,sans-Serif" font-size="10.00">test/example/async</text>
<text text-anchor="middle" x="897.5" y="-74.5" font-family="Helvetica,sans-Serif" font-size="10.00">/simple.cpp</text>
</a>
</g>
</g>
<!-- Node1&#45;&gt;Node14 -->
<g id="edge49" class="edge">
<title>Node1&#45;&gt;Node14</title>
<path fill="none" stroke="midnightblue" d="M903.5,-592.99C903.5,-566.49 903.5,-523 903.5,-485.5 903.5,-485.5 903.5,-485.5 903.5,-282.5 903.5,-213.37 899.84,-130.8 898.24,-97.98"/>
<polygon fill="midnightblue" stroke="midnightblue" points="900,-593.24 903.5,-603.24 907,-593.24 900,-593.24"/>
</g>
<!-- Node23 -->
<g id="node23" class="node">
<title>Node23</title>
<g id="a_node23"><a xlink:href="inline_8hpp.html" target="_top" xlink:title=" ">
<polygon fill="none" stroke="black" points="684,-536.5 684,-566.5 799,-566.5 799,-536.5 684,-536.5"/>
<text text-anchor="start" x="692" y="-554.5" font-family="Helvetica,sans-Serif" font-size="10.00">include/yaclib/executor</text>
<text text-anchor="middle" x="741.5" y="-543.5" font-family="Helvetica,sans-Serif" font-size="10.00">/inline.hpp</text>
</a>
</g>
</g>
<!-- Node1&#45;&gt;Node23 -->
<g id="edge34" class="edge">
<title>Node1&#45;&gt;Node23</title>
<path fill="none" stroke="midnightblue" d="M858.75,-599.54C832.83,-589.14 800.66,-576.24 776.58,-566.58"/>
<polygon fill="midnightblue" stroke="midnightblue" points="857.76,-602.92 868.35,-603.4 860.37,-596.42 857.76,-602.92"/>
</g>
<!-- Node25 -->
<g id="node25" class="node">
<title>Node25</title>
<g id="a_node25"><a xlink:href="serial_8hpp.html" target="_top" xlink:title=" ">
<polygon fill="none" stroke="black" points="931,-134.5 931,-164.5 1046,-164.5 1046,-134.5 931,-134.5"/>
<text text-anchor="start" x="939" y="-152.5" font-family="Helvetica,sans-Serif" font-size="10.00">include/yaclib/executor</text>
<text text-anchor="middle" x="988.5" y="-141.5" font-family="Helvetica,sans-Serif" font-size="10.00">/serial.hpp</text>
</a>
</g>
</g>
<!-- Node1&#45;&gt;Node25 -->
<g id="edge37" class="edge">
<title>Node1&#45;&gt;Node25</title>
<path fill="none" stroke="midnightblue" d="M920.35,-594.87C937.47,-569.58 961.5,-526.74 961.5,-485.5 961.5,-485.5 961.5,-485.5 961.5,-282.5 961.5,-238.76 975.91,-188.49 983.67,-164.57"/>
<polygon fill="midnightblue" stroke="midnightblue" points="917.27,-593.16 914.41,-603.36 923.01,-597.17 917.27,-593.16"/>
</g>
<!-- Node27 -->
<g id="node27" class="node">
<title>Node27</title>
<g id="a_node27"><a xlink:href="thread__pool_8hpp.html" target="_top" xlink:title=" ">
<polygon fill="none" stroke="black" points="1064,-134.5 1064,-164.5 1179,-164.5 1179,-134.5 1064,-134.5"/>
<text text-anchor="start" x="1072" y="-152.5" font-family="Helvetica,sans-Serif" font-size="10.00">include/yaclib/executor</text>
<text text-anchor="middle" x="1121.5" y="-141.5" font-family="Helvetica,sans-Serif" font-size="10.00">/thread_pool.hpp</text>
</a>
</g>
</g>
<!-- Node1&#45;&gt;Node27 -->
<g id="edge40" class="edge">
<title>Node1&#45;&gt;Node27</title>
<path fill="none" stroke="midnightblue" d="M950.49,-599.37C994.48,-578.96 1053.5,-541.2 1053.5,-485.5 1053.5,-485.5 1053.5,-485.5 1053.5,-282.5 1053.5,-235.07 1088.63,-187.63 1108.39,-164.69"/>
<polygon fill="midnightblue" stroke="midnightblue" points="949.05,-596.18 941.35,-603.46 951.91,-602.57 949.05,-596.18"/>
</g>
<!-- Node28 -->
<g id="node28" class="node">
<title>Node28</title>
<g id="a_node28"><a xlink:href="src_2executor_2thread__pool_8cpp.html" target="_top" xlink:title=" ">
<polygon fill="none" stroke="black" points="1302.5,-67.5 1302.5,-97.5 1402.5,-97.5 1402.5,-67.5 1302.5,-67.5"/>
<text text-anchor="start" x="1310.5" y="-85.5" font-family="Helvetica,sans-Serif" font-size="10.00">src/executor/thread</text>
<text text-anchor="middle" x="1352.5" y="-74.5" font-family="Helvetica,sans-Serif" font-size="10.00">_pool.cpp</text>
</a>
</g>
</g>
<!-- Node1&#45;&gt;Node28 -->
<g id="edge48" class="edge">
<title>Node1&#45;&gt;Node28</title>
<path fill="none" stroke="midnightblue" d="M971.13,-616.72C1060.7,-611.7 1207.5,-587.86 1207.5,-485.5 1207.5,-485.5 1207.5,-485.5 1207.5,-215.5 1207.5,-156.61 1273.72,-117.03 1316.66,-97.56"/>
<polygon fill="midnightblue" stroke="midnightblue" points="970.85,-613.23 961.04,-617.22 971.2,-620.22 970.85,-613.23"/>
</g>
<!-- Node30 -->
<g id="node30" class="node">
<title>Node30</title>
<g id="a_node30"><a xlink:href="src_2executor_2serial_8cpp.html" target="_top" xlink:title=" ">
<polygon fill="none" stroke="black" points="1235.5,-542 1235.5,-561 1349.5,-561 1349.5,-542 1235.5,-542"/>
<text text-anchor="middle" x="1292.5" y="-549" font-family="Helvetica,sans-Serif" font-size="10.00">src/executor/serial.cpp</text>
</a>
</g>
</g>
<!-- Node1&#45;&gt;Node30 -->
<g id="edge47" class="edge">
<title>Node1&#45;&gt;Node30</title>
<path fill="none" stroke="midnightblue" d="M971.11,-607.64C1035.59,-598.04 1135.35,-582.63 1221.5,-567 1231.53,-565.18 1242.32,-563.06 1252.38,-561.01"/>
<polygon fill="midnightblue" stroke="midnightblue" points="970.45,-604.2 961.08,-609.13 971.48,-611.13 970.45,-604.2"/>
</g>
<!-- Node3 -->
<g id="node3" class="node">
<title>Node3</title>
<g id="a_node3"><a xlink:href="wait__impl_8hpp.html" target="_top" xlink:title=" ">
<polygon fill="none" stroke="black" points="241,-402.5 241,-432.5 346,-432.5 346,-402.5 241,-402.5"/>
<text text-anchor="start" x="249" y="-420.5" font-family="Helvetica,sans-Serif" font-size="10.00">include/yaclib/algo</text>
<text text-anchor="middle" x="293.5" y="-409.5" font-family="Helvetica,sans-Serif" font-size="10.00">/detail/wait_impl.hpp</text>
</a>
</g>
</g>
<!-- Node2&#45;&gt;Node3 -->
<g id="edge2" class="edge">
<title>Node2&#45;&gt;Node3</title>
<path fill="none" stroke="midnightblue" d="M548.78,-470.35C489.09,-458.23 401.55,-440.45 346.06,-429.18"/>
<polygon fill="midnightblue" stroke="midnightblue" points="548.36,-473.84 558.85,-472.4 549.75,-466.98 548.36,-473.84"/>
</g>
<!-- Node19 -->
<g id="node19" class="node">
<title>Node19</title>
<g id="a_node19"><a xlink:href="result__core_8hpp.html" target="_top" xlink:title=" ">
<polygon fill="none" stroke="black" points="504.5,-402.5 504.5,-432.5 616.5,-432.5 616.5,-402.5 504.5,-402.5"/>
<text text-anchor="start" x="512.5" y="-420.5" font-family="Helvetica,sans-Serif" font-size="10.00">include/yaclib/async</text>
<text text-anchor="middle" x="560.5" y="-409.5" font-family="Helvetica,sans-Serif" font-size="10.00">/detail/result_core.hpp</text>
</a>
</g>
</g>
<!-- Node2&#45;&gt;Node19 -->
<g id="edge24" class="edge">
<title>Node2&#45;&gt;Node19</title>
<path fill="none" stroke="midnightblue" d="M595.52,-461.45C587.73,-451.9 578.85,-441 571.98,-432.58"/>
<polygon fill="midnightblue" stroke="midnightblue" points="592.97,-463.86 602,-469.4 598.39,-459.43 592.97,-463.86"/>
</g>
<!-- Node22 -->
<g id="node22" class="node">
<title>Node22</title>
<g id="a_node22"><a xlink:href="base__core_8cpp.html" target="_top" xlink:title=" ">
<polygon fill="none" stroke="black" points="635,-408 635,-427 760,-427 760,-408 635,-408"/>
<text text-anchor="middle" x="697.5" y="-415" font-family="Helvetica,sans-Serif" font-size="10.00">src/async/base_core.cpp</text>
</a>
</g>
</g>
<!-- Node2&#45;&gt;Node22 -->
<g id="edge31" class="edge">
<title>Node2&#45;&gt;Node22</title>
<path fill="none" stroke="midnightblue" d="M639.98,-463.01C655.58,-450.94 674.49,-436.3 686.26,-427.19"/>
<polygon fill="midnightblue" stroke="midnightblue" points="637.49,-460.51 631.73,-469.4 641.78,-466.04 637.49,-460.51"/>
</g>
<!-- Node4 -->
<g id="node4" class="node">
<title>Node4</title>
<g id="a_node4"><a xlink:href="wait_8hpp.html" target="_top" xlink:title=" ">
<polygon fill="none" stroke="black" points="397.5,-335.5 397.5,-365.5 493.5,-365.5 493.5,-335.5 397.5,-335.5"/>
<text text-anchor="start" x="405.5" y="-353.5" font-family="Helvetica,sans-Serif" font-size="10.00">include/yaclib/algo</text>
<text text-anchor="middle" x="445.5" y="-342.5" font-family="Helvetica,sans-Serif" font-size="10.00">/wait.hpp</text>
</a>
</g>
</g>
<!-- Node3&#45;&gt;Node4 -->
<g id="edge3" class="edge">
<title>Node3&#45;&gt;Node4</title>
<path fill="none" stroke="midnightblue" d="M335.81,-398.41C360.08,-388.03 390.09,-375.2 412.58,-365.58"/>
<polygon fill="midnightblue" stroke="midnightblue" points="334.3,-395.25 326.48,-402.4 337.05,-401.68 334.3,-395.25"/>
</g>
<!-- Node16 -->
<g id="node16" class="node">
<title>Node16</title>
<g id="a_node16"><a xlink:href="wait__for_8hpp.html" target="_top" xlink:title=" ">
<polygon fill="none" stroke="black" points="131.5,-335.5 131.5,-365.5 227.5,-365.5 227.5,-335.5 131.5,-335.5"/>
<text text-anchor="start" x="139.5" y="-353.5" font-family="Helvetica,sans-Serif" font-size="10.00">include/yaclib/algo</text>
<text text-anchor="middle" x="179.5" y="-342.5" font-family="Helvetica,sans-Serif" font-size="10.00">/wait_for.hpp</text>
</a>
</g>
</g>
<!-- Node3&#45;&gt;Node16 -->
<g id="edge21" class="edge">
<title>Node3&#45;&gt;Node16</title>
<path fill="none" stroke="midnightblue" d="M259.82,-397.3C241.98,-387.12 220.46,-374.85 204.19,-365.58"/>
<polygon fill="midnightblue" stroke="midnightblue" points="258.34,-400.48 268.76,-402.4 261.81,-394.4 258.34,-400.48"/>
</g>
<!-- Node17 -->
<g id="node17" class="node">
<title>Node17</title>
<g id="a_node17"><a xlink:href="wait__until_8hpp.html" target="_top" xlink:title=" ">
<polygon fill="none" stroke="black" points="245.5,-335.5 245.5,-365.5 341.5,-365.5 341.5,-335.5 245.5,-335.5"/>
<text text-anchor="start" x="253.5" y="-353.5" font-family="Helvetica,sans-Serif" font-size="10.00">include/yaclib/algo</text>
<text text-anchor="middle" x="293.5" y="-342.5" font-family="Helvetica,sans-Serif" font-size="10.00">/wait_until.hpp</text>
</a>
</g>
</g>
<!-- Node3&#45;&gt;Node17 -->
<g id="edge22" class="edge">
<title>Node3&#45;&gt;Node17</title>
<path fill="none" stroke="midnightblue" d="M293.5,-392.11C293.5,-383.15 293.5,-373.32 293.5,-365.58"/>
<polygon fill="midnightblue" stroke="midnightblue" points="290,-392.4 293.5,-402.4 297,-392.4 290,-392.4"/>
</g>
<!-- Node18 -->
<g id="node18" class="node">
<title>Node18</title>
<g id="a_node18"><a xlink:href="wait__impl_8cpp.html" target="_top" xlink:title=" ">
<polygon fill="none" stroke="black" points="0,-341 0,-360 113,-360 113,-341 0,-341"/>
<text text-anchor="middle" x="56.5" y="-348" font-family="Helvetica,sans-Serif" font-size="10.00">src/algo/wait_impl.cpp</text>
</a>
</g>
</g>
<!-- Node3&#45;&gt;Node18 -->
<g id="edge23" class="edge">
<title>Node3&#45;&gt;Node18</title>
<path fill="none" stroke="midnightblue" d="M232.72,-399.83C186.34,-387.11 124.34,-370.11 87.6,-360.03"/>
<polygon fill="midnightblue" stroke="midnightblue" points="231.8,-403.21 242.37,-402.48 233.65,-396.46 231.8,-403.21"/>
</g>
<!-- Node5 -->
<g id="node5" class="node">
<title>Node5</title>
<g id="a_node5"><a xlink:href="future__impl_8hpp.html" target="_top" xlink:title=" ">
<polygon fill="none" stroke="black" points="397.5,-268.5 397.5,-298.5 509.5,-298.5 509.5,-268.5 397.5,-268.5"/>
<text text-anchor="start" x="405.5" y="-286.5" font-family="Helvetica,sans-Serif" font-size="10.00">include/yaclib/async</text>
<text text-anchor="middle" x="453.5" y="-275.5" font-family="Helvetica,sans-Serif" font-size="10.00">/detail/future_impl.hpp</text>
</a>
</g>
</g>
<!-- Node4&#45;&gt;Node5 -->
<g id="edge4" class="edge">
<title>Node4&#45;&gt;Node5</title>
<path fill="none" stroke="midnightblue" d="M448.47,-325.4C449.58,-316.37 450.8,-306.41 451.77,-298.58"/>
<polygon fill="midnightblue" stroke="midnightblue" points="444.98,-325.04 447.24,-335.4 451.93,-325.9 444.98,-325.04"/>
</g>
<!-- Node5&#45;&gt;Node6 -->
<g id="edge5" class="edge">
<title>Node5&#45;&gt;Node6</title>
<path fill="none" stroke="midnightblue" d="M479.78,-262.17C492.62,-252.23 507.76,-240.51 519.31,-231.58"/>
<polygon fill="midnightblue" stroke="midnightblue" points="477.49,-259.51 471.73,-268.4 481.78,-265.04 477.49,-259.51"/>
</g>
<!-- Node11 -->
<g id="node11" class="node">
<title>Node11</title>
<g id="a_node11"><a xlink:href="promise_8hpp.html" target="_top" xlink:title=" ">
<polygon fill="none" stroke="black" points="404.5,-134.5 404.5,-164.5 508.5,-164.5 508.5,-134.5 404.5,-134.5"/>
<text text-anchor="start" x="412.5" y="-152.5" font-family="Helvetica,sans-Serif" font-size="10.00">include/yaclib/async</text>
<text text-anchor="middle" x="456.5" y="-141.5" font-family="Helvetica,sans-Serif" font-size="10.00">/promise.hpp</text>
</a>
</g>
</g>
<!-- Node5&#45;&gt;Node11 -->
<g id="edge20" class="edge">
<title>Node5&#45;&gt;Node11</title>
<path fill="none" stroke="midnightblue" d="M454.06,-258.02C454.68,-230.51 455.68,-186.79 456.18,-164.52"/>
<polygon fill="midnightblue" stroke="midnightblue" points="450.55,-258.3 453.82,-268.37 457.55,-258.46 450.55,-258.3"/>
</g>
<!-- Node7 -->
<g id="node7" class="node">
<title>Node7</title>
<g id="a_node7"><a xlink:href="when__any_8hpp.html" target="_top" xlink:title=" ">
<polygon fill="none" stroke="black" points="656.5,-67.5 656.5,-97.5 752.5,-97.5 752.5,-67.5 656.5,-67.5"/>
<text text-anchor="start" x="664.5" y="-85.5" font-family="Helvetica,sans-Serif" font-size="10.00">include/yaclib/algo</text>
<text text-anchor="middle" x="704.5" y="-74.5" font-family="Helvetica,sans-Serif" font-size="10.00">/when_any.hpp</text>
</a>
</g>
</g>
<!-- Node6&#45;&gt;Node7 -->
<g id="edge6" class="edge">
<title>Node6&#45;&gt;Node7</title>
<path fill="none" stroke="midnightblue" d="M599.95,-213.24C635.61,-208.39 677.82,-195.87 701.5,-165 716.41,-145.57 712.54,-115.18 708.46,-97.52"/>
<polygon fill="midnightblue" stroke="midnightblue" points="599.12,-209.81 589.6,-214.46 599.94,-216.77 599.12,-209.81"/>
</g>
<!-- Node9 -->
<g id="node9" class="node">
<title>Node9</title>
<g id="a_node9"><a xlink:href="when__all_8hpp.html" target="_top" xlink:title=" ">
<polygon fill="none" stroke="black" points="534.5,-67.5 534.5,-97.5 630.5,-97.5 630.5,-67.5 534.5,-67.5"/>
<text text-anchor="start" x="542.5" y="-85.5" font-family="Helvetica,sans-Serif" font-size="10.00">include/yaclib/algo</text>
<text text-anchor="middle" x="582.5" y="-74.5" font-family="Helvetica,sans-Serif" font-size="10.00">/when_all.hpp</text>
</a>
</g>
</g>
<!-- Node6&#45;&gt;Node9 -->
<g id="edge8" class="edge">
<title>Node6&#45;&gt;Node9</title>
<path fill="none" stroke="midnightblue" d="M541.04,-191.4C543.89,-174.91 548.57,-152.73 555.5,-134 560.26,-121.13 567.73,-107.46 573.61,-97.6"/>
<polygon fill="midnightblue" stroke="midnightblue" points="537.58,-190.89 539.43,-201.32 544.49,-192.02 537.58,-190.89"/>
</g>
<!-- Node6&#45;&gt;Node11 -->
<g id="edge10" class="edge">
<title>Node6&#45;&gt;Node11</title>
<path fill="none" stroke="midnightblue" d="M505.85,-195.17C492.72,-185.23 478.33,-173.51 468.37,-164.58"/>
<polygon fill="midnightblue" stroke="midnightblue" points="504.13,-198.25 514.25,-201.4 508.3,-192.63 504.13,-198.25"/>
</g>
<!-- Node6&#45;&gt;Node13 -->
<g id="edge15" class="edge">
<title>Node6&#45;&gt;Node13</title>
<path fill="none" stroke="midnightblue" d="M599.33,-201.25C649.62,-189.66 719.77,-173.49 767.27,-162.54"/>
<polygon fill="midnightblue" stroke="midnightblue" points="598.51,-197.85 589.55,-203.5 600.08,-204.67 598.51,-197.85"/>
</g>
<!-- Node15 -->
<g id="node15" class="node">
<title>Node15</title>
<g id="a_node15"><a xlink:href="future__impl_8cpp.html" target="_top" xlink:title=" ">
<polygon fill="none" stroke="black" points="564.5,-140 564.5,-159 692.5,-159 692.5,-140 564.5,-140"/>
<text text-anchor="middle" x="628.5" y="-147" font-family="Helvetica,sans-Serif" font-size="10.00">src/async/future_impl.cpp</text>
</a>
</g>
</g>
<!-- Node6&#45;&gt;Node15 -->
<g id="edge19" class="edge">
<title>Node6&#45;&gt;Node15</title>
<path fill="none" stroke="midnightblue" d="M565.77,-195.31C582.86,-183.1 603.75,-168.18 616.59,-159.01"/>
<polygon fill="midnightblue" stroke="midnightblue" points="563.35,-192.74 557.25,-201.4 567.42,-198.43 563.35,-192.74"/>
</g>
<!-- Node8 -->
<g id="node8" class="node">
<title>Node8</title>
<g id="a_node8"><a xlink:href="when__any_8cpp.html" target="_top" xlink:title=" ">
<polygon fill="none" stroke="black" points="808,-0.5 808,-30.5 909,-30.5 909,-0.5 808,-0.5"/>
<text text-anchor="start" x="816" y="-18.5" font-family="Helvetica,sans-Serif" font-size="10.00">test/example/async</text>
<text text-anchor="middle" x="858.5" y="-7.5" font-family="Helvetica,sans-Serif" font-size="10.00">/when_any.cpp</text>
</a>
</g>
</g>
<!-- Node7&#45;&gt;Node8 -->
<g id="edge7" class="edge">
<title>Node7&#45;&gt;Node8</title>
<path fill="none" stroke="midnightblue" d="M747.37,-63.41C771.95,-53.03 802.36,-40.2 825.15,-30.58"/>
<polygon fill="midnightblue" stroke="midnightblue" points="745.77,-60.28 737.92,-67.4 748.49,-66.73 745.77,-60.28"/>
</g>
<!-- Node10 -->
<g id="node10" class="node">
<title>Node10</title>
<g id="a_node10"><a xlink:href="when__all_8cpp.html" target="_top" xlink:title=" ">
<polygon fill="none" stroke="black" points="689,-0.5 689,-30.5 790,-30.5 790,-0.5 689,-0.5"/>
<text text-anchor="start" x="697" y="-18.5" font-family="Helvetica,sans-Serif" font-size="10.00">test/example/async</text>
<text text-anchor="middle" x="739.5" y="-7.5" font-family="Helvetica,sans-Serif" font-size="10.00">/when_all.cpp</text>
</a>
</g>
</g>
<!-- Node9&#45;&gt;Node10 -->
<g id="edge9" class="edge">
<title>Node9&#45;&gt;Node10</title>
<path fill="none" stroke="midnightblue" d="M625.87,-63.54C650.99,-53.14 682.16,-40.24 705.5,-30.58"/>
<polygon fill="midnightblue" stroke="midnightblue" points="624.47,-60.34 616.57,-67.4 627.14,-66.8 624.47,-60.34"/>
</g>
<!-- Node11&#45;&gt;Node6 -->
<g id="edge13" class="edge">
<title>Node11&#45;&gt;Node6</title>
<path fill="none" stroke="midnightblue" d="M488.11,-170.8C501.24,-180.74 515.63,-192.45 525.6,-201.4"/>
<polygon fill="midnightblue" stroke="midnightblue" points="489.83,-167.72 479.72,-164.58 485.66,-173.35 489.83,-167.72"/>
</g>
<!-- Node11&#45;&gt;Node7 -->
<g id="edge11" class="edge">
<title>Node11&#45;&gt;Node7</title>
<path fill="none" stroke="midnightblue" d="M518.52,-132.25C561.23,-121.05 617.15,-106.39 656.48,-96.09"/>
<polygon fill="midnightblue" stroke="midnightblue" points="517.58,-128.87 508.79,-134.79 519.35,-135.64 517.58,-128.87"/>
</g>
<!-- Node11&#45;&gt;Node9 -->
<g id="edge12" class="edge">
<title>Node11&#45;&gt;Node9</title>
<path fill="none" stroke="midnightblue" d="M492.92,-129.71C512.79,-119.46 536.98,-106.98 555.21,-97.58"/>
<polygon fill="midnightblue" stroke="midnightblue" points="491.12,-126.7 483.84,-134.4 494.33,-132.92 491.12,-126.7"/>
</g>
<!-- Node12 -->
<g id="node12" class="node">
<title>Node12</title>
<g id="a_node12"><a xlink:href="promise__impl_8cpp.html" target="_top" xlink:title=" ">
<polygon fill="none" stroke="black" points="379,-73 379,-92 516,-92 516,-73 379,-73"/>
<text text-anchor="middle" x="447.5" y="-80" font-family="Helvetica,sans-Serif" font-size="10.00">src/async/promise_impl.cpp</text>
</a>
</g>
</g>
<!-- Node11&#45;&gt;Node12 -->
<g id="edge14" class="edge">
<title>Node11&#45;&gt;Node12</title>
<path fill="none" stroke="midnightblue" d="M453.14,-124.25C451.59,-113.02 449.84,-100.38 448.7,-92.19"/>
<polygon fill="midnightblue" stroke="midnightblue" points="449.71,-124.97 454.55,-134.4 456.64,-124.01 449.71,-124.97"/>
</g>
<!-- Node13&#45;&gt;Node8 -->
<g id="edge18" class="edge">
<title>Node13&#45;&gt;Node8</title>
<path fill="none" stroke="midnightblue" d="M824.09,-124.65C827.48,-108.26 832.52,-86.11 838.5,-67 842.38,-54.58 847.89,-40.88 852.14,-30.88"/>
<polygon fill="midnightblue" stroke="midnightblue" points="820.65,-123.99 822.11,-134.49 827.51,-125.37 820.65,-123.99"/>
</g>
<!-- Node13&#45;&gt;Node10 -->
<g id="edge16" class="edge">
<title>Node13&#45;&gt;Node10</title>
<path fill="none" stroke="midnightblue" d="M805.55,-125.48C788.94,-98.07 761.73,-53.19 748,-30.52"/>
<polygon fill="midnightblue" stroke="midnightblue" points="802.76,-127.64 810.94,-134.37 808.75,-124.01 802.76,-127.64"/>
</g>
<!-- Node13&#45;&gt;Node14 -->
<g id="edge17" class="edge">
<title>Node13&#45;&gt;Node14</title>
<path fill="none" stroke="midnightblue" d="M844.24,-127.88C856.09,-118.01 869.98,-106.43 880.61,-97.58"/>
<polygon fill="midnightblue" stroke="midnightblue" points="841.87,-125.31 836.42,-134.4 846.35,-130.68 841.87,-125.31"/>
</g>
<!-- Node19&#45;&gt;Node6 -->
<g id="edge28" class="edge">
<title>Node19&#45;&gt;Node6</title>
<path fill="none" stroke="midnightblue" d="M549.26,-393.19C545.76,-384.81 542.35,-375.17 540.5,-366 530.73,-317.46 533.93,-258.2 536.14,-231.6"/>
<polygon fill="midnightblue" stroke="midnightblue" points="546.06,-394.61 553.31,-402.33 552.46,-391.77 546.06,-394.61"/>
</g>
<!-- Node19&#45;&gt;Node11 -->
<g id="edge29" class="edge">
<title>Node19&#45;&gt;Node11</title>
<path fill="none" stroke="midnightblue" d="M494.25,-405.46C451.5,-396.84 401.52,-383.39 388.5,-366 340.07,-301.3 413.61,-201.19 444.19,-164.55"/>
<polygon fill="midnightblue" stroke="midnightblue" points="493.61,-408.9 504.09,-407.39 494.95,-402.03 493.61,-408.9"/>
</g>
<!-- Node20 -->
<g id="node20" class="node">
<title>Node20</title>
<g id="a_node20"><a xlink:href="core_8hpp.html" target="_top" xlink:title=" ">
<polygon fill="none" stroke="black" points="549.5,-335.5 549.5,-365.5 653.5,-365.5 653.5,-335.5 549.5,-335.5"/>
<text text-anchor="start" x="557.5" y="-353.5" font-family="Helvetica,sans-Serif" font-size="10.00">include/yaclib/async</text>
<text text-anchor="middle" x="601.5" y="-342.5" font-family="Helvetica,sans-Serif" font-size="10.00">/detail/core.hpp</text>
</a>
</g>
</g>
<!-- Node19&#45;&gt;Node20 -->
<g id="edge25" class="edge">
<title>Node19&#45;&gt;Node20</title>
<path fill="none" stroke="midnightblue" d="M574.78,-393.87C580.71,-384.46 587.41,-373.83 592.62,-365.58"/>
<polygon fill="midnightblue" stroke="midnightblue" points="571.77,-392.07 569.4,-402.4 577.69,-395.81 571.77,-392.07"/>
</g>
<!-- Node21 -->
<g id="node21" class="node">
<title>Node21</title>
<g id="a_node21"><a xlink:href="result__core_8cpp.html" target="_top" xlink:title=" ">
<polygon fill="none" stroke="black" points="671.5,-341 671.5,-360 799.5,-360 799.5,-341 671.5,-341"/>
<text text-anchor="middle" x="735.5" y="-348" font-family="Helvetica,sans-Serif" font-size="10.00">src/async/result_core.cpp</text>
</a>
</g>
</g>
<!-- Node19&#45;&gt;Node21 -->
<g id="edge30" class="edge">
<title>Node19&#45;&gt;Node21</title>
<path fill="none" stroke="midnightblue" d="M608.2,-398.78C642.13,-386.18 686.21,-369.81 712.6,-360.01"/>
<polygon fill="midnightblue" stroke="midnightblue" points="606.63,-395.63 598.47,-402.4 609.07,-402.2 606.63,-395.63"/>
</g>
<!-- Node20&#45;&gt;Node5 -->
<g id="edge26" class="edge">
<title>Node20&#45;&gt;Node5</title>
<path fill="none" stroke="midnightblue" d="M559.99,-331.27C536.42,-320.92 507.36,-308.15 485.55,-298.58"/>
<polygon fill="midnightblue" stroke="midnightblue" points="558.82,-334.58 569.39,-335.4 561.64,-328.17 558.82,-334.58"/>
</g>
<!-- Node20&#45;&gt;Node13 -->
<g id="edge27" class="edge">
<title>Node20&#45;&gt;Node13</title>
<path fill="none" stroke="midnightblue" d="M624.63,-328.39C669.25,-287.65 766.17,-199.18 803.96,-164.68"/>
<polygon fill="midnightblue" stroke="midnightblue" points="622.2,-325.86 617.18,-335.19 626.92,-331.03 622.2,-325.86"/>
</g>
<!-- Node23&#45;&gt;Node2 -->
<g id="edge35" class="edge">
<title>Node23&#45;&gt;Node2</title>
<path fill="none" stroke="midnightblue" d="M704.78,-531.85C684.54,-521.58 659.83,-509.03 641.22,-499.58"/>
<polygon fill="midnightblue" stroke="midnightblue" points="703.22,-534.99 713.73,-536.4 706.39,-528.75 703.22,-534.99"/>
</g>
<!-- Node24 -->
<g id="node24" class="node">
<title>Node24</title>
<g id="a_node24"><a xlink:href="inline_8cpp.html" target="_top" xlink:title=" ">
<polygon fill="none" stroke="black" points="686,-475 686,-494 799,-494 799,-475 686,-475"/>
<text text-anchor="middle" x="742.5" y="-482" font-family="Helvetica,sans-Serif" font-size="10.00">src/executor/inline.cpp</text>
</a>
</g>
</g>
<!-- Node23&#45;&gt;Node24 -->
<g id="edge36" class="edge">
<title>Node23&#45;&gt;Node24</title>
<path fill="none" stroke="midnightblue" d="M741.87,-526.25C742.05,-515.02 742.24,-502.38 742.37,-494.19"/>
<polygon fill="midnightblue" stroke="midnightblue" points="738.37,-526.34 741.72,-536.4 745.37,-526.45 738.37,-526.34"/>
</g>
<!-- Node25&#45;&gt;Node14 -->
<g id="edge38" class="edge">
<title>Node25&#45;&gt;Node14</title>
<path fill="none" stroke="midnightblue" d="M960.43,-128.45C946.43,-118.45 929.84,-106.6 917.21,-97.58"/>
<polygon fill="midnightblue" stroke="midnightblue" points="958.58,-131.43 968.75,-134.4 962.65,-125.74 958.58,-131.43"/>
</g>
<!-- Node26 -->
<g id="node26" class="node">
<title>Node26</title>
<g id="a_node26"><a xlink:href="test_2example_2executor_2serial_8cpp.html" target="_top" xlink:title=" ">
<polygon fill="none" stroke="black" points="966.5,-67.5 966.5,-97.5 1078.5,-97.5 1078.5,-67.5 966.5,-67.5"/>
<text text-anchor="start" x="974.5" y="-85.5" font-family="Helvetica,sans-Serif" font-size="10.00">test/example/executor</text>
<text text-anchor="middle" x="1022.5" y="-74.5" font-family="Helvetica,sans-Serif" font-size="10.00">/serial.cpp</text>
</a>
</g>
</g>
<!-- Node25&#45;&gt;Node26 -->
<g id="edge39" class="edge">
<title>Node25&#45;&gt;Node26</title>
<path fill="none" stroke="midnightblue" d="M1000.64,-125.28C1005.49,-116.02 1010.91,-105.66 1015.14,-97.58"/>
<polygon fill="midnightblue" stroke="midnightblue" points="997.41,-123.91 995.88,-134.4 1003.61,-127.16 997.41,-123.91"/>
</g>
<!-- Node27&#45;&gt;Node8 -->
<g id="edge44" class="edge">
<title>Node27&#45;&gt;Node8</title>
<path fill="none" stroke="midnightblue" d="M1128.6,-124.31C1132.25,-106.45 1133.56,-82.63 1120.5,-67 1094.06,-35.37 977.72,-23.31 909.28,-18.9"/>
<polygon fill="midnightblue" stroke="midnightblue" points="1125.14,-123.74 1126.2,-134.28 1131.95,-125.37 1125.14,-123.74"/>
</g>
<!-- Node27&#45;&gt;Node10 -->
<g id="edge42" class="edge">
<title>Node27&#45;&gt;Node10</title>
<path fill="none" stroke="midnightblue" d="M1118.08,-124.48C1114.08,-105.76 1105.54,-80.71 1087.5,-67 1036.15,-27.97 862.95,-42.59 799.5,-31 796.44,-30.44 793.31,-29.82 790.15,-29.17"/>
<polygon fill="midnightblue" stroke="midnightblue" points="1114.65,-125.18 1119.91,-134.38 1121.54,-123.91 1114.65,-125.18"/>
</g>
<!-- Node27&#45;&gt;Node14 -->
<g id="edge43" class="edge">
<title>Node27&#45;&gt;Node14</title>
<path fill="none" stroke="midnightblue" d="M1063.19,-131.58C1026.81,-121.02 980.53,-107.59 946.13,-97.61"/>
<polygon fill="midnightblue" stroke="midnightblue" points="1062.59,-135.05 1073.17,-134.48 1064.54,-128.33 1062.59,-135.05"/>
</g>
<!-- Node27&#45;&gt;Node26 -->
<g id="edge45" class="edge">
<title>Node27&#45;&gt;Node26</title>
<path fill="none" stroke="midnightblue" d="M1091.39,-128.73C1076.08,-118.68 1057.81,-106.68 1043.94,-97.58"/>
<polygon fill="midnightblue" stroke="midnightblue" points="1089.74,-131.83 1100.02,-134.4 1093.58,-125.98 1089.74,-131.83"/>
</g>
<!-- Node27&#45;&gt;Node28 -->
<g id="edge41" class="edge">
<title>Node27&#45;&gt;Node28</title>
<path fill="none" stroke="midnightblue" d="M1181.15,-131.71C1218.74,-121.14 1266.73,-107.63 1302.35,-97.61"/>
<polygon fill="midnightblue" stroke="midnightblue" points="1180.02,-128.4 1171.34,-134.48 1181.91,-135.14 1180.02,-128.4"/>
</g>
<!-- Node29 -->
<g id="node29" class="node">
<title>Node29</title>
<g id="a_node29"><a xlink:href="test_2example_2executor_2thread__pool_8cpp.html" target="_top" xlink:title=" ">
<polygon fill="none" stroke="black" points="1172.5,-67.5 1172.5,-97.5 1284.5,-97.5 1284.5,-67.5 1172.5,-67.5"/>
<text text-anchor="start" x="1180.5" y="-85.5" font-family="Helvetica,sans-Serif" font-size="10.00">test/example/executor</text>
<text text-anchor="middle" x="1228.5" y="-74.5" font-family="Helvetica,sans-Serif" font-size="10.00">/thread_pool.cpp</text>
</a>
</g>
</g>
<!-- Node27&#45;&gt;Node29 -->
<g id="edge46" class="edge">
<title>Node27&#45;&gt;Node29</title>
<path fill="none" stroke="midnightblue" d="M1153.58,-129.02C1170.23,-118.9 1190.19,-106.77 1205.33,-97.58"/>
<polygon fill="midnightblue" stroke="midnightblue" points="1151.45,-126.21 1144.72,-134.4 1155.08,-132.2 1151.45,-126.21"/>
</g>
</g>
</svg>
