<?xml version="1.0" encoding="UTF-8" standalone="no"?>
<!DOCTYPE svg PUBLIC "-//W3C//DTD SVG 1.1//EN"
 "http://www.w3.org/Graphics/SVG/1.1/DTD/svg11.dtd">
<!-- Generated by graphviz version 2.44.0 ()
 -->
<!-- Title: include/yaclib/util/func.hpp Pages: 1 -->
<svg width="479pt" height="162pt"
 viewBox="0.00 0.00 478.50 162.00" xmlns="http://www.w3.org/2000/svg" xmlns:xlink="http://www.w3.org/1999/xlink">
<g id="graph0" class="graph" transform="scale(1 1) rotate(0) translate(4 158)">
<title>include/yaclib/util/func.hpp</title>
<!-- Node1 -->
<g id="node1" class="node">
<title>Node1</title>
<g id="a_node1"><a xlink:title=" ">
<polygon fill="#bfbfbf" stroke="black" points="259.5,-123.5 259.5,-153.5 350.5,-153.5 350.5,-123.5 259.5,-123.5"/>
<text text-anchor="start" x="267.5" y="-141.5" font-family="Helvetica,sans-Serif" font-size="10.00">include/yaclib/util</text>
<text text-anchor="middle" x="305" y="-130.5" font-family="Helvetica,sans-Serif" font-size="10.00">/func.hpp</text>
</a>
</g>
</g>
<!-- Node2 -->
<g id="node2" class="node">
<title>Node2</title>
<g id="a_node2"><a xlink:href="counters_8hpp.html" target="_top" xlink:title=" ">
<polygon fill="none" stroke="black" points="71,-62 71,-81 187,-81 187,-62 71,-62"/>
<text text-anchor="middle" x="129" y="-69" font-family="Helvetica,sans-Serif" font-size="10.00">yaclib/util/counters.hpp</text>
</a>
</g>
</g>
<!-- Node1&#45;&gt;Node2 -->
<g id="edge1" class="edge">
<title>Node1&#45;&gt;Node2</title>
<path fill="none" stroke="midnightblue" d="M266.81,-123.4C235.38,-111.79 191.32,-95.51 161.54,-84.52"/>
<polygon fill="midnightblue" stroke="midnightblue" points="162.63,-81.19 152.03,-81.01 160.2,-87.75 162.63,-81.19"/>
</g>
<!-- Node5 -->
<g id="node5" class="node">
<title>Node5</title>
<g id="a_node5"><a xlink:href="intrusive__ptr_8hpp.html" target="_top" xlink:title=" ">
<polygon fill="none" stroke="black" points="256.5,-56.5 256.5,-86.5 353.5,-86.5 353.5,-56.5 256.5,-56.5"/>
<text text-anchor="start" x="264.5" y="-74.5" font-family="Helvetica,sans-Serif" font-size="10.00">yaclib/util/intrusive</text>
<text text-anchor="middle" x="305" y="-63.5" font-family="Helvetica,sans-Serif" font-size="10.00">_ptr.hpp</text>
</a>
</g>
</g>
<!-- Node1&#45;&gt;Node5 -->
<g id="edge4" class="edge">
<title>Node1&#45;&gt;Node5</title>
<path fill="none" stroke="midnightblue" d="M305,-123.4C305,-115.64 305,-105.81 305,-96.86"/>
<polygon fill="midnightblue" stroke="midnightblue" points="308.5,-96.58 305,-86.58 301.5,-96.58 308.5,-96.58"/>
</g>
<!-- Node6 -->
<g id="node6" class="node">
<title>Node6</title>
<g id="a_node6"><a xlink:href="ref_8hpp.html" target="_top" xlink:title=" ">
<polygon fill="none" stroke="black" points="170.5,-0.5 170.5,-19.5 259.5,-19.5 259.5,-0.5 170.5,-0.5"/>
<text text-anchor="middle" x="215" y="-7.5" font-family="Helvetica,sans-Serif" font-size="10.00">yaclib/util/ref.hpp</text>
</a>
</g>
</g>
<!-- Node1&#45;&gt;Node6 -->
<g id="edge9" class="edge">
<title>Node1&#45;&gt;Node6</title>
<path fill="none" stroke="midnightblue" d="M284.63,-123.48C272.43,-114.26 257.33,-101.28 247,-87 234.18,-69.28 225.27,-45.65 220.16,-29.47"/>
<polygon fill="midnightblue" stroke="midnightblue" points="223.44,-28.21 217.23,-19.62 216.73,-30.21 223.44,-28.21"/>
</g>
<!-- Node8 -->
<g id="node8" class="node">
<title>Node8</title>
<g id="a_node8"><a xlink:title=" ">
<polygon fill="none" stroke="#bfbfbf" points="351,-0.5 351,-19.5 413,-19.5 413,-0.5 351,-0.5"/>
<text text-anchor="middle" x="382" y="-7.5" font-family="Helvetica,sans-Serif" font-size="10.00">type_traits</text>
</a>
</g>
</g>
<!-- Node1&#45;&gt;Node8 -->
<g id="edge10" class="edge">
<title>Node1&#45;&gt;Node8</title>
<path fill="none" stroke="midnightblue" d="M326.29,-123.48C338.44,-114.43 352.99,-101.64 362,-87 372.82,-69.42 377.83,-46.08 380.13,-29.92"/>
<polygon fill="midnightblue" stroke="midnightblue" points="383.65,-29.96 381.36,-19.61 376.7,-29.13 383.65,-29.96"/>
</g>
<!-- Node9 -->
<g id="node9" class="node">
<title>Node9</title>
<g id="a_node9"><a xlink:title=" ">
<polygon fill="none" stroke="#bfbfbf" points="431.5,-0.5 431.5,-19.5 470.5,-19.5 470.5,-0.5 431.5,-0.5"/>
<text text-anchor="middle" x="451" y="-7.5" font-family="Helvetica,sans-Serif" font-size="10.00">utility</text>
</a>
</g>
</g>
<!-- Node1&#45;&gt;Node9 -->
<g id="edge11" class="edge">
<title>Node1&#45;&gt;Node9</title>
<path fill="none" stroke="midnightblue" d="M330.43,-123.39C346.28,-114.03 366.7,-100.95 383,-87 404.34,-68.74 425.34,-43.93 438.23,-27.7"/>
<polygon fill="midnightblue" stroke="midnightblue" points="441.11,-29.69 444.51,-19.66 435.6,-25.39 441.11,-29.69"/>
</g>
<!-- Node3 -->
<g id="node3" class="node">
<title>Node3</title>
<g id="a_node3"><a xlink:title=" ">
<polygon fill="none" stroke="#bfbfbf" points="0,-0.5 0,-19.5 88,-19.5 88,-0.5 0,-0.5"/>
<text text-anchor="middle" x="44" y="-7.5" font-family="Helvetica,sans-Serif" font-size="10.00">yaclib/config.hpp</text>
</a>
</g>
</g>
<!-- Node2&#45;&gt;Node3 -->
<g id="edge2" class="edge">
<title>Node2&#45;&gt;Node3</title>
<path fill="none" stroke="midnightblue" d="M116.82,-61.98C103.19,-52.43 80.87,-36.81 64.53,-25.37"/>
<polygon fill="midnightblue" stroke="midnightblue" points="66.36,-22.38 56.16,-19.51 62.34,-28.11 66.36,-22.38"/>
</g>
<!-- Node4 -->
<g id="node4" class="node">
<title>Node4</title>
<g id="a_node4"><a xlink:title=" ">
<polygon fill="none" stroke="#bfbfbf" points="106,-0.5 106,-19.5 152,-19.5 152,-0.5 106,-0.5"/>
<text text-anchor="middle" x="129" y="-7.5" font-family="Helvetica,sans-Serif" font-size="10.00">atomic</text>
</a>
</g>
</g>
<!-- Node2&#45;&gt;Node4 -->
<g id="edge3" class="edge">
<title>Node2&#45;&gt;Node4</title>
<path fill="none" stroke="midnightblue" d="M129,-61.98C129,-53.58 129,-40.48 129,-29.66"/>
<polygon fill="midnightblue" stroke="midnightblue" points="132.5,-29.51 129,-19.51 125.5,-29.51 132.5,-29.51"/>
</g>
<!-- Node5&#45;&gt;Node6 -->
<g id="edge5" class="edge">
<title>Node5&#45;&gt;Node6</title>
<path fill="none" stroke="midnightblue" d="M283.67,-56.4C269.51,-47.04 250.99,-34.79 236.75,-25.38"/>
<polygon fill="midnightblue" stroke="midnightblue" points="238.37,-22.25 228.1,-19.66 234.51,-28.09 238.37,-22.25"/>
</g>
<!-- Node7 -->
<g id="node7" class="node">
<title>Node7</title>
<g id="a_node7"><a xlink:title=" ">
<polygon fill="none" stroke="#bfbfbf" points="277,-0.5 277,-19.5 333,-19.5 333,-0.5 277,-0.5"/>
<text text-anchor="middle" x="305" y="-7.5" font-family="Helvetica,sans-Serif" font-size="10.00">algorithm</text>
</a>
</g>
</g>
<!-- Node5&#45;&gt;Node7 -->
<g id="edge6" class="edge">
<title>Node5&#45;&gt;Node7</title>
<path fill="none" stroke="midnightblue" d="M305,-56.4C305,-48.47 305,-38.46 305,-29.86"/>
<polygon fill="midnightblue" stroke="midnightblue" points="308.5,-29.66 305,-19.66 301.5,-29.66 308.5,-29.66"/>
</g>
<!-- Node5&#45;&gt;Node8 -->
<g id="edge7" class="edge">
<title>Node5&#45;&gt;Node8</title>
<path fill="none" stroke="midnightblue" d="M323.25,-56.4C335.13,-47.22 350.61,-35.26 362.69,-25.92"/>
<polygon fill="midnightblue" stroke="midnightblue" points="365.02,-28.54 370.8,-19.66 360.74,-23 365.02,-28.54"/>
</g>
<!-- Node5&#45;&gt;Node9 -->
<g id="edge8" class="edge">
<title>Node5&#45;&gt;Node9</title>
<path fill="none" stroke="midnightblue" d="M339.6,-56.4C364.69,-46.18 398.23,-32.51 421.93,-22.85"/>
<polygon fill="midnightblue" stroke="midnightblue" points="423.5,-25.99 431.44,-18.97 420.86,-19.51 423.5,-25.99"/>
</g>
</g>
</svg>
