<?xml version="1.0" encoding="UTF-8" standalone="no"?>
<!DOCTYPE svg PUBLIC "-//W3C//DTD SVG 1.1//EN"
 "http://www.w3.org/Graphics/SVG/1.1/DTD/svg11.dtd">
<!-- Generated by graphviz version 2.44.0 ()
 -->
<!-- Title: src/async/future_impl.cpp Pages: 1 -->
<svg width="985pt" height="766pt"
 viewBox="0.00 0.00 984.50 766.00" xmlns="http://www.w3.org/2000/svg" xmlns:xlink="http://www.w3.org/1999/xlink">
<g id="graph0" class="graph" transform="scale(1 1) rotate(0) translate(4 762)">
<title>src/async/future_impl.cpp</title>
<!-- Node1 -->
<g id="node1" class="node">
<title>Node1</title>
<g id="a_node1"><a xlink:title=" ">
<polygon fill="#bfbfbf" stroke="black" points="107.5,-738.5 107.5,-757.5 235.5,-757.5 235.5,-738.5 107.5,-738.5"/>
<text text-anchor="middle" x="171.5" y="-745.5" font-family="Helvetica,sans-Serif" font-size="10.00">src/async/future_impl.cpp</text>
</a>
</g>
</g>
<!-- Node2 -->
<g id="node2" class="node">
<title>Node2</title>
<g id="a_node2"><a xlink:href="future_8hpp.html" target="_top" xlink:title=" ">
<polygon fill="none" stroke="black" points="113.5,-682.5 113.5,-701.5 229.5,-701.5 229.5,-682.5 113.5,-682.5"/>
<text text-anchor="middle" x="171.5" y="-689.5" font-family="Helvetica,sans-Serif" font-size="10.00">yaclib/async/future.hpp</text>
</a>
</g>
</g>
<!-- Node1&#45;&gt;Node2 -->
<g id="edge1" class="edge">
<title>Node1&#45;&gt;Node2</title>
<path fill="none" stroke="midnightblue" d="M171.5,-738.08C171.5,-731.01 171.5,-720.86 171.5,-711.99"/>
<polygon fill="midnightblue" stroke="midnightblue" points="175,-711.75 171.5,-701.75 168,-711.75 175,-711.75"/>
</g>
<!-- Node3 -->
<g id="node3" class="node">
<title>Node3</title>
<g id="a_node3"><a xlink:href="result__core_8hpp.html" target="_top" xlink:title=" ">
<polygon fill="none" stroke="black" points="185.5,-425.5 185.5,-455.5 281.5,-455.5 281.5,-425.5 185.5,-425.5"/>
<text text-anchor="start" x="193.5" y="-443.5" font-family="Helvetica,sans-Serif" font-size="10.00">yaclib/async/detail</text>
<text text-anchor="middle" x="233.5" y="-432.5" font-family="Helvetica,sans-Serif" font-size="10.00">/result_core.hpp</text>
</a>
</g>
</g>
<!-- Node2&#45;&gt;Node3 -->
<g id="edge2" class="edge">
<title>Node2&#45;&gt;Node3</title>
<path fill="none" stroke="midnightblue" d="M146,-682.47C129.51,-675.48 109.36,-663.79 99.5,-646 95.19,-638.23 97.54,-634.67 99.5,-626 114.08,-561.63 121.2,-542.66 163.5,-492 173.39,-480.15 186.66,-469.66 198.98,-461.36"/>
<polygon fill="midnightblue" stroke="midnightblue" points="201.22,-464.07 207.72,-455.71 197.42,-458.2 201.22,-464.07"/>
</g>
<!-- Node5 -->
<g id="node5" class="node">
<title>Node5</title>
<g id="a_node5"><a xlink:href="executor_8hpp.html" target="_top" xlink:title=" ">
<polygon fill="none" stroke="black" points="485,-246.5 485,-265.5 624,-265.5 624,-246.5 485,-246.5"/>
<text text-anchor="middle" x="554.5" y="-253.5" font-family="Helvetica,sans-Serif" font-size="10.00">yaclib/executor/executor.hpp</text>
</a>
</g>
</g>
<!-- Node2&#45;&gt;Node5 -->
<g id="edge33" class="edge">
<title>Node2&#45;&gt;Node5</title>
<path fill="none" stroke="midnightblue" d="M209.35,-682.4C259.02,-669.51 346.66,-641.07 404.5,-590 507.21,-499.31 447.55,-421.55 514.5,-302 520.48,-291.33 529.34,-281.01 537.21,-272.96"/>
<polygon fill="midnightblue" stroke="midnightblue" points="539.91,-275.22 544.61,-265.72 535.01,-270.21 539.91,-275.22"/>
</g>
<!-- Node19 -->
<g id="node19" class="node">
<title>Node19</title>
<g id="a_node19"><a xlink:href="type__traits_8hpp.html" target="_top" xlink:title=" ">
<polygon fill="none" stroke="black" points="0,-302.5 0,-321.5 123,-321.5 123,-302.5 0,-302.5"/>
<text text-anchor="middle" x="61.5" y="-309.5" font-family="Helvetica,sans-Serif" font-size="10.00">yaclib/util/type_traits.hpp</text>
</a>
</g>
</g>
<!-- Node2&#45;&gt;Node19 -->
<g id="edge34" class="edge">
<title>Node2&#45;&gt;Node19</title>
<path fill="none" stroke="midnightblue" d="M148.14,-682.48C110.96,-667.24 42.5,-631.56 42.5,-575.5 42.5,-575.5 42.5,-575.5 42.5,-439.5 42.5,-400.77 51.32,-356.11 56.94,-331.57"/>
<polygon fill="midnightblue" stroke="midnightblue" points="60.42,-332.06 59.32,-321.52 53.61,-330.44 60.42,-332.06"/>
</g>
<!-- Node24 -->
<g id="node24" class="node">
<title>Node24</title>
<g id="a_node24"><a xlink:href="promise_8hpp.html" target="_top" xlink:title=" ">
<polygon fill="none" stroke="black" points="109,-626.5 109,-645.5 234,-645.5 234,-626.5 109,-626.5"/>
<text text-anchor="middle" x="171.5" y="-633.5" font-family="Helvetica,sans-Serif" font-size="10.00">yaclib/async/promise.hpp</text>
</a>
</g>
</g>
<!-- Node2&#45;&gt;Node24 -->
<g id="edge35" class="edge">
<title>Node2&#45;&gt;Node24</title>
<path fill="none" stroke="midnightblue" d="M166.33,-682.08C164.82,-674.93 164.39,-664.64 165.04,-655.69"/>
<polygon fill="midnightblue" stroke="midnightblue" points="168.52,-656.13 166.37,-645.75 161.58,-655.2 168.52,-656.13"/>
</g>
<!-- Node25 -->
<g id="node25" class="node">
<title>Node25</title>
<g id="a_node25"><a xlink:href="future__impl_8hpp.html" target="_top" xlink:title=" ">
<polygon fill="none" stroke="black" points="185.5,-559.5 185.5,-589.5 281.5,-589.5 281.5,-559.5 185.5,-559.5"/>
<text text-anchor="start" x="193.5" y="-577.5" font-family="Helvetica,sans-Serif" font-size="10.00">yaclib/async/detail</text>
<text text-anchor="middle" x="233.5" y="-566.5" font-family="Helvetica,sans-Serif" font-size="10.00">/future_impl.hpp</text>
</a>
</g>
</g>
<!-- Node2&#45;&gt;Node25 -->
<g id="edge53" class="edge">
<title>Node2&#45;&gt;Node25</title>
<path fill="none" stroke="midnightblue" d="M196.66,-682.38C212.92,-675.34 232.79,-663.65 242.5,-646 250.3,-631.82 247.75,-613.66 243.4,-599.33"/>
<polygon fill="midnightblue" stroke="midnightblue" points="246.63,-597.97 240.04,-589.68 240.02,-600.27 246.63,-597.97"/>
</g>
<!-- Node32 -->
<g id="node32" class="node">
<title>Node32</title>
<g id="a_node32"><a xlink:href="promise__impl_8hpp.html" target="_top" xlink:title=" ">
<polygon fill="none" stroke="black" points="299.5,-559.5 299.5,-589.5 395.5,-589.5 395.5,-559.5 299.5,-559.5"/>
<text text-anchor="start" x="307.5" y="-577.5" font-family="Helvetica,sans-Serif" font-size="10.00">yaclib/async/detail</text>
<text text-anchor="middle" x="347.5" y="-566.5" font-family="Helvetica,sans-Serif" font-size="10.00">/promise_impl.hpp</text>
</a>
</g>
</g>
<!-- Node2&#45;&gt;Node32 -->
<g id="edge54" class="edge">
<title>Node2&#45;&gt;Node32</title>
<path fill="none" stroke="midnightblue" d="M191,-682.42C209.26,-674.07 237.02,-660.54 259.5,-646 282.67,-631.02 307,-611.16 324.19,-596.34"/>
<polygon fill="midnightblue" stroke="midnightblue" points="326.78,-598.73 332.02,-589.52 322.18,-593.45 326.78,-598.73"/>
</g>
<!-- Node4 -->
<g id="node4" class="node">
<title>Node4</title>
<g id="a_node4"><a xlink:href="base__core_8hpp.html" target="_top" xlink:title=" ">
<polygon fill="none" stroke="black" points="508.5,-358.5 508.5,-388.5 604.5,-388.5 604.5,-358.5 508.5,-358.5"/>
<text text-anchor="start" x="516.5" y="-376.5" font-family="Helvetica,sans-Serif" font-size="10.00">yaclib/async/detail</text>
<text text-anchor="middle" x="556.5" y="-365.5" font-family="Helvetica,sans-Serif" font-size="10.00">/base_core.hpp</text>
</a>
</g>
</g>
<!-- Node3&#45;&gt;Node4 -->
<g id="edge3" class="edge">
<title>Node3&#45;&gt;Node4</title>
<path fill="none" stroke="midnightblue" d="M281.51,-429.84C339.36,-418.2 436.49,-398.65 498.48,-386.18"/>
<polygon fill="midnightblue" stroke="midnightblue" points="499.38,-389.57 508.49,-384.16 498,-382.7 499.38,-389.57"/>
</g>
<!-- Node18 -->
<g id="node18" class="node">
<title>Node18</title>
<g id="a_node18"><a xlink:href="result_8hpp.html" target="_top" xlink:title=" ">
<polygon fill="none" stroke="black" points="183.5,-364 183.5,-383 285.5,-383 285.5,-364 183.5,-364"/>
<text text-anchor="middle" x="234.5" y="-371" font-family="Helvetica,sans-Serif" font-size="10.00">yaclib/util/result.hpp</text>
</a>
</g>
</g>
<!-- Node3&#45;&gt;Node18 -->
<g id="edge25" class="edge">
<title>Node3&#45;&gt;Node18</title>
<path fill="none" stroke="midnightblue" d="M233.72,-425.4C233.86,-416.06 234.05,-403.71 234.21,-393.52"/>
<polygon fill="midnightblue" stroke="midnightblue" points="237.71,-393.25 234.37,-383.19 230.71,-393.14 237.71,-393.25"/>
</g>
<!-- Node4&#45;&gt;Node5 -->
<g id="edge4" class="edge">
<title>Node4&#45;&gt;Node5</title>
<path fill="none" stroke="midnightblue" d="M542.76,-358.39C534.55,-348.93 524.9,-335.74 520.5,-322 517.79,-313.53 517.67,-310.43 520.5,-302 524.1,-291.25 531.4,-281.02 538.32,-273.04"/>
<polygon fill="midnightblue" stroke="midnightblue" points="540.98,-275.32 545.21,-265.61 535.85,-270.56 540.98,-275.32"/>
</g>
<!-- Node6 -->
<g id="node6" class="node">
<title>Node6</title>
<g id="a_node6"><a xlink:href="task_8hpp.html" target="_top" xlink:title=" ">
<polygon fill="none" stroke="black" points="549,-190.5 549,-209.5 670,-209.5 670,-190.5 549,-190.5"/>
<text text-anchor="middle" x="609.5" y="-197.5" font-family="Helvetica,sans-Serif" font-size="10.00">yaclib/executor/task.hpp</text>
</a>
</g>
</g>
<!-- Node4&#45;&gt;Node6 -->
<g id="edge22" class="edge">
<title>Node4&#45;&gt;Node6</title>
<path fill="none" stroke="midnightblue" d="M604.67,-362.24C626.58,-354.91 650.47,-342.56 663.5,-322 685.85,-286.74 649.37,-240.66 626.24,-216.82"/>
<polygon fill="midnightblue" stroke="midnightblue" points="628.58,-214.21 619.02,-209.64 623.64,-219.17 628.58,-214.21"/>
</g>
<!-- Node10 -->
<g id="node10" class="node">
<title>Node10</title>
<g id="a_node10"><a xlink:title=" ">
<polygon fill="none" stroke="#bfbfbf" points="779.5,-0.5 779.5,-19.5 825.5,-19.5 825.5,-0.5 779.5,-0.5"/>
<text text-anchor="middle" x="802.5" y="-7.5" font-family="Helvetica,sans-Serif" font-size="10.00">atomic</text>
</a>
</g>
</g>
<!-- Node4&#45;&gt;Node10 -->
<g id="edge24" class="edge">
<title>Node4&#45;&gt;Node10</title>
<path fill="none" stroke="midnightblue" d="M604.64,-362.61C630.05,-355.2 660.09,-342.68 680.5,-322 765.72,-235.67 793.12,-82.81 800.3,-29.76"/>
<polygon fill="midnightblue" stroke="midnightblue" points="803.78,-30.12 801.57,-19.76 796.84,-29.24 803.78,-30.12"/>
</g>
<!-- Node11 -->
<g id="node11" class="node">
<title>Node11</title>
<g id="a_node11"><a xlink:href="intrusive__ptr_8hpp.html" target="_top" xlink:title=" ">
<polygon fill="none" stroke="black" points="446,-56.5 446,-86.5 543,-86.5 543,-56.5 446,-56.5"/>
<text text-anchor="start" x="454" y="-74.5" font-family="Helvetica,sans-Serif" font-size="10.00">yaclib/util/intrusive</text>
<text text-anchor="middle" x="494.5" y="-63.5" font-family="Helvetica,sans-Serif" font-size="10.00">_ptr.hpp</text>
</a>
</g>
</g>
<!-- Node4&#45;&gt;Node11 -->
<g id="edge23" class="edge">
<title>Node4&#45;&gt;Node11</title>
<path fill="none" stroke="midnightblue" d="M540.27,-358.27C520.3,-339.5 487.54,-304.34 475.5,-266 457.1,-207.38 474.47,-134.29 486.05,-96.95"/>
<polygon fill="midnightblue" stroke="midnightblue" points="489.52,-97.57 489.27,-86.98 482.86,-95.42 489.52,-97.57"/>
</g>
<!-- Node17 -->
<g id="node17" class="node">
<title>Node17</title>
<g id="a_node17"><a xlink:href="inline_8hpp.html" target="_top" xlink:title=" ">
<polygon fill="none" stroke="black" points="529,-302.5 529,-321.5 654,-321.5 654,-302.5 529,-302.5"/>
<text text-anchor="middle" x="591.5" y="-309.5" font-family="Helvetica,sans-Serif" font-size="10.00">yaclib/executor/inline.hpp</text>
</a>
</g>
</g>
<!-- Node4&#45;&gt;Node17 -->
<g id="edge20" class="edge">
<title>Node4&#45;&gt;Node17</title>
<path fill="none" stroke="midnightblue" d="M564.79,-358.4C569.72,-350.02 576.01,-339.33 581.25,-330.42"/>
<polygon fill="midnightblue" stroke="midnightblue" points="584.35,-332.05 586.41,-321.66 578.32,-328.5 584.35,-332.05"/>
</g>
<!-- Node5&#45;&gt;Node6 -->
<g id="edge5" class="edge">
<title>Node5&#45;&gt;Node6</title>
<path fill="none" stroke="midnightblue" d="M563.58,-246.08C571.67,-238.14 583.7,-226.34 593.41,-216.8"/>
<polygon fill="midnightblue" stroke="midnightblue" points="595.9,-219.25 600.59,-209.75 591,-214.26 595.9,-219.25"/>
</g>
<!-- Node5&#45;&gt;Node11 -->
<g id="edge19" class="edge">
<title>Node5&#45;&gt;Node11</title>
<path fill="none" stroke="midnightblue" d="M550.67,-246.5C543.04,-229.3 525.68,-189.04 514.5,-154 508.4,-134.87 503.07,-112.72 499.45,-96.34"/>
<polygon fill="midnightblue" stroke="midnightblue" points="502.86,-95.54 497.33,-86.5 496.01,-97.02 502.86,-95.54"/>
</g>
<!-- Node7 -->
<g id="node7" class="node">
<title>Node7</title>
<g id="a_node7"><a xlink:href="func_8hpp.html" target="_top" xlink:title=" ">
<polygon fill="none" stroke="black" points="523,-129 523,-148 620,-148 620,-129 523,-129"/>
<text text-anchor="middle" x="571.5" y="-136" font-family="Helvetica,sans-Serif" font-size="10.00">yaclib/util/func.hpp</text>
</a>
</g>
</g>
<!-- Node6&#45;&gt;Node7 -->
<g id="edge6" class="edge">
<title>Node6&#45;&gt;Node7</title>
<path fill="none" stroke="midnightblue" d="M604.06,-190.48C598.41,-181.64 589.44,-167.59 582.34,-156.48"/>
<polygon fill="midnightblue" stroke="midnightblue" points="585.27,-154.55 576.93,-148.01 579.37,-158.32 585.27,-154.55"/>
</g>
<!-- Node16 -->
<g id="node16" class="node">
<title>Node16</title>
<g id="a_node16"><a xlink:href="intrusive__node_8hpp.html" target="_top" xlink:title=" ">
<polygon fill="none" stroke="black" points="638,-123.5 638,-153.5 735,-153.5 735,-123.5 638,-123.5"/>
<text text-anchor="start" x="646" y="-141.5" font-family="Helvetica,sans-Serif" font-size="10.00">yaclib/util/intrusive</text>
<text text-anchor="middle" x="686.5" y="-130.5" font-family="Helvetica,sans-Serif" font-size="10.00">_node.hpp</text>
</a>
</g>
</g>
<!-- Node6&#45;&gt;Node16 -->
<g id="edge18" class="edge">
<title>Node6&#45;&gt;Node16</title>
<path fill="none" stroke="midnightblue" d="M620.53,-190.48C630.86,-182.49 646.7,-170.25 660.27,-159.77"/>
<polygon fill="midnightblue" stroke="midnightblue" points="662.58,-162.41 668.35,-153.52 658.3,-156.87 662.58,-162.41"/>
</g>
<!-- Node8 -->
<g id="node8" class="node">
<title>Node8</title>
<g id="a_node8"><a xlink:href="counters_8hpp.html" target="_top" xlink:title=" ">
<polygon fill="none" stroke="black" points="829.5,-62 829.5,-81 945.5,-81 945.5,-62 829.5,-62"/>
<text text-anchor="middle" x="887.5" y="-69" font-family="Helvetica,sans-Serif" font-size="10.00">yaclib/util/counters.hpp</text>
</a>
</g>
</g>
<!-- Node7&#45;&gt;Node8 -->
<g id="edge7" class="edge">
<title>Node7&#45;&gt;Node8</title>
<path fill="none" stroke="midnightblue" d="M604.25,-129C612.47,-126.95 621.29,-124.83 629.5,-123 698,-107.75 777.28,-92.6 829.68,-82.93"/>
<polygon fill="midnightblue" stroke="midnightblue" points="830.59,-86.32 839.79,-81.07 829.33,-79.44 830.59,-86.32"/>
</g>
<!-- Node7&#45;&gt;Node11 -->
<g id="edge10" class="edge">
<title>Node7&#45;&gt;Node11</title>
<path fill="none" stroke="midnightblue" d="M561.12,-128.73C550.41,-119.7 533.32,-105.27 519.14,-93.3"/>
<polygon fill="midnightblue" stroke="midnightblue" points="521.09,-90.37 511.19,-86.59 516.57,-95.71 521.09,-90.37"/>
</g>
<!-- Node12 -->
<g id="node12" class="node">
<title>Node12</title>
<g id="a_node12"><a xlink:href="ref_8hpp.html" target="_top" xlink:title=" ">
<polygon fill="none" stroke="black" points="598,-0.5 598,-19.5 687,-19.5 687,-0.5 598,-0.5"/>
<text text-anchor="middle" x="642.5" y="-7.5" font-family="Helvetica,sans-Serif" font-size="10.00">yaclib/util/ref.hpp</text>
</a>
</g>
</g>
<!-- Node7&#45;&gt;Node12 -->
<g id="edge15" class="edge">
<title>Node7&#45;&gt;Node12</title>
<path fill="none" stroke="midnightblue" d="M576.38,-128.81C587.93,-108.22 617.14,-56.19 632.58,-28.68"/>
<polygon fill="midnightblue" stroke="midnightblue" points="635.74,-30.19 637.59,-19.76 629.64,-26.76 635.74,-30.19"/>
</g>
<!-- Node14 -->
<g id="node14" class="node">
<title>Node14</title>
<g id="a_node14"><a xlink:title=" ">
<polygon fill="none" stroke="#bfbfbf" points="386.5,-0.5 386.5,-19.5 448.5,-19.5 448.5,-0.5 386.5,-0.5"/>
<text text-anchor="middle" x="417.5" y="-7.5" font-family="Helvetica,sans-Serif" font-size="10.00">type_traits</text>
</a>
</g>
</g>
<!-- Node7&#45;&gt;Node14 -->
<g id="edge16" class="edge">
<title>Node7&#45;&gt;Node14</title>
<path fill="none" stroke="midnightblue" d="M522.98,-130.85C493.97,-124.39 458.58,-111.73 436.5,-87 422.52,-71.34 418.49,-46.93 417.49,-30.02"/>
<polygon fill="midnightblue" stroke="midnightblue" points="420.98,-29.6 417.21,-19.71 413.99,-29.8 420.98,-29.6"/>
</g>
<!-- Node15 -->
<g id="node15" class="node">
<title>Node15</title>
<g id="a_node15"><a xlink:title=" ">
<polygon fill="none" stroke="#bfbfbf" points="541,-0.5 541,-19.5 580,-19.5 580,-0.5 541,-0.5"/>
<text text-anchor="middle" x="560.5" y="-7.5" font-family="Helvetica,sans-Serif" font-size="10.00">utility</text>
</a>
</g>
</g>
<!-- Node7&#45;&gt;Node15 -->
<g id="edge17" class="edge">
<title>Node7&#45;&gt;Node15</title>
<path fill="none" stroke="midnightblue" d="M570.74,-128.81C568.98,-108.49 564.55,-57.55 562.13,-29.78"/>
<polygon fill="midnightblue" stroke="midnightblue" points="565.61,-29.41 561.26,-19.76 558.64,-30.02 565.61,-29.41"/>
</g>
<!-- Node9 -->
<g id="node9" class="node">
<title>Node9</title>
<g id="a_node9"><a xlink:title=" ">
<polygon fill="none" stroke="#bfbfbf" points="843.5,-0.5 843.5,-19.5 931.5,-19.5 931.5,-0.5 843.5,-0.5"/>
<text text-anchor="middle" x="887.5" y="-7.5" font-family="Helvetica,sans-Serif" font-size="10.00">yaclib/config.hpp</text>
</a>
</g>
</g>
<!-- Node8&#45;&gt;Node9 -->
<g id="edge8" class="edge">
<title>Node8&#45;&gt;Node9</title>
<path fill="none" stroke="midnightblue" d="M887.5,-61.98C887.5,-53.58 887.5,-40.48 887.5,-29.66"/>
<polygon fill="midnightblue" stroke="midnightblue" points="891,-29.51 887.5,-19.51 884,-29.51 891,-29.51"/>
</g>
<!-- Node8&#45;&gt;Node10 -->
<g id="edge9" class="edge">
<title>Node8&#45;&gt;Node10</title>
<path fill="none" stroke="midnightblue" d="M875.32,-61.98C861.69,-52.43 839.37,-36.81 823.03,-25.37"/>
<polygon fill="midnightblue" stroke="midnightblue" points="824.86,-22.38 814.66,-19.51 820.84,-28.11 824.86,-22.38"/>
</g>
<!-- Node11&#45;&gt;Node12 -->
<g id="edge11" class="edge">
<title>Node11&#45;&gt;Node12</title>
<path fill="none" stroke="midnightblue" d="M529.57,-56.4C554.52,-46.37 587.71,-33.03 611.64,-23.4"/>
<polygon fill="midnightblue" stroke="midnightblue" points="612.99,-26.64 620.96,-19.66 610.38,-20.14 612.99,-26.64"/>
</g>
<!-- Node13 -->
<g id="node13" class="node">
<title>Node13</title>
<g id="a_node13"><a xlink:title=" ">
<polygon fill="none" stroke="#bfbfbf" points="466.5,-0.5 466.5,-19.5 522.5,-19.5 522.5,-0.5 466.5,-0.5"/>
<text text-anchor="middle" x="494.5" y="-7.5" font-family="Helvetica,sans-Serif" font-size="10.00">algorithm</text>
</a>
</g>
</g>
<!-- Node11&#45;&gt;Node13 -->
<g id="edge12" class="edge">
<title>Node11&#45;&gt;Node13</title>
<path fill="none" stroke="midnightblue" d="M494.5,-56.4C494.5,-48.47 494.5,-38.46 494.5,-29.86"/>
<polygon fill="midnightblue" stroke="midnightblue" points="498,-29.66 494.5,-19.66 491,-29.66 498,-29.66"/>
</g>
<!-- Node11&#45;&gt;Node14 -->
<g id="edge13" class="edge">
<title>Node11&#45;&gt;Node14</title>
<path fill="none" stroke="midnightblue" d="M476.25,-56.4C464.37,-47.22 448.89,-35.26 436.81,-25.92"/>
<polygon fill="midnightblue" stroke="midnightblue" points="438.76,-23 428.7,-19.66 434.48,-28.54 438.76,-23"/>
</g>
<!-- Node11&#45;&gt;Node15 -->
<g id="edge14" class="edge">
<title>Node11&#45;&gt;Node15</title>
<path fill="none" stroke="midnightblue" d="M510.14,-56.4C520.13,-47.4 533.08,-35.72 543.35,-26.47"/>
<polygon fill="midnightblue" stroke="midnightblue" points="545.81,-28.95 550.9,-19.66 541.13,-23.75 545.81,-28.95"/>
</g>
<!-- Node17&#45;&gt;Node5 -->
<g id="edge21" class="edge">
<title>Node17&#45;&gt;Node5</title>
<path fill="none" stroke="midnightblue" d="M585.39,-302.08C580.22,-294.53 572.65,-283.49 566.31,-274.23"/>
<polygon fill="midnightblue" stroke="midnightblue" points="569.04,-272.02 560.5,-265.75 563.26,-275.98 569.04,-272.02"/>
</g>
<!-- Node18&#45;&gt;Node19 -->
<g id="edge26" class="edge">
<title>Node18&#45;&gt;Node19</title>
<path fill="none" stroke="midnightblue" d="M209.71,-363.98C179.91,-353.72 129.71,-336.46 96.1,-324.9"/>
<polygon fill="midnightblue" stroke="midnightblue" points="96.84,-321.45 86.24,-321.51 94.56,-328.07 96.84,-321.45"/>
</g>
<!-- Node21 -->
<g id="node21" class="node">
<title>Node21</title>
<g id="a_node21"><a xlink:title=" ">
<polygon fill="none" stroke="#bfbfbf" points="106.5,-246.5 106.5,-265.5 164.5,-265.5 164.5,-246.5 106.5,-246.5"/>
<text text-anchor="middle" x="135.5" y="-253.5" font-family="Helvetica,sans-Serif" font-size="10.00">exception</text>
</a>
</g>
</g>
<!-- Node18&#45;&gt;Node21 -->
<g id="edge30" class="edge">
<title>Node18&#45;&gt;Node21</title>
<path fill="none" stroke="midnightblue" d="M220.39,-363.84C206.42,-354.73 185.06,-339.34 170.5,-322 158.55,-307.76 148.91,-288.8 142.79,-275.03"/>
<polygon fill="midnightblue" stroke="midnightblue" points="145.95,-273.51 138.82,-265.68 139.51,-276.25 145.95,-273.51"/>
</g>
<!-- Node22 -->
<g id="node22" class="node">
<title>Node22</title>
<g id="a_node22"><a xlink:title=" ">
<polygon fill="none" stroke="#bfbfbf" points="180,-302.5 180,-321.5 253,-321.5 253,-302.5 180,-302.5"/>
<text text-anchor="middle" x="216.5" y="-309.5" font-family="Helvetica,sans-Serif" font-size="10.00">system_error</text>
</a>
</g>
</g>
<!-- Node18&#45;&gt;Node22 -->
<g id="edge31" class="edge">
<title>Node18&#45;&gt;Node22</title>
<path fill="none" stroke="midnightblue" d="M231.92,-363.98C229.35,-355.49 225.33,-342.2 222.04,-331.32"/>
<polygon fill="midnightblue" stroke="midnightblue" points="225.32,-330.07 219.07,-321.51 218.62,-332.09 225.32,-330.07"/>
</g>
<!-- Node23 -->
<g id="node23" class="node">
<title>Node23</title>
<g id="a_node23"><a xlink:title=" ">
<polygon fill="none" stroke="#bfbfbf" points="271.5,-302.5 271.5,-321.5 317.5,-321.5 317.5,-302.5 271.5,-302.5"/>
<text text-anchor="middle" x="294.5" y="-309.5" font-family="Helvetica,sans-Serif" font-size="10.00">variant</text>
</a>
</g>
</g>
<!-- Node18&#45;&gt;Node23 -->
<g id="edge32" class="edge">
<title>Node18&#45;&gt;Node23</title>
<path fill="none" stroke="midnightblue" d="M243.1,-363.98C252.36,-354.78 267.32,-339.96 278.71,-328.66"/>
<polygon fill="midnightblue" stroke="midnightblue" points="281.28,-331.04 285.92,-321.51 276.35,-326.07 281.28,-331.04"/>
</g>
<!-- Node19&#45;&gt;Node14 -->
<g id="edge29" class="edge">
<title>Node19&#45;&gt;Node14</title>
<path fill="none" stroke="midnightblue" d="M62.68,-302.46C65.12,-283.99 70.5,-238.94 70.5,-201 70.5,-201 70.5,-201 70.5,-137.5 70.5,-73.06 284.42,-31.83 376.34,-17.08"/>
<polygon fill="midnightblue" stroke="midnightblue" points="377.07,-20.51 386.4,-15.5 375.98,-13.6 377.07,-20.51"/>
</g>
<!-- Node20 -->
<g id="node20" class="node">
<title>Node20</title>
<g id="a_node20"><a xlink:title=" ">
<polygon fill="none" stroke="#bfbfbf" points="252,-246.5 252,-265.5 301,-265.5 301,-246.5 252,-246.5"/>
<text text-anchor="middle" x="276.5" y="-253.5" font-family="Helvetica,sans-Serif" font-size="10.00">cassert</text>
</a>
</g>
</g>
<!-- Node19&#45;&gt;Node20 -->
<g id="edge27" class="edge">
<title>Node19&#45;&gt;Node20</title>
<path fill="none" stroke="midnightblue" d="M95.57,-302.44C135.65,-292.38 201.83,-275.75 242.07,-265.65"/>
<polygon fill="midnightblue" stroke="midnightblue" points="243.11,-269 251.95,-263.16 241.4,-262.21 243.11,-269"/>
</g>
<!-- Node19&#45;&gt;Node21 -->
<g id="edge28" class="edge">
<title>Node19&#45;&gt;Node21</title>
<path fill="none" stroke="midnightblue" d="M73.39,-302.32C84.65,-294.11 101.79,-281.6 115.21,-271.81"/>
<polygon fill="midnightblue" stroke="midnightblue" points="117.38,-274.56 123.39,-265.83 113.25,-268.9 117.38,-274.56"/>
</g>
<!-- Node24&#45;&gt;Node2 -->
<g id="edge38" class="edge">
<title>Node24&#45;&gt;Node2</title>
<path fill="none" stroke="midnightblue" d="M176.63,-645.75C178.16,-652.86 178.6,-663.14 177.97,-672.1"/>
<polygon fill="midnightblue" stroke="midnightblue" points="174.49,-671.71 176.67,-682.08 181.43,-672.62 174.49,-671.71"/>
</g>
<!-- Node24&#45;&gt;Node3 -->
<g id="edge36" class="edge">
<title>Node24&#45;&gt;Node3</title>
<path fill="none" stroke="midnightblue" d="M169.57,-626.4C164.84,-603.3 154.58,-538.52 176.5,-492 182.05,-480.23 191.76,-470.04 201.61,-461.96"/>
<polygon fill="midnightblue" stroke="midnightblue" points="204,-464.54 209.83,-455.68 199.75,-458.97 204,-464.54"/>
</g>
<!-- Node24&#45;&gt;Node19 -->
<g id="edge37" class="edge">
<title>Node24&#45;&gt;Node19</title>
<path fill="none" stroke="midnightblue" d="M168.56,-626.39C153.89,-583.45 88.56,-392.21 67.83,-331.53"/>
<polygon fill="midnightblue" stroke="midnightblue" points="71.05,-330.12 64.5,-321.79 64.42,-332.38 71.05,-330.12"/>
</g>
<!-- Node24&#45;&gt;Node25 -->
<g id="edge39" class="edge">
<title>Node24&#45;&gt;Node25</title>
<path fill="none" stroke="midnightblue" d="M180.38,-626.48C188.47,-618.72 200.74,-606.94 211.45,-596.66"/>
<polygon fill="midnightblue" stroke="midnightblue" points="214.1,-598.97 218.89,-589.52 209.25,-593.92 214.1,-598.97"/>
</g>
<!-- Node24&#45;&gt;Node32 -->
<g id="edge52" class="edge">
<title>Node24&#45;&gt;Node32</title>
<path fill="none" stroke="midnightblue" d="M196.72,-626.48C222.56,-617.74 263.47,-603.91 296.16,-592.86"/>
<polygon fill="midnightblue" stroke="midnightblue" points="297.67,-596.04 306.02,-589.52 295.43,-589.41 297.67,-596.04"/>
</g>
<!-- Node25&#45;&gt;Node20 -->
<g id="edge51" class="edge">
<title>Node25&#45;&gt;Node20</title>
<path fill="none" stroke="midnightblue" d="M255.79,-559.32C267.97,-550.38 282.22,-537.76 290.5,-523 334.92,-443.86 318.47,-412.4 326.5,-322 327.29,-313.15 330.12,-310.12 326.5,-302 320.93,-289.5 309.98,-279.01 299.75,-271.32"/>
<polygon fill="midnightblue" stroke="midnightblue" points="301.66,-268.38 291.45,-265.53 297.65,-274.12 301.66,-268.38"/>
</g>
<!-- Node26 -->
<g id="node26" class="node">
<title>Node26</title>
<g id="a_node26"><a xlink:href="wait_8hpp.html" target="_top" xlink:title=" ">
<polygon fill="none" stroke="black" points="338,-498 338,-517 439,-517 439,-498 338,-498"/>
<text text-anchor="middle" x="388.5" y="-505" font-family="Helvetica,sans-Serif" font-size="10.00">yaclib/algo/wait.hpp</text>
</a>
</g>
</g>
<!-- Node25&#45;&gt;Node26 -->
<g id="edge40" class="edge">
<title>Node25&#45;&gt;Node26</title>
<path fill="none" stroke="midnightblue" d="M267.13,-559.4C294.45,-547.94 332.61,-531.94 358.81,-520.95"/>
<polygon fill="midnightblue" stroke="midnightblue" points="360.35,-524.1 368.21,-517.01 357.64,-517.65 360.35,-524.1"/>
</g>
<!-- Node31 -->
<g id="node31" class="node">
<title>Node31</title>
<g id="a_node31"><a xlink:href="core_8hpp.html" target="_top" xlink:title=" ">
<polygon fill="none" stroke="black" points="185.5,-492.5 185.5,-522.5 281.5,-522.5 281.5,-492.5 185.5,-492.5"/>
<text text-anchor="start" x="193.5" y="-510.5" font-family="Helvetica,sans-Serif" font-size="10.00">yaclib/async/detail</text>
<text text-anchor="middle" x="233.5" y="-499.5" font-family="Helvetica,sans-Serif" font-size="10.00">/core.hpp</text>
</a>
</g>
</g>
<!-- Node25&#45;&gt;Node31 -->
<g id="edge49" class="edge">
<title>Node25&#45;&gt;Node31</title>
<path fill="none" stroke="midnightblue" d="M233.5,-559.4C233.5,-551.64 233.5,-541.81 233.5,-532.86"/>
<polygon fill="midnightblue" stroke="midnightblue" points="237,-532.58 233.5,-522.58 230,-532.58 237,-532.58"/>
</g>
<!-- Node27 -->
<g id="node27" class="node">
<title>Node27</title>
<g id="a_node27"><a xlink:href="wait__impl_8hpp.html" target="_top" xlink:title=" ">
<polygon fill="none" stroke="black" points="512,-425.5 512,-455.5 601,-455.5 601,-425.5 512,-425.5"/>
<text text-anchor="start" x="520" y="-443.5" font-family="Helvetica,sans-Serif" font-size="10.00">yaclib/algo/detail</text>
<text text-anchor="middle" x="556.5" y="-432.5" font-family="Helvetica,sans-Serif" font-size="10.00">/wait_impl.hpp</text>
</a>
</g>
</g>
<!-- Node26&#45;&gt;Node27 -->
<g id="edge41" class="edge">
<title>Node26&#45;&gt;Node27</title>
<path fill="none" stroke="midnightblue" d="M410.81,-497.87C436.13,-488.07 478.11,-471.83 510.52,-459.29"/>
<polygon fill="midnightblue" stroke="midnightblue" points="512.18,-462.4 520.24,-455.53 509.65,-455.87 512.18,-462.4"/>
</g>
<!-- Node27&#45;&gt;Node4 -->
<g id="edge42" class="edge">
<title>Node27&#45;&gt;Node4</title>
<path fill="none" stroke="midnightblue" d="M556.5,-425.4C556.5,-417.64 556.5,-407.81 556.5,-398.86"/>
<polygon fill="midnightblue" stroke="midnightblue" points="560,-398.58 556.5,-388.58 553,-398.58 560,-398.58"/>
</g>
<!-- Node27&#45;&gt;Node8 -->
<g id="edge47" class="edge">
<title>Node27&#45;&gt;Node8</title>
<path fill="none" stroke="midnightblue" d="M601.05,-435.62C709.14,-424.97 976.5,-390.77 976.5,-313 976.5,-313 976.5,-313 976.5,-199 976.5,-151.27 933.59,-108.83 907.36,-87.35"/>
<polygon fill="midnightblue" stroke="midnightblue" points="909.52,-84.59 899.5,-81.13 905.17,-90.08 909.52,-84.59"/>
</g>
<!-- Node27&#45;&gt;Node19 -->
<g id="edge48" class="edge">
<title>Node27&#45;&gt;Node19</title>
<path fill="none" stroke="midnightblue" d="M511.76,-436.34C424.54,-429.73 235.04,-413.04 174.5,-389 152.6,-380.3 150.97,-371.26 131.5,-358 115.88,-347.36 97.95,-335.84 84.14,-327.13"/>
<polygon fill="midnightblue" stroke="midnightblue" points="85.65,-323.94 75.32,-321.58 81.93,-329.87 85.65,-323.94"/>
</g>
<!-- Node28 -->
<g id="node28" class="node">
<title>Node28</title>
<g id="a_node28"><a xlink:href="wait__core_8hpp.html" target="_top" xlink:title=" ">
<polygon fill="none" stroke="black" points="753.5,-358.5 753.5,-388.5 849.5,-388.5 849.5,-358.5 753.5,-358.5"/>
<text text-anchor="start" x="761.5" y="-376.5" font-family="Helvetica,sans-Serif" font-size="10.00">yaclib/async/detail</text>
<text text-anchor="middle" x="801.5" y="-365.5" font-family="Helvetica,sans-Serif" font-size="10.00">/wait_core.hpp</text>
</a>
</g>
</g>
<!-- Node27&#45;&gt;Node28 -->
<g id="edge43" class="edge">
<title>Node27&#45;&gt;Node28</title>
<path fill="none" stroke="midnightblue" d="M601.15,-427.65C641.1,-417.05 699.91,-401.45 743.49,-389.89"/>
<polygon fill="midnightblue" stroke="midnightblue" points="744.62,-393.21 753.38,-387.27 742.82,-386.45 744.62,-393.21"/>
</g>
<!-- Node28&#45;&gt;Node12 -->
<g id="edge44" class="edge">
<title>Node28&#45;&gt;Node12</title>
<path fill="none" stroke="midnightblue" d="M793.63,-358.41C782.5,-337.13 763.5,-295.21 763.5,-257 763.5,-257 763.5,-257 763.5,-137.5 763.5,-83.66 705.55,-43.75 669.86,-24.28"/>
<polygon fill="midnightblue" stroke="midnightblue" points="671.36,-21.12 660.88,-19.56 668.1,-27.31 671.36,-21.12"/>
</g>
<!-- Node29 -->
<g id="node29" class="node">
<title>Node29</title>
<g id="a_node29"><a xlink:title=" ">
<polygon fill="none" stroke="#bfbfbf" points="792,-302.5 792,-321.5 887,-321.5 887,-302.5 792,-302.5"/>
<text text-anchor="middle" x="839.5" y="-309.5" font-family="Helvetica,sans-Serif" font-size="10.00">condition_variable</text>
</a>
</g>
</g>
<!-- Node28&#45;&gt;Node29 -->
<g id="edge45" class="edge">
<title>Node28&#45;&gt;Node29</title>
<path fill="none" stroke="midnightblue" d="M810.51,-358.4C815.91,-349.93 822.83,-339.1 828.55,-330.14"/>
<polygon fill="midnightblue" stroke="midnightblue" points="831.54,-331.97 833.97,-321.66 825.64,-328.2 831.54,-331.97"/>
</g>
<!-- Node30 -->
<g id="node30" class="node">
<title>Node30</title>
<g id="a_node30"><a xlink:title=" ">
<polygon fill="none" stroke="#bfbfbf" points="905,-302.5 905,-321.5 948,-321.5 948,-302.5 905,-302.5"/>
<text text-anchor="middle" x="926.5" y="-309.5" font-family="Helvetica,sans-Serif" font-size="10.00">mutex</text>
</a>
</g>
</g>
<!-- Node28&#45;&gt;Node30 -->
<g id="edge46" class="edge">
<title>Node28&#45;&gt;Node30</title>
<path fill="none" stroke="midnightblue" d="M831.12,-358.4C851.72,-348.59 878.98,-335.62 899.08,-326.05"/>
<polygon fill="midnightblue" stroke="midnightblue" points="900.79,-329.12 908.31,-321.66 897.78,-322.8 900.79,-329.12"/>
</g>
<!-- Node31&#45;&gt;Node3 -->
<g id="edge50" class="edge">
<title>Node31&#45;&gt;Node3</title>
<path fill="none" stroke="midnightblue" d="M233.5,-492.4C233.5,-484.64 233.5,-474.81 233.5,-465.86"/>
<polygon fill="midnightblue" stroke="midnightblue" points="237,-465.58 233.5,-455.58 230,-465.58 237,-465.58"/>
</g>
</g>
</svg>
