<?xml version="1.0" encoding="UTF-8" standalone="no"?>
<!DOCTYPE svg PUBLIC "-//W3C//DTD SVG 1.1//EN"
 "http://www.w3.org/Graphics/SVG/1.1/DTD/svg11.dtd">
<!-- Generated by graphviz version 2.44.0 ()
 -->
<!-- Title: include/yaclib/async/detail/future_impl.hpp Pages: 1 -->
<svg width="983pt" height="598pt"
 viewBox="0.00 0.00 983.00 598.00" xmlns="http://www.w3.org/2000/svg" xmlns:xlink="http://www.w3.org/1999/xlink">
<g id="graph0" class="graph" transform="scale(1 1) rotate(0) translate(4 594)">
<title>include/yaclib/async/detail/future_impl.hpp</title>
<!-- Node1 -->
<g id="node1" class="node">
<title>Node1</title>
<g id="a_node1"><a xlink:title=" ">
<polygon fill="#bfbfbf" stroke="black" points="641,-559.5 641,-589.5 753,-589.5 753,-559.5 641,-559.5"/>
<text text-anchor="start" x="649" y="-577.5" font-family="Helvetica,sans-Serif" font-size="10.00">include/yaclib/async</text>
<text text-anchor="middle" x="697" y="-566.5" font-family="Helvetica,sans-Serif" font-size="10.00">/detail/future_impl.hpp</text>
</a>
</g>
</g>
<!-- Node2 -->
<g id="node2" class="node">
<title>Node2</title>
<g id="a_node2"><a xlink:href="wait_8hpp.html" target="_top" xlink:title=" ">
<polygon fill="none" stroke="black" points="491.5,-498 491.5,-517 592.5,-517 592.5,-498 491.5,-498"/>
<text text-anchor="middle" x="542" y="-505" font-family="Helvetica,sans-Serif" font-size="10.00">yaclib/algo/wait.hpp</text>
</a>
</g>
</g>
<!-- Node1&#45;&gt;Node2 -->
<g id="edge1" class="edge">
<title>Node1&#45;&gt;Node2</title>
<path fill="none" stroke="midnightblue" d="M663.37,-559.4C636.05,-547.94 597.89,-531.94 571.69,-520.95"/>
<polygon fill="midnightblue" stroke="midnightblue" points="572.86,-517.65 562.29,-517.01 570.15,-524.1 572.86,-517.65"/>
</g>
<!-- Node22 -->
<g id="node22" class="node">
<title>Node22</title>
<g id="a_node22"><a xlink:title=" ">
<polygon fill="none" stroke="#bfbfbf" points="889.5,-246.5 889.5,-265.5 938.5,-265.5 938.5,-246.5 889.5,-246.5"/>
<text text-anchor="middle" x="914" y="-253.5" font-family="Helvetica,sans-Serif" font-size="10.00">cassert</text>
</a>
</g>
</g>
<!-- Node1&#45;&gt;Node22 -->
<g id="edge42" class="edge">
<title>Node1&#45;&gt;Node22</title>
<path fill="none" stroke="midnightblue" d="M753.26,-571.16C834.49,-564.43 975,-538.74 975,-441.5 975,-441.5 975,-441.5 975,-372.5 975,-340.05 971.76,-330.37 956,-302 949.86,-290.96 940.44,-280.52 932.07,-272.48"/>
<polygon fill="midnightblue" stroke="midnightblue" points="934.25,-269.73 924.51,-265.56 929.53,-274.9 934.25,-269.73"/>
</g>
<!-- Node24 -->
<g id="node24" class="node">
<title>Node24</title>
<g id="a_node24"><a xlink:href="core_8hpp.html" target="_top" xlink:title=" ">
<polygon fill="none" stroke="black" points="649,-492.5 649,-522.5 745,-522.5 745,-492.5 649,-492.5"/>
<text text-anchor="start" x="657" y="-510.5" font-family="Helvetica,sans-Serif" font-size="10.00">yaclib/async/detail</text>
<text text-anchor="middle" x="697" y="-499.5" font-family="Helvetica,sans-Serif" font-size="10.00">/core.hpp</text>
</a>
</g>
</g>
<!-- Node1&#45;&gt;Node24 -->
<g id="edge34" class="edge">
<title>Node1&#45;&gt;Node24</title>
<path fill="none" stroke="midnightblue" d="M697,-559.4C697,-551.64 697,-541.81 697,-532.86"/>
<polygon fill="midnightblue" stroke="midnightblue" points="700.5,-532.58 697,-522.58 693.5,-532.58 700.5,-532.58"/>
</g>
<!-- Node3 -->
<g id="node3" class="node">
<title>Node3</title>
<g id="a_node3"><a xlink:href="wait__impl_8hpp.html" target="_top" xlink:title=" ">
<polygon fill="none" stroke="black" points="420.5,-425.5 420.5,-455.5 509.5,-455.5 509.5,-425.5 420.5,-425.5"/>
<text text-anchor="start" x="428.5" y="-443.5" font-family="Helvetica,sans-Serif" font-size="10.00">yaclib/algo/detail</text>
<text text-anchor="middle" x="465" y="-432.5" font-family="Helvetica,sans-Serif" font-size="10.00">/wait_impl.hpp</text>
</a>
</g>
</g>
<!-- Node2&#45;&gt;Node3 -->
<g id="edge2" class="edge">
<title>Node2&#45;&gt;Node3</title>
<path fill="none" stroke="midnightblue" d="M531.62,-497.73C520.91,-488.7 503.82,-474.27 489.64,-462.3"/>
<polygon fill="midnightblue" stroke="midnightblue" points="491.59,-459.37 481.69,-455.59 487.07,-464.71 491.59,-459.37"/>
</g>
<!-- Node4 -->
<g id="node4" class="node">
<title>Node4</title>
<g id="a_node4"><a xlink:href="base__core_8hpp.html" target="_top" xlink:title=" ">
<polygon fill="none" stroke="black" points="417,-358.5 417,-388.5 513,-388.5 513,-358.5 417,-358.5"/>
<text text-anchor="start" x="425" y="-376.5" font-family="Helvetica,sans-Serif" font-size="10.00">yaclib/async/detail</text>
<text text-anchor="middle" x="465" y="-365.5" font-family="Helvetica,sans-Serif" font-size="10.00">/base_core.hpp</text>
</a>
</g>
</g>
<!-- Node3&#45;&gt;Node4 -->
<g id="edge3" class="edge">
<title>Node3&#45;&gt;Node4</title>
<path fill="none" stroke="midnightblue" d="M465,-425.4C465,-417.64 465,-407.81 465,-398.86"/>
<polygon fill="midnightblue" stroke="midnightblue" points="468.5,-398.58 465,-388.58 461.5,-398.58 468.5,-398.58"/>
</g>
<!-- Node8 -->
<g id="node8" class="node">
<title>Node8</title>
<g id="a_node8"><a xlink:href="counters_8hpp.html" target="_top" xlink:title=" ">
<polygon fill="none" stroke="black" points="65,-62 65,-81 181,-81 181,-62 65,-62"/>
<text text-anchor="middle" x="123" y="-69" font-family="Helvetica,sans-Serif" font-size="10.00">yaclib/util/counters.hpp</text>
</a>
</g>
</g>
<!-- Node3&#45;&gt;Node8 -->
<g id="edge29" class="edge">
<title>Node3&#45;&gt;Node8</title>
<path fill="none" stroke="midnightblue" d="M420.41,-436.89C304.03,-428.86 0,-399.59 0,-313 0,-313 0,-313 0,-199 0,-144.87 58.61,-105.2 94.91,-85.81"/>
<polygon fill="midnightblue" stroke="midnightblue" points="96.76,-88.79 104.05,-81.1 93.56,-82.57 96.76,-88.79"/>
</g>
<!-- Node18 -->
<g id="node18" class="node">
<title>Node18</title>
<g id="a_node18"><a xlink:href="wait__core_8hpp.html" target="_top" xlink:title=" ">
<polygon fill="none" stroke="black" points="140,-358.5 140,-388.5 236,-388.5 236,-358.5 140,-358.5"/>
<text text-anchor="start" x="148" y="-376.5" font-family="Helvetica,sans-Serif" font-size="10.00">yaclib/async/detail</text>
<text text-anchor="middle" x="188" y="-365.5" font-family="Helvetica,sans-Serif" font-size="10.00">/wait_core.hpp</text>
</a>
</g>
</g>
<!-- Node3&#45;&gt;Node18 -->
<g id="edge25" class="edge">
<title>Node3&#45;&gt;Node18</title>
<path fill="none" stroke="midnightblue" d="M420.5,-429.06C373.08,-417.93 297.85,-400.28 245.86,-388.08"/>
<polygon fill="midnightblue" stroke="midnightblue" points="246.65,-384.67 236.12,-385.79 245.05,-391.48 246.65,-384.67"/>
</g>
<!-- Node21 -->
<g id="node21" class="node">
<title>Node21</title>
<g id="a_node21"><a xlink:href="type__traits_8hpp.html" target="_top" xlink:title=" ">
<polygon fill="none" stroke="black" points="629.5,-302.5 629.5,-321.5 752.5,-321.5 752.5,-302.5 629.5,-302.5"/>
<text text-anchor="middle" x="691" y="-309.5" font-family="Helvetica,sans-Serif" font-size="10.00">yaclib/util/type_traits.hpp</text>
</a>
</g>
</g>
<!-- Node3&#45;&gt;Node21 -->
<g id="edge30" class="edge">
<title>Node3&#45;&gt;Node21</title>
<path fill="none" stroke="midnightblue" d="M490.05,-425.48C533.75,-401.02 623.37,-350.85 666.61,-326.65"/>
<polygon fill="midnightblue" stroke="midnightblue" points="668.56,-329.57 675.58,-321.63 665.15,-323.46 668.56,-329.57"/>
</g>
<!-- Node5 -->
<g id="node5" class="node">
<title>Node5</title>
<g id="a_node5"><a xlink:href="executor_8hpp.html" target="_top" xlink:title=" ">
<polygon fill="none" stroke="black" points="452.5,-246.5 452.5,-265.5 591.5,-265.5 591.5,-246.5 452.5,-246.5"/>
<text text-anchor="middle" x="522" y="-253.5" font-family="Helvetica,sans-Serif" font-size="10.00">yaclib/executor/executor.hpp</text>
</a>
</g>
</g>
<!-- Node4&#45;&gt;Node5 -->
<g id="edge4" class="edge">
<title>Node4&#45;&gt;Node5</title>
<path fill="none" stroke="midnightblue" d="M513.02,-364.68C538.1,-357.89 566.68,-345.29 582,-322 594.92,-302.35 570.92,-282.95 549.54,-270.53"/>
<polygon fill="midnightblue" stroke="midnightblue" points="551.1,-267.4 540.65,-265.66 547.74,-273.54 551.1,-267.4"/>
</g>
<!-- Node6 -->
<g id="node6" class="node">
<title>Node6</title>
<g id="a_node6"><a xlink:href="task_8hpp.html" target="_top" xlink:title=" ">
<polygon fill="none" stroke="black" points="409.5,-190.5 409.5,-209.5 530.5,-209.5 530.5,-190.5 409.5,-190.5"/>
<text text-anchor="middle" x="470" y="-197.5" font-family="Helvetica,sans-Serif" font-size="10.00">yaclib/executor/task.hpp</text>
</a>
</g>
</g>
<!-- Node4&#45;&gt;Node6 -->
<g id="edge22" class="edge">
<title>Node4&#45;&gt;Node6</title>
<path fill="none" stroke="midnightblue" d="M455.3,-358.21C449.3,-348.47 442.16,-335.03 439,-322 434.84,-304.82 439.76,-259.41 444,-246 447.09,-236.23 452.56,-226.27 457.68,-218.22"/>
<polygon fill="midnightblue" stroke="midnightblue" points="460.69,-220.01 463.38,-209.76 454.89,-216.1 460.69,-220.01"/>
</g>
<!-- Node10 -->
<g id="node10" class="node">
<title>Node10</title>
<g id="a_node10"><a xlink:title=" ">
<polygon fill="none" stroke="#bfbfbf" points="165,-0.5 165,-19.5 211,-19.5 211,-0.5 165,-0.5"/>
<text text-anchor="middle" x="188" y="-7.5" font-family="Helvetica,sans-Serif" font-size="10.00">atomic</text>
</a>
</g>
</g>
<!-- Node4&#45;&gt;Node10 -->
<g id="edge24" class="edge">
<title>Node4&#45;&gt;Node10</title>
<path fill="none" stroke="midnightblue" d="M416.97,-367.72C353.88,-358.48 251,-331.94 251,-257 251,-257 251,-257 251,-137.5 251,-94.21 221.07,-50.49 202.47,-27.51"/>
<polygon fill="midnightblue" stroke="midnightblue" points="205.08,-25.18 195.98,-19.76 199.71,-29.67 205.08,-25.18"/>
</g>
<!-- Node11 -->
<g id="node11" class="node">
<title>Node11</title>
<g id="a_node11"><a xlink:href="intrusive__ptr_8hpp.html" target="_top" xlink:title=" ">
<polygon fill="none" stroke="black" points="356.5,-56.5 356.5,-86.5 453.5,-86.5 453.5,-56.5 356.5,-56.5"/>
<text text-anchor="start" x="364.5" y="-74.5" font-family="Helvetica,sans-Serif" font-size="10.00">yaclib/util/intrusive</text>
<text text-anchor="middle" x="405" y="-63.5" font-family="Helvetica,sans-Serif" font-size="10.00">_ptr.hpp</text>
</a>
</g>
</g>
<!-- Node4&#45;&gt;Node11 -->
<g id="edge23" class="edge">
<title>Node4&#45;&gt;Node11</title>
<path fill="none" stroke="midnightblue" d="M454.31,-358.1C447.45,-348.33 438.78,-334.88 433,-322 411.82,-274.76 408.18,-261.27 401,-210 399.77,-201.2 400.85,-198.89 401,-190 401.55,-157.76 402.94,-120.56 403.93,-96.81"/>
<polygon fill="midnightblue" stroke="midnightblue" points="407.44,-96.74 404.36,-86.6 400.44,-96.45 407.44,-96.74"/>
</g>
<!-- Node17 -->
<g id="node17" class="node">
<title>Node17</title>
<g id="a_node17"><a xlink:href="inline_8hpp.html" target="_top" xlink:title=" ">
<polygon fill="none" stroke="black" points="447.5,-302.5 447.5,-321.5 572.5,-321.5 572.5,-302.5 447.5,-302.5"/>
<text text-anchor="middle" x="510" y="-309.5" font-family="Helvetica,sans-Serif" font-size="10.00">yaclib/executor/inline.hpp</text>
</a>
</g>
</g>
<!-- Node4&#45;&gt;Node17 -->
<g id="edge20" class="edge">
<title>Node4&#45;&gt;Node17</title>
<path fill="none" stroke="midnightblue" d="M475.66,-358.4C482.14,-349.84 490.43,-338.87 497.25,-329.86"/>
<polygon fill="midnightblue" stroke="midnightblue" points="500.21,-331.74 503.45,-321.66 494.63,-327.52 500.21,-331.74"/>
</g>
<!-- Node5&#45;&gt;Node6 -->
<g id="edge5" class="edge">
<title>Node5&#45;&gt;Node6</title>
<path fill="none" stroke="midnightblue" d="M513.41,-246.08C505.84,-238.22 494.62,-226.57 485.49,-217.08"/>
<polygon fill="midnightblue" stroke="midnightblue" points="487.88,-214.53 478.43,-209.75 482.84,-219.38 487.88,-214.53"/>
</g>
<!-- Node5&#45;&gt;Node11 -->
<g id="edge19" class="edge">
<title>Node5&#45;&gt;Node11</title>
<path fill="none" stroke="midnightblue" d="M526.9,-246.34C538.95,-223.77 567.15,-162.15 540,-123 522.79,-98.19 491.8,-85.54 463.86,-79.11"/>
<polygon fill="midnightblue" stroke="midnightblue" points="464.23,-75.62 453.73,-77.01 462.81,-82.47 464.23,-75.62"/>
</g>
<!-- Node7 -->
<g id="node7" class="node">
<title>Node7</title>
<g id="a_node7"><a xlink:href="func_8hpp.html" target="_top" xlink:title=" ">
<polygon fill="none" stroke="black" points="279.5,-129 279.5,-148 376.5,-148 376.5,-129 279.5,-129"/>
<text text-anchor="middle" x="328" y="-136" font-family="Helvetica,sans-Serif" font-size="10.00">yaclib/util/func.hpp</text>
</a>
</g>
</g>
<!-- Node6&#45;&gt;Node7 -->
<g id="edge6" class="edge">
<title>Node6&#45;&gt;Node7</title>
<path fill="none" stroke="midnightblue" d="M449.65,-190.48C425.61,-180.4 385.4,-163.55 357.84,-152"/>
<polygon fill="midnightblue" stroke="midnightblue" points="358.88,-148.65 348.31,-148.01 356.18,-155.1 358.88,-148.65"/>
</g>
<!-- Node16 -->
<g id="node16" class="node">
<title>Node16</title>
<g id="a_node16"><a xlink:href="intrusive__node_8hpp.html" target="_top" xlink:title=" ">
<polygon fill="none" stroke="black" points="433.5,-123.5 433.5,-153.5 530.5,-153.5 530.5,-123.5 433.5,-123.5"/>
<text text-anchor="start" x="441.5" y="-141.5" font-family="Helvetica,sans-Serif" font-size="10.00">yaclib/util/intrusive</text>
<text text-anchor="middle" x="482" y="-130.5" font-family="Helvetica,sans-Serif" font-size="10.00">_node.hpp</text>
</a>
</g>
</g>
<!-- Node6&#45;&gt;Node16 -->
<g id="edge18" class="edge">
<title>Node6&#45;&gt;Node16</title>
<path fill="none" stroke="midnightblue" d="M471.72,-190.48C473.15,-183.4 475.25,-172.97 477.18,-163.39"/>
<polygon fill="midnightblue" stroke="midnightblue" points="480.63,-164.02 479.17,-153.52 473.76,-162.63 480.63,-164.02"/>
</g>
<!-- Node7&#45;&gt;Node8 -->
<g id="edge7" class="edge">
<title>Node7&#45;&gt;Node8</title>
<path fill="none" stroke="midnightblue" d="M300.78,-128.87C264.53,-117.38 200.3,-97.01 159.77,-84.16"/>
<polygon fill="midnightblue" stroke="midnightblue" points="160.6,-80.75 150.01,-81.06 158.48,-87.42 160.6,-80.75"/>
</g>
<!-- Node7&#45;&gt;Node11 -->
<g id="edge10" class="edge">
<title>Node7&#45;&gt;Node11</title>
<path fill="none" stroke="midnightblue" d="M338.38,-128.73C349.09,-119.7 366.18,-105.27 380.36,-93.3"/>
<polygon fill="midnightblue" stroke="midnightblue" points="382.93,-95.71 388.31,-86.59 378.41,-90.37 382.93,-95.71"/>
</g>
<!-- Node12 -->
<g id="node12" class="node">
<title>Node12</title>
<g id="a_node12"><a xlink:href="ref_8hpp.html" target="_top" xlink:title=" ">
<polygon fill="none" stroke="black" points="229.5,-0.5 229.5,-19.5 318.5,-19.5 318.5,-0.5 229.5,-0.5"/>
<text text-anchor="middle" x="274" y="-7.5" font-family="Helvetica,sans-Serif" font-size="10.00">yaclib/util/ref.hpp</text>
</a>
</g>
</g>
<!-- Node7&#45;&gt;Node12 -->
<g id="edge15" class="edge">
<title>Node7&#45;&gt;Node12</title>
<path fill="none" stroke="midnightblue" d="M324.29,-128.81C315.54,-108.31 293.48,-56.65 281.7,-29.04"/>
<polygon fill="midnightblue" stroke="midnightblue" points="284.88,-27.58 277.74,-19.76 278.44,-30.33 284.88,-27.58"/>
</g>
<!-- Node14 -->
<g id="node14" class="node">
<title>Node14</title>
<g id="a_node14"><a xlink:title=" ">
<polygon fill="none" stroke="#bfbfbf" points="468,-0.5 468,-19.5 530,-19.5 530,-0.5 468,-0.5"/>
<text text-anchor="middle" x="499" y="-7.5" font-family="Helvetica,sans-Serif" font-size="10.00">type_traits</text>
</a>
</g>
</g>
<!-- Node7&#45;&gt;Node14 -->
<g id="edge16" class="edge">
<title>Node7&#45;&gt;Node14</title>
<path fill="none" stroke="midnightblue" d="M374.79,-128.99C402.88,-121.84 437.75,-109.11 462,-87 478.9,-71.59 488.94,-46.78 494.2,-29.72"/>
<polygon fill="midnightblue" stroke="midnightblue" points="497.65,-30.38 497,-19.8 490.92,-28.48 497.65,-30.38"/>
</g>
<!-- Node15 -->
<g id="node15" class="node">
<title>Node15</title>
<g id="a_node15"><a xlink:title=" ">
<polygon fill="none" stroke="#bfbfbf" points="336.5,-0.5 336.5,-19.5 375.5,-19.5 375.5,-0.5 336.5,-0.5"/>
<text text-anchor="middle" x="356" y="-7.5" font-family="Helvetica,sans-Serif" font-size="10.00">utility</text>
</a>
</g>
</g>
<!-- Node7&#45;&gt;Node15 -->
<g id="edge17" class="edge">
<title>Node7&#45;&gt;Node15</title>
<path fill="none" stroke="midnightblue" d="M329.92,-128.81C334.42,-108.49 345.7,-57.55 351.84,-29.78"/>
<polygon fill="midnightblue" stroke="midnightblue" points="355.32,-30.28 354.06,-19.76 348.48,-28.76 355.32,-30.28"/>
</g>
<!-- Node9 -->
<g id="node9" class="node">
<title>Node9</title>
<g id="a_node9"><a xlink:title=" ">
<polygon fill="none" stroke="#bfbfbf" points="59,-0.5 59,-19.5 147,-19.5 147,-0.5 59,-0.5"/>
<text text-anchor="middle" x="103" y="-7.5" font-family="Helvetica,sans-Serif" font-size="10.00">yaclib/config.hpp</text>
</a>
</g>
</g>
<!-- Node8&#45;&gt;Node9 -->
<g id="edge8" class="edge">
<title>Node8&#45;&gt;Node9</title>
<path fill="none" stroke="midnightblue" d="M120.13,-61.98C117.28,-53.49 112.82,-40.2 109.16,-29.32"/>
<polygon fill="midnightblue" stroke="midnightblue" points="112.36,-27.87 105.86,-19.51 105.73,-30.1 112.36,-27.87"/>
</g>
<!-- Node8&#45;&gt;Node10 -->
<g id="edge9" class="edge">
<title>Node8&#45;&gt;Node10</title>
<path fill="none" stroke="midnightblue" d="M132.31,-61.98C142.45,-52.7 158.86,-37.67 171.25,-26.33"/>
<polygon fill="midnightblue" stroke="midnightblue" points="173.69,-28.84 178.7,-19.51 168.96,-23.68 173.69,-28.84"/>
</g>
<!-- Node11&#45;&gt;Node12 -->
<g id="edge11" class="edge">
<title>Node11&#45;&gt;Node12</title>
<path fill="none" stroke="midnightblue" d="M373.95,-56.4C352.27,-46.55 323.54,-33.5 302.45,-23.92"/>
<polygon fill="midnightblue" stroke="midnightblue" points="303.61,-20.61 293.06,-19.66 300.72,-26.98 303.61,-20.61"/>
</g>
<!-- Node13 -->
<g id="node13" class="node">
<title>Node13</title>
<g id="a_node13"><a xlink:title=" ">
<polygon fill="none" stroke="#bfbfbf" points="394,-0.5 394,-19.5 450,-19.5 450,-0.5 394,-0.5"/>
<text text-anchor="middle" x="422" y="-7.5" font-family="Helvetica,sans-Serif" font-size="10.00">algorithm</text>
</a>
</g>
</g>
<!-- Node11&#45;&gt;Node13 -->
<g id="edge12" class="edge">
<title>Node11&#45;&gt;Node13</title>
<path fill="none" stroke="midnightblue" d="M409.03,-56.4C411.35,-48.29 414.28,-38.01 416.78,-29.28"/>
<polygon fill="midnightblue" stroke="midnightblue" points="420.14,-30.23 419.53,-19.66 413.41,-28.31 420.14,-30.23"/>
</g>
<!-- Node11&#45;&gt;Node14 -->
<g id="edge13" class="edge">
<title>Node11&#45;&gt;Node14</title>
<path fill="none" stroke="midnightblue" d="M427.28,-56.4C442.2,-46.95 461.78,-34.56 476.71,-25.11"/>
<polygon fill="midnightblue" stroke="midnightblue" points="478.74,-27.96 485.32,-19.66 475,-22.05 478.74,-27.96"/>
</g>
<!-- Node11&#45;&gt;Node15 -->
<g id="edge14" class="edge">
<title>Node11&#45;&gt;Node15</title>
<path fill="none" stroke="midnightblue" d="M393.39,-56.4C386.27,-47.75 377.12,-36.64 369.65,-27.58"/>
<polygon fill="midnightblue" stroke="midnightblue" points="372.19,-25.15 363.13,-19.66 366.79,-29.6 372.19,-25.15"/>
</g>
<!-- Node17&#45;&gt;Node5 -->
<g id="edge21" class="edge">
<title>Node17&#45;&gt;Node5</title>
<path fill="none" stroke="midnightblue" d="M511.98,-302.08C513.57,-294.93 515.86,-284.64 517.85,-275.69"/>
<polygon fill="midnightblue" stroke="midnightblue" points="521.3,-276.27 520.06,-265.75 514.47,-274.75 521.3,-276.27"/>
</g>
<!-- Node18&#45;&gt;Node12 -->
<g id="edge26" class="edge">
<title>Node18&#45;&gt;Node12</title>
<path fill="none" stroke="midnightblue" d="M193.06,-358.49C200.36,-336.96 213,-294.34 213,-257 213,-257 213,-257 213,-137.5 213,-94.45 242.02,-50.61 260.02,-27.55"/>
<polygon fill="midnightblue" stroke="midnightblue" points="262.96,-29.49 266.52,-19.51 257.51,-25.09 262.96,-29.49"/>
</g>
<!-- Node19 -->
<g id="node19" class="node">
<title>Node19</title>
<g id="a_node19"><a xlink:title=" ">
<polygon fill="none" stroke="#bfbfbf" points="28.5,-302.5 28.5,-321.5 123.5,-321.5 123.5,-302.5 28.5,-302.5"/>
<text text-anchor="middle" x="76" y="-309.5" font-family="Helvetica,sans-Serif" font-size="10.00">condition_variable</text>
</a>
</g>
</g>
<!-- Node18&#45;&gt;Node19 -->
<g id="edge27" class="edge">
<title>Node18&#45;&gt;Node19</title>
<path fill="none" stroke="midnightblue" d="M161.46,-358.4C143.34,-348.77 119.46,-336.09 101.56,-326.58"/>
<polygon fill="midnightblue" stroke="midnightblue" points="102.77,-323.26 92.3,-321.66 99.49,-329.44 102.77,-323.26"/>
</g>
<!-- Node20 -->
<g id="node20" class="node">
<title>Node20</title>
<g id="a_node20"><a xlink:title=" ">
<polygon fill="none" stroke="#bfbfbf" points="141.5,-302.5 141.5,-321.5 184.5,-321.5 184.5,-302.5 141.5,-302.5"/>
<text text-anchor="middle" x="163" y="-309.5" font-family="Helvetica,sans-Serif" font-size="10.00">mutex</text>
</a>
</g>
</g>
<!-- Node18&#45;&gt;Node20 -->
<g id="edge28" class="edge">
<title>Node18&#45;&gt;Node20</title>
<path fill="none" stroke="midnightblue" d="M182.08,-358.4C178.63,-350.2 174.25,-339.78 170.56,-330.99"/>
<polygon fill="midnightblue" stroke="midnightblue" points="173.74,-329.52 166.64,-321.66 167.28,-332.23 173.74,-329.52"/>
</g>
<!-- Node21&#45;&gt;Node14 -->
<g id="edge33" class="edge">
<title>Node21&#45;&gt;Node14</title>
<path fill="none" stroke="midnightblue" d="M681.85,-302.25C664.61,-284.77 629,-243.53 629,-201 629,-201 629,-201 629,-137.5 629,-81.91 567.18,-42.83 528.8,-23.93"/>
<polygon fill="midnightblue" stroke="midnightblue" points="530.13,-20.69 519.6,-19.56 527.13,-27.01 530.13,-20.69"/>
</g>
<!-- Node21&#45;&gt;Node22 -->
<g id="edge31" class="edge">
<title>Node21&#45;&gt;Node22</title>
<path fill="none" stroke="midnightblue" d="M726.34,-302.44C768.23,-292.3 837.59,-275.5 879.23,-265.42"/>
<polygon fill="midnightblue" stroke="midnightblue" points="880.29,-268.76 889.19,-263.01 878.64,-261.96 880.29,-268.76"/>
</g>
<!-- Node23 -->
<g id="node23" class="node">
<title>Node23</title>
<g id="a_node23"><a xlink:title=" ">
<polygon fill="none" stroke="#bfbfbf" points="707,-246.5 707,-265.5 765,-265.5 765,-246.5 707,-246.5"/>
<text text-anchor="middle" x="736" y="-253.5" font-family="Helvetica,sans-Serif" font-size="10.00">exception</text>
</a>
</g>
</g>
<!-- Node21&#45;&gt;Node23 -->
<g id="edge32" class="edge">
<title>Node21&#45;&gt;Node23</title>
<path fill="none" stroke="midnightblue" d="M698.43,-302.08C704.85,-294.38 714.31,-283.03 722.12,-273.65"/>
<polygon fill="midnightblue" stroke="midnightblue" points="724.99,-275.67 728.71,-265.75 719.62,-271.19 724.99,-275.67"/>
</g>
<!-- Node25 -->
<g id="node25" class="node">
<title>Node25</title>
<g id="a_node25"><a xlink:href="result__core_8hpp.html" target="_top" xlink:title=" ">
<polygon fill="none" stroke="black" points="649,-425.5 649,-455.5 745,-455.5 745,-425.5 649,-425.5"/>
<text text-anchor="start" x="657" y="-443.5" font-family="Helvetica,sans-Serif" font-size="10.00">yaclib/async/detail</text>
<text text-anchor="middle" x="697" y="-432.5" font-family="Helvetica,sans-Serif" font-size="10.00">/result_core.hpp</text>
</a>
</g>
</g>
<!-- Node24&#45;&gt;Node25 -->
<g id="edge35" class="edge">
<title>Node24&#45;&gt;Node25</title>
<path fill="none" stroke="midnightblue" d="M697,-492.4C697,-484.64 697,-474.81 697,-465.86"/>
<polygon fill="midnightblue" stroke="midnightblue" points="700.5,-465.58 697,-455.58 693.5,-465.58 700.5,-465.58"/>
</g>
<!-- Node25&#45;&gt;Node4 -->
<g id="edge36" class="edge">
<title>Node25&#45;&gt;Node4</title>
<path fill="none" stroke="midnightblue" d="M648.93,-426.03C612.38,-415.79 561.94,-401.66 523.12,-390.78"/>
<polygon fill="midnightblue" stroke="midnightblue" points="523.58,-387.28 513.01,-387.95 521.69,-394.02 523.58,-387.28"/>
</g>
<!-- Node26 -->
<g id="node26" class="node">
<title>Node26</title>
<g id="a_node26"><a xlink:href="result_8hpp.html" target="_top" xlink:title=" ">
<polygon fill="none" stroke="black" points="730,-364 730,-383 832,-383 832,-364 730,-364"/>
<text text-anchor="middle" x="781" y="-371" font-family="Helvetica,sans-Serif" font-size="10.00">yaclib/util/result.hpp</text>
</a>
</g>
</g>
<!-- Node25&#45;&gt;Node26 -->
<g id="edge37" class="edge">
<title>Node25&#45;&gt;Node26</title>
<path fill="none" stroke="midnightblue" d="M715.23,-425.4C728.97,-414.76 747.78,-400.2 761.77,-389.38"/>
<polygon fill="midnightblue" stroke="midnightblue" points="764,-392.08 769.76,-383.19 759.71,-386.55 764,-392.08"/>
</g>
<!-- Node26&#45;&gt;Node21 -->
<g id="edge38" class="edge">
<title>Node26&#45;&gt;Node21</title>
<path fill="none" stroke="midnightblue" d="M768.11,-363.98C753.54,-354.34 729.6,-338.52 712.25,-327.05"/>
<polygon fill="midnightblue" stroke="midnightblue" points="714.14,-324.1 703.87,-321.51 710.28,-329.94 714.14,-324.1"/>
</g>
<!-- Node26&#45;&gt;Node23 -->
<g id="edge39" class="edge">
<title>Node26&#45;&gt;Node23</title>
<path fill="none" stroke="midnightblue" d="M779.37,-363.57C776.72,-349.95 770.85,-323.31 762,-302 758.02,-292.42 752.37,-282.36 747.35,-274.19"/>
<polygon fill="midnightblue" stroke="midnightblue" points="750.21,-272.17 741.89,-265.61 744.31,-275.93 750.21,-272.17"/>
</g>
<!-- Node27 -->
<g id="node27" class="node">
<title>Node27</title>
<g id="a_node27"><a xlink:title=" ">
<polygon fill="none" stroke="#bfbfbf" points="873.5,-302.5 873.5,-321.5 946.5,-321.5 946.5,-302.5 873.5,-302.5"/>
<text text-anchor="middle" x="910" y="-309.5" font-family="Helvetica,sans-Serif" font-size="10.00">system_error</text>
</a>
</g>
</g>
<!-- Node26&#45;&gt;Node27 -->
<g id="edge40" class="edge">
<title>Node26&#45;&gt;Node27</title>
<path fill="none" stroke="midnightblue" d="M799.48,-363.98C821.13,-353.99 857.21,-337.35 882.23,-325.81"/>
<polygon fill="midnightblue" stroke="midnightblue" points="883.94,-328.88 891.55,-321.51 881.01,-322.52 883.94,-328.88"/>
</g>
<!-- Node28 -->
<g id="node28" class="node">
<title>Node28</title>
<g id="a_node28"><a xlink:title=" ">
<polygon fill="none" stroke="#bfbfbf" points="809,-302.5 809,-321.5 855,-321.5 855,-302.5 809,-302.5"/>
<text text-anchor="middle" x="832" y="-309.5" font-family="Helvetica,sans-Serif" font-size="10.00">variant</text>
</a>
</g>
</g>
<!-- Node26&#45;&gt;Node28 -->
<g id="edge41" class="edge">
<title>Node26&#45;&gt;Node28</title>
<path fill="none" stroke="midnightblue" d="M788.31,-363.98C796.03,-354.96 808.41,-340.52 818.02,-329.31"/>
<polygon fill="midnightblue" stroke="midnightblue" points="820.86,-331.38 824.71,-321.51 815.54,-326.82 820.86,-331.38"/>
</g>
</g>
</svg>
