<?xml version="1.0" encoding="UTF-8" standalone="no"?>
<!DOCTYPE svg PUBLIC "-//W3C//DTD SVG 1.1//EN"
 "http://www.w3.org/Graphics/SVG/1.1/DTD/svg11.dtd">
<!-- Generated by graphviz version 2.44.0 ()
 -->
<!-- Title: include/yaclib/async/future.hpp Pages: 1 -->
<svg width="537pt" height="240pt"
 viewBox="0.00 0.00 536.50 240.00" xmlns="http://www.w3.org/2000/svg" xmlns:xlink="http://www.w3.org/1999/xlink">
<g id="graph0" class="graph" transform="scale(1 1) rotate(0) translate(4 236)">
<title>include/yaclib/async/future.hpp</title>
<!-- Node1 -->
<g id="node1" class="node">
<title>Node1</title>
<g id="a_node1"><a xlink:title=" ">
<polygon fill="#bfbfbf" stroke="black" points="240.5,-201.5 240.5,-231.5 344.5,-231.5 344.5,-201.5 240.5,-201.5"/>
<text text-anchor="start" x="248.5" y="-219.5" font-family="Helvetica,sans-Serif" font-size="10.00">include/yaclib/async</text>
<text text-anchor="middle" x="292.5" y="-208.5" font-family="Helvetica,sans-Serif" font-size="10.00">/future.hpp</text>
</a>
</g>
</g>
<!-- Node2 -->
<g id="node2" class="node">
<title>Node2</title>
<g id="a_node2"><a xlink:href="when__any_8hpp.html" target="_top" xlink:title=" ">
<polygon fill="none" stroke="black" points="2.5,-67.5 2.5,-97.5 98.5,-97.5 98.5,-67.5 2.5,-67.5"/>
<text text-anchor="start" x="10.5" y="-85.5" font-family="Helvetica,sans-Serif" font-size="10.00">include/yaclib/algo</text>
<text text-anchor="middle" x="50.5" y="-74.5" font-family="Helvetica,sans-Serif" font-size="10.00">/when_any.hpp</text>
</a>
</g>
</g>
<!-- Node1&#45;&gt;Node2 -->
<g id="edge1" class="edge">
<title>Node1&#45;&gt;Node2</title>
<path fill="none" stroke="midnightblue" d="M257.61,-196.47C208.42,-169.64 119.84,-121.32 76.21,-97.52"/>
<polygon fill="midnightblue" stroke="midnightblue" points="256.15,-199.66 266.6,-201.37 259.5,-193.51 256.15,-199.66"/>
</g>
<!-- Node4 -->
<g id="node4" class="node">
<title>Node4</title>
<g id="a_node4"><a xlink:href="when__all_8hpp.html" target="_top" xlink:title=" ">
<polygon fill="none" stroke="black" points="394.5,-67.5 394.5,-97.5 490.5,-97.5 490.5,-67.5 394.5,-67.5"/>
<text text-anchor="start" x="402.5" y="-85.5" font-family="Helvetica,sans-Serif" font-size="10.00">include/yaclib/algo</text>
<text text-anchor="middle" x="442.5" y="-74.5" font-family="Helvetica,sans-Serif" font-size="10.00">/when_all.hpp</text>
</a>
</g>
</g>
<!-- Node1&#45;&gt;Node4 -->
<g id="edge3" class="edge">
<title>Node1&#45;&gt;Node4</title>
<path fill="none" stroke="midnightblue" d="M318.03,-194.84C329.05,-185.8 342.02,-175 353.5,-165 380.04,-141.88 410.08,-114.01 427.59,-97.58"/>
<polygon fill="midnightblue" stroke="midnightblue" points="315.58,-192.32 310.05,-201.36 320.01,-197.75 315.58,-192.32"/>
</g>
<!-- Node6 -->
<g id="node6" class="node">
<title>Node6</title>
<g id="a_node6"><a xlink:href="promise_8hpp.html" target="_top" xlink:title=" ">
<polygon fill="none" stroke="black" points="240.5,-134.5 240.5,-164.5 344.5,-164.5 344.5,-134.5 240.5,-134.5"/>
<text text-anchor="start" x="248.5" y="-152.5" font-family="Helvetica,sans-Serif" font-size="10.00">include/yaclib/async</text>
<text text-anchor="middle" x="292.5" y="-141.5" font-family="Helvetica,sans-Serif" font-size="10.00">/promise.hpp</text>
</a>
</g>
</g>
<!-- Node1&#45;&gt;Node6 -->
<g id="edge5" class="edge">
<title>Node1&#45;&gt;Node6</title>
<path fill="none" stroke="midnightblue" d="M285.95,-191.4C285.51,-182.37 285.8,-172.41 286.83,-164.58"/>
<polygon fill="midnightblue" stroke="midnightblue" points="282.47,-191.74 286.82,-201.4 289.44,-191.13 282.47,-191.74"/>
</g>
<!-- Node8 -->
<g id="node8" class="node">
<title>Node8</title>
<g id="a_node8"><a xlink:href="run_8hpp.html" target="_top" xlink:title=" ">
<polygon fill="none" stroke="black" points="116.5,-67.5 116.5,-97.5 220.5,-97.5 220.5,-67.5 116.5,-67.5"/>
<text text-anchor="start" x="124.5" y="-85.5" font-family="Helvetica,sans-Serif" font-size="10.00">include/yaclib/async</text>
<text text-anchor="middle" x="168.5" y="-74.5" font-family="Helvetica,sans-Serif" font-size="10.00">/run.hpp</text>
</a>
</g>
</g>
<!-- Node1&#45;&gt;Node8 -->
<g id="edge10" class="edge">
<title>Node1&#45;&gt;Node8</title>
<path fill="none" stroke="midnightblue" d="M265.37,-195.17C254.38,-186.4 241.86,-175.71 231.5,-165 210.36,-143.15 189.52,-114.38 177.9,-97.51"/>
<polygon fill="midnightblue" stroke="midnightblue" points="263.39,-198.07 273.42,-201.47 267.71,-192.55 263.39,-198.07"/>
</g>
<!-- Node10 -->
<g id="node10" class="node">
<title>Node10</title>
<g id="a_node10"><a xlink:href="future__impl_8cpp.html" target="_top" xlink:title=" ">
<polygon fill="none" stroke="black" points="400.5,-140 400.5,-159 528.5,-159 528.5,-140 400.5,-140"/>
<text text-anchor="middle" x="464.5" y="-147" font-family="Helvetica,sans-Serif" font-size="10.00">src/async/future_impl.cpp</text>
</a>
</g>
</g>
<!-- Node1&#45;&gt;Node10 -->
<g id="edge14" class="edge">
<title>Node1&#45;&gt;Node10</title>
<path fill="none" stroke="midnightblue" d="M339.38,-197.78C372.73,-185.18 416.05,-168.81 441.99,-159.01"/>
<polygon fill="midnightblue" stroke="midnightblue" points="337.94,-194.59 329.82,-201.4 340.41,-201.13 337.94,-194.59"/>
</g>
<!-- Node3 -->
<g id="node3" class="node">
<title>Node3</title>
<g id="a_node3"><a xlink:href="when__any_8cpp.html" target="_top" xlink:title=" ">
<polygon fill="none" stroke="black" points="0,-0.5 0,-30.5 101,-30.5 101,-0.5 0,-0.5"/>
<text text-anchor="start" x="8" y="-18.5" font-family="Helvetica,sans-Serif" font-size="10.00">test/example/async</text>
<text text-anchor="middle" x="50.5" y="-7.5" font-family="Helvetica,sans-Serif" font-size="10.00">/when_any.cpp</text>
</a>
</g>
</g>
<!-- Node2&#45;&gt;Node3 -->
<g id="edge2" class="edge">
<title>Node2&#45;&gt;Node3</title>
<path fill="none" stroke="midnightblue" d="M50.5,-57.11C50.5,-48.15 50.5,-38.32 50.5,-30.58"/>
<polygon fill="midnightblue" stroke="midnightblue" points="47,-57.4 50.5,-67.4 54,-57.4 47,-57.4"/>
</g>
<!-- Node5 -->
<g id="node5" class="node">
<title>Node5</title>
<g id="a_node5"><a xlink:href="when__all_8cpp.html" target="_top" xlink:title=" ">
<polygon fill="none" stroke="black" points="315,-0.5 315,-30.5 416,-30.5 416,-0.5 315,-0.5"/>
<text text-anchor="start" x="323" y="-18.5" font-family="Helvetica,sans-Serif" font-size="10.00">test/example/async</text>
<text text-anchor="middle" x="365.5" y="-7.5" font-family="Helvetica,sans-Serif" font-size="10.00">/when_all.cpp</text>
</a>
</g>
</g>
<!-- Node4&#45;&gt;Node5 -->
<g id="edge4" class="edge">
<title>Node4&#45;&gt;Node5</title>
<path fill="none" stroke="midnightblue" d="M418.08,-60.88C406.38,-51.01 392.66,-39.43 382.18,-30.58"/>
<polygon fill="midnightblue" stroke="midnightblue" points="415.89,-63.62 425.79,-67.4 420.41,-58.27 415.89,-63.62"/>
</g>
<!-- Node6&#45;&gt;Node1 -->
<g id="edge8" class="edge">
<title>Node6&#45;&gt;Node1</title>
<path fill="none" stroke="midnightblue" d="M299.04,-174.57C299.49,-183.6 299.21,-193.56 298.18,-201.4"/>
<polygon fill="midnightblue" stroke="midnightblue" points="302.53,-174.24 298.17,-164.58 295.55,-174.84 302.53,-174.24"/>
</g>
<!-- Node6&#45;&gt;Node2 -->
<g id="edge6" class="edge">
<title>Node6&#45;&gt;Node2</title>
<path fill="none" stroke="midnightblue" d="M230.39,-131.82C189.34,-120.79 136.33,-106.55 98.51,-96.39"/>
<polygon fill="midnightblue" stroke="midnightblue" points="229.72,-135.26 240.29,-134.48 231.54,-128.5 229.72,-135.26"/>
</g>
<!-- Node6&#45;&gt;Node4 -->
<g id="edge7" class="edge">
<title>Node6&#45;&gt;Node4</title>
<path fill="none" stroke="midnightblue" d="M334.25,-130.41C358.2,-120.03 387.82,-107.2 410.02,-97.58"/>
<polygon fill="midnightblue" stroke="midnightblue" points="332.83,-127.21 325.05,-134.4 335.61,-133.63 332.83,-127.21"/>
</g>
<!-- Node7 -->
<g id="node7" class="node">
<title>Node7</title>
<g id="a_node7"><a xlink:href="promise__impl_8cpp.html" target="_top" xlink:title=" ">
<polygon fill="none" stroke="black" points="239,-73 239,-92 376,-92 376,-73 239,-73"/>
<text text-anchor="middle" x="307.5" y="-80" font-family="Helvetica,sans-Serif" font-size="10.00">src/async/promise_impl.cpp</text>
</a>
</g>
</g>
<!-- Node6&#45;&gt;Node7 -->
<g id="edge9" class="edge">
<title>Node6&#45;&gt;Node7</title>
<path fill="none" stroke="midnightblue" d="M298.02,-124.6C300.63,-113.28 303.59,-100.46 305.49,-92.19"/>
<polygon fill="midnightblue" stroke="midnightblue" points="294.59,-123.87 295.75,-134.4 301.41,-125.44 294.59,-123.87"/>
</g>
<!-- Node8&#45;&gt;Node3 -->
<g id="edge13" class="edge">
<title>Node8&#45;&gt;Node3</title>
<path fill="none" stroke="midnightblue" d="M133.89,-62.44C115.38,-52.24 92.98,-39.9 76.05,-30.58"/>
<polygon fill="midnightblue" stroke="midnightblue" points="132.45,-65.64 142.9,-67.4 135.83,-59.51 132.45,-65.64"/>
</g>
<!-- Node8&#45;&gt;Node5 -->
<g id="edge11" class="edge">
<title>Node8&#45;&gt;Node5</title>
<path fill="none" stroke="midnightblue" d="M220.85,-64.23C252.72,-53.71 292.91,-40.45 322.84,-30.58"/>
<polygon fill="midnightblue" stroke="midnightblue" points="219.65,-60.94 211.25,-67.4 221.84,-67.59 219.65,-60.94"/>
</g>
<!-- Node9 -->
<g id="node9" class="node">
<title>Node9</title>
<g id="a_node9"><a xlink:href="simple_8cpp.html" target="_top" xlink:title=" ">
<polygon fill="none" stroke="black" points="119,-0.5 119,-30.5 220,-30.5 220,-0.5 119,-0.5"/>
<text text-anchor="start" x="127" y="-18.5" font-family="Helvetica,sans-Serif" font-size="10.00">test/example/async</text>
<text text-anchor="middle" x="169.5" y="-7.5" font-family="Helvetica,sans-Serif" font-size="10.00">/simple.cpp</text>
</a>
</g>
</g>
<!-- Node8&#45;&gt;Node9 -->
<g id="edge12" class="edge">
<title>Node8&#45;&gt;Node9</title>
<path fill="none" stroke="midnightblue" d="M168.88,-57.11C169.01,-48.15 169.16,-38.32 169.28,-30.58"/>
<polygon fill="midnightblue" stroke="midnightblue" points="165.37,-57.34 168.72,-67.4 172.37,-57.45 165.37,-57.34"/>
</g>
</g>
</svg>
