<?xml version="1.0" encoding="UTF-8" standalone="no"?>
<!DOCTYPE svg PUBLIC "-//W3C//DTD SVG 1.1//EN"
 "http://www.w3.org/Graphics/SVG/1.1/DTD/svg11.dtd">
<!-- Generated by graphviz version 2.44.0 ()
 -->
<!-- Title: Graphical Class Hierarchy Pages: 1 -->
<svg width="949pt" height="429pt"
 viewBox="0.00 0.00 949.00 428.50" xmlns="http://www.w3.org/2000/svg" xmlns:xlink="http://www.w3.org/1999/xlink">
<g id="graph0" class="graph" transform="scale(1 1) rotate(0) translate(4 424.5)">
<title>Graphical Class Hierarchy</title>
<!-- Node2 -->
<g id="node1" class="node">
<title>Node2</title>
<g id="a_node1"><a xlink:title=" ">
<polygon fill="none" stroke="#bfbfbf" points="457,-302 457,-420 599,-420 599,-302 457,-302"/>
<text text-anchor="start" x="465" y="-408" font-family="Helvetica,sans-Serif" font-size="10.00">AllCombinatorBase&lt;</text>
<text text-anchor="start" x="465" y="-397" font-family="Helvetica,sans-Serif" font-size="10.00"> std::conditional_t</text>
<text text-anchor="start" x="465" y="-386" font-family="Helvetica,sans-Serif" font-size="10.00">&lt; std::is_void_v&lt; T &gt;</text>
<text text-anchor="start" x="465" y="-375" font-family="Helvetica,sans-Serif" font-size="10.00">, void, std::conditional</text>
<text text-anchor="start" x="465" y="-364" font-family="Helvetica,sans-Serif" font-size="10.00">_t&lt;(std::numeric_limits</text>
<text text-anchor="start" x="465" y="-353" font-family="Helvetica,sans-Serif" font-size="10.00">&lt; size_t &gt;::max() !=std::</text>
<text text-anchor="start" x="465" y="-342" font-family="Helvetica,sans-Serif" font-size="10.00">numeric_limits&lt; size_t &gt;::</text>
<text text-anchor="start" x="465" y="-331" font-family="Helvetica,sans-Serif" font-size="10.00">max()), std::array&lt; T, std</text>
<text text-anchor="start" x="465" y="-320" font-family="Helvetica,sans-Serif" font-size="10.00">::numeric_limits&lt; size_t &gt;::</text>
<text text-anchor="middle" x="528" y="-309" font-family="Helvetica,sans-Serif" font-size="10.00">max() &gt;, std::vector&lt; T &gt;&gt;&gt; &gt;</text>
</a>
</g>
</g>
<!-- Node0 -->
<g id="node2" class="node">
<title>Node0</title>
<g id="a_node2"><a xlink:href="classyaclib_1_1detail_1_1AllCombinator.html" target="_top" xlink:title=" ">
<polygon fill="none" stroke="black" points="635,-326 635,-356 781,-356 781,-326 635,-326"/>
<text text-anchor="start" x="643" y="-344" font-family="Helvetica,sans-Serif" font-size="10.00">yaclib::detail::AllCombinator</text>
<text text-anchor="middle" x="708" y="-333" font-family="Helvetica,sans-Serif" font-size="10.00">&lt; T, N, IsArray, FutureValue &gt;</text>
</a>
</g>
</g>
<!-- Node2&#45;&gt;Node0 -->
<g id="edge1" class="edge">
<title>Node2&#45;&gt;Node0</title>
<path fill="none" stroke="midnightblue" d="M609.12,-352C617.72,-351.03 626.43,-350.05 634.92,-349.1"/>
<polygon fill="midnightblue" stroke="midnightblue" points="608.64,-348.53 599.09,-353.12 609.42,-355.49 608.64,-348.53"/>
</g>
<!-- Node5 -->
<g id="node3" class="node">
<title>Node5</title>
<g id="a_node3"><a xlink:href="classyaclib_1_1detail_1_1AnyCombinatorBase.html" target="_top" xlink:title=" ">
<polygon fill="none" stroke="black" points="458,-253 458,-283 598,-283 598,-253 458,-253"/>
<text text-anchor="start" x="466" y="-271" font-family="Helvetica,sans-Serif" font-size="10.00">yaclib::detail::AnyCombinator</text>
<text text-anchor="middle" x="528" y="-260" font-family="Helvetica,sans-Serif" font-size="10.00">Base&lt; T, P &gt;</text>
</a>
</g>
</g>
<!-- Node6 -->
<g id="node4" class="node">
<title>Node6</title>
<g id="a_node4"><a xlink:href="classyaclib_1_1detail_1_1AnyCombinator.html" target="_top" xlink:title=" ">
<polygon fill="none" stroke="black" points="638,-256 638,-286 778,-286 778,-256 638,-256"/>
<text text-anchor="start" x="646" y="-274" font-family="Helvetica,sans-Serif" font-size="10.00">yaclib::detail::AnyCombinator</text>
<text text-anchor="middle" x="708" y="-263" font-family="Helvetica,sans-Serif" font-size="10.00">&lt; T, P &gt;</text>
</a>
</g>
</g>
<!-- Node5&#45;&gt;Node6 -->
<g id="edge2" class="edge">
<title>Node5&#45;&gt;Node6</title>
<path fill="none" stroke="midnightblue" d="M608.3,-269.34C618.19,-269.5 628.25,-269.67 637.96,-269.84"/>
<polygon fill="midnightblue" stroke="midnightblue" points="608.13,-265.83 598.07,-269.16 608.01,-272.83 608.13,-265.83"/>
</g>
<!-- Node28 -->
<g id="node5" class="node">
<title>Node28</title>
<g id="a_node5"><a xlink:href="classyaclib_1_1util_1_1IRef.html" target="_top" xlink:title="Reference counting interface.">
<polygon fill="none" stroke="black" points="0,-136.5 0,-155.5 81,-155.5 81,-136.5 0,-136.5"/>
<text text-anchor="middle" x="40.5" y="-143.5" font-family="Helvetica,sans-Serif" font-size="10.00">yaclib::util::IRef</text>
</a>
</g>
</g>
<!-- Node29 -->
<g id="node6" class="node">
<title>Node29</title>
<g id="a_node6"><a xlink:href="classyaclib_1_1IExecutor.html" target="_top" xlink:title=" ">
<polygon fill="none" stroke="black" points="130.5,-92.5 130.5,-111.5 216.5,-111.5 216.5,-92.5 130.5,-92.5"/>
<text text-anchor="middle" x="173.5" y="-99.5" font-family="Helvetica,sans-Serif" font-size="10.00">yaclib::IExecutor</text>
</a>
</g>
</g>
<!-- Node28&#45;&gt;Node29 -->
<g id="edge3" class="edge">
<title>Node28&#45;&gt;Node29</title>
<path fill="none" stroke="midnightblue" d="M79.64,-133.19C100.25,-126.27 125.26,-117.87 144.13,-111.53"/>
<polygon fill="midnightblue" stroke="midnightblue" points="78.29,-129.95 69.93,-136.45 80.52,-136.59 78.29,-129.95"/>
</g>
<!-- Node32 -->
<g id="node9" class="node">
<title>Node32</title>
<g id="a_node9"><a xlink:href="classyaclib_1_1IThreadFactory.html" target="_top" xlink:title=" ">
<polygon fill="none" stroke="black" points="118,-218.5 118,-237.5 229,-237.5 229,-218.5 118,-218.5"/>
<text text-anchor="middle" x="173.5" y="-225.5" font-family="Helvetica,sans-Serif" font-size="10.00">yaclib::IThreadFactory</text>
</a>
</g>
</g>
<!-- Node28&#45;&gt;Node32 -->
<g id="edge6" class="edge">
<title>Node28&#45;&gt;Node32</title>
<path fill="none" stroke="midnightblue" d="M58.08,-162.95C72.54,-176.92 94.66,-196.43 117,-209 123.57,-212.7 130.98,-215.84 138.19,-218.45"/>
<polygon fill="midnightblue" stroke="midnightblue" points="60.45,-160.37 50.88,-155.83 55.53,-165.35 60.45,-160.37"/>
</g>
<!-- Node33 -->
<g id="node10" class="node">
<title>Node33</title>
<g id="a_node10"><a xlink:href="classyaclib_1_1detail_1_1WaitCore.html" target="_top" xlink:title=" ">
<polygon fill="none" stroke="black" points="117,-54.5 117,-73.5 230,-73.5 230,-54.5 117,-54.5"/>
<text text-anchor="middle" x="173.5" y="-61.5" font-family="Helvetica,sans-Serif" font-size="10.00">yaclib::detail::WaitCore</text>
</a>
</g>
</g>
<!-- Node28&#45;&gt;Node33 -->
<g id="edge7" class="edge">
<title>Node28&#45;&gt;Node33</title>
<path fill="none" stroke="midnightblue" d="M58.08,-129.05C72.54,-115.08 94.66,-95.57 117,-83 123.57,-79.3 130.98,-76.16 138.19,-73.55"/>
<polygon fill="midnightblue" stroke="midnightblue" points="55.53,-126.65 50.88,-136.17 60.45,-131.63 55.53,-126.65"/>
</g>
<!-- Node35 -->
<g id="node12" class="node">
<title>Node35</title>
<g id="a_node12"><a xlink:href="classyaclib_1_1util_1_1IFunc.html" target="_top" xlink:title="Shared callable interface.">
<polygon fill="none" stroke="black" points="129.5,-180.5 129.5,-199.5 217.5,-199.5 217.5,-180.5 129.5,-180.5"/>
<text text-anchor="middle" x="173.5" y="-187.5" font-family="Helvetica,sans-Serif" font-size="10.00">yaclib::util::IFunc</text>
</a>
</g>
</g>
<!-- Node28&#45;&gt;Node35 -->
<g id="edge9" class="edge">
<title>Node28&#45;&gt;Node35</title>
<path fill="none" stroke="midnightblue" d="M79.64,-158.81C100.25,-165.73 125.26,-174.13 144.13,-180.47"/>
<polygon fill="midnightblue" stroke="midnightblue" points="80.52,-155.41 69.93,-155.55 78.29,-162.05 80.52,-155.41"/>
</g>
<!-- Node30 -->
<g id="node7" class="node">
<title>Node30</title>
<g id="a_node7"><a xlink:href="classyaclib_1_1IThreadPool.html" target="_top" xlink:title="Interface for thread&#45;pool&#45;like executors.">
<polygon fill="none" stroke="black" points="294.5,-98.5 294.5,-117.5 392.5,-117.5 392.5,-98.5 294.5,-98.5"/>
<text text-anchor="middle" x="343.5" y="-105.5" font-family="Helvetica,sans-Serif" font-size="10.00">yaclib::IThreadPool</text>
</a>
</g>
</g>
<!-- Node29&#45;&gt;Node30 -->
<g id="edge4" class="edge">
<title>Node29&#45;&gt;Node30</title>
<path fill="none" stroke="midnightblue" d="M227.18,-103.88C248.71,-104.65 273.45,-105.53 294.48,-106.28"/>
<polygon fill="midnightblue" stroke="midnightblue" points="227.01,-100.37 216.89,-103.51 226.76,-107.37 227.01,-100.37"/>
</g>
<!-- Node31 -->
<g id="node8" class="node">
<title>Node31</title>
<g id="a_node8"><a xlink:href="classyaclib_1_1Inline.html" target="_top" xlink:title=" ">
<polygon fill="none" stroke="black" points="309,-60.5 309,-79.5 378,-79.5 378,-60.5 309,-60.5"/>
<text text-anchor="middle" x="343.5" y="-67.5" font-family="Helvetica,sans-Serif" font-size="10.00">yaclib::Inline</text>
</a>
</g>
</g>
<!-- Node29&#45;&gt;Node31 -->
<g id="edge5" class="edge">
<title>Node29&#45;&gt;Node31</title>
<path fill="none" stroke="midnightblue" d="M226.87,-92.02C253.63,-86.93 285.39,-80.88 308.85,-76.41"/>
<polygon fill="midnightblue" stroke="midnightblue" points="226.06,-88.62 216.89,-93.93 227.37,-95.49 226.06,-88.62"/>
</g>
<!-- Node34 -->
<g id="node11" class="node">
<title>Node34</title>
<g id="a_node11"><a xlink:href="classyaclib_1_1util_1_1Counter.html" target="_top" xlink:title=" ">
<polygon fill="none" stroke="black" points="266,-0.5 266,-41.5 421,-41.5 421,-0.5 266,-0.5"/>
<text text-anchor="start" x="274" y="-29.5" font-family="Helvetica,sans-Serif" font-size="10.00">yaclib::util::Counter</text>
<text text-anchor="start" x="274" y="-18.5" font-family="Helvetica,sans-Serif" font-size="10.00">&lt; yaclib::detail::WaitCore,</text>
<text text-anchor="middle" x="343.5" y="-7.5" font-family="Helvetica,sans-Serif" font-size="10.00"> yaclib::detail::WaitCoreDeleter &gt;</text>
</a>
</g>
</g>
<!-- Node33&#45;&gt;Node34 -->
<g id="edge8" class="edge">
<title>Node33&#45;&gt;Node34</title>
<path fill="none" stroke="midnightblue" d="M221.48,-51.98C235.23,-48.45 250.64,-44.51 265.74,-40.65"/>
<polygon fill="midnightblue" stroke="midnightblue" points="220.6,-48.59 211.78,-54.46 222.34,-55.37 220.6,-48.59"/>
</g>
<!-- Node36 -->
<g id="node13" class="node">
<title>Node36</title>
<g id="a_node13"><a xlink:href="classyaclib_1_1ITask.html" target="_top" xlink:title="Callable that can be executed in an IExecutor.">
<polygon fill="none" stroke="black" points="308,-177.5 308,-196.5 379,-196.5 379,-177.5 308,-177.5"/>
<text text-anchor="middle" x="343.5" y="-184.5" font-family="Helvetica,sans-Serif" font-size="10.00">yaclib::ITask</text>
</a>
</g>
</g>
<!-- Node35&#45;&gt;Node36 -->
<g id="edge10" class="edge">
<title>Node35&#45;&gt;Node36</title>
<path fill="none" stroke="midnightblue" d="M227.91,-189.05C254.06,-188.58 284.79,-188.03 307.84,-187.62"/>
<polygon fill="midnightblue" stroke="midnightblue" points="227.7,-185.55 217.76,-189.23 227.83,-192.55 227.7,-185.55"/>
</g>
<!-- Node37 -->
<g id="node14" class="node">
<title>Node37</title>
<g id="a_node14"><a xlink:href="classyaclib_1_1util_1_1detail_1_1CallImpl.html" target="_top" xlink:title=" ">
<polygon fill="none" stroke="black" points="460,-136 460,-166 596,-166 596,-136 460,-136"/>
<text text-anchor="start" x="468" y="-154" font-family="Helvetica,sans-Serif" font-size="10.00">yaclib::util::detail</text>
<text text-anchor="middle" x="528" y="-143" font-family="Helvetica,sans-Serif" font-size="10.00">::CallImpl&lt; ITask, Functor &gt;</text>
</a>
</g>
</g>
<!-- Node36&#45;&gt;Node37 -->
<g id="edge11" class="edge">
<title>Node36&#45;&gt;Node37</title>
<path fill="none" stroke="midnightblue" d="M389.28,-178.17C410.52,-173.98 436.33,-168.88 459.85,-164.25"/>
<polygon fill="midnightblue" stroke="midnightblue" points="388.39,-174.77 379.26,-180.14 389.74,-181.64 388.39,-174.77"/>
</g>
<!-- Node39 -->
<g id="node16" class="node">
<title>Node39</title>
<g id="a_node16"><a xlink:href="classyaclib_1_1detail_1_1BaseCore.html" target="_top" xlink:title=" ">
<polygon fill="none" stroke="black" points="470,-212.5 470,-231.5 586,-231.5 586,-212.5 470,-212.5"/>
<text text-anchor="middle" x="528" y="-219.5" font-family="Helvetica,sans-Serif" font-size="10.00">yaclib::detail::BaseCore</text>
</a>
</g>
</g>
<!-- Node36&#45;&gt;Node39 -->
<g id="edge13" class="edge">
<title>Node36&#45;&gt;Node39</title>
<path fill="none" stroke="midnightblue" d="M389.09,-195.55C415.75,-200.66 449.67,-207.17 477.2,-212.45"/>
<polygon fill="midnightblue" stroke="midnightblue" points="389.74,-192.11 379.26,-193.67 388.42,-198.99 389.74,-192.11"/>
</g>
<!-- Node38 -->
<g id="node15" class="node">
<title>Node38</title>
<g id="a_node15"><a xlink:href="classyaclib_1_1detail_1_1UniqueTask.html" target="_top" xlink:title=" ">
<polygon fill="none" stroke="black" points="645,-109 645,-139 771,-139 771,-109 645,-109"/>
<text text-anchor="start" x="653" y="-127" font-family="Helvetica,sans-Serif" font-size="10.00">yaclib::detail::UniqueTask</text>
<text text-anchor="middle" x="708" y="-116" font-family="Helvetica,sans-Serif" font-size="10.00">&lt; Functor &gt;</text>
</a>
</g>
</g>
<!-- Node37&#45;&gt;Node38 -->
<g id="edge12" class="edge">
<title>Node37&#45;&gt;Node38</title>
<path fill="none" stroke="midnightblue" d="M606.26,-139.28C619.11,-137.33 632.3,-135.33 644.72,-133.45"/>
<polygon fill="midnightblue" stroke="midnightblue" points="605.4,-135.87 596.04,-140.83 606.45,-142.79 605.4,-135.87"/>
</g>
<!-- Node39&#45;&gt;Node0 -->
<g id="edge16" class="edge">
<title>Node39&#45;&gt;Node0</title>
<path fill="none" stroke="midnightblue" d="M584.31,-235.48C589.51,-237.88 594.51,-240.69 599,-244 621.63,-260.67 614.66,-276.6 635,-296 647.37,-307.8 663.31,-318.15 677.05,-325.94"/>
<polygon fill="midnightblue" stroke="midnightblue" points="585.37,-232.13 574.79,-231.59 582.73,-238.61 585.37,-232.13"/>
</g>
<!-- Node39&#45;&gt;Node6 -->
<g id="edge17" class="edge">
<title>Node39&#45;&gt;Node6</title>
<path fill="none" stroke="midnightblue" d="M573.6,-234.28C597.49,-240.85 627.12,-249.01 652.38,-255.96"/>
<polygon fill="midnightblue" stroke="midnightblue" points="574.31,-230.84 563.74,-231.56 572.46,-237.59 574.31,-230.84"/>
</g>
<!-- Node40 -->
<g id="node17" class="node">
<title>Node40</title>
<g id="a_node17"><a xlink:href="classyaclib_1_1detail_1_1ResultCore.html" target="_top" xlink:title=" ">
<polygon fill="none" stroke="black" points="647,-158 647,-188 769,-188 769,-158 647,-158"/>
<text text-anchor="start" x="655" y="-176" font-family="Helvetica,sans-Serif" font-size="10.00">yaclib::detail::ResultCore</text>
<text text-anchor="middle" x="708" y="-165" font-family="Helvetica,sans-Serif" font-size="10.00">&lt; Ret &gt;</text>
</a>
</g>
</g>
<!-- Node39&#45;&gt;Node40 -->
<g id="edge14" class="edge">
<title>Node39&#45;&gt;Node40</title>
<path fill="none" stroke="midnightblue" d="M573.6,-209.72C597.49,-203.15 627.12,-194.99 652.38,-188.04"/>
<polygon fill="midnightblue" stroke="midnightblue" points="572.46,-206.41 563.74,-212.44 574.31,-213.16 572.46,-206.41"/>
</g>
<!-- Node42 -->
<g id="node19" class="node">
<title>Node42</title>
<g id="a_node19"><a xlink:href="classyaclib_1_1detail_1_1ResultCore.html" target="_top" xlink:title=" ">
<polygon fill="none" stroke="black" points="647,-207 647,-237 769,-237 769,-207 647,-207"/>
<text text-anchor="start" x="655" y="-225" font-family="Helvetica,sans-Serif" font-size="10.00">yaclib::detail::ResultCore</text>
<text text-anchor="middle" x="708" y="-214" font-family="Helvetica,sans-Serif" font-size="10.00">&lt; Value &gt;</text>
</a>
</g>
</g>
<!-- Node39&#45;&gt;Node42 -->
<g id="edge18" class="edge">
<title>Node39&#45;&gt;Node42</title>
<path fill="none" stroke="midnightblue" d="M596.44,-222C612.97,-222 630.57,-222 646.74,-222"/>
<polygon fill="midnightblue" stroke="midnightblue" points="596.3,-218.5 586.3,-222 596.3,-225.5 596.3,-218.5"/>
</g>
<!-- Node41 -->
<g id="node18" class="node">
<title>Node41</title>
<g id="a_node18"><a xlink:href="classyaclib_1_1detail_1_1Core.html" target="_top" xlink:title=" ">
<polygon fill="none" stroke="black" points="817,-158 817,-188 941,-188 941,-158 817,-158"/>
<text text-anchor="start" x="825" y="-176" font-family="Helvetica,sans-Serif" font-size="10.00">yaclib::detail::Core</text>
<text text-anchor="middle" x="879" y="-165" font-family="Helvetica,sans-Serif" font-size="10.00">&lt; Ret, InvokeType, Arg &gt;</text>
</a>
</g>
</g>
<!-- Node40&#45;&gt;Node41 -->
<g id="edge15" class="edge">
<title>Node40&#45;&gt;Node41</title>
<path fill="none" stroke="midnightblue" d="M779.42,-173C791.9,-173 804.8,-173 816.99,-173"/>
<polygon fill="midnightblue" stroke="midnightblue" points="779.06,-169.5 769.06,-173 779.06,-176.5 779.06,-169.5"/>
</g>
<!-- Node47 -->
<g id="node20" class="node">
<title>Node47</title>
<g id="a_node20"><a xlink:href="classyaclib_1_1util_1_1detail_1_1Node.html" target="_top" xlink:title="Intrusive node class.">
<polygon fill="none" stroke="black" points="130.5,-131 130.5,-161 216.5,-161 216.5,-131 130.5,-131"/>
<text text-anchor="start" x="138.5" y="-149" font-family="Helvetica,sans-Serif" font-size="10.00">yaclib::util::detail</text>
<text text-anchor="middle" x="173.5" y="-138" font-family="Helvetica,sans-Serif" font-size="10.00">::Node</text>
</a>
</g>
</g>
<!-- Node47&#45;&gt;Node36 -->
<g id="edge19" class="edge">
<title>Node47&#45;&gt;Node36</title>
<path fill="none" stroke="midnightblue" d="M226.73,-158.75C253.1,-165.18 284.37,-172.81 307.76,-178.52"/>
<polygon fill="midnightblue" stroke="midnightblue" points="227.44,-155.32 216.89,-156.35 225.78,-162.12 227.44,-155.32"/>
</g>
<!-- Node48 -->
<g id="node21" class="node">
<title>Node48</title>
<g id="a_node21"><a xlink:href="classyaclib_1_1IThread.html" target="_top" xlink:title=" ">
<polygon fill="none" stroke="black" points="304,-136.5 304,-155.5 383,-155.5 383,-136.5 304,-136.5"/>
<text text-anchor="middle" x="343.5" y="-143.5" font-family="Helvetica,sans-Serif" font-size="10.00">yaclib::IThread</text>
</a>
</g>
</g>
<!-- Node47&#45;&gt;Node48 -->
<g id="edge20" class="edge">
<title>Node47&#45;&gt;Node48</title>
<path fill="none" stroke="midnightblue" d="M226.91,-146C251.8,-146 281.02,-146 303.86,-146"/>
<polygon fill="midnightblue" stroke="midnightblue" points="226.89,-142.5 216.89,-146 226.89,-149.5 226.89,-142.5"/>
</g>
<!-- Node68 -->
<g id="node22" class="node">
<title>Node68</title>
<g id="a_node22"><a xlink:href="structyaclib_1_1detail_1_1WaitCoreDeleter.html" target="_top" xlink:title=" ">
<polygon fill="none" stroke="black" points="117,-5 117,-35 230,-35 230,-5 117,-5"/>
<text text-anchor="start" x="125" y="-23" font-family="Helvetica,sans-Serif" font-size="10.00">yaclib::detail::WaitCore</text>
<text text-anchor="middle" x="173.5" y="-12" font-family="Helvetica,sans-Serif" font-size="10.00">Deleter</text>
</a>
</g>
</g>
<!-- Node68&#45;&gt;Node34 -->
<g id="edge21" class="edge">
<title>Node68&#45;&gt;Node34</title>
<path fill="none" stroke="midnightblue" d="M240.46,-20.39C248.8,-20.44 257.38,-20.49 265.86,-20.54"/>
<polygon fill="midnightblue" stroke="midnightblue" points="240.46,-16.89 230.44,-20.33 240.42,-23.89 240.46,-16.89"/>
</g>
</g>
</svg>
