<?xml version="1.0" encoding="UTF-8" standalone="no"?>
<!DOCTYPE svg PUBLIC "-//W3C//DTD SVG 1.1//EN"
 "http://www.w3.org/Graphics/SVG/1.1/DTD/svg11.dtd">
<!-- Generated by graphviz version 2.44.0 ()
 -->
<!-- Title: Graphical Class Hierarchy Pages: 1 -->
<svg width="261pt" height="88pt"
 viewBox="0.00 0.00 261.00 88.00" xmlns="http://www.w3.org/2000/svg" xmlns:xlink="http://www.w3.org/1999/xlink">
<g id="graph0" class="graph" transform="scale(1 1) rotate(0) translate(4 84)">
<title>Graphical Class Hierarchy</title>
<!-- Node0 -->
<g id="node1" class="node">
<title>Node0</title>
<g id="a_node1"><a xlink:href="classCounterBase.html" target="_top" xlink:title=" ">
<polygon fill="none" stroke="black" points="6.5,-9 6.5,-28 79.5,-28 79.5,-9 6.5,-9"/>
<text text-anchor="middle" x="43" y="-16" font-family="Helvetica,sans-Serif" font-size="10.00">CounterBase</text>
</a>
</g>
</g>
<!-- Node1 -->
<g id="node2" class="node">
<title>Node1</title>
<g id="a_node2"><a xlink:href="classyaclib_1_1util_1_1Counter.html" target="_top" xlink:title=" ">
<polygon fill="none" stroke="black" points="125,-49.5 125,-79.5 250,-79.5 250,-49.5 125,-49.5"/>
<text text-anchor="start" x="133" y="-67.5" font-family="Helvetica,sans-Serif" font-size="10.00">yaclib::util::Counter</text>
<text text-anchor="middle" x="187.5" y="-56.5" font-family="Helvetica,sans-Serif" font-size="10.00">&lt; CounterBase, Deleter &gt;</text>
</a>
</g>
</g>
<!-- Node0&#45;&gt;Node1 -->
<g id="edge1" class="edge">
<title>Node0&#45;&gt;Node1</title>
<path fill="none" stroke="midnightblue" d="M83.41,-31.22C100.91,-36.87 121.64,-43.56 139.9,-49.46"/>
<polygon fill="midnightblue" stroke="midnightblue" points="84.12,-27.77 73.53,-28.03 81.97,-34.43 84.12,-27.77"/>
</g>
<!-- Node2 -->
<g id="node3" class="node">
<title>Node2</title>
<g id="a_node3"><a xlink:href="classyaclib_1_1util_1_1NothingCounter.html" target="_top" xlink:title=" ">
<polygon fill="none" stroke="black" points="122,-0.5 122,-30.5 253,-30.5 253,-0.5 122,-0.5"/>
<text text-anchor="start" x="130" y="-18.5" font-family="Helvetica,sans-Serif" font-size="10.00">yaclib::util::NothingCounter</text>
<text text-anchor="middle" x="187.5" y="-7.5" font-family="Helvetica,sans-Serif" font-size="10.00">&lt; CounterBase &gt;</text>
</a>
</g>
</g>
<!-- Node0&#45;&gt;Node2 -->
<g id="edge2" class="edge">
<title>Node0&#45;&gt;Node2</title>
<path fill="none" stroke="midnightblue" d="M89.59,-17.54C99.9,-17.32 111.04,-17.09 121.97,-16.86"/>
<polygon fill="midnightblue" stroke="midnightblue" points="89.52,-14.04 79.59,-17.75 89.66,-21.04 89.52,-14.04"/>
</g>
<!-- Node14 -->
<g id="node4" class="node">
<title>Node14</title>
<g id="a_node4"><a xlink:href="structyaclib_1_1util_1_1detail_1_1DefaultDeleter.html" target="_top" xlink:title=" ">
<polygon fill="none" stroke="black" points="0,-49.5 0,-79.5 86,-79.5 86,-49.5 0,-49.5"/>
<text text-anchor="start" x="8" y="-67.5" font-family="Helvetica,sans-Serif" font-size="10.00">yaclib::util::detail</text>
<text text-anchor="middle" x="43" y="-56.5" font-family="Helvetica,sans-Serif" font-size="10.00">::DefaultDeleter</text>
</a>
</g>
</g>
<!-- Node14&#45;&gt;Node1 -->
<g id="edge3" class="edge">
<title>Node14&#45;&gt;Node1</title>
<path fill="none" stroke="midnightblue" d="M96.52,-64.5C105.72,-64.5 115.36,-64.5 124.78,-64.5"/>
<polygon fill="midnightblue" stroke="midnightblue" points="96.37,-61 86.37,-64.5 96.37,-68 96.37,-61"/>
</g>
</g>
</svg>
