<?xml version="1.0" encoding="UTF-8" standalone="no"?>
<!DOCTYPE svg PUBLIC "-//W3C//DTD SVG 1.1//EN"
 "http://www.w3.org/Graphics/SVG/1.1/DTD/svg11.dtd">
<!-- Generated by graphviz version 2.44.0 ()
 -->
<!-- Title: include/yaclib/executor/inline.hpp Pages: 1 -->
<svg width="479pt" height="341pt"
 viewBox="0.00 0.00 478.50 341.00" xmlns="http://www.w3.org/2000/svg" xmlns:xlink="http://www.w3.org/1999/xlink">
<g id="graph0" class="graph" transform="scale(1 1) rotate(0) translate(4 337)">
<title>include/yaclib/executor/inline.hpp</title>
<!-- Node1 -->
<g id="node1" class="node">
<title>Node1</title>
<g id="a_node1"><a xlink:title=" ">
<polygon fill="#bfbfbf" stroke="black" points="254.5,-302.5 254.5,-332.5 369.5,-332.5 369.5,-302.5 254.5,-302.5"/>
<text text-anchor="start" x="262.5" y="-320.5" font-family="Helvetica,sans-Serif" font-size="10.00">include/yaclib/executor</text>
<text text-anchor="middle" x="312" y="-309.5" font-family="Helvetica,sans-Serif" font-size="10.00">/inline.hpp</text>
</a>
</g>
</g>
<!-- Node2 -->
<g id="node2" class="node">
<title>Node2</title>
<g id="a_node2"><a xlink:href="executor_8hpp.html" target="_top" xlink:title=" ">
<polygon fill="none" stroke="black" points="242.5,-246.5 242.5,-265.5 381.5,-265.5 381.5,-246.5 242.5,-246.5"/>
<text text-anchor="middle" x="312" y="-253.5" font-family="Helvetica,sans-Serif" font-size="10.00">yaclib/executor/executor.hpp</text>
</a>
</g>
</g>
<!-- Node1&#45;&gt;Node2 -->
<g id="edge1" class="edge">
<title>Node1&#45;&gt;Node2</title>
<path fill="none" stroke="midnightblue" d="M312,-302.4C312,-294.47 312,-284.46 312,-275.86"/>
<polygon fill="midnightblue" stroke="midnightblue" points="315.5,-275.66 312,-265.66 308.5,-275.66 315.5,-275.66"/>
</g>
<!-- Node3 -->
<g id="node3" class="node">
<title>Node3</title>
<g id="a_node3"><a xlink:href="task_8hpp.html" target="_top" xlink:title=" ">
<polygon fill="none" stroke="black" points="207.5,-190.5 207.5,-209.5 328.5,-209.5 328.5,-190.5 207.5,-190.5"/>
<text text-anchor="middle" x="268" y="-197.5" font-family="Helvetica,sans-Serif" font-size="10.00">yaclib/executor/task.hpp</text>
</a>
</g>
</g>
<!-- Node2&#45;&gt;Node3 -->
<g id="edge2" class="edge">
<title>Node2&#45;&gt;Node3</title>
<path fill="none" stroke="midnightblue" d="M304.73,-246.08C298.46,-238.38 289.21,-227.03 281.57,-217.65"/>
<polygon fill="midnightblue" stroke="midnightblue" points="284.16,-215.29 275.13,-209.75 278.73,-219.71 284.16,-215.29"/>
</g>
<!-- Node8 -->
<g id="node8" class="node">
<title>Node8</title>
<g id="a_node8"><a xlink:href="intrusive__ptr_8hpp.html" target="_top" xlink:title=" ">
<polygon fill="none" stroke="black" points="308.5,-56.5 308.5,-86.5 405.5,-86.5 405.5,-56.5 308.5,-56.5"/>
<text text-anchor="start" x="316.5" y="-74.5" font-family="Helvetica,sans-Serif" font-size="10.00">yaclib/util/intrusive</text>
<text text-anchor="middle" x="357" y="-63.5" font-family="Helvetica,sans-Serif" font-size="10.00">_ptr.hpp</text>
</a>
</g>
</g>
<!-- Node2&#45;&gt;Node8 -->
<g id="edge16" class="edge">
<title>Node2&#45;&gt;Node8</title>
<path fill="none" stroke="midnightblue" d="M317.98,-246.48C323.8,-237.74 332.42,-223.55 337,-210 349.95,-171.67 354.52,-124.54 356.13,-96.59"/>
<polygon fill="midnightblue" stroke="midnightblue" points="359.62,-96.71 356.62,-86.55 352.63,-96.36 359.62,-96.71"/>
</g>
<!-- Node4 -->
<g id="node4" class="node">
<title>Node4</title>
<g id="a_node4"><a xlink:href="func_8hpp.html" target="_top" xlink:title=" ">
<polygon fill="none" stroke="black" points="231.5,-129 231.5,-148 328.5,-148 328.5,-129 231.5,-129"/>
<text text-anchor="middle" x="280" y="-136" font-family="Helvetica,sans-Serif" font-size="10.00">yaclib/util/func.hpp</text>
</a>
</g>
</g>
<!-- Node3&#45;&gt;Node4 -->
<g id="edge3" class="edge">
<title>Node3&#45;&gt;Node4</title>
<path fill="none" stroke="midnightblue" d="M269.72,-190.48C271.43,-181.99 274.11,-168.7 276.3,-157.82"/>
<polygon fill="midnightblue" stroke="midnightblue" points="279.74,-158.5 278.28,-148.01 272.88,-157.12 279.74,-158.5"/>
</g>
<!-- Node13 -->
<g id="node13" class="node">
<title>Node13</title>
<g id="a_node13"><a xlink:href="intrusive__node_8hpp.html" target="_top" xlink:title=" ">
<polygon fill="none" stroke="black" points="116.5,-123.5 116.5,-153.5 213.5,-153.5 213.5,-123.5 116.5,-123.5"/>
<text text-anchor="start" x="124.5" y="-141.5" font-family="Helvetica,sans-Serif" font-size="10.00">yaclib/util/intrusive</text>
<text text-anchor="middle" x="165" y="-130.5" font-family="Helvetica,sans-Serif" font-size="10.00">_node.hpp</text>
</a>
</g>
</g>
<!-- Node3&#45;&gt;Node13 -->
<g id="edge15" class="edge">
<title>Node3&#45;&gt;Node13</title>
<path fill="none" stroke="midnightblue" d="M253.24,-190.48C238.9,-182.19 216.63,-169.32 198.05,-158.59"/>
<polygon fill="midnightblue" stroke="midnightblue" points="199.68,-155.49 189.28,-153.52 196.18,-161.56 199.68,-155.49"/>
</g>
<!-- Node5 -->
<g id="node5" class="node">
<title>Node5</title>
<g id="a_node5"><a xlink:href="counters_8hpp.html" target="_top" xlink:title=" ">
<polygon fill="none" stroke="black" points="71,-62 71,-81 187,-81 187,-62 71,-62"/>
<text text-anchor="middle" x="129" y="-69" font-family="Helvetica,sans-Serif" font-size="10.00">yaclib/util/counters.hpp</text>
</a>
</g>
</g>
<!-- Node4&#45;&gt;Node5 -->
<g id="edge4" class="edge">
<title>Node4&#45;&gt;Node5</title>
<path fill="none" stroke="midnightblue" d="M259.95,-128.87C234,-117.7 188.58,-98.15 158.64,-85.26"/>
<polygon fill="midnightblue" stroke="midnightblue" points="159.7,-81.91 149.13,-81.17 156.94,-88.34 159.7,-81.91"/>
</g>
<!-- Node4&#45;&gt;Node8 -->
<g id="edge7" class="edge">
<title>Node4&#45;&gt;Node8</title>
<path fill="none" stroke="midnightblue" d="M290.38,-128.73C301.09,-119.7 318.18,-105.27 332.36,-93.3"/>
<polygon fill="midnightblue" stroke="midnightblue" points="334.93,-95.71 340.31,-86.59 330.41,-90.37 334.93,-95.71"/>
</g>
<!-- Node9 -->
<g id="node9" class="node">
<title>Node9</title>
<g id="a_node9"><a xlink:href="ref_8hpp.html" target="_top" xlink:title=" ">
<polygon fill="none" stroke="black" points="170.5,-0.5 170.5,-19.5 259.5,-19.5 259.5,-0.5 170.5,-0.5"/>
<text text-anchor="middle" x="215" y="-7.5" font-family="Helvetica,sans-Serif" font-size="10.00">yaclib/util/ref.hpp</text>
</a>
</g>
</g>
<!-- Node4&#45;&gt;Node9 -->
<g id="edge12" class="edge">
<title>Node4&#45;&gt;Node9</title>
<path fill="none" stroke="midnightblue" d="M275.53,-128.81C264.96,-108.22 238.22,-56.19 224.08,-28.68"/>
<polygon fill="midnightblue" stroke="midnightblue" points="227.18,-27.05 219.5,-19.76 220.96,-30.25 227.18,-27.05"/>
</g>
<!-- Node11 -->
<g id="node11" class="node">
<title>Node11</title>
<g id="a_node11"><a xlink:title=" ">
<polygon fill="none" stroke="#bfbfbf" points="277,-0.5 277,-19.5 339,-19.5 339,-0.5 277,-0.5"/>
<text text-anchor="middle" x="308" y="-7.5" font-family="Helvetica,sans-Serif" font-size="10.00">type_traits</text>
</a>
</g>
</g>
<!-- Node4&#45;&gt;Node11 -->
<g id="edge13" class="edge">
<title>Node4&#45;&gt;Node11</title>
<path fill="none" stroke="midnightblue" d="M281.92,-128.81C286.42,-108.49 297.7,-57.55 303.84,-29.78"/>
<polygon fill="midnightblue" stroke="midnightblue" points="307.32,-30.28 306.06,-19.76 300.48,-28.76 307.32,-30.28"/>
</g>
<!-- Node12 -->
<g id="node12" class="node">
<title>Node12</title>
<g id="a_node12"><a xlink:title=" ">
<polygon fill="none" stroke="#bfbfbf" points="431.5,-0.5 431.5,-19.5 470.5,-19.5 470.5,-0.5 431.5,-0.5"/>
<text text-anchor="middle" x="451" y="-7.5" font-family="Helvetica,sans-Serif" font-size="10.00">utility</text>
</a>
</g>
</g>
<!-- Node4&#45;&gt;Node12 -->
<g id="edge14" class="edge">
<title>Node4&#45;&gt;Node12</title>
<path fill="none" stroke="midnightblue" d="M326.79,-128.99C354.88,-121.84 389.75,-109.11 414,-87 430.9,-71.59 440.94,-46.78 446.2,-29.72"/>
<polygon fill="midnightblue" stroke="midnightblue" points="449.65,-30.38 449,-19.8 442.92,-28.48 449.65,-30.38"/>
</g>
<!-- Node6 -->
<g id="node6" class="node">
<title>Node6</title>
<g id="a_node6"><a xlink:title=" ">
<polygon fill="none" stroke="#bfbfbf" points="0,-0.5 0,-19.5 88,-19.5 88,-0.5 0,-0.5"/>
<text text-anchor="middle" x="44" y="-7.5" font-family="Helvetica,sans-Serif" font-size="10.00">yaclib/config.hpp</text>
</a>
</g>
</g>
<!-- Node5&#45;&gt;Node6 -->
<g id="edge5" class="edge">
<title>Node5&#45;&gt;Node6</title>
<path fill="none" stroke="midnightblue" d="M116.82,-61.98C103.19,-52.43 80.87,-36.81 64.53,-25.37"/>
<polygon fill="midnightblue" stroke="midnightblue" points="66.36,-22.38 56.16,-19.51 62.34,-28.11 66.36,-22.38"/>
</g>
<!-- Node7 -->
<g id="node7" class="node">
<title>Node7</title>
<g id="a_node7"><a xlink:title=" ">
<polygon fill="none" stroke="#bfbfbf" points="106,-0.5 106,-19.5 152,-19.5 152,-0.5 106,-0.5"/>
<text text-anchor="middle" x="129" y="-7.5" font-family="Helvetica,sans-Serif" font-size="10.00">atomic</text>
</a>
</g>
</g>
<!-- Node5&#45;&gt;Node7 -->
<g id="edge6" class="edge">
<title>Node5&#45;&gt;Node7</title>
<path fill="none" stroke="midnightblue" d="M129,-61.98C129,-53.58 129,-40.48 129,-29.66"/>
<polygon fill="midnightblue" stroke="midnightblue" points="132.5,-29.51 129,-19.51 125.5,-29.51 132.5,-29.51"/>
</g>
<!-- Node8&#45;&gt;Node9 -->
<g id="edge8" class="edge">
<title>Node8&#45;&gt;Node9</title>
<path fill="none" stroke="midnightblue" d="M323.35,-56.4C299.52,-46.42 267.85,-33.15 244.91,-23.53"/>
<polygon fill="midnightblue" stroke="midnightblue" points="246.24,-20.29 235.66,-19.66 243.53,-26.75 246.24,-20.29"/>
</g>
<!-- Node10 -->
<g id="node10" class="node">
<title>Node10</title>
<g id="a_node10"><a xlink:title=" ">
<polygon fill="none" stroke="#bfbfbf" points="357,-0.5 357,-19.5 413,-19.5 413,-0.5 357,-0.5"/>
<text text-anchor="middle" x="385" y="-7.5" font-family="Helvetica,sans-Serif" font-size="10.00">algorithm</text>
</a>
</g>
</g>
<!-- Node8&#45;&gt;Node10 -->
<g id="edge9" class="edge">
<title>Node8&#45;&gt;Node10</title>
<path fill="none" stroke="midnightblue" d="M363.64,-56.4C367.54,-48.11 372.5,-37.55 376.67,-28.71"/>
<polygon fill="midnightblue" stroke="midnightblue" points="379.83,-30.2 380.93,-19.66 373.5,-27.22 379.83,-30.2"/>
</g>
<!-- Node8&#45;&gt;Node11 -->
<g id="edge10" class="edge">
<title>Node8&#45;&gt;Node11</title>
<path fill="none" stroke="midnightblue" d="M345.39,-56.4C338.27,-47.75 329.12,-36.64 321.65,-27.58"/>
<polygon fill="midnightblue" stroke="midnightblue" points="324.19,-25.15 315.13,-19.66 318.79,-29.6 324.19,-25.15"/>
</g>
<!-- Node8&#45;&gt;Node12 -->
<g id="edge11" class="edge">
<title>Node8&#45;&gt;Node12</title>
<path fill="none" stroke="midnightblue" d="M379.28,-56.4C394.2,-46.95 413.78,-34.56 428.71,-25.11"/>
<polygon fill="midnightblue" stroke="midnightblue" points="430.74,-27.96 437.32,-19.66 427,-22.05 430.74,-27.96"/>
</g>
</g>
</svg>
