<?xml version="1.0" encoding="UTF-8" standalone="no"?>
<!DOCTYPE svg PUBLIC "-//W3C//DTD SVG 1.1//EN"
 "http://www.w3.org/Graphics/SVG/1.1/DTD/svg11.dtd">
<!-- Generated by graphviz version 2.44.0 ()
 -->
<!-- Title: include/yaclib/util/intrusive_node.hpp Pages: 1 -->
<!--zoomable 776 -->
<svg id="main" version="1.1" xmlns="http://www.w3.org/2000/svg" xmlns:xlink="http://www.w3.org/1999/xlink" xml:space="preserve" onload="init(evt)">
<style type="text/css"><![CDATA[
.edge:hover path { stroke: red; }
.edge:hover polygon { stroke: red; fill: red; }
]]></style>
<script type="text/javascript"><![CDATA[
var edges = document.getElementsByTagName('g');
if (edges && edges.length) {
  for (var i=0;i<edges.length;i++) {
    if (edges[i].id.substr(0,4)=='edge') {
      edges[i].setAttribute('class','edge');
    }
  }
}
]]></script>
        <defs>
                <circle id="rim" cx="0" cy="0" r="7"/>
                <circle id="rim2" cx="0" cy="0" r="3.5"/>
                <g id="zoomPlus">
                        <use xlink:href="#rim" fill="#404040">
                                <set attributeName="fill" to="#808080" begin="zoomplus.mouseover" end="zoomplus.mouseout"/>
                        </use>
                        <path d="M-4,0h8M0,-4v8" fill="none" stroke="white" stroke-width="1.5" pointer-events="none"/>
                </g>
                <g id="zoomMin">
                        <use xlink:href="#rim" fill="#404040">
                                <set attributeName="fill" to="#808080" begin="zoomminus.mouseover" end="zoomminus.mouseout"/>
                        </use>
                        <path d="M-4,0h8" fill="none" stroke="white" stroke-width="1.5" pointer-events="none"/>
                </g>
                <g id="dirArrow">
                        <path fill="none" stroke="white" stroke-width="1.5" d="M0,-3.0v7 M-2.5,-0.5L0,-3.0L2.5,-0.5"/>
                </g>
               <g id="resetDef">
                       <use xlink:href="#rim2" fill="#404040">
                               <set attributeName="fill" to="#808080" begin="reset.mouseover" end="reset.mouseout"/>
                       </use>
               </g>
        </defs>

<script type="text/javascript">
var viewWidth = 1774;
var viewHeight = 776;
var sectionId = 'dynsection-0';
</script>
<script xlink:href="svgpan.js"/>
<svg id="graph" class="graph">
<g id="viewport">
<title>include/yaclib/util/intrusive_node.hpp</title>
<!-- Node1 -->
<g id="node1" class="node">
<title>Node1</title>
<g id="a_node1"><a xlink:title=" ">
<polygon fill="#bfbfbf" stroke="black" points="1264.5,-737.5 1264.5,-767.5 1365.5,-767.5 1365.5,-737.5 1264.5,-737.5"/>
<text text-anchor="start" x="1272.5" y="-755.5" font-family="Helvetica,sans-Serif" font-size="10.00">include/yaclib/util</text>
<text text-anchor="middle" x="1315" y="-744.5" font-family="Helvetica,sans-Serif" font-size="10.00">/intrusive_node.hpp</text>
</a>
</g>
</g>
<!-- Node2 -->
<g id="node2" class="node">
<title>Node2</title>
<g id="a_node2"><a xlink:href="task_8hpp.html" target="_top" xlink:title=" ">
<polygon fill="none" stroke="black" points="1132.5,-670.5 1132.5,-700.5 1247.5,-700.5 1247.5,-670.5 1132.5,-670.5"/>
<text text-anchor="start" x="1140.5" y="-688.5" font-family="Helvetica,sans-Serif" font-size="10.00">include/yaclib/executor</text>
<text text-anchor="middle" x="1190" y="-677.5" font-family="Helvetica,sans-Serif" font-size="10.00">/task.hpp</text>
</a>
</g>
</g>
<!-- Node1&#45;&gt;Node2 -->
<g id="edge1" class="edge">
<title>Node1&#45;&gt;Node2</title>
<path fill="none" stroke="midnightblue" d="M1278.87,-732.71C1259.16,-722.46 1235.16,-709.98 1217.07,-700.58"/>
<polygon fill="midnightblue" stroke="midnightblue" points="1277.39,-735.89 1287.88,-737.4 1280.62,-729.68 1277.39,-735.89"/>
</g>
<!-- Node33 -->
<g id="node33" class="node">
<title>Node33</title>
<g id="a_node33"><a xlink:href="thread__factory_8hpp.html" target="_top" xlink:title=" ">
<polygon fill="none" stroke="black" points="1218.5,-603.5 1218.5,-633.5 1333.5,-633.5 1333.5,-603.5 1218.5,-603.5"/>
<text text-anchor="start" x="1226.5" y="-621.5" font-family="Helvetica,sans-Serif" font-size="10.00">include/yaclib/executor</text>
<text text-anchor="middle" x="1276" y="-610.5" font-family="Helvetica,sans-Serif" font-size="10.00">/thread_factory.hpp</text>
</a>
</g>
</g>
<!-- Node1&#45;&gt;Node33 -->
<g id="edge58" class="edge">
<title>Node1&#45;&gt;Node33</title>
<path fill="none" stroke="midnightblue" d="M1307.98,-727.75C1299.87,-700.29 1286.78,-655.99 1280.14,-633.52"/>
<polygon fill="midnightblue" stroke="midnightblue" points="1304.64,-728.78 1310.83,-737.37 1311.35,-726.79 1304.64,-728.78"/>
</g>
<!-- Node36 -->
<g id="node36" class="node">
<title>Node36</title>
<g id="a_node36"><a xlink:href="intrusive__list_8hpp.html" target="_top" xlink:title=" ">
<polygon fill="none" stroke="black" points="1352,-603.5 1352,-633.5 1438,-633.5 1438,-603.5 1352,-603.5"/>
<text text-anchor="start" x="1360" y="-621.5" font-family="Helvetica,sans-Serif" font-size="10.00">src/util/intrusive</text>
<text text-anchor="middle" x="1395" y="-610.5" font-family="Helvetica,sans-Serif" font-size="10.00">_list.hpp</text>
</a>
</g>
</g>
<!-- Node1&#45;&gt;Node36 -->
<g id="edge59" class="edge">
<title>Node1&#45;&gt;Node36</title>
<path fill="none" stroke="midnightblue" d="M1328.95,-728.48C1345.56,-701.07 1372.77,-656.19 1386.5,-633.52"/>
<polygon fill="midnightblue" stroke="midnightblue" points="1325.75,-727.01 1323.56,-737.37 1331.74,-730.64 1325.75,-727.01"/>
</g>
<!-- Node37 -->
<g id="node37" class="node">
<title>Node37</title>
<g id="a_node37"><a xlink:href="mpsc__stack_8hpp.html" target="_top" xlink:title=" ">
<polygon fill="none" stroke="black" points="1561,-609 1561,-628 1681,-628 1681,-609 1561,-609"/>
<text text-anchor="middle" x="1621" y="-616" font-family="Helvetica,sans-Serif" font-size="10.00">src/util/mpsc_stack.hpp</text>
</a>
</g>
</g>
<!-- Node1&#45;&gt;Node37 -->
<g id="edge63" class="edge">
<title>Node1&#45;&gt;Node37</title>
<path fill="none" stroke="midnightblue" d="M1356.85,-733.45C1423.62,-704.64 1551.76,-649.37 1601.02,-628.12"/>
<polygon fill="midnightblue" stroke="midnightblue" points="1355.25,-730.32 1347.46,-737.5 1358.03,-736.75 1355.25,-730.32"/>
</g>
<!-- Node3 -->
<g id="node3" class="node">
<title>Node3</title>
<g id="a_node3"><a xlink:href="base__core_8hpp.html" target="_top" xlink:title=" ">
<polygon fill="none" stroke="black" points="559.5,-469.5 559.5,-499.5 668.5,-499.5 668.5,-469.5 559.5,-469.5"/>
<text text-anchor="start" x="567.5" y="-487.5" font-family="Helvetica,sans-Serif" font-size="10.00">include/yaclib/async</text>
<text text-anchor="middle" x="614" y="-476.5" font-family="Helvetica,sans-Serif" font-size="10.00">/detail/base_core.hpp</text>
</a>
</g>
</g>
<!-- Node2&#45;&gt;Node3 -->
<g id="edge2" class="edge">
<title>Node2&#45;&gt;Node3</title>
<path fill="none" stroke="midnightblue" d="M1121.83,-678.82C990.28,-666.49 708.35,-632.9 640,-567 621.4,-549.06 616.07,-517.86 614.57,-499.71"/>
<polygon fill="midnightblue" stroke="midnightblue" points="1121.9,-682.34 1132.18,-679.78 1122.54,-675.37 1121.9,-682.34"/>
</g>
<!-- Node24 -->
<g id="node24" class="node">
<title>Node24</title>
<g id="a_node24"><a xlink:href="executor_8hpp.html" target="_top" xlink:title=" ">
<polygon fill="none" stroke="black" points="889.5,-603.5 889.5,-633.5 1004.5,-633.5 1004.5,-603.5 889.5,-603.5"/>
<text text-anchor="start" x="897.5" y="-621.5" font-family="Helvetica,sans-Serif" font-size="10.00">include/yaclib/executor</text>
<text text-anchor="middle" x="947" y="-610.5" font-family="Helvetica,sans-Serif" font-size="10.00">/executor.hpp</text>
</a>
</g>
</g>
<!-- Node2&#45;&gt;Node24 -->
<g id="edge33" class="edge">
<title>Node2&#45;&gt;Node24</title>
<path fill="none" stroke="midnightblue" d="M1127.75,-667.85C1088.14,-657.25 1037.39,-643.68 999.75,-633.61"/>
<polygon fill="midnightblue" stroke="midnightblue" points="1127.01,-671.27 1137.57,-670.48 1128.82,-664.51 1127.01,-671.27"/>
</g>
<!-- Node2&#45;&gt;Node33 -->
<g id="edge53" class="edge">
<title>Node2&#45;&gt;Node33</title>
<path fill="none" stroke="midnightblue" d="M1216.9,-664.17C1230.05,-654.23 1245.55,-642.51 1257.38,-633.58"/>
<polygon fill="midnightblue" stroke="midnightblue" points="1214.53,-661.57 1208.66,-670.4 1218.75,-667.16 1214.53,-661.57"/>
</g>
<!-- Node35 -->
<g id="node35" class="node">
<title>Node35</title>
<g id="a_node35"><a xlink:href="intrusive__list_8cpp.html" target="_top" xlink:title=" ">
<polygon fill="none" stroke="black" points="1237,-536.5 1237,-566.5 1323,-566.5 1323,-536.5 1237,-536.5"/>
<text text-anchor="start" x="1245" y="-554.5" font-family="Helvetica,sans-Serif" font-size="10.00">src/util/intrusive</text>
<text text-anchor="middle" x="1280" y="-543.5" font-family="Helvetica,sans-Serif" font-size="10.00">_list.cpp</text>
</a>
</g>
</g>
<!-- Node2&#45;&gt;Node35 -->
<g id="edge57" class="edge">
<title>Node2&#45;&gt;Node35</title>
<path fill="none" stroke="midnightblue" d="M1191.18,-659.97C1193.03,-642.77 1197.65,-619.93 1209,-603 1219.45,-587.42 1236.43,-575.09 1251.17,-566.51"/>
<polygon fill="midnightblue" stroke="midnightblue" points="1187.66,-660.08 1190.32,-670.34 1194.63,-660.66 1187.66,-660.08"/>
</g>
<!-- Node4 -->
<g id="node4" class="node">
<title>Node4</title>
<g id="a_node4"><a xlink:href="wait__impl_8hpp.html" target="_top" xlink:title=" ">
<polygon fill="none" stroke="black" points="298.5,-402.5 298.5,-432.5 403.5,-432.5 403.5,-402.5 298.5,-402.5"/>
<text text-anchor="start" x="306.5" y="-420.5" font-family="Helvetica,sans-Serif" font-size="10.00">include/yaclib/algo</text>
<text text-anchor="middle" x="351" y="-409.5" font-family="Helvetica,sans-Serif" font-size="10.00">/detail/wait_impl.hpp</text>
</a>
</g>
</g>
<!-- Node3&#45;&gt;Node4 -->
<g id="edge3" class="edge">
<title>Node3&#45;&gt;Node4</title>
<path fill="none" stroke="midnightblue" d="M549.26,-467.5C504.4,-456.41 445.44,-441.84 403.5,-431.48"/>
<polygon fill="midnightblue" stroke="midnightblue" points="548.64,-470.95 559.19,-469.95 550.32,-464.16 548.64,-470.95"/>
</g>
<!-- Node20 -->
<g id="node20" class="node">
<title>Node20</title>
<g id="a_node20"><a xlink:href="result__core_8hpp.html" target="_top" xlink:title=" ">
<polygon fill="none" stroke="black" points="558,-402.5 558,-432.5 670,-432.5 670,-402.5 558,-402.5"/>
<text text-anchor="start" x="566" y="-420.5" font-family="Helvetica,sans-Serif" font-size="10.00">include/yaclib/async</text>
<text text-anchor="middle" x="614" y="-409.5" font-family="Helvetica,sans-Serif" font-size="10.00">/detail/result_core.hpp</text>
</a>
</g>
</g>
<!-- Node3&#45;&gt;Node20 -->
<g id="edge25" class="edge">
<title>Node3&#45;&gt;Node20</title>
<path fill="none" stroke="midnightblue" d="M614,-459.11C614,-450.15 614,-440.32 614,-432.58"/>
<polygon fill="midnightblue" stroke="midnightblue" points="610.5,-459.4 614,-469.4 617.5,-459.4 610.5,-459.4"/>
</g>
<!-- Node23 -->
<g id="node23" class="node">
<title>Node23</title>
<g id="a_node23"><a xlink:href="base__core_8cpp.html" target="_top" xlink:title=" ">
<polygon fill="none" stroke="black" points="155.5,-408 155.5,-427 280.5,-427 280.5,-408 155.5,-408"/>
<text text-anchor="middle" x="218" y="-415" font-family="Helvetica,sans-Serif" font-size="10.00">src/async/base_core.cpp</text>
</a>
</g>
</g>
<!-- Node3&#45;&gt;Node23 -->
<g id="edge32" class="edge">
<title>Node3&#45;&gt;Node23</title>
<path fill="none" stroke="midnightblue" d="M549.03,-474.33C483.32,-464.83 378.89,-449.15 289,-433 278.97,-431.2 268.18,-429.08 258.11,-427.04"/>
<polygon fill="midnightblue" stroke="midnightblue" points="548.84,-477.84 559.24,-475.8 549.84,-470.91 548.84,-477.84"/>
</g>
<!-- Node5 -->
<g id="node5" class="node">
<title>Node5</title>
<g id="a_node5"><a xlink:href="wait_8hpp.html" target="_top" xlink:title=" ">
<polygon fill="none" stroke="black" points="360,-335.5 360,-365.5 456,-365.5 456,-335.5 360,-335.5"/>
<text text-anchor="start" x="368" y="-353.5" font-family="Helvetica,sans-Serif" font-size="10.00">include/yaclib/algo</text>
<text text-anchor="middle" x="408" y="-342.5" font-family="Helvetica,sans-Serif" font-size="10.00">/wait.hpp</text>
</a>
</g>
</g>
<!-- Node4&#45;&gt;Node5 -->
<g id="edge4" class="edge">
<title>Node4&#45;&gt;Node5</title>
<path fill="none" stroke="midnightblue" d="M370.09,-394.74C378.52,-385.12 388.19,-374.09 395.66,-365.58"/>
<polygon fill="midnightblue" stroke="midnightblue" points="367.33,-392.57 363.37,-402.4 372.59,-397.18 367.33,-392.57"/>
</g>
<!-- Node17 -->
<g id="node17" class="node">
<title>Node17</title>
<g id="a_node17"><a xlink:href="wait__for_8hpp.html" target="_top" xlink:title=" ">
<polygon fill="none" stroke="black" points="246,-335.5 246,-365.5 342,-365.5 342,-335.5 246,-335.5"/>
<text text-anchor="start" x="254" y="-353.5" font-family="Helvetica,sans-Serif" font-size="10.00">include/yaclib/algo</text>
<text text-anchor="middle" x="294" y="-342.5" font-family="Helvetica,sans-Serif" font-size="10.00">/wait_for.hpp</text>
</a>
</g>
</g>
<!-- Node4&#45;&gt;Node17 -->
<g id="edge22" class="edge">
<title>Node4&#45;&gt;Node17</title>
<path fill="none" stroke="midnightblue" d="M331.91,-394.74C323.48,-385.12 313.81,-374.09 306.34,-365.58"/>
<polygon fill="midnightblue" stroke="midnightblue" points="329.41,-397.18 338.63,-402.4 334.67,-392.57 329.41,-397.18"/>
</g>
<!-- Node18 -->
<g id="node18" class="node">
<title>Node18</title>
<g id="a_node18"><a xlink:href="wait__until_8hpp.html" target="_top" xlink:title=" ">
<polygon fill="none" stroke="black" points="0,-335.5 0,-365.5 96,-365.5 96,-335.5 0,-335.5"/>
<text text-anchor="start" x="8" y="-353.5" font-family="Helvetica,sans-Serif" font-size="10.00">include/yaclib/algo</text>
<text text-anchor="middle" x="48" y="-342.5" font-family="Helvetica,sans-Serif" font-size="10.00">/wait_until.hpp</text>
</a>
</g>
</g>
<!-- Node4&#45;&gt;Node18 -->
<g id="edge23" class="edge">
<title>Node4&#45;&gt;Node18</title>
<path fill="none" stroke="midnightblue" d="M288.44,-401.93C205.87,-384.47 183.28,-383.6 105,-366 102.11,-365.35 99.14,-364.66 96.16,-363.95"/>
<polygon fill="midnightblue" stroke="midnightblue" points="287.75,-405.36 298.26,-404.03 289.21,-398.52 287.75,-405.36"/>
</g>
<!-- Node19 -->
<g id="node19" class="node">
<title>Node19</title>
<g id="a_node19"><a xlink:href="wait__impl_8cpp.html" target="_top" xlink:title=" ">
<polygon fill="none" stroke="black" points="114.5,-341 114.5,-360 227.5,-360 227.5,-341 114.5,-341"/>
<text text-anchor="middle" x="171" y="-348" font-family="Helvetica,sans-Serif" font-size="10.00">src/algo/wait_impl.cpp</text>
</a>
</g>
</g>
<!-- Node4&#45;&gt;Node19 -->
<g id="edge24" class="edge">
<title>Node4&#45;&gt;Node19</title>
<path fill="none" stroke="midnightblue" d="M302.39,-398.95C267.43,-386.32 221.82,-369.85 194.56,-360.01"/>
<polygon fill="midnightblue" stroke="midnightblue" points="301.35,-402.29 311.94,-402.4 303.73,-395.71 301.35,-402.29"/>
</g>
<!-- Node6 -->
<g id="node6" class="node">
<title>Node6</title>
<g id="a_node6"><a xlink:href="future__impl_8hpp.html" target="_top" xlink:title=" ">
<polygon fill="none" stroke="black" points="514,-268.5 514,-298.5 626,-298.5 626,-268.5 514,-268.5"/>
<text text-anchor="start" x="522" y="-286.5" font-family="Helvetica,sans-Serif" font-size="10.00">include/yaclib/async</text>
<text text-anchor="middle" x="570" y="-275.5" font-family="Helvetica,sans-Serif" font-size="10.00">/detail/future_impl.hpp</text>
</a>
</g>
</g>
<!-- Node5&#45;&gt;Node6 -->
<g id="edge5" class="edge">
<title>Node5&#45;&gt;Node6</title>
<path fill="none" stroke="midnightblue" d="M452.75,-331.54C478.67,-321.14 510.84,-308.24 534.92,-298.58"/>
<polygon fill="midnightblue" stroke="midnightblue" points="451.13,-328.42 443.15,-335.4 453.74,-334.92 451.13,-328.42"/>
</g>
<!-- Node7 -->
<g id="node7" class="node">
<title>Node7</title>
<g id="a_node7"><a xlink:href="future_8hpp.html" target="_top" xlink:title=" ">
<polygon fill="none" stroke="black" points="600,-201.5 600,-231.5 704,-231.5 704,-201.5 600,-201.5"/>
<text text-anchor="start" x="608" y="-219.5" font-family="Helvetica,sans-Serif" font-size="10.00">include/yaclib/async</text>
<text text-anchor="middle" x="652" y="-208.5" font-family="Helvetica,sans-Serif" font-size="10.00">/future.hpp</text>
</a>
</g>
</g>
<!-- Node6&#45;&gt;Node7 -->
<g id="edge6" class="edge">
<title>Node6&#45;&gt;Node7</title>
<path fill="none" stroke="midnightblue" d="M595.65,-262.17C608.19,-252.23 622.97,-240.51 634.24,-231.58"/>
<polygon fill="midnightblue" stroke="midnightblue" points="593.46,-259.44 587.79,-268.4 597.8,-264.93 593.46,-259.44"/>
</g>
<!-- Node12 -->
<g id="node12" class="node">
<title>Node12</title>
<g id="a_node12"><a xlink:href="promise_8hpp.html" target="_top" xlink:title=" ">
<polygon fill="none" stroke="black" points="428,-134.5 428,-164.5 532,-164.5 532,-134.5 428,-134.5"/>
<text text-anchor="start" x="436" y="-152.5" font-family="Helvetica,sans-Serif" font-size="10.00">include/yaclib/async</text>
<text text-anchor="middle" x="480" y="-141.5" font-family="Helvetica,sans-Serif" font-size="10.00">/promise.hpp</text>
</a>
</g>
</g>
<!-- Node6&#45;&gt;Node12 -->
<g id="edge21" class="edge">
<title>Node6&#45;&gt;Node12</title>
<path fill="none" stroke="midnightblue" d="M554.55,-259.83C535.89,-232.47 505.08,-187.28 489.56,-164.52"/>
<polygon fill="midnightblue" stroke="midnightblue" points="551.84,-262.08 560.37,-268.37 557.63,-258.14 551.84,-262.08"/>
</g>
<!-- Node8 -->
<g id="node8" class="node">
<title>Node8</title>
<g id="a_node8"><a xlink:href="when__any_8hpp.html" target="_top" xlink:title=" ">
<polygon fill="none" stroke="black" points="540,-67.5 540,-97.5 636,-97.5 636,-67.5 540,-67.5"/>
<text text-anchor="start" x="548" y="-85.5" font-family="Helvetica,sans-Serif" font-size="10.00">include/yaclib/algo</text>
<text text-anchor="middle" x="588" y="-74.5" font-family="Helvetica,sans-Serif" font-size="10.00">/when_any.hpp</text>
</a>
</g>
</g>
<!-- Node7&#45;&gt;Node8 -->
<g id="edge7" class="edge">
<title>Node7&#45;&gt;Node8</title>
<path fill="none" stroke="midnightblue" d="M609.74,-196.08C597.59,-188.25 585.79,-177.96 579,-165 567.76,-143.57 575.42,-114.66 581.83,-97.66"/>
<polygon fill="midnightblue" stroke="midnightblue" points="608.21,-199.23 618.59,-201.34 611.79,-193.22 608.21,-199.23"/>
</g>
<!-- Node10 -->
<g id="node10" class="node">
<title>Node10</title>
<g id="a_node10"><a xlink:href="when__all_8hpp.html" target="_top" xlink:title=" ">
<polygon fill="none" stroke="black" points="696,-67.5 696,-97.5 792,-97.5 792,-67.5 696,-67.5"/>
<text text-anchor="start" x="704" y="-85.5" font-family="Helvetica,sans-Serif" font-size="10.00">include/yaclib/algo</text>
<text text-anchor="middle" x="744" y="-74.5" font-family="Helvetica,sans-Serif" font-size="10.00">/when_all.hpp</text>
</a>
</g>
</g>
<!-- Node7&#45;&gt;Node10 -->
<g id="edge9" class="edge">
<title>Node7&#45;&gt;Node10</title>
<path fill="none" stroke="midnightblue" d="M690.65,-196.28C703.31,-188.22 716.34,-177.73 725,-165 738.97,-144.46 742.76,-114.99 743.73,-97.69"/>
<polygon fill="midnightblue" stroke="midnightblue" points="688.78,-193.32 682.01,-201.46 692.38,-199.32 688.78,-193.32"/>
</g>
<!-- Node7&#45;&gt;Node12 -->
<g id="edge11" class="edge">
<title>Node7&#45;&gt;Node12</title>
<path fill="none" stroke="midnightblue" d="M599.5,-197.96C570.77,-187.48 536.19,-174.37 511.57,-164.58"/>
<polygon fill="midnightblue" stroke="midnightblue" points="598.41,-201.28 609,-201.4 600.79,-194.7 598.41,-201.28"/>
</g>
<!-- Node14 -->
<g id="node14" class="node">
<title>Node14</title>
<g id="a_node14"><a xlink:href="run_8hpp.html" target="_top" xlink:title=" ">
<polygon fill="none" stroke="black" points="772,-134.5 772,-164.5 876,-164.5 876,-134.5 772,-134.5"/>
<text text-anchor="start" x="780" y="-152.5" font-family="Helvetica,sans-Serif" font-size="10.00">include/yaclib/async</text>
<text text-anchor="middle" x="824" y="-141.5" font-family="Helvetica,sans-Serif" font-size="10.00">/run.hpp</text>
</a>
</g>
</g>
<!-- Node7&#45;&gt;Node14 -->
<g id="edge16" class="edge">
<title>Node7&#45;&gt;Node14</title>
<path fill="none" stroke="midnightblue" d="M698.79,-197.82C726.43,-187.37 760.96,-174.32 786.75,-164.58"/>
<polygon fill="midnightblue" stroke="midnightblue" points="697.44,-194.59 689.32,-201.4 699.91,-201.13 697.44,-194.59"/>
</g>
<!-- Node16 -->
<g id="node16" class="node">
<title>Node16</title>
<g id="a_node16"><a xlink:href="future__impl_8cpp.html" target="_top" xlink:title=" ">
<polygon fill="none" stroke="black" points="588,-140 588,-159 716,-159 716,-140 588,-140"/>
<text text-anchor="middle" x="652" y="-147" font-family="Helvetica,sans-Serif" font-size="10.00">src/async/future_impl.cpp</text>
</a>
</g>
</g>
<!-- Node7&#45;&gt;Node16 -->
<g id="edge20" class="edge">
<title>Node7&#45;&gt;Node16</title>
<path fill="none" stroke="midnightblue" d="M652,-191.25C652,-180.02 652,-167.38 652,-159.19"/>
<polygon fill="midnightblue" stroke="midnightblue" points="648.5,-191.4 652,-201.4 655.5,-191.4 648.5,-191.4"/>
</g>
<!-- Node9 -->
<g id="node9" class="node">
<title>Node9</title>
<g id="a_node9"><a xlink:href="when__any_8cpp.html" target="_top" xlink:title=" ">
<polygon fill="none" stroke="black" points="731.5,-0.5 731.5,-30.5 832.5,-30.5 832.5,-0.5 731.5,-0.5"/>
<text text-anchor="start" x="739.5" y="-18.5" font-family="Helvetica,sans-Serif" font-size="10.00">test/example/async</text>
<text text-anchor="middle" x="782" y="-7.5" font-family="Helvetica,sans-Serif" font-size="10.00">/when_any.cpp</text>
</a>
</g>
</g>
<!-- Node8&#45;&gt;Node9 -->
<g id="edge8" class="edge">
<title>Node8&#45;&gt;Node9</title>
<path fill="none" stroke="midnightblue" d="M639.96,-64.09C671.27,-53.6 710.64,-40.41 739.99,-30.58"/>
<polygon fill="midnightblue" stroke="midnightblue" points="638.47,-60.9 630.1,-67.4 640.69,-67.54 638.47,-60.9"/>
</g>
<!-- Node11 -->
<g id="node11" class="node">
<title>Node11</title>
<g id="a_node11"><a xlink:href="when__all_8cpp.html" target="_top" xlink:title=" ">
<polygon fill="none" stroke="black" points="850.5,-0.5 850.5,-30.5 951.5,-30.5 951.5,-0.5 850.5,-0.5"/>
<text text-anchor="start" x="858.5" y="-18.5" font-family="Helvetica,sans-Serif" font-size="10.00">test/example/async</text>
<text text-anchor="middle" x="901" y="-7.5" font-family="Helvetica,sans-Serif" font-size="10.00">/when_all.cpp</text>
</a>
</g>
</g>
<!-- Node10&#45;&gt;Node11 -->
<g id="edge10" class="edge">
<title>Node10&#45;&gt;Node11</title>
<path fill="none" stroke="midnightblue" d="M787.37,-63.54C812.49,-53.14 843.66,-40.24 867,-30.58"/>
<polygon fill="midnightblue" stroke="midnightblue" points="785.97,-60.34 778.07,-67.4 788.64,-66.8 785.97,-60.34"/>
</g>
<!-- Node12&#45;&gt;Node7 -->
<g id="edge14" class="edge">
<title>Node12&#45;&gt;Node7</title>
<path fill="none" stroke="midnightblue" d="M532.42,-168.02C561.13,-178.48 595.72,-191.6 620.36,-201.4"/>
<polygon fill="midnightblue" stroke="midnightblue" points="533.52,-164.69 522.92,-164.58 531.13,-171.27 533.52,-164.69"/>
</g>
<!-- Node12&#45;&gt;Node8 -->
<g id="edge12" class="edge">
<title>Node12&#45;&gt;Node8</title>
<path fill="none" stroke="midnightblue" d="M512.37,-129.02C529.18,-118.9 549.34,-106.77 564.61,-97.58"/>
<polygon fill="midnightblue" stroke="midnightblue" points="510.2,-126.24 503.43,-134.4 513.81,-132.24 510.2,-126.24"/>
</g>
<!-- Node12&#45;&gt;Node10 -->
<g id="edge13" class="edge">
<title>Node12&#45;&gt;Node10</title>
<path fill="none" stroke="midnightblue" d="M541.93,-133.25C588.97,-121.67 652.72,-105.97 695.95,-95.33"/>
<polygon fill="midnightblue" stroke="midnightblue" points="541.03,-129.87 532.16,-135.66 542.7,-136.67 541.03,-129.87"/>
</g>
<!-- Node13 -->
<g id="node13" class="node">
<title>Node13</title>
<g id="a_node13"><a xlink:href="promise__impl_8cpp.html" target="_top" xlink:title=" ">
<polygon fill="none" stroke="black" points="384.5,-73 384.5,-92 521.5,-92 521.5,-73 384.5,-73"/>
<text text-anchor="middle" x="453" y="-80" font-family="Helvetica,sans-Serif" font-size="10.00">src/async/promise_impl.cpp</text>
</a>
</g>
</g>
<!-- Node12&#45;&gt;Node13 -->
<g id="edge15" class="edge">
<title>Node12&#45;&gt;Node13</title>
<path fill="none" stroke="midnightblue" d="M470.21,-124.94C465.48,-113.54 460.08,-100.55 456.61,-92.19"/>
<polygon fill="midnightblue" stroke="midnightblue" points="467.07,-126.5 474.14,-134.4 473.54,-123.82 467.07,-126.5"/>
</g>
<!-- Node14&#45;&gt;Node9 -->
<g id="edge19" class="edge">
<title>Node14&#45;&gt;Node9</title>
<path fill="none" stroke="midnightblue" d="M817.79,-124.44C813.43,-108.13 807.29,-86.13 801,-67 796.91,-54.54 791.61,-40.61 787.65,-30.54"/>
<polygon fill="midnightblue" stroke="midnightblue" points="814.44,-125.48 820.37,-134.26 821.21,-123.69 814.44,-125.48"/>
</g>
<!-- Node14&#45;&gt;Node11 -->
<g id="edge17" class="edge">
<title>Node14&#45;&gt;Node11</title>
<path fill="none" stroke="midnightblue" d="M837.43,-125.48C853.42,-98.07 879.6,-53.19 892.82,-30.52"/>
<polygon fill="midnightblue" stroke="midnightblue" points="834.26,-123.97 832.24,-134.37 840.3,-127.5 834.26,-123.97"/>
</g>
<!-- Node15 -->
<g id="node15" class="node">
<title>Node15</title>
<g id="a_node15"><a xlink:href="simple_8cpp.html" target="_top" xlink:title=" ">
<polygon fill="none" stroke="black" points="890.5,-67.5 890.5,-97.5 991.5,-97.5 991.5,-67.5 890.5,-67.5"/>
<text text-anchor="start" x="898.5" y="-85.5" font-family="Helvetica,sans-Serif" font-size="10.00">test/example/async</text>
<text text-anchor="middle" x="941" y="-74.5" font-family="Helvetica,sans-Serif" font-size="10.00">/simple.cpp</text>
</a>
</g>
</g>
<!-- Node14&#45;&gt;Node15 -->
<g id="edge18" class="edge">
<title>Node14&#45;&gt;Node15</title>
<path fill="none" stroke="midnightblue" d="M858.32,-129.44C876.67,-119.24 898.88,-106.9 915.66,-97.58"/>
<polygon fill="midnightblue" stroke="midnightblue" points="856.43,-126.48 849.39,-134.4 859.83,-132.6 856.43,-126.48"/>
</g>
<!-- Node20&#45;&gt;Node7 -->
<g id="edge29" class="edge">
<title>Node20&#45;&gt;Node7</title>
<path fill="none" stroke="midnightblue" d="M680.1,-412.85C713.05,-407.28 750.22,-394.52 771,-366 808.07,-315.14 724.07,-257.74 678.66,-231.7"/>
<polygon fill="midnightblue" stroke="midnightblue" points="679.4,-409.42 670.03,-414.36 680.44,-416.34 679.4,-409.42"/>
</g>
<!-- Node20&#45;&gt;Node12 -->
<g id="edge30" class="edge">
<title>Node20&#45;&gt;Node12</title>
<path fill="none" stroke="midnightblue" d="M548.25,-399.69C530.97,-392.14 514.08,-381.35 503,-366 457.64,-303.15 470.39,-201.91 477.1,-164.76"/>
<polygon fill="midnightblue" stroke="midnightblue" points="547.27,-403.07 557.86,-403.55 549.89,-396.57 547.27,-403.07"/>
</g>
<!-- Node21 -->
<g id="node21" class="node">
<title>Node21</title>
<g id="a_node21"><a xlink:href="core_8hpp.html" target="_top" xlink:title=" ">
<polygon fill="none" stroke="black" points="658,-335.5 658,-365.5 762,-365.5 762,-335.5 658,-335.5"/>
<text text-anchor="start" x="666" y="-353.5" font-family="Helvetica,sans-Serif" font-size="10.00">include/yaclib/async</text>
<text text-anchor="middle" x="710" y="-342.5" font-family="Helvetica,sans-Serif" font-size="10.00">/detail/core.hpp</text>
</a>
</g>
</g>
<!-- Node20&#45;&gt;Node21 -->
<g id="edge26" class="edge">
<title>Node20&#45;&gt;Node21</title>
<path fill="none" stroke="midnightblue" d="M643.19,-396.73C658.05,-386.68 675.76,-374.68 689.21,-365.58"/>
<polygon fill="midnightblue" stroke="midnightblue" points="641.15,-393.89 634.83,-402.4 645.07,-399.69 641.15,-393.89"/>
</g>
<!-- Node22 -->
<g id="node22" class="node">
<title>Node22</title>
<g id="a_node22"><a xlink:href="result__core_8cpp.html" target="_top" xlink:title=" ">
<polygon fill="none" stroke="black" points="512,-341 512,-360 640,-360 640,-341 512,-341"/>
<text text-anchor="middle" x="576" y="-348" font-family="Helvetica,sans-Serif" font-size="10.00">src/async/result_core.cpp</text>
</a>
</g>
</g>
<!-- Node20&#45;&gt;Node22 -->
<g id="edge31" class="edge">
<title>Node20&#45;&gt;Node22</title>
<path fill="none" stroke="midnightblue" d="M600.63,-393.63C593.87,-382.07 586.06,-368.71 581.08,-360.19"/>
<polygon fill="midnightblue" stroke="midnightblue" points="597.69,-395.53 605.75,-402.4 603.73,-392 597.69,-395.53"/>
</g>
<!-- Node21&#45;&gt;Node6 -->
<g id="edge27" class="edge">
<title>Node21&#45;&gt;Node6</title>
<path fill="none" stroke="midnightblue" d="M670.43,-331.13C648.19,-320.8 620.85,-308.11 600.32,-298.58"/>
<polygon fill="midnightblue" stroke="midnightblue" points="669.08,-334.36 679.62,-335.4 672.03,-328.01 669.08,-334.36"/>
</g>
<!-- Node21&#45;&gt;Node14 -->
<g id="edge28" class="edge">
<title>Node21&#45;&gt;Node14</title>
<path fill="none" stroke="midnightblue" d="M723.28,-326.33C747.1,-284.74 796.44,-198.61 815.88,-164.68"/>
<polygon fill="midnightblue" stroke="midnightblue" points="720.13,-324.77 718.2,-335.19 726.21,-328.25 720.13,-324.77"/>
</g>
<!-- Node24&#45;&gt;Node3 -->
<g id="edge34" class="edge">
<title>Node24&#45;&gt;Node3</title>
<path fill="none" stroke="midnightblue" d="M879.44,-610.63C810.3,-602.61 708.39,-587.75 675,-567 648.58,-550.58 629.65,-518.22 620.41,-499.59"/>
<polygon fill="midnightblue" stroke="midnightblue" points="879.06,-614.11 889.39,-611.76 879.86,-607.15 879.06,-614.11"/>
</g>
<!-- Node24&#45;&gt;Node7 -->
<g id="edge35" class="edge">
<title>Node24&#45;&gt;Node7</title>
<path fill="none" stroke="midnightblue" d="M894.99,-599.09C879.29,-591.31 863.25,-580.79 852,-567 828.13,-537.74 828,-523.26 828,-485.5 828,-485.5 828,-485.5 828,-349.5 828,-286.29 754.44,-249.64 702.43,-231.63"/>
<polygon fill="midnightblue" stroke="midnightblue" points="893.62,-602.31 904.16,-603.35 896.57,-595.96 893.62,-602.31"/>
</g>
<!-- Node24&#45;&gt;Node14 -->
<g id="edge36" class="edge">
<title>Node24&#45;&gt;Node14</title>
<path fill="none" stroke="midnightblue" d="M917.96,-597.16C907.87,-588.83 897.27,-578.45 890,-567 869.75,-535.13 866,-523.26 866,-485.5 866,-485.5 866,-485.5 866,-282.5 866,-237.77 843.83,-188.36 831.7,-164.68"/>
<polygon fill="midnightblue" stroke="midnightblue" points="915.84,-599.95 925.87,-603.38 920.17,-594.45 915.84,-599.95"/>
</g>
<!-- Node24&#45;&gt;Node15 -->
<g id="edge52" class="edge">
<title>Node24&#45;&gt;Node15</title>
<path fill="none" stroke="midnightblue" d="M934.55,-594.36C921.85,-568.57 904,-525.25 904,-485.5 904,-485.5 904,-485.5 904,-215.5 904,-171.23 923.53,-121.61 934.21,-97.78"/>
<polygon fill="midnightblue" stroke="midnightblue" points="931.46,-596.02 939.11,-603.34 937.7,-592.84 931.46,-596.02"/>
</g>
<!-- Node25 -->
<g id="node25" class="node">
<title>Node25</title>
<g id="a_node25"><a xlink:href="inline_8hpp.html" target="_top" xlink:title=" ">
<polygon fill="none" stroke="black" points="684.5,-536.5 684.5,-566.5 799.5,-566.5 799.5,-536.5 684.5,-536.5"/>
<text text-anchor="start" x="692.5" y="-554.5" font-family="Helvetica,sans-Serif" font-size="10.00">include/yaclib/executor</text>
<text text-anchor="middle" x="742" y="-543.5" font-family="Helvetica,sans-Serif" font-size="10.00">/inline.hpp</text>
</a>
</g>
</g>
<!-- Node24&#45;&gt;Node25 -->
<g id="edge37" class="edge">
<title>Node24&#45;&gt;Node25</title>
<path fill="none" stroke="midnightblue" d="M893.21,-600.44C859.98,-589.91 817.85,-576.55 786.5,-566.61"/>
<polygon fill="midnightblue" stroke="midnightblue" points="892.18,-603.79 902.77,-603.48 894.3,-597.12 892.18,-603.79"/>
</g>
<!-- Node27 -->
<g id="node27" class="node">
<title>Node27</title>
<g id="a_node27"><a xlink:href="serial_8hpp.html" target="_top" xlink:title=" ">
<polygon fill="none" stroke="black" points="932.5,-536.5 932.5,-566.5 1047.5,-566.5 1047.5,-536.5 932.5,-536.5"/>
<text text-anchor="start" x="940.5" y="-554.5" font-family="Helvetica,sans-Serif" font-size="10.00">include/yaclib/executor</text>
<text text-anchor="middle" x="990" y="-543.5" font-family="Helvetica,sans-Serif" font-size="10.00">/serial.hpp</text>
</a>
</g>
</g>
<!-- Node24&#45;&gt;Node27 -->
<g id="edge40" class="edge">
<title>Node24&#45;&gt;Node27</title>
<path fill="none" stroke="midnightblue" d="M961.97,-594.87C968.2,-585.46 975.23,-574.83 980.69,-566.58"/>
<polygon fill="midnightblue" stroke="midnightblue" points="958.93,-593.12 956.33,-603.4 964.77,-596.99 958.93,-593.12"/>
</g>
<!-- Node29 -->
<g id="node29" class="node">
<title>Node29</title>
<g id="a_node29"><a xlink:href="thread__pool_8hpp.html" target="_top" xlink:title=" ">
<polygon fill="none" stroke="black" points="1065.5,-536.5 1065.5,-566.5 1180.5,-566.5 1180.5,-536.5 1065.5,-536.5"/>
<text text-anchor="start" x="1073.5" y="-554.5" font-family="Helvetica,sans-Serif" font-size="10.00">include/yaclib/executor</text>
<text text-anchor="middle" x="1123" y="-543.5" font-family="Helvetica,sans-Serif" font-size="10.00">/thread_pool.hpp</text>
</a>
</g>
</g>
<!-- Node24&#45;&gt;Node29 -->
<g id="edge43" class="edge">
<title>Node24&#45;&gt;Node29</title>
<path fill="none" stroke="midnightblue" d="M994.88,-599.82C1023.17,-589.37 1058.49,-576.32 1084.89,-566.58"/>
<polygon fill="midnightblue" stroke="midnightblue" points="993.36,-596.65 985.19,-603.4 995.78,-603.21 993.36,-596.65"/>
</g>
<!-- Node30 -->
<g id="node30" class="node">
<title>Node30</title>
<g id="a_node30"><a xlink:href="src_2executor_2thread__pool_8cpp.html" target="_top" xlink:title=" ">
<polygon fill="none" stroke="black" points="1381,-469.5 1381,-499.5 1481,-499.5 1481,-469.5 1381,-469.5"/>
<text text-anchor="start" x="1389" y="-487.5" font-family="Helvetica,sans-Serif" font-size="10.00">src/executor/thread</text>
<text text-anchor="middle" x="1431" y="-476.5" font-family="Helvetica,sans-Serif" font-size="10.00">_pool.cpp</text>
</a>
</g>
</g>
<!-- Node24&#45;&gt;Node30 -->
<g id="edge51" class="edge">
<title>Node24&#45;&gt;Node30</title>
<path fill="none" stroke="midnightblue" d="M1014.7,-611.86C1064.76,-605.71 1133.56,-593.01 1189,-567 1209.05,-557.6 1208.14,-545.78 1228,-536 1277.03,-511.85 1338.57,-498.64 1380.97,-491.85"/>
<polygon fill="midnightblue" stroke="midnightblue" points="1014.15,-608.4 1004.63,-613.04 1014.97,-615.35 1014.15,-608.4"/>
</g>
<!-- Node32 -->
<g id="node32" class="node">
<title>Node32</title>
<g id="a_node32"><a xlink:href="src_2executor_2serial_8cpp.html" target="_top" xlink:title=" ">
<polygon fill="none" stroke="black" points="1497,-542 1497,-561 1611,-561 1611,-542 1497,-542"/>
<text text-anchor="middle" x="1554" y="-549" font-family="Helvetica,sans-Serif" font-size="10.00">src/executor/serial.cpp</text>
</a>
</g>
</g>
<!-- Node24&#45;&gt;Node32 -->
<g id="edge50" class="edge">
<title>Node24&#45;&gt;Node32</title>
<path fill="none" stroke="midnightblue" d="M1015.02,-611.51C1111.78,-602.79 1294.67,-585.62 1450,-567 1465.2,-565.18 1481.63,-562.99 1496.83,-560.87"/>
<polygon fill="midnightblue" stroke="midnightblue" points="1014.44,-608.05 1004.79,-612.43 1015.06,-615.02 1014.44,-608.05"/>
</g>
<!-- Node25&#45;&gt;Node3 -->
<g id="edge38" class="edge">
<title>Node25&#45;&gt;Node3</title>
<path fill="none" stroke="midnightblue" d="M705.28,-531.85C685.04,-521.58 660.33,-509.03 641.72,-499.58"/>
<polygon fill="midnightblue" stroke="midnightblue" points="703.72,-534.99 714.23,-536.4 706.89,-528.75 703.72,-534.99"/>
</g>
<!-- Node26 -->
<g id="node26" class="node">
<title>Node26</title>
<g id="a_node26"><a xlink:href="inline_8cpp.html" target="_top" xlink:title=" ">
<polygon fill="none" stroke="black" points="686.5,-475 686.5,-494 799.5,-494 799.5,-475 686.5,-475"/>
<text text-anchor="middle" x="743" y="-482" font-family="Helvetica,sans-Serif" font-size="10.00">src/executor/inline.cpp</text>
</a>
</g>
</g>
<!-- Node25&#45;&gt;Node26 -->
<g id="edge39" class="edge">
<title>Node25&#45;&gt;Node26</title>
<path fill="none" stroke="midnightblue" d="M742.37,-526.25C742.55,-515.02 742.74,-502.38 742.87,-494.19"/>
<polygon fill="midnightblue" stroke="midnightblue" points="738.87,-526.34 742.22,-536.4 745.87,-526.45 738.87,-526.34"/>
</g>
<!-- Node27&#45;&gt;Node15 -->
<g id="edge41" class="edge">
<title>Node27&#45;&gt;Node15</title>
<path fill="none" stroke="midnightblue" d="M975.15,-527.91C970.08,-519.43 964.75,-509.53 961,-500 947.37,-465.39 942,-455.69 942,-418.5 942,-418.5 942,-418.5 942,-215.5 942,-172.64 941.47,-121.97 941.18,-97.76"/>
<polygon fill="midnightblue" stroke="midnightblue" points="972.21,-529.82 980.45,-536.48 978.16,-526.13 972.21,-529.82"/>
</g>
<!-- Node28 -->
<g id="node28" class="node">
<title>Node28</title>
<g id="a_node28"><a xlink:href="test_2example_2executor_2serial_8cpp.html" target="_top" xlink:title=" ">
<polygon fill="none" stroke="black" points="970,-469.5 970,-499.5 1082,-499.5 1082,-469.5 970,-469.5"/>
<text text-anchor="start" x="978" y="-487.5" font-family="Helvetica,sans-Serif" font-size="10.00">test/example/executor</text>
<text text-anchor="middle" x="1026" y="-476.5" font-family="Helvetica,sans-Serif" font-size="10.00">/serial.cpp</text>
</a>
</g>
</g>
<!-- Node27&#45;&gt;Node28 -->
<g id="edge42" class="edge">
<title>Node27&#45;&gt;Node28</title>
<path fill="none" stroke="midnightblue" d="M1002.7,-527.58C1007.87,-518.24 1013.68,-507.75 1018.2,-499.58"/>
<polygon fill="midnightblue" stroke="midnightblue" points="999.59,-525.95 997.81,-536.4 1005.72,-529.34 999.59,-525.95"/>
</g>
<!-- Node29&#45;&gt;Node9 -->
<g id="edge47" class="edge">
<title>Node29&#45;&gt;Node9</title>
<path fill="none" stroke="midnightblue" d="M1119.14,-526.06C1115.31,-499.62 1110,-456.18 1110,-418.5 1110,-418.5 1110,-418.5 1110,-148.5 1110,-18.04 967.97,-60.97 841,-31 838.23,-30.35 835.38,-29.67 832.52,-28.98"/>
<polygon fill="midnightblue" stroke="midnightblue" points="1115.73,-526.92 1120.68,-536.29 1122.66,-525.88 1115.73,-526.92"/>
</g>
<!-- Node29&#45;&gt;Node11 -->
<g id="edge45" class="edge">
<title>Node29&#45;&gt;Node11</title>
<path fill="none" stroke="midnightblue" d="M1141.36,-528.02C1159.96,-502.91 1186,-460.3 1186,-418.5 1186,-418.5 1186,-418.5 1186,-148.5 1186,-46.4 1033.52,-23.04 951.62,-17.85"/>
<polygon fill="midnightblue" stroke="midnightblue" points="1138.44,-526.07 1135.15,-536.14 1144,-530.32 1138.44,-526.07"/>
</g>
<!-- Node29&#45;&gt;Node15 -->
<g id="edge46" class="edge">
<title>Node29&#45;&gt;Node15</title>
<path fill="none" stroke="midnightblue" d="M1130.32,-526.6C1137.7,-500.35 1148,-456.83 1148,-418.5 1148,-418.5 1148,-418.5 1148,-349.5 1148,-230.71 1017.84,-133.05 963.94,-97.71"/>
<polygon fill="midnightblue" stroke="midnightblue" points="1126.9,-525.83 1127.47,-536.41 1133.62,-527.78 1126.9,-525.83"/>
</g>
<!-- Node29&#45;&gt;Node28 -->
<g id="edge48" class="edge">
<title>Node29&#45;&gt;Node28</title>
<path fill="none" stroke="midnightblue" d="M1093.5,-530.73C1078.49,-520.68 1060.6,-508.68 1047.01,-499.58"/>
<polygon fill="midnightblue" stroke="midnightblue" points="1091.7,-533.74 1101.95,-536.4 1095.59,-527.92 1091.7,-533.74"/>
</g>
<!-- Node29&#45;&gt;Node30 -->
<g id="edge44" class="edge">
<title>Node29&#45;&gt;Node30</title>
<path fill="none" stroke="midnightblue" d="M1190.64,-536.22C1248.04,-524.11 1329.09,-507.01 1380.84,-496.08"/>
<polygon fill="midnightblue" stroke="midnightblue" points="1189.63,-532.86 1180.57,-538.35 1191.08,-539.71 1189.63,-532.86"/>
</g>
<!-- Node31 -->
<g id="node31" class="node">
<title>Node31</title>
<g id="a_node31"><a xlink:href="test_2example_2executor_2thread__pool_8cpp.html" target="_top" xlink:title=" ">
<polygon fill="none" stroke="black" points="1214,-469.5 1214,-499.5 1326,-499.5 1326,-469.5 1214,-469.5"/>
<text text-anchor="start" x="1222" y="-487.5" font-family="Helvetica,sans-Serif" font-size="10.00">test/example/executor</text>
<text text-anchor="middle" x="1270" y="-476.5" font-family="Helvetica,sans-Serif" font-size="10.00">/thread_pool.cpp</text>
</a>
</g>
</g>
<!-- Node29&#45;&gt;Node31 -->
<g id="edge49" class="edge">
<title>Node29&#45;&gt;Node31</title>
<path fill="none" stroke="midnightblue" d="M1164.23,-532.27C1187.64,-521.92 1216.51,-509.15 1238.17,-499.58"/>
<polygon fill="midnightblue" stroke="midnightblue" points="1162.63,-529.15 1154.9,-536.4 1165.46,-535.55 1162.63,-529.15"/>
</g>
<!-- Node33&#45;&gt;Node29 -->
<g id="edge54" class="edge">
<title>Node33&#45;&gt;Node29</title>
<path fill="none" stroke="midnightblue" d="M1233.41,-599.41C1208.98,-589.03 1178.78,-576.2 1156.13,-566.58"/>
<polygon fill="midnightblue" stroke="midnightblue" points="1232.23,-602.71 1242.8,-603.4 1234.97,-596.26 1232.23,-602.71"/>
</g>
<!-- Node34 -->
<g id="node34" class="node">
<title>Node34</title>
<g id="a_node34"><a xlink:href="thread__factory_8cpp.html" target="_top" xlink:title=" ">
<polygon fill="none" stroke="black" points="1341,-536.5 1341,-566.5 1441,-566.5 1441,-536.5 1341,-536.5"/>
<text text-anchor="start" x="1349" y="-554.5" font-family="Helvetica,sans-Serif" font-size="10.00">src/executor/thread</text>
<text text-anchor="middle" x="1391" y="-543.5" font-family="Helvetica,sans-Serif" font-size="10.00">_factory.cpp</text>
</a>
</g>
</g>
<!-- Node33&#45;&gt;Node34 -->
<g id="edge55" class="edge">
<title>Node33&#45;&gt;Node34</title>
<path fill="none" stroke="midnightblue" d="M1309.98,-598.3C1327.97,-588.12 1349.68,-575.85 1366.1,-566.58"/>
<polygon fill="midnightblue" stroke="midnightblue" points="1307.94,-595.43 1300.95,-603.4 1311.38,-601.52 1307.94,-595.43"/>
</g>
<!-- Node33&#45;&gt;Node35 -->
<g id="edge56" class="edge">
<title>Node33&#45;&gt;Node35</title>
<path fill="none" stroke="midnightblue" d="M1277.48,-593.4C1278.04,-584.37 1278.65,-574.41 1279.13,-566.58"/>
<polygon fill="midnightblue" stroke="midnightblue" points="1273.99,-593.2 1276.87,-603.4 1280.98,-593.63 1273.99,-593.2"/>
</g>
<!-- Node36&#45;&gt;Node30 -->
<g id="edge61" class="edge">
<title>Node36&#45;&gt;Node30</title>
<path fill="none" stroke="midnightblue" d="M1425.8,-597.13C1435.4,-589.01 1444.83,-578.78 1450,-567 1459.88,-544.52 1448.43,-516.2 1439.51,-499.55"/>
<polygon fill="midnightblue" stroke="midnightblue" points="1423.47,-594.5 1417.78,-603.44 1427.8,-600 1423.47,-594.5"/>
</g>
<!-- Node36&#45;&gt;Node34 -->
<g id="edge60" class="edge">
<title>Node36&#45;&gt;Node34</title>
<path fill="none" stroke="midnightblue" d="M1393.52,-593.4C1392.96,-584.37 1392.35,-574.41 1391.87,-566.58"/>
<polygon fill="midnightblue" stroke="midnightblue" points="1390.02,-593.63 1394.13,-603.4 1397.01,-593.2 1390.02,-593.63"/>
</g>
<!-- Node36&#45;&gt;Node35 -->
<g id="edge62" class="edge">
<title>Node36&#45;&gt;Node35</title>
<path fill="none" stroke="midnightblue" d="M1361.02,-598.3C1343.03,-588.12 1321.32,-575.85 1304.9,-566.58"/>
<polygon fill="midnightblue" stroke="midnightblue" points="1359.62,-601.52 1370.05,-603.4 1363.06,-595.43 1359.62,-601.52"/>
</g>
<!-- Node37&#45;&gt;Node30 -->
<g id="edge65" class="edge">
<title>Node37&#45;&gt;Node30</title>
<path fill="none" stroke="midnightblue" d="M1674.05,-606.53C1724.06,-593.82 1787.3,-570.17 1758,-536 1722.95,-495.12 1563.82,-487.03 1481.18,-485.63"/>
<polygon fill="midnightblue" stroke="midnightblue" points="1673.13,-603.15 1664.25,-608.92 1674.8,-609.95 1673.13,-603.15"/>
</g>
<!-- Node37&#45;&gt;Node32 -->
<g id="edge64" class="edge">
<title>Node37&#45;&gt;Node32</title>
<path fill="none" stroke="midnightblue" d="M1604.5,-601.5C1591.36,-588.75 1573.48,-571.39 1562.89,-561.13"/>
<polygon fill="midnightblue" stroke="midnightblue" points="1602.35,-604.28 1611.96,-608.73 1607.22,-599.26 1602.35,-604.28"/>
</g>
<!-- Node38 -->
<g id="node38" class="node">
<title>Node38</title>
<g id="a_node38"><a xlink:href="mpsc__stack_8cpp.html" target="_top" xlink:title=" ">
<polygon fill="none" stroke="black" points="1629,-542 1629,-561 1749,-561 1749,-542 1629,-542"/>
<text text-anchor="middle" x="1689" y="-549" font-family="Helvetica,sans-Serif" font-size="10.00">src/util/mpsc_stack.cpp</text>
</a>
</g>
</g>
<!-- Node37&#45;&gt;Node38 -->
<g id="edge66" class="edge">
<title>Node37&#45;&gt;Node38</title>
<path fill="none" stroke="midnightblue" d="M1637.74,-601.5C1651.08,-588.75 1669.23,-571.39 1679.97,-561.13"/>
<polygon fill="midnightblue" stroke="midnightblue" points="1634.98,-599.29 1630.17,-608.73 1639.82,-604.35 1634.98,-599.29"/>
</g>
</g>
</svg>
        <g id="navigator" transform="translate(0 0)" fill="#404254">
                <rect fill="#f2f5e9" fill-opacity="0.5" stroke="#606060" stroke-width=".5" x="0" y="0" width="60" height="60"/>
                <use id="zoomplus" xlink:href="#zoomPlus" x="17" y="9" onmousedown="handleZoom(evt,'in')"/>
                <use id="zoomminus" xlink:href="#zoomMin" x="42" y="9" onmousedown="handleZoom(evt,'out')"/>
                <use id="reset" xlink:href="#resetDef" x="30" y="36" onmousedown="handleReset()"/>
                <g id="arrowUp" xlink:href="#dirArrow" transform="translate(30 24)" onmousedown="handlePan(0,-1)">
                  <use xlink:href="#rim" fill="#404040">
                        <set attributeName="fill" to="#808080" begin="arrowUp.mouseover" end="arrowUp.mouseout"/>
                  </use>
                  <path fill="none" stroke="white" stroke-width="1.5" d="M0,-3.0v7 M-2.5,-0.5L0,-3.0L2.5,-0.5"/>
                </g>
                <g id="arrowRight" xlink:href="#dirArrow" transform="rotate(90) translate(36 -43)" onmousedown="handlePan(1,0)">
                  <use xlink:href="#rim" fill="#404040">
                        <set attributeName="fill" to="#808080" begin="arrowRight.mouseover" end="arrowRight.mouseout"/>
                  </use>
                  <path fill="none" stroke="white" stroke-width="1.5" d="M0,-3.0v7 M-2.5,-0.5L0,-3.0L2.5,-0.5"/>
                </g>
                <g id="arrowDown" xlink:href="#dirArrow" transform="rotate(180) translate(-30 -48)" onmousedown="handlePan(0,1)">
                  <use xlink:href="#rim" fill="#404040">
                        <set attributeName="fill" to="#808080" begin="arrowDown.mouseover" end="arrowDown.mouseout"/>
                  </use>
                  <path fill="none" stroke="white" stroke-width="1.5" d="M0,-3.0v7 M-2.5,-0.5L0,-3.0L2.5,-0.5"/>
                </g>
                <g id="arrowLeft" xlink:href="#dirArrow" transform="rotate(270) translate(-36 17)" onmousedown="handlePan(-1,0)">
                  <use xlink:href="#rim" fill="#404040">
                        <set attributeName="fill" to="#808080" begin="arrowLeft.mouseover" end="arrowLeft.mouseout"/>
                  </use>
                  <path fill="none" stroke="white" stroke-width="1.5" d="M0,-3.0v7 M-2.5,-0.5L0,-3.0L2.5,-0.5"/>
                </g>
        </g>
        <svg viewBox="0 0 15 15" width="100%" height="30px" preserveAspectRatio="xMaxYMin meet">
         <g id="arrow_out" transform="scale(0.3 0.3)">
          <a xlink:href="intrusive__node_8hpp__dep__incl_org.svg" target="_base">
           <rect id="button" ry="5" rx="5" y="6" x="6" height="38" width="38"
                fill="#f2f5e9" fill-opacity="0.5" stroke="#606060" stroke-width="1.0"/>
           <path id="arrow"
             d="M 11.500037,31.436501 C 11.940474,20.09759 22.043105,11.32322 32.158766,21.979434 L 37.068811,17.246167 C 37.068811,17.246167 37.088388,32 37.088388,32 L 22.160133,31.978069 C 22.160133,31.978069 26.997745,27.140456 26.997745,27.140456 C 18.528582,18.264221 13.291696,25.230495 11.500037,31.436501 z"
             style="fill:#404040;"/>
          </a>
         </g>
        </svg>
</svg>
