<?xml version="1.0" encoding="UTF-8" standalone="no"?>
<!DOCTYPE svg PUBLIC "-//W3C//DTD SVG 1.1//EN"
 "http://www.w3.org/Graphics/SVG/1.1/DTD/svg11.dtd">
<!-- Generated by graphviz version 2.44.0 ()
 -->
<!-- Title: include/yaclib/util/intrusive_ptr.hpp Pages: 1 -->
<!--zoomable 843 -->
<svg id="main" version="1.1" xmlns="http://www.w3.org/2000/svg" xmlns:xlink="http://www.w3.org/1999/xlink" xml:space="preserve" onload="init(evt)">
<style type="text/css"><![CDATA[
.edge:hover path { stroke: red; }
.edge:hover polygon { stroke: red; fill: red; }
]]></style>
<script type="text/javascript"><![CDATA[
var edges = document.getElementsByTagName('g');
if (edges && edges.length) {
  for (var i=0;i<edges.length;i++) {
    if (edges[i].id.substr(0,4)=='edge') {
      edges[i].setAttribute('class','edge');
    }
  }
}
]]></script>
        <defs>
                <circle id="rim" cx="0" cy="0" r="7"/>
                <circle id="rim2" cx="0" cy="0" r="3.5"/>
                <g id="zoomPlus">
                        <use xlink:href="#rim" fill="#404040">
                                <set attributeName="fill" to="#808080" begin="zoomplus.mouseover" end="zoomplus.mouseout"/>
                        </use>
                        <path d="M-4,0h8M0,-4v8" fill="none" stroke="white" stroke-width="1.5" pointer-events="none"/>
                </g>
                <g id="zoomMin">
                        <use xlink:href="#rim" fill="#404040">
                                <set attributeName="fill" to="#808080" begin="zoomminus.mouseover" end="zoomminus.mouseout"/>
                        </use>
                        <path d="M-4,0h8" fill="none" stroke="white" stroke-width="1.5" pointer-events="none"/>
                </g>
                <g id="dirArrow">
                        <path fill="none" stroke="white" stroke-width="1.5" d="M0,-3.0v7 M-2.5,-0.5L0,-3.0L2.5,-0.5"/>
                </g>
               <g id="resetDef">
                       <use xlink:href="#rim2" fill="#404040">
                               <set attributeName="fill" to="#808080" begin="reset.mouseover" end="reset.mouseout"/>
                       </use>
               </g>
        </defs>

<script type="text/javascript">
var viewWidth = 1395;
var viewHeight = 843;
var sectionId = 'dynsection-1';
</script>
<script xlink:href="svgpan.js"/>
<svg id="graph" class="graph">
<g id="viewport">
<title>include/yaclib/util/intrusive_ptr.hpp</title>
<!-- Node1 -->
<g id="node1" class="node">
<title>Node1</title>
<g id="a_node1"><a xlink:title=" ">
<polygon fill="#bfbfbf" stroke="black" points="720.6,-804.5 720.6,-834.5 811.6,-834.5 811.6,-804.5 720.6,-804.5"/>
<text text-anchor="start" x="728.6" y="-822.5" font-family="Helvetica,sans-Serif" font-size="10.00">include/yaclib/util</text>
<text text-anchor="middle" x="766.1" y="-811.5" font-family="Helvetica,sans-Serif" font-size="10.00">/intrusive_ptr.hpp</text>
</a>
</g>
</g>
<!-- Node2 -->
<g id="node2" class="node">
<title>Node2</title>
<g id="a_node2"><a xlink:href="base__core_8hpp.html" target="_top" xlink:title=" ">
<polygon fill="none" stroke="black" points="325.6,-469.5 325.6,-499.5 434.6,-499.5 434.6,-469.5 325.6,-469.5"/>
<text text-anchor="start" x="333.6" y="-487.5" font-family="Helvetica,sans-Serif" font-size="10.00">include/yaclib/async</text>
<text text-anchor="middle" x="380.1" y="-476.5" font-family="Helvetica,sans-Serif" font-size="10.00">/detail/base_core.hpp</text>
</a>
</g>
</g>
<!-- Node1&#45;&gt;Node2 -->
<g id="edge1" class="edge">
<title>Node1&#45;&gt;Node2</title>
<path fill="none" stroke="midnightblue" d="M710.29,-812.95C595.18,-799.97 342.1,-762.74 342.1,-686.5 342.1,-686.5 342.1,-686.5 342.1,-617.5 342.1,-573.14 362.16,-523.56 373.13,-499.76"/>
<polygon fill="midnightblue" stroke="midnightblue" points="710,-816.44 720.33,-814.06 710.77,-809.49 710,-816.44"/>
</g>
<!-- Node23 -->
<g id="node23" class="node">
<title>Node23</title>
<g id="a_node23"><a xlink:href="executor_8hpp.html" target="_top" xlink:title=" ">
<polygon fill="none" stroke="black" points="751.6,-603.5 751.6,-633.5 866.6,-633.5 866.6,-603.5 751.6,-603.5"/>
<text text-anchor="start" x="759.6" y="-621.5" font-family="Helvetica,sans-Serif" font-size="10.00">include/yaclib/executor</text>
<text text-anchor="middle" x="809.1" y="-610.5" font-family="Helvetica,sans-Serif" font-size="10.00">/executor.hpp</text>
</a>
</g>
</g>
<!-- Node1&#45;&gt;Node23 -->
<g id="edge32" class="edge">
<title>Node1&#45;&gt;Node23</title>
<path fill="none" stroke="midnightblue" d="M766.88,-793.97C768.35,-764.12 772.64,-712.46 785.1,-670 788.88,-657.15 795.56,-643.48 800.91,-633.6"/>
<polygon fill="midnightblue" stroke="midnightblue" points="763.37,-794.14 766.44,-804.28 770.36,-794.43 763.37,-794.14"/>
</g>
<!-- Node32 -->
<g id="node32" class="node">
<title>Node32</title>
<g id="a_node32"><a xlink:href="func_8hpp.html" target="_top" xlink:title=" ">
<polygon fill="none" stroke="black" points="800.6,-737.5 800.6,-767.5 891.6,-767.5 891.6,-737.5 800.6,-737.5"/>
<text text-anchor="start" x="808.6" y="-755.5" font-family="Helvetica,sans-Serif" font-size="10.00">include/yaclib/util</text>
<text text-anchor="middle" x="846.1" y="-744.5" font-family="Helvetica,sans-Serif" font-size="10.00">/func.hpp</text>
</a>
</g>
</g>
<!-- Node1&#45;&gt;Node32 -->
<g id="edge52" class="edge">
<title>Node1&#45;&gt;Node32</title>
<path fill="none" stroke="midnightblue" d="M791.48,-797.88C803.64,-788.01 817.88,-776.43 828.78,-767.58"/>
<polygon fill="midnightblue" stroke="midnightblue" points="789.02,-795.37 783.46,-804.4 793.43,-800.81 789.02,-795.37"/>
</g>
<!-- Node3 -->
<g id="node3" class="node">
<title>Node3</title>
<g id="a_node3"><a xlink:href="wait__impl_8hpp.html" target="_top" xlink:title=" ">
<polygon fill="none" stroke="black" points="451.6,-402.5 451.6,-432.5 556.6,-432.5 556.6,-402.5 451.6,-402.5"/>
<text text-anchor="start" x="459.6" y="-420.5" font-family="Helvetica,sans-Serif" font-size="10.00">include/yaclib/algo</text>
<text text-anchor="middle" x="504.1" y="-409.5" font-family="Helvetica,sans-Serif" font-size="10.00">/detail/wait_impl.hpp</text>
</a>
</g>
</g>
<!-- Node2&#45;&gt;Node3 -->
<g id="edge2" class="edge">
<title>Node2&#45;&gt;Node3</title>
<path fill="none" stroke="midnightblue" d="M415.94,-464.71C435.5,-454.46 459.31,-441.98 477.25,-432.58"/>
<polygon fill="midnightblue" stroke="midnightblue" points="414.24,-461.65 407.01,-469.4 417.49,-467.85 414.24,-461.65"/>
</g>
<!-- Node19 -->
<g id="node19" class="node">
<title>Node19</title>
<g id="a_node19"><a xlink:href="result__core_8hpp.html" target="_top" xlink:title=" ">
<polygon fill="none" stroke="black" points="119.1,-402.5 119.1,-432.5 231.1,-432.5 231.1,-402.5 119.1,-402.5"/>
<text text-anchor="start" x="127.1" y="-420.5" font-family="Helvetica,sans-Serif" font-size="10.00">include/yaclib/async</text>
<text text-anchor="middle" x="175.1" y="-409.5" font-family="Helvetica,sans-Serif" font-size="10.00">/detail/result_core.hpp</text>
</a>
</g>
</g>
<!-- Node2&#45;&gt;Node19 -->
<g id="edge24" class="edge">
<title>Node2&#45;&gt;Node19</title>
<path fill="none" stroke="midnightblue" d="M326.31,-466.44C293.08,-455.91 250.95,-442.55 219.61,-432.61"/>
<polygon fill="midnightblue" stroke="midnightblue" points="325.28,-469.79 335.87,-469.48 327.4,-463.12 325.28,-469.79"/>
</g>
<!-- Node22 -->
<g id="node22" class="node">
<title>Node22</title>
<g id="a_node22"><a xlink:href="base__core_8cpp.html" target="_top" xlink:title=" ">
<polygon fill="none" stroke="black" points="308.6,-408 308.6,-427 433.6,-427 433.6,-408 308.6,-408"/>
<text text-anchor="middle" x="371.1" y="-415" font-family="Helvetica,sans-Serif" font-size="10.00">src/async/base_core.cpp</text>
</a>
</g>
</g>
<!-- Node2&#45;&gt;Node22 -->
<g id="edge31" class="edge">
<title>Node2&#45;&gt;Node22</title>
<path fill="none" stroke="midnightblue" d="M376.75,-459.25C375.19,-448.02 373.44,-435.38 372.31,-427.19"/>
<polygon fill="midnightblue" stroke="midnightblue" points="373.31,-459.97 378.15,-469.4 380.25,-459.01 373.31,-459.97"/>
</g>
<!-- Node4 -->
<g id="node4" class="node">
<title>Node4</title>
<g id="a_node4"><a xlink:href="wait_8hpp.html" target="_top" xlink:title=" ">
<polygon fill="none" stroke="black" points="325.1,-335.5 325.1,-365.5 421.1,-365.5 421.1,-335.5 325.1,-335.5"/>
<text text-anchor="start" x="333.1" y="-353.5" font-family="Helvetica,sans-Serif" font-size="10.00">include/yaclib/algo</text>
<text text-anchor="middle" x="373.1" y="-342.5" font-family="Helvetica,sans-Serif" font-size="10.00">/wait.hpp</text>
</a>
</g>
</g>
<!-- Node3&#45;&gt;Node4 -->
<g id="edge3" class="edge">
<title>Node3&#45;&gt;Node4</title>
<path fill="none" stroke="midnightblue" d="M466.52,-397.85C445.81,-387.58 420.52,-375.03 401.47,-365.58"/>
<polygon fill="midnightblue" stroke="midnightblue" points="465.17,-401.09 475.68,-402.4 468.28,-394.82 465.17,-401.09"/>
</g>
<!-- Node16 -->
<g id="node16" class="node">
<title>Node16</title>
<g id="a_node16"><a xlink:href="wait__for_8hpp.html" target="_top" xlink:title=" ">
<polygon fill="none" stroke="black" points="571.1,-335.5 571.1,-365.5 667.1,-365.5 667.1,-335.5 571.1,-335.5"/>
<text text-anchor="start" x="579.1" y="-353.5" font-family="Helvetica,sans-Serif" font-size="10.00">include/yaclib/algo</text>
<text text-anchor="middle" x="619.1" y="-342.5" font-family="Helvetica,sans-Serif" font-size="10.00">/wait_for.hpp</text>
</a>
</g>
</g>
<!-- Node3&#45;&gt;Node16 -->
<g id="edge21" class="edge">
<title>Node3&#45;&gt;Node16</title>
<path fill="none" stroke="midnightblue" d="M538.08,-397.3C556.08,-387.12 577.78,-374.85 594.2,-365.58"/>
<polygon fill="midnightblue" stroke="midnightblue" points="536.04,-394.43 529.06,-402.4 539.48,-400.52 536.04,-394.43"/>
</g>
<!-- Node17 -->
<g id="node17" class="node">
<title>Node17</title>
<g id="a_node17"><a xlink:href="wait__until_8hpp.html" target="_top" xlink:title=" ">
<polygon fill="none" stroke="black" points="685.1,-335.5 685.1,-365.5 781.1,-365.5 781.1,-335.5 685.1,-335.5"/>
<text text-anchor="start" x="693.1" y="-353.5" font-family="Helvetica,sans-Serif" font-size="10.00">include/yaclib/algo</text>
<text text-anchor="middle" x="733.1" y="-342.5" font-family="Helvetica,sans-Serif" font-size="10.00">/wait_until.hpp</text>
</a>
</g>
</g>
<!-- Node3&#45;&gt;Node17 -->
<g id="edge22" class="edge">
<title>Node3&#45;&gt;Node17</title>
<path fill="none" stroke="midnightblue" d="M563.38,-399.68C601.18,-388.95 649.54,-375.22 684.96,-365.16"/>
<polygon fill="midnightblue" stroke="midnightblue" points="562.18,-396.38 553.51,-402.48 564.09,-403.11 562.18,-396.38"/>
</g>
<!-- Node18 -->
<g id="node18" class="node">
<title>Node18</title>
<g id="a_node18"><a xlink:href="wait__impl_8cpp.html" target="_top" xlink:title=" ">
<polygon fill="none" stroke="black" points="439.6,-341 439.6,-360 552.6,-360 552.6,-341 439.6,-341"/>
<text text-anchor="middle" x="496.1" y="-348" font-family="Helvetica,sans-Serif" font-size="10.00">src/algo/wait_impl.cpp</text>
</a>
</g>
</g>
<!-- Node3&#45;&gt;Node18 -->
<g id="edge23" class="edge">
<title>Node3&#45;&gt;Node18</title>
<path fill="none" stroke="midnightblue" d="M501.12,-392.25C499.74,-381.02 498.18,-368.38 497.17,-360.19"/>
<polygon fill="midnightblue" stroke="midnightblue" points="497.67,-392.9 502.37,-402.4 504.62,-392.04 497.67,-392.9"/>
</g>
<!-- Node5 -->
<g id="node5" class="node">
<title>Node5</title>
<g id="a_node5"><a xlink:href="future__impl_8hpp.html" target="_top" xlink:title=" ">
<polygon fill="none" stroke="black" points="260.1,-268.5 260.1,-298.5 372.1,-298.5 372.1,-268.5 260.1,-268.5"/>
<text text-anchor="start" x="268.1" y="-286.5" font-family="Helvetica,sans-Serif" font-size="10.00">include/yaclib/async</text>
<text text-anchor="middle" x="316.1" y="-275.5" font-family="Helvetica,sans-Serif" font-size="10.00">/detail/future_impl.hpp</text>
</a>
</g>
</g>
<!-- Node4&#45;&gt;Node5 -->
<g id="edge4" class="edge">
<title>Node4&#45;&gt;Node5</title>
<path fill="none" stroke="midnightblue" d="M354.02,-327.74C345.58,-318.12 335.91,-307.09 328.45,-298.58"/>
<polygon fill="midnightblue" stroke="midnightblue" points="351.51,-330.18 360.74,-335.4 356.77,-325.57 351.51,-330.18"/>
</g>
<!-- Node6 -->
<g id="node6" class="node">
<title>Node6</title>
<g id="a_node6"><a xlink:href="future_8hpp.html" target="_top" xlink:title=" ">
<polygon fill="none" stroke="black" points="306.1,-201.5 306.1,-231.5 410.1,-231.5 410.1,-201.5 306.1,-201.5"/>
<text text-anchor="start" x="314.1" y="-219.5" font-family="Helvetica,sans-Serif" font-size="10.00">include/yaclib/async</text>
<text text-anchor="middle" x="358.1" y="-208.5" font-family="Helvetica,sans-Serif" font-size="10.00">/future.hpp</text>
</a>
</g>
</g>
<!-- Node5&#45;&gt;Node6 -->
<g id="edge5" class="edge">
<title>Node5&#45;&gt;Node6</title>
<path fill="none" stroke="midnightblue" d="M330.73,-259.87C336.81,-250.46 343.67,-239.83 349.01,-231.58"/>
<polygon fill="midnightblue" stroke="midnightblue" points="327.7,-258.1 325.22,-268.4 333.58,-261.9 327.7,-258.1"/>
</g>
<!-- Node11 -->
<g id="node11" class="node">
<title>Node11</title>
<g id="a_node11"><a xlink:href="promise_8hpp.html" target="_top" xlink:title=" ">
<polygon fill="none" stroke="black" points="226.1,-134.5 226.1,-164.5 330.1,-164.5 330.1,-134.5 226.1,-134.5"/>
<text text-anchor="start" x="234.1" y="-152.5" font-family="Helvetica,sans-Serif" font-size="10.00">include/yaclib/async</text>
<text text-anchor="middle" x="278.1" y="-141.5" font-family="Helvetica,sans-Serif" font-size="10.00">/promise.hpp</text>
</a>
</g>
</g>
<!-- Node5&#45;&gt;Node11 -->
<g id="edge20" class="edge">
<title>Node5&#45;&gt;Node11</title>
<path fill="none" stroke="midnightblue" d="M306.38,-258.6C303.18,-250.27 299.77,-240.79 297.1,-232 290.06,-208.78 284.12,-181.17 280.84,-164.78"/>
<polygon fill="midnightblue" stroke="midnightblue" points="303.19,-260.06 310.11,-268.09 309.71,-257.5 303.19,-260.06"/>
</g>
<!-- Node7 -->
<g id="node7" class="node">
<title>Node7</title>
<g id="a_node7"><a xlink:href="when__any_8hpp.html" target="_top" xlink:title=" ">
<polygon fill="none" stroke="black" points="338.1,-67.5 338.1,-97.5 434.1,-97.5 434.1,-67.5 338.1,-67.5"/>
<text text-anchor="start" x="346.1" y="-85.5" font-family="Helvetica,sans-Serif" font-size="10.00">include/yaclib/algo</text>
<text text-anchor="middle" x="386.1" y="-74.5" font-family="Helvetica,sans-Serif" font-size="10.00">/when_any.hpp</text>
</a>
</g>
</g>
<!-- Node6&#45;&gt;Node7 -->
<g id="edge6" class="edge">
<title>Node6&#45;&gt;Node7</title>
<path fill="none" stroke="midnightblue" d="M363.22,-191.39C369.05,-163.9 378.38,-119.89 383.13,-97.52"/>
<polygon fill="midnightblue" stroke="midnightblue" points="359.75,-190.87 361.1,-201.37 366.6,-192.32 359.75,-190.87"/>
</g>
<!-- Node9 -->
<g id="node9" class="node">
<title>Node9</title>
<g id="a_node9"><a xlink:href="when__all_8hpp.html" target="_top" xlink:title=" ">
<polygon fill="none" stroke="black" points="494.1,-67.5 494.1,-97.5 590.1,-97.5 590.1,-67.5 494.1,-67.5"/>
<text text-anchor="start" x="502.1" y="-85.5" font-family="Helvetica,sans-Serif" font-size="10.00">include/yaclib/algo</text>
<text text-anchor="middle" x="542.1" y="-74.5" font-family="Helvetica,sans-Serif" font-size="10.00">/when_all.hpp</text>
</a>
</g>
</g>
<!-- Node6&#45;&gt;Node9 -->
<g id="edge8" class="edge">
<title>Node6&#45;&gt;Node9</title>
<path fill="none" stroke="midnightblue" d="M420.33,-211.37C455.17,-205.8 496.77,-193.19 523.1,-165 540.36,-146.53 542.94,-115.51 542.82,-97.54"/>
<polygon fill="midnightblue" stroke="midnightblue" points="419.63,-207.93 410.23,-212.82 420.63,-214.86 419.63,-207.93"/>
</g>
<!-- Node6&#45;&gt;Node11 -->
<g id="edge10" class="edge">
<title>Node6&#45;&gt;Node11</title>
<path fill="none" stroke="midnightblue" d="M326.77,-195.17C313.78,-185.23 299.58,-173.51 289.75,-164.58"/>
<polygon fill="midnightblue" stroke="midnightblue" points="324.97,-198.19 335.07,-201.4 329.17,-192.59 324.97,-198.19"/>
</g>
<!-- Node13 -->
<g id="node13" class="node">
<title>Node13</title>
<g id="a_node13"><a xlink:href="run_8hpp.html" target="_top" xlink:title=" ">
<polygon fill="none" stroke="black" points="702.1,-134.5 702.1,-164.5 806.1,-164.5 806.1,-134.5 702.1,-134.5"/>
<text text-anchor="start" x="710.1" y="-152.5" font-family="Helvetica,sans-Serif" font-size="10.00">include/yaclib/async</text>
<text text-anchor="middle" x="754.1" y="-141.5" font-family="Helvetica,sans-Serif" font-size="10.00">/run.hpp</text>
</a>
</g>
</g>
<!-- Node6&#45;&gt;Node13 -->
<g id="edge15" class="edge">
<title>Node6&#45;&gt;Node13</title>
<path fill="none" stroke="midnightblue" d="M420.4,-205.27C498,-192.54 629.19,-171 701.81,-159.08"/>
<polygon fill="midnightblue" stroke="midnightblue" points="419.58,-201.86 410.28,-206.94 420.72,-208.77 419.58,-201.86"/>
</g>
<!-- Node15 -->
<g id="node15" class="node">
<title>Node15</title>
<g id="a_node15"><a xlink:href="future__impl_8cpp.html" target="_top" xlink:title=" ">
<polygon fill="none" stroke="black" points="386.1,-140 386.1,-159 514.1,-159 514.1,-140 386.1,-140"/>
<text text-anchor="middle" x="450.1" y="-147" font-family="Helvetica,sans-Serif" font-size="10.00">src/async/future_impl.cpp</text>
</a>
</g>
</g>
<!-- Node6&#45;&gt;Node15 -->
<g id="edge19" class="edge">
<title>Node6&#45;&gt;Node15</title>
<path fill="none" stroke="midnightblue" d="M386.69,-195.31C403.96,-183.1 425.08,-168.18 438.06,-159.01"/>
<polygon fill="midnightblue" stroke="midnightblue" points="384.21,-192.77 378.07,-201.4 388.25,-198.48 384.21,-192.77"/>
</g>
<!-- Node8 -->
<g id="node8" class="node">
<title>Node8</title>
<g id="a_node8"><a xlink:href="when__any_8cpp.html" target="_top" xlink:title=" ">
<polygon fill="none" stroke="black" points="639.6,-0.5 639.6,-30.5 740.6,-30.5 740.6,-0.5 639.6,-0.5"/>
<text text-anchor="start" x="647.6" y="-18.5" font-family="Helvetica,sans-Serif" font-size="10.00">test/example/async</text>
<text text-anchor="middle" x="690.1" y="-7.5" font-family="Helvetica,sans-Serif" font-size="10.00">/when_any.cpp</text>
</a>
</g>
</g>
<!-- Node7&#45;&gt;Node8 -->
<g id="edge7" class="edge">
<title>Node7&#45;&gt;Node8</title>
<path fill="none" stroke="midnightblue" d="M444.12,-69.09C500.59,-57.02 585.53,-38.86 639.37,-27.35"/>
<polygon fill="midnightblue" stroke="midnightblue" points="443.32,-65.69 434.27,-71.2 444.78,-72.53 443.32,-65.69"/>
</g>
<!-- Node10 -->
<g id="node10" class="node">
<title>Node10</title>
<g id="a_node10"><a xlink:href="when__all_8cpp.html" target="_top" xlink:title=" ">
<polygon fill="none" stroke="black" points="758.6,-0.5 758.6,-30.5 859.6,-30.5 859.6,-0.5 758.6,-0.5"/>
<text text-anchor="start" x="766.6" y="-18.5" font-family="Helvetica,sans-Serif" font-size="10.00">test/example/async</text>
<text text-anchor="middle" x="809.1" y="-7.5" font-family="Helvetica,sans-Serif" font-size="10.00">/when_all.cpp</text>
</a>
</g>
</g>
<!-- Node9&#45;&gt;Node10 -->
<g id="edge9" class="edge">
<title>Node9&#45;&gt;Node10</title>
<path fill="none" stroke="midnightblue" d="M599.91,-67.43C647.09,-55.94 713.09,-39.87 758.27,-28.88"/>
<polygon fill="midnightblue" stroke="midnightblue" points="599.03,-64.04 590.15,-69.8 600.69,-70.84 599.03,-64.04"/>
</g>
<!-- Node11&#45;&gt;Node6 -->
<g id="edge13" class="edge">
<title>Node11&#45;&gt;Node6</title>
<path fill="none" stroke="midnightblue" d="M309.4,-170.8C322.38,-180.74 336.59,-192.45 346.42,-201.4"/>
<polygon fill="midnightblue" stroke="midnightblue" points="311.2,-167.78 301.1,-164.58 307,-173.38 311.2,-167.78"/>
</g>
<!-- Node11&#45;&gt;Node7 -->
<g id="edge11" class="edge">
<title>Node11&#45;&gt;Node7</title>
<path fill="none" stroke="midnightblue" d="M310.48,-129.02C327.29,-118.9 347.44,-106.77 362.72,-97.58"/>
<polygon fill="midnightblue" stroke="midnightblue" points="308.3,-126.24 301.54,-134.4 311.91,-132.24 308.3,-126.24"/>
</g>
<!-- Node11&#45;&gt;Node9 -->
<g id="edge12" class="edge">
<title>Node11&#45;&gt;Node9</title>
<path fill="none" stroke="midnightblue" d="M340.03,-133.25C387.07,-121.67 450.83,-105.97 494.05,-95.33"/>
<polygon fill="midnightblue" stroke="midnightblue" points="339.13,-129.87 330.26,-135.66 340.81,-136.67 339.13,-129.87"/>
</g>
<!-- Node12 -->
<g id="node12" class="node">
<title>Node12</title>
<g id="a_node12"><a xlink:href="promise__impl_8cpp.html" target="_top" xlink:title=" ">
<polygon fill="none" stroke="black" points="182.6,-73 182.6,-92 319.6,-92 319.6,-73 182.6,-73"/>
<text text-anchor="middle" x="251.1" y="-80" font-family="Helvetica,sans-Serif" font-size="10.00">src/async/promise_impl.cpp</text>
</a>
</g>
</g>
<!-- Node11&#45;&gt;Node12 -->
<g id="edge14" class="edge">
<title>Node11&#45;&gt;Node12</title>
<path fill="none" stroke="midnightblue" d="M268.32,-124.94C263.58,-113.54 258.18,-100.55 254.72,-92.19"/>
<polygon fill="midnightblue" stroke="midnightblue" points="265.18,-126.5 272.25,-134.4 271.64,-123.82 265.18,-126.5"/>
</g>
<!-- Node13&#45;&gt;Node8 -->
<g id="edge18" class="edge">
<title>Node13&#45;&gt;Node8</title>
<path fill="none" stroke="midnightblue" d="M742.77,-125.12C729.46,-97.68 707.84,-53.09 696.9,-30.52"/>
<polygon fill="midnightblue" stroke="midnightblue" points="739.74,-126.9 747.25,-134.37 746.04,-123.85 739.74,-126.9"/>
</g>
<!-- Node13&#45;&gt;Node10 -->
<g id="edge16" class="edge">
<title>Node13&#45;&gt;Node10</title>
<path fill="none" stroke="midnightblue" d="M763.85,-125.12C775.28,-97.68 793.86,-53.09 803.26,-30.52"/>
<polygon fill="midnightblue" stroke="midnightblue" points="760.61,-123.8 759.99,-134.37 767.07,-126.49 760.61,-123.8"/>
</g>
<!-- Node14 -->
<g id="node14" class="node">
<title>Node14</title>
<g id="a_node14"><a xlink:href="simple_8cpp.html" target="_top" xlink:title=" ">
<polygon fill="none" stroke="black" points="818.6,-67.5 818.6,-97.5 919.6,-97.5 919.6,-67.5 818.6,-67.5"/>
<text text-anchor="start" x="826.6" y="-85.5" font-family="Helvetica,sans-Serif" font-size="10.00">test/example/async</text>
<text text-anchor="middle" x="869.1" y="-74.5" font-family="Helvetica,sans-Serif" font-size="10.00">/simple.cpp</text>
</a>
</g>
</g>
<!-- Node13&#45;&gt;Node14 -->
<g id="edge17" class="edge">
<title>Node13&#45;&gt;Node14</title>
<path fill="none" stroke="midnightblue" d="M788.08,-129.3C806.08,-119.12 827.78,-106.85 844.2,-97.58"/>
<polygon fill="midnightblue" stroke="midnightblue" points="786.04,-126.43 779.06,-134.4 789.48,-132.52 786.04,-126.43"/>
</g>
<!-- Node19&#45;&gt;Node6 -->
<g id="edge28" class="edge">
<title>Node19&#45;&gt;Node6</title>
<path fill="none" stroke="midnightblue" d="M177.7,-392.16C180.22,-375.39 185.04,-352.99 194.1,-335 211.7,-300.09 220.06,-291.77 251.1,-268 271.33,-252.52 297.06,-240.18 318.23,-231.58"/>
<polygon fill="midnightblue" stroke="midnightblue" points="174.21,-391.88 176.37,-402.26 181.15,-392.8 174.21,-391.88"/>
</g>
<!-- Node19&#45;&gt;Node11 -->
<g id="edge29" class="edge">
<title>Node19&#45;&gt;Node11</title>
<path fill="none" stroke="midnightblue" d="M108.67,-409.11C53.29,-399.74 -13.09,-379.13 10.1,-335 58.27,-243.37 174.8,-188.39 237.14,-164.53"/>
<polygon fill="midnightblue" stroke="midnightblue" points="108.43,-412.62 118.86,-410.73 109.53,-405.7 108.43,-412.62"/>
</g>
<!-- Node20 -->
<g id="node20" class="node">
<title>Node20</title>
<g id="a_node20"><a xlink:href="core_8hpp.html" target="_top" xlink:title=" ">
<polygon fill="none" stroke="black" points="203.1,-335.5 203.1,-365.5 307.1,-365.5 307.1,-335.5 203.1,-335.5"/>
<text text-anchor="start" x="211.1" y="-353.5" font-family="Helvetica,sans-Serif" font-size="10.00">include/yaclib/async</text>
<text text-anchor="middle" x="255.1" y="-342.5" font-family="Helvetica,sans-Serif" font-size="10.00">/detail/core.hpp</text>
</a>
</g>
</g>
<!-- Node19&#45;&gt;Node20 -->
<g id="edge25" class="edge">
<title>Node19&#45;&gt;Node20</title>
<path fill="none" stroke="midnightblue" d="M200.48,-395.88C212.64,-386.01 226.88,-374.43 237.78,-365.58"/>
<polygon fill="midnightblue" stroke="midnightblue" points="198.02,-393.37 192.46,-402.4 202.43,-398.81 198.02,-393.37"/>
</g>
<!-- Node21 -->
<g id="node21" class="node">
<title>Node21</title>
<g id="a_node21"><a xlink:href="result__core_8cpp.html" target="_top" xlink:title=" ">
<polygon fill="none" stroke="black" points="19.1,-341 19.1,-360 147.1,-360 147.1,-341 19.1,-341"/>
<text text-anchor="middle" x="83.1" y="-348" font-family="Helvetica,sans-Serif" font-size="10.00">src/async/result_core.cpp</text>
</a>
</g>
</g>
<!-- Node19&#45;&gt;Node21 -->
<g id="edge30" class="edge">
<title>Node19&#45;&gt;Node21</title>
<path fill="none" stroke="midnightblue" d="M146.52,-396.31C129.25,-384.1 108.12,-369.18 95.14,-360.01"/>
<polygon fill="midnightblue" stroke="midnightblue" points="144.95,-399.48 155.14,-402.4 148.99,-393.77 144.95,-399.48"/>
</g>
<!-- Node20&#45;&gt;Node5 -->
<g id="edge26" class="edge">
<title>Node20&#45;&gt;Node5</title>
<path fill="none" stroke="midnightblue" d="M275.26,-328.02C284.35,-318.34 294.83,-307.17 302.89,-298.58"/>
<polygon fill="midnightblue" stroke="midnightblue" points="272.63,-325.71 268.34,-335.4 277.74,-330.5 272.63,-325.71"/>
</g>
<!-- Node20&#45;&gt;Node13 -->
<g id="edge27" class="edge">
<title>Node20&#45;&gt;Node13</title>
<path fill="none" stroke="midnightblue" d="M299.94,-331.62C398.05,-292.49 630.11,-199.95 718.8,-164.58"/>
<polygon fill="midnightblue" stroke="midnightblue" points="298.58,-328.39 290.59,-335.35 301.18,-334.89 298.58,-328.39"/>
</g>
<!-- Node23&#45;&gt;Node2 -->
<g id="edge33" class="edge">
<title>Node23&#45;&gt;Node2</title>
<path fill="none" stroke="midnightblue" d="M741.11,-611.99C682.3,-605.7 595.7,-592.75 524.1,-567 476.8,-549.99 426.88,-518.15 400.02,-499.71"/>
<polygon fill="midnightblue" stroke="midnightblue" points="741.09,-615.51 751.39,-613.05 741.81,-608.54 741.09,-615.51"/>
</g>
<!-- Node23&#45;&gt;Node6 -->
<g id="edge34" class="edge">
<title>Node23&#45;&gt;Node6</title>
<path fill="none" stroke="midnightblue" d="M741.31,-612.47C669.38,-606.05 552.84,-592.59 455.1,-567 245.16,-512.03 112.28,-557.46 10.1,-366 -51.6,-250.39 194.21,-224.78 305.72,-219.11"/>
<polygon fill="midnightblue" stroke="midnightblue" points="741.33,-615.98 751.59,-613.36 741.94,-609.01 741.33,-615.98"/>
</g>
<!-- Node23&#45;&gt;Node13 -->
<g id="edge35" class="edge">
<title>Node23&#45;&gt;Node13</title>
<path fill="none" stroke="midnightblue" d="M809.1,-592.99C809.1,-566.49 809.1,-523 809.1,-485.5 809.1,-485.5 809.1,-485.5 809.1,-282.5 809.1,-236.57 780.38,-188.09 764.45,-164.73"/>
<polygon fill="midnightblue" stroke="midnightblue" points="805.6,-593.24 809.1,-603.24 812.6,-593.24 805.6,-593.24"/>
</g>
<!-- Node23&#45;&gt;Node14 -->
<g id="edge51" class="edge">
<title>Node23&#45;&gt;Node14</title>
<path fill="none" stroke="midnightblue" d="M820.26,-593.86C831.47,-567.89 847.1,-524.66 847.1,-485.5 847.1,-485.5 847.1,-485.5 847.1,-215.5 847.1,-172.05 858.84,-121.65 865.17,-97.63"/>
<polygon fill="midnightblue" stroke="midnightblue" points="816.95,-592.68 816.07,-603.24 823.34,-595.53 816.95,-592.68"/>
</g>
<!-- Node24 -->
<g id="node24" class="node">
<title>Node24</title>
<g id="a_node24"><a xlink:href="inline_8hpp.html" target="_top" xlink:title=" ">
<polygon fill="none" stroke="black" points="665.6,-536.5 665.6,-566.5 780.6,-566.5 780.6,-536.5 665.6,-536.5"/>
<text text-anchor="start" x="673.6" y="-554.5" font-family="Helvetica,sans-Serif" font-size="10.00">include/yaclib/executor</text>
<text text-anchor="middle" x="723.1" y="-543.5" font-family="Helvetica,sans-Serif" font-size="10.00">/inline.hpp</text>
</a>
</g>
</g>
<!-- Node23&#45;&gt;Node24 -->
<g id="edge36" class="edge">
<title>Node23&#45;&gt;Node24</title>
<path fill="none" stroke="midnightblue" d="M782.2,-597.17C769.05,-587.23 753.55,-575.51 741.73,-566.58"/>
<polygon fill="midnightblue" stroke="midnightblue" points="780.35,-600.16 790.44,-603.4 784.58,-594.57 780.35,-600.16"/>
</g>
<!-- Node26 -->
<g id="node26" class="node">
<title>Node26</title>
<g id="a_node26"><a xlink:href="serial_8hpp.html" target="_top" xlink:title=" ">
<polygon fill="none" stroke="black" points="875.6,-536.5 875.6,-566.5 990.6,-566.5 990.6,-536.5 875.6,-536.5"/>
<text text-anchor="start" x="883.6" y="-554.5" font-family="Helvetica,sans-Serif" font-size="10.00">include/yaclib/executor</text>
<text text-anchor="middle" x="933.1" y="-543.5" font-family="Helvetica,sans-Serif" font-size="10.00">/serial.hpp</text>
</a>
</g>
</g>
<!-- Node23&#45;&gt;Node26 -->
<g id="edge39" class="edge">
<title>Node23&#45;&gt;Node26</title>
<path fill="none" stroke="midnightblue" d="M844.94,-598.71C864.5,-588.46 888.31,-575.98 906.25,-566.58"/>
<polygon fill="midnightblue" stroke="midnightblue" points="843.24,-595.65 836.01,-603.4 846.49,-601.85 843.24,-595.65"/>
</g>
<!-- Node28 -->
<g id="node28" class="node">
<title>Node28</title>
<g id="a_node28"><a xlink:href="thread__pool_8hpp.html" target="_top" xlink:title=" ">
<polygon fill="none" stroke="black" points="1047.6,-536.5 1047.6,-566.5 1162.6,-566.5 1162.6,-536.5 1047.6,-536.5"/>
<text text-anchor="start" x="1055.6" y="-554.5" font-family="Helvetica,sans-Serif" font-size="10.00">include/yaclib/executor</text>
<text text-anchor="middle" x="1105.1" y="-543.5" font-family="Helvetica,sans-Serif" font-size="10.00">/thread_pool.hpp</text>
</a>
</g>
</g>
<!-- Node23&#45;&gt;Node28 -->
<g id="edge42" class="edge">
<title>Node23&#45;&gt;Node28</title>
<path fill="none" stroke="midnightblue" d="M876.93,-602.61C928.48,-591.29 998.62,-575.88 1047.47,-565.15"/>
<polygon fill="midnightblue" stroke="midnightblue" points="875.89,-599.25 866.88,-604.81 877.4,-606.09 875.89,-599.25"/>
</g>
<!-- Node29 -->
<g id="node29" class="node">
<title>Node29</title>
<g id="a_node29"><a xlink:href="src_2executor_2thread__pool_8cpp.html" target="_top" xlink:title=" ">
<polygon fill="none" stroke="black" points="1043.1,-469.5 1043.1,-499.5 1143.1,-499.5 1143.1,-469.5 1043.1,-469.5"/>
<text text-anchor="start" x="1051.1" y="-487.5" font-family="Helvetica,sans-Serif" font-size="10.00">src/executor/thread</text>
<text text-anchor="middle" x="1093.1" y="-476.5" font-family="Helvetica,sans-Serif" font-size="10.00">_pool.cpp</text>
</a>
</g>
</g>
<!-- Node23&#45;&gt;Node29 -->
<g id="edge50" class="edge">
<title>Node23&#45;&gt;Node29</title>
<path fill="none" stroke="midnightblue" d="M876.73,-607.27C914.31,-599.72 961.03,-587.16 999.1,-567 1016.47,-557.8 1056.66,-520.49 1078.44,-499.69"/>
<polygon fill="midnightblue" stroke="midnightblue" points="876.04,-603.84 866.89,-609.17 877.37,-610.71 876.04,-603.84"/>
</g>
<!-- Node31 -->
<g id="node31" class="node">
<title>Node31</title>
<g id="a_node31"><a xlink:href="src_2executor_2serial_8cpp.html" target="_top" xlink:title=" ">
<polygon fill="none" stroke="black" points="533.1,-542 533.1,-561 647.1,-561 647.1,-542 533.1,-542"/>
<text text-anchor="middle" x="590.1" y="-549" font-family="Helvetica,sans-Serif" font-size="10.00">src/executor/serial.cpp</text>
</a>
</g>
</g>
<!-- Node23&#45;&gt;Node31 -->
<g id="edge49" class="edge">
<title>Node23&#45;&gt;Node31</title>
<path fill="none" stroke="midnightblue" d="M752.13,-600.59C709.36,-587.9 652.58,-571.04 618.84,-561.03"/>
<polygon fill="midnightblue" stroke="midnightblue" points="751.27,-603.99 761.85,-603.48 753.26,-597.28 751.27,-603.99"/>
</g>
<!-- Node24&#45;&gt;Node2 -->
<g id="edge37" class="edge">
<title>Node24&#45;&gt;Node2</title>
<path fill="none" stroke="midnightblue" d="M655.55,-535.93C572.7,-519.49 488.29,-504.36 434.67,-494.95"/>
<polygon fill="midnightblue" stroke="midnightblue" points="654.89,-539.36 665.38,-537.89 656.26,-532.5 654.89,-539.36"/>
</g>
<!-- Node25 -->
<g id="node25" class="node">
<title>Node25</title>
<g id="a_node25"><a xlink:href="inline_8cpp.html" target="_top" xlink:title=" ">
<polygon fill="none" stroke="black" points="666.6,-475 666.6,-494 779.6,-494 779.6,-475 666.6,-475"/>
<text text-anchor="middle" x="723.1" y="-482" font-family="Helvetica,sans-Serif" font-size="10.00">src/executor/inline.cpp</text>
</a>
</g>
</g>
<!-- Node24&#45;&gt;Node25 -->
<g id="edge38" class="edge">
<title>Node24&#45;&gt;Node25</title>
<path fill="none" stroke="midnightblue" d="M723.1,-526.25C723.1,-515.02 723.1,-502.38 723.1,-494.19"/>
<polygon fill="midnightblue" stroke="midnightblue" points="719.6,-526.4 723.1,-536.4 726.6,-526.4 719.6,-526.4"/>
</g>
<!-- Node26&#45;&gt;Node14 -->
<g id="edge40" class="edge">
<title>Node26&#45;&gt;Node14</title>
<path fill="none" stroke="midnightblue" d="M918.25,-527.91C913.18,-519.43 907.86,-509.53 904.1,-500 890.48,-465.39 885.1,-455.69 885.1,-418.5 885.1,-418.5 885.1,-418.5 885.1,-215.5 885.1,-172.33 876.57,-121.8 871.96,-97.69"/>
<polygon fill="midnightblue" stroke="midnightblue" points="915.31,-529.82 923.56,-536.48 921.26,-526.13 915.31,-529.82"/>
</g>
<!-- Node27 -->
<g id="node27" class="node">
<title>Node27</title>
<g id="a_node27"><a xlink:href="test_2example_2executor_2serial_8cpp.html" target="_top" xlink:title=" ">
<polygon fill="none" stroke="black" points="913.1,-469.5 913.1,-499.5 1025.1,-499.5 1025.1,-469.5 913.1,-469.5"/>
<text text-anchor="start" x="921.1" y="-487.5" font-family="Helvetica,sans-Serif" font-size="10.00">test/example/executor</text>
<text text-anchor="middle" x="969.1" y="-476.5" font-family="Helvetica,sans-Serif" font-size="10.00">/serial.cpp</text>
</a>
</g>
</g>
<!-- Node26&#45;&gt;Node27 -->
<g id="edge41" class="edge">
<title>Node26&#45;&gt;Node27</title>
<path fill="none" stroke="midnightblue" d="M945.8,-527.58C950.97,-518.24 956.78,-507.75 961.31,-499.58"/>
<polygon fill="midnightblue" stroke="midnightblue" points="942.7,-525.95 940.92,-536.4 948.82,-529.34 942.7,-525.95"/>
</g>
<!-- Node28&#45;&gt;Node8 -->
<g id="edge46" class="edge">
<title>Node28&#45;&gt;Node8</title>
<path fill="none" stroke="midnightblue" d="M1137.96,-530.69C1149.85,-522.33 1162.65,-511.8 1172.1,-500 1196.98,-468.96 1209.1,-458.28 1209.1,-418.5 1209.1,-418.5 1209.1,-418.5 1209.1,-148.5 1209.1,-43 852.07,-54 749.1,-31 746.43,-30.4 743.69,-29.78 740.92,-29.13"/>
<polygon fill="midnightblue" stroke="midnightblue" points="1135.87,-527.88 1129.54,-536.37 1139.78,-533.68 1135.87,-527.88"/>
</g>
<!-- Node28&#45;&gt;Node10 -->
<g id="edge44" class="edge">
<title>Node28&#45;&gt;Node10</title>
<path fill="none" stroke="midnightblue" d="M1172.12,-533.53C1190.79,-525.95 1209.62,-515.18 1223.1,-500 1248.18,-471.77 1247.1,-456.26 1247.1,-418.5 1247.1,-418.5 1247.1,-418.5 1247.1,-148.5 1247.1,-110.74 1251.91,-91.41 1223.1,-67 1169.31,-21.42 957.77,-15.96 859.62,-15.96"/>
<polygon fill="midnightblue" stroke="midnightblue" points="1170.81,-530.28 1162.7,-537.1 1173.29,-536.82 1170.81,-530.28"/>
</g>
<!-- Node28&#45;&gt;Node14 -->
<g id="edge45" class="edge">
<title>Node28&#45;&gt;Node14</title>
<path fill="none" stroke="midnightblue" d="M1129.66,-529.14C1137.89,-520.8 1146.41,-510.68 1152.1,-500 1169.58,-467.17 1171.1,-455.69 1171.1,-418.5 1171.1,-418.5 1171.1,-418.5 1171.1,-215.5 1171.1,-107.07 1005.62,-86.84 919.65,-83.64"/>
<polygon fill="midnightblue" stroke="midnightblue" points="1127.05,-526.8 1122.27,-536.26 1131.9,-531.84 1127.05,-526.8"/>
</g>
<!-- Node28&#45;&gt;Node27 -->
<g id="edge47" class="edge">
<title>Node28&#45;&gt;Node27</title>
<path fill="none" stroke="midnightblue" d="M1066.38,-531.99C1044.82,-521.69 1018.41,-509.07 998.56,-499.58"/>
<polygon fill="midnightblue" stroke="midnightblue" points="1065.06,-535.24 1075.59,-536.4 1068.08,-528.93 1065.06,-535.24"/>
</g>
<!-- Node28&#45;&gt;Node29 -->
<g id="edge43" class="edge">
<title>Node28&#45;&gt;Node29</title>
<path fill="none" stroke="midnightblue" d="M1100.66,-526.4C1098.99,-517.37 1097.15,-507.41 1095.7,-499.58"/>
<polygon fill="midnightblue" stroke="midnightblue" points="1097.24,-527.2 1102.5,-536.4 1104.13,-525.93 1097.24,-527.2"/>
</g>
<!-- Node30 -->
<g id="node30" class="node">
<title>Node30</title>
<g id="a_node30"><a xlink:href="test_2example_2executor_2thread__pool_8cpp.html" target="_top" xlink:title=" ">
<polygon fill="none" stroke="black" points="1275.1,-469.5 1275.1,-499.5 1387.1,-499.5 1387.1,-469.5 1275.1,-469.5"/>
<text text-anchor="start" x="1283.1" y="-487.5" font-family="Helvetica,sans-Serif" font-size="10.00">test/example/executor</text>
<text text-anchor="middle" x="1331.1" y="-476.5" font-family="Helvetica,sans-Serif" font-size="10.00">/thread_pool.cpp</text>
</a>
</g>
</g>
<!-- Node28&#45;&gt;Node30 -->
<g id="edge48" class="edge">
<title>Node28&#45;&gt;Node30</title>
<path fill="none" stroke="midnightblue" d="M1163.93,-533.58C1200.64,-523.02 1247.34,-509.59 1282.04,-499.61"/>
<polygon fill="midnightblue" stroke="midnightblue" points="1162.51,-530.35 1153.86,-536.48 1164.44,-537.08 1162.51,-530.35"/>
</g>
<!-- Node33 -->
<g id="node33" class="node">
<title>Node33</title>
<g id="a_node33"><a xlink:href="task_8hpp.html" target="_top" xlink:title=" ">
<polygon fill="none" stroke="black" points="794.6,-670.5 794.6,-700.5 909.6,-700.5 909.6,-670.5 794.6,-670.5"/>
<text text-anchor="start" x="802.6" y="-688.5" font-family="Helvetica,sans-Serif" font-size="10.00">include/yaclib/executor</text>
<text text-anchor="middle" x="852.1" y="-677.5" font-family="Helvetica,sans-Serif" font-size="10.00">/task.hpp</text>
</a>
</g>
</g>
<!-- Node32&#45;&gt;Node33 -->
<g id="edge53" class="edge">
<title>Node32&#45;&gt;Node33</title>
<path fill="none" stroke="midnightblue" d="M848.33,-727.4C849.16,-718.37 850.08,-708.41 850.8,-700.58"/>
<polygon fill="midnightblue" stroke="midnightblue" points="844.84,-727.12 847.41,-737.4 851.81,-727.76 844.84,-727.12"/>
</g>
<!-- Node33&#45;&gt;Node2 -->
<g id="edge54" class="edge">
<title>Node33&#45;&gt;Node2</title>
<path fill="none" stroke="midnightblue" d="M784.53,-675.77C701.7,-662.64 559.49,-632.05 455.1,-567 426.71,-549.3 402.27,-518.01 389.52,-499.78"/>
<polygon fill="midnightblue" stroke="midnightblue" points="784.16,-679.25 794.58,-677.32 785.23,-672.33 784.16,-679.25"/>
</g>
<!-- Node33&#45;&gt;Node23 -->
<g id="edge55" class="edge">
<title>Node33&#45;&gt;Node23</title>
<path fill="none" stroke="midnightblue" d="M837.13,-661.87C830.91,-652.46 823.88,-641.83 818.42,-633.58"/>
<polygon fill="midnightblue" stroke="midnightblue" points="834.34,-663.99 842.77,-670.4 840.18,-660.12 834.34,-663.99"/>
</g>
<!-- Node34 -->
<g id="node34" class="node">
<title>Node34</title>
<g id="a_node34"><a xlink:href="thread__factory_8hpp.html" target="_top" xlink:title=" ">
<polygon fill="none" stroke="black" points="1085.6,-603.5 1085.6,-633.5 1200.6,-633.5 1200.6,-603.5 1085.6,-603.5"/>
<text text-anchor="start" x="1093.6" y="-621.5" font-family="Helvetica,sans-Serif" font-size="10.00">include/yaclib/executor</text>
<text text-anchor="middle" x="1143.1" y="-610.5" font-family="Helvetica,sans-Serif" font-size="10.00">/thread_factory.hpp</text>
</a>
</g>
</g>
<!-- Node33&#45;&gt;Node34 -->
<g id="edge56" class="edge">
<title>Node33&#45;&gt;Node34</title>
<path fill="none" stroke="midnightblue" d="M919.74,-669.39C969.95,-658.18 1037.7,-643.04 1085.37,-632.4"/>
<polygon fill="midnightblue" stroke="midnightblue" points="918.94,-665.98 909.94,-671.58 920.47,-672.82 918.94,-665.98"/>
</g>
<!-- Node36 -->
<g id="node36" class="node">
<title>Node36</title>
<g id="a_node36"><a xlink:href="intrusive__list_8cpp.html" target="_top" xlink:title=" ">
<polygon fill="none" stroke="black" points="1299.1,-536.5 1299.1,-566.5 1385.1,-566.5 1385.1,-536.5 1299.1,-536.5"/>
<text text-anchor="start" x="1307.1" y="-554.5" font-family="Helvetica,sans-Serif" font-size="10.00">src/util/intrusive</text>
<text text-anchor="middle" x="1342.1" y="-543.5" font-family="Helvetica,sans-Serif" font-size="10.00">_list.cpp</text>
</a>
</g>
</g>
<!-- Node33&#45;&gt;Node36 -->
<g id="edge60" class="edge">
<title>Node33&#45;&gt;Node36</title>
<path fill="none" stroke="midnightblue" d="M919.7,-683.19C993.19,-679.9 1113.13,-669.03 1210.1,-634 1254.69,-617.9 1300.36,-585.41 1324.55,-566.68"/>
<polygon fill="midnightblue" stroke="midnightblue" points="919.49,-679.69 909.65,-683.6 919.78,-686.69 919.49,-679.69"/>
</g>
<!-- Node34&#45;&gt;Node28 -->
<g id="edge57" class="edge">
<title>Node34&#45;&gt;Node28</title>
<path fill="none" stroke="midnightblue" d="M1129.7,-594.58C1124.24,-585.24 1118.11,-574.75 1113.33,-566.58"/>
<polygon fill="midnightblue" stroke="midnightblue" points="1126.79,-596.53 1134.86,-603.4 1132.83,-593 1126.79,-596.53"/>
</g>
<!-- Node35 -->
<g id="node35" class="node">
<title>Node35</title>
<g id="a_node35"><a xlink:href="thread__factory_8cpp.html" target="_top" xlink:title=" ">
<polygon fill="none" stroke="black" points="1181.1,-536.5 1181.1,-566.5 1281.1,-566.5 1281.1,-536.5 1181.1,-536.5"/>
<text text-anchor="start" x="1189.1" y="-554.5" font-family="Helvetica,sans-Serif" font-size="10.00">src/executor/thread</text>
<text text-anchor="middle" x="1231.1" y="-543.5" font-family="Helvetica,sans-Serif" font-size="10.00">_factory.cpp</text>
</a>
</g>
</g>
<!-- Node34&#45;&gt;Node35 -->
<g id="edge58" class="edge">
<title>Node34&#45;&gt;Node35</title>
<path fill="none" stroke="midnightblue" d="M1170.25,-597.45C1183.78,-587.45 1199.83,-575.6 1212.05,-566.58"/>
<polygon fill="midnightblue" stroke="midnightblue" points="1168.16,-594.64 1162.2,-603.4 1172.32,-600.27 1168.16,-594.64"/>
</g>
<!-- Node34&#45;&gt;Node36 -->
<g id="edge59" class="edge">
<title>Node34&#45;&gt;Node36</title>
<path fill="none" stroke="midnightblue" d="M1195.98,-600.23C1228.17,-589.71 1268.78,-576.45 1299.01,-566.58"/>
<polygon fill="midnightblue" stroke="midnightblue" points="1194.7,-596.96 1186.28,-603.4 1196.88,-603.62 1194.7,-596.96"/>
</g>
</g>
</svg>
        <g id="navigator" transform="translate(0 0)" fill="#404254">
                <rect fill="#f2f5e9" fill-opacity="0.5" stroke="#606060" stroke-width=".5" x="0" y="0" width="60" height="60"/>
                <use id="zoomplus" xlink:href="#zoomPlus" x="17" y="9" onmousedown="handleZoom(evt,'in')"/>
                <use id="zoomminus" xlink:href="#zoomMin" x="42" y="9" onmousedown="handleZoom(evt,'out')"/>
                <use id="reset" xlink:href="#resetDef" x="30" y="36" onmousedown="handleReset()"/>
                <g id="arrowUp" xlink:href="#dirArrow" transform="translate(30 24)" onmousedown="handlePan(0,-1)">
                  <use xlink:href="#rim" fill="#404040">
                        <set attributeName="fill" to="#808080" begin="arrowUp.mouseover" end="arrowUp.mouseout"/>
                  </use>
                  <path fill="none" stroke="white" stroke-width="1.5" d="M0,-3.0v7 M-2.5,-0.5L0,-3.0L2.5,-0.5"/>
                </g>
                <g id="arrowRight" xlink:href="#dirArrow" transform="rotate(90) translate(36 -43)" onmousedown="handlePan(1,0)">
                  <use xlink:href="#rim" fill="#404040">
                        <set attributeName="fill" to="#808080" begin="arrowRight.mouseover" end="arrowRight.mouseout"/>
                  </use>
                  <path fill="none" stroke="white" stroke-width="1.5" d="M0,-3.0v7 M-2.5,-0.5L0,-3.0L2.5,-0.5"/>
                </g>
                <g id="arrowDown" xlink:href="#dirArrow" transform="rotate(180) translate(-30 -48)" onmousedown="handlePan(0,1)">
                  <use xlink:href="#rim" fill="#404040">
                        <set attributeName="fill" to="#808080" begin="arrowDown.mouseover" end="arrowDown.mouseout"/>
                  </use>
                  <path fill="none" stroke="white" stroke-width="1.5" d="M0,-3.0v7 M-2.5,-0.5L0,-3.0L2.5,-0.5"/>
                </g>
                <g id="arrowLeft" xlink:href="#dirArrow" transform="rotate(270) translate(-36 17)" onmousedown="handlePan(-1,0)">
                  <use xlink:href="#rim" fill="#404040">
                        <set attributeName="fill" to="#808080" begin="arrowLeft.mouseover" end="arrowLeft.mouseout"/>
                  </use>
                  <path fill="none" stroke="white" stroke-width="1.5" d="M0,-3.0v7 M-2.5,-0.5L0,-3.0L2.5,-0.5"/>
                </g>
        </g>
        <svg viewBox="0 0 15 15" width="100%" height="30px" preserveAspectRatio="xMaxYMin meet">
         <g id="arrow_out" transform="scale(0.3 0.3)">
          <a xlink:href="intrusive__ptr_8hpp__dep__incl_org.svg" target="_base">
           <rect id="button" ry="5" rx="5" y="6" x="6" height="38" width="38"
                fill="#f2f5e9" fill-opacity="0.5" stroke="#606060" stroke-width="1.0"/>
           <path id="arrow"
             d="M 11.500037,31.436501 C 11.940474,20.09759 22.043105,11.32322 32.158766,21.979434 L 37.068811,17.246167 C 37.068811,17.246167 37.088388,32 37.088388,32 L 22.160133,31.978069 C 22.160133,31.978069 26.997745,27.140456 26.997745,27.140456 C 18.528582,18.264221 13.291696,25.230495 11.500037,31.436501 z"
             style="fill:#404040;"/>
          </a>
         </g>
        </svg>
</svg>
