<?xml version="1.0" encoding="UTF-8" standalone="no"?>
<!DOCTYPE svg PUBLIC "-//W3C//DTD SVG 1.1//EN"
 "http://www.w3.org/Graphics/SVG/1.1/DTD/svg11.dtd">
<!-- Generated by graphviz version 2.44.0 ()
 -->
<!-- Title: include/yaclib/util/intrusive_ptr.hpp Pages: 1 -->
<svg width="308pt" height="95pt"
 viewBox="0.00 0.00 308.00 95.00" xmlns="http://www.w3.org/2000/svg" xmlns:xlink="http://www.w3.org/1999/xlink">
<g id="graph0" class="graph" transform="scale(1 1) rotate(0) translate(4 91)">
<title>include/yaclib/util/intrusive_ptr.hpp</title>
<!-- Node1 -->
<g id="node1" class="node">
<title>Node1</title>
<g id="a_node1"><a xlink:title=" ">
<polygon fill="#bfbfbf" stroke="black" points="127,-56.5 127,-86.5 218,-86.5 218,-56.5 127,-56.5"/>
<text text-anchor="start" x="135" y="-74.5" font-family="Helvetica,sans-Serif" font-size="10.00">include/yaclib/util</text>
<text text-anchor="middle" x="172.5" y="-63.5" font-family="Helvetica,sans-Serif" font-size="10.00">/intrusive_ptr.hpp</text>
</a>
</g>
</g>
<!-- Node2 -->
<g id="node2" class="node">
<title>Node2</title>
<g id="a_node2"><a xlink:href="ref_8hpp.html" target="_top" xlink:title=" ">
<polygon fill="none" stroke="black" points="0,-0.5 0,-19.5 89,-19.5 89,-0.5 0,-0.5"/>
<text text-anchor="middle" x="44.5" y="-7.5" font-family="Helvetica,sans-Serif" font-size="10.00">yaclib/util/ref.hpp</text>
</a>
</g>
</g>
<!-- Node1&#45;&gt;Node2 -->
<g id="edge1" class="edge">
<title>Node1&#45;&gt;Node2</title>
<path fill="none" stroke="midnightblue" d="M142.17,-56.4C120.98,-46.55 92.91,-33.5 72.3,-23.92"/>
<polygon fill="midnightblue" stroke="midnightblue" points="73.67,-20.7 63.13,-19.66 70.72,-27.05 73.67,-20.7"/>
</g>
<!-- Node3 -->
<g id="node3" class="node">
<title>Node3</title>
<g id="a_node3"><a xlink:title=" ">
<polygon fill="none" stroke="#bfbfbf" points="106.5,-0.5 106.5,-19.5 162.5,-19.5 162.5,-0.5 106.5,-0.5"/>
<text text-anchor="middle" x="134.5" y="-7.5" font-family="Helvetica,sans-Serif" font-size="10.00">algorithm</text>
</a>
</g>
</g>
<!-- Node1&#45;&gt;Node3 -->
<g id="edge2" class="edge">
<title>Node1&#45;&gt;Node3</title>
<path fill="none" stroke="midnightblue" d="M163.49,-56.4C158.09,-47.93 151.17,-37.1 145.45,-28.14"/>
<polygon fill="midnightblue" stroke="midnightblue" points="148.36,-26.2 140.03,-19.66 142.46,-29.97 148.36,-26.2"/>
</g>
<!-- Node4 -->
<g id="node4" class="node">
<title>Node4</title>
<g id="a_node4"><a xlink:title=" ">
<polygon fill="none" stroke="#bfbfbf" points="180.5,-0.5 180.5,-19.5 242.5,-19.5 242.5,-0.5 180.5,-0.5"/>
<text text-anchor="middle" x="211.5" y="-7.5" font-family="Helvetica,sans-Serif" font-size="10.00">type_traits</text>
</a>
</g>
</g>
<!-- Node1&#45;&gt;Node4 -->
<g id="edge3" class="edge">
<title>Node1&#45;&gt;Node4</title>
<path fill="none" stroke="midnightblue" d="M181.74,-56.4C187.29,-47.93 194.39,-37.1 200.27,-28.14"/>
<polygon fill="midnightblue" stroke="midnightblue" points="203.27,-29.94 205.83,-19.66 197.42,-26.1 203.27,-29.94"/>
</g>
<!-- Node5 -->
<g id="node5" class="node">
<title>Node5</title>
<g id="a_node5"><a xlink:title=" ">
<polygon fill="none" stroke="#bfbfbf" points="261,-0.5 261,-19.5 300,-19.5 300,-0.5 261,-0.5"/>
<text text-anchor="middle" x="280.5" y="-7.5" font-family="Helvetica,sans-Serif" font-size="10.00">utility</text>
</a>
</g>
</g>
<!-- Node1&#45;&gt;Node5 -->
<g id="edge4" class="edge">
<title>Node1&#45;&gt;Node5</title>
<path fill="none" stroke="midnightblue" d="M198.09,-56.4C215.57,-46.77 238.59,-34.09 255.86,-24.58"/>
<polygon fill="midnightblue" stroke="midnightblue" points="257.72,-27.55 264.79,-19.66 254.34,-21.42 257.72,-27.55"/>
</g>
</g>
</svg>
