<?xml version="1.0" encoding="UTF-8" standalone="no"?>
<!DOCTYPE svg PUBLIC "-//W3C//DTD SVG 1.1//EN"
 "http://www.w3.org/Graphics/SVG/1.1/DTD/svg11.dtd">
<!-- Generated by graphviz version 2.44.0 ()
 -->
<!-- Title: src/util/mpsc_stack.cpp Pages: 1 -->
<svg width="275pt" height="151pt"
 viewBox="0.00 0.00 275.00 151.00" xmlns="http://www.w3.org/2000/svg" xmlns:xlink="http://www.w3.org/1999/xlink">
<g id="graph0" class="graph" transform="scale(1 1) rotate(0) translate(4 147)">
<title>src/util/mpsc_stack.cpp</title>
<!-- Node1 -->
<g id="node1" class="node">
<title>Node1</title>
<g id="a_node1"><a xlink:title=" ">
<polygon fill="#bfbfbf" stroke="black" points="94,-123.5 94,-142.5 214,-142.5 214,-123.5 94,-123.5"/>
<text text-anchor="middle" x="154" y="-130.5" font-family="Helvetica,sans-Serif" font-size="10.00">src/util/mpsc_stack.cpp</text>
</a>
</g>
</g>
<!-- Node2 -->
<g id="node2" class="node">
<title>Node2</title>
<g id="a_node2"><a xlink:href="mpsc__stack_8hpp.html" target="_top" xlink:title=" ">
<polygon fill="none" stroke="black" points="102,-67.5 102,-86.5 206,-86.5 206,-67.5 102,-67.5"/>
<text text-anchor="middle" x="154" y="-74.5" font-family="Helvetica,sans-Serif" font-size="10.00">util/mpsc_stack.hpp</text>
</a>
</g>
</g>
<!-- Node1&#45;&gt;Node2 -->
<g id="edge1" class="edge">
<title>Node1&#45;&gt;Node2</title>
<path fill="none" stroke="midnightblue" d="M154,-123.08C154,-116.01 154,-105.86 154,-96.99"/>
<polygon fill="midnightblue" stroke="midnightblue" points="157.5,-96.75 154,-86.75 150.5,-96.75 157.5,-96.75"/>
</g>
<!-- Node3 -->
<g id="node3" class="node">
<title>Node3</title>
<g id="a_node3"><a xlink:title=" ">
<polygon fill="none" stroke="#bfbfbf" points="0,-6 0,-25 88,-25 88,-6 0,-6"/>
<text text-anchor="middle" x="44" y="-13" font-family="Helvetica,sans-Serif" font-size="10.00">yaclib/config.hpp</text>
</a>
</g>
</g>
<!-- Node2&#45;&gt;Node3 -->
<g id="edge2" class="edge">
<title>Node2&#45;&gt;Node3</title>
<path fill="none" stroke="midnightblue" d="M138.24,-67.48C120.02,-57.62 89.83,-41.29 68.53,-29.77"/>
<polygon fill="midnightblue" stroke="midnightblue" points="70.19,-26.69 59.73,-25.01 66.86,-32.85 70.19,-26.69"/>
</g>
<!-- Node4 -->
<g id="node4" class="node">
<title>Node4</title>
<g id="a_node4"><a xlink:href="intrusive__node_8hpp.html" target="_top" xlink:title=" ">
<polygon fill="none" stroke="black" points="105.5,-0.5 105.5,-30.5 202.5,-30.5 202.5,-0.5 105.5,-0.5"/>
<text text-anchor="start" x="113.5" y="-18.5" font-family="Helvetica,sans-Serif" font-size="10.00">yaclib/util/intrusive</text>
<text text-anchor="middle" x="154" y="-7.5" font-family="Helvetica,sans-Serif" font-size="10.00">_node.hpp</text>
</a>
</g>
</g>
<!-- Node2&#45;&gt;Node4 -->
<g id="edge3" class="edge">
<title>Node2&#45;&gt;Node4</title>
<path fill="none" stroke="midnightblue" d="M154,-67.48C154,-60.47 154,-50.19 154,-40.7"/>
<polygon fill="midnightblue" stroke="midnightblue" points="157.5,-40.52 154,-30.52 150.5,-40.52 157.5,-40.52"/>
</g>
<!-- Node5 -->
<g id="node5" class="node">
<title>Node5</title>
<g id="a_node5"><a xlink:title=" ">
<polygon fill="none" stroke="#bfbfbf" points="221,-6 221,-25 267,-25 267,-6 221,-6"/>
<text text-anchor="middle" x="244" y="-13" font-family="Helvetica,sans-Serif" font-size="10.00">atomic</text>
</a>
</g>
</g>
<!-- Node2&#45;&gt;Node5 -->
<g id="edge4" class="edge">
<title>Node2&#45;&gt;Node5</title>
<path fill="none" stroke="midnightblue" d="M166.89,-67.48C181.46,-57.84 205.4,-42.02 222.75,-30.55"/>
<polygon fill="midnightblue" stroke="midnightblue" points="224.72,-33.44 231.13,-25.01 220.86,-27.6 224.72,-33.44"/>
</g>
</g>
</svg>
