<?xml version="1.0" encoding="UTF-8" standalone="no"?>
<!DOCTYPE svg PUBLIC "-//W3C//DTD SVG 1.1//EN"
 "http://www.w3.org/Graphics/SVG/1.1/DTD/svg11.dtd">
<!-- Generated by graphviz version 2.44.0 ()
 -->
<!-- Title: src/async/promise_impl.cpp Pages: 1 -->
<svg width="914pt" height="766pt"
 viewBox="0.00 0.00 914.00 766.00" xmlns="http://www.w3.org/2000/svg" xmlns:xlink="http://www.w3.org/1999/xlink">
<g id="graph0" class="graph" transform="scale(1 1) rotate(0) translate(4 762)">
<title>src/async/promise_impl.cpp</title>
<!-- Node1 -->
<g id="node1" class="node">
<title>Node1</title>
<g id="a_node1"><a xlink:title=" ">
<polygon fill="#bfbfbf" stroke="black" points="287.5,-738.5 287.5,-757.5 424.5,-757.5 424.5,-738.5 287.5,-738.5"/>
<text text-anchor="middle" x="356" y="-745.5" font-family="Helvetica,sans-Serif" font-size="10.00">src/async/promise_impl.cpp</text>
</a>
</g>
</g>
<!-- Node2 -->
<g id="node2" class="node">
<title>Node2</title>
<g id="a_node2"><a xlink:href="promise_8hpp.html" target="_top" xlink:title=" ">
<polygon fill="none" stroke="black" points="293.5,-682.5 293.5,-701.5 418.5,-701.5 418.5,-682.5 293.5,-682.5"/>
<text text-anchor="middle" x="356" y="-689.5" font-family="Helvetica,sans-Serif" font-size="10.00">yaclib/async/promise.hpp</text>
</a>
</g>
</g>
<!-- Node1&#45;&gt;Node2 -->
<g id="edge1" class="edge">
<title>Node1&#45;&gt;Node2</title>
<path fill="none" stroke="midnightblue" d="M356,-738.08C356,-731.01 356,-720.86 356,-711.99"/>
<polygon fill="midnightblue" stroke="midnightblue" points="359.5,-711.75 356,-701.75 352.5,-711.75 359.5,-711.75"/>
</g>
<!-- Node3 -->
<g id="node3" class="node">
<title>Node3</title>
<g id="a_node3"><a xlink:href="result__core_8hpp.html" target="_top" xlink:title=" ">
<polygon fill="none" stroke="black" points="280,-425.5 280,-455.5 376,-455.5 376,-425.5 280,-425.5"/>
<text text-anchor="start" x="288" y="-443.5" font-family="Helvetica,sans-Serif" font-size="10.00">yaclib/async/detail</text>
<text text-anchor="middle" x="328" y="-432.5" font-family="Helvetica,sans-Serif" font-size="10.00">/result_core.hpp</text>
</a>
</g>
</g>
<!-- Node2&#45;&gt;Node3 -->
<g id="edge2" class="edge">
<title>Node2&#45;&gt;Node3</title>
<path fill="none" stroke="midnightblue" d="M333.21,-682.47C317.68,-675.32 298.29,-663.44 289,-646 257.11,-586.16 292.9,-504.2 314.31,-464.68"/>
<polygon fill="midnightblue" stroke="midnightblue" points="317.57,-466.02 319.39,-455.58 311.46,-462.61 317.57,-466.02"/>
</g>
<!-- Node19 -->
<g id="node19" class="node">
<title>Node19</title>
<g id="a_node19"><a xlink:href="type__traits_8hpp.html" target="_top" xlink:title=" ">
<polygon fill="none" stroke="black" points="169.5,-302.5 169.5,-321.5 292.5,-321.5 292.5,-302.5 169.5,-302.5"/>
<text text-anchor="middle" x="231" y="-309.5" font-family="Helvetica,sans-Serif" font-size="10.00">yaclib/util/type_traits.hpp</text>
</a>
</g>
</g>
<!-- Node2&#45;&gt;Node19 -->
<g id="edge33" class="edge">
<title>Node2&#45;&gt;Node19</title>
<path fill="none" stroke="midnightblue" d="M328.29,-682.49C286.96,-667.87 214,-633.81 214,-575.5 214,-575.5 214,-575.5 214,-439.5 214,-400.86 221.89,-356.16 226.92,-331.59"/>
<polygon fill="midnightblue" stroke="midnightblue" points="230.4,-332.04 229.05,-321.54 223.55,-330.59 230.4,-332.04"/>
</g>
<!-- Node24 -->
<g id="node24" class="node">
<title>Node24</title>
<g id="a_node24"><a xlink:href="future_8hpp.html" target="_top" xlink:title=" ">
<polygon fill="none" stroke="black" points="298,-626.5 298,-645.5 414,-645.5 414,-626.5 298,-626.5"/>
<text text-anchor="middle" x="356" y="-633.5" font-family="Helvetica,sans-Serif" font-size="10.00">yaclib/async/future.hpp</text>
</a>
</g>
</g>
<!-- Node2&#45;&gt;Node24 -->
<g id="edge34" class="edge">
<title>Node2&#45;&gt;Node24</title>
<path fill="none" stroke="midnightblue" d="M350.84,-682.08C349.33,-674.93 348.9,-664.64 349.54,-655.69"/>
<polygon fill="midnightblue" stroke="midnightblue" points="353.02,-656.13 350.87,-645.75 346.08,-655.2 353.02,-656.13"/>
</g>
<!-- Node25 -->
<g id="node25" class="node">
<title>Node25</title>
<g id="a_node25"><a xlink:href="future__impl_8hpp.html" target="_top" xlink:title=" ">
<polygon fill="none" stroke="black" points="394,-559.5 394,-589.5 490,-589.5 490,-559.5 394,-559.5"/>
<text text-anchor="start" x="402" y="-577.5" font-family="Helvetica,sans-Serif" font-size="10.00">yaclib/async/detail</text>
<text text-anchor="middle" x="442" y="-566.5" font-family="Helvetica,sans-Serif" font-size="10.00">/future_impl.hpp</text>
</a>
</g>
</g>
<!-- Node2&#45;&gt;Node25 -->
<g id="edge53" class="edge">
<title>Node2&#45;&gt;Node25</title>
<path fill="none" stroke="midnightblue" d="M375.89,-682.43C390.98,-674.93 411.09,-662.63 423,-646 432.64,-632.53 437.39,-614.44 439.73,-599.96"/>
<polygon fill="midnightblue" stroke="midnightblue" points="443.24,-600.1 441.09,-589.72 436.31,-599.17 443.24,-600.1"/>
</g>
<!-- Node32 -->
<g id="node32" class="node">
<title>Node32</title>
<g id="a_node32"><a xlink:href="promise__impl_8hpp.html" target="_top" xlink:title=" ">
<polygon fill="none" stroke="black" points="508,-559.5 508,-589.5 604,-589.5 604,-559.5 508,-559.5"/>
<text text-anchor="start" x="516" y="-577.5" font-family="Helvetica,sans-Serif" font-size="10.00">yaclib/async/detail</text>
<text text-anchor="middle" x="556" y="-566.5" font-family="Helvetica,sans-Serif" font-size="10.00">/promise_impl.hpp</text>
</a>
</g>
</g>
<!-- Node2&#45;&gt;Node32 -->
<g id="edge54" class="edge">
<title>Node2&#45;&gt;Node32</title>
<path fill="none" stroke="midnightblue" d="M373.11,-682.35C390.39,-673.51 417.8,-659.24 441,-646 469.91,-629.51 502.17,-609.6 525.15,-595.15"/>
<polygon fill="midnightblue" stroke="midnightblue" points="527.19,-598 533.77,-589.7 523.45,-592.08 527.19,-598"/>
</g>
<!-- Node4 -->
<g id="node4" class="node">
<title>Node4</title>
<g id="a_node4"><a xlink:href="base__core_8hpp.html" target="_top" xlink:title=" ">
<polygon fill="none" stroke="black" points="440,-358.5 440,-388.5 536,-388.5 536,-358.5 440,-358.5"/>
<text text-anchor="start" x="448" y="-376.5" font-family="Helvetica,sans-Serif" font-size="10.00">yaclib/async/detail</text>
<text text-anchor="middle" x="488" y="-365.5" font-family="Helvetica,sans-Serif" font-size="10.00">/base_core.hpp</text>
</a>
</g>
</g>
<!-- Node3&#45;&gt;Node4 -->
<g id="edge3" class="edge">
<title>Node3&#45;&gt;Node4</title>
<path fill="none" stroke="midnightblue" d="M362.72,-425.4C386.52,-415.73 418.28,-402.82 443.88,-392.43"/>
<polygon fill="midnightblue" stroke="midnightblue" points="445.4,-395.58 453.35,-388.58 442.77,-389.1 445.4,-395.58"/>
</g>
<!-- Node18 -->
<g id="node18" class="node">
<title>Node18</title>
<g id="a_node18"><a xlink:href="result_8hpp.html" target="_top" xlink:title=" ">
<polygon fill="none" stroke="black" points="77,-364 77,-383 179,-383 179,-364 77,-364"/>
<text text-anchor="middle" x="128" y="-371" font-family="Helvetica,sans-Serif" font-size="10.00">yaclib/util/result.hpp</text>
</a>
</g>
</g>
<!-- Node3&#45;&gt;Node18 -->
<g id="edge25" class="edge">
<title>Node3&#45;&gt;Node18</title>
<path fill="none" stroke="midnightblue" d="M284.6,-425.4C248.58,-413.69 197.94,-397.23 164.1,-386.23"/>
<polygon fill="midnightblue" stroke="midnightblue" points="164.77,-382.77 154.18,-383.01 162.61,-389.43 164.77,-382.77"/>
</g>
<!-- Node5 -->
<g id="node5" class="node">
<title>Node5</title>
<g id="a_node5"><a xlink:href="executor_8hpp.html" target="_top" xlink:title=" ">
<polygon fill="none" stroke="black" points="504.5,-246.5 504.5,-265.5 643.5,-265.5 643.5,-246.5 504.5,-246.5"/>
<text text-anchor="middle" x="574" y="-253.5" font-family="Helvetica,sans-Serif" font-size="10.00">yaclib/executor/executor.hpp</text>
</a>
</g>
</g>
<!-- Node4&#45;&gt;Node5 -->
<g id="edge4" class="edge">
<title>Node4&#45;&gt;Node5</title>
<path fill="none" stroke="midnightblue" d="M517.7,-358.44C532.59,-349.92 549.62,-337.65 560,-322 569.07,-308.32 572.39,-289.79 573.54,-276.01"/>
<polygon fill="midnightblue" stroke="midnightblue" points="577.05,-275.94 574.08,-265.76 570.06,-275.57 577.05,-275.94"/>
</g>
<!-- Node6 -->
<g id="node6" class="node">
<title>Node6</title>
<g id="a_node6"><a xlink:href="task_8hpp.html" target="_top" xlink:title=" ">
<polygon fill="none" stroke="black" points="432.5,-190.5 432.5,-209.5 553.5,-209.5 553.5,-190.5 432.5,-190.5"/>
<text text-anchor="middle" x="493" y="-197.5" font-family="Helvetica,sans-Serif" font-size="10.00">yaclib/executor/task.hpp</text>
</a>
</g>
</g>
<!-- Node4&#45;&gt;Node6 -->
<g id="edge22" class="edge">
<title>Node4&#45;&gt;Node6</title>
<path fill="none" stroke="midnightblue" d="M455.85,-358.34C441.18,-350.03 425.25,-338 417,-322 412.93,-314.1 414.18,-310.43 417,-302 428.63,-267.22 457.46,-234.8 476.09,-216.49"/>
<polygon fill="midnightblue" stroke="midnightblue" points="478.55,-218.98 483.36,-209.54 473.71,-213.92 478.55,-218.98"/>
</g>
<!-- Node10 -->
<g id="node10" class="node">
<title>Node10</title>
<g id="a_node10"><a xlink:title=" ">
<polygon fill="none" stroke="#bfbfbf" points="650,-0.5 650,-19.5 696,-19.5 696,-0.5 650,-0.5"/>
<text text-anchor="middle" x="673" y="-7.5" font-family="Helvetica,sans-Serif" font-size="10.00">atomic</text>
</a>
</g>
</g>
<!-- Node4&#45;&gt;Node10 -->
<g id="edge24" class="edge">
<title>Node4&#45;&gt;Node10</title>
<path fill="none" stroke="midnightblue" d="M515.32,-358.37C533.45,-348.7 557.57,-335.28 578,-322 612.88,-299.33 629.28,-300.17 653,-266 670.17,-241.28 672,-231.1 672,-201 672,-201 672,-201 672,-137.5 672,-99.2 672.47,-54.38 672.76,-29.7"/>
<polygon fill="midnightblue" stroke="midnightblue" points="676.26,-29.63 672.89,-19.59 669.26,-29.55 676.26,-29.63"/>
</g>
<!-- Node11 -->
<g id="node11" class="node">
<title>Node11</title>
<g id="a_node11"><a xlink:href="intrusive__ptr_8hpp.html" target="_top" xlink:title=" ">
<polygon fill="none" stroke="black" points="418.5,-56.5 418.5,-86.5 515.5,-86.5 515.5,-56.5 418.5,-56.5"/>
<text text-anchor="start" x="426.5" y="-74.5" font-family="Helvetica,sans-Serif" font-size="10.00">yaclib/util/intrusive</text>
<text text-anchor="middle" x="467" y="-63.5" font-family="Helvetica,sans-Serif" font-size="10.00">_ptr.hpp</text>
</a>
</g>
</g>
<!-- Node4&#45;&gt;Node11 -->
<g id="edge23" class="edge">
<title>Node4&#45;&gt;Node11</title>
<path fill="none" stroke="midnightblue" d="M451.72,-358.37C413.57,-340.85 359,-307.05 359,-257 359,-257 359,-257 359,-199 359,-164.07 357.76,-150.73 379,-123 389.38,-109.45 404.51,-98.92 419.3,-91.07"/>
<polygon fill="midnightblue" stroke="midnightblue" points="421.04,-94.12 428.43,-86.53 417.91,-87.85 421.04,-94.12"/>
</g>
<!-- Node17 -->
<g id="node17" class="node">
<title>Node17</title>
<g id="a_node17"><a xlink:href="inline_8hpp.html" target="_top" xlink:title=" ">
<polygon fill="none" stroke="black" points="425.5,-302.5 425.5,-321.5 550.5,-321.5 550.5,-302.5 425.5,-302.5"/>
<text text-anchor="middle" x="488" y="-309.5" font-family="Helvetica,sans-Serif" font-size="10.00">yaclib/executor/inline.hpp</text>
</a>
</g>
</g>
<!-- Node4&#45;&gt;Node17 -->
<g id="edge20" class="edge">
<title>Node4&#45;&gt;Node17</title>
<path fill="none" stroke="midnightblue" d="M488,-358.4C488,-350.47 488,-340.46 488,-331.86"/>
<polygon fill="midnightblue" stroke="midnightblue" points="491.5,-331.66 488,-321.66 484.5,-331.66 491.5,-331.66"/>
</g>
<!-- Node5&#45;&gt;Node6 -->
<g id="edge5" class="edge">
<title>Node5&#45;&gt;Node6</title>
<path fill="none" stroke="midnightblue" d="M560.99,-246.32C548.47,-237.98 529.32,-225.21 514.53,-215.35"/>
<polygon fill="midnightblue" stroke="midnightblue" points="516.25,-212.29 505.98,-209.65 512.36,-218.11 516.25,-212.29"/>
</g>
<!-- Node5&#45;&gt;Node11 -->
<g id="edge19" class="edge">
<title>Node5&#45;&gt;Node11</title>
<path fill="none" stroke="midnightblue" d="M580.71,-246.43C597.34,-224.06 637.16,-162.9 609,-123 590.16,-96.3 555.91,-83.63 525.77,-77.66"/>
<polygon fill="midnightblue" stroke="midnightblue" points="526.19,-74.18 515.73,-75.88 524.97,-81.07 526.19,-74.18"/>
</g>
<!-- Node7 -->
<g id="node7" class="node">
<title>Node7</title>
<g id="a_node7"><a xlink:href="func_8hpp.html" target="_top" xlink:title=" ">
<polygon fill="none" stroke="black" points="387.5,-129 387.5,-148 484.5,-148 484.5,-129 387.5,-129"/>
<text text-anchor="middle" x="436" y="-136" font-family="Helvetica,sans-Serif" font-size="10.00">yaclib/util/func.hpp</text>
</a>
</g>
</g>
<!-- Node6&#45;&gt;Node7 -->
<g id="edge6" class="edge">
<title>Node6&#45;&gt;Node7</title>
<path fill="none" stroke="midnightblue" d="M484.83,-190.48C476.12,-181.37 462.1,-166.74 451.31,-155.48"/>
<polygon fill="midnightblue" stroke="midnightblue" points="453.6,-152.81 444.15,-148.01 448.54,-157.65 453.6,-152.81"/>
</g>
<!-- Node16 -->
<g id="node16" class="node">
<title>Node16</title>
<g id="a_node16"><a xlink:href="intrusive__node_8hpp.html" target="_top" xlink:title=" ">
<polygon fill="none" stroke="black" points="502.5,-123.5 502.5,-153.5 599.5,-153.5 599.5,-123.5 502.5,-123.5"/>
<text text-anchor="start" x="510.5" y="-141.5" font-family="Helvetica,sans-Serif" font-size="10.00">yaclib/util/intrusive</text>
<text text-anchor="middle" x="551" y="-130.5" font-family="Helvetica,sans-Serif" font-size="10.00">_node.hpp</text>
</a>
</g>
</g>
<!-- Node6&#45;&gt;Node16 -->
<g id="edge18" class="edge">
<title>Node6&#45;&gt;Node16</title>
<path fill="none" stroke="midnightblue" d="M501.31,-190.48C508.8,-182.79 520.13,-171.17 530.08,-160.96"/>
<polygon fill="midnightblue" stroke="midnightblue" points="532.86,-163.13 537.33,-153.52 527.85,-158.24 532.86,-163.13"/>
</g>
<!-- Node8 -->
<g id="node8" class="node">
<title>Node8</title>
<g id="a_node8"><a xlink:href="counters_8hpp.html" target="_top" xlink:title=" ">
<polygon fill="none" stroke="black" points="700,-62 700,-81 816,-81 816,-62 700,-62"/>
<text text-anchor="middle" x="758" y="-69" font-family="Helvetica,sans-Serif" font-size="10.00">yaclib/util/counters.hpp</text>
</a>
</g>
</g>
<!-- Node7&#45;&gt;Node8 -->
<g id="edge7" class="edge">
<title>Node7&#45;&gt;Node8</title>
<path fill="none" stroke="midnightblue" d="M468.75,-128.97C476.97,-126.93 485.79,-124.81 494,-123 564,-107.57 645.04,-92.47 698.67,-82.87"/>
<polygon fill="midnightblue" stroke="midnightblue" points="699.46,-86.28 708.69,-81.08 698.23,-79.39 699.46,-86.28"/>
</g>
<!-- Node7&#45;&gt;Node11 -->
<g id="edge10" class="edge">
<title>Node7&#45;&gt;Node11</title>
<path fill="none" stroke="midnightblue" d="M440.18,-128.73C444.21,-120.29 450.48,-107.14 455.95,-95.68"/>
<polygon fill="midnightblue" stroke="midnightblue" points="459.14,-97.12 460.28,-86.59 452.82,-94.11 459.14,-97.12"/>
</g>
<!-- Node12 -->
<g id="node12" class="node">
<title>Node12</title>
<g id="a_node12"><a xlink:href="ref_8hpp.html" target="_top" xlink:title=" ">
<polygon fill="none" stroke="black" points="512.5,-0.5 512.5,-19.5 601.5,-19.5 601.5,-0.5 512.5,-0.5"/>
<text text-anchor="middle" x="557" y="-7.5" font-family="Helvetica,sans-Serif" font-size="10.00">yaclib/util/ref.hpp</text>
</a>
</g>
</g>
<!-- Node7&#45;&gt;Node12 -->
<g id="edge15" class="edge">
<title>Node7&#45;&gt;Node12</title>
<path fill="none" stroke="midnightblue" d="M460.04,-128.94C479.79,-120.83 507.3,-106.92 525,-87 539.53,-70.65 548.11,-46.76 552.67,-30.14"/>
<polygon fill="midnightblue" stroke="midnightblue" points="556.18,-30.53 555.21,-19.98 549.39,-28.83 556.18,-30.53"/>
</g>
<!-- Node14 -->
<g id="node14" class="node">
<title>Node14</title>
<g id="a_node14"><a xlink:title=" ">
<polygon fill="none" stroke="#bfbfbf" points="301,-0.5 301,-19.5 363,-19.5 363,-0.5 301,-0.5"/>
<text text-anchor="middle" x="332" y="-7.5" font-family="Helvetica,sans-Serif" font-size="10.00">type_traits</text>
</a>
</g>
</g>
<!-- Node7&#45;&gt;Node14 -->
<g id="edge16" class="edge">
<title>Node7&#45;&gt;Node14</title>
<path fill="none" stroke="midnightblue" d="M428.85,-128.81C411.71,-107.95 368.02,-54.81 345.65,-27.61"/>
<polygon fill="midnightblue" stroke="midnightblue" points="348.25,-25.26 339.2,-19.76 342.85,-29.7 348.25,-25.26"/>
</g>
<!-- Node15 -->
<g id="node15" class="node">
<title>Node15</title>
<g id="a_node15"><a xlink:title=" ">
<polygon fill="none" stroke="#bfbfbf" points="381.5,-0.5 381.5,-19.5 420.5,-19.5 420.5,-0.5 381.5,-0.5"/>
<text text-anchor="middle" x="401" y="-7.5" font-family="Helvetica,sans-Serif" font-size="10.00">utility</text>
</a>
</g>
</g>
<!-- Node7&#45;&gt;Node15 -->
<g id="edge17" class="edge">
<title>Node7&#45;&gt;Node15</title>
<path fill="none" stroke="midnightblue" d="M430.39,-128.97C424.3,-119.24 414.79,-102.65 410,-87 404.24,-68.17 402.14,-45.67 401.38,-30.06"/>
<polygon fill="midnightblue" stroke="midnightblue" points="404.87,-29.51 401.03,-19.64 397.87,-29.75 404.87,-29.51"/>
</g>
<!-- Node9 -->
<g id="node9" class="node">
<title>Node9</title>
<g id="a_node9"><a xlink:title=" ">
<polygon fill="none" stroke="#bfbfbf" points="714,-0.5 714,-19.5 802,-19.5 802,-0.5 714,-0.5"/>
<text text-anchor="middle" x="758" y="-7.5" font-family="Helvetica,sans-Serif" font-size="10.00">yaclib/config.hpp</text>
</a>
</g>
</g>
<!-- Node8&#45;&gt;Node9 -->
<g id="edge8" class="edge">
<title>Node8&#45;&gt;Node9</title>
<path fill="none" stroke="midnightblue" d="M758,-61.98C758,-53.58 758,-40.48 758,-29.66"/>
<polygon fill="midnightblue" stroke="midnightblue" points="761.5,-29.51 758,-19.51 754.5,-29.51 761.5,-29.51"/>
</g>
<!-- Node8&#45;&gt;Node10 -->
<g id="edge9" class="edge">
<title>Node8&#45;&gt;Node10</title>
<path fill="none" stroke="midnightblue" d="M745.82,-61.98C732.19,-52.43 709.87,-36.81 693.53,-25.37"/>
<polygon fill="midnightblue" stroke="midnightblue" points="695.36,-22.38 685.16,-19.51 691.34,-28.11 695.36,-22.38"/>
</g>
<!-- Node11&#45;&gt;Node12 -->
<g id="edge11" class="edge">
<title>Node11&#45;&gt;Node12</title>
<path fill="none" stroke="midnightblue" d="M488.33,-56.4C502.49,-47.04 521.01,-34.79 535.25,-25.38"/>
<polygon fill="midnightblue" stroke="midnightblue" points="537.49,-28.09 543.91,-19.66 533.63,-22.25 537.49,-28.09"/>
</g>
<!-- Node13 -->
<g id="node13" class="node">
<title>Node13</title>
<g id="a_node13"><a xlink:title=" ">
<polygon fill="none" stroke="#bfbfbf" points="439,-0.5 439,-19.5 495,-19.5 495,-0.5 439,-0.5"/>
<text text-anchor="middle" x="467" y="-7.5" font-family="Helvetica,sans-Serif" font-size="10.00">algorithm</text>
</a>
</g>
</g>
<!-- Node11&#45;&gt;Node13 -->
<g id="edge12" class="edge">
<title>Node11&#45;&gt;Node13</title>
<path fill="none" stroke="midnightblue" d="M467,-56.4C467,-48.47 467,-38.46 467,-29.86"/>
<polygon fill="midnightblue" stroke="midnightblue" points="470.5,-29.66 467,-19.66 463.5,-29.66 470.5,-29.66"/>
</g>
<!-- Node11&#45;&gt;Node14 -->
<g id="edge13" class="edge">
<title>Node11&#45;&gt;Node14</title>
<path fill="none" stroke="midnightblue" d="M435.01,-56.4C412.56,-46.51 382.79,-33.38 361.02,-23.79"/>
<polygon fill="midnightblue" stroke="midnightblue" points="362.21,-20.49 351.65,-19.66 359.38,-26.89 362.21,-20.49"/>
</g>
<!-- Node11&#45;&gt;Node15 -->
<g id="edge14" class="edge">
<title>Node11&#45;&gt;Node15</title>
<path fill="none" stroke="midnightblue" d="M451.36,-56.4C441.37,-47.4 428.42,-35.72 418.16,-26.47"/>
<polygon fill="midnightblue" stroke="midnightblue" points="420.38,-23.75 410.6,-19.66 415.69,-28.95 420.38,-23.75"/>
</g>
<!-- Node17&#45;&gt;Node5 -->
<g id="edge21" class="edge">
<title>Node17&#45;&gt;Node5</title>
<path fill="none" stroke="midnightblue" d="M501.82,-302.32C515.23,-293.9 535.83,-280.97 551.59,-271.07"/>
<polygon fill="midnightblue" stroke="midnightblue" points="553.61,-273.94 560.22,-265.65 549.89,-268.01 553.61,-273.94"/>
</g>
<!-- Node18&#45;&gt;Node19 -->
<g id="edge26" class="edge">
<title>Node18&#45;&gt;Node19</title>
<path fill="none" stroke="midnightblue" d="M142.76,-363.98C159.66,-354.21 187.58,-338.08 207.49,-326.58"/>
<polygon fill="midnightblue" stroke="midnightblue" points="209.36,-329.54 216.27,-321.51 205.86,-323.48 209.36,-329.54"/>
</g>
<!-- Node21 -->
<g id="node21" class="node">
<title>Node21</title>
<g id="a_node21"><a xlink:title=" ">
<polygon fill="none" stroke="#bfbfbf" points="46,-246.5 46,-265.5 104,-265.5 104,-246.5 46,-246.5"/>
<text text-anchor="middle" x="75" y="-253.5" font-family="Helvetica,sans-Serif" font-size="10.00">exception</text>
</a>
</g>
</g>
<!-- Node18&#45;&gt;Node21 -->
<g id="edge30" class="edge">
<title>Node18&#45;&gt;Node21</title>
<path fill="none" stroke="midnightblue" d="M76.88,-365.38C50.4,-358.82 20.28,-346.21 4,-322 -10.3,-300.73 18.03,-281.61 43.04,-269.7"/>
<polygon fill="midnightblue" stroke="midnightblue" points="44.68,-272.8 52.36,-265.5 41.81,-266.42 44.68,-272.8"/>
</g>
<!-- Node22 -->
<g id="node22" class="node">
<title>Node22</title>
<g id="a_node22"><a xlink:title=" ">
<polygon fill="none" stroke="#bfbfbf" points="13.5,-302.5 13.5,-321.5 86.5,-321.5 86.5,-302.5 13.5,-302.5"/>
<text text-anchor="middle" x="50" y="-309.5" font-family="Helvetica,sans-Serif" font-size="10.00">system_error</text>
</a>
</g>
</g>
<!-- Node18&#45;&gt;Node22 -->
<g id="edge31" class="edge">
<title>Node18&#45;&gt;Node22</title>
<path fill="none" stroke="midnightblue" d="M116.83,-363.98C104.43,-354.52 84.21,-339.1 69.26,-327.69"/>
<polygon fill="midnightblue" stroke="midnightblue" points="71.23,-324.79 61.16,-321.51 66.98,-330.36 71.23,-324.79"/>
</g>
<!-- Node23 -->
<g id="node23" class="node">
<title>Node23</title>
<g id="a_node23"><a xlink:title=" ">
<polygon fill="none" stroke="#bfbfbf" points="105,-302.5 105,-321.5 151,-321.5 151,-302.5 105,-302.5"/>
<text text-anchor="middle" x="128" y="-309.5" font-family="Helvetica,sans-Serif" font-size="10.00">variant</text>
</a>
</g>
</g>
<!-- Node18&#45;&gt;Node23 -->
<g id="edge32" class="edge">
<title>Node18&#45;&gt;Node23</title>
<path fill="none" stroke="midnightblue" d="M128,-363.98C128,-355.58 128,-342.48 128,-331.66"/>
<polygon fill="midnightblue" stroke="midnightblue" points="131.5,-331.51 128,-321.51 124.5,-331.51 131.5,-331.51"/>
</g>
<!-- Node19&#45;&gt;Node14 -->
<g id="edge29" class="edge">
<title>Node19&#45;&gt;Node14</title>
<path fill="none" stroke="midnightblue" d="M231.79,-302.45C233.41,-283.96 237,-238.87 237,-201 237,-201 237,-201 237,-137.5 237,-88.93 282.34,-47.09 310.38,-25.87"/>
<polygon fill="midnightblue" stroke="midnightblue" points="312.78,-28.44 318.79,-19.72 308.65,-22.79 312.78,-28.44"/>
</g>
<!-- Node20 -->
<g id="node20" class="node">
<title>Node20</title>
<g id="a_node20"><a xlink:title=" ">
<polygon fill="none" stroke="#bfbfbf" points="270.5,-246.5 270.5,-265.5 319.5,-265.5 319.5,-246.5 270.5,-246.5"/>
<text text-anchor="middle" x="295" y="-253.5" font-family="Helvetica,sans-Serif" font-size="10.00">cassert</text>
</a>
</g>
</g>
<!-- Node19&#45;&gt;Node20 -->
<g id="edge27" class="edge">
<title>Node19&#45;&gt;Node20</title>
<path fill="none" stroke="midnightblue" d="M241.28,-302.32C250.84,-294.26 265.28,-282.08 276.79,-272.37"/>
<polygon fill="midnightblue" stroke="midnightblue" points="279.15,-274.96 284.53,-265.83 274.63,-269.61 279.15,-274.96"/>
</g>
<!-- Node19&#45;&gt;Node21 -->
<g id="edge28" class="edge">
<title>Node19&#45;&gt;Node21</title>
<path fill="none" stroke="midnightblue" d="M206.28,-302.44C180.15,-293.4 138.74,-279.06 109.42,-268.92"/>
<polygon fill="midnightblue" stroke="midnightblue" points="110.2,-265.48 99.6,-265.52 107.91,-272.1 110.2,-265.48"/>
</g>
<!-- Node24&#45;&gt;Node2 -->
<g id="edge38" class="edge">
<title>Node24&#45;&gt;Node2</title>
<path fill="none" stroke="midnightblue" d="M361.13,-645.75C362.66,-652.86 363.11,-663.14 362.47,-672.1"/>
<polygon fill="midnightblue" stroke="midnightblue" points="358.99,-671.71 361.17,-682.08 365.94,-672.62 358.99,-671.71"/>
</g>
<!-- Node24&#45;&gt;Node3 -->
<g id="edge35" class="edge">
<title>Node24&#45;&gt;Node3</title>
<path fill="none" stroke="midnightblue" d="M354.76,-626.44C350.71,-598.45 337.77,-509.03 331.49,-465.61"/>
<polygon fill="midnightblue" stroke="midnightblue" points="334.94,-465.03 330.05,-455.63 328.01,-466.03 334.94,-465.03"/>
</g>
<!-- Node24&#45;&gt;Node5 -->
<g id="edge36" class="edge">
<title>Node24&#45;&gt;Node5</title>
<path fill="none" stroke="midnightblue" d="M355.54,-626.39C354.71,-602.72 355.27,-535.5 385,-492 432.72,-422.17 488.71,-452.12 545,-389 572.53,-358.14 579.83,-343.31 578,-302 577.62,-293.37 576.83,-283.84 576.05,-275.78"/>
<polygon fill="midnightblue" stroke="midnightblue" points="579.5,-275.2 575,-265.61 572.54,-275.92 579.5,-275.2"/>
</g>
<!-- Node24&#45;&gt;Node19 -->
<g id="edge37" class="edge">
<title>Node24&#45;&gt;Node19</title>
<path fill="none" stroke="midnightblue" d="M351.21,-626.29C337.3,-600.77 296.32,-523.66 271,-456 254.64,-412.29 241.42,-358.88 235.07,-331.35"/>
<polygon fill="midnightblue" stroke="midnightblue" points="238.47,-330.52 232.85,-321.54 231.65,-332.07 238.47,-330.52"/>
</g>
<!-- Node24&#45;&gt;Node25 -->
<g id="edge39" class="edge">
<title>Node24&#45;&gt;Node25</title>
<path fill="none" stroke="midnightblue" d="M368.32,-626.48C379.97,-618.42 397.88,-606.02 413.13,-595.47"/>
<polygon fill="midnightblue" stroke="midnightblue" points="415.5,-598.09 421.73,-589.52 411.52,-592.33 415.5,-598.09"/>
</g>
<!-- Node24&#45;&gt;Node32 -->
<g id="edge52" class="edge">
<title>Node24&#45;&gt;Node32</title>
<path fill="none" stroke="midnightblue" d="M384.66,-626.48C414.4,-617.63 461.72,-603.55 499.1,-592.43"/>
<polygon fill="midnightblue" stroke="midnightblue" points="500.28,-595.73 508.87,-589.52 498.28,-589.02 500.28,-595.73"/>
</g>
<!-- Node25&#45;&gt;Node20 -->
<g id="edge51" class="edge">
<title>Node25&#45;&gt;Node20</title>
<path fill="none" stroke="midnightblue" d="M465.88,-559.41C478.25,-550.66 492.16,-538.19 499,-523 504.66,-510.44 503.82,-504.91 499,-492 479.3,-439.24 356.39,-316.56 311.44,-272.83"/>
<polygon fill="midnightblue" stroke="midnightblue" points="313.84,-270.29 304.23,-265.84 308.97,-275.31 313.84,-270.29"/>
</g>
<!-- Node26 -->
<g id="node26" class="node">
<title>Node26</title>
<g id="a_node26"><a xlink:href="wait_8hpp.html" target="_top" xlink:title=" ">
<polygon fill="none" stroke="black" points="546.5,-498 546.5,-517 647.5,-517 647.5,-498 546.5,-498"/>
<text text-anchor="middle" x="597" y="-505" font-family="Helvetica,sans-Serif" font-size="10.00">yaclib/algo/wait.hpp</text>
</a>
</g>
</g>
<!-- Node25&#45;&gt;Node26 -->
<g id="edge40" class="edge">
<title>Node25&#45;&gt;Node26</title>
<path fill="none" stroke="midnightblue" d="M475.63,-559.4C502.95,-547.94 541.11,-531.94 567.31,-520.95"/>
<polygon fill="midnightblue" stroke="midnightblue" points="568.85,-524.1 576.72,-517.01 566.14,-517.65 568.85,-524.1"/>
</g>
<!-- Node31 -->
<g id="node31" class="node">
<title>Node31</title>
<g id="a_node31"><a xlink:href="core_8hpp.html" target="_top" xlink:title=" ">
<polygon fill="none" stroke="black" points="394,-492.5 394,-522.5 490,-522.5 490,-492.5 394,-492.5"/>
<text text-anchor="start" x="402" y="-510.5" font-family="Helvetica,sans-Serif" font-size="10.00">yaclib/async/detail</text>
<text text-anchor="middle" x="442" y="-499.5" font-family="Helvetica,sans-Serif" font-size="10.00">/core.hpp</text>
</a>
</g>
</g>
<!-- Node25&#45;&gt;Node31 -->
<g id="edge49" class="edge">
<title>Node25&#45;&gt;Node31</title>
<path fill="none" stroke="midnightblue" d="M442,-559.4C442,-551.64 442,-541.81 442,-532.86"/>
<polygon fill="midnightblue" stroke="midnightblue" points="445.5,-532.58 442,-522.58 438.5,-532.58 445.5,-532.58"/>
</g>
<!-- Node27 -->
<g id="node27" class="node">
<title>Node27</title>
<g id="a_node27"><a xlink:href="wait__impl_8hpp.html" target="_top" xlink:title=" ">
<polygon fill="none" stroke="black" points="552.5,-425.5 552.5,-455.5 641.5,-455.5 641.5,-425.5 552.5,-425.5"/>
<text text-anchor="start" x="560.5" y="-443.5" font-family="Helvetica,sans-Serif" font-size="10.00">yaclib/algo/detail</text>
<text text-anchor="middle" x="597" y="-432.5" font-family="Helvetica,sans-Serif" font-size="10.00">/wait_impl.hpp</text>
</a>
</g>
</g>
<!-- Node26&#45;&gt;Node27 -->
<g id="edge41" class="edge">
<title>Node26&#45;&gt;Node27</title>
<path fill="none" stroke="midnightblue" d="M597,-497.73C597,-489.54 597,-476.92 597,-465.71"/>
<polygon fill="midnightblue" stroke="midnightblue" points="600.5,-465.59 597,-455.59 593.5,-465.59 600.5,-465.59"/>
</g>
<!-- Node27&#45;&gt;Node4 -->
<g id="edge42" class="edge">
<title>Node27&#45;&gt;Node4</title>
<path fill="none" stroke="midnightblue" d="M573.35,-425.4C557.92,-416.2 537.58,-404.07 520.63,-393.95"/>
<polygon fill="midnightblue" stroke="midnightblue" points="521.99,-390.69 511.61,-388.58 518.4,-396.7 521.99,-390.69"/>
</g>
<!-- Node27&#45;&gt;Node8 -->
<g id="edge47" class="edge">
<title>Node27&#45;&gt;Node8</title>
<path fill="none" stroke="midnightblue" d="M641.77,-434C685.13,-427.45 751.92,-414.09 805,-389 855.79,-364.99 906,-369.18 906,-313 906,-313 906,-313 906,-199 906,-139.92 837.01,-102.55 793.24,-84.78"/>
<polygon fill="midnightblue" stroke="midnightblue" points="794.37,-81.46 783.78,-81.08 791.82,-87.98 794.37,-81.46"/>
</g>
<!-- Node27&#45;&gt;Node19 -->
<g id="edge48" class="edge">
<title>Node27&#45;&gt;Node19</title>
<path fill="none" stroke="midnightblue" d="M552.35,-426.81C518.78,-417.05 471.76,-402.93 431,-389 370.37,-368.29 300.65,-340.98 261.61,-325.37"/>
<polygon fill="midnightblue" stroke="midnightblue" points="262.73,-322.05 252.14,-321.58 260.12,-328.55 262.73,-322.05"/>
</g>
<!-- Node28 -->
<g id="node28" class="node">
<title>Node28</title>
<g id="a_node28"><a xlink:href="wait__core_8hpp.html" target="_top" xlink:title=" ">
<polygon fill="none" stroke="black" points="700,-358.5 700,-388.5 796,-388.5 796,-358.5 700,-358.5"/>
<text text-anchor="start" x="708" y="-376.5" font-family="Helvetica,sans-Serif" font-size="10.00">yaclib/async/detail</text>
<text text-anchor="middle" x="748" y="-365.5" font-family="Helvetica,sans-Serif" font-size="10.00">/wait_core.hpp</text>
</a>
</g>
</g>
<!-- Node27&#45;&gt;Node28 -->
<g id="edge43" class="edge">
<title>Node27&#45;&gt;Node28</title>
<path fill="none" stroke="midnightblue" d="M629.77,-425.4C652.13,-415.77 681.94,-402.94 706.04,-392.56"/>
<polygon fill="midnightblue" stroke="midnightblue" points="707.5,-395.75 715.3,-388.58 704.73,-389.32 707.5,-395.75"/>
</g>
<!-- Node28&#45;&gt;Node12 -->
<g id="edge44" class="edge">
<title>Node28&#45;&gt;Node12</title>
<path fill="none" stroke="midnightblue" d="M785.9,-358.42C811.41,-348.08 841.68,-333.84 849,-322 853.67,-314.44 852.41,-310.21 849,-302 792.73,-166.48 639.29,-61.37 580.42,-24.9"/>
<polygon fill="midnightblue" stroke="midnightblue" points="582.18,-21.86 571.82,-19.64 578.53,-27.84 582.18,-21.86"/>
</g>
<!-- Node29 -->
<g id="node29" class="node">
<title>Node29</title>
<g id="a_node29"><a xlink:title=" ">
<polygon fill="none" stroke="#bfbfbf" points="744.5,-302.5 744.5,-321.5 839.5,-321.5 839.5,-302.5 744.5,-302.5"/>
<text text-anchor="middle" x="792" y="-309.5" font-family="Helvetica,sans-Serif" font-size="10.00">condition_variable</text>
</a>
</g>
</g>
<!-- Node28&#45;&gt;Node29 -->
<g id="edge45" class="edge">
<title>Node28&#45;&gt;Node29</title>
<path fill="none" stroke="midnightblue" d="M758.43,-358.4C764.76,-349.84 772.87,-338.87 779.54,-329.86"/>
<polygon fill="midnightblue" stroke="midnightblue" points="782.47,-331.78 785.6,-321.66 776.84,-327.62 782.47,-331.78"/>
</g>
<!-- Node30 -->
<g id="node30" class="node">
<title>Node30</title>
<g id="a_node30"><a xlink:title=" ">
<polygon fill="none" stroke="#bfbfbf" points="683.5,-302.5 683.5,-321.5 726.5,-321.5 726.5,-302.5 683.5,-302.5"/>
<text text-anchor="middle" x="705" y="-309.5" font-family="Helvetica,sans-Serif" font-size="10.00">mutex</text>
</a>
</g>
</g>
<!-- Node28&#45;&gt;Node30 -->
<g id="edge46" class="edge">
<title>Node28&#45;&gt;Node30</title>
<path fill="none" stroke="midnightblue" d="M737.81,-358.4C731.63,-349.84 723.7,-338.87 717.18,-329.86"/>
<polygon fill="midnightblue" stroke="midnightblue" points="719.95,-327.71 711.26,-321.66 714.28,-331.81 719.95,-327.71"/>
</g>
<!-- Node31&#45;&gt;Node3 -->
<g id="edge50" class="edge">
<title>Node31&#45;&gt;Node3</title>
<path fill="none" stroke="midnightblue" d="M417.27,-492.4C400.98,-483.11 379.46,-470.84 361.63,-460.67"/>
<polygon fill="midnightblue" stroke="midnightblue" points="363.11,-457.49 352.69,-455.58 359.64,-463.57 363.11,-457.49"/>
</g>
</g>
</svg>
