<?xml version="1.0" encoding="UTF-8" standalone="no"?>
<!DOCTYPE svg PUBLIC "-//W3C//DTD SVG 1.1//EN"
 "http://www.w3.org/Graphics/SVG/1.1/DTD/svg11.dtd">
<!-- Generated by graphviz version 2.44.0 ()
 -->
<!-- Title: include/yaclib/util/ref.hpp Pages: 1 -->
<!--zoomable 910 -->
<svg id="main" version="1.1" xmlns="http://www.w3.org/2000/svg" xmlns:xlink="http://www.w3.org/1999/xlink" xml:space="preserve" onload="init(evt)">
<style type="text/css"><![CDATA[
.edge:hover path { stroke: red; }
.edge:hover polygon { stroke: red; fill: red; }
]]></style>
<script type="text/javascript"><![CDATA[
var edges = document.getElementsByTagName('g');
if (edges && edges.length) {
  for (var i=0;i<edges.length;i++) {
    if (edges[i].id.substr(0,4)=='edge') {
      edges[i].setAttribute('class','edge');
    }
  }
}
]]></script>
        <defs>
                <circle id="rim" cx="0" cy="0" r="7"/>
                <circle id="rim2" cx="0" cy="0" r="3.5"/>
                <g id="zoomPlus">
                        <use xlink:href="#rim" fill="#404040">
                                <set attributeName="fill" to="#808080" begin="zoomplus.mouseover" end="zoomplus.mouseout"/>
                        </use>
                        <path d="M-4,0h8M0,-4v8" fill="none" stroke="white" stroke-width="1.5" pointer-events="none"/>
                </g>
                <g id="zoomMin">
                        <use xlink:href="#rim" fill="#404040">
                                <set attributeName="fill" to="#808080" begin="zoomminus.mouseover" end="zoomminus.mouseout"/>
                        </use>
                        <path d="M-4,0h8" fill="none" stroke="white" stroke-width="1.5" pointer-events="none"/>
                </g>
                <g id="dirArrow">
                        <path fill="none" stroke="white" stroke-width="1.5" d="M0,-3.0v7 M-2.5,-0.5L0,-3.0L2.5,-0.5"/>
                </g>
               <g id="resetDef">
                       <use xlink:href="#rim2" fill="#404040">
                               <set attributeName="fill" to="#808080" begin="reset.mouseover" end="reset.mouseout"/>
                       </use>
               </g>
        </defs>

<script type="text/javascript">
var viewWidth = 1474;
var viewHeight = 910;
var sectionId = 'dynsection-0';
</script>
<script xlink:href="svgpan.js"/>
<svg id="graph" class="graph">
<g id="viewport">
<title>include/yaclib/util/ref.hpp</title>
<!-- Node1 -->
<g id="node1" class="node">
<title>Node1</title>
<g id="a_node1"><a xlink:title=" ">
<polygon fill="#bfbfbf" stroke="black" points="611,-871.5 611,-901.5 702,-901.5 702,-871.5 611,-871.5"/>
<text text-anchor="start" x="619" y="-889.5" font-family="Helvetica,sans-Serif" font-size="10.00">include/yaclib/util</text>
<text text-anchor="middle" x="656.5" y="-878.5" font-family="Helvetica,sans-Serif" font-size="10.00">/ref.hpp</text>
</a>
</g>
</g>
<!-- Node2 -->
<g id="node2" class="node">
<title>Node2</title>
<g id="a_node2"><a xlink:href="wait__core_8hpp.html" target="_top" xlink:title=" ">
<polygon fill="none" stroke="black" points="285.5,-804.5 285.5,-834.5 391.5,-834.5 391.5,-804.5 285.5,-804.5"/>
<text text-anchor="start" x="293.5" y="-822.5" font-family="Helvetica,sans-Serif" font-size="10.00">include/yaclib/async</text>
<text text-anchor="middle" x="338.5" y="-811.5" font-family="Helvetica,sans-Serif" font-size="10.00">/detail/wait_core.hpp</text>
</a>
</g>
</g>
<!-- Node1&#45;&gt;Node2 -->
<g id="edge1" class="edge">
<title>Node1&#45;&gt;Node2</title>
<path fill="none" stroke="midnightblue" d="M601.07,-874.17C542.16,-862.13 449.69,-843.23 391.67,-831.37"/>
<polygon fill="midnightblue" stroke="midnightblue" points="600.44,-877.61 610.94,-876.19 601.84,-870.76 600.44,-877.61"/>
</g>
<!-- Node22 -->
<g id="node22" class="node">
<title>Node22</title>
<g id="a_node22"><a xlink:href="func_8hpp.html" target="_top" xlink:title=" ">
<polygon fill="none" stroke="black" points="685,-737.5 685,-767.5 776,-767.5 776,-737.5 685,-737.5"/>
<text text-anchor="start" x="693" y="-755.5" font-family="Helvetica,sans-Serif" font-size="10.00">include/yaclib/util</text>
<text text-anchor="middle" x="730.5" y="-744.5" font-family="Helvetica,sans-Serif" font-size="10.00">/func.hpp</text>
</a>
</g>
</g>
<!-- Node1&#45;&gt;Node22 -->
<g id="edge27" class="edge">
<title>Node1&#45;&gt;Node22</title>
<path fill="none" stroke="midnightblue" d="M685.15,-864.95C694.83,-856.67 704.86,-846.37 711.5,-835 723.95,-813.67 728.25,-784.73 729.72,-767.69"/>
<polygon fill="midnightblue" stroke="midnightblue" points="682.74,-862.4 677.18,-871.42 687.15,-867.84 682.74,-862.4"/>
</g>
<!-- Node41 -->
<g id="node41" class="node">
<title>Node41</title>
<g id="a_node41"><a xlink:href="intrusive__ptr_8hpp.html" target="_top" xlink:title=" ">
<polygon fill="none" stroke="black" points="611,-804.5 611,-834.5 702,-834.5 702,-804.5 611,-804.5"/>
<text text-anchor="start" x="619" y="-822.5" font-family="Helvetica,sans-Serif" font-size="10.00">include/yaclib/util</text>
<text text-anchor="middle" x="656.5" y="-811.5" font-family="Helvetica,sans-Serif" font-size="10.00">/intrusive_ptr.hpp</text>
</a>
</g>
</g>
<!-- Node1&#45;&gt;Node41 -->
<g id="edge64" class="edge">
<title>Node1&#45;&gt;Node41</title>
<path fill="none" stroke="midnightblue" d="M656.5,-861.11C656.5,-852.15 656.5,-842.32 656.5,-834.58"/>
<polygon fill="midnightblue" stroke="midnightblue" points="653,-861.4 656.5,-871.4 660,-861.4 653,-861.4"/>
</g>
<!-- Node3 -->
<g id="node3" class="node">
<title>Node3</title>
<g id="a_node3"><a xlink:href="wait__group_8hpp.html" target="_top" xlink:title=" ">
<polygon fill="none" stroke="black" points="163.5,-737.5 163.5,-767.5 259.5,-767.5 259.5,-737.5 163.5,-737.5"/>
<text text-anchor="start" x="171.5" y="-755.5" font-family="Helvetica,sans-Serif" font-size="10.00">include/yaclib/algo</text>
<text text-anchor="middle" x="211.5" y="-744.5" font-family="Helvetica,sans-Serif" font-size="10.00">/wait_group.hpp</text>
</a>
</g>
</g>
<!-- Node2&#45;&gt;Node3 -->
<g id="edge2" class="edge">
<title>Node2&#45;&gt;Node3</title>
<path fill="none" stroke="midnightblue" d="M301.8,-799.71C281.77,-789.46 257.38,-776.98 239,-767.58"/>
<polygon fill="midnightblue" stroke="midnightblue" points="300.45,-802.96 310.94,-804.4 303.64,-796.72 300.45,-802.96"/>
</g>
<!-- Node5 -->
<g id="node5" class="node">
<title>Node5</title>
<g id="a_node5"><a xlink:href="wait__impl_8hpp.html" target="_top" xlink:title=" ">
<polygon fill="none" stroke="black" points="241,-402.5 241,-432.5 346,-432.5 346,-402.5 241,-402.5"/>
<text text-anchor="start" x="249" y="-420.5" font-family="Helvetica,sans-Serif" font-size="10.00">include/yaclib/algo</text>
<text text-anchor="middle" x="293.5" y="-409.5" font-family="Helvetica,sans-Serif" font-size="10.00">/detail/wait_impl.hpp</text>
</a>
</g>
</g>
<!-- Node2&#45;&gt;Node5 -->
<g id="edge4" class="edge">
<title>Node2&#45;&gt;Node5</title>
<path fill="none" stroke="midnightblue" d="M325.13,-795.47C320.64,-787.04 315.91,-777.28 312.5,-768 299.67,-733.09 293.5,-723.69 293.5,-686.5 293.5,-686.5 293.5,-686.5 293.5,-550.5 293.5,-507.65 293.5,-456.97 293.5,-432.76"/>
<polygon fill="midnightblue" stroke="midnightblue" points="322.12,-797.27 330.01,-804.34 328.25,-793.9 322.12,-797.27"/>
</g>
<!-- Node21 -->
<g id="node21" class="node">
<title>Node21</title>
<g id="a_node21"><a xlink:href="wait__core_8cpp.html" target="_top" xlink:title=" ">
<polygon fill="none" stroke="black" points="321.5,-743 321.5,-762 443.5,-762 443.5,-743 321.5,-743"/>
<text text-anchor="middle" x="382.5" y="-750" font-family="Helvetica,sans-Serif" font-size="10.00">src/async/wait_core.cpp</text>
</a>
</g>
</g>
<!-- Node2&#45;&gt;Node21 -->
<g id="edge26" class="edge">
<title>Node2&#45;&gt;Node21</title>
<path fill="none" stroke="midnightblue" d="M353.75,-795.97C361.63,-784.33 370.79,-770.8 376.61,-762.19"/>
<polygon fill="midnightblue" stroke="midnightblue" points="350.75,-794.15 348.05,-804.4 356.55,-798.08 350.75,-794.15"/>
</g>
<!-- Node4 -->
<g id="node4" class="node">
<title>Node4</title>
<g id="a_node4"><a xlink:href="wait__group_8cpp.html" target="_top" xlink:title=" ">
<polygon fill="none" stroke="black" points="146,-676 146,-695 265,-695 265,-676 146,-676"/>
<text text-anchor="middle" x="205.5" y="-683" font-family="Helvetica,sans-Serif" font-size="10.00">src/algo/wait_group.cpp</text>
</a>
</g>
</g>
<!-- Node3&#45;&gt;Node4 -->
<g id="edge3" class="edge">
<title>Node3&#45;&gt;Node4</title>
<path fill="none" stroke="midnightblue" d="M209.26,-727.25C208.22,-716.02 207.06,-703.38 206.3,-695.19"/>
<polygon fill="midnightblue" stroke="midnightblue" points="205.79,-727.76 210.2,-737.4 212.76,-727.12 205.79,-727.76"/>
</g>
<!-- Node6 -->
<g id="node6" class="node">
<title>Node6</title>
<g id="a_node6"><a xlink:href="wait_8hpp.html" target="_top" xlink:title=" ">
<polygon fill="none" stroke="black" points="359.5,-335.5 359.5,-365.5 455.5,-365.5 455.5,-335.5 359.5,-335.5"/>
<text text-anchor="start" x="367.5" y="-353.5" font-family="Helvetica,sans-Serif" font-size="10.00">include/yaclib/algo</text>
<text text-anchor="middle" x="407.5" y="-342.5" font-family="Helvetica,sans-Serif" font-size="10.00">/wait.hpp</text>
</a>
</g>
</g>
<!-- Node5&#45;&gt;Node6 -->
<g id="edge5" class="edge">
<title>Node5&#45;&gt;Node6</title>
<path fill="none" stroke="midnightblue" d="M327.18,-397.3C345.02,-387.12 366.54,-374.85 382.81,-365.58"/>
<polygon fill="midnightblue" stroke="midnightblue" points="325.19,-394.4 318.24,-402.4 328.66,-400.48 325.19,-394.4"/>
</g>
<!-- Node18 -->
<g id="node18" class="node">
<title>Node18</title>
<g id="a_node18"><a xlink:href="wait__for_8hpp.html" target="_top" xlink:title=" ">
<polygon fill="none" stroke="black" points="131.5,-335.5 131.5,-365.5 227.5,-365.5 227.5,-335.5 131.5,-335.5"/>
<text text-anchor="start" x="139.5" y="-353.5" font-family="Helvetica,sans-Serif" font-size="10.00">include/yaclib/algo</text>
<text text-anchor="middle" x="179.5" y="-342.5" font-family="Helvetica,sans-Serif" font-size="10.00">/wait_for.hpp</text>
</a>
</g>
</g>
<!-- Node5&#45;&gt;Node18 -->
<g id="edge23" class="edge">
<title>Node5&#45;&gt;Node18</title>
<path fill="none" stroke="midnightblue" d="M259.82,-397.3C241.98,-387.12 220.46,-374.85 204.19,-365.58"/>
<polygon fill="midnightblue" stroke="midnightblue" points="258.34,-400.48 268.76,-402.4 261.81,-394.4 258.34,-400.48"/>
</g>
<!-- Node19 -->
<g id="node19" class="node">
<title>Node19</title>
<g id="a_node19"><a xlink:href="wait__until_8hpp.html" target="_top" xlink:title=" ">
<polygon fill="none" stroke="black" points="245.5,-335.5 245.5,-365.5 341.5,-365.5 341.5,-335.5 245.5,-335.5"/>
<text text-anchor="start" x="253.5" y="-353.5" font-family="Helvetica,sans-Serif" font-size="10.00">include/yaclib/algo</text>
<text text-anchor="middle" x="293.5" y="-342.5" font-family="Helvetica,sans-Serif" font-size="10.00">/wait_until.hpp</text>
</a>
</g>
</g>
<!-- Node5&#45;&gt;Node19 -->
<g id="edge24" class="edge">
<title>Node5&#45;&gt;Node19</title>
<path fill="none" stroke="midnightblue" d="M293.5,-392.11C293.5,-383.15 293.5,-373.32 293.5,-365.58"/>
<polygon fill="midnightblue" stroke="midnightblue" points="290,-392.4 293.5,-402.4 297,-392.4 290,-392.4"/>
</g>
<!-- Node20 -->
<g id="node20" class="node">
<title>Node20</title>
<g id="a_node20"><a xlink:href="wait__impl_8cpp.html" target="_top" xlink:title=" ">
<polygon fill="none" stroke="black" points="0,-341 0,-360 113,-360 113,-341 0,-341"/>
<text text-anchor="middle" x="56.5" y="-348" font-family="Helvetica,sans-Serif" font-size="10.00">src/algo/wait_impl.cpp</text>
</a>
</g>
</g>
<!-- Node5&#45;&gt;Node20 -->
<g id="edge25" class="edge">
<title>Node5&#45;&gt;Node20</title>
<path fill="none" stroke="midnightblue" d="M232.72,-399.83C186.34,-387.11 124.34,-370.11 87.6,-360.03"/>
<polygon fill="midnightblue" stroke="midnightblue" points="231.8,-403.21 242.37,-402.48 233.65,-396.46 231.8,-403.21"/>
</g>
<!-- Node7 -->
<g id="node7" class="node">
<title>Node7</title>
<g id="a_node7"><a xlink:href="future__impl_8hpp.html" target="_top" xlink:title=" ">
<polygon fill="none" stroke="black" points="511.5,-268.5 511.5,-298.5 623.5,-298.5 623.5,-268.5 511.5,-268.5"/>
<text text-anchor="start" x="519.5" y="-286.5" font-family="Helvetica,sans-Serif" font-size="10.00">include/yaclib/async</text>
<text text-anchor="middle" x="567.5" y="-275.5" font-family="Helvetica,sans-Serif" font-size="10.00">/detail/future_impl.hpp</text>
</a>
</g>
</g>
<!-- Node6&#45;&gt;Node7 -->
<g id="edge6" class="edge">
<title>Node6&#45;&gt;Node7</title>
<path fill="none" stroke="midnightblue" d="M451.7,-331.54C477.3,-321.14 509.07,-308.24 532.85,-298.58"/>
<polygon fill="midnightblue" stroke="midnightblue" points="450.16,-328.39 442.22,-335.4 452.8,-334.87 450.16,-328.39"/>
</g>
<!-- Node8 -->
<g id="node8" class="node">
<title>Node8</title>
<g id="a_node8"><a xlink:href="future_8hpp.html" target="_top" xlink:title=" ">
<polygon fill="none" stroke="black" points="599.5,-201.5 599.5,-231.5 703.5,-231.5 703.5,-201.5 599.5,-201.5"/>
<text text-anchor="start" x="607.5" y="-219.5" font-family="Helvetica,sans-Serif" font-size="10.00">include/yaclib/async</text>
<text text-anchor="middle" x="651.5" y="-208.5" font-family="Helvetica,sans-Serif" font-size="10.00">/future.hpp</text>
</a>
</g>
</g>
<!-- Node7&#45;&gt;Node8 -->
<g id="edge7" class="edge">
<title>Node7&#45;&gt;Node8</title>
<path fill="none" stroke="midnightblue" d="M593.78,-262.17C606.62,-252.23 621.76,-240.51 633.31,-231.58"/>
<polygon fill="midnightblue" stroke="midnightblue" points="591.49,-259.51 585.73,-268.4 595.78,-265.04 591.49,-259.51"/>
</g>
<!-- Node13 -->
<g id="node13" class="node">
<title>Node13</title>
<g id="a_node13"><a xlink:href="promise_8hpp.html" target="_top" xlink:title=" ">
<polygon fill="none" stroke="black" points="451.5,-134.5 451.5,-164.5 555.5,-164.5 555.5,-134.5 451.5,-134.5"/>
<text text-anchor="start" x="459.5" y="-152.5" font-family="Helvetica,sans-Serif" font-size="10.00">include/yaclib/async</text>
<text text-anchor="middle" x="503.5" y="-141.5" font-family="Helvetica,sans-Serif" font-size="10.00">/promise.hpp</text>
</a>
</g>
</g>
<!-- Node7&#45;&gt;Node13 -->
<g id="edge22" class="edge">
<title>Node7&#45;&gt;Node13</title>
<path fill="none" stroke="midnightblue" d="M556.16,-259.12C542.86,-231.68 521.24,-187.09 510.3,-164.52"/>
<polygon fill="midnightblue" stroke="midnightblue" points="553.14,-260.9 560.65,-268.37 559.44,-257.85 553.14,-260.9"/>
</g>
<!-- Node9 -->
<g id="node9" class="node">
<title>Node9</title>
<g id="a_node9"><a xlink:href="when__any_8hpp.html" target="_top" xlink:title=" ">
<polygon fill="none" stroke="black" points="563.5,-67.5 563.5,-97.5 659.5,-97.5 659.5,-67.5 563.5,-67.5"/>
<text text-anchor="start" x="571.5" y="-85.5" font-family="Helvetica,sans-Serif" font-size="10.00">include/yaclib/algo</text>
<text text-anchor="middle" x="611.5" y="-74.5" font-family="Helvetica,sans-Serif" font-size="10.00">/when_any.hpp</text>
</a>
</g>
</g>
<!-- Node8&#45;&gt;Node9 -->
<g id="edge8" class="edge">
<title>Node8&#45;&gt;Node9</title>
<path fill="none" stroke="midnightblue" d="M624.14,-194.65C615.53,-186.46 607.08,-176.3 602.5,-165 593.46,-142.7 600.28,-114.33 605.96,-97.62"/>
<polygon fill="midnightblue" stroke="midnightblue" points="621.86,-197.3 631.66,-201.33 626.51,-192.07 621.86,-197.3"/>
</g>
<!-- Node11 -->
<g id="node11" class="node">
<title>Node11</title>
<g id="a_node11"><a xlink:href="when__all_8hpp.html" target="_top" xlink:title=" ">
<polygon fill="none" stroke="black" points="719.5,-67.5 719.5,-97.5 815.5,-97.5 815.5,-67.5 719.5,-67.5"/>
<text text-anchor="start" x="727.5" y="-85.5" font-family="Helvetica,sans-Serif" font-size="10.00">include/yaclib/algo</text>
<text text-anchor="middle" x="767.5" y="-74.5" font-family="Helvetica,sans-Serif" font-size="10.00">/when_all.hpp</text>
</a>
</g>
</g>
<!-- Node8&#45;&gt;Node11 -->
<g id="edge10" class="edge">
<title>Node8&#45;&gt;Node11</title>
<path fill="none" stroke="midnightblue" d="M705.92,-197.27C721.7,-189.57 737.6,-179.04 748.5,-165 763.82,-145.26 767.13,-115.25 767.65,-97.69"/>
<polygon fill="midnightblue" stroke="midnightblue" points="704.32,-194.15 696.67,-201.49 707.22,-200.52 704.32,-194.15"/>
</g>
<!-- Node8&#45;&gt;Node13 -->
<g id="edge12" class="edge">
<title>Node8&#45;&gt;Node13</title>
<path fill="none" stroke="midnightblue" d="M604.18,-197.41C579.59,-187.03 550.51,-174.2 529.88,-164.58"/>
<polygon fill="midnightblue" stroke="midnightblue" points="603.13,-200.76 613.71,-201.4 605.84,-194.31 603.13,-200.76"/>
</g>
<!-- Node15 -->
<g id="node15" class="node">
<title>Node15</title>
<g id="a_node15"><a xlink:href="run_8hpp.html" target="_top" xlink:title=" ">
<polygon fill="none" stroke="black" points="795.5,-134.5 795.5,-164.5 899.5,-164.5 899.5,-134.5 795.5,-134.5"/>
<text text-anchor="start" x="803.5" y="-152.5" font-family="Helvetica,sans-Serif" font-size="10.00">include/yaclib/async</text>
<text text-anchor="middle" x="847.5" y="-141.5" font-family="Helvetica,sans-Serif" font-size="10.00">/run.hpp</text>
</a>
</g>
</g>
<!-- Node8&#45;&gt;Node15 -->
<g id="edge17" class="edge">
<title>Node8&#45;&gt;Node15</title>
<path fill="none" stroke="midnightblue" d="M703.58,-198.23C735.29,-187.71 775.28,-174.45 805.05,-164.58"/>
<polygon fill="midnightblue" stroke="midnightblue" points="702.42,-194.93 694.03,-201.4 704.62,-201.57 702.42,-194.93"/>
</g>
<!-- Node17 -->
<g id="node17" class="node">
<title>Node17</title>
<g id="a_node17"><a xlink:href="future__impl_8cpp.html" target="_top" xlink:title=" ">
<polygon fill="none" stroke="black" points="611.5,-140 611.5,-159 739.5,-159 739.5,-140 611.5,-140"/>
<text text-anchor="middle" x="675.5" y="-147" font-family="Helvetica,sans-Serif" font-size="10.00">src/async/future_impl.cpp</text>
</a>
</g>
</g>
<!-- Node8&#45;&gt;Node17 -->
<g id="edge21" class="edge">
<title>Node8&#45;&gt;Node17</title>
<path fill="none" stroke="midnightblue" d="M660.2,-191.94C664.41,-180.54 669.21,-167.55 672.29,-159.19"/>
<polygon fill="midnightblue" stroke="midnightblue" points="656.89,-190.8 656.71,-201.4 663.45,-193.23 656.89,-190.8"/>
</g>
<!-- Node10 -->
<g id="node10" class="node">
<title>Node10</title>
<g id="a_node10"><a xlink:href="when__any_8cpp.html" target="_top" xlink:title=" ">
<polygon fill="none" stroke="black" points="754,-0.5 754,-30.5 855,-30.5 855,-0.5 754,-0.5"/>
<text text-anchor="start" x="762" y="-18.5" font-family="Helvetica,sans-Serif" font-size="10.00">test/example/async</text>
<text text-anchor="middle" x="804.5" y="-7.5" font-family="Helvetica,sans-Serif" font-size="10.00">/when_any.cpp</text>
</a>
</g>
</g>
<!-- Node9&#45;&gt;Node10 -->
<g id="edge9" class="edge">
<title>Node9&#45;&gt;Node10</title>
<path fill="none" stroke="midnightblue" d="M663.19,-64.09C694.34,-53.6 733.51,-40.41 762.7,-30.58"/>
<polygon fill="midnightblue" stroke="midnightblue" points="661.74,-60.89 653.38,-67.4 663.97,-67.52 661.74,-60.89"/>
</g>
<!-- Node12 -->
<g id="node12" class="node">
<title>Node12</title>
<g id="a_node12"><a xlink:href="when__all_8cpp.html" target="_top" xlink:title=" ">
<polygon fill="none" stroke="black" points="873,-0.5 873,-30.5 974,-30.5 974,-0.5 873,-0.5"/>
<text text-anchor="start" x="881" y="-18.5" font-family="Helvetica,sans-Serif" font-size="10.00">test/example/async</text>
<text text-anchor="middle" x="923.5" y="-7.5" font-family="Helvetica,sans-Serif" font-size="10.00">/when_all.cpp</text>
</a>
</g>
</g>
<!-- Node11&#45;&gt;Node12 -->
<g id="edge11" class="edge">
<title>Node11&#45;&gt;Node12</title>
<path fill="none" stroke="midnightblue" d="M810.59,-63.54C835.56,-53.14 866.53,-40.24 889.72,-30.58"/>
<polygon fill="midnightblue" stroke="midnightblue" points="809.23,-60.32 801.35,-67.4 811.93,-66.78 809.23,-60.32"/>
</g>
<!-- Node13&#45;&gt;Node8 -->
<g id="edge15" class="edge">
<title>Node13&#45;&gt;Node8</title>
<path fill="none" stroke="midnightblue" d="M550.75,-168.56C575.33,-178.94 604.41,-191.77 625.06,-201.4"/>
<polygon fill="midnightblue" stroke="midnightblue" points="551.8,-165.21 541.23,-164.58 549.1,-171.67 551.8,-165.21"/>
</g>
<!-- Node13&#45;&gt;Node9 -->
<g id="edge13" class="edge">
<title>Node13&#45;&gt;Node9</title>
<path fill="none" stroke="midnightblue" d="M535.87,-129.02C552.68,-118.9 572.84,-106.77 588.11,-97.58"/>
<polygon fill="midnightblue" stroke="midnightblue" points="533.7,-126.24 526.93,-134.4 537.31,-132.24 533.7,-126.24"/>
</g>
<!-- Node13&#45;&gt;Node11 -->
<g id="edge14" class="edge">
<title>Node13&#45;&gt;Node11</title>
<path fill="none" stroke="midnightblue" d="M565.43,-133.25C612.47,-121.67 676.22,-105.97 719.45,-95.33"/>
<polygon fill="midnightblue" stroke="midnightblue" points="564.53,-129.87 555.66,-135.66 566.2,-136.67 564.53,-129.87"/>
</g>
<!-- Node14 -->
<g id="node14" class="node">
<title>Node14</title>
<g id="a_node14"><a xlink:href="promise__impl_8cpp.html" target="_top" xlink:title=" ">
<polygon fill="none" stroke="black" points="408,-73 408,-92 545,-92 545,-73 408,-73"/>
<text text-anchor="middle" x="476.5" y="-80" font-family="Helvetica,sans-Serif" font-size="10.00">src/async/promise_impl.cpp</text>
</a>
</g>
</g>
<!-- Node13&#45;&gt;Node14 -->
<g id="edge16" class="edge">
<title>Node13&#45;&gt;Node14</title>
<path fill="none" stroke="midnightblue" d="M493.71,-124.94C488.98,-113.54 483.58,-100.55 480.11,-92.19"/>
<polygon fill="midnightblue" stroke="midnightblue" points="490.57,-126.5 497.64,-134.4 497.04,-123.82 490.57,-126.5"/>
</g>
<!-- Node15&#45;&gt;Node10 -->
<g id="edge20" class="edge">
<title>Node15&#45;&gt;Node10</title>
<path fill="none" stroke="midnightblue" d="M841.39,-124.41C837.08,-108.08 830.95,-86.08 824.5,-67 820.27,-54.49 814.69,-40.56 810.49,-30.51"/>
<polygon fill="midnightblue" stroke="midnightblue" points="838.04,-125.43 843.94,-134.23 844.82,-123.67 838.04,-125.43"/>
</g>
<!-- Node15&#45;&gt;Node12 -->
<g id="edge18" class="edge">
<title>Node15&#45;&gt;Node12</title>
<path fill="none" stroke="midnightblue" d="M860.76,-125.48C876.53,-98.07 902.38,-53.19 915.43,-30.52"/>
<polygon fill="midnightblue" stroke="midnightblue" points="857.59,-123.96 855.63,-134.37 863.66,-127.45 857.59,-123.96"/>
</g>
<!-- Node16 -->
<g id="node16" class="node">
<title>Node16</title>
<g id="a_node16"><a xlink:href="simple_8cpp.html" target="_top" xlink:title=" ">
<polygon fill="none" stroke="black" points="913,-67.5 913,-97.5 1014,-97.5 1014,-67.5 913,-67.5"/>
<text text-anchor="start" x="921" y="-85.5" font-family="Helvetica,sans-Serif" font-size="10.00">test/example/async</text>
<text text-anchor="middle" x="963.5" y="-74.5" font-family="Helvetica,sans-Serif" font-size="10.00">/simple.cpp</text>
</a>
</g>
</g>
<!-- Node15&#45;&gt;Node16 -->
<g id="edge19" class="edge">
<title>Node15&#45;&gt;Node16</title>
<path fill="none" stroke="midnightblue" d="M881.77,-129.3C899.92,-119.12 921.82,-106.85 938.38,-97.58"/>
<polygon fill="midnightblue" stroke="midnightblue" points="879.68,-126.45 872.67,-134.4 883.1,-132.56 879.68,-126.45"/>
</g>
<!-- Node23 -->
<g id="node23" class="node">
<title>Node23</title>
<g id="a_node23"><a xlink:href="task_8hpp.html" target="_top" xlink:title=" ">
<polygon fill="none" stroke="black" points="813,-670.5 813,-700.5 928,-700.5 928,-670.5 813,-670.5"/>
<text text-anchor="start" x="821" y="-688.5" font-family="Helvetica,sans-Serif" font-size="10.00">include/yaclib/executor</text>
<text text-anchor="middle" x="870.5" y="-677.5" font-family="Helvetica,sans-Serif" font-size="10.00">/task.hpp</text>
</a>
</g>
</g>
<!-- Node22&#45;&gt;Node23 -->
<g id="edge28" class="edge">
<title>Node22&#45;&gt;Node23</title>
<path fill="none" stroke="midnightblue" d="M770.07,-733.13C792.31,-722.8 819.65,-710.11 840.18,-700.58"/>
<polygon fill="midnightblue" stroke="midnightblue" points="768.47,-730.01 760.88,-737.4 771.42,-736.36 768.47,-730.01"/>
</g>
<!-- Node24 -->
<g id="node24" class="node">
<title>Node24</title>
<g id="a_node24"><a xlink:href="base__core_8hpp.html" target="_top" xlink:title=" ">
<polygon fill="none" stroke="black" points="491,-469.5 491,-499.5 600,-499.5 600,-469.5 491,-469.5"/>
<text text-anchor="start" x="499" y="-487.5" font-family="Helvetica,sans-Serif" font-size="10.00">include/yaclib/async</text>
<text text-anchor="middle" x="545.5" y="-476.5" font-family="Helvetica,sans-Serif" font-size="10.00">/detail/base_core.hpp</text>
</a>
</g>
</g>
<!-- Node23&#45;&gt;Node24 -->
<g id="edge29" class="edge">
<title>Node23&#45;&gt;Node24</title>
<path fill="none" stroke="midnightblue" d="M802.62,-681.77C725.48,-674.59 602.75,-649.92 544.5,-567 530.51,-547.08 535.77,-517.14 540.73,-499.63"/>
<polygon fill="midnightblue" stroke="midnightblue" points="802.46,-685.27 812.72,-682.63 803.06,-678.29 802.46,-685.27"/>
</g>
<!-- Node29 -->
<g id="node29" class="node">
<title>Node29</title>
<g id="a_node29"><a xlink:href="executor_8hpp.html" target="_top" xlink:title=" ">
<polygon fill="none" stroke="black" points="813,-603.5 813,-633.5 928,-633.5 928,-603.5 813,-603.5"/>
<text text-anchor="start" x="821" y="-621.5" font-family="Helvetica,sans-Serif" font-size="10.00">include/yaclib/executor</text>
<text text-anchor="middle" x="870.5" y="-610.5" font-family="Helvetica,sans-Serif" font-size="10.00">/executor.hpp</text>
</a>
</g>
</g>
<!-- Node23&#45;&gt;Node29 -->
<g id="edge39" class="edge">
<title>Node23&#45;&gt;Node29</title>
<path fill="none" stroke="midnightblue" d="M870.5,-660.11C870.5,-651.15 870.5,-641.32 870.5,-633.58"/>
<polygon fill="midnightblue" stroke="midnightblue" points="867,-660.4 870.5,-670.4 874,-660.4 867,-660.4"/>
</g>
<!-- Node38 -->
<g id="node38" class="node">
<title>Node38</title>
<g id="a_node38"><a xlink:href="thread__factory_8hpp.html" target="_top" xlink:title=" ">
<polygon fill="none" stroke="black" points="1166,-603.5 1166,-633.5 1281,-633.5 1281,-603.5 1166,-603.5"/>
<text text-anchor="start" x="1174" y="-621.5" font-family="Helvetica,sans-Serif" font-size="10.00">include/yaclib/executor</text>
<text text-anchor="middle" x="1223.5" y="-610.5" font-family="Helvetica,sans-Serif" font-size="10.00">/thread_factory.hpp</text>
</a>
</g>
</g>
<!-- Node23&#45;&gt;Node38 -->
<g id="edge59" class="edge">
<title>Node23&#45;&gt;Node38</title>
<path fill="none" stroke="midnightblue" d="M937.89,-672.09C1003.85,-659.95 1103.28,-641.64 1165.73,-630.14"/>
<polygon fill="midnightblue" stroke="midnightblue" points="937.2,-668.66 928,-673.91 938.47,-675.54 937.2,-668.66"/>
</g>
<!-- Node40 -->
<g id="node40" class="node">
<title>Node40</title>
<g id="a_node40"><a xlink:href="intrusive__list_8cpp.html" target="_top" xlink:title=" ">
<polygon fill="none" stroke="black" points="1379.5,-536.5 1379.5,-566.5 1465.5,-566.5 1465.5,-536.5 1379.5,-536.5"/>
<text text-anchor="start" x="1387.5" y="-554.5" font-family="Helvetica,sans-Serif" font-size="10.00">src/util/intrusive</text>
<text text-anchor="middle" x="1422.5" y="-543.5" font-family="Helvetica,sans-Serif" font-size="10.00">_list.cpp</text>
</a>
</g>
</g>
<!-- Node23&#45;&gt;Node40 -->
<g id="edge63" class="edge">
<title>Node23&#45;&gt;Node40</title>
<path fill="none" stroke="midnightblue" d="M938.31,-685.22C1023.06,-684.14 1171.42,-675.64 1290.5,-634 1335.24,-618.35 1380.86,-585.7 1404.99,-566.82"/>
<polygon fill="midnightblue" stroke="midnightblue" points="938.27,-681.72 928.3,-685.32 938.33,-688.72 938.27,-681.72"/>
</g>
<!-- Node24&#45;&gt;Node5 -->
<g id="edge30" class="edge">
<title>Node24&#45;&gt;Node5</title>
<path fill="none" stroke="midnightblue" d="M481.3,-466.94C439.4,-456.13 385.39,-442.2 346.05,-432.05"/>
<polygon fill="midnightblue" stroke="midnightblue" points="480.57,-470.37 491.13,-469.48 482.32,-463.59 480.57,-470.37"/>
</g>
<!-- Node25 -->
<g id="node25" class="node">
<title>Node25</title>
<g id="a_node25"><a xlink:href="result__core_8hpp.html" target="_top" xlink:title=" ">
<polygon fill="none" stroke="black" points="489.5,-402.5 489.5,-432.5 601.5,-432.5 601.5,-402.5 489.5,-402.5"/>
<text text-anchor="start" x="497.5" y="-420.5" font-family="Helvetica,sans-Serif" font-size="10.00">include/yaclib/async</text>
<text text-anchor="middle" x="545.5" y="-409.5" font-family="Helvetica,sans-Serif" font-size="10.00">/detail/result_core.hpp</text>
</a>
</g>
</g>
<!-- Node24&#45;&gt;Node25 -->
<g id="edge31" class="edge">
<title>Node24&#45;&gt;Node25</title>
<path fill="none" stroke="midnightblue" d="M545.5,-459.11C545.5,-450.15 545.5,-440.32 545.5,-432.58"/>
<polygon fill="midnightblue" stroke="midnightblue" points="542,-459.4 545.5,-469.4 549,-459.4 542,-459.4"/>
</g>
<!-- Node28 -->
<g id="node28" class="node">
<title>Node28</title>
<g id="a_node28"><a xlink:href="base__core_8cpp.html" target="_top" xlink:title=" ">
<polygon fill="none" stroke="black" points="620,-408 620,-427 745,-427 745,-408 620,-408"/>
<text text-anchor="middle" x="682.5" y="-415" font-family="Helvetica,sans-Serif" font-size="10.00">src/async/base_core.cpp</text>
</a>
</g>
</g>
<!-- Node24&#45;&gt;Node28 -->
<g id="edge38" class="edge">
<title>Node24&#45;&gt;Node28</title>
<path fill="none" stroke="midnightblue" d="M584.56,-464.97C610.88,-452.48 644.36,-436.6 664.57,-427.01"/>
<polygon fill="midnightblue" stroke="midnightblue" points="582.76,-461.95 575.23,-469.4 585.76,-468.27 582.76,-461.95"/>
</g>
<!-- Node25&#45;&gt;Node8 -->
<g id="edge35" class="edge">
<title>Node25&#45;&gt;Node8</title>
<path fill="none" stroke="midnightblue" d="M545.94,-392.29C547.41,-374.77 551.87,-351.39 564.5,-335 585.37,-307.91 611.63,-326.09 632.5,-299 647.75,-279.2 651.09,-249.22 651.63,-231.67"/>
<polygon fill="midnightblue" stroke="midnightblue" points="542.45,-392.14 545.37,-402.33 549.43,-392.54 542.45,-392.14"/>
</g>
<!-- Node25&#45;&gt;Node13 -->
<g id="edge36" class="edge">
<title>Node25&#45;&gt;Node13</title>
<path fill="none" stroke="midnightblue" d="M534.16,-393.12C523.57,-369.88 508.51,-332.91 502.5,-299 493.86,-250.26 498.74,-191.1 501.72,-164.56"/>
<polygon fill="midnightblue" stroke="midnightblue" points="531.13,-394.9 538.53,-402.48 537.47,-391.94 531.13,-394.9"/>
</g>
<!-- Node26 -->
<g id="node26" class="node">
<title>Node26</title>
<g id="a_node26"><a xlink:href="core_8hpp.html" target="_top" xlink:title=" ">
<polygon fill="none" stroke="black" points="573.5,-335.5 573.5,-365.5 677.5,-365.5 677.5,-335.5 573.5,-335.5"/>
<text text-anchor="start" x="581.5" y="-353.5" font-family="Helvetica,sans-Serif" font-size="10.00">include/yaclib/async</text>
<text text-anchor="middle" x="625.5" y="-342.5" font-family="Helvetica,sans-Serif" font-size="10.00">/detail/core.hpp</text>
</a>
</g>
</g>
<!-- Node25&#45;&gt;Node26 -->
<g id="edge32" class="edge">
<title>Node25&#45;&gt;Node26</title>
<path fill="none" stroke="midnightblue" d="M570.87,-395.88C583.03,-386.01 597.28,-374.43 608.18,-365.58"/>
<polygon fill="midnightblue" stroke="midnightblue" points="568.41,-393.37 562.86,-402.4 572.83,-398.81 568.41,-393.37"/>
</g>
<!-- Node27 -->
<g id="node27" class="node">
<title>Node27</title>
<g id="a_node27"><a xlink:href="result__core_8cpp.html" target="_top" xlink:title=" ">
<polygon fill="none" stroke="black" points="695.5,-341 695.5,-360 823.5,-360 823.5,-341 695.5,-341"/>
<text text-anchor="middle" x="759.5" y="-348" font-family="Helvetica,sans-Serif" font-size="10.00">src/async/result_core.cpp</text>
</a>
</g>
</g>
<!-- Node25&#45;&gt;Node27 -->
<g id="edge37" class="edge">
<title>Node25&#45;&gt;Node27</title>
<path fill="none" stroke="midnightblue" d="M601.44,-399.51C643.2,-386.83 698.52,-370.02 731.42,-360.03"/>
<polygon fill="midnightblue" stroke="midnightblue" points="600.22,-396.22 591.67,-402.48 602.26,-402.92 600.22,-396.22"/>
</g>
<!-- Node26&#45;&gt;Node7 -->
<g id="edge33" class="edge">
<title>Node26&#45;&gt;Node7</title>
<path fill="none" stroke="midnightblue" d="M606.08,-327.74C597.5,-318.12 587.66,-307.09 580.06,-298.58"/>
<polygon fill="midnightblue" stroke="midnightblue" points="603.65,-330.26 612.91,-335.4 608.87,-325.6 603.65,-330.26"/>
</g>
<!-- Node26&#45;&gt;Node15 -->
<g id="edge34" class="edge">
<title>Node26&#45;&gt;Node15</title>
<path fill="none" stroke="midnightblue" d="M649.05,-328.39C694.49,-287.65 793.19,-199.18 831.68,-164.68"/>
<polygon fill="midnightblue" stroke="midnightblue" points="646.58,-325.91 641.47,-335.19 651.25,-331.12 646.58,-325.91"/>
</g>
<!-- Node29&#45;&gt;Node8 -->
<g id="edge41" class="edge">
<title>Node29&#45;&gt;Node8</title>
<path fill="none" stroke="midnightblue" d="M864.94,-593.49C859.33,-567.15 851.5,-523.55 851.5,-485.5 851.5,-485.5 851.5,-485.5 851.5,-349.5 851.5,-278.57 762.78,-243.57 703.53,-228.1"/>
<polygon fill="midnightblue" stroke="midnightblue" points="861.54,-594.32 867.1,-603.34 868.37,-592.82 861.54,-594.32"/>
</g>
<!-- Node29&#45;&gt;Node15 -->
<g id="edge42" class="edge">
<title>Node29&#45;&gt;Node15</title>
<path fill="none" stroke="midnightblue" d="M876.06,-593.49C881.67,-567.15 889.5,-523.55 889.5,-485.5 889.5,-485.5 889.5,-485.5 889.5,-282.5 889.5,-237.77 867.33,-188.36 855.2,-164.68"/>
<polygon fill="midnightblue" stroke="midnightblue" points="872.63,-592.82 873.9,-603.34 879.46,-594.32 872.63,-592.82"/>
</g>
<!-- Node29&#45;&gt;Node16 -->
<g id="edge58" class="edge">
<title>Node29&#45;&gt;Node16</title>
<path fill="none" stroke="midnightblue" d="M887.06,-594.83C903.89,-569.5 927.5,-526.63 927.5,-485.5 927.5,-485.5 927.5,-485.5 927.5,-215.5 927.5,-171.32 946.5,-121.66 956.9,-97.8"/>
<polygon fill="midnightblue" stroke="midnightblue" points="884,-593.1 881.22,-603.33 889.77,-597.06 884,-593.1"/>
</g>
<!-- Node29&#45;&gt;Node24 -->
<g id="edge40" class="edge">
<title>Node29&#45;&gt;Node24</title>
<path fill="none" stroke="midnightblue" d="M802.47,-614.66C723.6,-609.96 600.1,-597.78 566.5,-567 547.65,-549.73 544.76,-517.99 544.81,-499.63"/>
<polygon fill="midnightblue" stroke="midnightblue" points="802.63,-618.18 812.81,-615.25 803.03,-611.19 802.63,-618.18"/>
</g>
<!-- Node30 -->
<g id="node30" class="node">
<title>Node30</title>
<g id="a_node30"><a xlink:href="inline_8hpp.html" target="_top" xlink:title=" ">
<polygon fill="none" stroke="black" points="708,-536.5 708,-566.5 823,-566.5 823,-536.5 708,-536.5"/>
<text text-anchor="start" x="716" y="-554.5" font-family="Helvetica,sans-Serif" font-size="10.00">include/yaclib/executor</text>
<text text-anchor="middle" x="765.5" y="-543.5" font-family="Helvetica,sans-Serif" font-size="10.00">/inline.hpp</text>
</a>
</g>
</g>
<!-- Node29&#45;&gt;Node30 -->
<g id="edge43" class="edge">
<title>Node29&#45;&gt;Node30</title>
<path fill="none" stroke="midnightblue" d="M839.02,-598.02C822.68,-587.9 803.09,-575.77 788.24,-566.58"/>
<polygon fill="midnightblue" stroke="midnightblue" points="837.37,-601.11 847.72,-603.4 841.06,-595.16 837.37,-601.11"/>
</g>
<!-- Node32 -->
<g id="node32" class="node">
<title>Node32</title>
<g id="a_node32"><a xlink:href="serial_8hpp.html" target="_top" xlink:title=" ">
<polygon fill="none" stroke="black" points="956,-536.5 956,-566.5 1071,-566.5 1071,-536.5 956,-536.5"/>
<text text-anchor="start" x="964" y="-554.5" font-family="Helvetica,sans-Serif" font-size="10.00">include/yaclib/executor</text>
<text text-anchor="middle" x="1013.5" y="-543.5" font-family="Helvetica,sans-Serif" font-size="10.00">/serial.hpp</text>
</a>
</g>
</g>
<!-- Node29&#45;&gt;Node32 -->
<g id="edge46" class="edge">
<title>Node29&#45;&gt;Node32</title>
<path fill="none" stroke="midnightblue" d="M910.91,-599.13C933.63,-588.8 961.56,-576.11 982.53,-566.58"/>
<polygon fill="midnightblue" stroke="midnightblue" points="909.18,-596.07 901.53,-603.4 912.08,-602.44 909.18,-596.07"/>
</g>
<!-- Node34 -->
<g id="node34" class="node">
<title>Node34</title>
<g id="a_node34"><a xlink:href="thread__pool_8hpp.html" target="_top" xlink:title=" ">
<polygon fill="none" stroke="black" points="1128,-536.5 1128,-566.5 1243,-566.5 1243,-536.5 1128,-536.5"/>
<text text-anchor="start" x="1136" y="-554.5" font-family="Helvetica,sans-Serif" font-size="10.00">include/yaclib/executor</text>
<text text-anchor="middle" x="1185.5" y="-543.5" font-family="Helvetica,sans-Serif" font-size="10.00">/thread_pool.hpp</text>
</a>
</g>
</g>
<!-- Node29&#45;&gt;Node34 -->
<g id="edge49" class="edge">
<title>Node29&#45;&gt;Node34</title>
<path fill="none" stroke="midnightblue" d="M938.19,-603.53C994.68,-591.88 1074.32,-575.44 1127.82,-564.4"/>
<polygon fill="midnightblue" stroke="midnightblue" points="937.36,-600.13 928.28,-605.58 938.78,-606.98 937.36,-600.13"/>
</g>
<!-- Node35 -->
<g id="node35" class="node">
<title>Node35</title>
<g id="a_node35"><a xlink:href="src_2executor_2thread__pool_8cpp.html" target="_top" xlink:title=" ">
<polygon fill="none" stroke="black" points="1123.5,-469.5 1123.5,-499.5 1223.5,-499.5 1223.5,-469.5 1123.5,-469.5"/>
<text text-anchor="start" x="1131.5" y="-487.5" font-family="Helvetica,sans-Serif" font-size="10.00">src/executor/thread</text>
<text text-anchor="middle" x="1173.5" y="-476.5" font-family="Helvetica,sans-Serif" font-size="10.00">_pool.cpp</text>
</a>
</g>
</g>
<!-- Node29&#45;&gt;Node35 -->
<g id="edge57" class="edge">
<title>Node29&#45;&gt;Node35</title>
<path fill="none" stroke="midnightblue" d="M938.38,-609.66C981,-602.73 1036.11,-589.99 1080.5,-567 1089.32,-562.43 1133.96,-521.91 1158.04,-499.78"/>
<polygon fill="midnightblue" stroke="midnightblue" points="937.72,-606.22 928.38,-611.22 938.8,-613.14 937.72,-606.22"/>
</g>
<!-- Node37 -->
<g id="node37" class="node">
<title>Node37</title>
<g id="a_node37"><a xlink:href="src_2executor_2serial_8cpp.html" target="_top" xlink:title=" ">
<polygon fill="none" stroke="black" points="575.5,-542 575.5,-561 689.5,-561 689.5,-542 575.5,-542"/>
<text text-anchor="middle" x="632.5" y="-549" font-family="Helvetica,sans-Serif" font-size="10.00">src/executor/serial.cpp</text>
</a>
</g>
</g>
<!-- Node29&#45;&gt;Node37 -->
<g id="edge56" class="edge">
<title>Node29&#45;&gt;Node37</title>
<path fill="none" stroke="midnightblue" d="M809.46,-600.83C762.88,-588.11 700.63,-571.11 663.73,-561.03"/>
<polygon fill="midnightblue" stroke="midnightblue" points="808.58,-604.22 819.15,-603.48 810.43,-597.46 808.58,-604.22"/>
</g>
<!-- Node30&#45;&gt;Node24 -->
<g id="edge44" class="edge">
<title>Node30&#45;&gt;Node24</title>
<path fill="none" stroke="midnightblue" d="M708.23,-533.58C672.5,-523.02 627.04,-509.59 593.26,-499.61"/>
<polygon fill="midnightblue" stroke="midnightblue" points="707.45,-537 718.03,-536.48 709.44,-530.29 707.45,-537"/>
</g>
<!-- Node31 -->
<g id="node31" class="node">
<title>Node31</title>
<g id="a_node31"><a xlink:href="inline_8cpp.html" target="_top" xlink:title=" ">
<polygon fill="none" stroke="black" points="709,-475 709,-494 822,-494 822,-475 709,-475"/>
<text text-anchor="middle" x="765.5" y="-482" font-family="Helvetica,sans-Serif" font-size="10.00">src/executor/inline.cpp</text>
</a>
</g>
</g>
<!-- Node30&#45;&gt;Node31 -->
<g id="edge45" class="edge">
<title>Node30&#45;&gt;Node31</title>
<path fill="none" stroke="midnightblue" d="M765.5,-526.25C765.5,-515.02 765.5,-502.38 765.5,-494.19"/>
<polygon fill="midnightblue" stroke="midnightblue" points="762,-526.4 765.5,-536.4 769,-526.4 762,-526.4"/>
</g>
<!-- Node32&#45;&gt;Node16 -->
<g id="edge47" class="edge">
<title>Node32&#45;&gt;Node16</title>
<path fill="none" stroke="midnightblue" d="M998.65,-527.91C993.58,-519.43 988.25,-509.53 984.5,-500 970.87,-465.39 965.5,-455.69 965.5,-418.5 965.5,-418.5 965.5,-418.5 965.5,-215.5 965.5,-172.64 964.43,-121.96 963.86,-97.76"/>
<polygon fill="midnightblue" stroke="midnightblue" points="995.71,-529.82 1003.95,-536.48 1001.66,-526.13 995.71,-529.82"/>
</g>
<!-- Node33 -->
<g id="node33" class="node">
<title>Node33</title>
<g id="a_node33"><a xlink:href="test_2example_2executor_2serial_8cpp.html" target="_top" xlink:title=" ">
<polygon fill="none" stroke="black" points="993.5,-469.5 993.5,-499.5 1105.5,-499.5 1105.5,-469.5 993.5,-469.5"/>
<text text-anchor="start" x="1001.5" y="-487.5" font-family="Helvetica,sans-Serif" font-size="10.00">test/example/executor</text>
<text text-anchor="middle" x="1049.5" y="-476.5" font-family="Helvetica,sans-Serif" font-size="10.00">/serial.cpp</text>
</a>
</g>
</g>
<!-- Node32&#45;&gt;Node33 -->
<g id="edge48" class="edge">
<title>Node32&#45;&gt;Node33</title>
<path fill="none" stroke="midnightblue" d="M1026.2,-527.58C1031.37,-518.24 1037.18,-507.75 1041.7,-499.58"/>
<polygon fill="midnightblue" stroke="midnightblue" points="1023.09,-525.95 1021.31,-536.4 1029.22,-529.34 1023.09,-525.95"/>
</g>
<!-- Node34&#45;&gt;Node10 -->
<g id="edge53" class="edge">
<title>Node34&#45;&gt;Node10</title>
<path fill="none" stroke="midnightblue" d="M1210.06,-529.14C1218.29,-520.8 1226.81,-510.68 1232.5,-500 1249.98,-467.17 1251.5,-455.69 1251.5,-418.5 1251.5,-418.5 1251.5,-418.5 1251.5,-148.5 1251.5,31.25 1039.52,-71.96 864.5,-31 861.47,-30.29 858.36,-29.56 855.23,-28.81"/>
<polygon fill="midnightblue" stroke="midnightblue" points="1207.44,-526.8 1202.67,-536.26 1212.3,-531.84 1207.44,-526.8"/>
</g>
<!-- Node34&#45;&gt;Node12 -->
<g id="edge51" class="edge">
<title>Node34&#45;&gt;Node12</title>
<path fill="none" stroke="midnightblue" d="M1252.88,-535.86C1320.92,-521.06 1416.08,-500.32 1416.5,-500 1448.53,-475.14 1457.5,-459.05 1457.5,-418.5 1457.5,-418.5 1457.5,-418.5 1457.5,-148.5 1457.5,-49.54 1107.51,-24.3 974.22,-18.27"/>
<polygon fill="midnightblue" stroke="midnightblue" points="1252.08,-532.45 1243.06,-538 1253.57,-539.29 1252.08,-532.45"/>
</g>
<!-- Node34&#45;&gt;Node16 -->
<g id="edge52" class="edge">
<title>Node34&#45;&gt;Node16</title>
<path fill="none" stroke="midnightblue" d="M1252.87,-535.71C1315.04,-521.91 1398.12,-503 1400.5,-500 1409.06,-489.2 1405.82,-481.71 1400.5,-469 1355.46,-361.28 1213.5,-401.25 1213.5,-284.5 1213.5,-284.5 1213.5,-284.5 1213.5,-215.5 1213.5,-126.17 1087.14,-97.14 1014.09,-87.82"/>
<polygon fill="midnightblue" stroke="midnightblue" points="1252.09,-532.3 1243.08,-537.88 1253.6,-539.13 1252.09,-532.3"/>
</g>
<!-- Node34&#45;&gt;Node33 -->
<g id="edge54" class="edge">
<title>Node34&#45;&gt;Node33</title>
<path fill="none" stroke="midnightblue" d="M1146.78,-531.99C1125.22,-521.69 1098.81,-509.07 1078.95,-499.58"/>
<polygon fill="midnightblue" stroke="midnightblue" points="1145.46,-535.24 1155.99,-536.4 1148.48,-528.93 1145.46,-535.24"/>
</g>
<!-- Node34&#45;&gt;Node35 -->
<g id="edge50" class="edge">
<title>Node34&#45;&gt;Node35</title>
<path fill="none" stroke="midnightblue" d="M1181.05,-526.4C1179.38,-517.37 1177.54,-507.41 1176.1,-499.58"/>
<polygon fill="midnightblue" stroke="midnightblue" points="1177.64,-527.2 1182.9,-536.4 1184.52,-525.93 1177.64,-527.2"/>
</g>
<!-- Node36 -->
<g id="node36" class="node">
<title>Node36</title>
<g id="a_node36"><a xlink:href="test_2example_2executor_2thread__pool_8cpp.html" target="_top" xlink:title=" ">
<polygon fill="none" stroke="black" points="1279.5,-469.5 1279.5,-499.5 1391.5,-499.5 1391.5,-469.5 1279.5,-469.5"/>
<text text-anchor="start" x="1287.5" y="-487.5" font-family="Helvetica,sans-Serif" font-size="10.00">test/example/executor</text>
<text text-anchor="middle" x="1335.5" y="-476.5" font-family="Helvetica,sans-Serif" font-size="10.00">/thread_pool.cpp</text>
</a>
</g>
</g>
<!-- Node34&#45;&gt;Node36 -->
<g id="edge55" class="edge">
<title>Node34&#45;&gt;Node36</title>
<path fill="none" stroke="midnightblue" d="M1227.25,-532.41C1251.2,-522.03 1280.82,-509.2 1303.02,-499.58"/>
<polygon fill="midnightblue" stroke="midnightblue" points="1225.83,-529.21 1218.05,-536.4 1228.61,-535.63 1225.83,-529.21"/>
</g>
<!-- Node38&#45;&gt;Node34 -->
<g id="edge60" class="edge">
<title>Node38&#45;&gt;Node34</title>
<path fill="none" stroke="midnightblue" d="M1210.1,-594.58C1204.64,-585.24 1198.51,-574.75 1193.73,-566.58"/>
<polygon fill="midnightblue" stroke="midnightblue" points="1207.19,-596.53 1215.25,-603.4 1213.23,-593 1207.19,-596.53"/>
</g>
<!-- Node39 -->
<g id="node39" class="node">
<title>Node39</title>
<g id="a_node39"><a xlink:href="thread__factory_8cpp.html" target="_top" xlink:title=" ">
<polygon fill="none" stroke="black" points="1261.5,-536.5 1261.5,-566.5 1361.5,-566.5 1361.5,-536.5 1261.5,-536.5"/>
<text text-anchor="start" x="1269.5" y="-554.5" font-family="Helvetica,sans-Serif" font-size="10.00">src/executor/thread</text>
<text text-anchor="middle" x="1311.5" y="-543.5" font-family="Helvetica,sans-Serif" font-size="10.00">_factory.cpp</text>
</a>
</g>
</g>
<!-- Node38&#45;&gt;Node39 -->
<g id="edge61" class="edge">
<title>Node38&#45;&gt;Node39</title>
<path fill="none" stroke="midnightblue" d="M1250.64,-597.45C1264.18,-587.45 1280.23,-575.6 1292.44,-566.58"/>
<polygon fill="midnightblue" stroke="midnightblue" points="1248.56,-594.64 1242.59,-603.4 1252.72,-600.27 1248.56,-594.64"/>
</g>
<!-- Node38&#45;&gt;Node40 -->
<g id="edge62" class="edge">
<title>Node38&#45;&gt;Node40</title>
<path fill="none" stroke="midnightblue" d="M1276.38,-600.23C1308.57,-589.71 1349.17,-576.45 1379.4,-566.58"/>
<polygon fill="midnightblue" stroke="midnightblue" points="1275.1,-596.96 1266.68,-603.4 1277.27,-603.62 1275.1,-596.96"/>
</g>
<!-- Node41&#45;&gt;Node22 -->
<g id="edge67" class="edge">
<title>Node41&#45;&gt;Node22</title>
<path fill="none" stroke="midnightblue" d="M680.3,-797.6C691.47,-787.78 704.49,-776.34 714.47,-767.58"/>
<polygon fill="midnightblue" stroke="midnightblue" points="677.76,-795.17 672.56,-804.4 682.38,-800.43 677.76,-795.17"/>
</g>
<!-- Node41&#45;&gt;Node24 -->
<g id="edge65" class="edge">
<title>Node41&#45;&gt;Node24</title>
<path fill="none" stroke="midnightblue" d="M601.2,-804.42C546.69,-786.83 471.5,-750.89 471.5,-686.5 471.5,-686.5 471.5,-686.5 471.5,-617.5 471.5,-569.42 509.31,-522.63 530.88,-499.85"/>
<polygon fill="midnightblue" stroke="midnightblue" points="600.18,-807.77 610.77,-807.4 602.26,-801.09 600.18,-807.77"/>
</g>
<!-- Node41&#45;&gt;Node29 -->
<g id="edge66" class="edge">
<title>Node41&#45;&gt;Node29</title>
<path fill="none" stroke="midnightblue" d="M657.56,-794.49C659.41,-777.07 664.22,-753.73 676.5,-737 714.96,-684.63 784.43,-650.96 828.97,-633.63"/>
<polygon fill="midnightblue" stroke="midnightblue" points="654.08,-794.21 656.76,-804.46 661.05,-794.77 654.08,-794.21"/>
</g>
</g>
</svg>
        <g id="navigator" transform="translate(0 0)" fill="#404254">
                <rect fill="#f2f5e9" fill-opacity="0.5" stroke="#606060" stroke-width=".5" x="0" y="0" width="60" height="60"/>
                <use id="zoomplus" xlink:href="#zoomPlus" x="17" y="9" onmousedown="handleZoom(evt,'in')"/>
                <use id="zoomminus" xlink:href="#zoomMin" x="42" y="9" onmousedown="handleZoom(evt,'out')"/>
                <use id="reset" xlink:href="#resetDef" x="30" y="36" onmousedown="handleReset()"/>
                <g id="arrowUp" xlink:href="#dirArrow" transform="translate(30 24)" onmousedown="handlePan(0,-1)">
                  <use xlink:href="#rim" fill="#404040">
                        <set attributeName="fill" to="#808080" begin="arrowUp.mouseover" end="arrowUp.mouseout"/>
                  </use>
                  <path fill="none" stroke="white" stroke-width="1.5" d="M0,-3.0v7 M-2.5,-0.5L0,-3.0L2.5,-0.5"/>
                </g>
                <g id="arrowRight" xlink:href="#dirArrow" transform="rotate(90) translate(36 -43)" onmousedown="handlePan(1,0)">
                  <use xlink:href="#rim" fill="#404040">
                        <set attributeName="fill" to="#808080" begin="arrowRight.mouseover" end="arrowRight.mouseout"/>
                  </use>
                  <path fill="none" stroke="white" stroke-width="1.5" d="M0,-3.0v7 M-2.5,-0.5L0,-3.0L2.5,-0.5"/>
                </g>
                <g id="arrowDown" xlink:href="#dirArrow" transform="rotate(180) translate(-30 -48)" onmousedown="handlePan(0,1)">
                  <use xlink:href="#rim" fill="#404040">
                        <set attributeName="fill" to="#808080" begin="arrowDown.mouseover" end="arrowDown.mouseout"/>
                  </use>
                  <path fill="none" stroke="white" stroke-width="1.5" d="M0,-3.0v7 M-2.5,-0.5L0,-3.0L2.5,-0.5"/>
                </g>
                <g id="arrowLeft" xlink:href="#dirArrow" transform="rotate(270) translate(-36 17)" onmousedown="handlePan(-1,0)">
                  <use xlink:href="#rim" fill="#404040">
                        <set attributeName="fill" to="#808080" begin="arrowLeft.mouseover" end="arrowLeft.mouseout"/>
                  </use>
                  <path fill="none" stroke="white" stroke-width="1.5" d="M0,-3.0v7 M-2.5,-0.5L0,-3.0L2.5,-0.5"/>
                </g>
        </g>
        <svg viewBox="0 0 15 15" width="100%" height="30px" preserveAspectRatio="xMaxYMin meet">
         <g id="arrow_out" transform="scale(0.3 0.3)">
          <a xlink:href="ref_8hpp__dep__incl_org.svg" target="_base">
           <rect id="button" ry="5" rx="5" y="6" x="6" height="38" width="38"
                fill="#f2f5e9" fill-opacity="0.5" stroke="#606060" stroke-width="1.0"/>
           <path id="arrow"
             d="M 11.500037,31.436501 C 11.940474,20.09759 22.043105,11.32322 32.158766,21.979434 L 37.068811,17.246167 C 37.068811,17.246167 37.088388,32 37.088388,32 L 22.160133,31.978069 C 22.160133,31.978069 26.997745,27.140456 26.997745,27.140456 C 18.528582,18.264221 13.291696,25.230495 11.500037,31.436501 z"
             style="fill:#404040;"/>
          </a>
         </g>
        </svg>
</svg>
