<?xml version="1.0" encoding="UTF-8" standalone="no"?>
<!DOCTYPE svg PUBLIC "-//W3C//DTD SVG 1.1//EN"
 "http://www.w3.org/Graphics/SVG/1.1/DTD/svg11.dtd">
<!-- Generated by graphviz version 2.44.0 ()
 -->
<!-- Title: include/yaclib/async/detail/result_core.hpp Pages: 1 -->
<!--zoomable 441 -->
<svg id="main" version="1.1" xmlns="http://www.w3.org/2000/svg" xmlns:xlink="http://www.w3.org/1999/xlink" xml:space="preserve" onload="init(evt)">
<style type="text/css"><![CDATA[
.edge:hover path { stroke: red; }
.edge:hover polygon { stroke: red; fill: red; }
]]></style>
<script type="text/javascript"><![CDATA[
var edges = document.getElementsByTagName('g');
if (edges && edges.length) {
  for (var i=0;i<edges.length;i++) {
    if (edges[i].id.substr(0,4)=='edge') {
      edges[i].setAttribute('class','edge');
    }
  }
}
]]></script>
        <defs>
                <circle id="rim" cx="0" cy="0" r="7"/>
                <circle id="rim2" cx="0" cy="0" r="3.5"/>
                <g id="zoomPlus">
                        <use xlink:href="#rim" fill="#404040">
                                <set attributeName="fill" to="#808080" begin="zoomplus.mouseover" end="zoomplus.mouseout"/>
                        </use>
                        <path d="M-4,0h8M0,-4v8" fill="none" stroke="white" stroke-width="1.5" pointer-events="none"/>
                </g>
                <g id="zoomMin">
                        <use xlink:href="#rim" fill="#404040">
                                <set attributeName="fill" to="#808080" begin="zoomminus.mouseover" end="zoomminus.mouseout"/>
                        </use>
                        <path d="M-4,0h8" fill="none" stroke="white" stroke-width="1.5" pointer-events="none"/>
                </g>
                <g id="dirArrow">
                        <path fill="none" stroke="white" stroke-width="1.5" d="M0,-3.0v7 M-2.5,-0.5L0,-3.0L2.5,-0.5"/>
                </g>
               <g id="resetDef">
                       <use xlink:href="#rim2" fill="#404040">
                               <set attributeName="fill" to="#808080" begin="reset.mouseover" end="reset.mouseout"/>
                       </use>
               </g>
        </defs>

<script type="text/javascript">
var viewWidth = 575;
var viewHeight = 441;
var sectionId = 'dynsection-1';
</script>
<script xlink:href="svgpan.js"/>
<svg id="graph" class="graph">
<g id="viewport">
<title>include/yaclib/async/detail/result_core.hpp</title>
<!-- Node1 -->
<g id="node1" class="node">
<title>Node1</title>
<g id="a_node1"><a xlink:title=" ">
<polygon fill="#bfbfbf" stroke="black" points="271.04,-402.5 271.04,-432.5 383.04,-432.5 383.04,-402.5 271.04,-402.5"/>
<text text-anchor="start" x="279.04" y="-420.5" font-family="Helvetica,sans-Serif" font-size="10.00">include/yaclib/async</text>
<text text-anchor="middle" x="327.04" y="-409.5" font-family="Helvetica,sans-Serif" font-size="10.00">/detail/result_core.hpp</text>
</a>
</g>
</g>
<!-- Node2 -->
<g id="node2" class="node">
<title>Node2</title>
<g id="a_node2"><a xlink:href="core_8hpp.html" target="_top" xlink:title=" ">
<polygon fill="none" stroke="black" points="111.04,-335.5 111.04,-365.5 215.04,-365.5 215.04,-335.5 111.04,-335.5"/>
<text text-anchor="start" x="119.04" y="-353.5" font-family="Helvetica,sans-Serif" font-size="10.00">include/yaclib/async</text>
<text text-anchor="middle" x="163.04" y="-342.5" font-family="Helvetica,sans-Serif" font-size="10.00">/detail/core.hpp</text>
</a>
</g>
</g>
<!-- Node1&#45;&gt;Node2 -->
<g id="edge1" class="edge">
<title>Node1&#45;&gt;Node2</title>
<path fill="none" stroke="midnightblue" d="M282.08,-398.68C255.78,-388.26 223.04,-375.28 198.56,-365.58"/>
<polygon fill="midnightblue" stroke="midnightblue" points="280.87,-401.97 291.45,-402.4 283.45,-395.46 280.87,-401.97"/>
</g>
<!-- Node4 -->
<g id="node4" class="node">
<title>Node4</title>
<g id="a_node4"><a xlink:href="future_8hpp.html" target="_top" xlink:title=" ">
<polygon fill="none" stroke="black" points="216.04,-201.5 216.04,-231.5 320.04,-231.5 320.04,-201.5 216.04,-201.5"/>
<text text-anchor="start" x="224.04" y="-219.5" font-family="Helvetica,sans-Serif" font-size="10.00">include/yaclib/async</text>
<text text-anchor="middle" x="268.04" y="-208.5" font-family="Helvetica,sans-Serif" font-size="10.00">/future.hpp</text>
</a>
</g>
</g>
<!-- Node1&#45;&gt;Node4 -->
<g id="edge20" class="edge">
<title>Node1&#45;&gt;Node4</title>
<path fill="none" stroke="midnightblue" d="M310.08,-394.09C294.11,-371.48 271.3,-334.87 262.04,-299 256.08,-275.92 260.53,-248.03 264.29,-231.59"/>
<polygon fill="midnightblue" stroke="midnightblue" points="307.33,-396.27 316.03,-402.32 313.01,-392.17 307.33,-396.27"/>
</g>
<!-- Node9 -->
<g id="node9" class="node">
<title>Node9</title>
<g id="a_node9"><a xlink:href="promise_8hpp.html" target="_top" xlink:title=" ">
<polygon fill="none" stroke="black" points="359.04,-134.5 359.04,-164.5 463.04,-164.5 463.04,-134.5 359.04,-134.5"/>
<text text-anchor="start" x="367.04" y="-152.5" font-family="Helvetica,sans-Serif" font-size="10.00">include/yaclib/async</text>
<text text-anchor="middle" x="411.04" y="-141.5" font-family="Helvetica,sans-Serif" font-size="10.00">/promise.hpp</text>
</a>
</g>
</g>
<!-- Node1&#45;&gt;Node9 -->
<g id="edge21" class="edge">
<title>Node1&#45;&gt;Node9</title>
<path fill="none" stroke="midnightblue" d="M342.77,-394.19C358.01,-371.39 380.45,-334.4 392.04,-299 407.56,-251.57 410.49,-191.75 410.98,-164.81"/>
<polygon fill="midnightblue" stroke="midnightblue" points="339.86,-392.24 337.13,-402.48 345.65,-396.18 339.86,-392.24"/>
</g>
<!-- Node14 -->
<g id="node14" class="node">
<title>Node14</title>
<g id="a_node14"><a xlink:href="result__core_8cpp.html" target="_top" xlink:title=" ">
<polygon fill="none" stroke="black" points="439.04,-341 439.04,-360 567.04,-360 567.04,-341 439.04,-341"/>
<text text-anchor="middle" x="503.04" y="-348" font-family="Helvetica,sans-Serif" font-size="10.00">src/async/result_core.cpp</text>
</a>
</g>
</g>
<!-- Node1&#45;&gt;Node14 -->
<g id="edge22" class="edge">
<title>Node1&#45;&gt;Node14</title>
<path fill="none" stroke="midnightblue" d="M375.01,-398.78C409.13,-386.18 453.47,-369.81 480.01,-360.01"/>
<polygon fill="midnightblue" stroke="midnightblue" points="373.4,-395.65 365.23,-402.4 375.82,-402.21 373.4,-395.65"/>
</g>
<!-- Node3 -->
<g id="node3" class="node">
<title>Node3</title>
<g id="a_node3"><a xlink:href="future__impl_8hpp.html" target="_top" xlink:title=" ">
<polygon fill="none" stroke="black" points="271.04,-268.5 271.04,-298.5 383.04,-298.5 383.04,-268.5 271.04,-268.5"/>
<text text-anchor="start" x="279.04" y="-286.5" font-family="Helvetica,sans-Serif" font-size="10.00">include/yaclib/async</text>
<text text-anchor="middle" x="327.04" y="-275.5" font-family="Helvetica,sans-Serif" font-size="10.00">/detail/future_impl.hpp</text>
</a>
</g>
</g>
<!-- Node2&#45;&gt;Node3 -->
<g id="edge2" class="edge">
<title>Node2&#45;&gt;Node3</title>
<path fill="none" stroke="midnightblue" d="M208,-331.68C234.3,-321.26 267.04,-308.28 291.52,-298.58"/>
<polygon fill="midnightblue" stroke="midnightblue" points="206.63,-328.46 198.63,-335.4 209.21,-334.97 206.63,-328.46"/>
</g>
<!-- Node11 -->
<g id="node11" class="node">
<title>Node11</title>
<g id="a_node11"><a xlink:href="run_8hpp.html" target="_top" xlink:title=" ">
<polygon fill="none" stroke="black" points="15.04,-134.5 15.04,-164.5 119.04,-164.5 119.04,-134.5 15.04,-134.5"/>
<text text-anchor="start" x="23.04" y="-152.5" font-family="Helvetica,sans-Serif" font-size="10.00">include/yaclib/async</text>
<text text-anchor="middle" x="67.04" y="-141.5" font-family="Helvetica,sans-Serif" font-size="10.00">/run.hpp</text>
</a>
</g>
</g>
<!-- Node2&#45;&gt;Node11 -->
<g id="edge19" class="edge">
<title>Node2&#45;&gt;Node11</title>
<path fill="none" stroke="midnightblue" d="M151.73,-326.06C131.62,-284.38 90.22,-198.54 73.88,-164.68"/>
<polygon fill="midnightblue" stroke="midnightblue" points="148.64,-327.7 156.14,-335.19 154.94,-324.66 148.64,-327.7"/>
</g>
<!-- Node3&#45;&gt;Node4 -->
<g id="edge3" class="edge">
<title>Node3&#45;&gt;Node4</title>
<path fill="none" stroke="midnightblue" d="M307.28,-260.74C298.56,-251.12 288.54,-240.09 280.82,-231.58"/>
<polygon fill="midnightblue" stroke="midnightblue" points="304.92,-263.34 314.24,-268.4 310.11,-258.64 304.92,-263.34"/>
</g>
<!-- Node3&#45;&gt;Node9 -->
<g id="edge18" class="edge">
<title>Node3&#45;&gt;Node9</title>
<path fill="none" stroke="midnightblue" d="M341.46,-259.83C358.88,-232.47 387.63,-187.28 402.11,-164.52"/>
<polygon fill="midnightblue" stroke="midnightblue" points="338.44,-258.06 336.03,-268.37 344.35,-261.82 338.44,-258.06"/>
</g>
<!-- Node5 -->
<g id="node5" class="node">
<title>Node5</title>
<g id="a_node5"><a xlink:href="when__any_8hpp.html" target="_top" xlink:title=" ">
<polygon fill="none" stroke="black" points="286.04,-67.5 286.04,-97.5 382.04,-97.5 382.04,-67.5 286.04,-67.5"/>
<text text-anchor="start" x="294.04" y="-85.5" font-family="Helvetica,sans-Serif" font-size="10.00">include/yaclib/algo</text>
<text text-anchor="middle" x="334.04" y="-74.5" font-family="Helvetica,sans-Serif" font-size="10.00">/when_any.hpp</text>
</a>
</g>
</g>
<!-- Node4&#45;&gt;Node5 -->
<g id="edge4" class="edge">
<title>Node4&#45;&gt;Node5</title>
<path fill="none" stroke="midnightblue" d="M290.45,-194.17C298.24,-185.72 306.42,-175.53 312.04,-165 323.7,-143.15 329.55,-114.63 332.18,-97.77"/>
<polygon fill="midnightblue" stroke="midnightblue" points="287.91,-191.76 283.5,-201.39 292.95,-196.62 287.91,-191.76"/>
</g>
<!-- Node7 -->
<g id="node7" class="node">
<title>Node7</title>
<g id="a_node7"><a xlink:href="when__all_8hpp.html" target="_top" xlink:title=" ">
<polygon fill="none" stroke="black" points="172.04,-67.5 172.04,-97.5 268.04,-97.5 268.04,-67.5 172.04,-67.5"/>
<text text-anchor="start" x="180.04" y="-85.5" font-family="Helvetica,sans-Serif" font-size="10.00">include/yaclib/algo</text>
<text text-anchor="middle" x="220.04" y="-74.5" font-family="Helvetica,sans-Serif" font-size="10.00">/when_all.hpp</text>
</a>
</g>
</g>
<!-- Node4&#45;&gt;Node7 -->
<g id="edge6" class="edge">
<title>Node4&#45;&gt;Node7</title>
<path fill="none" stroke="midnightblue" d="M206.53,-198.26C190.62,-190.7 175.36,-180.02 166.04,-165 151.18,-141.06 178.3,-113.9 199.2,-97.76"/>
<polygon fill="midnightblue" stroke="midnightblue" points="205.37,-201.57 215.93,-202.35 208.16,-195.15 205.37,-201.57"/>
</g>
<!-- Node4&#45;&gt;Node9 -->
<g id="edge8" class="edge">
<title>Node4&#45;&gt;Node9</title>
<path fill="none" stroke="midnightblue" d="M302.6,-196.99C324.34,-186.69 352.27,-174.07 374.4,-164.58"/>
<polygon fill="midnightblue" stroke="midnightblue" points="300.9,-193.92 293.39,-201.4 303.92,-200.24 300.9,-193.92"/>
</g>
<!-- Node4&#45;&gt;Node11 -->
<g id="edge13" class="edge">
<title>Node4&#45;&gt;Node11</title>
<path fill="none" stroke="midnightblue" d="M214.63,-198.23C182.11,-187.71 141.1,-174.45 110.57,-164.58"/>
<polygon fill="midnightblue" stroke="midnightblue" points="213.83,-201.65 224.43,-201.4 215.99,-194.99 213.83,-201.65"/>
</g>
<!-- Node13 -->
<g id="node13" class="node">
<title>Node13</title>
<g id="a_node13"><a xlink:href="future__impl_8cpp.html" target="_top" xlink:title=" ">
<polygon fill="none" stroke="black" points="175.04,-140 175.04,-159 303.04,-159 303.04,-140 175.04,-140"/>
<text text-anchor="middle" x="239.04" y="-147" font-family="Helvetica,sans-Serif" font-size="10.00">src/async/future_impl.cpp</text>
</a>
</g>
</g>
<!-- Node4&#45;&gt;Node13 -->
<g id="edge17" class="edge">
<title>Node4&#45;&gt;Node13</title>
<path fill="none" stroke="midnightblue" d="M257.53,-191.94C252.44,-180.54 246.64,-167.55 242.92,-159.19"/>
<polygon fill="midnightblue" stroke="midnightblue" points="254.48,-193.69 261.75,-201.4 260.87,-190.84 254.48,-193.69"/>
</g>
<!-- Node6 -->
<g id="node6" class="node">
<title>Node6</title>
<g id="a_node6"><a xlink:href="when__any_8cpp.html" target="_top" xlink:title=" ">
<polygon fill="none" stroke="black" points="188.54,-0.5 188.54,-30.5 289.54,-30.5 289.54,-0.5 188.54,-0.5"/>
<text text-anchor="start" x="196.54" y="-18.5" font-family="Helvetica,sans-Serif" font-size="10.00">test/example/async</text>
<text text-anchor="middle" x="239.04" y="-7.5" font-family="Helvetica,sans-Serif" font-size="10.00">/when_any.cpp</text>
</a>
</g>
</g>
<!-- Node5&#45;&gt;Node6 -->
<g id="edge5" class="edge">
<title>Node5&#45;&gt;Node6</title>
<path fill="none" stroke="midnightblue" d="M305.15,-61.73C290.45,-51.68 272.92,-39.68 259.61,-30.58"/>
<polygon fill="midnightblue" stroke="midnightblue" points="303.2,-64.64 313.43,-67.4 307.15,-58.86 303.2,-64.64"/>
</g>
<!-- Node8 -->
<g id="node8" class="node">
<title>Node8</title>
<g id="a_node8"><a xlink:href="when__all_8cpp.html" target="_top" xlink:title=" ">
<polygon fill="none" stroke="black" points="50.54,-0.5 50.54,-30.5 151.54,-30.5 151.54,-0.5 50.54,-0.5"/>
<text text-anchor="start" x="58.54" y="-18.5" font-family="Helvetica,sans-Serif" font-size="10.00">test/example/async</text>
<text text-anchor="middle" x="101.04" y="-7.5" font-family="Helvetica,sans-Serif" font-size="10.00">/when_all.cpp</text>
</a>
</g>
</g>
<!-- Node7&#45;&gt;Node8 -->
<g id="edge7" class="edge">
<title>Node7&#45;&gt;Node8</title>
<path fill="none" stroke="midnightblue" d="M185.39,-62.57C166.67,-52.35 143.95,-39.94 126.81,-30.58"/>
<polygon fill="midnightblue" stroke="midnightblue" points="183.76,-65.67 194.22,-67.4 187.12,-59.53 183.76,-65.67"/>
</g>
<!-- Node9&#45;&gt;Node4 -->
<g id="edge11" class="edge">
<title>Node9&#45;&gt;Node4</title>
<path fill="none" stroke="midnightblue" d="M376.55,-168.98C354.82,-179.28 326.89,-191.9 304.75,-201.4"/>
<polygon fill="midnightblue" stroke="midnightblue" points="378.24,-172.05 385.75,-164.58 375.21,-165.73 378.24,-172.05"/>
</g>
<!-- Node9&#45;&gt;Node5 -->
<g id="edge9" class="edge">
<title>Node9&#45;&gt;Node5</title>
<path fill="none" stroke="midnightblue" d="M386.62,-127.88C374.92,-118.01 361.2,-106.43 350.71,-97.58"/>
<polygon fill="midnightblue" stroke="midnightblue" points="384.43,-130.62 394.33,-134.4 388.95,-125.27 384.43,-130.62"/>
</g>
<!-- Node9&#45;&gt;Node7 -->
<g id="edge10" class="edge">
<title>Node9&#45;&gt;Node7</title>
<path fill="none" stroke="midnightblue" d="M359.89,-131.09C329.05,-120.6 290.29,-107.41 261.4,-97.58"/>
<polygon fill="midnightblue" stroke="midnightblue" points="359,-134.49 369.6,-134.4 361.26,-127.86 359,-134.49"/>
</g>
<!-- Node10 -->
<g id="node10" class="node">
<title>Node10</title>
<g id="a_node10"><a xlink:href="promise__impl_8cpp.html" target="_top" xlink:title=" ">
<polygon fill="none" stroke="black" points="400.54,-73 400.54,-92 537.54,-92 537.54,-73 400.54,-73"/>
<text text-anchor="middle" x="469.04" y="-80" font-family="Helvetica,sans-Serif" font-size="10.00">src/async/promise_impl.cpp</text>
</a>
</g>
</g>
<!-- Node9&#45;&gt;Node10 -->
<g id="edge12" class="edge">
<title>Node9&#45;&gt;Node10</title>
<path fill="none" stroke="midnightblue" d="M430.53,-126.66C441.05,-114.86 453.45,-100.97 461.28,-92.19"/>
<polygon fill="midnightblue" stroke="midnightblue" points="427.67,-124.6 423.62,-134.4 432.89,-129.26 427.67,-124.6"/>
</g>
<!-- Node11&#45;&gt;Node6 -->
<g id="edge16" class="edge">
<title>Node11&#45;&gt;Node6</title>
<path fill="none" stroke="midnightblue" d="M90.13,-127.57C109.19,-110.62 137.21,-86.44 163.04,-67 180.38,-53.95 200.93,-40.4 216.28,-30.63"/>
<polygon fill="midnightblue" stroke="midnightblue" points="87.66,-125.08 82.54,-134.36 92.32,-130.3 87.66,-125.08"/>
</g>
<!-- Node11&#45;&gt;Node8 -->
<g id="edge14" class="edge">
<title>Node11&#45;&gt;Node8</title>
<path fill="none" stroke="midnightblue" d="M31.96,-128.54C21.3,-120.54 10.87,-110.27 5.04,-98 -0.87,-85.56 -2.08,-78.79 5.04,-67 15.36,-49.91 33.59,-38.32 51.41,-30.6"/>
<polygon fill="midnightblue" stroke="midnightblue" points="30.27,-131.63 40.48,-134.47 34.27,-125.88 30.27,-131.63"/>
</g>
<!-- Node12 -->
<g id="node12" class="node">
<title>Node12</title>
<g id="a_node12"><a xlink:href="simple_8cpp.html" target="_top" xlink:title=" ">
<polygon fill="none" stroke="black" points="14.54,-67.5 14.54,-97.5 115.54,-97.5 115.54,-67.5 14.54,-67.5"/>
<text text-anchor="start" x="22.54" y="-85.5" font-family="Helvetica,sans-Serif" font-size="10.00">test/example/async</text>
<text text-anchor="middle" x="65.04" y="-74.5" font-family="Helvetica,sans-Serif" font-size="10.00">/simple.cpp</text>
</a>
</g>
</g>
<!-- Node11&#45;&gt;Node12 -->
<g id="edge15" class="edge">
<title>Node11&#45;&gt;Node12</title>
<path fill="none" stroke="midnightblue" d="M66.29,-124.11C66.01,-115.15 65.71,-105.32 65.47,-97.58"/>
<polygon fill="midnightblue" stroke="midnightblue" points="62.8,-124.51 66.61,-134.4 69.8,-124.29 62.8,-124.51"/>
</g>
</g>
</svg>
        <g id="navigator" transform="translate(0 0)" fill="#404254">
                <rect fill="#f2f5e9" fill-opacity="0.5" stroke="#606060" stroke-width=".5" x="0" y="0" width="60" height="60"/>
                <use id="zoomplus" xlink:href="#zoomPlus" x="17" y="9" onmousedown="handleZoom(evt,'in')"/>
                <use id="zoomminus" xlink:href="#zoomMin" x="42" y="9" onmousedown="handleZoom(evt,'out')"/>
                <use id="reset" xlink:href="#resetDef" x="30" y="36" onmousedown="handleReset()"/>
                <g id="arrowUp" xlink:href="#dirArrow" transform="translate(30 24)" onmousedown="handlePan(0,-1)">
                  <use xlink:href="#rim" fill="#404040">
                        <set attributeName="fill" to="#808080" begin="arrowUp.mouseover" end="arrowUp.mouseout"/>
                  </use>
                  <path fill="none" stroke="white" stroke-width="1.5" d="M0,-3.0v7 M-2.5,-0.5L0,-3.0L2.5,-0.5"/>
                </g>
                <g id="arrowRight" xlink:href="#dirArrow" transform="rotate(90) translate(36 -43)" onmousedown="handlePan(1,0)">
                  <use xlink:href="#rim" fill="#404040">
                        <set attributeName="fill" to="#808080" begin="arrowRight.mouseover" end="arrowRight.mouseout"/>
                  </use>
                  <path fill="none" stroke="white" stroke-width="1.5" d="M0,-3.0v7 M-2.5,-0.5L0,-3.0L2.5,-0.5"/>
                </g>
                <g id="arrowDown" xlink:href="#dirArrow" transform="rotate(180) translate(-30 -48)" onmousedown="handlePan(0,1)">
                  <use xlink:href="#rim" fill="#404040">
                        <set attributeName="fill" to="#808080" begin="arrowDown.mouseover" end="arrowDown.mouseout"/>
                  </use>
                  <path fill="none" stroke="white" stroke-width="1.5" d="M0,-3.0v7 M-2.5,-0.5L0,-3.0L2.5,-0.5"/>
                </g>
                <g id="arrowLeft" xlink:href="#dirArrow" transform="rotate(270) translate(-36 17)" onmousedown="handlePan(-1,0)">
                  <use xlink:href="#rim" fill="#404040">
                        <set attributeName="fill" to="#808080" begin="arrowLeft.mouseover" end="arrowLeft.mouseout"/>
                  </use>
                  <path fill="none" stroke="white" stroke-width="1.5" d="M0,-3.0v7 M-2.5,-0.5L0,-3.0L2.5,-0.5"/>
                </g>
        </g>
        <svg viewBox="0 0 15 15" width="100%" height="30px" preserveAspectRatio="xMaxYMin meet">
         <g id="arrow_out" transform="scale(0.3 0.3)">
          <a xlink:href="result__core_8hpp__dep__incl_org.svg" target="_base">
           <rect id="button" ry="5" rx="5" y="6" x="6" height="38" width="38"
                fill="#f2f5e9" fill-opacity="0.5" stroke="#606060" stroke-width="1.0"/>
           <path id="arrow"
             d="M 11.500037,31.436501 C 11.940474,20.09759 22.043105,11.32322 32.158766,21.979434 L 37.068811,17.246167 C 37.068811,17.246167 37.088388,32 37.088388,32 L 22.160133,31.978069 C 22.160133,31.978069 26.997745,27.140456 26.997745,27.140456 C 18.528582,18.264221 13.291696,25.230495 11.500037,31.436501 z"
             style="fill:#404040;"/>
          </a>
         </g>
        </svg>
</svg>
