<?xml version="1.0" encoding="UTF-8" standalone="no"?>
<!DOCTYPE svg PUBLIC "-//W3C//DTD SVG 1.1//EN"
 "http://www.w3.org/Graphics/SVG/1.1/DTD/svg11.dtd">
<!-- Generated by graphviz version 2.44.0 ()
 -->
<!-- Title: include/yaclib/async/detail/result_core.hpp Pages: 1 -->
<svg width="686pt" height="464pt"
 viewBox="0.00 0.00 686.00 464.00" xmlns="http://www.w3.org/2000/svg" xmlns:xlink="http://www.w3.org/1999/xlink">
<g id="graph0" class="graph" transform="scale(1 1) rotate(0) translate(4 460)">
<title>include/yaclib/async/detail/result_core.hpp</title>
<!-- Node1 -->
<g id="node1" class="node">
<title>Node1</title>
<g id="a_node1"><a xlink:title=" ">
<polygon fill="#bfbfbf" stroke="black" points="302,-425.5 302,-455.5 414,-455.5 414,-425.5 302,-425.5"/>
<text text-anchor="start" x="310" y="-443.5" font-family="Helvetica,sans-Serif" font-size="10.00">include/yaclib/async</text>
<text text-anchor="middle" x="358" y="-432.5" font-family="Helvetica,sans-Serif" font-size="10.00">/detail/result_core.hpp</text>
</a>
</g>
</g>
<!-- Node2 -->
<g id="node2" class="node">
<title>Node2</title>
<g id="a_node2"><a xlink:href="base__core_8hpp.html" target="_top" xlink:title=" ">
<polygon fill="none" stroke="black" points="201,-358.5 201,-388.5 297,-388.5 297,-358.5 201,-358.5"/>
<text text-anchor="start" x="209" y="-376.5" font-family="Helvetica,sans-Serif" font-size="10.00">yaclib/async/detail</text>
<text text-anchor="middle" x="249" y="-365.5" font-family="Helvetica,sans-Serif" font-size="10.00">/base_core.hpp</text>
</a>
</g>
</g>
<!-- Node1&#45;&gt;Node2 -->
<g id="edge1" class="edge">
<title>Node1&#45;&gt;Node2</title>
<path fill="none" stroke="midnightblue" d="M334.35,-425.4C318.92,-416.2 298.58,-404.07 281.62,-393.95"/>
<polygon fill="midnightblue" stroke="midnightblue" points="282.99,-390.69 272.61,-388.58 279.4,-396.7 282.99,-390.69"/>
</g>
<!-- Node16 -->
<g id="node16" class="node">
<title>Node16</title>
<g id="a_node16"><a xlink:href="result_8hpp.html" target="_top" xlink:title=" ">
<polygon fill="none" stroke="black" points="461,-364 461,-383 563,-383 563,-364 461,-364"/>
<text text-anchor="middle" x="512" y="-371" font-family="Helvetica,sans-Serif" font-size="10.00">yaclib/util/result.hpp</text>
</a>
</g>
</g>
<!-- Node1&#45;&gt;Node16 -->
<g id="edge23" class="edge">
<title>Node1&#45;&gt;Node16</title>
<path fill="none" stroke="midnightblue" d="M391.42,-425.4C418.56,-413.94 456.47,-397.94 482.5,-386.95"/>
<polygon fill="midnightblue" stroke="midnightblue" points="483.99,-390.12 491.84,-383.01 481.27,-383.67 483.99,-390.12"/>
</g>
<!-- Node3 -->
<g id="node3" class="node">
<title>Node3</title>
<g id="a_node3"><a xlink:href="executor_8hpp.html" target="_top" xlink:title=" ">
<polygon fill="none" stroke="black" points="152.5,-246.5 152.5,-265.5 291.5,-265.5 291.5,-246.5 152.5,-246.5"/>
<text text-anchor="middle" x="222" y="-253.5" font-family="Helvetica,sans-Serif" font-size="10.00">yaclib/executor/executor.hpp</text>
</a>
</g>
</g>
<!-- Node2&#45;&gt;Node3 -->
<g id="edge2" class="edge">
<title>Node2&#45;&gt;Node3</title>
<path fill="none" stroke="midnightblue" d="M260.73,-358.45C271.26,-344.03 283.82,-321.06 275,-302 269.08,-289.21 257.53,-278.72 246.72,-271.1"/>
<polygon fill="midnightblue" stroke="midnightblue" points="248.62,-268.16 238.33,-265.61 244.79,-274.02 248.62,-268.16"/>
</g>
<!-- Node4 -->
<g id="node4" class="node">
<title>Node4</title>
<g id="a_node4"><a xlink:href="task_8hpp.html" target="_top" xlink:title=" ">
<polygon fill="none" stroke="black" points="98.5,-190.5 98.5,-209.5 219.5,-209.5 219.5,-190.5 98.5,-190.5"/>
<text text-anchor="middle" x="159" y="-197.5" font-family="Helvetica,sans-Serif" font-size="10.00">yaclib/executor/task.hpp</text>
</a>
</g>
</g>
<!-- Node2&#45;&gt;Node4 -->
<g id="edge20" class="edge">
<title>Node2&#45;&gt;Node4</title>
<path fill="none" stroke="midnightblue" d="M200.98,-364.68C175.9,-357.89 147.32,-345.29 132,-322 110.81,-289.77 132.52,-243.37 147.45,-218.43"/>
<polygon fill="midnightblue" stroke="midnightblue" points="150.57,-220.05 152.92,-209.72 144.64,-216.32 150.57,-220.05"/>
</g>
<!-- Node8 -->
<g id="node8" class="node">
<title>Node8</title>
<g id="a_node8"><a xlink:title=" ">
<polygon fill="none" stroke="#bfbfbf" points="0,-0.5 0,-19.5 46,-19.5 46,-0.5 0,-0.5"/>
<text text-anchor="middle" x="23" y="-7.5" font-family="Helvetica,sans-Serif" font-size="10.00">atomic</text>
</a>
</g>
</g>
<!-- Node2&#45;&gt;Node8 -->
<g id="edge22" class="edge">
<title>Node2&#45;&gt;Node8</title>
<path fill="none" stroke="midnightblue" d="M200.79,-368.94C134.42,-361.12 23,-336.2 23,-257 23,-257 23,-257 23,-137.5 23,-99.2 23,-54.38 23,-29.7"/>
<polygon fill="midnightblue" stroke="midnightblue" points="26.5,-29.59 23,-19.59 19.5,-29.59 26.5,-29.59"/>
</g>
<!-- Node9 -->
<g id="node9" class="node">
<title>Node9</title>
<g id="a_node9"><a xlink:href="intrusive__ptr_8hpp.html" target="_top" xlink:title=" ">
<polygon fill="none" stroke="black" points="261.5,-56.5 261.5,-86.5 358.5,-86.5 358.5,-56.5 261.5,-56.5"/>
<text text-anchor="start" x="269.5" y="-74.5" font-family="Helvetica,sans-Serif" font-size="10.00">yaclib/util/intrusive</text>
<text text-anchor="middle" x="310" y="-63.5" font-family="Helvetica,sans-Serif" font-size="10.00">_ptr.hpp</text>
</a>
</g>
</g>
<!-- Node2&#45;&gt;Node9 -->
<g id="edge21" class="edge">
<title>Node2&#45;&gt;Node9</title>
<path fill="none" stroke="midnightblue" d="M268.25,-358.44C292.77,-338.75 332,-300.46 332,-257 332,-257 332,-257 332,-199 332,-162.92 323.2,-121.89 316.74,-96.59"/>
<polygon fill="midnightblue" stroke="midnightblue" points="320.08,-95.55 314.14,-86.78 313.31,-97.34 320.08,-95.55"/>
</g>
<!-- Node15 -->
<g id="node15" class="node">
<title>Node15</title>
<g id="a_node15"><a xlink:href="inline_8hpp.html" target="_top" xlink:title=" ">
<polygon fill="none" stroke="black" points="140.5,-302.5 140.5,-321.5 265.5,-321.5 265.5,-302.5 140.5,-302.5"/>
<text text-anchor="middle" x="203" y="-309.5" font-family="Helvetica,sans-Serif" font-size="10.00">yaclib/executor/inline.hpp</text>
</a>
</g>
</g>
<!-- Node2&#45;&gt;Node15 -->
<g id="edge18" class="edge">
<title>Node2&#45;&gt;Node15</title>
<path fill="none" stroke="midnightblue" d="M238.1,-358.4C231.41,-349.75 222.82,-338.64 215.82,-329.58"/>
<polygon fill="midnightblue" stroke="midnightblue" points="218.58,-327.43 209.69,-321.66 213.04,-331.71 218.58,-327.43"/>
</g>
<!-- Node3&#45;&gt;Node4 -->
<g id="edge3" class="edge">
<title>Node3&#45;&gt;Node4</title>
<path fill="none" stroke="midnightblue" d="M211.88,-246.32C202.47,-238.26 188.26,-226.08 176.93,-216.37"/>
<polygon fill="midnightblue" stroke="midnightblue" points="179.18,-213.68 169.31,-209.83 174.62,-219 179.18,-213.68"/>
</g>
<!-- Node3&#45;&gt;Node9 -->
<g id="edge17" class="edge">
<title>Node3&#45;&gt;Node9</title>
<path fill="none" stroke="midnightblue" d="M226.77,-246.47C236.34,-229.22 258.4,-188.86 275,-154 284.16,-134.77 293.63,-112.53 300.41,-96.15"/>
<polygon fill="midnightblue" stroke="midnightblue" points="303.7,-97.36 304.26,-86.78 297.22,-94.7 303.7,-97.36"/>
</g>
<!-- Node5 -->
<g id="node5" class="node">
<title>Node5</title>
<g id="a_node5"><a xlink:href="func_8hpp.html" target="_top" xlink:title=" ">
<polygon fill="none" stroke="black" points="168.5,-129 168.5,-148 265.5,-148 265.5,-129 168.5,-129"/>
<text text-anchor="middle" x="217" y="-136" font-family="Helvetica,sans-Serif" font-size="10.00">yaclib/util/func.hpp</text>
</a>
</g>
</g>
<!-- Node4&#45;&gt;Node5 -->
<g id="edge4" class="edge">
<title>Node4&#45;&gt;Node5</title>
<path fill="none" stroke="midnightblue" d="M167.31,-190.48C176.18,-181.37 190.45,-166.74 201.42,-155.48"/>
<polygon fill="midnightblue" stroke="midnightblue" points="204.23,-157.61 208.71,-148.01 199.22,-152.73 204.23,-157.61"/>
</g>
<!-- Node14 -->
<g id="node14" class="node">
<title>Node14</title>
<g id="a_node14"><a xlink:href="intrusive__node_8hpp.html" target="_top" xlink:title=" ">
<polygon fill="none" stroke="black" points="53.5,-123.5 53.5,-153.5 150.5,-153.5 150.5,-123.5 53.5,-123.5"/>
<text text-anchor="start" x="61.5" y="-141.5" font-family="Helvetica,sans-Serif" font-size="10.00">yaclib/util/intrusive</text>
<text text-anchor="middle" x="102" y="-130.5" font-family="Helvetica,sans-Serif" font-size="10.00">_node.hpp</text>
</a>
</g>
</g>
<!-- Node4&#45;&gt;Node14 -->
<g id="edge16" class="edge">
<title>Node4&#45;&gt;Node14</title>
<path fill="none" stroke="midnightblue" d="M150.83,-190.48C143.47,-182.79 132.34,-171.17 122.56,-160.96"/>
<polygon fill="midnightblue" stroke="midnightblue" points="124.88,-158.32 115.43,-153.52 119.82,-163.17 124.88,-158.32"/>
</g>
<!-- Node6 -->
<g id="node6" class="node">
<title>Node6</title>
<g id="a_node6"><a xlink:href="counters_8hpp.html" target="_top" xlink:title=" ">
<polygon fill="none" stroke="black" points="51,-62 51,-81 167,-81 167,-62 51,-62"/>
<text text-anchor="middle" x="109" y="-69" font-family="Helvetica,sans-Serif" font-size="10.00">yaclib/util/counters.hpp</text>
</a>
</g>
</g>
<!-- Node5&#45;&gt;Node6 -->
<g id="edge5" class="edge">
<title>Node5&#45;&gt;Node6</title>
<path fill="none" stroke="midnightblue" d="M202.43,-128.73C184.38,-117.87 153.39,-99.22 132.08,-86.39"/>
<polygon fill="midnightblue" stroke="midnightblue" points="133.71,-83.29 123.33,-81.13 130.1,-89.28 133.71,-83.29"/>
</g>
<!-- Node5&#45;&gt;Node9 -->
<g id="edge8" class="edge">
<title>Node5&#45;&gt;Node9</title>
<path fill="none" stroke="midnightblue" d="M229.54,-128.73C242.72,-119.53 263.88,-104.73 281.2,-92.63"/>
<polygon fill="midnightblue" stroke="midnightblue" points="283.65,-95.19 289.84,-86.59 279.64,-89.45 283.65,-95.19"/>
</g>
<!-- Node10 -->
<g id="node10" class="node">
<title>Node10</title>
<g id="a_node10"><a xlink:href="ref_8hpp.html" target="_top" xlink:title=" ">
<polygon fill="none" stroke="black" points="227.5,-0.5 227.5,-19.5 316.5,-19.5 316.5,-0.5 227.5,-0.5"/>
<text text-anchor="middle" x="272" y="-7.5" font-family="Helvetica,sans-Serif" font-size="10.00">yaclib/util/ref.hpp</text>
</a>
</g>
</g>
<!-- Node5&#45;&gt;Node10 -->
<g id="edge13" class="edge">
<title>Node5&#45;&gt;Node10</title>
<path fill="none" stroke="midnightblue" d="M220.78,-128.81C229.69,-108.31 252.15,-56.65 264.16,-29.04"/>
<polygon fill="midnightblue" stroke="midnightblue" points="267.42,-30.32 268.19,-19.76 261,-27.53 267.42,-30.32"/>
</g>
<!-- Node12 -->
<g id="node12" class="node">
<title>Node12</title>
<g id="a_node12"><a xlink:title=" ">
<polygon fill="none" stroke="#bfbfbf" points="408,-0.5 408,-19.5 470,-19.5 470,-0.5 408,-0.5"/>
<text text-anchor="middle" x="439" y="-7.5" font-family="Helvetica,sans-Serif" font-size="10.00">type_traits</text>
</a>
</g>
</g>
<!-- Node5&#45;&gt;Node12 -->
<g id="edge14" class="edge">
<title>Node5&#45;&gt;Node12</title>
<path fill="none" stroke="midnightblue" d="M260.52,-129C292.13,-121.43 334.98,-108.22 368,-87 392.48,-71.27 414.28,-45.23 427.07,-28.09"/>
<polygon fill="midnightblue" stroke="midnightblue" points="430.18,-29.76 433.2,-19.61 424.51,-25.66 430.18,-29.76"/>
</g>
<!-- Node13 -->
<g id="node13" class="node">
<title>Node13</title>
<g id="a_node13"><a xlink:title=" ">
<polygon fill="none" stroke="#bfbfbf" points="170.5,-0.5 170.5,-19.5 209.5,-19.5 209.5,-0.5 170.5,-0.5"/>
<text text-anchor="middle" x="190" y="-7.5" font-family="Helvetica,sans-Serif" font-size="10.00">utility</text>
</a>
</g>
</g>
<!-- Node5&#45;&gt;Node13 -->
<g id="edge15" class="edge">
<title>Node5&#45;&gt;Node13</title>
<path fill="none" stroke="midnightblue" d="M215.14,-128.81C210.81,-108.49 199.94,-57.55 194.01,-29.78"/>
<polygon fill="midnightblue" stroke="midnightblue" points="197.38,-28.8 191.87,-19.76 190.53,-30.27 197.38,-28.8"/>
</g>
<!-- Node7 -->
<g id="node7" class="node">
<title>Node7</title>
<g id="a_node7"><a xlink:title=" ">
<polygon fill="none" stroke="#bfbfbf" points="64,-0.5 64,-19.5 152,-19.5 152,-0.5 64,-0.5"/>
<text text-anchor="middle" x="108" y="-7.5" font-family="Helvetica,sans-Serif" font-size="10.00">yaclib/config.hpp</text>
</a>
</g>
</g>
<!-- Node6&#45;&gt;Node7 -->
<g id="edge6" class="edge">
<title>Node6&#45;&gt;Node7</title>
<path fill="none" stroke="midnightblue" d="M108.86,-61.98C108.72,-53.58 108.5,-40.48 108.31,-29.66"/>
<polygon fill="midnightblue" stroke="midnightblue" points="111.81,-29.45 108.14,-19.51 104.81,-29.57 111.81,-29.45"/>
</g>
<!-- Node6&#45;&gt;Node8 -->
<g id="edge7" class="edge">
<title>Node6&#45;&gt;Node8</title>
<path fill="none" stroke="midnightblue" d="M96.68,-61.98C82.88,-52.43 60.3,-36.81 43.77,-25.37"/>
<polygon fill="midnightblue" stroke="midnightblue" points="45.51,-22.32 35.3,-19.51 41.53,-28.08 45.51,-22.32"/>
</g>
<!-- Node9&#45;&gt;Node10 -->
<g id="edge9" class="edge">
<title>Node9&#45;&gt;Node10</title>
<path fill="none" stroke="midnightblue" d="M300.99,-56.4C295.59,-47.93 288.67,-37.1 282.95,-28.14"/>
<polygon fill="midnightblue" stroke="midnightblue" points="285.86,-26.2 277.53,-19.66 279.96,-29.97 285.86,-26.2"/>
</g>
<!-- Node11 -->
<g id="node11" class="node">
<title>Node11</title>
<g id="a_node11"><a xlink:title=" ">
<polygon fill="none" stroke="#bfbfbf" points="334,-0.5 334,-19.5 390,-19.5 390,-0.5 334,-0.5"/>
<text text-anchor="middle" x="362" y="-7.5" font-family="Helvetica,sans-Serif" font-size="10.00">algorithm</text>
</a>
</g>
</g>
<!-- Node9&#45;&gt;Node11 -->
<g id="edge10" class="edge">
<title>Node9&#45;&gt;Node11</title>
<path fill="none" stroke="midnightblue" d="M322.32,-56.4C329.96,-47.66 339.79,-36.41 347.76,-27.3"/>
<polygon fill="midnightblue" stroke="midnightblue" points="350.49,-29.49 354.43,-19.66 345.22,-24.88 350.49,-29.49"/>
</g>
<!-- Node9&#45;&gt;Node12 -->
<g id="edge11" class="edge">
<title>Node9&#45;&gt;Node12</title>
<path fill="none" stroke="midnightblue" d="M340.57,-56.4C361.93,-46.55 390.22,-33.5 410.98,-23.92"/>
<polygon fill="midnightblue" stroke="midnightblue" points="412.61,-27.02 420.23,-19.66 409.68,-20.67 412.61,-27.02"/>
</g>
<!-- Node9&#45;&gt;Node13 -->
<g id="edge12" class="edge">
<title>Node9&#45;&gt;Node13</title>
<path fill="none" stroke="midnightblue" d="M281.56,-56.4C261.88,-46.64 235.86,-33.74 216.59,-24.18"/>
<polygon fill="midnightblue" stroke="midnightblue" points="217.98,-20.96 207.46,-19.66 214.87,-27.24 217.98,-20.96"/>
</g>
<!-- Node15&#45;&gt;Node3 -->
<g id="edge19" class="edge">
<title>Node15&#45;&gt;Node3</title>
<path fill="none" stroke="midnightblue" d="M206.14,-302.08C208.68,-294.85 212.36,-284.41 215.53,-275.4"/>
<polygon fill="midnightblue" stroke="midnightblue" points="218.9,-276.35 218.92,-265.75 212.3,-274.02 218.9,-276.35"/>
</g>
<!-- Node17 -->
<g id="node17" class="node">
<title>Node17</title>
<g id="a_node17"><a xlink:href="type__traits_8hpp.html" target="_top" xlink:title=" ">
<polygon fill="none" stroke="black" points="360.5,-302.5 360.5,-321.5 483.5,-321.5 483.5,-302.5 360.5,-302.5"/>
<text text-anchor="middle" x="422" y="-309.5" font-family="Helvetica,sans-Serif" font-size="10.00">yaclib/util/type_traits.hpp</text>
</a>
</g>
</g>
<!-- Node16&#45;&gt;Node17 -->
<g id="edge24" class="edge">
<title>Node16&#45;&gt;Node17</title>
<path fill="none" stroke="midnightblue" d="M499.11,-363.98C484.54,-354.34 460.6,-338.52 443.25,-327.05"/>
<polygon fill="midnightblue" stroke="midnightblue" points="445.14,-324.1 434.87,-321.51 441.28,-329.94 445.14,-324.1"/>
</g>
<!-- Node19 -->
<g id="node19" class="node">
<title>Node19</title>
<g id="a_node19"><a xlink:title=" ">
<polygon fill="none" stroke="#bfbfbf" points="475,-246.5 475,-265.5 533,-265.5 533,-246.5 475,-246.5"/>
<text text-anchor="middle" x="504" y="-253.5" font-family="Helvetica,sans-Serif" font-size="10.00">exception</text>
</a>
</g>
</g>
<!-- Node16&#45;&gt;Node19 -->
<g id="edge28" class="edge">
<title>Node16&#45;&gt;Node19</title>
<path fill="none" stroke="midnightblue" d="M511.4,-363.82C510.11,-345.26 507.07,-301.34 505.31,-275.97"/>
<polygon fill="midnightblue" stroke="midnightblue" points="508.79,-275.52 504.61,-265.78 501.81,-276 508.79,-275.52"/>
</g>
<!-- Node20 -->
<g id="node20" class="node">
<title>Node20</title>
<g id="a_node20"><a xlink:title=" ">
<polygon fill="none" stroke="#bfbfbf" points="540.5,-302.5 540.5,-321.5 613.5,-321.5 613.5,-302.5 540.5,-302.5"/>
<text text-anchor="middle" x="577" y="-309.5" font-family="Helvetica,sans-Serif" font-size="10.00">system_error</text>
</a>
</g>
</g>
<!-- Node16&#45;&gt;Node20 -->
<g id="edge29" class="edge">
<title>Node16&#45;&gt;Node20</title>
<path fill="none" stroke="midnightblue" d="M521.31,-363.98C531.45,-354.7 547.86,-339.67 560.25,-328.33"/>
<polygon fill="midnightblue" stroke="midnightblue" points="562.69,-330.84 567.7,-321.51 557.96,-325.68 562.69,-330.84"/>
</g>
<!-- Node21 -->
<g id="node21" class="node">
<title>Node21</title>
<g id="a_node21"><a xlink:title=" ">
<polygon fill="none" stroke="#bfbfbf" points="632,-302.5 632,-321.5 678,-321.5 678,-302.5 632,-302.5"/>
<text text-anchor="middle" x="655" y="-309.5" font-family="Helvetica,sans-Serif" font-size="10.00">variant</text>
</a>
</g>
</g>
<!-- Node16&#45;&gt;Node21 -->
<g id="edge30" class="edge">
<title>Node16&#45;&gt;Node21</title>
<path fill="none" stroke="midnightblue" d="M532.49,-363.98C556.81,-353.86 597.55,-336.9 625.32,-325.35"/>
<polygon fill="midnightblue" stroke="midnightblue" points="626.66,-328.58 634.55,-321.51 623.97,-322.12 626.66,-328.58"/>
</g>
<!-- Node17&#45;&gt;Node12 -->
<g id="edge27" class="edge">
<title>Node17&#45;&gt;Node12</title>
<path fill="none" stroke="midnightblue" d="M424.29,-302.23C428.93,-283.69 439,-239.07 439,-201 439,-201 439,-201 439,-137.5 439,-99.2 439,-54.38 439,-29.7"/>
<polygon fill="midnightblue" stroke="midnightblue" points="442.5,-29.59 439,-19.59 435.5,-29.59 442.5,-29.59"/>
</g>
<!-- Node18 -->
<g id="node18" class="node">
<title>Node18</title>
<g id="a_node18"><a xlink:title=" ">
<polygon fill="none" stroke="#bfbfbf" points="361.5,-246.5 361.5,-265.5 410.5,-265.5 410.5,-246.5 361.5,-246.5"/>
<text text-anchor="middle" x="386" y="-253.5" font-family="Helvetica,sans-Serif" font-size="10.00">cassert</text>
</a>
</g>
</g>
<!-- Node17&#45;&gt;Node18 -->
<g id="edge25" class="edge">
<title>Node17&#45;&gt;Node18</title>
<path fill="none" stroke="midnightblue" d="M416.06,-302.08C411.02,-294.53 403.66,-283.49 397.49,-274.23"/>
<polygon fill="midnightblue" stroke="midnightblue" points="400.29,-272.13 391.83,-265.75 394.47,-276.01 400.29,-272.13"/>
</g>
<!-- Node17&#45;&gt;Node19 -->
<g id="edge26" class="edge">
<title>Node17&#45;&gt;Node19</title>
<path fill="none" stroke="midnightblue" d="M435.17,-302.32C447.85,-293.98 467.23,-281.21 482.21,-271.35"/>
<polygon fill="midnightblue" stroke="midnightblue" points="484.43,-274.08 490.86,-265.65 480.58,-268.23 484.43,-274.08"/>
</g>
</g>
</svg>
