<?xml version="1.0" encoding="UTF-8" standalone="no"?>
<!DOCTYPE svg PUBLIC "-//W3C//DTD SVG 1.1//EN"
 "http://www.w3.org/Graphics/SVG/1.1/DTD/svg11.dtd">
<!-- Generated by graphviz version 2.44.0 ()
 -->
<!-- Title: include/yaclib/async/run.hpp Pages: 1 -->
<svg width="1036pt" height="777pt"
 viewBox="0.00 0.00 1035.50 777.00" xmlns="http://www.w3.org/2000/svg" xmlns:xlink="http://www.w3.org/1999/xlink">
<g id="graph0" class="graph" transform="scale(1 1) rotate(0) translate(4 773)">
<title>include/yaclib/async/run.hpp</title>
<!-- Node1 -->
<g id="node1" class="node">
<title>Node1</title>
<g id="a_node1"><a xlink:title=" ">
<polygon fill="#bfbfbf" stroke="black" points="372.5,-738.5 372.5,-768.5 476.5,-768.5 476.5,-738.5 372.5,-738.5"/>
<text text-anchor="start" x="380.5" y="-756.5" font-family="Helvetica,sans-Serif" font-size="10.00">include/yaclib/async</text>
<text text-anchor="middle" x="424.5" y="-745.5" font-family="Helvetica,sans-Serif" font-size="10.00">/run.hpp</text>
</a>
</g>
</g>
<!-- Node2 -->
<g id="node2" class="node">
<title>Node2</title>
<g id="a_node2"><a xlink:href="core_8hpp.html" target="_top" xlink:title=" ">
<polygon fill="none" stroke="black" points="502.5,-492.5 502.5,-522.5 598.5,-522.5 598.5,-492.5 502.5,-492.5"/>
<text text-anchor="start" x="510.5" y="-510.5" font-family="Helvetica,sans-Serif" font-size="10.00">yaclib/async/detail</text>
<text text-anchor="middle" x="550.5" y="-499.5" font-family="Helvetica,sans-Serif" font-size="10.00">/core.hpp</text>
</a>
</g>
</g>
<!-- Node1&#45;&gt;Node2 -->
<g id="edge1" class="edge">
<title>Node1&#45;&gt;Node2</title>
<path fill="none" stroke="midnightblue" d="M436.42,-738.28C458.52,-711.2 505.91,-649.59 531.5,-590 539.45,-571.49 544.36,-549.13 547.19,-532.51"/>
<polygon fill="midnightblue" stroke="midnightblue" points="550.67,-532.95 548.77,-522.52 543.75,-531.86 550.67,-532.95"/>
</g>
<!-- Node5 -->
<g id="node5" class="node">
<title>Node5</title>
<g id="a_node5"><a xlink:href="executor_8hpp.html" target="_top" xlink:title=" ">
<polygon fill="none" stroke="black" points="406,-246.5 406,-265.5 545,-265.5 545,-246.5 406,-246.5"/>
<text text-anchor="middle" x="475.5" y="-253.5" font-family="Helvetica,sans-Serif" font-size="10.00">yaclib/executor/executor.hpp</text>
</a>
</g>
</g>
<!-- Node1&#45;&gt;Node5 -->
<g id="edge56" class="edge">
<title>Node1&#45;&gt;Node5</title>
<path fill="none" stroke="midnightblue" d="M476.52,-745.6C536.37,-734.41 626.5,-706.08 626.5,-637 626.5,-637 626.5,-637 626.5,-573.5 626.5,-523.42 596.67,-347.03 561.5,-302 549.79,-287.01 531.7,-276.5 515.12,-269.42"/>
<polygon fill="midnightblue" stroke="midnightblue" points="516.18,-266.07 505.59,-265.64 513.6,-272.58 516.18,-266.07"/>
</g>
<!-- Node19 -->
<g id="node19" class="node">
<title>Node19</title>
<g id="a_node19"><a xlink:href="type__traits_8hpp.html" target="_top" xlink:title=" ">
<polygon fill="none" stroke="black" points="0,-302.5 0,-321.5 123,-321.5 123,-302.5 0,-302.5"/>
<text text-anchor="middle" x="61.5" y="-309.5" font-family="Helvetica,sans-Serif" font-size="10.00">yaclib/util/type_traits.hpp</text>
</a>
</g>
</g>
<!-- Node1&#45;&gt;Node19 -->
<g id="edge57" class="edge">
<title>Node1&#45;&gt;Node19</title>
<path fill="none" stroke="midnightblue" d="M372.33,-746.36C274.55,-733.38 73.5,-699.15 73.5,-637 73.5,-637 73.5,-637 73.5,-439.5 73.5,-401.03 67.93,-356.27 64.38,-331.64"/>
<polygon fill="midnightblue" stroke="midnightblue" points="67.81,-330.94 62.88,-321.56 60.89,-331.97 67.81,-330.94"/>
</g>
<!-- Node24 -->
<g id="node24" class="node">
<title>Node24</title>
<g id="a_node24"><a xlink:href="future_8hpp.html" target="_top" xlink:title=" ">
<polygon fill="none" stroke="black" points="241.5,-682.5 241.5,-701.5 357.5,-701.5 357.5,-682.5 241.5,-682.5"/>
<text text-anchor="middle" x="299.5" y="-689.5" font-family="Helvetica,sans-Serif" font-size="10.00">yaclib/async/future.hpp</text>
</a>
</g>
</g>
<!-- Node1&#45;&gt;Node24 -->
<g id="edge33" class="edge">
<title>Node1&#45;&gt;Node24</title>
<path fill="none" stroke="midnightblue" d="M394.88,-738.4C374.28,-728.59 347.02,-715.62 326.92,-706.05"/>
<polygon fill="midnightblue" stroke="midnightblue" points="328.22,-702.8 317.69,-701.66 325.21,-709.12 328.22,-702.8"/>
</g>
<!-- Node3 -->
<g id="node3" class="node">
<title>Node3</title>
<g id="a_node3"><a xlink:href="result__core_8hpp.html" target="_top" xlink:title=" ">
<polygon fill="none" stroke="black" points="246.5,-425.5 246.5,-455.5 342.5,-455.5 342.5,-425.5 246.5,-425.5"/>
<text text-anchor="start" x="254.5" y="-443.5" font-family="Helvetica,sans-Serif" font-size="10.00">yaclib/async/detail</text>
<text text-anchor="middle" x="294.5" y="-432.5" font-family="Helvetica,sans-Serif" font-size="10.00">/result_core.hpp</text>
</a>
</g>
</g>
<!-- Node2&#45;&gt;Node3 -->
<g id="edge2" class="edge">
<title>Node2&#45;&gt;Node3</title>
<path fill="none" stroke="midnightblue" d="M502.35,-494.27C459.93,-483.5 398.04,-467.79 352.83,-456.31"/>
<polygon fill="midnightblue" stroke="midnightblue" points="353.42,-452.85 342.87,-453.78 351.7,-459.63 353.42,-452.85"/>
</g>
<!-- Node4 -->
<g id="node4" class="node">
<title>Node4</title>
<g id="a_node4"><a xlink:href="base__core_8hpp.html" target="_top" xlink:title=" ">
<polygon fill="none" stroke="black" points="442.5,-358.5 442.5,-388.5 538.5,-388.5 538.5,-358.5 442.5,-358.5"/>
<text text-anchor="start" x="450.5" y="-376.5" font-family="Helvetica,sans-Serif" font-size="10.00">yaclib/async/detail</text>
<text text-anchor="middle" x="490.5" y="-365.5" font-family="Helvetica,sans-Serif" font-size="10.00">/base_core.hpp</text>
</a>
</g>
</g>
<!-- Node3&#45;&gt;Node4 -->
<g id="edge3" class="edge">
<title>Node3&#45;&gt;Node4</title>
<path fill="none" stroke="midnightblue" d="M337.03,-425.4C366.82,-415.52 406.82,-402.25 438.51,-391.74"/>
<polygon fill="midnightblue" stroke="midnightblue" points="439.66,-395.05 448.05,-388.58 437.46,-388.4 439.66,-395.05"/>
</g>
<!-- Node18 -->
<g id="node18" class="node">
<title>Node18</title>
<g id="a_node18"><a xlink:href="result_8hpp.html" target="_top" xlink:title=" ">
<polygon fill="none" stroke="black" points="243.5,-364 243.5,-383 345.5,-383 345.5,-364 243.5,-364"/>
<text text-anchor="middle" x="294.5" y="-371" font-family="Helvetica,sans-Serif" font-size="10.00">yaclib/util/result.hpp</text>
</a>
</g>
</g>
<!-- Node3&#45;&gt;Node18 -->
<g id="edge25" class="edge">
<title>Node3&#45;&gt;Node18</title>
<path fill="none" stroke="midnightblue" d="M294.5,-425.4C294.5,-416.06 294.5,-403.71 294.5,-393.52"/>
<polygon fill="midnightblue" stroke="midnightblue" points="298,-393.19 294.5,-383.19 291,-393.19 298,-393.19"/>
</g>
<!-- Node4&#45;&gt;Node5 -->
<g id="edge4" class="edge">
<title>Node4&#45;&gt;Node5</title>
<path fill="none" stroke="midnightblue" d="M514.84,-358.41C534.89,-344.87 558.25,-323.36 546.5,-302 538.61,-287.66 524.01,-277.25 510.1,-270.08"/>
<polygon fill="midnightblue" stroke="midnightblue" points="511.2,-266.73 500.66,-265.62 508.21,-273.06 511.2,-266.73"/>
</g>
<!-- Node6 -->
<g id="node6" class="node">
<title>Node6</title>
<g id="a_node6"><a xlink:href="task_8hpp.html" target="_top" xlink:title=" ">
<polygon fill="none" stroke="black" points="485,-190.5 485,-209.5 606,-209.5 606,-190.5 485,-190.5"/>
<text text-anchor="middle" x="545.5" y="-197.5" font-family="Helvetica,sans-Serif" font-size="10.00">yaclib/executor/task.hpp</text>
</a>
</g>
</g>
<!-- Node4&#45;&gt;Node6 -->
<g id="edge22" class="edge">
<title>Node4&#45;&gt;Node6</title>
<path fill="none" stroke="midnightblue" d="M521.57,-358.4C554.07,-341.67 603.01,-310.34 622.5,-266 632.86,-242.43 605.85,-224.47 581.02,-213.47"/>
<polygon fill="midnightblue" stroke="midnightblue" points="582.27,-210.2 571.69,-209.59 579.58,-216.66 582.27,-210.2"/>
</g>
<!-- Node10 -->
<g id="node10" class="node">
<title>Node10</title>
<g id="a_node10"><a xlink:title=" ">
<polygon fill="none" stroke="#bfbfbf" points="759.5,-0.5 759.5,-19.5 805.5,-19.5 805.5,-0.5 759.5,-0.5"/>
<text text-anchor="middle" x="782.5" y="-7.5" font-family="Helvetica,sans-Serif" font-size="10.00">atomic</text>
</a>
</g>
</g>
<!-- Node4&#45;&gt;Node10 -->
<g id="edge24" class="edge">
<title>Node4&#45;&gt;Node10</title>
<path fill="none" stroke="midnightblue" d="M538.68,-364.61C594.68,-352.37 679.5,-322.95 679.5,-257 679.5,-257 679.5,-257 679.5,-137.5 679.5,-87.24 729.01,-45.86 759.37,-25.22"/>
<polygon fill="midnightblue" stroke="midnightblue" points="761.31,-28.13 767.74,-19.72 757.46,-22.28 761.31,-28.13"/>
</g>
<!-- Node11 -->
<g id="node11" class="node">
<title>Node11</title>
<g id="a_node11"><a xlink:href="intrusive__ptr_8hpp.html" target="_top" xlink:title=" ">
<polygon fill="none" stroke="black" points="362,-56.5 362,-86.5 459,-86.5 459,-56.5 362,-56.5"/>
<text text-anchor="start" x="370" y="-74.5" font-family="Helvetica,sans-Serif" font-size="10.00">yaclib/util/intrusive</text>
<text text-anchor="middle" x="410.5" y="-63.5" font-family="Helvetica,sans-Serif" font-size="10.00">_ptr.hpp</text>
</a>
</g>
</g>
<!-- Node4&#45;&gt;Node11 -->
<g id="edge23" class="edge">
<title>Node4&#45;&gt;Node11</title>
<path fill="none" stroke="midnightblue" d="M446.6,-358.46C403.92,-341.74 345.5,-309.3 345.5,-257 345.5,-257 345.5,-257 345.5,-199 345.5,-158.8 371.79,-118.57 390.93,-94.61"/>
<polygon fill="midnightblue" stroke="midnightblue" points="393.68,-96.77 397.35,-86.83 388.28,-92.32 393.68,-96.77"/>
</g>
<!-- Node17 -->
<g id="node17" class="node">
<title>Node17</title>
<g id="a_node17"><a xlink:href="inline_8hpp.html" target="_top" xlink:title=" ">
<polygon fill="none" stroke="black" points="412,-302.5 412,-321.5 537,-321.5 537,-302.5 412,-302.5"/>
<text text-anchor="middle" x="474.5" y="-309.5" font-family="Helvetica,sans-Serif" font-size="10.00">yaclib/executor/inline.hpp</text>
</a>
</g>
</g>
<!-- Node4&#45;&gt;Node17 -->
<g id="edge20" class="edge">
<title>Node4&#45;&gt;Node17</title>
<path fill="none" stroke="midnightblue" d="M486.71,-358.4C484.55,-350.38 481.82,-340.23 479.49,-331.57"/>
<polygon fill="midnightblue" stroke="midnightblue" points="482.8,-330.41 476.83,-321.66 476.05,-332.22 482.8,-330.41"/>
</g>
<!-- Node5&#45;&gt;Node6 -->
<g id="edge5" class="edge">
<title>Node5&#45;&gt;Node6</title>
<path fill="none" stroke="midnightblue" d="M486.75,-246.32C497.3,-238.18 513.3,-225.84 525.94,-216.09"/>
<polygon fill="midnightblue" stroke="midnightblue" points="528.27,-218.71 534.05,-209.83 523.99,-213.17 528.27,-218.71"/>
</g>
<!-- Node5&#45;&gt;Node11 -->
<g id="edge19" class="edge">
<title>Node5&#45;&gt;Node11</title>
<path fill="none" stroke="midnightblue" d="M470.98,-246.3C462.19,-229.07 442.56,-189.23 430.5,-154 424,-135 418.7,-112.84 415.19,-96.43"/>
<polygon fill="midnightblue" stroke="midnightblue" points="418.61,-95.65 413.15,-86.56 411.75,-97.06 418.61,-95.65"/>
</g>
<!-- Node7 -->
<g id="node7" class="node">
<title>Node7</title>
<g id="a_node7"><a xlink:href="func_8hpp.html" target="_top" xlink:title=" ">
<polygon fill="none" stroke="black" points="439,-129 439,-148 536,-148 536,-129 439,-129"/>
<text text-anchor="middle" x="487.5" y="-136" font-family="Helvetica,sans-Serif" font-size="10.00">yaclib/util/func.hpp</text>
</a>
</g>
</g>
<!-- Node6&#45;&gt;Node7 -->
<g id="edge6" class="edge">
<title>Node6&#45;&gt;Node7</title>
<path fill="none" stroke="midnightblue" d="M537.19,-190.48C528.32,-181.37 514.05,-166.74 503.08,-155.48"/>
<polygon fill="midnightblue" stroke="midnightblue" points="505.28,-152.73 495.79,-148.01 500.27,-157.61 505.28,-152.73"/>
</g>
<!-- Node16 -->
<g id="node16" class="node">
<title>Node16</title>
<g id="a_node16"><a xlink:href="intrusive__node_8hpp.html" target="_top" xlink:title=" ">
<polygon fill="none" stroke="black" points="554,-123.5 554,-153.5 651,-153.5 651,-123.5 554,-123.5"/>
<text text-anchor="start" x="562" y="-141.5" font-family="Helvetica,sans-Serif" font-size="10.00">yaclib/util/intrusive</text>
<text text-anchor="middle" x="602.5" y="-130.5" font-family="Helvetica,sans-Serif" font-size="10.00">_node.hpp</text>
</a>
</g>
</g>
<!-- Node6&#45;&gt;Node16 -->
<g id="edge18" class="edge">
<title>Node6&#45;&gt;Node16</title>
<path fill="none" stroke="midnightblue" d="M553.67,-190.48C561.03,-182.79 572.16,-171.17 581.94,-160.96"/>
<polygon fill="midnightblue" stroke="midnightblue" points="584.68,-163.17 589.07,-153.52 579.62,-158.32 584.68,-163.17"/>
</g>
<!-- Node8 -->
<g id="node8" class="node">
<title>Node8</title>
<g id="a_node8"><a xlink:href="counters_8hpp.html" target="_top" xlink:title=" ">
<polygon fill="none" stroke="black" points="911.5,-62 911.5,-81 1027.5,-81 1027.5,-62 911.5,-62"/>
<text text-anchor="middle" x="969.5" y="-69" font-family="Helvetica,sans-Serif" font-size="10.00">yaclib/util/counters.hpp</text>
</a>
</g>
</g>
<!-- Node7&#45;&gt;Node8 -->
<g id="edge7" class="edge">
<title>Node7&#45;&gt;Node8</title>
<path fill="none" stroke="midnightblue" d="M518.65,-128.94C527.29,-126.78 536.72,-124.61 545.5,-123 669.91,-100.13 816.84,-85.31 901,-77.97"/>
<polygon fill="midnightblue" stroke="midnightblue" points="901.54,-81.44 911.2,-77.09 900.94,-74.47 901.54,-81.44"/>
</g>
<!-- Node7&#45;&gt;Node11 -->
<g id="edge10" class="edge">
<title>Node7&#45;&gt;Node11</title>
<path fill="none" stroke="midnightblue" d="M477.12,-128.73C466.41,-119.7 449.32,-105.27 435.14,-93.3"/>
<polygon fill="midnightblue" stroke="midnightblue" points="437.09,-90.37 427.19,-86.59 432.57,-95.71 437.09,-90.37"/>
</g>
<!-- Node12 -->
<g id="node12" class="node">
<title>Node12</title>
<g id="a_node12"><a xlink:href="ref_8hpp.html" target="_top" xlink:title=" ">
<polygon fill="none" stroke="black" points="514,-0.5 514,-19.5 603,-19.5 603,-0.5 514,-0.5"/>
<text text-anchor="middle" x="558.5" y="-7.5" font-family="Helvetica,sans-Serif" font-size="10.00">yaclib/util/ref.hpp</text>
</a>
</g>
</g>
<!-- Node7&#45;&gt;Node12 -->
<g id="edge15" class="edge">
<title>Node7&#45;&gt;Node12</title>
<path fill="none" stroke="midnightblue" d="M492.38,-128.81C503.93,-108.22 533.14,-56.19 548.58,-28.68"/>
<polygon fill="midnightblue" stroke="midnightblue" points="551.74,-30.19 553.59,-19.76 545.64,-26.76 551.74,-30.19"/>
</g>
<!-- Node14 -->
<g id="node14" class="node">
<title>Node14</title>
<g id="a_node14"><a xlink:title=" ">
<polygon fill="none" stroke="#bfbfbf" points="302.5,-0.5 302.5,-19.5 364.5,-19.5 364.5,-0.5 302.5,-0.5"/>
<text text-anchor="middle" x="333.5" y="-7.5" font-family="Helvetica,sans-Serif" font-size="10.00">type_traits</text>
</a>
</g>
</g>
<!-- Node7&#45;&gt;Node14 -->
<g id="edge16" class="edge">
<title>Node7&#45;&gt;Node14</title>
<path fill="none" stroke="midnightblue" d="M438.98,-130.85C409.97,-124.39 374.58,-111.73 352.5,-87 338.52,-71.34 334.49,-46.93 333.49,-30.02"/>
<polygon fill="midnightblue" stroke="midnightblue" points="336.98,-29.6 333.21,-19.71 329.99,-29.8 336.98,-29.6"/>
</g>
<!-- Node15 -->
<g id="node15" class="node">
<title>Node15</title>
<g id="a_node15"><a xlink:title=" ">
<polygon fill="none" stroke="#bfbfbf" points="457,-0.5 457,-19.5 496,-19.5 496,-0.5 457,-0.5"/>
<text text-anchor="middle" x="476.5" y="-7.5" font-family="Helvetica,sans-Serif" font-size="10.00">utility</text>
</a>
</g>
</g>
<!-- Node7&#45;&gt;Node15 -->
<g id="edge17" class="edge">
<title>Node7&#45;&gt;Node15</title>
<path fill="none" stroke="midnightblue" d="M486.74,-128.81C484.98,-108.49 480.55,-57.55 478.13,-29.78"/>
<polygon fill="midnightblue" stroke="midnightblue" points="481.61,-29.41 477.26,-19.76 474.64,-30.02 481.61,-29.41"/>
</g>
<!-- Node9 -->
<g id="node9" class="node">
<title>Node9</title>
<g id="a_node9"><a xlink:title=" ">
<polygon fill="none" stroke="#bfbfbf" points="925.5,-0.5 925.5,-19.5 1013.5,-19.5 1013.5,-0.5 925.5,-0.5"/>
<text text-anchor="middle" x="969.5" y="-7.5" font-family="Helvetica,sans-Serif" font-size="10.00">yaclib/config.hpp</text>
</a>
</g>
</g>
<!-- Node8&#45;&gt;Node9 -->
<g id="edge8" class="edge">
<title>Node8&#45;&gt;Node9</title>
<path fill="none" stroke="midnightblue" d="M969.5,-61.98C969.5,-53.58 969.5,-40.48 969.5,-29.66"/>
<polygon fill="midnightblue" stroke="midnightblue" points="973,-29.51 969.5,-19.51 966,-29.51 973,-29.51"/>
</g>
<!-- Node8&#45;&gt;Node10 -->
<g id="edge9" class="edge">
<title>Node8&#45;&gt;Node10</title>
<path fill="none" stroke="midnightblue" d="M942.71,-61.98C909.11,-51.28 851.52,-32.96 815.31,-21.44"/>
<polygon fill="midnightblue" stroke="midnightblue" points="816.3,-18.08 805.71,-18.38 814.17,-24.75 816.3,-18.08"/>
</g>
<!-- Node11&#45;&gt;Node12 -->
<g id="edge11" class="edge">
<title>Node11&#45;&gt;Node12</title>
<path fill="none" stroke="midnightblue" d="M445.57,-56.4C470.52,-46.37 503.71,-33.03 527.64,-23.4"/>
<polygon fill="midnightblue" stroke="midnightblue" points="528.99,-26.64 536.96,-19.66 526.38,-20.14 528.99,-26.64"/>
</g>
<!-- Node13 -->
<g id="node13" class="node">
<title>Node13</title>
<g id="a_node13"><a xlink:title=" ">
<polygon fill="none" stroke="#bfbfbf" points="382.5,-0.5 382.5,-19.5 438.5,-19.5 438.5,-0.5 382.5,-0.5"/>
<text text-anchor="middle" x="410.5" y="-7.5" font-family="Helvetica,sans-Serif" font-size="10.00">algorithm</text>
</a>
</g>
</g>
<!-- Node11&#45;&gt;Node13 -->
<g id="edge12" class="edge">
<title>Node11&#45;&gt;Node13</title>
<path fill="none" stroke="midnightblue" d="M410.5,-56.4C410.5,-48.47 410.5,-38.46 410.5,-29.86"/>
<polygon fill="midnightblue" stroke="midnightblue" points="414,-29.66 410.5,-19.66 407,-29.66 414,-29.66"/>
</g>
<!-- Node11&#45;&gt;Node14 -->
<g id="edge13" class="edge">
<title>Node11&#45;&gt;Node14</title>
<path fill="none" stroke="midnightblue" d="M392.25,-56.4C380.37,-47.22 364.89,-35.26 352.81,-25.92"/>
<polygon fill="midnightblue" stroke="midnightblue" points="354.76,-23 344.7,-19.66 350.48,-28.54 354.76,-23"/>
</g>
<!-- Node11&#45;&gt;Node15 -->
<g id="edge14" class="edge">
<title>Node11&#45;&gt;Node15</title>
<path fill="none" stroke="midnightblue" d="M426.14,-56.4C436.13,-47.4 449.08,-35.72 459.35,-26.47"/>
<polygon fill="midnightblue" stroke="midnightblue" points="461.81,-28.95 466.9,-19.66 457.13,-23.75 461.81,-28.95"/>
</g>
<!-- Node17&#45;&gt;Node5 -->
<g id="edge21" class="edge">
<title>Node17&#45;&gt;Node5</title>
<path fill="none" stroke="midnightblue" d="M474.67,-302.08C474.8,-295.01 474.98,-284.86 475.15,-275.99"/>
<polygon fill="midnightblue" stroke="midnightblue" points="478.65,-275.81 475.34,-265.75 471.65,-275.68 478.65,-275.81"/>
</g>
<!-- Node18&#45;&gt;Node19 -->
<g id="edge26" class="edge">
<title>Node18&#45;&gt;Node19</title>
<path fill="none" stroke="midnightblue" d="M261.12,-363.98C219.94,-353.46 149.85,-335.56 104.63,-324.01"/>
<polygon fill="midnightblue" stroke="midnightblue" points="105.38,-320.59 94.82,-321.51 103.64,-327.37 105.38,-320.59"/>
</g>
<!-- Node21 -->
<g id="node21" class="node">
<title>Node21</title>
<g id="a_node21"><a xlink:title=" ">
<polygon fill="none" stroke="#bfbfbf" points="106.5,-246.5 106.5,-265.5 164.5,-265.5 164.5,-246.5 106.5,-246.5"/>
<text text-anchor="middle" x="135.5" y="-253.5" font-family="Helvetica,sans-Serif" font-size="10.00">exception</text>
</a>
</g>
</g>
<!-- Node18&#45;&gt;Node21 -->
<g id="edge30" class="edge">
<title>Node18&#45;&gt;Node21</title>
<path fill="none" stroke="midnightblue" d="M255.25,-363.95C228.78,-356.53 194.45,-343.51 170.5,-322 156.52,-309.44 147.07,-289.95 141.55,-275.58"/>
<polygon fill="midnightblue" stroke="midnightblue" points="144.72,-274.05 138.08,-265.79 138.12,-276.39 144.72,-274.05"/>
</g>
<!-- Node22 -->
<g id="node22" class="node">
<title>Node22</title>
<g id="a_node22"><a xlink:title=" ">
<polygon fill="none" stroke="#bfbfbf" points="180,-302.5 180,-321.5 253,-321.5 253,-302.5 180,-302.5"/>
<text text-anchor="middle" x="216.5" y="-309.5" font-family="Helvetica,sans-Serif" font-size="10.00">system_error</text>
</a>
</g>
</g>
<!-- Node18&#45;&gt;Node22 -->
<g id="edge31" class="edge">
<title>Node18&#45;&gt;Node22</title>
<path fill="none" stroke="midnightblue" d="M283.32,-363.98C270.93,-354.52 250.71,-339.1 235.75,-327.69"/>
<polygon fill="midnightblue" stroke="midnightblue" points="237.73,-324.79 227.65,-321.51 233.48,-330.36 237.73,-324.79"/>
</g>
<!-- Node23 -->
<g id="node23" class="node">
<title>Node23</title>
<g id="a_node23"><a xlink:title=" ">
<polygon fill="none" stroke="#bfbfbf" points="271.5,-302.5 271.5,-321.5 317.5,-321.5 317.5,-302.5 271.5,-302.5"/>
<text text-anchor="middle" x="294.5" y="-309.5" font-family="Helvetica,sans-Serif" font-size="10.00">variant</text>
</a>
</g>
</g>
<!-- Node18&#45;&gt;Node23 -->
<g id="edge32" class="edge">
<title>Node18&#45;&gt;Node23</title>
<path fill="none" stroke="midnightblue" d="M294.5,-363.98C294.5,-355.58 294.5,-342.48 294.5,-331.66"/>
<polygon fill="midnightblue" stroke="midnightblue" points="298,-331.51 294.5,-321.51 291,-331.51 298,-331.51"/>
</g>
<!-- Node19&#45;&gt;Node14 -->
<g id="edge29" class="edge">
<title>Node19&#45;&gt;Node14</title>
<path fill="none" stroke="midnightblue" d="M62.68,-302.46C65.12,-283.99 70.5,-238.94 70.5,-201 70.5,-201 70.5,-201 70.5,-137.5 70.5,-40.43 217.79,-17.8 291.92,-12.56"/>
<polygon fill="midnightblue" stroke="midnightblue" points="292.54,-16.03 302.3,-11.91 292.1,-9.04 292.54,-16.03"/>
</g>
<!-- Node20 -->
<g id="node20" class="node">
<title>Node20</title>
<g id="a_node20"><a xlink:title=" ">
<polygon fill="none" stroke="#bfbfbf" points="564,-246.5 564,-265.5 613,-265.5 613,-246.5 564,-246.5"/>
<text text-anchor="middle" x="588.5" y="-253.5" font-family="Helvetica,sans-Serif" font-size="10.00">cassert</text>
</a>
</g>
</g>
<!-- Node19&#45;&gt;Node20 -->
<g id="edge27" class="edge">
<title>Node19&#45;&gt;Node20</title>
<path fill="none" stroke="midnightblue" d="M123.21,-305.64C241.84,-295.31 494.58,-273.12 553.76,-265.53"/>
<polygon fill="midnightblue" stroke="midnightblue" points="554.34,-268.99 563.72,-264.07 553.32,-262.06 554.34,-268.99"/>
</g>
<!-- Node19&#45;&gt;Node21 -->
<g id="edge28" class="edge">
<title>Node19&#45;&gt;Node21</title>
<path fill="none" stroke="midnightblue" d="M73.39,-302.32C84.65,-294.11 101.79,-281.6 115.21,-271.81"/>
<polygon fill="midnightblue" stroke="midnightblue" points="117.38,-274.56 123.39,-265.83 113.25,-268.9 117.38,-274.56"/>
</g>
<!-- Node24&#45;&gt;Node3 -->
<g id="edge34" class="edge">
<title>Node24&#45;&gt;Node3</title>
<path fill="none" stroke="midnightblue" d="M274,-682.47C257.51,-675.48 237.36,-663.79 227.5,-646 193.32,-584.33 245.95,-502.45 275.97,-463.67"/>
<polygon fill="midnightblue" stroke="midnightblue" points="278.87,-465.64 282.35,-455.64 273.39,-461.29 278.87,-465.64"/>
</g>
<!-- Node24&#45;&gt;Node5 -->
<g id="edge35" class="edge">
<title>Node24&#45;&gt;Node5</title>
<path fill="none" stroke="midnightblue" d="M268.08,-682.43C249.77,-675.68 228.06,-664.29 216.5,-646 185.98,-597.72 235.69,-427.05 237.5,-425 273.57,-384.27 312.28,-423.32 354.5,-389 388.77,-361.14 372.04,-333.97 402.5,-302 415.05,-288.83 432.26,-277.97 446.82,-270.23"/>
<polygon fill="midnightblue" stroke="midnightblue" points="448.6,-273.25 455.92,-265.6 445.42,-267.01 448.6,-273.25"/>
</g>
<!-- Node24&#45;&gt;Node19 -->
<g id="edge36" class="edge">
<title>Node24&#45;&gt;Node19</title>
<path fill="none" stroke="midnightblue" d="M241.4,-684.97C212.63,-679.21 179.26,-667.96 156.5,-646 132.57,-622.92 131.5,-608.75 131.5,-575.5 131.5,-575.5 131.5,-575.5 131.5,-439.5 131.5,-395.01 97.95,-351.49 77.3,-328.92"/>
<polygon fill="midnightblue" stroke="midnightblue" points="79.78,-326.45 70.37,-321.59 74.7,-331.26 79.78,-326.45"/>
</g>
<!-- Node25 -->
<g id="node25" class="node">
<title>Node25</title>
<g id="a_node25"><a xlink:href="promise_8hpp.html" target="_top" xlink:title=" ">
<polygon fill="none" stroke="black" points="237,-626.5 237,-645.5 362,-645.5 362,-626.5 237,-626.5"/>
<text text-anchor="middle" x="299.5" y="-633.5" font-family="Helvetica,sans-Serif" font-size="10.00">yaclib/async/promise.hpp</text>
</a>
</g>
</g>
<!-- Node24&#45;&gt;Node25 -->
<g id="edge37" class="edge">
<title>Node24&#45;&gt;Node25</title>
<path fill="none" stroke="midnightblue" d="M294.33,-682.08C292.82,-674.93 292.39,-664.64 293.04,-655.69"/>
<polygon fill="midnightblue" stroke="midnightblue" points="296.52,-656.13 294.37,-645.75 289.58,-655.2 296.52,-656.13"/>
</g>
<!-- Node26 -->
<g id="node26" class="node">
<title>Node26</title>
<g id="a_node26"><a xlink:href="future__impl_8hpp.html" target="_top" xlink:title=" ">
<polygon fill="none" stroke="black" points="426.5,-559.5 426.5,-589.5 522.5,-589.5 522.5,-559.5 426.5,-559.5"/>
<text text-anchor="start" x="434.5" y="-577.5" font-family="Helvetica,sans-Serif" font-size="10.00">yaclib/async/detail</text>
<text text-anchor="middle" x="474.5" y="-566.5" font-family="Helvetica,sans-Serif" font-size="10.00">/future_impl.hpp</text>
</a>
</g>
</g>
<!-- Node24&#45;&gt;Node26 -->
<g id="edge54" class="edge">
<title>Node24&#45;&gt;Node26</title>
<path fill="none" stroke="midnightblue" d="M319.02,-682.45C337.29,-674.12 365.06,-660.6 387.5,-646 410.47,-631.06 434.51,-611.2 451.49,-596.37"/>
<polygon fill="midnightblue" stroke="midnightblue" points="454.05,-598.78 459.22,-589.53 449.41,-593.53 454.05,-598.78"/>
</g>
<!-- Node32 -->
<g id="node32" class="node">
<title>Node32</title>
<g id="a_node32"><a xlink:href="promise__impl_8hpp.html" target="_top" xlink:title=" ">
<polygon fill="none" stroke="black" points="312.5,-559.5 312.5,-589.5 408.5,-589.5 408.5,-559.5 312.5,-559.5"/>
<text text-anchor="start" x="320.5" y="-577.5" font-family="Helvetica,sans-Serif" font-size="10.00">yaclib/async/detail</text>
<text text-anchor="middle" x="360.5" y="-566.5" font-family="Helvetica,sans-Serif" font-size="10.00">/promise_impl.hpp</text>
</a>
</g>
</g>
<!-- Node24&#45;&gt;Node32 -->
<g id="edge55" class="edge">
<title>Node24&#45;&gt;Node32</title>
<path fill="none" stroke="midnightblue" d="M324.66,-682.38C340.92,-675.34 360.79,-663.65 370.5,-646 378.32,-631.79 375.5,-613.64 370.89,-599.31"/>
<polygon fill="midnightblue" stroke="midnightblue" points="374.08,-597.84 367.35,-589.66 367.51,-600.26 374.08,-597.84"/>
</g>
<!-- Node25&#45;&gt;Node3 -->
<g id="edge38" class="edge">
<title>Node25&#45;&gt;Node3</title>
<path fill="none" stroke="midnightblue" d="M299.28,-626.44C298.56,-598.51 296.25,-509.41 295.13,-465.89"/>
<polygon fill="midnightblue" stroke="midnightblue" points="298.62,-465.54 294.87,-455.63 291.62,-465.72 298.62,-465.54"/>
</g>
<!-- Node25&#45;&gt;Node19 -->
<g id="edge39" class="edge">
<title>Node25&#45;&gt;Node19</title>
<path fill="none" stroke="midnightblue" d="M296.68,-626.17C284.43,-589.07 232.54,-443.7 145.5,-358 131.21,-343.93 111.62,-333.1 94.95,-325.59"/>
<polygon fill="midnightblue" stroke="midnightblue" points="96.11,-322.28 85.54,-321.55 93.35,-328.71 96.11,-322.28"/>
</g>
<!-- Node25&#45;&gt;Node24 -->
<g id="edge40" class="edge">
<title>Node25&#45;&gt;Node24</title>
<path fill="none" stroke="midnightblue" d="M304.63,-645.75C306.16,-652.86 306.6,-663.14 305.97,-672.1"/>
<polygon fill="midnightblue" stroke="midnightblue" points="302.49,-671.71 304.67,-682.08 309.43,-672.62 302.49,-671.71"/>
</g>
<!-- Node25&#45;&gt;Node26 -->
<g id="edge41" class="edge">
<title>Node25&#45;&gt;Node26</title>
<path fill="none" stroke="midnightblue" d="M324.57,-626.48C350.27,-617.74 390.95,-603.91 423.46,-592.86"/>
<polygon fill="midnightblue" stroke="midnightblue" points="424.91,-596.06 433.26,-589.52 422.66,-589.43 424.91,-596.06"/>
</g>
<!-- Node25&#45;&gt;Node32 -->
<g id="edge53" class="edge">
<title>Node25&#45;&gt;Node32</title>
<path fill="none" stroke="midnightblue" d="M308.24,-626.48C316.19,-618.72 328.26,-606.94 338.8,-596.66"/>
<polygon fill="midnightblue" stroke="midnightblue" points="341.41,-599.01 346.12,-589.52 336.52,-594 341.41,-599.01"/>
</g>
<!-- Node26&#45;&gt;Node2 -->
<g id="edge51" class="edge">
<title>Node26&#45;&gt;Node2</title>
<path fill="none" stroke="midnightblue" d="M490.99,-559.4C501.35,-550.54 514.88,-538.96 526.43,-529.09"/>
<polygon fill="midnightblue" stroke="midnightblue" points="528.72,-531.74 534.04,-522.58 524.17,-526.42 528.72,-531.74"/>
</g>
<!-- Node26&#45;&gt;Node20 -->
<g id="edge52" class="edge">
<title>Node26&#45;&gt;Node20</title>
<path fill="none" stroke="midnightblue" d="M473.76,-559.43C473.61,-541.43 476.15,-510.39 493.5,-492 549,-433.19 781.29,-441.84 842.5,-389 867.34,-367.56 866.45,-354.04 873.5,-322 875.41,-313.32 879.27,-308.76 873.5,-302 841.68,-264.77 692.19,-258.16 623.36,-257.11"/>
<polygon fill="midnightblue" stroke="midnightblue" points="623.07,-253.61 613.03,-256.99 622.99,-260.61 623.07,-253.61"/>
</g>
<!-- Node27 -->
<g id="node27" class="node">
<title>Node27</title>
<g id="a_node27"><a xlink:href="wait_8hpp.html" target="_top" xlink:title=" ">
<polygon fill="none" stroke="black" points="345,-498 345,-517 446,-517 446,-498 345,-498"/>
<text text-anchor="middle" x="395.5" y="-505" font-family="Helvetica,sans-Serif" font-size="10.00">yaclib/algo/wait.hpp</text>
</a>
</g>
</g>
<!-- Node26&#45;&gt;Node27 -->
<g id="edge42" class="edge">
<title>Node26&#45;&gt;Node27</title>
<path fill="none" stroke="midnightblue" d="M457.36,-559.4C444.55,-548.86 427.07,-534.48 413.96,-523.69"/>
<polygon fill="midnightblue" stroke="midnightblue" points="416.01,-520.85 406.07,-517.19 411.57,-526.25 416.01,-520.85"/>
</g>
<!-- Node28 -->
<g id="node28" class="node">
<title>Node28</title>
<g id="a_node28"><a xlink:href="wait__impl_8hpp.html" target="_top" xlink:title=" ">
<polygon fill="none" stroke="black" points="446,-425.5 446,-455.5 535,-455.5 535,-425.5 446,-425.5"/>
<text text-anchor="start" x="454" y="-443.5" font-family="Helvetica,sans-Serif" font-size="10.00">yaclib/algo/detail</text>
<text text-anchor="middle" x="490.5" y="-432.5" font-family="Helvetica,sans-Serif" font-size="10.00">/wait_impl.hpp</text>
</a>
</g>
</g>
<!-- Node27&#45;&gt;Node28 -->
<g id="edge43" class="edge">
<title>Node27&#45;&gt;Node28</title>
<path fill="none" stroke="midnightblue" d="M408.31,-497.73C421.89,-488.44 443.79,-473.46 461.57,-461.3"/>
<polygon fill="midnightblue" stroke="midnightblue" points="463.63,-464.12 469.91,-455.59 459.68,-458.35 463.63,-464.12"/>
</g>
<!-- Node28&#45;&gt;Node4 -->
<g id="edge44" class="edge">
<title>Node28&#45;&gt;Node4</title>
<path fill="none" stroke="midnightblue" d="M490.5,-425.4C490.5,-417.64 490.5,-407.81 490.5,-398.86"/>
<polygon fill="midnightblue" stroke="midnightblue" points="494,-398.58 490.5,-388.58 487,-398.58 494,-398.58"/>
</g>
<!-- Node28&#45;&gt;Node8 -->
<g id="edge49" class="edge">
<title>Node28&#45;&gt;Node8</title>
<path fill="none" stroke="midnightblue" d="M535.3,-436.72C617.71,-431.01 789.74,-416.17 842.5,-389 914.6,-351.87 968.5,-338.1 968.5,-257 968.5,-257 968.5,-257 968.5,-199 968.5,-160.7 968.96,-115.88 969.26,-91.2"/>
<polygon fill="midnightblue" stroke="midnightblue" points="972.76,-91.13 969.39,-81.09 965.76,-91.05 972.76,-91.13"/>
</g>
<!-- Node28&#45;&gt;Node19 -->
<g id="edge50" class="edge">
<title>Node28&#45;&gt;Node19</title>
<path fill="none" stroke="midnightblue" d="M445.76,-436.49C393.27,-431.66 304.51,-419.41 234.5,-389 212.89,-379.62 212.41,-368.86 191.5,-358 163.81,-343.62 130.52,-332.2 104.56,-324.46"/>
<polygon fill="midnightblue" stroke="midnightblue" points="105.22,-321 94.64,-321.57 103.26,-327.73 105.22,-321"/>
</g>
<!-- Node29 -->
<g id="node29" class="node">
<title>Node29</title>
<g id="a_node29"><a xlink:href="wait__core_8hpp.html" target="_top" xlink:title=" ">
<polygon fill="none" stroke="black" points="737.5,-358.5 737.5,-388.5 833.5,-388.5 833.5,-358.5 737.5,-358.5"/>
<text text-anchor="start" x="745.5" y="-376.5" font-family="Helvetica,sans-Serif" font-size="10.00">yaclib/async/detail</text>
<text text-anchor="middle" x="785.5" y="-365.5" font-family="Helvetica,sans-Serif" font-size="10.00">/wait_core.hpp</text>
</a>
</g>
</g>
<!-- Node28&#45;&gt;Node29 -->
<g id="edge45" class="edge">
<title>Node28&#45;&gt;Node29</title>
<path fill="none" stroke="midnightblue" d="M535.3,-429.63C586.7,-418.3 671.11,-399.7 727.49,-387.28"/>
<polygon fill="midnightblue" stroke="midnightblue" points="728.32,-390.68 737.33,-385.11 726.81,-383.85 728.32,-390.68"/>
</g>
<!-- Node29&#45;&gt;Node12 -->
<g id="edge46" class="edge">
<title>Node29&#45;&gt;Node12</title>
<path fill="none" stroke="midnightblue" d="M828.36,-358.41C855.95,-346.64 884.72,-327.65 873.5,-302 812.32,-162.19 647.16,-59.71 583.76,-24.41"/>
<polygon fill="midnightblue" stroke="midnightblue" points="585.28,-21.25 574.83,-19.51 581.91,-27.39 585.28,-21.25"/>
</g>
<!-- Node30 -->
<g id="node30" class="node">
<title>Node30</title>
<g id="a_node30"><a xlink:title=" ">
<polygon fill="none" stroke="#bfbfbf" points="708,-302.5 708,-321.5 803,-321.5 803,-302.5 708,-302.5"/>
<text text-anchor="middle" x="755.5" y="-309.5" font-family="Helvetica,sans-Serif" font-size="10.00">condition_variable</text>
</a>
</g>
</g>
<!-- Node29&#45;&gt;Node30 -->
<g id="edge47" class="edge">
<title>Node29&#45;&gt;Node30</title>
<path fill="none" stroke="midnightblue" d="M778.39,-358.4C774.21,-350.11 768.89,-339.55 764.43,-330.71"/>
<polygon fill="midnightblue" stroke="midnightblue" points="767.49,-329.01 759.87,-321.66 761.24,-332.16 767.49,-329.01"/>
</g>
<!-- Node31 -->
<g id="node31" class="node">
<title>Node31</title>
<g id="a_node31"><a xlink:title=" ">
<polygon fill="none" stroke="#bfbfbf" points="821,-302.5 821,-321.5 864,-321.5 864,-302.5 821,-302.5"/>
<text text-anchor="middle" x="842.5" y="-309.5" font-family="Helvetica,sans-Serif" font-size="10.00">mutex</text>
</a>
</g>
</g>
<!-- Node29&#45;&gt;Node31 -->
<g id="edge48" class="edge">
<title>Node29&#45;&gt;Node31</title>
<path fill="none" stroke="midnightblue" d="M799.01,-358.4C807.46,-349.58 818.38,-338.18 827.16,-329.02"/>
<polygon fill="midnightblue" stroke="midnightblue" points="829.82,-331.3 834.21,-321.66 824.76,-326.46 829.82,-331.3"/>
</g>
</g>
</svg>
