<?xml version="1.0" encoding="UTF-8" standalone="no"?>
<!DOCTYPE svg PUBLIC "-//W3C//DTD SVG 1.1//EN"
 "http://www.w3.org/Graphics/SVG/1.1/DTD/svg11.dtd">
<!-- Generated by graphviz version 2.44.0 ()
 -->
<!-- Title: test/example/async/simple.cpp Pages: 1 -->
<!--zoomable 855 -->
<svg id="main" version="1.1" xmlns="http://www.w3.org/2000/svg" xmlns:xlink="http://www.w3.org/1999/xlink" xml:space="preserve" onload="init(evt)">
<style type="text/css"><![CDATA[
.edge:hover path { stroke: red; }
.edge:hover polygon { stroke: red; fill: red; }
]]></style>
<script type="text/javascript"><![CDATA[
var edges = document.getElementsByTagName('g');
if (edges && edges.length) {
  for (var i=0;i<edges.length;i++) {
    if (edges[i].id.substr(0,4)=='edge') {
      edges[i].setAttribute('class','edge');
    }
  }
}
]]></script>
        <defs>
                <circle id="rim" cx="0" cy="0" r="7"/>
                <circle id="rim2" cx="0" cy="0" r="3.5"/>
                <g id="zoomPlus">
                        <use xlink:href="#rim" fill="#404040">
                                <set attributeName="fill" to="#808080" begin="zoomplus.mouseover" end="zoomplus.mouseout"/>
                        </use>
                        <path d="M-4,0h8M0,-4v8" fill="none" stroke="white" stroke-width="1.5" pointer-events="none"/>
                </g>
                <g id="zoomMin">
                        <use xlink:href="#rim" fill="#404040">
                                <set attributeName="fill" to="#808080" begin="zoomminus.mouseover" end="zoomminus.mouseout"/>
                        </use>
                        <path d="M-4,0h8" fill="none" stroke="white" stroke-width="1.5" pointer-events="none"/>
                </g>
                <g id="dirArrow">
                        <path fill="none" stroke="white" stroke-width="1.5" d="M0,-3.0v7 M-2.5,-0.5L0,-3.0L2.5,-0.5"/>
                </g>
               <g id="resetDef">
                       <use xlink:href="#rim2" fill="#404040">
                               <set attributeName="fill" to="#808080" begin="reset.mouseover" end="reset.mouseout"/>
                       </use>
               </g>
        </defs>

<script type="text/javascript">
var viewWidth = 1397;
var viewHeight = 855;
var sectionId = 'dynsection-0';
</script>
<script xlink:href="svgpan.js"/>
<svg id="graph" class="graph">
<g id="viewport">
<title>test/example/async/simple.cpp</title>
<!-- Node1 -->
<g id="node1" class="node">
<title>Node1</title>
<g id="a_node1"><a xlink:title=" ">
<polygon fill="#bfbfbf" stroke="black" points="1075.5,-816.5 1075.5,-846.5 1176.5,-846.5 1176.5,-816.5 1075.5,-816.5"/>
<text text-anchor="start" x="1083.5" y="-834.5" font-family="Helvetica,sans-Serif" font-size="10.00">test/example/async</text>
<text text-anchor="middle" x="1126" y="-823.5" font-family="Helvetica,sans-Serif" font-size="10.00">/simple.cpp</text>
</a>
</g>
</g>
<!-- Node2 -->
<g id="node2" class="node">
<title>Node2</title>
<g id="a_node2"><a xlink:href="run_8hpp.html" target="_top" xlink:title=" ">
<polygon fill="none" stroke="black" points="581,-760.5 581,-779.5 685,-779.5 685,-760.5 581,-760.5"/>
<text text-anchor="middle" x="633" y="-767.5" font-family="Helvetica,sans-Serif" font-size="10.00">yaclib/async/run.hpp</text>
</a>
</g>
</g>
<!-- Node1&#45;&gt;Node2 -->
<g id="edge1" class="edge">
<title>Node1&#45;&gt;Node2</title>
<path fill="none" stroke="midnightblue" d="M1075.1,-824.36C984.09,-813.37 793.82,-790.41 695.22,-778.51"/>
<polygon fill="midnightblue" stroke="midnightblue" points="695.45,-775.01 685.11,-777.29 694.62,-781.96 695.45,-775.01"/>
</g>
<!-- Node6 -->
<g id="node6" class="node">
<title>Node6</title>
<g id="a_node6"><a xlink:href="executor_8hpp.html" target="_top" xlink:title=" ">
<polygon fill="none" stroke="black" points="881.5,-252 881.5,-271 1020.5,-271 1020.5,-252 881.5,-252"/>
<text text-anchor="middle" x="951" y="-259" font-family="Helvetica,sans-Serif" font-size="10.00">yaclib/executor/executor.hpp</text>
</a>
</g>
</g>
<!-- Node1&#45;&gt;Node6 -->
<g id="edge59" class="edge">
<title>Node1&#45;&gt;Node6</title>
<path fill="none" stroke="midnightblue" d="M1103.97,-816.21C1077.04,-796.81 1035,-759.42 1035,-715 1035,-715 1035,-715 1035,-394.5 1035,-345.93 994.03,-300.82 969.31,-278.03"/>
<polygon fill="midnightblue" stroke="midnightblue" points="971.43,-275.22 961.64,-271.18 966.77,-280.45 971.43,-275.22"/>
</g>
<!-- Node11 -->
<g id="node11" class="node">
<title>Node11</title>
<g id="a_node11"><a xlink:title=" ">
<polygon fill="none" stroke="#bfbfbf" points="55,-0.5 55,-19.5 101,-19.5 101,-0.5 55,-0.5"/>
<text text-anchor="middle" x="78" y="-7.5" font-family="Helvetica,sans-Serif" font-size="10.00">atomic</text>
</a>
</g>
</g>
<!-- Node1&#45;&gt;Node11 -->
<g id="edge71" class="edge">
<title>Node1&#45;&gt;Node11</title>
<path fill="none" stroke="midnightblue" d="M1075.43,-830.7C856.33,-830.9 0,-824.68 0,-715 0,-715 0,-715 0,-137.5 0,-91.8 37.34,-48.78 60.35,-26.61"/>
<polygon fill="midnightblue" stroke="midnightblue" points="62.87,-29.05 67.8,-19.67 58.1,-23.92 62.87,-29.05"/>
</g>
<!-- Node34 -->
<g id="node34" class="node">
<title>Node34</title>
<g id="a_node34"><a xlink:href="serial_8hpp.html" target="_top" xlink:title=" ">
<polygon fill="none" stroke="black" points="1063.5,-704.5 1063.5,-723.5 1188.5,-723.5 1188.5,-704.5 1063.5,-704.5"/>
<text text-anchor="middle" x="1126" y="-711.5" font-family="Helvetica,sans-Serif" font-size="10.00">yaclib/executor/serial.hpp</text>
</a>
</g>
</g>
<!-- Node1&#45;&gt;Node34 -->
<g id="edge60" class="edge">
<title>Node1&#45;&gt;Node34</title>
<path fill="none" stroke="midnightblue" d="M1126,-816.34C1126,-795.62 1126,-757.02 1126,-733.9"/>
<polygon fill="midnightblue" stroke="midnightblue" points="1129.5,-733.67 1126,-723.67 1122.5,-733.67 1129.5,-733.67"/>
</g>
<!-- Node35 -->
<g id="node35" class="node">
<title>Node35</title>
<g id="a_node35"><a xlink:href="thread__pool_8hpp.html" target="_top" xlink:title=" ">
<polygon fill="none" stroke="black" points="1122.5,-313.5 1122.5,-343.5 1233.5,-343.5 1233.5,-313.5 1122.5,-313.5"/>
<text text-anchor="start" x="1130.5" y="-331.5" font-family="Helvetica,sans-Serif" font-size="10.00">yaclib/executor/thread</text>
<text text-anchor="middle" x="1178" y="-320.5" font-family="Helvetica,sans-Serif" font-size="10.00">_pool.hpp</text>
</a>
</g>
</g>
<!-- Node1&#45;&gt;Node35 -->
<g id="edge62" class="edge">
<title>Node1&#45;&gt;Node35</title>
<path fill="none" stroke="midnightblue" d="M1148.03,-816.21C1174.96,-796.81 1217,-759.42 1217,-715 1217,-715 1217,-715 1217,-461.5 1217,-422.26 1200.95,-379.05 1189.45,-353.11"/>
<polygon fill="midnightblue" stroke="midnightblue" points="1192.5,-351.37 1185.15,-343.74 1186.14,-354.29 1192.5,-351.37"/>
</g>
<!-- Node40 -->
<g id="node40" class="node">
<title>Node40</title>
<g id="a_node40"><a xlink:title=" ">
<polygon fill="none" stroke="#bfbfbf" points="1245,-760.5 1245,-779.5 1299,-779.5 1299,-760.5 1245,-760.5"/>
<text text-anchor="middle" x="1272" y="-767.5" font-family="Helvetica,sans-Serif" font-size="10.00">iostream</text>
</a>
</g>
</g>
<!-- Node1&#45;&gt;Node40 -->
<g id="edge72" class="edge">
<title>Node1&#45;&gt;Node40</title>
<path fill="none" stroke="midnightblue" d="M1160.6,-816.4C1185.1,-806.42 1217.66,-793.15 1241.25,-783.53"/>
<polygon fill="midnightblue" stroke="midnightblue" points="1242.82,-786.67 1250.76,-779.66 1240.17,-780.19 1242.82,-786.67"/>
</g>
<!-- Node41 -->
<g id="node41" class="node">
<title>Node41</title>
<g id="a_node41"><a xlink:title=" ">
<polygon fill="none" stroke="#bfbfbf" points="1317.5,-760.5 1317.5,-779.5 1388.5,-779.5 1388.5,-760.5 1317.5,-760.5"/>
<text text-anchor="middle" x="1353" y="-767.5" font-family="Helvetica,sans-Serif" font-size="10.00">gtest/gtest.h</text>
</a>
</g>
</g>
<!-- Node1&#45;&gt;Node41 -->
<g id="edge73" class="edge">
<title>Node1&#45;&gt;Node41</title>
<path fill="none" stroke="midnightblue" d="M1176.66,-817.22C1216.96,-806.66 1272.7,-792.05 1310.65,-782.1"/>
<polygon fill="midnightblue" stroke="midnightblue" points="1311.59,-785.47 1320.38,-779.55 1309.82,-778.7 1311.59,-785.47"/>
</g>
<!-- Node3 -->
<g id="node3" class="node">
<title>Node3</title>
<g id="a_node3"><a xlink:href="core_8hpp.html" target="_top" xlink:title=" ">
<polygon fill="none" stroke="black" points="559,-514.5 559,-544.5 655,-544.5 655,-514.5 559,-514.5"/>
<text text-anchor="start" x="567" y="-532.5" font-family="Helvetica,sans-Serif" font-size="10.00">yaclib/async/detail</text>
<text text-anchor="middle" x="607" y="-521.5" font-family="Helvetica,sans-Serif" font-size="10.00">/core.hpp</text>
</a>
</g>
</g>
<!-- Node2&#45;&gt;Node3 -->
<g id="edge2" class="edge">
<title>Node2&#45;&gt;Node3</title>
<path fill="none" stroke="midnightblue" d="M632.04,-760.23C628.4,-726.81 615.31,-606.69 609.64,-554.73"/>
<polygon fill="midnightblue" stroke="midnightblue" points="613.12,-554.3 608.55,-544.74 606.16,-555.06 613.12,-554.3"/>
</g>
<!-- Node2&#45;&gt;Node6 -->
<g id="edge57" class="edge">
<title>Node2&#45;&gt;Node6</title>
<path fill="none" stroke="midnightblue" d="M685.15,-764.2C785.8,-753.5 997,-723.37 997,-659 997,-659 997,-659 997,-394.5 997,-351.41 974.88,-304.6 961.31,-279.96"/>
<polygon fill="midnightblue" stroke="midnightblue" points="964.26,-278.06 956.28,-271.1 958.18,-281.52 964.26,-278.06"/>
</g>
<!-- Node20 -->
<g id="node20" class="node">
<title>Node20</title>
<g id="a_node20"><a xlink:href="type__traits_8hpp.html" target="_top" xlink:title=" ">
<polygon fill="none" stroke="black" points="317.5,-319 317.5,-338 440.5,-338 440.5,-319 317.5,-319"/>
<text text-anchor="middle" x="379" y="-326" font-family="Helvetica,sans-Serif" font-size="10.00">yaclib/util/type_traits.hpp</text>
</a>
</g>
</g>
<!-- Node2&#45;&gt;Node20 -->
<g id="edge58" class="edge">
<title>Node2&#45;&gt;Node20</title>
<path fill="none" stroke="midnightblue" d="M580.95,-765.44C473.69,-756.67 238,-729.39 238,-659 238,-659 238,-659 238,-528.5 238,-446.23 319.23,-374.2 358.38,-344.27"/>
<polygon fill="midnightblue" stroke="midnightblue" points="360.57,-347 366.49,-338.21 356.38,-341.39 360.57,-347"/>
</g>
<!-- Node25 -->
<g id="node25" class="node">
<title>Node25</title>
<g id="a_node25"><a xlink:href="future_8hpp.html" target="_top" xlink:title=" ">
<polygon fill="none" stroke="black" points="484,-704.5 484,-723.5 600,-723.5 600,-704.5 484,-704.5"/>
<text text-anchor="middle" x="542" y="-711.5" font-family="Helvetica,sans-Serif" font-size="10.00">yaclib/async/future.hpp</text>
</a>
</g>
</g>
<!-- Node2&#45;&gt;Node25 -->
<g id="edge34" class="edge">
<title>Node2&#45;&gt;Node25</title>
<path fill="none" stroke="midnightblue" d="M618.38,-760.32C604.05,-751.82 581.99,-738.73 565.25,-728.8"/>
<polygon fill="midnightblue" stroke="midnightblue" points="566.97,-725.75 556.58,-723.65 563.4,-731.77 566.97,-725.75"/>
</g>
<!-- Node4 -->
<g id="node4" class="node">
<title>Node4</title>
<g id="a_node4"><a xlink:href="result__core_8hpp.html" target="_top" xlink:title=" ">
<polygon fill="none" stroke="black" points="635,-447.5 635,-477.5 731,-477.5 731,-447.5 635,-447.5"/>
<text text-anchor="start" x="643" y="-465.5" font-family="Helvetica,sans-Serif" font-size="10.00">yaclib/async/detail</text>
<text text-anchor="middle" x="683" y="-454.5" font-family="Helvetica,sans-Serif" font-size="10.00">/result_core.hpp</text>
</a>
</g>
</g>
<!-- Node3&#45;&gt;Node4 -->
<g id="edge3" class="edge">
<title>Node3&#45;&gt;Node4</title>
<path fill="none" stroke="midnightblue" d="M623.49,-514.4C633.85,-505.54 647.38,-493.96 658.93,-484.09"/>
<polygon fill="midnightblue" stroke="midnightblue" points="661.22,-486.74 666.54,-477.58 656.67,-481.42 661.22,-486.74"/>
</g>
<!-- Node5 -->
<g id="node5" class="node">
<title>Node5</title>
<g id="a_node5"><a xlink:href="base__core_8hpp.html" target="_top" xlink:title=" ">
<polygon fill="none" stroke="black" points="559,-380.5 559,-410.5 655,-410.5 655,-380.5 559,-380.5"/>
<text text-anchor="start" x="567" y="-398.5" font-family="Helvetica,sans-Serif" font-size="10.00">yaclib/async/detail</text>
<text text-anchor="middle" x="607" y="-387.5" font-family="Helvetica,sans-Serif" font-size="10.00">/base_core.hpp</text>
</a>
</g>
</g>
<!-- Node4&#45;&gt;Node5 -->
<g id="edge4" class="edge">
<title>Node4&#45;&gt;Node5</title>
<path fill="none" stroke="midnightblue" d="M666.51,-447.4C656.15,-438.54 642.62,-426.96 631.07,-417.09"/>
<polygon fill="midnightblue" stroke="midnightblue" points="633.33,-414.42 623.46,-410.58 628.78,-419.74 633.33,-414.42"/>
</g>
<!-- Node19 -->
<g id="node19" class="node">
<title>Node19</title>
<g id="a_node19"><a xlink:href="result_8hpp.html" target="_top" xlink:title=" ">
<polygon fill="none" stroke="black" points="676,-386 676,-405 778,-405 778,-386 676,-386"/>
<text text-anchor="middle" x="727" y="-393" font-family="Helvetica,sans-Serif" font-size="10.00">yaclib/util/result.hpp</text>
</a>
</g>
</g>
<!-- Node4&#45;&gt;Node19 -->
<g id="edge26" class="edge">
<title>Node4&#45;&gt;Node19</title>
<path fill="none" stroke="midnightblue" d="M692.55,-447.4C699.27,-437.46 708.31,-424.11 715.44,-413.57"/>
<polygon fill="midnightblue" stroke="midnightblue" points="718.41,-415.44 721.11,-405.19 712.61,-411.51 718.41,-415.44"/>
</g>
<!-- Node5&#45;&gt;Node6 -->
<g id="edge5" class="edge">
<title>Node5&#45;&gt;Node6</title>
<path fill="none" stroke="midnightblue" d="M634.39,-380.45C668.75,-363.16 729.75,-333.58 784,-313 825.32,-297.32 873.79,-283.11 907.83,-273.79"/>
<polygon fill="midnightblue" stroke="midnightblue" points="909.18,-277.05 917.91,-271.06 907.35,-270.3 909.18,-277.05"/>
</g>
<!-- Node7 -->
<g id="node7" class="node">
<title>Node7</title>
<g id="a_node7"><a xlink:href="task_8hpp.html" target="_top" xlink:title=" ">
<polygon fill="none" stroke="black" points="890.5,-190.5 890.5,-209.5 1011.5,-209.5 1011.5,-190.5 890.5,-190.5"/>
<text text-anchor="middle" x="951" y="-197.5" font-family="Helvetica,sans-Serif" font-size="10.00">yaclib/executor/task.hpp</text>
</a>
</g>
</g>
<!-- Node5&#45;&gt;Node7 -->
<g id="edge23" class="edge">
<title>Node5&#45;&gt;Node7</title>
<path fill="none" stroke="midnightblue" d="M590.17,-380.45C571.98,-363.55 547.66,-334.74 564,-313 602.09,-262.32 780.28,-227.26 881.06,-211.1"/>
<polygon fill="midnightblue" stroke="midnightblue" points="881.83,-214.53 891.17,-209.51 880.74,-207.61 881.83,-214.53"/>
</g>
<!-- Node5&#45;&gt;Node11 -->
<g id="edge25" class="edge">
<title>Node5&#45;&gt;Node11</title>
<path fill="none" stroke="midnightblue" d="M581.24,-380.5C482.33,-326.53 130.69,-132.73 97,-87 84.68,-70.27 80.3,-46.45 78.77,-29.95"/>
<polygon fill="midnightblue" stroke="midnightblue" points="82.25,-29.63 78.1,-19.88 75.27,-30.09 82.25,-29.63"/>
</g>
<!-- Node12 -->
<g id="node12" class="node">
<title>Node12</title>
<g id="a_node12"><a xlink:href="intrusive__ptr_8hpp.html" target="_top" xlink:title=" ">
<polygon fill="none" stroke="black" points="457.5,-56.5 457.5,-86.5 554.5,-86.5 554.5,-56.5 457.5,-56.5"/>
<text text-anchor="start" x="465.5" y="-74.5" font-family="Helvetica,sans-Serif" font-size="10.00">yaclib/util/intrusive</text>
<text text-anchor="middle" x="506" y="-63.5" font-family="Helvetica,sans-Serif" font-size="10.00">_ptr.hpp</text>
</a>
</g>
</g>
<!-- Node5&#45;&gt;Node12 -->
<g id="edge24" class="edge">
<title>Node5&#45;&gt;Node12</title>
<path fill="none" stroke="midnightblue" d="M585.79,-380.19C556.44,-358.49 507,-314.25 507,-262.5 507,-262.5 507,-262.5 507,-199 507,-163.42 506.6,-122.2 506.31,-96.74"/>
<polygon fill="midnightblue" stroke="midnightblue" points="509.8,-96.5 506.18,-86.54 502.8,-96.58 509.8,-96.5"/>
</g>
<!-- Node18 -->
<g id="node18" class="node">
<title>Node18</title>
<g id="a_node18"><a xlink:href="inline_8hpp.html" target="_top" xlink:title=" ">
<polygon fill="none" stroke="black" points="573.5,-319 573.5,-338 698.5,-338 698.5,-319 573.5,-319"/>
<text text-anchor="middle" x="636" y="-326" font-family="Helvetica,sans-Serif" font-size="10.00">yaclib/executor/inline.hpp</text>
</a>
</g>
</g>
<!-- Node5&#45;&gt;Node18 -->
<g id="edge21" class="edge">
<title>Node5&#45;&gt;Node18</title>
<path fill="none" stroke="midnightblue" d="M613.29,-380.4C617.59,-370.76 623.32,-357.91 627.95,-347.54"/>
<polygon fill="midnightblue" stroke="midnightblue" points="631.24,-348.75 632.12,-338.19 624.85,-345.9 631.24,-348.75"/>
</g>
<!-- Node6&#45;&gt;Node7 -->
<g id="edge6" class="edge">
<title>Node6&#45;&gt;Node7</title>
<path fill="none" stroke="midnightblue" d="M951,-251.98C951,-243.58 951,-230.48 951,-219.66"/>
<polygon fill="midnightblue" stroke="midnightblue" points="954.5,-219.51 951,-209.51 947.5,-219.51 954.5,-219.51"/>
</g>
<!-- Node6&#45;&gt;Node12 -->
<g id="edge20" class="edge">
<title>Node6&#45;&gt;Node12</title>
<path fill="none" stroke="midnightblue" d="M930.72,-251.93C862.82,-223.25 642.44,-130.14 548.76,-90.57"/>
<polygon fill="midnightblue" stroke="midnightblue" points="549.88,-87.24 539.3,-86.57 547.15,-93.69 549.88,-87.24"/>
</g>
<!-- Node8 -->
<g id="node8" class="node">
<title>Node8</title>
<g id="a_node8"><a xlink:href="func_8hpp.html" target="_top" xlink:title=" ">
<polygon fill="none" stroke="black" points="381.5,-129 381.5,-148 478.5,-148 478.5,-129 381.5,-129"/>
<text text-anchor="middle" x="430" y="-136" font-family="Helvetica,sans-Serif" font-size="10.00">yaclib/util/func.hpp</text>
</a>
</g>
</g>
<!-- Node7&#45;&gt;Node8 -->
<g id="edge7" class="edge">
<title>Node7&#45;&gt;Node8</title>
<path fill="none" stroke="midnightblue" d="M890.47,-192.09C789.6,-180.57 588.37,-157.59 488.72,-146.21"/>
<polygon fill="midnightblue" stroke="midnightblue" points="488.86,-142.7 478.53,-145.04 488.07,-149.65 488.86,-142.7"/>
</g>
<!-- Node17 -->
<g id="node17" class="node">
<title>Node17</title>
<g id="a_node17"><a xlink:href="intrusive__node_8hpp.html" target="_top" xlink:title=" ">
<polygon fill="none" stroke="black" points="948.5,-123.5 948.5,-153.5 1045.5,-153.5 1045.5,-123.5 948.5,-123.5"/>
<text text-anchor="start" x="956.5" y="-141.5" font-family="Helvetica,sans-Serif" font-size="10.00">yaclib/util/intrusive</text>
<text text-anchor="middle" x="997" y="-130.5" font-family="Helvetica,sans-Serif" font-size="10.00">_node.hpp</text>
</a>
</g>
</g>
<!-- Node7&#45;&gt;Node17 -->
<g id="edge19" class="edge">
<title>Node7&#45;&gt;Node17</title>
<path fill="none" stroke="midnightblue" d="M957.59,-190.48C963.41,-182.94 972.16,-171.63 979.94,-161.57"/>
<polygon fill="midnightblue" stroke="midnightblue" points="982.81,-163.58 986.16,-153.52 977.27,-159.29 982.81,-163.58"/>
</g>
<!-- Node9 -->
<g id="node9" class="node">
<title>Node9</title>
<g id="a_node9"><a xlink:href="counters_8hpp.html" target="_top" xlink:title=" ">
<polygon fill="none" stroke="black" points="106,-62 106,-81 222,-81 222,-62 106,-62"/>
<text text-anchor="middle" x="164" y="-69" font-family="Helvetica,sans-Serif" font-size="10.00">yaclib/util/counters.hpp</text>
</a>
</g>
</g>
<!-- Node8&#45;&gt;Node9 -->
<g id="edge8" class="edge">
<title>Node8&#45;&gt;Node9</title>
<path fill="none" stroke="midnightblue" d="M394.95,-128.94C347.21,-117.27 261.67,-96.37 209.17,-83.54"/>
<polygon fill="midnightblue" stroke="midnightblue" points="209.67,-80.06 199.13,-81.08 208.01,-86.86 209.67,-80.06"/>
</g>
<!-- Node8&#45;&gt;Node12 -->
<g id="edge11" class="edge">
<title>Node8&#45;&gt;Node12</title>
<path fill="none" stroke="midnightblue" d="M440.25,-128.73C450.82,-119.7 467.68,-105.27 481.68,-93.3"/>
<polygon fill="midnightblue" stroke="midnightblue" points="484.2,-95.75 489.53,-86.59 479.65,-90.43 484.2,-95.75"/>
</g>
<!-- Node13 -->
<g id="node13" class="node">
<title>Node13</title>
<g id="a_node13"><a xlink:href="ref_8hpp.html" target="_top" xlink:title=" ">
<polygon fill="none" stroke="black" points="291.5,-0.5 291.5,-19.5 380.5,-19.5 380.5,-0.5 291.5,-0.5"/>
<text text-anchor="middle" x="336" y="-7.5" font-family="Helvetica,sans-Serif" font-size="10.00">yaclib/util/ref.hpp</text>
</a>
</g>
</g>
<!-- Node8&#45;&gt;Node13 -->
<g id="edge16" class="edge">
<title>Node8&#45;&gt;Node13</title>
<path fill="none" stroke="midnightblue" d="M423.54,-128.81C408.11,-108.04 368.9,-55.27 348.6,-27.96"/>
<polygon fill="midnightblue" stroke="midnightblue" points="351.28,-25.69 342.51,-19.76 345.66,-29.87 351.28,-25.69"/>
</g>
<!-- Node15 -->
<g id="node15" class="node">
<title>Node15</title>
<g id="a_node15"><a xlink:title=" ">
<polygon fill="none" stroke="#bfbfbf" points="398,-0.5 398,-19.5 460,-19.5 460,-0.5 398,-0.5"/>
<text text-anchor="middle" x="429" y="-7.5" font-family="Helvetica,sans-Serif" font-size="10.00">type_traits</text>
</a>
</g>
</g>
<!-- Node8&#45;&gt;Node15 -->
<g id="edge17" class="edge">
<title>Node8&#45;&gt;Node15</title>
<path fill="none" stroke="midnightblue" d="M429.93,-128.81C429.77,-108.49 429.37,-57.55 429.15,-29.78"/>
<polygon fill="midnightblue" stroke="midnightblue" points="432.65,-29.73 429.07,-19.76 425.65,-29.78 432.65,-29.73"/>
</g>
<!-- Node16 -->
<g id="node16" class="node">
<title>Node16</title>
<g id="a_node16"><a xlink:title=" ">
<polygon fill="none" stroke="#bfbfbf" points="557.5,-0.5 557.5,-19.5 596.5,-19.5 596.5,-0.5 557.5,-0.5"/>
<text text-anchor="middle" x="577" y="-7.5" font-family="Helvetica,sans-Serif" font-size="10.00">utility</text>
</a>
</g>
</g>
<!-- Node8&#45;&gt;Node16 -->
<g id="edge18" class="edge">
<title>Node8&#45;&gt;Node16</title>
<path fill="none" stroke="midnightblue" d="M478.69,-131.06C507.41,-124.68 542.12,-112.04 563,-87 576.26,-71.09 578.62,-46.73 578.4,-29.9"/>
<polygon fill="midnightblue" stroke="midnightblue" points="581.89,-29.48 577.94,-19.65 574.9,-29.79 581.89,-29.48"/>
</g>
<!-- Node10 -->
<g id="node10" class="node">
<title>Node10</title>
<g id="a_node10"><a xlink:title=" ">
<polygon fill="none" stroke="#bfbfbf" points="120,-0.5 120,-19.5 208,-19.5 208,-0.5 120,-0.5"/>
<text text-anchor="middle" x="164" y="-7.5" font-family="Helvetica,sans-Serif" font-size="10.00">yaclib/config.hpp</text>
</a>
</g>
</g>
<!-- Node9&#45;&gt;Node10 -->
<g id="edge9" class="edge">
<title>Node9&#45;&gt;Node10</title>
<path fill="none" stroke="midnightblue" d="M164,-61.98C164,-53.58 164,-40.48 164,-29.66"/>
<polygon fill="midnightblue" stroke="midnightblue" points="167.5,-29.51 164,-19.51 160.5,-29.51 167.5,-29.51"/>
</g>
<!-- Node9&#45;&gt;Node11 -->
<g id="edge10" class="edge">
<title>Node9&#45;&gt;Node11</title>
<path fill="none" stroke="midnightblue" d="M151.68,-61.98C137.88,-52.43 115.3,-36.81 98.77,-25.37"/>
<polygon fill="midnightblue" stroke="midnightblue" points="100.51,-22.32 90.3,-19.51 96.53,-28.08 100.51,-22.32"/>
</g>
<!-- Node12&#45;&gt;Node13 -->
<g id="edge12" class="edge">
<title>Node12&#45;&gt;Node13</title>
<path fill="none" stroke="midnightblue" d="M465.71,-56.4C436.68,-46.24 397.92,-32.67 370.35,-23.02"/>
<polygon fill="midnightblue" stroke="midnightblue" points="371.33,-19.66 360.74,-19.66 369.02,-26.26 371.33,-19.66"/>
</g>
<!-- Node14 -->
<g id="node14" class="node">
<title>Node14</title>
<g id="a_node14"><a xlink:title=" ">
<polygon fill="none" stroke="#bfbfbf" points="478,-0.5 478,-19.5 534,-19.5 534,-0.5 478,-0.5"/>
<text text-anchor="middle" x="506" y="-7.5" font-family="Helvetica,sans-Serif" font-size="10.00">algorithm</text>
</a>
</g>
</g>
<!-- Node12&#45;&gt;Node14 -->
<g id="edge13" class="edge">
<title>Node12&#45;&gt;Node14</title>
<path fill="none" stroke="midnightblue" d="M506,-56.4C506,-48.47 506,-38.46 506,-29.86"/>
<polygon fill="midnightblue" stroke="midnightblue" points="509.5,-29.66 506,-19.66 502.5,-29.66 509.5,-29.66"/>
</g>
<!-- Node12&#45;&gt;Node15 -->
<g id="edge14" class="edge">
<title>Node12&#45;&gt;Node15</title>
<path fill="none" stroke="midnightblue" d="M487.75,-56.4C475.87,-47.22 460.39,-35.26 448.31,-25.92"/>
<polygon fill="midnightblue" stroke="midnightblue" points="450.26,-23 440.2,-19.66 445.98,-28.54 450.26,-23"/>
</g>
<!-- Node12&#45;&gt;Node16 -->
<g id="edge15" class="edge">
<title>Node12&#45;&gt;Node16</title>
<path fill="none" stroke="midnightblue" d="M522.83,-56.4C533.67,-47.31 547.78,-35.49 558.87,-26.19"/>
<polygon fill="midnightblue" stroke="midnightblue" points="561.25,-28.76 566.67,-19.66 556.76,-23.4 561.25,-28.76"/>
</g>
<!-- Node18&#45;&gt;Node6 -->
<g id="edge22" class="edge">
<title>Node18&#45;&gt;Node6</title>
<path fill="none" stroke="midnightblue" d="M677.5,-318.94C734.71,-307.13 837.74,-285.87 899.7,-273.09"/>
<polygon fill="midnightblue" stroke="midnightblue" points="900.57,-276.48 909.65,-271.03 899.15,-269.62 900.57,-276.48"/>
</g>
<!-- Node19&#45;&gt;Node20 -->
<g id="edge27" class="edge">
<title>Node19&#45;&gt;Node20</title>
<path fill="none" stroke="midnightblue" d="M691.42,-385.98C682.49,-383.93 672.91,-381.81 664,-380 587.82,-364.49 499.63,-349.29 441.76,-339.68"/>
<polygon fill="midnightblue" stroke="midnightblue" points="442.12,-336.19 431.68,-338.01 440.97,-343.1 442.12,-336.19"/>
</g>
<!-- Node22 -->
<g id="node22" class="node">
<title>Node22</title>
<g id="a_node22"><a xlink:title=" ">
<polygon fill="none" stroke="#bfbfbf" points="535,-252 535,-271 593,-271 593,-252 535,-252"/>
<text text-anchor="middle" x="564" y="-259" font-family="Helvetica,sans-Serif" font-size="10.00">exception</text>
</a>
</g>
</g>
<!-- Node19&#45;&gt;Node22 -->
<g id="edge31" class="edge">
<title>Node19&#45;&gt;Node22</title>
<path fill="none" stroke="midnightblue" d="M727.4,-385.65C727.64,-369.21 725.78,-333.73 707,-313 680.37,-283.59 635.54,-271.31 603.16,-266.18"/>
<polygon fill="midnightblue" stroke="midnightblue" points="603.52,-262.69 593.13,-264.75 602.54,-269.62 603.52,-262.69"/>
</g>
<!-- Node23 -->
<g id="node23" class="node">
<title>Node23</title>
<g id="a_node23"><a xlink:title=" ">
<polygon fill="none" stroke="#bfbfbf" points="793.5,-319 793.5,-338 866.5,-338 866.5,-319 793.5,-319"/>
<text text-anchor="middle" x="830" y="-326" font-family="Helvetica,sans-Serif" font-size="10.00">system_error</text>
</a>
</g>
</g>
<!-- Node19&#45;&gt;Node23 -->
<g id="edge32" class="edge">
<title>Node19&#45;&gt;Node23</title>
<path fill="none" stroke="midnightblue" d="M740.89,-385.73C758.03,-374.92 787.4,-356.38 807.71,-343.57"/>
<polygon fill="midnightblue" stroke="midnightblue" points="809.74,-346.42 816.33,-338.13 806,-340.5 809.74,-346.42"/>
</g>
<!-- Node24 -->
<g id="node24" class="node">
<title>Node24</title>
<g id="a_node24"><a xlink:title=" ">
<polygon fill="none" stroke="#bfbfbf" points="885,-319 885,-338 931,-338 931,-319 885,-319"/>
<text text-anchor="middle" x="908" y="-326" font-family="Helvetica,sans-Serif" font-size="10.00">variant</text>
</a>
</g>
</g>
<!-- Node19&#45;&gt;Node24 -->
<g id="edge33" class="edge">
<title>Node19&#45;&gt;Node24</title>
<path fill="none" stroke="midnightblue" d="M754.26,-385.97C784.14,-376.44 833.38,-360.21 875,-344 876.6,-343.38 878.24,-342.72 879.89,-342.04"/>
<polygon fill="midnightblue" stroke="midnightblue" points="881.43,-345.19 889.27,-338.06 878.7,-338.75 881.43,-345.19"/>
</g>
<!-- Node20&#45;&gt;Node15 -->
<g id="edge30" class="edge">
<title>Node20&#45;&gt;Node15</title>
<path fill="none" stroke="midnightblue" d="M375.92,-318.73C369.03,-298.35 353,-246.07 353,-201 353,-201 353,-201 353,-137.5 353,-92.12 389.38,-48.98 411.8,-26.7"/>
<polygon fill="midnightblue" stroke="midnightblue" points="414.28,-29.18 419.06,-19.73 409.43,-24.13 414.28,-29.18"/>
</g>
<!-- Node21 -->
<g id="node21" class="node">
<title>Node21</title>
<g id="a_node21"><a xlink:title=" ">
<polygon fill="none" stroke="#bfbfbf" points="133.5,-252 133.5,-271 182.5,-271 182.5,-252 133.5,-252"/>
<text text-anchor="middle" x="158" y="-259" font-family="Helvetica,sans-Serif" font-size="10.00">cassert</text>
</a>
</g>
</g>
<!-- Node20&#45;&gt;Node21 -->
<g id="edge28" class="edge">
<title>Node20&#45;&gt;Node21</title>
<path fill="none" stroke="midnightblue" d="M349.65,-318.87C309,-306.91 235.68,-285.35 192.47,-272.64"/>
<polygon fill="midnightblue" stroke="midnightblue" points="193.27,-269.23 182.69,-269.76 191.3,-275.94 193.27,-269.23"/>
</g>
<!-- Node20&#45;&gt;Node22 -->
<g id="edge29" class="edge">
<title>Node20&#45;&gt;Node22</title>
<path fill="none" stroke="midnightblue" d="M403.57,-318.87C436,-307.47 493.27,-287.35 529.88,-274.49"/>
<polygon fill="midnightblue" stroke="midnightblue" points="531.35,-277.68 539.63,-271.06 529.03,-271.08 531.35,-277.68"/>
</g>
<!-- Node25&#45;&gt;Node4 -->
<g id="edge35" class="edge">
<title>Node25&#45;&gt;Node4</title>
<path fill="none" stroke="midnightblue" d="M560.64,-704.37C576.07,-696.53 597.84,-683.8 613,-668 656.7,-622.45 667.67,-605.97 684,-545 689,-526.34 688.38,-504.41 686.72,-488"/>
<polygon fill="midnightblue" stroke="midnightblue" points="690.14,-487.13 685.45,-477.63 683.19,-487.98 690.14,-487.13"/>
</g>
<!-- Node25&#45;&gt;Node6 -->
<g id="edge36" class="edge">
<title>Node25&#45;&gt;Node6</title>
<path fill="none" stroke="midnightblue" d="M600.42,-709.04C715.19,-699.64 959,-671.03 959,-597.5 959,-597.5 959,-597.5 959,-394.5 959,-354.08 955.22,-306.83 952.85,-281.26"/>
<polygon fill="midnightblue" stroke="midnightblue" points="956.32,-280.76 951.89,-271.14 949.35,-281.43 956.32,-280.76"/>
</g>
<!-- Node25&#45;&gt;Node20 -->
<g id="edge37" class="edge">
<title>Node25&#45;&gt;Node20</title>
<path fill="none" stroke="midnightblue" d="M483.82,-707.57C424.82,-698.59 336.47,-674.83 295,-612 236.34,-523.12 328.58,-392.04 365.13,-346.12"/>
<polygon fill="midnightblue" stroke="midnightblue" points="368.05,-348.08 371.64,-338.11 362.62,-343.66 368.05,-348.08"/>
</g>
<!-- Node26 -->
<g id="node26" class="node">
<title>Node26</title>
<g id="a_node26"><a xlink:href="promise_8hpp.html" target="_top" xlink:title=" ">
<polygon fill="none" stroke="black" points="479.5,-648.5 479.5,-667.5 604.5,-667.5 604.5,-648.5 479.5,-648.5"/>
<text text-anchor="middle" x="542" y="-655.5" font-family="Helvetica,sans-Serif" font-size="10.00">yaclib/async/promise.hpp</text>
</a>
</g>
</g>
<!-- Node25&#45;&gt;Node26 -->
<g id="edge38" class="edge">
<title>Node25&#45;&gt;Node26</title>
<path fill="none" stroke="midnightblue" d="M536.83,-704.08C535.32,-696.93 534.89,-686.64 535.54,-677.69"/>
<polygon fill="midnightblue" stroke="midnightblue" points="539.02,-678.13 536.87,-667.75 532.08,-677.2 539.02,-678.13"/>
</g>
<!-- Node27 -->
<g id="node27" class="node">
<title>Node27</title>
<g id="a_node27"><a xlink:href="future__impl_8hpp.html" target="_top" xlink:title=" ">
<polygon fill="none" stroke="black" points="304,-581.5 304,-611.5 400,-611.5 400,-581.5 304,-581.5"/>
<text text-anchor="start" x="312" y="-599.5" font-family="Helvetica,sans-Serif" font-size="10.00">yaclib/async/detail</text>
<text text-anchor="middle" x="352" y="-588.5" font-family="Helvetica,sans-Serif" font-size="10.00">/future_impl.hpp</text>
</a>
</g>
</g>
<!-- Node25&#45;&gt;Node27 -->
<g id="edge55" class="edge">
<title>Node25&#45;&gt;Node27</title>
<path fill="none" stroke="midnightblue" d="M525.46,-704.4C508.74,-695.6 482.28,-681.36 460,-668 432.83,-651.71 402.7,-631.89 381.18,-617.41"/>
<polygon fill="midnightblue" stroke="midnightblue" points="383.05,-614.46 372.81,-611.76 379.14,-620.26 383.05,-614.46"/>
</g>
<!-- Node33 -->
<g id="node33" class="node">
<title>Node33</title>
<g id="a_node33"><a xlink:href="promise__impl_8hpp.html" target="_top" xlink:title=" ">
<polygon fill="none" stroke="black" points="418,-581.5 418,-611.5 514,-611.5 514,-581.5 418,-581.5"/>
<text text-anchor="start" x="426" y="-599.5" font-family="Helvetica,sans-Serif" font-size="10.00">yaclib/async/detail</text>
<text text-anchor="middle" x="466" y="-588.5" font-family="Helvetica,sans-Serif" font-size="10.00">/promise_impl.hpp</text>
</a>
</g>
</g>
<!-- Node25&#45;&gt;Node33 -->
<g id="edge56" class="edge">
<title>Node25&#45;&gt;Node33</title>
<path fill="none" stroke="midnightblue" d="M517.17,-704.44C500.77,-697.38 480.44,-685.63 470,-668 461.84,-654.21 460.97,-636.13 462.07,-621.73"/>
<polygon fill="midnightblue" stroke="midnightblue" points="465.57,-621.9 463.21,-611.57 458.62,-621.11 465.57,-621.9"/>
</g>
<!-- Node26&#45;&gt;Node4 -->
<g id="edge39" class="edge">
<title>Node26&#45;&gt;Node4</title>
<path fill="none" stroke="midnightblue" d="M555.84,-648.44C581.46,-631.84 636.16,-592.67 664,-545 674.22,-527.5 678.94,-504.89 681.12,-487.92"/>
<polygon fill="midnightblue" stroke="midnightblue" points="684.63,-488.01 682.22,-477.69 677.68,-487.26 684.63,-488.01"/>
</g>
<!-- Node26&#45;&gt;Node20 -->
<g id="edge40" class="edge">
<title>Node26&#45;&gt;Node20</title>
<path fill="none" stroke="midnightblue" d="M540.63,-648.32C538.19,-633.95 532.44,-604.47 523,-581 485.27,-487.23 418.08,-385.75 390.9,-346.41"/>
<polygon fill="midnightblue" stroke="midnightblue" points="393.76,-344.39 385.17,-338.18 388.01,-348.39 393.76,-344.39"/>
</g>
<!-- Node26&#45;&gt;Node25 -->
<g id="edge41" class="edge">
<title>Node26&#45;&gt;Node25</title>
<path fill="none" stroke="midnightblue" d="M547.13,-667.75C548.66,-674.86 549.1,-685.14 548.47,-694.1"/>
<polygon fill="midnightblue" stroke="midnightblue" points="544.99,-693.71 547.17,-704.08 551.93,-694.62 544.99,-693.71"/>
</g>
<!-- Node26&#45;&gt;Node27 -->
<g id="edge42" class="edge">
<title>Node26&#45;&gt;Node27</title>
<path fill="none" stroke="midnightblue" d="M514.78,-648.48C486.64,-639.66 441.95,-625.67 406.51,-614.57"/>
<polygon fill="midnightblue" stroke="midnightblue" points="407.37,-611.17 396.78,-611.52 405.28,-617.85 407.37,-611.17"/>
</g>
<!-- Node26&#45;&gt;Node33 -->
<g id="edge54" class="edge">
<title>Node26&#45;&gt;Node33</title>
<path fill="none" stroke="midnightblue" d="M531.11,-648.48C520.91,-640.49 505.28,-628.25 491.89,-617.77"/>
<polygon fill="midnightblue" stroke="midnightblue" points="493.94,-614.93 483.91,-611.52 489.63,-620.44 493.94,-614.93"/>
</g>
<!-- Node27&#45;&gt;Node3 -->
<g id="edge52" class="edge">
<title>Node27&#45;&gt;Node3</title>
<path fill="none" stroke="midnightblue" d="M400.26,-583.2C442.55,-572.42 504.1,-556.73 549.04,-545.27"/>
<polygon fill="midnightblue" stroke="midnightblue" points="550.11,-548.61 558.93,-542.75 548.38,-541.83 550.11,-548.61"/>
</g>
<!-- Node27&#45;&gt;Node21 -->
<g id="edge53" class="edge">
<title>Node27&#45;&gt;Node21</title>
<path fill="none" stroke="midnightblue" d="M330.53,-581.33C288.62,-552.89 194.64,-485.18 133,-411 103.14,-375.07 74.78,-355.11 95,-313 102.54,-297.29 117.61,-284.93 131.13,-276.37"/>
<polygon fill="midnightblue" stroke="midnightblue" points="133.29,-279.16 140.12,-271.06 129.73,-273.13 133.29,-279.16"/>
</g>
<!-- Node28 -->
<g id="node28" class="node">
<title>Node28</title>
<g id="a_node28"><a xlink:href="wait_8hpp.html" target="_top" xlink:title=" ">
<polygon fill="none" stroke="black" points="342.5,-520 342.5,-539 443.5,-539 443.5,-520 342.5,-520"/>
<text text-anchor="middle" x="393" y="-527" font-family="Helvetica,sans-Serif" font-size="10.00">yaclib/algo/wait.hpp</text>
</a>
</g>
</g>
<!-- Node27&#45;&gt;Node28 -->
<g id="edge43" class="edge">
<title>Node27&#45;&gt;Node28</title>
<path fill="none" stroke="midnightblue" d="M360.9,-581.4C367.1,-571.56 375.42,-558.38 382.03,-547.89"/>
<polygon fill="midnightblue" stroke="midnightblue" points="385.14,-549.52 387.52,-539.19 379.22,-545.79 385.14,-549.52"/>
</g>
<!-- Node29 -->
<g id="node29" class="node">
<title>Node29</title>
<g id="a_node29"><a xlink:href="wait__impl_8hpp.html" target="_top" xlink:title=" ">
<polygon fill="none" stroke="black" points="342.5,-447.5 342.5,-477.5 431.5,-477.5 431.5,-447.5 342.5,-447.5"/>
<text text-anchor="start" x="350.5" y="-465.5" font-family="Helvetica,sans-Serif" font-size="10.00">yaclib/algo/detail</text>
<text text-anchor="middle" x="387" y="-454.5" font-family="Helvetica,sans-Serif" font-size="10.00">/wait_impl.hpp</text>
</a>
</g>
</g>
<!-- Node28&#45;&gt;Node29 -->
<g id="edge44" class="edge">
<title>Node28&#45;&gt;Node29</title>
<path fill="none" stroke="midnightblue" d="M392.19,-519.73C391.43,-511.54 390.27,-498.92 389.24,-487.71"/>
<polygon fill="midnightblue" stroke="midnightblue" points="392.7,-487.22 388.3,-477.59 385.73,-487.87 392.7,-487.22"/>
</g>
<!-- Node29&#45;&gt;Node5 -->
<g id="edge45" class="edge">
<title>Node29&#45;&gt;Node5</title>
<path fill="none" stroke="midnightblue" d="M431.52,-448.35C465.64,-438.27 512.96,-424.28 549.87,-413.38"/>
<polygon fill="midnightblue" stroke="midnightblue" points="550.9,-416.72 559.5,-410.53 548.92,-410.01 550.9,-416.72"/>
</g>
<!-- Node29&#45;&gt;Node9 -->
<g id="edge50" class="edge">
<title>Node29&#45;&gt;Node9</title>
<path fill="none" stroke="midnightblue" d="M342.34,-457.11C278.67,-450.12 165.89,-434.76 133,-411 30.12,-336.69 121.97,-148.34 153.98,-90"/>
<polygon fill="midnightblue" stroke="midnightblue" points="157.06,-91.67 158.89,-81.23 150.95,-88.25 157.06,-91.67"/>
</g>
<!-- Node29&#45;&gt;Node20 -->
<g id="edge51" class="edge">
<title>Node29&#45;&gt;Node20</title>
<path fill="none" stroke="midnightblue" d="M386.14,-447.37C384.7,-423.5 381.77,-375.18 380.15,-348.41"/>
<polygon fill="midnightblue" stroke="midnightblue" points="383.62,-347.87 379.52,-338.1 376.63,-348.29 383.62,-347.87"/>
</g>
<!-- Node30 -->
<g id="node30" class="node">
<title>Node30</title>
<g id="a_node30"><a xlink:href="wait__core_8hpp.html" target="_top" xlink:title=" ">
<polygon fill="none" stroke="black" points="142,-380.5 142,-410.5 238,-410.5 238,-380.5 142,-380.5"/>
<text text-anchor="start" x="150" y="-398.5" font-family="Helvetica,sans-Serif" font-size="10.00">yaclib/async/detail</text>
<text text-anchor="middle" x="190" y="-387.5" font-family="Helvetica,sans-Serif" font-size="10.00">/wait_core.hpp</text>
</a>
</g>
</g>
<!-- Node29&#45;&gt;Node30 -->
<g id="edge46" class="edge">
<title>Node29&#45;&gt;Node30</title>
<path fill="none" stroke="midnightblue" d="M344.25,-447.4C314.31,-437.52 274.11,-424.25 242.26,-413.74"/>
<polygon fill="midnightblue" stroke="midnightblue" points="243.26,-410.39 232.66,-410.58 241.06,-417.03 243.26,-410.39"/>
</g>
<!-- Node30&#45;&gt;Node13 -->
<g id="edge47" class="edge">
<title>Node30&#45;&gt;Node13</title>
<path fill="none" stroke="midnightblue" d="M223.57,-380.33C239.56,-371.97 257.63,-359.88 269,-344 290.71,-313.67 289,-299.8 289,-262.5 289,-262.5 289,-262.5 289,-137.5 289,-96.32 311.16,-52.05 325.05,-28.35"/>
<polygon fill="midnightblue" stroke="midnightblue" points="328.05,-30.15 330.24,-19.78 322.06,-26.52 328.05,-30.15"/>
</g>
<!-- Node31 -->
<g id="node31" class="node">
<title>Node31</title>
<g id="a_node31"><a xlink:title=" ">
<polygon fill="none" stroke="#bfbfbf" points="165.5,-319 165.5,-338 260.5,-338 260.5,-319 165.5,-319"/>
<text text-anchor="middle" x="213" y="-326" font-family="Helvetica,sans-Serif" font-size="10.00">condition_variable</text>
</a>
</g>
</g>
<!-- Node30&#45;&gt;Node31 -->
<g id="edge48" class="edge">
<title>Node30&#45;&gt;Node31</title>
<path fill="none" stroke="midnightblue" d="M194.99,-380.4C198.36,-370.86 202.85,-358.18 206.5,-347.86"/>
<polygon fill="midnightblue" stroke="midnightblue" points="209.89,-348.79 209.92,-338.19 203.29,-346.45 209.89,-348.79"/>
</g>
<!-- Node32 -->
<g id="node32" class="node">
<title>Node32</title>
<g id="a_node32"><a xlink:title=" ">
<polygon fill="none" stroke="#bfbfbf" points="104.5,-319 104.5,-338 147.5,-338 147.5,-319 104.5,-319"/>
<text text-anchor="middle" x="126" y="-326" font-family="Helvetica,sans-Serif" font-size="10.00">mutex</text>
</a>
</g>
</g>
<!-- Node30&#45;&gt;Node32 -->
<g id="edge49" class="edge">
<title>Node30&#45;&gt;Node32</title>
<path fill="none" stroke="midnightblue" d="M176.11,-380.4C166.04,-370.16 152.38,-356.3 141.87,-345.62"/>
<polygon fill="midnightblue" stroke="midnightblue" points="144.07,-342.86 134.56,-338.19 139.08,-347.78 144.07,-342.86"/>
</g>
<!-- Node34&#45;&gt;Node6 -->
<g id="edge61" class="edge">
<title>Node34&#45;&gt;Node6</title>
<path fill="none" stroke="midnightblue" d="M1120.9,-704.35C1110.33,-685.58 1087,-639.41 1087,-597.5 1087,-597.5 1087,-597.5 1087,-394.5 1087,-354.53 1076.7,-341.81 1049,-313 1032.24,-295.57 1008.16,-283.04 988.06,-274.83"/>
<polygon fill="midnightblue" stroke="midnightblue" points="989.15,-271.5 978.57,-271.14 986.62,-278.02 989.15,-271.5"/>
</g>
<!-- Node35&#45;&gt;Node6 -->
<g id="edge63" class="edge">
<title>Node35&#45;&gt;Node6</title>
<path fill="none" stroke="midnightblue" d="M1129.02,-313.48C1087.63,-301.62 1029.08,-284.86 990.6,-273.84"/>
<polygon fill="midnightblue" stroke="midnightblue" points="991.36,-270.42 980.78,-271.03 989.43,-277.15 991.36,-270.42"/>
</g>
<!-- Node36 -->
<g id="node36" class="node">
<title>Node36</title>
<g id="a_node36"><a xlink:href="thread__factory_8hpp.html" target="_top" xlink:title=" ">
<polygon fill="none" stroke="black" points="1038.5,-246.5 1038.5,-276.5 1149.5,-276.5 1149.5,-246.5 1038.5,-246.5"/>
<text text-anchor="start" x="1046.5" y="-264.5" font-family="Helvetica,sans-Serif" font-size="10.00">yaclib/executor/thread</text>
<text text-anchor="middle" x="1094" y="-253.5" font-family="Helvetica,sans-Serif" font-size="10.00">_factory.hpp</text>
</a>
</g>
</g>
<!-- Node35&#45;&gt;Node36 -->
<g id="edge64" class="edge">
<title>Node35&#45;&gt;Node36</title>
<path fill="none" stroke="midnightblue" d="M1159.77,-313.4C1148.22,-304.45 1133.08,-292.74 1120.24,-282.8"/>
<polygon fill="midnightblue" stroke="midnightblue" points="1122.24,-279.93 1112.19,-276.58 1117.96,-285.46 1122.24,-279.93"/>
</g>
<!-- Node37 -->
<g id="node37" class="node">
<title>Node37</title>
<g id="a_node37"><a xlink:title=" ">
<polygon fill="none" stroke="#bfbfbf" points="1142.5,-190.5 1142.5,-209.5 1191.5,-209.5 1191.5,-190.5 1142.5,-190.5"/>
<text text-anchor="middle" x="1167" y="-197.5" font-family="Helvetica,sans-Serif" font-size="10.00">cstddef</text>
</a>
</g>
</g>
<!-- Node35&#45;&gt;Node37 -->
<g id="edge69" class="edge">
<title>Node35&#45;&gt;Node37</title>
<path fill="none" stroke="midnightblue" d="M1176.78,-313.48C1174.8,-290.72 1170.89,-245.7 1168.66,-220.06"/>
<polygon fill="midnightblue" stroke="midnightblue" points="1172.12,-219.45 1167.76,-209.79 1165.14,-220.05 1172.12,-219.45"/>
</g>
<!-- Node39 -->
<g id="node39" class="node">
<title>Node39</title>
<g id="a_node39"><a xlink:title=" ">
<polygon fill="none" stroke="#bfbfbf" points="1206,-252 1206,-271 1250,-271 1250,-252 1206,-252"/>
<text text-anchor="middle" x="1228" y="-259" font-family="Helvetica,sans-Serif" font-size="10.00">thread</text>
</a>
</g>
</g>
<!-- Node35&#45;&gt;Node39 -->
<g id="edge70" class="edge">
<title>Node35&#45;&gt;Node39</title>
<path fill="none" stroke="midnightblue" d="M1188.85,-313.4C1196.57,-303.36 1206.97,-289.84 1215.11,-279.25"/>
<polygon fill="midnightblue" stroke="midnightblue" points="1217.99,-281.25 1221.31,-271.19 1212.44,-276.99 1217.99,-281.25"/>
</g>
<!-- Node36&#45;&gt;Node7 -->
<g id="edge65" class="edge">
<title>Node36&#45;&gt;Node7</title>
<path fill="none" stroke="midnightblue" d="M1060.11,-246.4C1036.12,-236.42 1004.23,-223.15 981.12,-213.53"/>
<polygon fill="midnightblue" stroke="midnightblue" points="982.39,-210.27 971.81,-209.66 979.7,-216.73 982.39,-210.27"/>
</g>
<!-- Node36&#45;&gt;Node17 -->
<g id="edge66" class="edge">
<title>Node36&#45;&gt;Node17</title>
<path fill="none" stroke="midnightblue" d="M1082.49,-246.14C1065.79,-225.31 1034.69,-186.51 1014.96,-161.9"/>
<polygon fill="midnightblue" stroke="midnightblue" points="1017.48,-159.45 1008.49,-153.84 1012.02,-163.83 1017.48,-159.45"/>
</g>
<!-- Node36&#45;&gt;Node37 -->
<g id="edge67" class="edge">
<title>Node36&#45;&gt;Node37</title>
<path fill="none" stroke="midnightblue" d="M1111.3,-246.4C1122.45,-237.31 1136.95,-225.49 1148.36,-216.19"/>
<polygon fill="midnightblue" stroke="midnightblue" points="1150.84,-218.69 1156.38,-209.66 1146.42,-213.26 1150.84,-218.69"/>
</g>
<!-- Node38 -->
<g id="node38" class="node">
<title>Node38</title>
<g id="a_node38"><a xlink:title=" ">
<polygon fill="none" stroke="#bfbfbf" points="1073.5,-190.5 1073.5,-209.5 1114.5,-209.5 1114.5,-190.5 1073.5,-190.5"/>
<text text-anchor="middle" x="1094" y="-197.5" font-family="Helvetica,sans-Serif" font-size="10.00">string</text>
</a>
</g>
</g>
<!-- Node36&#45;&gt;Node38 -->
<g id="edge68" class="edge">
<title>Node36&#45;&gt;Node38</title>
<path fill="none" stroke="midnightblue" d="M1094,-246.4C1094,-238.47 1094,-228.46 1094,-219.86"/>
<polygon fill="midnightblue" stroke="midnightblue" points="1097.5,-219.66 1094,-209.66 1090.5,-219.66 1097.5,-219.66"/>
</g>
</g>
</svg>
        <g id="navigator" transform="translate(0 0)" fill="#404254">
                <rect fill="#f2f5e9" fill-opacity="0.5" stroke="#606060" stroke-width=".5" x="0" y="0" width="60" height="60"/>
                <use id="zoomplus" xlink:href="#zoomPlus" x="17" y="9" onmousedown="handleZoom(evt,'in')"/>
                <use id="zoomminus" xlink:href="#zoomMin" x="42" y="9" onmousedown="handleZoom(evt,'out')"/>
                <use id="reset" xlink:href="#resetDef" x="30" y="36" onmousedown="handleReset()"/>
                <g id="arrowUp" xlink:href="#dirArrow" transform="translate(30 24)" onmousedown="handlePan(0,-1)">
                  <use xlink:href="#rim" fill="#404040">
                        <set attributeName="fill" to="#808080" begin="arrowUp.mouseover" end="arrowUp.mouseout"/>
                  </use>
                  <path fill="none" stroke="white" stroke-width="1.5" d="M0,-3.0v7 M-2.5,-0.5L0,-3.0L2.5,-0.5"/>
                </g>
                <g id="arrowRight" xlink:href="#dirArrow" transform="rotate(90) translate(36 -43)" onmousedown="handlePan(1,0)">
                  <use xlink:href="#rim" fill="#404040">
                        <set attributeName="fill" to="#808080" begin="arrowRight.mouseover" end="arrowRight.mouseout"/>
                  </use>
                  <path fill="none" stroke="white" stroke-width="1.5" d="M0,-3.0v7 M-2.5,-0.5L0,-3.0L2.5,-0.5"/>
                </g>
                <g id="arrowDown" xlink:href="#dirArrow" transform="rotate(180) translate(-30 -48)" onmousedown="handlePan(0,1)">
                  <use xlink:href="#rim" fill="#404040">
                        <set attributeName="fill" to="#808080" begin="arrowDown.mouseover" end="arrowDown.mouseout"/>
                  </use>
                  <path fill="none" stroke="white" stroke-width="1.5" d="M0,-3.0v7 M-2.5,-0.5L0,-3.0L2.5,-0.5"/>
                </g>
                <g id="arrowLeft" xlink:href="#dirArrow" transform="rotate(270) translate(-36 17)" onmousedown="handlePan(-1,0)">
                  <use xlink:href="#rim" fill="#404040">
                        <set attributeName="fill" to="#808080" begin="arrowLeft.mouseover" end="arrowLeft.mouseout"/>
                  </use>
                  <path fill="none" stroke="white" stroke-width="1.5" d="M0,-3.0v7 M-2.5,-0.5L0,-3.0L2.5,-0.5"/>
                </g>
        </g>
        <svg viewBox="0 0 15 15" width="100%" height="30px" preserveAspectRatio="xMaxYMin meet">
         <g id="arrow_out" transform="scale(0.3 0.3)">
          <a xlink:href="simple_8cpp__incl_org.svg" target="_base">
           <rect id="button" ry="5" rx="5" y="6" x="6" height="38" width="38"
                fill="#f2f5e9" fill-opacity="0.5" stroke="#606060" stroke-width="1.0"/>
           <path id="arrow"
             d="M 11.500037,31.436501 C 11.940474,20.09759 22.043105,11.32322 32.158766,21.979434 L 37.068811,17.246167 C 37.068811,17.246167 37.088388,32 37.088388,32 L 22.160133,31.978069 C 22.160133,31.978069 26.997745,27.140456 26.997745,27.140456 C 18.528582,18.264221 13.291696,25.230495 11.500037,31.436501 z"
             style="fill:#404040;"/>
          </a>
         </g>
        </svg>
</svg>
