<?xml version="1.0" encoding="UTF-8" standalone="no"?>
<!DOCTYPE svg PUBLIC "-//W3C//DTD SVG 1.1//EN"
 "http://www.w3.org/Graphics/SVG/1.1/DTD/svg11.dtd">
<!-- Generated by graphviz version 2.44.0 ()
 -->
<!-- Title: src/executor/thread_pool.cpp Pages: 1 -->
<svg width="693pt" height="419pt"
 viewBox="0.00 0.00 692.50 419.00" xmlns="http://www.w3.org/2000/svg" xmlns:xlink="http://www.w3.org/1999/xlink">
<g id="graph0" class="graph" transform="scale(1 1) rotate(0) translate(4 415)">
<title>src/executor/thread_pool.cpp</title>
<!-- Node1 -->
<g id="node1" class="node">
<title>Node1</title>
<g id="a_node1"><a xlink:title=" ">
<polygon fill="#bfbfbf" stroke="black" points="370,-380.5 370,-410.5 470,-410.5 470,-380.5 370,-380.5"/>
<text text-anchor="start" x="378" y="-398.5" font-family="Helvetica,sans-Serif" font-size="10.00">src/executor/thread</text>
<text text-anchor="middle" x="420" y="-387.5" font-family="Helvetica,sans-Serif" font-size="10.00">_pool.cpp</text>
</a>
</g>
</g>
<!-- Node2 -->
<g id="node2" class="node">
<title>Node2</title>
<g id="a_node2"><a xlink:href="intrusive__list_8hpp.html" target="_top" xlink:title=" ">
<polygon fill="none" stroke="black" points="160.5,-252 160.5,-271 265.5,-271 265.5,-252 160.5,-252"/>
<text text-anchor="middle" x="213" y="-259" font-family="Helvetica,sans-Serif" font-size="10.00">util/intrusive_list.hpp</text>
</a>
</g>
</g>
<!-- Node1&#45;&gt;Node2 -->
<g id="edge1" class="edge">
<title>Node1&#45;&gt;Node2</title>
<path fill="none" stroke="midnightblue" d="M385.03,-380.31C363.83,-371.12 336.6,-358.22 314,-344 282.27,-324.03 249.12,-295.59 229.8,-278.13"/>
<polygon fill="midnightblue" stroke="midnightblue" points="231.92,-275.33 222.18,-271.16 227.2,-280.49 231.92,-275.33"/>
</g>
<!-- Node5 -->
<g id="node5" class="node">
<title>Node5</title>
<g id="a_node5"><a xlink:href="mpsc__stack_8hpp.html" target="_top" xlink:title=" ">
<polygon fill="none" stroke="black" points="0,-190.5 0,-209.5 104,-209.5 104,-190.5 0,-190.5"/>
<text text-anchor="middle" x="52" y="-197.5" font-family="Helvetica,sans-Serif" font-size="10.00">util/mpsc_stack.hpp</text>
</a>
</g>
</g>
<!-- Node1&#45;&gt;Node5 -->
<g id="edge4" class="edge">
<title>Node1&#45;&gt;Node5</title>
<path fill="none" stroke="midnightblue" d="M369.77,-391.72C294.37,-386.64 156.66,-373.52 118,-344 77.35,-312.97 60.87,-250.95 54.94,-219.79"/>
<polygon fill="midnightblue" stroke="midnightblue" points="58.37,-219.07 53.21,-209.82 51.47,-220.27 58.37,-219.07"/>
</g>
<!-- Node7 -->
<g id="node7" class="node">
<title>Node7</title>
<g id="a_node7"><a xlink:title=" ">
<polygon fill="none" stroke="#bfbfbf" points="114,-0.5 114,-19.5 160,-19.5 160,-0.5 114,-0.5"/>
<text text-anchor="middle" x="137" y="-7.5" font-family="Helvetica,sans-Serif" font-size="10.00">atomic</text>
</a>
</g>
</g>
<!-- Node1&#45;&gt;Node7 -->
<g id="edge33" class="edge">
<title>Node1&#45;&gt;Node7</title>
<path fill="none" stroke="midnightblue" d="M369.83,-393.39C287.32,-388.62 132,-365.9 132,-262.5 132,-262.5 132,-262.5 132,-137.5 132,-99.17 134.32,-54.36 135.8,-29.69"/>
<polygon fill="midnightblue" stroke="midnightblue" points="139.3,-29.78 136.43,-19.58 132.31,-29.35 139.3,-29.78"/>
</g>
<!-- Node8 -->
<g id="node8" class="node">
<title>Node8</title>
<g id="a_node8"><a xlink:href="executor_8hpp.html" target="_top" xlink:title=" ">
<polygon fill="none" stroke="black" points="451.5,-252 451.5,-271 590.5,-271 590.5,-252 451.5,-252"/>
<text text-anchor="middle" x="521" y="-259" font-family="Helvetica,sans-Serif" font-size="10.00">yaclib/executor/executor.hpp</text>
</a>
</g>
</g>
<!-- Node1&#45;&gt;Node8 -->
<g id="edge8" class="edge">
<title>Node1&#45;&gt;Node8</title>
<path fill="none" stroke="midnightblue" d="M430.81,-380.37C449.56,-355.86 488.05,-305.56 508.14,-279.3"/>
<polygon fill="midnightblue" stroke="midnightblue" points="511.12,-281.17 514.42,-271.1 505.57,-276.91 511.12,-281.17"/>
</g>
<!-- Node17 -->
<g id="node17" class="node">
<title>Node17</title>
<g id="a_node17"><a xlink:href="thread__pool_8hpp.html" target="_top" xlink:title=" ">
<polygon fill="none" stroke="black" points="322.5,-313.5 322.5,-343.5 433.5,-343.5 433.5,-313.5 322.5,-313.5"/>
<text text-anchor="start" x="330.5" y="-331.5" font-family="Helvetica,sans-Serif" font-size="10.00">yaclib/executor/thread</text>
<text text-anchor="middle" x="378" y="-320.5" font-family="Helvetica,sans-Serif" font-size="10.00">_pool.hpp</text>
</a>
</g>
</g>
<!-- Node1&#45;&gt;Node17 -->
<g id="edge24" class="edge">
<title>Node1&#45;&gt;Node17</title>
<path fill="none" stroke="midnightblue" d="M410.89,-380.4C405.55,-372.13 398.68,-361.51 392.6,-352.1"/>
<polygon fill="midnightblue" stroke="midnightblue" points="395.46,-350.08 387.1,-343.58 389.58,-353.88 395.46,-350.08"/>
</g>
<!-- Node20 -->
<g id="node20" class="node">
<title>Node20</title>
<g id="a_node20"><a xlink:title=" ">
<polygon fill="none" stroke="#bfbfbf" points="609,-252 609,-271 653,-271 653,-252 609,-252"/>
<text text-anchor="middle" x="631" y="-259" font-family="Helvetica,sans-Serif" font-size="10.00">thread</text>
</a>
</g>
</g>
<!-- Node1&#45;&gt;Node20 -->
<g id="edge36" class="edge">
<title>Node1&#45;&gt;Node20</title>
<path fill="none" stroke="midnightblue" d="M438.37,-380.34C451.26,-370.33 468.82,-356.51 484,-344 500.29,-330.57 502.19,-324.34 520,-313 552.89,-292.06 564.56,-293.26 600,-277 601.15,-276.47 602.33,-275.93 603.52,-275.38"/>
<polygon fill="midnightblue" stroke="midnightblue" points="605.07,-278.52 612.66,-271.13 602.12,-272.17 605.07,-278.52"/>
</g>
<!-- Node21 -->
<g id="node21" class="node">
<title>Node21</title>
<g id="a_node21"><a xlink:title=" ">
<polygon fill="none" stroke="#bfbfbf" points="528.5,-319 528.5,-338 623.5,-338 623.5,-319 528.5,-319"/>
<text text-anchor="middle" x="576" y="-326" font-family="Helvetica,sans-Serif" font-size="10.00">condition_variable</text>
</a>
</g>
</g>
<!-- Node1&#45;&gt;Node21 -->
<g id="edge34" class="edge">
<title>Node1&#45;&gt;Node21</title>
<path fill="none" stroke="midnightblue" d="M453.85,-380.4C481.34,-368.94 519.75,-352.94 546.11,-341.95"/>
<polygon fill="midnightblue" stroke="midnightblue" points="547.7,-345.08 555.58,-338.01 545.01,-338.62 547.7,-345.08"/>
</g>
<!-- Node22 -->
<g id="node22" class="node">
<title>Node22</title>
<g id="a_node22"><a xlink:title=" ">
<polygon fill="none" stroke="#bfbfbf" points="641.5,-319 641.5,-338 684.5,-338 684.5,-319 641.5,-319"/>
<text text-anchor="middle" x="663" y="-326" font-family="Helvetica,sans-Serif" font-size="10.00">mutex</text>
</a>
</g>
</g>
<!-- Node1&#45;&gt;Node22 -->
<g id="edge35" class="edge">
<title>Node1&#45;&gt;Node22</title>
<path fill="none" stroke="midnightblue" d="M470.38,-385.76C514.11,-377.43 578.75,-363.28 633,-344 634.43,-343.49 635.88,-342.93 637.34,-342.35"/>
<polygon fill="midnightblue" stroke="midnightblue" points="639.06,-345.41 646.77,-338.14 636.21,-339.02 639.06,-345.41"/>
</g>
<!-- Node3 -->
<g id="node3" class="node">
<title>Node3</title>
<g id="a_node3"><a xlink:href="intrusive__node_8hpp.html" target="_top" xlink:title=" ">
<polygon fill="none" stroke="black" points="217.5,-123.5 217.5,-153.5 314.5,-153.5 314.5,-123.5 217.5,-123.5"/>
<text text-anchor="start" x="225.5" y="-141.5" font-family="Helvetica,sans-Serif" font-size="10.00">yaclib/util/intrusive</text>
<text text-anchor="middle" x="266" y="-130.5" font-family="Helvetica,sans-Serif" font-size="10.00">_node.hpp</text>
</a>
</g>
</g>
<!-- Node2&#45;&gt;Node3 -->
<g id="edge2" class="edge">
<title>Node2&#45;&gt;Node3</title>
<path fill="none" stroke="midnightblue" d="M214.37,-251.94C216.74,-238.36 222.32,-211.22 232,-190 236.43,-180.29 242.65,-170.39 248.56,-161.95"/>
<polygon fill="midnightblue" stroke="midnightblue" points="251.47,-163.91 254.52,-153.77 245.81,-159.79 251.47,-163.91"/>
</g>
<!-- Node4 -->
<g id="node4" class="node">
<title>Node4</title>
<g id="a_node4"><a xlink:title=" ">
<polygon fill="none" stroke="#bfbfbf" points="241.5,-190.5 241.5,-209.5 290.5,-209.5 290.5,-190.5 241.5,-190.5"/>
<text text-anchor="middle" x="266" y="-197.5" font-family="Helvetica,sans-Serif" font-size="10.00">cstddef</text>
</a>
</g>
</g>
<!-- Node2&#45;&gt;Node4 -->
<g id="edge3" class="edge">
<title>Node2&#45;&gt;Node4</title>
<path fill="none" stroke="midnightblue" d="M220.59,-251.98C228.7,-242.87 241.73,-228.24 251.76,-216.98"/>
<polygon fill="midnightblue" stroke="midnightblue" points="254.38,-219.3 258.42,-209.51 249.16,-214.65 254.38,-219.3"/>
</g>
<!-- Node5&#45;&gt;Node3 -->
<g id="edge6" class="edge">
<title>Node5&#45;&gt;Node3</title>
<path fill="none" stroke="midnightblue" d="M82.66,-190.48C115.12,-181.45 167.13,-166.99 207.48,-155.77"/>
<polygon fill="midnightblue" stroke="midnightblue" points="208.51,-159.12 217.21,-153.07 206.63,-152.37 208.51,-159.12"/>
</g>
<!-- Node6 -->
<g id="node6" class="node">
<title>Node6</title>
<g id="a_node6"><a xlink:title=" ">
<polygon fill="none" stroke="#bfbfbf" points="8,-0.5 8,-19.5 96,-19.5 96,-0.5 8,-0.5"/>
<text text-anchor="middle" x="52" y="-7.5" font-family="Helvetica,sans-Serif" font-size="10.00">yaclib/config.hpp</text>
</a>
</g>
</g>
<!-- Node5&#45;&gt;Node6 -->
<g id="edge5" class="edge">
<title>Node5&#45;&gt;Node6</title>
<path fill="none" stroke="midnightblue" d="M52,-190.43C52,-161.93 52,-69.82 52,-29.83"/>
<polygon fill="midnightblue" stroke="midnightblue" points="55.5,-29.62 52,-19.62 48.5,-29.62 55.5,-29.62"/>
</g>
<!-- Node5&#45;&gt;Node7 -->
<g id="edge7" class="edge">
<title>Node5&#45;&gt;Node7</title>
<path fill="none" stroke="midnightblue" d="M55.87,-190.43C68.87,-161.68 111.12,-68.24 128.95,-28.81"/>
<polygon fill="midnightblue" stroke="midnightblue" points="132.17,-30.17 133.1,-19.62 125.8,-27.29 132.17,-30.17"/>
</g>
<!-- Node9 -->
<g id="node9" class="node">
<title>Node9</title>
<g id="a_node9"><a xlink:href="task_8hpp.html" target="_top" xlink:title=" ">
<polygon fill="none" stroke="black" points="406.5,-190.5 406.5,-209.5 527.5,-209.5 527.5,-190.5 406.5,-190.5"/>
<text text-anchor="middle" x="467" y="-197.5" font-family="Helvetica,sans-Serif" font-size="10.00">yaclib/executor/task.hpp</text>
</a>
</g>
</g>
<!-- Node8&#45;&gt;Node9 -->
<g id="edge9" class="edge">
<title>Node8&#45;&gt;Node9</title>
<path fill="none" stroke="midnightblue" d="M513.26,-251.98C505,-242.87 491.72,-228.24 481.51,-216.98"/>
<polygon fill="midnightblue" stroke="midnightblue" points="484.03,-214.56 474.72,-209.51 478.85,-219.27 484.03,-214.56"/>
</g>
<!-- Node12 -->
<g id="node12" class="node">
<title>Node12</title>
<g id="a_node12"><a xlink:href="intrusive__ptr_8hpp.html" target="_top" xlink:title=" ">
<polygon fill="none" stroke="black" points="495.5,-56.5 495.5,-86.5 592.5,-86.5 592.5,-56.5 495.5,-56.5"/>
<text text-anchor="start" x="503.5" y="-74.5" font-family="Helvetica,sans-Serif" font-size="10.00">yaclib/util/intrusive</text>
<text text-anchor="middle" x="544" y="-63.5" font-family="Helvetica,sans-Serif" font-size="10.00">_ptr.hpp</text>
</a>
</g>
</g>
<!-- Node8&#45;&gt;Node12 -->
<g id="edge23" class="edge">
<title>Node8&#45;&gt;Node12</title>
<path fill="none" stroke="midnightblue" d="M524.54,-251.73C528.36,-241.8 534.28,-225.02 537,-210 544.06,-170.93 544.91,-124.67 544.63,-97"/>
<polygon fill="midnightblue" stroke="midnightblue" points="548.12,-96.63 544.46,-86.69 541.12,-96.74 548.12,-96.63"/>
</g>
<!-- Node9&#45;&gt;Node3 -->
<g id="edge22" class="edge">
<title>Node9&#45;&gt;Node3</title>
<path fill="none" stroke="midnightblue" d="M438.2,-190.48C408.31,-181.63 360.75,-167.55 323.18,-156.43"/>
<polygon fill="midnightblue" stroke="midnightblue" points="323.95,-153.01 313.37,-153.52 321.97,-159.72 323.95,-153.01"/>
</g>
<!-- Node10 -->
<g id="node10" class="node">
<title>Node10</title>
<g id="a_node10"><a xlink:href="func_8hpp.html" target="_top" xlink:title=" ">
<polygon fill="none" stroke="black" points="418.5,-129 418.5,-148 515.5,-148 515.5,-129 418.5,-129"/>
<text text-anchor="middle" x="467" y="-136" font-family="Helvetica,sans-Serif" font-size="10.00">yaclib/util/func.hpp</text>
</a>
</g>
</g>
<!-- Node9&#45;&gt;Node10 -->
<g id="edge10" class="edge">
<title>Node9&#45;&gt;Node10</title>
<path fill="none" stroke="midnightblue" d="M467,-190.48C467,-182.08 467,-168.98 467,-158.16"/>
<polygon fill="midnightblue" stroke="midnightblue" points="470.5,-158.01 467,-148.01 463.5,-158.01 470.5,-158.01"/>
</g>
<!-- Node11 -->
<g id="node11" class="node">
<title>Node11</title>
<g id="a_node11"><a xlink:href="counters_8hpp.html" target="_top" xlink:title=" ">
<polygon fill="none" stroke="black" points="160,-62 160,-81 276,-81 276,-62 160,-62"/>
<text text-anchor="middle" x="218" y="-69" font-family="Helvetica,sans-Serif" font-size="10.00">yaclib/util/counters.hpp</text>
</a>
</g>
</g>
<!-- Node10&#45;&gt;Node11 -->
<g id="edge11" class="edge">
<title>Node10&#45;&gt;Node11</title>
<path fill="none" stroke="midnightblue" d="M434.19,-128.94C389.59,-117.29 309.76,-96.45 260.59,-83.62"/>
<polygon fill="midnightblue" stroke="midnightblue" points="261.44,-80.22 250.88,-81.08 259.67,-87 261.44,-80.22"/>
</g>
<!-- Node10&#45;&gt;Node12 -->
<g id="edge14" class="edge">
<title>Node10&#45;&gt;Node12</title>
<path fill="none" stroke="midnightblue" d="M477.38,-128.73C488.09,-119.7 505.18,-105.27 519.36,-93.3"/>
<polygon fill="midnightblue" stroke="midnightblue" points="521.93,-95.71 527.31,-86.59 517.41,-90.37 521.93,-95.71"/>
</g>
<!-- Node13 -->
<g id="node13" class="node">
<title>Node13</title>
<g id="a_node13"><a xlink:href="ref_8hpp.html" target="_top" xlink:title=" ">
<polygon fill="none" stroke="black" points="589.5,-0.5 589.5,-19.5 678.5,-19.5 678.5,-0.5 589.5,-0.5"/>
<text text-anchor="middle" x="634" y="-7.5" font-family="Helvetica,sans-Serif" font-size="10.00">yaclib/util/ref.hpp</text>
</a>
</g>
</g>
<!-- Node10&#45;&gt;Node13 -->
<g id="edge19" class="edge">
<title>Node10&#45;&gt;Node13</title>
<path fill="none" stroke="midnightblue" d="M515.54,-129.3C543.82,-122.3 578.45,-109.62 602,-87 618.09,-71.55 626.45,-46.74 630.53,-29.7"/>
<polygon fill="midnightblue" stroke="midnightblue" points="633.98,-30.3 632.63,-19.79 627.13,-28.85 633.98,-30.3"/>
</g>
<!-- Node15 -->
<g id="node15" class="node">
<title>Node15</title>
<g id="a_node15"><a xlink:title=" ">
<polygon fill="none" stroke="#bfbfbf" points="378,-0.5 378,-19.5 440,-19.5 440,-0.5 378,-0.5"/>
<text text-anchor="middle" x="409" y="-7.5" font-family="Helvetica,sans-Serif" font-size="10.00">type_traits</text>
</a>
</g>
</g>
<!-- Node10&#45;&gt;Node15 -->
<g id="edge20" class="edge">
<title>Node10&#45;&gt;Node15</title>
<path fill="none" stroke="midnightblue" d="M463.01,-128.81C453.62,-108.31 429.93,-56.65 417.27,-29.04"/>
<polygon fill="midnightblue" stroke="midnightblue" points="420.36,-27.39 413.01,-19.76 414,-30.3 420.36,-27.39"/>
</g>
<!-- Node16 -->
<g id="node16" class="node">
<title>Node16</title>
<g id="a_node16"><a xlink:title=" ">
<polygon fill="none" stroke="#bfbfbf" points="458.5,-0.5 458.5,-19.5 497.5,-19.5 497.5,-0.5 458.5,-0.5"/>
<text text-anchor="middle" x="478" y="-7.5" font-family="Helvetica,sans-Serif" font-size="10.00">utility</text>
</a>
</g>
</g>
<!-- Node10&#45;&gt;Node16 -->
<g id="edge21" class="edge">
<title>Node10&#45;&gt;Node16</title>
<path fill="none" stroke="midnightblue" d="M467.76,-128.81C469.52,-108.49 473.95,-57.55 476.37,-29.78"/>
<polygon fill="midnightblue" stroke="midnightblue" points="479.86,-30.02 477.24,-19.76 472.89,-29.41 479.86,-30.02"/>
</g>
<!-- Node11&#45;&gt;Node6 -->
<g id="edge12" class="edge">
<title>Node11&#45;&gt;Node6</title>
<path fill="none" stroke="midnightblue" d="M194.22,-61.98C165.62,-51.72 117.45,-34.46 85.2,-22.9"/>
<polygon fill="midnightblue" stroke="midnightblue" points="86.33,-19.59 75.74,-19.51 83.97,-26.18 86.33,-19.59"/>
</g>
<!-- Node11&#45;&gt;Node7 -->
<g id="edge13" class="edge">
<title>Node11&#45;&gt;Node7</title>
<path fill="none" stroke="midnightblue" d="M206.39,-61.98C193.52,-52.52 172.53,-37.1 156.99,-25.69"/>
<polygon fill="midnightblue" stroke="midnightblue" points="158.72,-22.61 148.58,-19.51 154.57,-28.25 158.72,-22.61"/>
</g>
<!-- Node12&#45;&gt;Node13 -->
<g id="edge15" class="edge">
<title>Node12&#45;&gt;Node13</title>
<path fill="none" stroke="midnightblue" d="M565.33,-56.4C579.49,-47.04 598.01,-34.79 612.25,-25.38"/>
<polygon fill="midnightblue" stroke="midnightblue" points="614.49,-28.09 620.9,-19.66 610.63,-22.25 614.49,-28.09"/>
</g>
<!-- Node14 -->
<g id="node14" class="node">
<title>Node14</title>
<g id="a_node14"><a xlink:title=" ">
<polygon fill="none" stroke="#bfbfbf" points="516,-0.5 516,-19.5 572,-19.5 572,-0.5 516,-0.5"/>
<text text-anchor="middle" x="544" y="-7.5" font-family="Helvetica,sans-Serif" font-size="10.00">algorithm</text>
</a>
</g>
</g>
<!-- Node12&#45;&gt;Node14 -->
<g id="edge16" class="edge">
<title>Node12&#45;&gt;Node14</title>
<path fill="none" stroke="midnightblue" d="M544,-56.4C544,-48.47 544,-38.46 544,-29.86"/>
<polygon fill="midnightblue" stroke="midnightblue" points="547.5,-29.66 544,-19.66 540.5,-29.66 547.5,-29.66"/>
</g>
<!-- Node12&#45;&gt;Node15 -->
<g id="edge17" class="edge">
<title>Node12&#45;&gt;Node15</title>
<path fill="none" stroke="midnightblue" d="M512.01,-56.4C489.56,-46.51 459.79,-33.38 438.02,-23.79"/>
<polygon fill="midnightblue" stroke="midnightblue" points="439.21,-20.49 428.64,-19.66 436.38,-26.89 439.21,-20.49"/>
</g>
<!-- Node12&#45;&gt;Node16 -->
<g id="edge18" class="edge">
<title>Node12&#45;&gt;Node16</title>
<path fill="none" stroke="midnightblue" d="M528.36,-56.4C518.37,-47.4 505.42,-35.72 495.15,-26.47"/>
<polygon fill="midnightblue" stroke="midnightblue" points="497.37,-23.75 487.6,-19.66 492.69,-28.95 497.37,-23.75"/>
</g>
<!-- Node17&#45;&gt;Node4 -->
<g id="edge31" class="edge">
<title>Node17&#45;&gt;Node4</title>
<path fill="none" stroke="midnightblue" d="M356.6,-313.42C343.38,-304.07 326.6,-290.99 314,-277 297.74,-258.94 283.51,-234.74 274.85,-218.55"/>
<polygon fill="midnightblue" stroke="midnightblue" points="277.92,-216.88 270.21,-209.62 271.71,-220.11 277.92,-216.88"/>
</g>
<!-- Node17&#45;&gt;Node8 -->
<g id="edge25" class="edge">
<title>Node17&#45;&gt;Node8</title>
<path fill="none" stroke="midnightblue" d="M409.03,-313.4C434.01,-302.04 468.82,-286.22 492.96,-275.24"/>
<polygon fill="midnightblue" stroke="midnightblue" points="494.63,-278.33 502.28,-271.01 491.73,-271.96 494.63,-278.33"/>
</g>
<!-- Node18 -->
<g id="node18" class="node">
<title>Node18</title>
<g id="a_node18"><a xlink:href="thread__factory_8hpp.html" target="_top" xlink:title=" ">
<polygon fill="none" stroke="black" points="322.5,-246.5 322.5,-276.5 433.5,-276.5 433.5,-246.5 322.5,-246.5"/>
<text text-anchor="start" x="330.5" y="-264.5" font-family="Helvetica,sans-Serif" font-size="10.00">yaclib/executor/thread</text>
<text text-anchor="middle" x="378" y="-253.5" font-family="Helvetica,sans-Serif" font-size="10.00">_factory.hpp</text>
</a>
</g>
</g>
<!-- Node17&#45;&gt;Node18 -->
<g id="edge26" class="edge">
<title>Node17&#45;&gt;Node18</title>
<path fill="none" stroke="midnightblue" d="M378,-313.4C378,-305.64 378,-295.81 378,-286.86"/>
<polygon fill="midnightblue" stroke="midnightblue" points="381.5,-286.58 378,-276.58 374.5,-286.58 381.5,-286.58"/>
</g>
<!-- Node17&#45;&gt;Node20 -->
<g id="edge32" class="edge">
<title>Node17&#45;&gt;Node20</title>
<path fill="none" stroke="midnightblue" d="M433.65,-318.26C479.12,-309.9 544.67,-295.99 600,-277 601.62,-276.44 603.27,-275.83 604.93,-275.17"/>
<polygon fill="midnightblue" stroke="midnightblue" points="606.43,-278.34 614.22,-271.15 603.65,-271.91 606.43,-278.34"/>
</g>
<!-- Node18&#45;&gt;Node3 -->
<g id="edge28" class="edge">
<title>Node18&#45;&gt;Node3</title>
<path fill="none" stroke="midnightblue" d="M364.71,-246.14C345.26,-225.13 308.89,-185.83 286.14,-161.26"/>
<polygon fill="midnightblue" stroke="midnightblue" points="288.63,-158.8 279.27,-153.84 283.49,-163.55 288.63,-158.8"/>
</g>
<!-- Node18&#45;&gt;Node4 -->
<g id="edge29" class="edge">
<title>Node18&#45;&gt;Node4</title>
<path fill="none" stroke="midnightblue" d="M351.46,-246.4C333.34,-236.77 309.46,-224.09 291.56,-214.58"/>
<polygon fill="midnightblue" stroke="midnightblue" points="292.77,-211.26 282.3,-209.66 289.49,-217.44 292.77,-211.26"/>
</g>
<!-- Node18&#45;&gt;Node9 -->
<g id="edge27" class="edge">
<title>Node18&#45;&gt;Node9</title>
<path fill="none" stroke="midnightblue" d="M399.09,-246.4C413.09,-237.04 431.41,-224.79 445.49,-215.38"/>
<polygon fill="midnightblue" stroke="midnightblue" points="447.68,-218.13 454.05,-209.66 443.79,-212.31 447.68,-218.13"/>
</g>
<!-- Node19 -->
<g id="node19" class="node">
<title>Node19</title>
<g id="a_node19"><a xlink:title=" ">
<polygon fill="none" stroke="#bfbfbf" points="347.5,-190.5 347.5,-209.5 388.5,-209.5 388.5,-190.5 347.5,-190.5"/>
<text text-anchor="middle" x="368" y="-197.5" font-family="Helvetica,sans-Serif" font-size="10.00">string</text>
</a>
</g>
</g>
<!-- Node18&#45;&gt;Node19 -->
<g id="edge30" class="edge">
<title>Node18&#45;&gt;Node19</title>
<path fill="none" stroke="midnightblue" d="M375.63,-246.4C374.28,-238.38 372.58,-228.23 371.12,-219.57"/>
<polygon fill="midnightblue" stroke="midnightblue" points="374.56,-218.94 369.46,-209.66 367.66,-220.1 374.56,-218.94"/>
</g>
</g>
</svg>
