<?xml version="1.0" encoding="UTF-8" standalone="no"?>
<!DOCTYPE svg PUBLIC "-//W3C//DTD SVG 1.1//EN"
 "http://www.w3.org/Graphics/SVG/1.1/DTD/svg11.dtd">
<!-- Generated by graphviz version 2.44.0 ()
 -->
<!-- Title: src/executor/serial.cpp Pages: 1 -->
<svg width="544pt" height="330pt"
 viewBox="0.00 0.00 543.50 330.00" xmlns="http://www.w3.org/2000/svg" xmlns:xlink="http://www.w3.org/1999/xlink">
<g id="graph0" class="graph" transform="scale(1 1) rotate(0) translate(4 326)">
<title>src/executor/serial.cpp</title>
<!-- Node1 -->
<g id="node1" class="node">
<title>Node1</title>
<g id="a_node1"><a xlink:title=" ">
<polygon fill="#bfbfbf" stroke="black" points="179,-302.5 179,-321.5 293,-321.5 293,-302.5 179,-302.5"/>
<text text-anchor="middle" x="236" y="-309.5" font-family="Helvetica,sans-Serif" font-size="10.00">src/executor/serial.cpp</text>
</a>
</g>
</g>
<!-- Node2 -->
<g id="node2" class="node">
<title>Node2</title>
<g id="a_node2"><a xlink:href="mpsc__stack_8hpp.html" target="_top" xlink:title=" ">
<polygon fill="none" stroke="black" points="69,-190.5 69,-209.5 173,-209.5 173,-190.5 69,-190.5"/>
<text text-anchor="middle" x="121" y="-197.5" font-family="Helvetica,sans-Serif" font-size="10.00">util/mpsc_stack.hpp</text>
</a>
</g>
</g>
<!-- Node1&#45;&gt;Node2 -->
<g id="edge1" class="edge">
<title>Node1&#45;&gt;Node2</title>
<path fill="none" stroke="midnightblue" d="M226.98,-302.37C207.66,-283.89 162.08,-240.29 137.46,-216.74"/>
<polygon fill="midnightblue" stroke="midnightblue" points="139.63,-213.97 129.98,-209.59 134.79,-219.03 139.63,-213.97"/>
</g>
<!-- Node3 -->
<g id="node3" class="node">
<title>Node3</title>
<g id="a_node3"><a xlink:title=" ">
<polygon fill="none" stroke="#bfbfbf" points="0,-0.5 0,-19.5 88,-19.5 88,-0.5 0,-0.5"/>
<text text-anchor="middle" x="44" y="-7.5" font-family="Helvetica,sans-Serif" font-size="10.00">yaclib/config.hpp</text>
</a>
</g>
</g>
<!-- Node1&#45;&gt;Node3 -->
<g id="edge5" class="edge">
<title>Node1&#45;&gt;Node3</title>
<path fill="none" stroke="midnightblue" d="M178.85,-307.93C110.73,-300.82 6,-277.46 6,-201 6,-201 6,-201 6,-137.5 6,-97.35 23.78,-52.95 35.01,-28.89"/>
<polygon fill="midnightblue" stroke="midnightblue" points="38.29,-30.15 39.49,-19.63 31.99,-27.1 38.29,-30.15"/>
</g>
<!-- Node5 -->
<g id="node5" class="node">
<title>Node5</title>
<g id="a_node5"><a xlink:title=" ">
<polygon fill="none" stroke="#bfbfbf" points="109,-0.5 109,-19.5 155,-19.5 155,-0.5 109,-0.5"/>
<text text-anchor="middle" x="132" y="-7.5" font-family="Helvetica,sans-Serif" font-size="10.00">atomic</text>
</a>
</g>
</g>
<!-- Node1&#45;&gt;Node5 -->
<g id="edge22" class="edge">
<title>Node1&#45;&gt;Node5</title>
<path fill="none" stroke="midnightblue" d="M237.7,-302.21C242.71,-273.58 254.82,-181.54 216,-123 197.75,-95.48 171.12,-113.19 151,-87 138.34,-70.52 134.03,-46.65 132.6,-30.08"/>
<polygon fill="midnightblue" stroke="midnightblue" points="136.09,-29.73 132.01,-19.95 129.1,-30.13 136.09,-29.73"/>
</g>
<!-- Node6 -->
<g id="node6" class="node">
<title>Node6</title>
<g id="a_node6"><a xlink:href="executor_8hpp.html" target="_top" xlink:title=" ">
<polygon fill="none" stroke="black" points="264.5,-246.5 264.5,-265.5 403.5,-265.5 403.5,-246.5 264.5,-246.5"/>
<text text-anchor="middle" x="334" y="-253.5" font-family="Helvetica,sans-Serif" font-size="10.00">yaclib/executor/executor.hpp</text>
</a>
</g>
</g>
<!-- Node1&#45;&gt;Node6 -->
<g id="edge6" class="edge">
<title>Node1&#45;&gt;Node6</title>
<path fill="none" stroke="midnightblue" d="M251.75,-302.32C267.32,-293.74 291.38,-280.49 309.46,-270.52"/>
<polygon fill="midnightblue" stroke="midnightblue" points="311.22,-273.55 318.29,-265.65 307.85,-267.42 311.22,-273.55"/>
</g>
<!-- Node14 -->
<g id="node14" class="node">
<title>Node14</title>
<g id="a_node14"><a xlink:title=" ">
<polygon fill="none" stroke="#bfbfbf" points="496.5,-0.5 496.5,-19.5 535.5,-19.5 535.5,-0.5 496.5,-0.5"/>
<text text-anchor="middle" x="516" y="-7.5" font-family="Helvetica,sans-Serif" font-size="10.00">utility</text>
</a>
</g>
</g>
<!-- Node1&#45;&gt;Node14 -->
<g id="edge23" class="edge">
<title>Node1&#45;&gt;Node14</title>
<path fill="none" stroke="midnightblue" d="M289.97,-302.45C375.84,-287.3 534,-252.43 534,-201 534,-201 534,-201 534,-137.5 534,-98.82 525.65,-54.14 520.32,-29.58"/>
<polygon fill="midnightblue" stroke="midnightblue" points="523.67,-28.52 518.06,-19.53 516.84,-30.05 523.67,-28.52"/>
</g>
<!-- Node2&#45;&gt;Node3 -->
<g id="edge2" class="edge">
<title>Node2&#45;&gt;Node3</title>
<path fill="none" stroke="midnightblue" d="M115.33,-190.29C109.7,-181.41 101.06,-167.1 95,-154 74.97,-110.69 57.76,-57.11 49.4,-29.46"/>
<polygon fill="midnightblue" stroke="midnightblue" points="52.67,-28.18 46.47,-19.59 45.97,-30.18 52.67,-28.18"/>
</g>
<!-- Node4 -->
<g id="node4" class="node">
<title>Node4</title>
<g id="a_node4"><a xlink:href="intrusive__node_8hpp.html" target="_top" xlink:title=" ">
<polygon fill="none" stroke="black" points="110.5,-123.5 110.5,-153.5 207.5,-153.5 207.5,-123.5 110.5,-123.5"/>
<text text-anchor="start" x="118.5" y="-141.5" font-family="Helvetica,sans-Serif" font-size="10.00">yaclib/util/intrusive</text>
<text text-anchor="middle" x="159" y="-130.5" font-family="Helvetica,sans-Serif" font-size="10.00">_node.hpp</text>
</a>
</g>
</g>
<!-- Node2&#45;&gt;Node4 -->
<g id="edge3" class="edge">
<title>Node2&#45;&gt;Node4</title>
<path fill="none" stroke="midnightblue" d="M126.44,-190.48C131.16,-183.09 138.19,-172.08 144.52,-162.17"/>
<polygon fill="midnightblue" stroke="midnightblue" points="147.61,-163.83 150.04,-153.52 141.71,-160.07 147.61,-163.83"/>
</g>
<!-- Node2&#45;&gt;Node5 -->
<g id="edge4" class="edge">
<title>Node2&#45;&gt;Node5</title>
<path fill="none" stroke="midnightblue" d="M115.87,-190.41C110.94,-181.61 103.84,-167.38 101,-154 91.46,-109.03 110.9,-56.17 123.11,-29.06"/>
<polygon fill="midnightblue" stroke="midnightblue" points="126.43,-30.24 127.51,-19.7 120.09,-27.26 126.43,-30.24"/>
</g>
<!-- Node7 -->
<g id="node7" class="node">
<title>Node7</title>
<g id="a_node7"><a xlink:href="task_8hpp.html" target="_top" xlink:title=" ">
<polygon fill="none" stroke="black" points="269.5,-190.5 269.5,-209.5 390.5,-209.5 390.5,-190.5 269.5,-190.5"/>
<text text-anchor="middle" x="330" y="-197.5" font-family="Helvetica,sans-Serif" font-size="10.00">yaclib/executor/task.hpp</text>
</a>
</g>
</g>
<!-- Node6&#45;&gt;Node7 -->
<g id="edge7" class="edge">
<title>Node6&#45;&gt;Node7</title>
<path fill="none" stroke="midnightblue" d="M333.34,-246.08C332.82,-239.01 332.06,-228.86 331.41,-219.99"/>
<polygon fill="midnightblue" stroke="midnightblue" points="334.88,-219.47 330.65,-209.75 327.9,-219.98 334.88,-219.47"/>
</g>
<!-- Node10 -->
<g id="node10" class="node">
<title>Node10</title>
<g id="a_node10"><a xlink:href="intrusive__ptr_8hpp.html" target="_top" xlink:title=" ">
<polygon fill="none" stroke="black" points="370.5,-56.5 370.5,-86.5 467.5,-86.5 467.5,-56.5 370.5,-56.5"/>
<text text-anchor="start" x="378.5" y="-74.5" font-family="Helvetica,sans-Serif" font-size="10.00">yaclib/util/intrusive</text>
<text text-anchor="middle" x="419" y="-63.5" font-family="Helvetica,sans-Serif" font-size="10.00">_ptr.hpp</text>
</a>
</g>
</g>
<!-- Node6&#45;&gt;Node10 -->
<g id="edge21" class="edge">
<title>Node6&#45;&gt;Node10</title>
<path fill="none" stroke="midnightblue" d="M354.8,-246.44C369.91,-239.09 389.48,-226.97 400,-210 421.61,-175.13 422.88,-125.83 421.31,-96.71"/>
<polygon fill="midnightblue" stroke="midnightblue" points="424.79,-96.34 420.6,-86.61 417.81,-96.83 424.79,-96.34"/>
</g>
<!-- Node7&#45;&gt;Node4 -->
<g id="edge20" class="edge">
<title>Node7&#45;&gt;Node4</title>
<path fill="none" stroke="midnightblue" d="M305.5,-190.48C280.39,-181.74 240.64,-167.91 208.88,-156.86"/>
<polygon fill="midnightblue" stroke="midnightblue" points="209.9,-153.5 199.3,-153.52 207.6,-160.11 209.9,-153.5"/>
</g>
<!-- Node8 -->
<g id="node8" class="node">
<title>Node8</title>
<g id="a_node8"><a xlink:href="func_8hpp.html" target="_top" xlink:title=" ">
<polygon fill="none" stroke="black" points="287.5,-129 287.5,-148 384.5,-148 384.5,-129 287.5,-129"/>
<text text-anchor="middle" x="336" y="-136" font-family="Helvetica,sans-Serif" font-size="10.00">yaclib/util/func.hpp</text>
</a>
</g>
</g>
<!-- Node7&#45;&gt;Node8 -->
<g id="edge8" class="edge">
<title>Node7&#45;&gt;Node8</title>
<path fill="none" stroke="midnightblue" d="M330.86,-190.48C331.71,-182.08 333.03,-168.98 334.12,-158.16"/>
<polygon fill="midnightblue" stroke="midnightblue" points="337.62,-158.31 335.14,-148.01 330.66,-157.61 337.62,-158.31"/>
</g>
<!-- Node9 -->
<g id="node9" class="node">
<title>Node9</title>
<g id="a_node9"><a xlink:href="counters_8hpp.html" target="_top" xlink:title=" ">
<polygon fill="none" stroke="black" points="160,-62 160,-81 276,-81 276,-62 160,-62"/>
<text text-anchor="middle" x="218" y="-69" font-family="Helvetica,sans-Serif" font-size="10.00">yaclib/util/counters.hpp</text>
</a>
</g>
</g>
<!-- Node8&#45;&gt;Node9 -->
<g id="edge9" class="edge">
<title>Node8&#45;&gt;Node9</title>
<path fill="none" stroke="midnightblue" d="M320.09,-128.73C300.18,-117.77 265.89,-98.88 242.6,-86.05"/>
<polygon fill="midnightblue" stroke="midnightblue" points="244.11,-82.89 233.66,-81.13 240.73,-89.02 244.11,-82.89"/>
</g>
<!-- Node8&#45;&gt;Node10 -->
<g id="edge12" class="edge">
<title>Node8&#45;&gt;Node10</title>
<path fill="none" stroke="midnightblue" d="M347.19,-128.73C358.84,-119.61 377.5,-105 392.87,-92.96"/>
<polygon fill="midnightblue" stroke="midnightblue" points="395.29,-95.51 401.01,-86.59 390.98,-90 395.29,-95.51"/>
</g>
<!-- Node11 -->
<g id="node11" class="node">
<title>Node11</title>
<g id="a_node11"><a xlink:href="ref_8hpp.html" target="_top" xlink:title=" ">
<polygon fill="none" stroke="black" points="315.5,-0.5 315.5,-19.5 404.5,-19.5 404.5,-0.5 315.5,-0.5"/>
<text text-anchor="middle" x="360" y="-7.5" font-family="Helvetica,sans-Serif" font-size="10.00">yaclib/util/ref.hpp</text>
</a>
</g>
</g>
<!-- Node8&#45;&gt;Node11 -->
<g id="edge17" class="edge">
<title>Node8&#45;&gt;Node11</title>
<path fill="none" stroke="midnightblue" d="M337.65,-128.81C341.5,-108.49 351.17,-57.55 356.44,-29.78"/>
<polygon fill="midnightblue" stroke="midnightblue" points="359.91,-30.23 358.34,-19.76 353.04,-28.93 359.91,-30.23"/>
</g>
<!-- Node13 -->
<g id="node13" class="node">
<title>Node13</title>
<g id="a_node13"><a xlink:title=" ">
<polygon fill="none" stroke="#bfbfbf" points="236,-0.5 236,-19.5 298,-19.5 298,-0.5 236,-0.5"/>
<text text-anchor="middle" x="267" y="-7.5" font-family="Helvetica,sans-Serif" font-size="10.00">type_traits</text>
</a>
</g>
</g>
<!-- Node8&#45;&gt;Node13 -->
<g id="edge18" class="edge">
<title>Node8&#45;&gt;Node13</title>
<path fill="none" stroke="midnightblue" d="M331.26,-128.81C320.03,-108.22 291.65,-56.19 276.64,-28.68"/>
<polygon fill="midnightblue" stroke="midnightblue" points="279.64,-26.86 271.78,-19.76 273.49,-30.21 279.64,-26.86"/>
</g>
<!-- Node8&#45;&gt;Node14 -->
<g id="edge19" class="edge">
<title>Node8&#45;&gt;Node14</title>
<path fill="none" stroke="midnightblue" d="M384.7,-129.45C414.24,-122.45 451.11,-109.73 477,-87 494.46,-71.67 505.16,-46.64 510.83,-29.52"/>
<polygon fill="midnightblue" stroke="midnightblue" points="514.29,-30.18 513.85,-19.6 507.59,-28.14 514.29,-30.18"/>
</g>
<!-- Node9&#45;&gt;Node3 -->
<g id="edge10" class="edge">
<title>Node9&#45;&gt;Node3</title>
<path fill="none" stroke="midnightblue" d="M193.07,-61.98C162.96,-51.68 112.17,-34.31 78.36,-22.75"/>
<polygon fill="midnightblue" stroke="midnightblue" points="79.48,-19.43 68.88,-19.51 77.21,-26.06 79.48,-19.43"/>
</g>
<!-- Node9&#45;&gt;Node5 -->
<g id="edge11" class="edge">
<title>Node9&#45;&gt;Node5</title>
<path fill="none" stroke="midnightblue" d="M205.68,-61.98C191.88,-52.43 169.3,-36.81 152.77,-25.37"/>
<polygon fill="midnightblue" stroke="midnightblue" points="154.51,-22.32 144.3,-19.51 150.53,-28.08 154.51,-22.32"/>
</g>
<!-- Node10&#45;&gt;Node11 -->
<g id="edge13" class="edge">
<title>Node10&#45;&gt;Node11</title>
<path fill="none" stroke="midnightblue" d="M405.02,-56.4C396.27,-47.58 384.97,-36.18 375.88,-27.02"/>
<polygon fill="midnightblue" stroke="midnightblue" points="378.11,-24.29 368.59,-19.66 373.14,-29.22 378.11,-24.29"/>
</g>
<!-- Node12 -->
<g id="node12" class="node">
<title>Node12</title>
<g id="a_node12"><a xlink:title=" ">
<polygon fill="none" stroke="#bfbfbf" points="422,-0.5 422,-19.5 478,-19.5 478,-0.5 422,-0.5"/>
<text text-anchor="middle" x="450" y="-7.5" font-family="Helvetica,sans-Serif" font-size="10.00">algorithm</text>
</a>
</g>
</g>
<!-- Node10&#45;&gt;Node12 -->
<g id="edge14" class="edge">
<title>Node10&#45;&gt;Node12</title>
<path fill="none" stroke="midnightblue" d="M426.35,-56.4C430.67,-48.11 436.17,-37.55 440.77,-28.71"/>
<polygon fill="midnightblue" stroke="midnightblue" points="443.97,-30.14 445.49,-19.66 437.76,-26.91 443.97,-30.14"/>
</g>
<!-- Node10&#45;&gt;Node13 -->
<g id="edge15" class="edge">
<title>Node10&#45;&gt;Node13</title>
<path fill="none" stroke="midnightblue" d="M382.98,-56.4C357.36,-46.37 323.27,-33.03 298.69,-23.4"/>
<polygon fill="midnightblue" stroke="midnightblue" points="299.71,-20.04 289.12,-19.66 297.15,-26.56 299.71,-20.04"/>
</g>
<!-- Node10&#45;&gt;Node14 -->
<g id="edge16" class="edge">
<title>Node10&#45;&gt;Node14</title>
<path fill="none" stroke="midnightblue" d="M441.99,-56.4C457.39,-46.95 477.59,-34.56 493,-25.11"/>
<polygon fill="midnightblue" stroke="midnightblue" points="495.19,-27.87 501.89,-19.66 491.53,-21.9 495.19,-27.87"/>
</g>
</g>
</svg>
