<?xml version="1.0" encoding="UTF-8" standalone="no"?>
<!DOCTYPE svg PUBLIC "-//W3C//DTD SVG 1.1//EN"
 "http://www.w3.org/Graphics/SVG/1.1/DTD/svg11.dtd">
<!-- Generated by graphviz version 2.44.0 ()
 -->
<!-- Title: yaclib::util::detail::DefaultDeleter Pages: 1 -->
<svg width="586pt" height="51pt"
 viewBox="0.00 0.00 586.00 51.00" xmlns="http://www.w3.org/2000/svg" xmlns:xlink="http://www.w3.org/1999/xlink">
<g id="graph0" class="graph" transform="scale(1 1) rotate(0) translate(4 47)">
<title>yaclib::util::detail::DefaultDeleter</title>
<!-- Node1 -->
<g id="node1" class="node">
<title>Node1</title>
<g id="a_node1"><a xlink:title=" ">
<polygon fill="#bfbfbf" stroke="black" points="0,-6 0,-36 86,-36 86,-6 0,-6"/>
<text text-anchor="start" x="8" y="-24" font-family="Helvetica,sans-Serif" font-size="10.00">yaclib::util::detail</text>
<text text-anchor="middle" x="43" y="-13" font-family="Helvetica,sans-Serif" font-size="10.00">::DefaultDeleter</text>
</a>
</g>
</g>
<!-- Node2 -->
<g id="node2" class="node">
<title>Node2</title>
<g id="a_node2"><a xlink:href="classyaclib_1_1util_1_1Counter.html" target="_top" xlink:title=" ">
<polygon fill="none" stroke="black" points="123,-6 123,-36 248,-36 248,-6 123,-6"/>
<text text-anchor="start" x="131" y="-24" font-family="Helvetica,sans-Serif" font-size="10.00">yaclib::util::Counter</text>
<text text-anchor="middle" x="185.5" y="-13" font-family="Helvetica,sans-Serif" font-size="10.00">&lt; CounterBase, Deleter &gt;</text>
</a>
</g>
</g>
<!-- Node1&#45;&gt;Node2 -->
<g id="edge1" class="edge">
<title>Node1&#45;&gt;Node2</title>
<path fill="none" stroke="midnightblue" d="M96.16,-21C104.87,-21 113.98,-21 122.9,-21"/>
<polygon fill="midnightblue" stroke="midnightblue" points="96.15,-17.5 86.15,-21 96.15,-24.5 96.15,-17.5"/>
</g>
<!-- Node3 -->
<g id="node3" class="node">
<title>Node3</title>
<g id="a_node3"><a xlink:href="classyaclib_1_1util_1_1Counter.html" target="_top" xlink:title=" ">
<polygon fill="none" stroke="black" points="423,-0.5 423,-41.5 578,-41.5 578,-0.5 423,-0.5"/>
<text text-anchor="start" x="431" y="-29.5" font-family="Helvetica,sans-Serif" font-size="10.00">yaclib::util::Counter</text>
<text text-anchor="start" x="431" y="-18.5" font-family="Helvetica,sans-Serif" font-size="10.00">&lt; yaclib::detail::WaitCore,</text>
<text text-anchor="middle" x="500.5" y="-7.5" font-family="Helvetica,sans-Serif" font-size="10.00"> yaclib::detail::WaitCoreDeleter &gt;</text>
</a>
</g>
</g>
<!-- Node2&#45;&gt;Node3 -->
<g id="edge2" class="edge">
<title>Node2&#45;&gt;Node3</title>
<path fill="none" stroke="orange" stroke-dasharray="5,2" d="M258.57,-21C307.72,-21 372.73,-21 422.83,-21"/>
<polygon fill="orange" stroke="orange" points="258.34,-17.5 248.34,-21 258.34,-24.5 258.34,-17.5"/>
<text text-anchor="start" x="266" y="-35" font-family="Helvetica,sans-Serif" font-size="10.00"> &lt; yaclib::detail::WaitCore,</text>
<text text-anchor="middle" x="335.5" y="-24" font-family="Helvetica,sans-Serif" font-size="10.00"> yaclib::detail::WaitCoreDeleter &gt;</text>
</g>
</g>
</svg>
