<?xml version="1.0" encoding="UTF-8" standalone="no"?>
<!DOCTYPE svg PUBLIC "-//W3C//DTD SVG 1.1//EN"
 "http://www.w3.org/Graphics/SVG/1.1/DTD/svg11.dtd">
<!-- Generated by graphviz version 2.44.0 ()
 -->
<!-- Title: include/yaclib/executor/task.hpp Pages: 1 -->
<!--zoomable 709 -->
<svg id="main" version="1.1" xmlns="http://www.w3.org/2000/svg" xmlns:xlink="http://www.w3.org/1999/xlink" xml:space="preserve" onload="init(evt)">
<style type="text/css"><![CDATA[
.edge:hover path { stroke: red; }
.edge:hover polygon { stroke: red; fill: red; }
]]></style>
<script type="text/javascript"><![CDATA[
var edges = document.getElementsByTagName('g');
if (edges && edges.length) {
  for (var i=0;i<edges.length;i++) {
    if (edges[i].id.substr(0,4)=='edge') {
      edges[i].setAttribute('class','edge');
    }
  }
}
]]></script>
        <defs>
                <circle id="rim" cx="0" cy="0" r="7"/>
                <circle id="rim2" cx="0" cy="0" r="3.5"/>
                <g id="zoomPlus">
                        <use xlink:href="#rim" fill="#404040">
                                <set attributeName="fill" to="#808080" begin="zoomplus.mouseover" end="zoomplus.mouseout"/>
                        </use>
                        <path d="M-4,0h8M0,-4v8" fill="none" stroke="white" stroke-width="1.5" pointer-events="none"/>
                </g>
                <g id="zoomMin">
                        <use xlink:href="#rim" fill="#404040">
                                <set attributeName="fill" to="#808080" begin="zoomminus.mouseover" end="zoomminus.mouseout"/>
                        </use>
                        <path d="M-4,0h8" fill="none" stroke="white" stroke-width="1.5" pointer-events="none"/>
                </g>
                <g id="dirArrow">
                        <path fill="none" stroke="white" stroke-width="1.5" d="M0,-3.0v7 M-2.5,-0.5L0,-3.0L2.5,-0.5"/>
                </g>
               <g id="resetDef">
                       <use xlink:href="#rim2" fill="#404040">
                               <set attributeName="fill" to="#808080" begin="reset.mouseover" end="reset.mouseout"/>
                       </use>
               </g>
        </defs>

<script type="text/javascript">
var viewWidth = 1582;
var viewHeight = 709;
var sectionId = 'dynsection-1';
</script>
<script xlink:href="svgpan.js"/>
<svg id="graph" class="graph">
<g id="viewport">
<title>include/yaclib/executor/task.hpp</title>
<!-- Node1 -->
<g id="node1" class="node">
<title>Node1</title>
<g id="a_node1"><a xlink:title=" ">
<polygon fill="#bfbfbf" stroke="black" points="1065.5,-670.5 1065.5,-700.5 1180.5,-700.5 1180.5,-670.5 1065.5,-670.5"/>
<text text-anchor="start" x="1073.5" y="-688.5" font-family="Helvetica,sans-Serif" font-size="10.00">include/yaclib/executor</text>
<text text-anchor="middle" x="1123" y="-677.5" font-family="Helvetica,sans-Serif" font-size="10.00">/task.hpp</text>
</a>
</g>
</g>
<!-- Node2 -->
<g id="node2" class="node">
<title>Node2</title>
<g id="a_node2"><a xlink:href="base__core_8hpp.html" target="_top" xlink:title=" ">
<polygon fill="none" stroke="black" points="559.5,-469.5 559.5,-499.5 668.5,-499.5 668.5,-469.5 559.5,-469.5"/>
<text text-anchor="start" x="567.5" y="-487.5" font-family="Helvetica,sans-Serif" font-size="10.00">include/yaclib/async</text>
<text text-anchor="middle" x="614" y="-476.5" font-family="Helvetica,sans-Serif" font-size="10.00">/detail/base_core.hpp</text>
</a>
</g>
</g>
<!-- Node1&#45;&gt;Node2 -->
<g id="edge1" class="edge">
<title>Node1&#45;&gt;Node2</title>
<path fill="none" stroke="midnightblue" d="M1055.13,-676.24C936.89,-660.53 699.96,-622.89 640,-567 621.1,-549.38 615.88,-518.06 614.48,-499.81"/>
<polygon fill="midnightblue" stroke="midnightblue" points="1054.79,-679.72 1065.16,-677.55 1055.7,-672.78 1054.79,-679.72"/>
</g>
<!-- Node23 -->
<g id="node23" class="node">
<title>Node23</title>
<g id="a_node23"><a xlink:href="executor_8hpp.html" target="_top" xlink:title=" ">
<polygon fill="none" stroke="black" points="936.5,-603.5 936.5,-633.5 1051.5,-633.5 1051.5,-603.5 936.5,-603.5"/>
<text text-anchor="start" x="944.5" y="-621.5" font-family="Helvetica,sans-Serif" font-size="10.00">include/yaclib/executor</text>
<text text-anchor="middle" x="994" y="-610.5" font-family="Helvetica,sans-Serif" font-size="10.00">/executor.hpp</text>
</a>
</g>
</g>
<!-- Node1&#45;&gt;Node23 -->
<g id="edge32" class="edge">
<title>Node1&#45;&gt;Node23</title>
<path fill="none" stroke="midnightblue" d="M1085.99,-665.85C1065.6,-655.58 1040.69,-643.03 1021.94,-633.58"/>
<polygon fill="midnightblue" stroke="midnightblue" points="1084.5,-669.02 1095.01,-670.4 1087.65,-662.77 1084.5,-669.02"/>
</g>
<!-- Node32 -->
<g id="node32" class="node">
<title>Node32</title>
<g id="a_node32"><a xlink:href="thread__factory_8hpp.html" target="_top" xlink:title=" ">
<polygon fill="none" stroke="black" points="1274.5,-603.5 1274.5,-633.5 1389.5,-633.5 1389.5,-603.5 1274.5,-603.5"/>
<text text-anchor="start" x="1282.5" y="-621.5" font-family="Helvetica,sans-Serif" font-size="10.00">include/yaclib/executor</text>
<text text-anchor="middle" x="1332" y="-610.5" font-family="Helvetica,sans-Serif" font-size="10.00">/thread_factory.hpp</text>
</a>
</g>
</g>
<!-- Node1&#45;&gt;Node32 -->
<g id="edge52" class="edge">
<title>Node1&#45;&gt;Node32</title>
<path fill="none" stroke="midnightblue" d="M1177.84,-667.44C1211.72,-656.91 1254.67,-643.55 1286.63,-633.61"/>
<polygon fill="midnightblue" stroke="midnightblue" points="1176.6,-664.16 1168.09,-670.48 1178.68,-670.85 1176.6,-664.16"/>
</g>
<!-- Node34 -->
<g id="node34" class="node">
<title>Node34</title>
<g id="a_node34"><a xlink:href="intrusive__list_8cpp.html" target="_top" xlink:title=" ">
<polygon fill="none" stroke="black" points="1488,-536.5 1488,-566.5 1574,-566.5 1574,-536.5 1488,-536.5"/>
<text text-anchor="start" x="1496" y="-554.5" font-family="Helvetica,sans-Serif" font-size="10.00">src/util/intrusive</text>
<text text-anchor="middle" x="1531" y="-543.5" font-family="Helvetica,sans-Serif" font-size="10.00">_list.cpp</text>
</a>
</g>
</g>
<!-- Node1&#45;&gt;Node34 -->
<g id="edge56" class="edge">
<title>Node1&#45;&gt;Node34</title>
<path fill="none" stroke="midnightblue" d="M1190.7,-679.06C1247.54,-672.86 1330.11,-660 1398,-634 1442.26,-617.05 1488.16,-585.19 1512.77,-566.72"/>
<polygon fill="midnightblue" stroke="midnightblue" points="1190.33,-675.58 1180.75,-680.1 1191.06,-682.54 1190.33,-675.58"/>
</g>
<!-- Node3 -->
<g id="node3" class="node">
<title>Node3</title>
<g id="a_node3"><a xlink:href="wait__impl_8hpp.html" target="_top" xlink:title=" ">
<polygon fill="none" stroke="black" points="573.5,-402.5 573.5,-432.5 678.5,-432.5 678.5,-402.5 573.5,-402.5"/>
<text text-anchor="start" x="581.5" y="-420.5" font-family="Helvetica,sans-Serif" font-size="10.00">include/yaclib/algo</text>
<text text-anchor="middle" x="626" y="-409.5" font-family="Helvetica,sans-Serif" font-size="10.00">/detail/wait_impl.hpp</text>
</a>
</g>
</g>
<!-- Node2&#45;&gt;Node3 -->
<g id="edge2" class="edge">
<title>Node2&#45;&gt;Node3</title>
<path fill="none" stroke="midnightblue" d="M618.45,-459.4C620.12,-450.37 621.96,-440.41 623.4,-432.58"/>
<polygon fill="midnightblue" stroke="midnightblue" points="614.98,-458.93 616.6,-469.4 621.86,-460.2 614.98,-458.93"/>
</g>
<!-- Node19 -->
<g id="node19" class="node">
<title>Node19</title>
<g id="a_node19"><a xlink:href="result__core_8hpp.html" target="_top" xlink:title=" ">
<polygon fill="none" stroke="black" points="138,-402.5 138,-432.5 250,-432.5 250,-402.5 138,-402.5"/>
<text text-anchor="start" x="146" y="-420.5" font-family="Helvetica,sans-Serif" font-size="10.00">include/yaclib/async</text>
<text text-anchor="middle" x="194" y="-409.5" font-family="Helvetica,sans-Serif" font-size="10.00">/detail/result_core.hpp</text>
</a>
</g>
</g>
<!-- Node2&#45;&gt;Node19 -->
<g id="edge24" class="edge">
<title>Node2&#45;&gt;Node19</title>
<path fill="none" stroke="midnightblue" d="M549.16,-473.47C467.3,-460.8 327.83,-439.21 250.26,-427.21"/>
<polygon fill="midnightblue" stroke="midnightblue" points="548.67,-476.93 559.09,-475 549.75,-470.01 548.67,-476.93"/>
</g>
<!-- Node22 -->
<g id="node22" class="node">
<title>Node22</title>
<g id="a_node22"><a xlink:href="base__core_8cpp.html" target="_top" xlink:title=" ">
<polygon fill="none" stroke="black" points="430.5,-408 430.5,-427 555.5,-427 555.5,-408 430.5,-408"/>
<text text-anchor="middle" x="493" y="-415" font-family="Helvetica,sans-Serif" font-size="10.00">src/async/base_core.cpp</text>
</a>
</g>
</g>
<!-- Node2&#45;&gt;Node22 -->
<g id="edge31" class="edge">
<title>Node2&#45;&gt;Node22</title>
<path fill="none" stroke="midnightblue" d="M578.89,-464.64C555.74,-452.2 526.53,-436.51 508.84,-427.01"/>
<polygon fill="midnightblue" stroke="midnightblue" points="577.28,-467.75 587.74,-469.4 580.59,-461.58 577.28,-467.75"/>
</g>
<!-- Node4 -->
<g id="node4" class="node">
<title>Node4</title>
<g id="a_node4"><a xlink:href="wait_8hpp.html" target="_top" xlink:title=" ">
<polygon fill="none" stroke="black" points="344,-335.5 344,-365.5 440,-365.5 440,-335.5 344,-335.5"/>
<text text-anchor="start" x="352" y="-353.5" font-family="Helvetica,sans-Serif" font-size="10.00">include/yaclib/algo</text>
<text text-anchor="middle" x="392" y="-342.5" font-family="Helvetica,sans-Serif" font-size="10.00">/wait.hpp</text>
</a>
</g>
</g>
<!-- Node3&#45;&gt;Node4 -->
<g id="edge3" class="edge">
<title>Node3&#45;&gt;Node4</title>
<path fill="none" stroke="midnightblue" d="M565.86,-399.79C526.89,-388.97 476.79,-375.05 440.4,-364.94"/>
<polygon fill="midnightblue" stroke="midnightblue" points="564.94,-403.17 575.51,-402.48 566.82,-396.43 564.94,-403.17"/>
</g>
<!-- Node16 -->
<g id="node16" class="node">
<title>Node16</title>
<g id="a_node16"><a xlink:href="wait__for_8hpp.html" target="_top" xlink:title=" ">
<polygon fill="none" stroke="black" points="590,-335.5 590,-365.5 686,-365.5 686,-335.5 590,-335.5"/>
<text text-anchor="start" x="598" y="-353.5" font-family="Helvetica,sans-Serif" font-size="10.00">include/yaclib/algo</text>
<text text-anchor="middle" x="638" y="-342.5" font-family="Helvetica,sans-Serif" font-size="10.00">/wait_for.hpp</text>
</a>
</g>
</g>
<!-- Node3&#45;&gt;Node16 -->
<g id="edge21" class="edge">
<title>Node3&#45;&gt;Node16</title>
<path fill="none" stroke="midnightblue" d="M630.45,-392.4C632.12,-383.37 633.96,-373.41 635.4,-365.58"/>
<polygon fill="midnightblue" stroke="midnightblue" points="626.98,-391.93 628.6,-402.4 633.86,-393.2 626.98,-391.93"/>
</g>
<!-- Node17 -->
<g id="node17" class="node">
<title>Node17</title>
<g id="a_node17"><a xlink:href="wait__until_8hpp.html" target="_top" xlink:title=" ">
<polygon fill="none" stroke="black" points="704,-335.5 704,-365.5 800,-365.5 800,-335.5 704,-335.5"/>
<text text-anchor="start" x="712" y="-353.5" font-family="Helvetica,sans-Serif" font-size="10.00">include/yaclib/algo</text>
<text text-anchor="middle" x="752" y="-342.5" font-family="Helvetica,sans-Serif" font-size="10.00">/wait_until.hpp</text>
</a>
</g>
</g>
<!-- Node3&#45;&gt;Node17 -->
<g id="edge22" class="edge">
<title>Node3&#45;&gt;Node17</title>
<path fill="none" stroke="midnightblue" d="M662.42,-397.71C682.29,-387.46 706.48,-374.98 724.71,-365.58"/>
<polygon fill="midnightblue" stroke="midnightblue" points="660.62,-394.7 653.34,-402.4 663.83,-400.92 660.62,-394.7"/>
</g>
<!-- Node18 -->
<g id="node18" class="node">
<title>Node18</title>
<g id="a_node18"><a xlink:href="wait__impl_8cpp.html" target="_top" xlink:title=" ">
<polygon fill="none" stroke="black" points="458.5,-341 458.5,-360 571.5,-360 571.5,-341 458.5,-341"/>
<text text-anchor="middle" x="515" y="-348" font-family="Helvetica,sans-Serif" font-size="10.00">src/algo/wait_impl.cpp</text>
</a>
</g>
</g>
<!-- Node3&#45;&gt;Node18 -->
<g id="edge23" class="edge">
<title>Node3&#45;&gt;Node18</title>
<path fill="none" stroke="midnightblue" d="M593.22,-397.31C572.08,-384.93 545.62,-369.43 529.53,-360.01"/>
<polygon fill="midnightblue" stroke="midnightblue" points="591.52,-400.36 601.91,-402.4 595.05,-394.32 591.52,-400.36"/>
</g>
<!-- Node5 -->
<g id="node5" class="node">
<title>Node5</title>
<g id="a_node5"><a xlink:href="future__impl_8hpp.html" target="_top" xlink:title=" ">
<polygon fill="none" stroke="black" points="347,-268.5 347,-298.5 459,-298.5 459,-268.5 347,-268.5"/>
<text text-anchor="start" x="355" y="-286.5" font-family="Helvetica,sans-Serif" font-size="10.00">include/yaclib/async</text>
<text text-anchor="middle" x="403" y="-275.5" font-family="Helvetica,sans-Serif" font-size="10.00">/detail/future_impl.hpp</text>
</a>
</g>
</g>
<!-- Node4&#45;&gt;Node5 -->
<g id="edge4" class="edge">
<title>Node4&#45;&gt;Node5</title>
<path fill="none" stroke="midnightblue" d="M396.08,-325.4C397.61,-316.37 399.29,-306.41 400.62,-298.58"/>
<polygon fill="midnightblue" stroke="midnightblue" points="392.6,-324.95 394.39,-335.4 399.51,-326.12 392.6,-324.95"/>
</g>
<!-- Node6 -->
<g id="node6" class="node">
<title>Node6</title>
<g id="a_node6"><a xlink:href="future_8hpp.html" target="_top" xlink:title=" ">
<polygon fill="none" stroke="black" points="516,-201.5 516,-231.5 620,-231.5 620,-201.5 516,-201.5"/>
<text text-anchor="start" x="524" y="-219.5" font-family="Helvetica,sans-Serif" font-size="10.00">include/yaclib/async</text>
<text text-anchor="middle" x="568" y="-208.5" font-family="Helvetica,sans-Serif" font-size="10.00">/future.hpp</text>
</a>
</g>
</g>
<!-- Node5&#45;&gt;Node6 -->
<g id="edge5" class="edge">
<title>Node5&#45;&gt;Node6</title>
<path fill="none" stroke="midnightblue" d="M448.23,-264.68C474.69,-254.26 507.63,-241.28 532.27,-231.58"/>
<polygon fill="midnightblue" stroke="midnightblue" points="446.82,-261.47 438.8,-268.4 449.39,-267.99 446.82,-261.47"/>
</g>
<!-- Node11 -->
<g id="node11" class="node">
<title>Node11</title>
<g id="a_node11"><a xlink:href="promise_8hpp.html" target="_top" xlink:title=" ">
<polygon fill="none" stroke="black" points="436,-134.5 436,-164.5 540,-164.5 540,-134.5 436,-134.5"/>
<text text-anchor="start" x="444" y="-152.5" font-family="Helvetica,sans-Serif" font-size="10.00">include/yaclib/async</text>
<text text-anchor="middle" x="488" y="-141.5" font-family="Helvetica,sans-Serif" font-size="10.00">/promise.hpp</text>
</a>
</g>
</g>
<!-- Node5&#45;&gt;Node11 -->
<g id="edge20" class="edge">
<title>Node5&#45;&gt;Node11</title>
<path fill="none" stroke="midnightblue" d="M417.6,-259.83C435.22,-232.47 464.31,-187.28 478.97,-164.52"/>
<polygon fill="midnightblue" stroke="midnightblue" points="414.57,-258.07 412.1,-268.37 420.45,-261.86 414.57,-258.07"/>
</g>
<!-- Node7 -->
<g id="node7" class="node">
<title>Node7</title>
<g id="a_node7"><a xlink:href="when__any_8hpp.html" target="_top" xlink:title=" ">
<polygon fill="none" stroke="black" points="548,-67.5 548,-97.5 644,-97.5 644,-67.5 548,-67.5"/>
<text text-anchor="start" x="556" y="-85.5" font-family="Helvetica,sans-Serif" font-size="10.00">include/yaclib/algo</text>
<text text-anchor="middle" x="596" y="-74.5" font-family="Helvetica,sans-Serif" font-size="10.00">/when_any.hpp</text>
</a>
</g>
</g>
<!-- Node6&#45;&gt;Node7 -->
<g id="edge6" class="edge">
<title>Node6&#45;&gt;Node7</title>
<path fill="none" stroke="midnightblue" d="M573.11,-191.39C578.95,-163.9 588.28,-119.89 593.03,-97.52"/>
<polygon fill="midnightblue" stroke="midnightblue" points="569.65,-190.87 571,-201.37 576.5,-192.32 569.65,-190.87"/>
</g>
<!-- Node9 -->
<g id="node9" class="node">
<title>Node9</title>
<g id="a_node9"><a xlink:href="when__all_8hpp.html" target="_top" xlink:title=" ">
<polygon fill="none" stroke="black" points="704,-67.5 704,-97.5 800,-97.5 800,-67.5 704,-67.5"/>
<text text-anchor="start" x="712" y="-85.5" font-family="Helvetica,sans-Serif" font-size="10.00">include/yaclib/algo</text>
<text text-anchor="middle" x="752" y="-74.5" font-family="Helvetica,sans-Serif" font-size="10.00">/when_all.hpp</text>
</a>
</g>
</g>
<!-- Node6&#45;&gt;Node9 -->
<g id="edge8" class="edge">
<title>Node6&#45;&gt;Node9</title>
<path fill="none" stroke="midnightblue" d="M630.23,-211.37C665.06,-205.8 706.66,-193.19 733,-165 750.26,-146.53 752.83,-115.51 752.71,-97.54"/>
<polygon fill="midnightblue" stroke="midnightblue" points="629.53,-207.93 620.13,-212.82 630.53,-214.86 629.53,-207.93"/>
</g>
<!-- Node6&#45;&gt;Node11 -->
<g id="edge10" class="edge">
<title>Node6&#45;&gt;Node11</title>
<path fill="none" stroke="midnightblue" d="M536.66,-195.17C523.68,-185.23 509.48,-173.51 499.65,-164.58"/>
<polygon fill="midnightblue" stroke="midnightblue" points="534.86,-198.19 544.96,-201.4 539.07,-192.59 534.86,-198.19"/>
</g>
<!-- Node13 -->
<g id="node13" class="node">
<title>Node13</title>
<g id="a_node13"><a xlink:href="run_8hpp.html" target="_top" xlink:title=" ">
<polygon fill="none" stroke="black" points="804,-134.5 804,-164.5 908,-164.5 908,-134.5 804,-134.5"/>
<text text-anchor="start" x="812" y="-152.5" font-family="Helvetica,sans-Serif" font-size="10.00">include/yaclib/async</text>
<text text-anchor="middle" x="856" y="-141.5" font-family="Helvetica,sans-Serif" font-size="10.00">/run.hpp</text>
</a>
</g>
</g>
<!-- Node6&#45;&gt;Node13 -->
<g id="edge15" class="edge">
<title>Node6&#45;&gt;Node13</title>
<path fill="none" stroke="midnightblue" d="M630.22,-201.46C682.02,-189.77 754.93,-173.31 803.75,-162.29"/>
<polygon fill="midnightblue" stroke="midnightblue" points="629.14,-198.11 620.15,-203.73 630.68,-204.94 629.14,-198.11"/>
</g>
<!-- Node15 -->
<g id="node15" class="node">
<title>Node15</title>
<g id="a_node15"><a xlink:href="future__impl_8cpp.html" target="_top" xlink:title=" ">
<polygon fill="none" stroke="black" points="596,-140 596,-159 724,-159 724,-140 596,-140"/>
<text text-anchor="middle" x="660" y="-147" font-family="Helvetica,sans-Serif" font-size="10.00">src/async/future_impl.cpp</text>
</a>
</g>
</g>
<!-- Node6&#45;&gt;Node15 -->
<g id="edge19" class="edge">
<title>Node6&#45;&gt;Node15</title>
<path fill="none" stroke="midnightblue" d="M596.58,-195.31C613.86,-183.1 634.98,-168.18 647.96,-159.01"/>
<polygon fill="midnightblue" stroke="midnightblue" points="594.11,-192.77 587.96,-201.4 598.15,-198.48 594.11,-192.77"/>
</g>
<!-- Node8 -->
<g id="node8" class="node">
<title>Node8</title>
<g id="a_node8"><a xlink:href="when__any_8cpp.html" target="_top" xlink:title=" ">
<polygon fill="none" stroke="black" points="745.5,-0.5 745.5,-30.5 846.5,-30.5 846.5,-0.5 745.5,-0.5"/>
<text text-anchor="start" x="753.5" y="-18.5" font-family="Helvetica,sans-Serif" font-size="10.00">test/example/async</text>
<text text-anchor="middle" x="796" y="-7.5" font-family="Helvetica,sans-Serif" font-size="10.00">/when_any.cpp</text>
</a>
</g>
</g>
<!-- Node7&#45;&gt;Node8 -->
<g id="edge7" class="edge">
<title>Node7&#45;&gt;Node8</title>
<path fill="none" stroke="midnightblue" d="M649.15,-64.23C681.5,-53.71 722.31,-40.45 752.69,-30.58"/>
<polygon fill="midnightblue" stroke="midnightblue" points="647.83,-60.98 639.4,-67.4 649.99,-67.63 647.83,-60.98"/>
</g>
<!-- Node10 -->
<g id="node10" class="node">
<title>Node10</title>
<g id="a_node10"><a xlink:href="when__all_8cpp.html" target="_top" xlink:title=" ">
<polygon fill="none" stroke="black" points="864.5,-0.5 864.5,-30.5 965.5,-30.5 965.5,-0.5 864.5,-0.5"/>
<text text-anchor="start" x="872.5" y="-18.5" font-family="Helvetica,sans-Serif" font-size="10.00">test/example/async</text>
<text text-anchor="middle" x="915" y="-7.5" font-family="Helvetica,sans-Serif" font-size="10.00">/when_all.cpp</text>
</a>
</g>
</g>
<!-- Node9&#45;&gt;Node10 -->
<g id="edge9" class="edge">
<title>Node9&#45;&gt;Node10</title>
<path fill="none" stroke="midnightblue" d="M796.68,-63.68C822.83,-53.26 855.37,-40.28 879.7,-30.58"/>
<polygon fill="midnightblue" stroke="midnightblue" points="795.36,-60.44 787.37,-67.4 797.95,-66.94 795.36,-60.44"/>
</g>
<!-- Node11&#45;&gt;Node6 -->
<g id="edge13" class="edge">
<title>Node11&#45;&gt;Node6</title>
<path fill="none" stroke="midnightblue" d="M519.3,-170.8C532.28,-180.74 546.49,-192.45 556.32,-201.4"/>
<polygon fill="midnightblue" stroke="midnightblue" points="521.1,-167.78 511,-164.58 516.9,-173.38 521.1,-167.78"/>
</g>
<!-- Node11&#45;&gt;Node7 -->
<g id="edge11" class="edge">
<title>Node11&#45;&gt;Node7</title>
<path fill="none" stroke="midnightblue" d="M520.37,-129.02C537.18,-118.9 557.34,-106.77 572.61,-97.58"/>
<polygon fill="midnightblue" stroke="midnightblue" points="518.2,-126.24 511.43,-134.4 521.81,-132.24 518.2,-126.24"/>
</g>
<!-- Node11&#45;&gt;Node9 -->
<g id="edge12" class="edge">
<title>Node11&#45;&gt;Node9</title>
<path fill="none" stroke="midnightblue" d="M549.93,-133.25C596.97,-121.67 660.72,-105.97 703.95,-95.33"/>
<polygon fill="midnightblue" stroke="midnightblue" points="549.03,-129.87 540.16,-135.66 550.7,-136.67 549.03,-129.87"/>
</g>
<!-- Node12 -->
<g id="node12" class="node">
<title>Node12</title>
<g id="a_node12"><a xlink:href="promise__impl_8cpp.html" target="_top" xlink:title=" ">
<polygon fill="none" stroke="black" points="392.5,-73 392.5,-92 529.5,-92 529.5,-73 392.5,-73"/>
<text text-anchor="middle" x="461" y="-80" font-family="Helvetica,sans-Serif" font-size="10.00">src/async/promise_impl.cpp</text>
</a>
</g>
</g>
<!-- Node11&#45;&gt;Node12 -->
<g id="edge14" class="edge">
<title>Node11&#45;&gt;Node12</title>
<path fill="none" stroke="midnightblue" d="M478.21,-124.94C473.48,-113.54 468.08,-100.55 464.61,-92.19"/>
<polygon fill="midnightblue" stroke="midnightblue" points="475.07,-126.5 482.14,-134.4 481.54,-123.82 475.07,-126.5"/>
</g>
<!-- Node13&#45;&gt;Node8 -->
<g id="edge18" class="edge">
<title>Node13&#45;&gt;Node8</title>
<path fill="none" stroke="midnightblue" d="M845.37,-125.12C832.9,-97.68 812.63,-53.09 802.37,-30.52"/>
<polygon fill="midnightblue" stroke="midnightblue" points="842.25,-126.72 849.58,-134.37 848.63,-123.82 842.25,-126.72"/>
</g>
<!-- Node13&#45;&gt;Node10 -->
<g id="edge16" class="edge">
<title>Node13&#45;&gt;Node10</title>
<path fill="none" stroke="midnightblue" d="M866.45,-125.12C878.71,-97.68 898.65,-53.09 908.73,-30.52"/>
<polygon fill="midnightblue" stroke="midnightblue" points="863.2,-123.82 862.31,-134.37 869.59,-126.67 863.2,-123.82"/>
</g>
<!-- Node14 -->
<g id="node14" class="node">
<title>Node14</title>
<g id="a_node14"><a xlink:href="simple_8cpp.html" target="_top" xlink:title=" ">
<polygon fill="none" stroke="black" points="953.5,-67.5 953.5,-97.5 1054.5,-97.5 1054.5,-67.5 953.5,-67.5"/>
<text text-anchor="start" x="961.5" y="-85.5" font-family="Helvetica,sans-Serif" font-size="10.00">test/example/async</text>
<text text-anchor="middle" x="1004" y="-74.5" font-family="Helvetica,sans-Serif" font-size="10.00">/simple.cpp</text>
</a>
</g>
</g>
<!-- Node13&#45;&gt;Node14 -->
<g id="edge17" class="edge">
<title>Node13&#45;&gt;Node14</title>
<path fill="none" stroke="midnightblue" d="M897.51,-130.27C921.08,-119.92 950.14,-107.15 971.95,-97.58"/>
<polygon fill="midnightblue" stroke="midnightblue" points="895.86,-127.17 888.11,-134.4 898.68,-133.58 895.86,-127.17"/>
</g>
<!-- Node19&#45;&gt;Node6 -->
<g id="edge28" class="edge">
<title>Node19&#45;&gt;Node6</title>
<path fill="none" stroke="midnightblue" d="M194.47,-392.31C195.95,-374.8 200.41,-351.43 213,-335 285.37,-240.57 436.03,-221.13 515.82,-217.7"/>
<polygon fill="midnightblue" stroke="midnightblue" points="190.97,-392.15 193.88,-402.34 197.96,-392.56 190.97,-392.15"/>
</g>
<!-- Node19&#45;&gt;Node11 -->
<g id="edge29" class="edge">
<title>Node19&#45;&gt;Node11</title>
<path fill="none" stroke="midnightblue" d="M190.2,-392.44C188.54,-375.8 188.28,-353.43 195,-335 208.2,-298.81 219.83,-291.95 250,-268 311.71,-219 397.17,-183.04 447.12,-164.55"/>
<polygon fill="midnightblue" stroke="midnightblue" points="186.73,-392.95 191.43,-402.44 193.68,-392.09 186.73,-392.95"/>
</g>
<!-- Node20 -->
<g id="node20" class="node">
<title>Node20</title>
<g id="a_node20"><a xlink:href="core_8hpp.html" target="_top" xlink:title=" ">
<polygon fill="none" stroke="black" points="222,-335.5 222,-365.5 326,-365.5 326,-335.5 222,-335.5"/>
<text text-anchor="start" x="230" y="-353.5" font-family="Helvetica,sans-Serif" font-size="10.00">include/yaclib/async</text>
<text text-anchor="middle" x="274" y="-342.5" font-family="Helvetica,sans-Serif" font-size="10.00">/detail/core.hpp</text>
</a>
</g>
</g>
<!-- Node19&#45;&gt;Node20 -->
<g id="edge25" class="edge">
<title>Node19&#45;&gt;Node20</title>
<path fill="none" stroke="midnightblue" d="M219.37,-395.88C231.53,-386.01 245.78,-374.43 256.68,-365.58"/>
<polygon fill="midnightblue" stroke="midnightblue" points="216.91,-393.37 211.36,-402.4 221.33,-398.81 216.91,-393.37"/>
</g>
<!-- Node21 -->
<g id="node21" class="node">
<title>Node21</title>
<g id="a_node21"><a xlink:href="result__core_8cpp.html" target="_top" xlink:title=" ">
<polygon fill="none" stroke="black" points="0,-341 0,-360 128,-360 128,-341 0,-341"/>
<text text-anchor="middle" x="64" y="-348" font-family="Helvetica,sans-Serif" font-size="10.00">src/async/result_core.cpp</text>
</a>
</g>
</g>
<!-- Node19&#45;&gt;Node21 -->
<g id="edge30" class="edge">
<title>Node19&#45;&gt;Node21</title>
<path fill="none" stroke="midnightblue" d="M156.61,-397.8C131.68,-385.34 100.11,-369.56 81.01,-360.01"/>
<polygon fill="midnightblue" stroke="midnightblue" points="155.28,-401.05 165.79,-402.4 158.41,-394.79 155.28,-401.05"/>
</g>
<!-- Node20&#45;&gt;Node5 -->
<g id="edge26" class="edge">
<title>Node20&#45;&gt;Node5</title>
<path fill="none" stroke="midnightblue" d="M311.01,-330.85C331.4,-320.58 356.31,-308.03 375.06,-298.58"/>
<polygon fill="midnightblue" stroke="midnightblue" points="309.35,-327.77 301.99,-335.4 312.5,-334.02 309.35,-327.77"/>
</g>
<!-- Node20&#45;&gt;Node13 -->
<g id="edge27" class="edge">
<title>Node20&#45;&gt;Node13</title>
<path fill="none" stroke="midnightblue" d="M335.83,-334.2C382.87,-322.41 443.56,-306.83 468,-299 601.77,-256.14 756.56,-192.55 822.97,-164.57"/>
<polygon fill="midnightblue" stroke="midnightblue" points="334.86,-330.83 326.01,-336.65 336.56,-337.62 334.86,-330.83"/>
</g>
<!-- Node23&#45;&gt;Node2 -->
<g id="edge33" class="edge">
<title>Node23&#45;&gt;Node2</title>
<path fill="none" stroke="midnightblue" d="M926.36,-612.76C845.59,-606.08 716.21,-591.85 675,-567 648.36,-550.94 629.52,-518.44 620.34,-499.7"/>
<polygon fill="midnightblue" stroke="midnightblue" points="926.2,-616.26 936.45,-613.58 926.76,-609.28 926.2,-616.26"/>
</g>
<!-- Node23&#45;&gt;Node6 -->
<g id="edge34" class="edge">
<title>Node23&#45;&gt;Node6</title>
<path fill="none" stroke="midnightblue" d="M926.42,-607.09C900.06,-599.86 871.53,-587.65 852,-567 826.05,-539.57 828,-523.26 828,-485.5 828,-485.5 828,-485.5 828,-416.5 828,-379.31 832.19,-364.08 809,-335 761.26,-275.13 675.37,-243.68 620.06,-228.86"/>
<polygon fill="midnightblue" stroke="midnightblue" points="925.85,-610.55 936.4,-609.62 927.57,-603.77 925.85,-610.55"/>
</g>
<!-- Node23&#45;&gt;Node13 -->
<g id="edge35" class="edge">
<title>Node23&#45;&gt;Node13</title>
<path fill="none" stroke="midnightblue" d="M930.57,-599.56C913.62,-591.99 896.77,-581.47 885,-567 861.53,-538.15 866,-522.69 866,-485.5 866,-485.5 866,-485.5 866,-282.5 866,-239.52 860.66,-188.9 857.79,-164.73"/>
<polygon fill="midnightblue" stroke="midnightblue" points="929.38,-602.86 939.96,-603.47 932.07,-596.39 929.38,-602.86"/>
</g>
<!-- Node23&#45;&gt;Node14 -->
<g id="edge51" class="edge">
<title>Node23&#45;&gt;Node14</title>
<path fill="none" stroke="midnightblue" d="M1007.04,-594.38C1011.06,-586.02 1014.97,-576.34 1017,-567 1031.32,-501.02 985,-486.01 985,-418.5 985,-418.5 985,-418.5 985,-215.5 985,-172.2 995.14,-121.73 1000.6,-97.66"/>
<polygon fill="midnightblue" stroke="midnightblue" points="1003.82,-592.99 1002.36,-603.48 1010.04,-596.19 1003.82,-592.99"/>
</g>
<!-- Node24 -->
<g id="node24" class="node">
<title>Node24</title>
<g id="a_node24"><a xlink:href="inline_8hpp.html" target="_top" xlink:title=" ">
<polygon fill="none" stroke="black" points="684.5,-536.5 684.5,-566.5 799.5,-566.5 799.5,-536.5 684.5,-536.5"/>
<text text-anchor="start" x="692.5" y="-554.5" font-family="Helvetica,sans-Serif" font-size="10.00">include/yaclib/executor</text>
<text text-anchor="middle" x="742" y="-543.5" font-family="Helvetica,sans-Serif" font-size="10.00">/inline.hpp</text>
</a>
</g>
</g>
<!-- Node23&#45;&gt;Node24 -->
<g id="edge36" class="edge">
<title>Node23&#45;&gt;Node24</title>
<path fill="none" stroke="midnightblue" d="M929.71,-600.92C888.59,-590.31 835.82,-576.7 796.71,-566.61"/>
<polygon fill="midnightblue" stroke="midnightblue" points="929.07,-604.37 939.63,-603.48 930.82,-597.59 929.07,-604.37"/>
</g>
<!-- Node26 -->
<g id="node26" class="node">
<title>Node26</title>
<g id="a_node26"><a xlink:href="serial_8hpp.html" target="_top" xlink:title=" ">
<polygon fill="none" stroke="black" points="1064.5,-536.5 1064.5,-566.5 1179.5,-566.5 1179.5,-536.5 1064.5,-536.5"/>
<text text-anchor="start" x="1072.5" y="-554.5" font-family="Helvetica,sans-Serif" font-size="10.00">include/yaclib/executor</text>
<text text-anchor="middle" x="1122" y="-543.5" font-family="Helvetica,sans-Serif" font-size="10.00">/serial.hpp</text>
</a>
</g>
</g>
<!-- Node23&#45;&gt;Node26 -->
<g id="edge39" class="edge">
<title>Node23&#45;&gt;Node26</title>
<path fill="none" stroke="midnightblue" d="M1030.72,-598.85C1050.96,-588.58 1075.67,-576.03 1094.28,-566.58"/>
<polygon fill="midnightblue" stroke="midnightblue" points="1029.11,-595.75 1021.77,-603.4 1032.28,-601.99 1029.11,-595.75"/>
</g>
<!-- Node28 -->
<g id="node28" class="node">
<title>Node28</title>
<g id="a_node28"><a xlink:href="thread__pool_8hpp.html" target="_top" xlink:title=" ">
<polygon fill="none" stroke="black" points="1236.5,-536.5 1236.5,-566.5 1351.5,-566.5 1351.5,-536.5 1236.5,-536.5"/>
<text text-anchor="start" x="1244.5" y="-554.5" font-family="Helvetica,sans-Serif" font-size="10.00">include/yaclib/executor</text>
<text text-anchor="middle" x="1294" y="-543.5" font-family="Helvetica,sans-Serif" font-size="10.00">/thread_pool.hpp</text>
</a>
</g>
</g>
<!-- Node23&#45;&gt;Node28 -->
<g id="edge42" class="edge">
<title>Node23&#45;&gt;Node28</title>
<path fill="none" stroke="midnightblue" d="M1061.76,-602.82C1114.36,-591.42 1186.48,-575.8 1236.33,-564.99"/>
<polygon fill="midnightblue" stroke="midnightblue" points="1060.88,-599.43 1051.84,-604.97 1062.36,-606.27 1060.88,-599.43"/>
</g>
<!-- Node29 -->
<g id="node29" class="node">
<title>Node29</title>
<g id="a_node29"><a xlink:href="src_2executor_2thread__pool_8cpp.html" target="_top" xlink:title=" ">
<polygon fill="none" stroke="black" points="1181,-469.5 1181,-499.5 1281,-499.5 1281,-469.5 1181,-469.5"/>
<text text-anchor="start" x="1189" y="-487.5" font-family="Helvetica,sans-Serif" font-size="10.00">src/executor/thread</text>
<text text-anchor="middle" x="1231" y="-476.5" font-family="Helvetica,sans-Serif" font-size="10.00">_pool.cpp</text>
</a>
</g>
</g>
<!-- Node23&#45;&gt;Node29 -->
<g id="edge50" class="edge">
<title>Node23&#45;&gt;Node29</title>
<path fill="none" stroke="midnightblue" d="M1061.69,-613.43C1102.02,-607.94 1152.16,-595.39 1188,-567 1209.94,-549.62 1221.98,-517.91 1227.4,-499.59"/>
<polygon fill="midnightblue" stroke="midnightblue" points="1061.15,-609.97 1051.66,-614.68 1062.02,-616.92 1061.15,-609.97"/>
</g>
<!-- Node31 -->
<g id="node31" class="node">
<title>Node31</title>
<g id="a_node31"><a xlink:href="src_2executor_2serial_8cpp.html" target="_top" xlink:title=" ">
<polygon fill="none" stroke="black" points="894,-542 894,-561 1008,-561 1008,-542 894,-542"/>
<text text-anchor="middle" x="951" y="-549" font-family="Helvetica,sans-Serif" font-size="10.00">src/executor/serial.cpp</text>
</a>
</g>
</g>
<!-- Node23&#45;&gt;Node31 -->
<g id="edge49" class="edge">
<title>Node23&#45;&gt;Node31</title>
<path fill="none" stroke="midnightblue" d="M979.1,-594.97C971.4,-583.33 962.44,-569.8 956.75,-561.19"/>
<polygon fill="midnightblue" stroke="midnightblue" points="976.23,-596.99 984.67,-603.4 982.07,-593.12 976.23,-596.99"/>
</g>
<!-- Node24&#45;&gt;Node2 -->
<g id="edge37" class="edge">
<title>Node24&#45;&gt;Node2</title>
<path fill="none" stroke="midnightblue" d="M705.28,-531.85C685.04,-521.58 660.33,-509.03 641.72,-499.58"/>
<polygon fill="midnightblue" stroke="midnightblue" points="703.72,-534.99 714.23,-536.4 706.89,-528.75 703.72,-534.99"/>
</g>
<!-- Node25 -->
<g id="node25" class="node">
<title>Node25</title>
<g id="a_node25"><a xlink:href="inline_8cpp.html" target="_top" xlink:title=" ">
<polygon fill="none" stroke="black" points="686.5,-475 686.5,-494 799.5,-494 799.5,-475 686.5,-475"/>
<text text-anchor="middle" x="743" y="-482" font-family="Helvetica,sans-Serif" font-size="10.00">src/executor/inline.cpp</text>
</a>
</g>
</g>
<!-- Node24&#45;&gt;Node25 -->
<g id="edge38" class="edge">
<title>Node24&#45;&gt;Node25</title>
<path fill="none" stroke="midnightblue" d="M742.37,-526.25C742.55,-515.02 742.74,-502.38 742.87,-494.19"/>
<polygon fill="midnightblue" stroke="midnightblue" points="738.87,-526.34 742.22,-536.4 745.87,-526.45 738.87,-526.34"/>
</g>
<!-- Node26&#45;&gt;Node14 -->
<g id="edge40" class="edge">
<title>Node26&#45;&gt;Node14</title>
<path fill="none" stroke="midnightblue" d="M1079.04,-531.63C1065.37,-523.68 1051.37,-513.17 1042,-500 1020.44,-469.69 1023,-455.69 1023,-418.5 1023,-418.5 1023,-418.5 1023,-215.5 1023,-172.2 1012.86,-121.73 1007.4,-97.66"/>
<polygon fill="midnightblue" stroke="midnightblue" points="1077.47,-534.76 1087.93,-536.48 1080.83,-528.62 1077.47,-534.76"/>
</g>
<!-- Node27 -->
<g id="node27" class="node">
<title>Node27</title>
<g id="a_node27"><a xlink:href="test_2example_2executor_2serial_8cpp.html" target="_top" xlink:title=" ">
<polygon fill="none" stroke="black" points="1051,-469.5 1051,-499.5 1163,-499.5 1163,-469.5 1051,-469.5"/>
<text text-anchor="start" x="1059" y="-487.5" font-family="Helvetica,sans-Serif" font-size="10.00">test/example/executor</text>
<text text-anchor="middle" x="1107" y="-476.5" font-family="Helvetica,sans-Serif" font-size="10.00">/serial.cpp</text>
</a>
</g>
</g>
<!-- Node26&#45;&gt;Node27 -->
<g id="edge41" class="edge">
<title>Node26&#45;&gt;Node27</title>
<path fill="none" stroke="midnightblue" d="M1116.44,-526.4C1114.35,-517.37 1112.06,-507.41 1110.25,-499.58"/>
<polygon fill="midnightblue" stroke="midnightblue" points="1113.09,-527.44 1118.75,-536.4 1119.91,-525.87 1113.09,-527.44"/>
</g>
<!-- Node28&#45;&gt;Node8 -->
<g id="edge46" class="edge">
<title>Node28&#45;&gt;Node8</title>
<path fill="none" stroke="midnightblue" d="M1298.39,-526.44C1302.82,-500.05 1309,-456.41 1309,-418.5 1309,-418.5 1309,-418.5 1309,-148.5 1309,-44.29 957.01,-52.34 855,-31 852.32,-30.44 849.57,-29.84 846.8,-29.22"/>
<polygon fill="midnightblue" stroke="midnightblue" points="1294.94,-525.85 1296.68,-536.3 1301.84,-527.05 1294.94,-525.85"/>
</g>
<!-- Node28&#45;&gt;Node10 -->
<g id="edge44" class="edge">
<title>Node28&#45;&gt;Node10</title>
<path fill="none" stroke="midnightblue" d="M1320.35,-529.7C1347.23,-505.96 1385,-464.41 1385,-418.5 1385,-418.5 1385,-418.5 1385,-148.5 1385,-102.99 1362.46,-89.69 1323,-67 1263.21,-32.62 1061.19,-21.37 965.75,-17.92"/>
<polygon fill="midnightblue" stroke="midnightblue" points="1317.74,-527.33 1312.42,-536.49 1322.29,-532.65 1317.74,-527.33"/>
</g>
<!-- Node28&#45;&gt;Node14 -->
<g id="edge45" class="edge">
<title>Node28&#45;&gt;Node14</title>
<path fill="none" stroke="midnightblue" d="M1293.14,-526.12C1292.49,-509.91 1291.46,-488.17 1290,-469 1283.76,-386.8 1271,-366.93 1271,-284.5 1271,-284.5 1271,-284.5 1271,-215.5 1271,-119.97 1131.94,-93.57 1054.53,-86.28"/>
<polygon fill="midnightblue" stroke="midnightblue" points="1289.66,-526.49 1293.54,-536.35 1296.65,-526.22 1289.66,-526.49"/>
</g>
<!-- Node28&#45;&gt;Node27 -->
<g id="edge47" class="edge">
<title>Node28&#45;&gt;Node27</title>
<path fill="none" stroke="midnightblue" d="M1243.92,-533.09C1213.73,-522.6 1175.78,-509.41 1147.5,-499.58"/>
<polygon fill="midnightblue" stroke="midnightblue" points="1242.83,-536.42 1253.42,-536.4 1245.13,-529.81 1242.83,-536.42"/>
</g>
<!-- Node28&#45;&gt;Node29 -->
<g id="edge43" class="edge">
<title>Node28&#45;&gt;Node29</title>
<path fill="none" stroke="midnightblue" d="M1273.19,-529.02C1263.8,-519.34 1252.98,-508.17 1244.64,-499.58"/>
<polygon fill="midnightblue" stroke="midnightblue" points="1270.86,-531.65 1280.33,-536.4 1275.88,-526.78 1270.86,-531.65"/>
</g>
<!-- Node30 -->
<g id="node30" class="node">
<title>Node30</title>
<g id="a_node30"><a xlink:href="test_2example_2executor_2thread__pool_8cpp.html" target="_top" xlink:title=" ">
<polygon fill="none" stroke="black" points="1413,-469.5 1413,-499.5 1525,-499.5 1525,-469.5 1413,-469.5"/>
<text text-anchor="start" x="1421" y="-487.5" font-family="Helvetica,sans-Serif" font-size="10.00">test/example/executor</text>
<text text-anchor="middle" x="1469" y="-476.5" font-family="Helvetica,sans-Serif" font-size="10.00">/thread_pool.cpp</text>
</a>
</g>
</g>
<!-- Node28&#45;&gt;Node30 -->
<g id="edge48" class="edge">
<title>Node28&#45;&gt;Node30</title>
<path fill="none" stroke="midnightblue" d="M1341.6,-532.82C1369.73,-522.37 1404.86,-509.32 1431.1,-499.58"/>
<polygon fill="midnightblue" stroke="midnightblue" points="1340.13,-529.63 1331.97,-536.4 1342.57,-536.2 1340.13,-529.63"/>
</g>
<!-- Node32&#45;&gt;Node28 -->
<g id="edge53" class="edge">
<title>Node32&#45;&gt;Node28</title>
<path fill="none" stroke="midnightblue" d="M1318.6,-594.58C1313.14,-585.24 1307.01,-574.75 1302.23,-566.58"/>
<polygon fill="midnightblue" stroke="midnightblue" points="1315.69,-596.53 1323.75,-603.4 1321.73,-593 1315.69,-596.53"/>
</g>
<!-- Node33 -->
<g id="node33" class="node">
<title>Node33</title>
<g id="a_node33"><a xlink:href="thread__factory_8cpp.html" target="_top" xlink:title=" ">
<polygon fill="none" stroke="black" points="1370,-536.5 1370,-566.5 1470,-566.5 1470,-536.5 1370,-536.5"/>
<text text-anchor="start" x="1378" y="-554.5" font-family="Helvetica,sans-Serif" font-size="10.00">src/executor/thread</text>
<text text-anchor="middle" x="1420" y="-543.5" font-family="Helvetica,sans-Serif" font-size="10.00">_factory.cpp</text>
</a>
</g>
</g>
<!-- Node32&#45;&gt;Node33 -->
<g id="edge54" class="edge">
<title>Node32&#45;&gt;Node33</title>
<path fill="none" stroke="midnightblue" d="M1359.14,-597.45C1372.68,-587.45 1388.73,-575.6 1400.94,-566.58"/>
<polygon fill="midnightblue" stroke="midnightblue" points="1357.06,-594.64 1351.09,-603.4 1361.22,-600.27 1357.06,-594.64"/>
</g>
<!-- Node32&#45;&gt;Node34 -->
<g id="edge55" class="edge">
<title>Node32&#45;&gt;Node34</title>
<path fill="none" stroke="midnightblue" d="M1384.88,-600.23C1417.07,-589.71 1457.67,-576.45 1487.9,-566.58"/>
<polygon fill="midnightblue" stroke="midnightblue" points="1383.6,-596.96 1375.18,-603.4 1385.77,-603.62 1383.6,-596.96"/>
</g>
</g>
</svg>
        <g id="navigator" transform="translate(0 0)" fill="#404254">
                <rect fill="#f2f5e9" fill-opacity="0.5" stroke="#606060" stroke-width=".5" x="0" y="0" width="60" height="60"/>
                <use id="zoomplus" xlink:href="#zoomPlus" x="17" y="9" onmousedown="handleZoom(evt,'in')"/>
                <use id="zoomminus" xlink:href="#zoomMin" x="42" y="9" onmousedown="handleZoom(evt,'out')"/>
                <use id="reset" xlink:href="#resetDef" x="30" y="36" onmousedown="handleReset()"/>
                <g id="arrowUp" xlink:href="#dirArrow" transform="translate(30 24)" onmousedown="handlePan(0,-1)">
                  <use xlink:href="#rim" fill="#404040">
                        <set attributeName="fill" to="#808080" begin="arrowUp.mouseover" end="arrowUp.mouseout"/>
                  </use>
                  <path fill="none" stroke="white" stroke-width="1.5" d="M0,-3.0v7 M-2.5,-0.5L0,-3.0L2.5,-0.5"/>
                </g>
                <g id="arrowRight" xlink:href="#dirArrow" transform="rotate(90) translate(36 -43)" onmousedown="handlePan(1,0)">
                  <use xlink:href="#rim" fill="#404040">
                        <set attributeName="fill" to="#808080" begin="arrowRight.mouseover" end="arrowRight.mouseout"/>
                  </use>
                  <path fill="none" stroke="white" stroke-width="1.5" d="M0,-3.0v7 M-2.5,-0.5L0,-3.0L2.5,-0.5"/>
                </g>
                <g id="arrowDown" xlink:href="#dirArrow" transform="rotate(180) translate(-30 -48)" onmousedown="handlePan(0,1)">
                  <use xlink:href="#rim" fill="#404040">
                        <set attributeName="fill" to="#808080" begin="arrowDown.mouseover" end="arrowDown.mouseout"/>
                  </use>
                  <path fill="none" stroke="white" stroke-width="1.5" d="M0,-3.0v7 M-2.5,-0.5L0,-3.0L2.5,-0.5"/>
                </g>
                <g id="arrowLeft" xlink:href="#dirArrow" transform="rotate(270) translate(-36 17)" onmousedown="handlePan(-1,0)">
                  <use xlink:href="#rim" fill="#404040">
                        <set attributeName="fill" to="#808080" begin="arrowLeft.mouseover" end="arrowLeft.mouseout"/>
                  </use>
                  <path fill="none" stroke="white" stroke-width="1.5" d="M0,-3.0v7 M-2.5,-0.5L0,-3.0L2.5,-0.5"/>
                </g>
        </g>
        <svg viewBox="0 0 15 15" width="100%" height="30px" preserveAspectRatio="xMaxYMin meet">
         <g id="arrow_out" transform="scale(0.3 0.3)">
          <a xlink:href="task_8hpp__dep__incl_org.svg" target="_base">
           <rect id="button" ry="5" rx="5" y="6" x="6" height="38" width="38"
                fill="#f2f5e9" fill-opacity="0.5" stroke="#606060" stroke-width="1.0"/>
           <path id="arrow"
             d="M 11.500037,31.436501 C 11.940474,20.09759 22.043105,11.32322 32.158766,21.979434 L 37.068811,17.246167 C 37.068811,17.246167 37.088388,32 37.088388,32 L 22.160133,31.978069 C 22.160133,31.978069 26.997745,27.140456 26.997745,27.140456 C 18.528582,18.264221 13.291696,25.230495 11.500037,31.436501 z"
             style="fill:#404040;"/>
          </a>
         </g>
        </svg>
</svg>
