<?xml version="1.0" encoding="UTF-8" standalone="no"?>
<!DOCTYPE svg PUBLIC "-//W3C//DTD SVG 1.1//EN"
 "http://www.w3.org/Graphics/SVG/1.1/DTD/svg11.dtd">
<!-- Generated by graphviz version 2.44.0 ()
 -->
<!-- Title: include/yaclib/executor/thread_factory.hpp Pages: 1 -->
<svg width="565pt" height="285pt"
 viewBox="0.00 0.00 564.50 285.00" xmlns="http://www.w3.org/2000/svg" xmlns:xlink="http://www.w3.org/1999/xlink">
<g id="graph0" class="graph" transform="scale(1 1) rotate(0) translate(4 281)">
<title>include/yaclib/executor/thread_factory.hpp</title>
<!-- Node1 -->
<g id="node1" class="node">
<title>Node1</title>
<g id="a_node1"><a xlink:title=" ">
<polygon fill="#bfbfbf" stroke="black" points="388.5,-246.5 388.5,-276.5 503.5,-276.5 503.5,-246.5 388.5,-246.5"/>
<text text-anchor="start" x="396.5" y="-264.5" font-family="Helvetica,sans-Serif" font-size="10.00">include/yaclib/executor</text>
<text text-anchor="middle" x="446" y="-253.5" font-family="Helvetica,sans-Serif" font-size="10.00">/thread_factory.hpp</text>
</a>
</g>
</g>
<!-- Node2 -->
<g id="node2" class="node">
<title>Node2</title>
<g id="a_node2"><a xlink:href="task_8hpp.html" target="_top" xlink:title=" ">
<polygon fill="none" stroke="black" points="270.5,-190.5 270.5,-209.5 391.5,-209.5 391.5,-190.5 270.5,-190.5"/>
<text text-anchor="middle" x="331" y="-197.5" font-family="Helvetica,sans-Serif" font-size="10.00">yaclib/executor/task.hpp</text>
</a>
</g>
</g>
<!-- Node1&#45;&gt;Node2 -->
<g id="edge1" class="edge">
<title>Node1&#45;&gt;Node2</title>
<path fill="none" stroke="midnightblue" d="M418.75,-246.4C399.97,-236.68 375.17,-223.86 356.73,-214.31"/>
<polygon fill="midnightblue" stroke="midnightblue" points="358.22,-211.14 347.73,-209.66 355.01,-217.36 358.22,-211.14"/>
</g>
<!-- Node12 -->
<g id="node12" class="node">
<title>Node12</title>
<g id="a_node12"><a xlink:href="intrusive__node_8hpp.html" target="_top" xlink:title=" ">
<polygon fill="none" stroke="black" points="371.5,-123.5 371.5,-153.5 468.5,-153.5 468.5,-123.5 371.5,-123.5"/>
<text text-anchor="start" x="379.5" y="-141.5" font-family="Helvetica,sans-Serif" font-size="10.00">yaclib/util/intrusive</text>
<text text-anchor="middle" x="420" y="-130.5" font-family="Helvetica,sans-Serif" font-size="10.00">_node.hpp</text>
</a>
</g>
</g>
<!-- Node1&#45;&gt;Node12 -->
<g id="edge15" class="edge">
<title>Node1&#45;&gt;Node12</title>
<path fill="none" stroke="midnightblue" d="M442.92,-246.14C438.56,-225.86 430.54,-188.53 425.23,-163.86"/>
<polygon fill="midnightblue" stroke="midnightblue" points="428.6,-162.88 423.08,-153.84 421.76,-164.35 428.6,-162.88"/>
</g>
<!-- Node13 -->
<g id="node13" class="node">
<title>Node13</title>
<g id="a_node13"><a xlink:title=" ">
<polygon fill="none" stroke="#bfbfbf" points="448.5,-190.5 448.5,-209.5 497.5,-209.5 497.5,-190.5 448.5,-190.5"/>
<text text-anchor="middle" x="473" y="-197.5" font-family="Helvetica,sans-Serif" font-size="10.00">cstddef</text>
</a>
</g>
</g>
<!-- Node1&#45;&gt;Node13 -->
<g id="edge16" class="edge">
<title>Node1&#45;&gt;Node13</title>
<path fill="none" stroke="midnightblue" d="M452.4,-246.4C456.12,-238.2 460.85,-227.78 464.83,-218.99"/>
<polygon fill="midnightblue" stroke="midnightblue" points="468.13,-220.21 469.07,-209.66 461.75,-217.32 468.13,-220.21"/>
</g>
<!-- Node14 -->
<g id="node14" class="node">
<title>Node14</title>
<g id="a_node14"><a xlink:title=" ">
<polygon fill="none" stroke="#bfbfbf" points="515.5,-190.5 515.5,-209.5 556.5,-209.5 556.5,-190.5 515.5,-190.5"/>
<text text-anchor="middle" x="536" y="-197.5" font-family="Helvetica,sans-Serif" font-size="10.00">string</text>
</a>
</g>
</g>
<!-- Node1&#45;&gt;Node14 -->
<g id="edge17" class="edge">
<title>Node1&#45;&gt;Node14</title>
<path fill="none" stroke="midnightblue" d="M467.33,-246.4C481.49,-237.04 500.01,-224.79 514.25,-215.38"/>
<polygon fill="midnightblue" stroke="midnightblue" points="516.49,-218.09 522.9,-209.66 512.63,-212.25 516.49,-218.09"/>
</g>
<!-- Node3 -->
<g id="node3" class="node">
<title>Node3</title>
<g id="a_node3"><a xlink:href="func_8hpp.html" target="_top" xlink:title=" ">
<polygon fill="none" stroke="black" points="256.5,-129 256.5,-148 353.5,-148 353.5,-129 256.5,-129"/>
<text text-anchor="middle" x="305" y="-136" font-family="Helvetica,sans-Serif" font-size="10.00">yaclib/util/func.hpp</text>
</a>
</g>
</g>
<!-- Node2&#45;&gt;Node3 -->
<g id="edge2" class="edge">
<title>Node2&#45;&gt;Node3</title>
<path fill="none" stroke="midnightblue" d="M327.27,-190.48C323.53,-181.9 317.64,-168.43 312.86,-157.48"/>
<polygon fill="midnightblue" stroke="midnightblue" points="315.93,-155.77 308.72,-148.01 309.52,-158.57 315.93,-155.77"/>
</g>
<!-- Node2&#45;&gt;Node12 -->
<g id="edge14" class="edge">
<title>Node2&#45;&gt;Node12</title>
<path fill="none" stroke="midnightblue" d="M343.75,-190.48C355.92,-182.34 374.69,-169.79 390.56,-159.18"/>
<polygon fill="midnightblue" stroke="midnightblue" points="392.66,-161.99 399.02,-153.52 388.77,-156.17 392.66,-161.99"/>
</g>
<!-- Node4 -->
<g id="node4" class="node">
<title>Node4</title>
<g id="a_node4"><a xlink:href="counters_8hpp.html" target="_top" xlink:title=" ">
<polygon fill="none" stroke="black" points="71,-62 71,-81 187,-81 187,-62 71,-62"/>
<text text-anchor="middle" x="129" y="-69" font-family="Helvetica,sans-Serif" font-size="10.00">yaclib/util/counters.hpp</text>
</a>
</g>
</g>
<!-- Node3&#45;&gt;Node4 -->
<g id="edge3" class="edge">
<title>Node3&#45;&gt;Node4</title>
<path fill="none" stroke="midnightblue" d="M281.63,-128.87C250.91,-117.52 196.76,-97.52 161.9,-84.65"/>
<polygon fill="midnightblue" stroke="midnightblue" points="162.78,-81.24 152.19,-81.06 160.36,-87.81 162.78,-81.24"/>
</g>
<!-- Node7 -->
<g id="node7" class="node">
<title>Node7</title>
<g id="a_node7"><a xlink:href="intrusive__ptr_8hpp.html" target="_top" xlink:title=" ">
<polygon fill="none" stroke="black" points="256.5,-56.5 256.5,-86.5 353.5,-86.5 353.5,-56.5 256.5,-56.5"/>
<text text-anchor="start" x="264.5" y="-74.5" font-family="Helvetica,sans-Serif" font-size="10.00">yaclib/util/intrusive</text>
<text text-anchor="middle" x="305" y="-63.5" font-family="Helvetica,sans-Serif" font-size="10.00">_ptr.hpp</text>
</a>
</g>
</g>
<!-- Node3&#45;&gt;Node7 -->
<g id="edge6" class="edge">
<title>Node3&#45;&gt;Node7</title>
<path fill="none" stroke="midnightblue" d="M305,-128.73C305,-120.54 305,-107.92 305,-96.71"/>
<polygon fill="midnightblue" stroke="midnightblue" points="308.5,-96.59 305,-86.59 301.5,-96.59 308.5,-96.59"/>
</g>
<!-- Node8 -->
<g id="node8" class="node">
<title>Node8</title>
<g id="a_node8"><a xlink:href="ref_8hpp.html" target="_top" xlink:title=" ">
<polygon fill="none" stroke="black" points="170.5,-0.5 170.5,-19.5 259.5,-19.5 259.5,-0.5 170.5,-0.5"/>
<text text-anchor="middle" x="215" y="-7.5" font-family="Helvetica,sans-Serif" font-size="10.00">yaclib/util/ref.hpp</text>
</a>
</g>
</g>
<!-- Node3&#45;&gt;Node8 -->
<g id="edge11" class="edge">
<title>Node3&#45;&gt;Node8</title>
<path fill="none" stroke="midnightblue" d="M291.93,-128.82C279.05,-119.71 259.52,-104.31 247,-87 234.18,-69.28 225.27,-45.65 220.16,-29.47"/>
<polygon fill="midnightblue" stroke="midnightblue" points="223.44,-28.21 217.23,-19.62 216.73,-30.21 223.44,-28.21"/>
</g>
<!-- Node10 -->
<g id="node10" class="node">
<title>Node10</title>
<g id="a_node10"><a xlink:title=" ">
<polygon fill="none" stroke="#bfbfbf" points="351,-0.5 351,-19.5 413,-19.5 413,-0.5 351,-0.5"/>
<text text-anchor="middle" x="382" y="-7.5" font-family="Helvetica,sans-Serif" font-size="10.00">type_traits</text>
</a>
</g>
</g>
<!-- Node3&#45;&gt;Node10 -->
<g id="edge12" class="edge">
<title>Node3&#45;&gt;Node10</title>
<path fill="none" stroke="midnightblue" d="M318.85,-128.79C331.91,-119.86 351.05,-104.79 362,-87 372.82,-69.42 377.83,-46.08 380.13,-29.92"/>
<polygon fill="midnightblue" stroke="midnightblue" points="383.65,-29.96 381.36,-19.61 376.7,-29.13 383.65,-29.96"/>
</g>
<!-- Node11 -->
<g id="node11" class="node">
<title>Node11</title>
<g id="a_node11"><a xlink:title=" ">
<polygon fill="none" stroke="#bfbfbf" points="431.5,-0.5 431.5,-19.5 470.5,-19.5 470.5,-0.5 431.5,-0.5"/>
<text text-anchor="middle" x="451" y="-7.5" font-family="Helvetica,sans-Serif" font-size="10.00">utility</text>
</a>
</g>
</g>
<!-- Node3&#45;&gt;Node11 -->
<g id="edge13" class="edge">
<title>Node3&#45;&gt;Node11</title>
<path fill="none" stroke="midnightblue" d="M320.79,-128.95C337.18,-119.7 363.14,-103.99 383,-87 404.34,-68.74 425.34,-43.93 438.23,-27.7"/>
<polygon fill="midnightblue" stroke="midnightblue" points="441.11,-29.69 444.51,-19.66 435.6,-25.39 441.11,-29.69"/>
</g>
<!-- Node5 -->
<g id="node5" class="node">
<title>Node5</title>
<g id="a_node5"><a xlink:title=" ">
<polygon fill="none" stroke="#bfbfbf" points="0,-0.5 0,-19.5 88,-19.5 88,-0.5 0,-0.5"/>
<text text-anchor="middle" x="44" y="-7.5" font-family="Helvetica,sans-Serif" font-size="10.00">yaclib/config.hpp</text>
</a>
</g>
</g>
<!-- Node4&#45;&gt;Node5 -->
<g id="edge4" class="edge">
<title>Node4&#45;&gt;Node5</title>
<path fill="none" stroke="midnightblue" d="M116.82,-61.98C103.19,-52.43 80.87,-36.81 64.53,-25.37"/>
<polygon fill="midnightblue" stroke="midnightblue" points="66.36,-22.38 56.16,-19.51 62.34,-28.11 66.36,-22.38"/>
</g>
<!-- Node6 -->
<g id="node6" class="node">
<title>Node6</title>
<g id="a_node6"><a xlink:title=" ">
<polygon fill="none" stroke="#bfbfbf" points="106,-0.5 106,-19.5 152,-19.5 152,-0.5 106,-0.5"/>
<text text-anchor="middle" x="129" y="-7.5" font-family="Helvetica,sans-Serif" font-size="10.00">atomic</text>
</a>
</g>
</g>
<!-- Node4&#45;&gt;Node6 -->
<g id="edge5" class="edge">
<title>Node4&#45;&gt;Node6</title>
<path fill="none" stroke="midnightblue" d="M129,-61.98C129,-53.58 129,-40.48 129,-29.66"/>
<polygon fill="midnightblue" stroke="midnightblue" points="132.5,-29.51 129,-19.51 125.5,-29.51 132.5,-29.51"/>
</g>
<!-- Node7&#45;&gt;Node8 -->
<g id="edge7" class="edge">
<title>Node7&#45;&gt;Node8</title>
<path fill="none" stroke="midnightblue" d="M283.67,-56.4C269.51,-47.04 250.99,-34.79 236.75,-25.38"/>
<polygon fill="midnightblue" stroke="midnightblue" points="238.37,-22.25 228.1,-19.66 234.51,-28.09 238.37,-22.25"/>
</g>
<!-- Node9 -->
<g id="node9" class="node">
<title>Node9</title>
<g id="a_node9"><a xlink:title=" ">
<polygon fill="none" stroke="#bfbfbf" points="277,-0.5 277,-19.5 333,-19.5 333,-0.5 277,-0.5"/>
<text text-anchor="middle" x="305" y="-7.5" font-family="Helvetica,sans-Serif" font-size="10.00">algorithm</text>
</a>
</g>
</g>
<!-- Node7&#45;&gt;Node9 -->
<g id="edge8" class="edge">
<title>Node7&#45;&gt;Node9</title>
<path fill="none" stroke="midnightblue" d="M305,-56.4C305,-48.47 305,-38.46 305,-29.86"/>
<polygon fill="midnightblue" stroke="midnightblue" points="308.5,-29.66 305,-19.66 301.5,-29.66 308.5,-29.66"/>
</g>
<!-- Node7&#45;&gt;Node10 -->
<g id="edge9" class="edge">
<title>Node7&#45;&gt;Node10</title>
<path fill="none" stroke="midnightblue" d="M323.25,-56.4C335.13,-47.22 350.61,-35.26 362.69,-25.92"/>
<polygon fill="midnightblue" stroke="midnightblue" points="365.02,-28.54 370.8,-19.66 360.74,-23 365.02,-28.54"/>
</g>
<!-- Node7&#45;&gt;Node11 -->
<g id="edge10" class="edge">
<title>Node7&#45;&gt;Node11</title>
<path fill="none" stroke="midnightblue" d="M339.6,-56.4C364.69,-46.18 398.23,-32.51 421.93,-22.85"/>
<polygon fill="midnightblue" stroke="midnightblue" points="423.5,-25.99 431.44,-18.97 420.86,-19.51 423.5,-25.99"/>
</g>
</g>
</svg>
