<?xml version="1.0" encoding="UTF-8" standalone="no"?>
<!DOCTYPE svg PUBLIC "-//W3C//DTD SVG 1.1//EN"
 "http://www.w3.org/Graphics/SVG/1.1/DTD/svg11.dtd">
<!-- Generated by graphviz version 2.44.0 ()
 -->
<!-- Title: include/yaclib/util/type_traits.hpp Pages: 1 -->
<!--zoomable 575 -->
<svg id="main" version="1.1" xmlns="http://www.w3.org/2000/svg" xmlns:xlink="http://www.w3.org/1999/xlink" xml:space="preserve" onload="init(evt)">
<style type="text/css"><![CDATA[
.edge:hover path { stroke: red; }
.edge:hover polygon { stroke: red; fill: red; }
]]></style>
<script type="text/javascript"><![CDATA[
var edges = document.getElementsByTagName('g');
if (edges && edges.length) {
  for (var i=0;i<edges.length;i++) {
    if (edges[i].id.substr(0,4)=='edge') {
      edges[i].setAttribute('class','edge');
    }
  }
}
]]></script>
        <defs>
                <circle id="rim" cx="0" cy="0" r="7"/>
                <circle id="rim2" cx="0" cy="0" r="3.5"/>
                <g id="zoomPlus">
                        <use xlink:href="#rim" fill="#404040">
                                <set attributeName="fill" to="#808080" begin="zoomplus.mouseover" end="zoomplus.mouseout"/>
                        </use>
                        <path d="M-4,0h8M0,-4v8" fill="none" stroke="white" stroke-width="1.5" pointer-events="none"/>
                </g>
                <g id="zoomMin">
                        <use xlink:href="#rim" fill="#404040">
                                <set attributeName="fill" to="#808080" begin="zoomminus.mouseover" end="zoomminus.mouseout"/>
                        </use>
                        <path d="M-4,0h8" fill="none" stroke="white" stroke-width="1.5" pointer-events="none"/>
                </g>
                <g id="dirArrow">
                        <path fill="none" stroke="white" stroke-width="1.5" d="M0,-3.0v7 M-2.5,-0.5L0,-3.0L2.5,-0.5"/>
                </g>
               <g id="resetDef">
                       <use xlink:href="#rim2" fill="#404040">
                               <set attributeName="fill" to="#808080" begin="reset.mouseover" end="reset.mouseout"/>
                       </use>
               </g>
        </defs>

<script type="text/javascript">
var viewWidth = 672;
var viewHeight = 575;
var sectionId = 'dynsection-1';
</script>
<script xlink:href="svgpan.js"/>
<svg id="graph" class="graph">
<g id="viewport">
<title>include/yaclib/util/type_traits.hpp</title>
<!-- Node1 -->
<g id="node1" class="node">
<title>Node1</title>
<g id="a_node1"><a xlink:title=" ">
<polygon fill="#bfbfbf" stroke="black" points="455.5,-536.5 455.5,-566.5 546.5,-566.5 546.5,-536.5 455.5,-536.5"/>
<text text-anchor="start" x="463.5" y="-554.5" font-family="Helvetica,sans-Serif" font-size="10.00">include/yaclib/util</text>
<text text-anchor="middle" x="501" y="-543.5" font-family="Helvetica,sans-Serif" font-size="10.00">/type_traits.hpp</text>
</a>
</g>
</g>
<!-- Node2 -->
<g id="node2" class="node">
<title>Node2</title>
<g id="a_node2"><a xlink:href="wait__impl_8hpp.html" target="_top" xlink:title=" ">
<polygon fill="none" stroke="black" points="203.5,-469.5 203.5,-499.5 308.5,-499.5 308.5,-469.5 203.5,-469.5"/>
<text text-anchor="start" x="211.5" y="-487.5" font-family="Helvetica,sans-Serif" font-size="10.00">include/yaclib/algo</text>
<text text-anchor="middle" x="256" y="-476.5" font-family="Helvetica,sans-Serif" font-size="10.00">/detail/wait_impl.hpp</text>
</a>
</g>
</g>
<!-- Node1&#45;&gt;Node2 -->
<g id="edge1" class="edge">
<title>Node1&#45;&gt;Node2</title>
<path fill="none" stroke="midnightblue" d="M445.68,-535.82C404.73,-524.96 349.29,-510.25 308.93,-499.54"/>
<polygon fill="midnightblue" stroke="midnightblue" points="444.93,-539.24 455.49,-538.43 446.72,-532.48 444.93,-539.24"/>
</g>
<!-- Node5 -->
<g id="node5" class="node">
<title>Node5</title>
<g id="a_node5"><a xlink:href="future_8hpp.html" target="_top" xlink:title=" ">
<polygon fill="none" stroke="black" points="268,-201.5 268,-231.5 372,-231.5 372,-201.5 268,-201.5"/>
<text text-anchor="start" x="276" y="-219.5" font-family="Helvetica,sans-Serif" font-size="10.00">include/yaclib/async</text>
<text text-anchor="middle" x="320" y="-208.5" font-family="Helvetica,sans-Serif" font-size="10.00">/future.hpp</text>
</a>
</g>
</g>
<!-- Node1&#45;&gt;Node5 -->
<g id="edge23" class="edge">
<title>Node1&#45;&gt;Node5</title>
<path fill="none" stroke="midnightblue" d="M538.7,-531.15C575.5,-509.25 626,-469.85 626,-418.5 626,-418.5 626,-418.5 626,-349.5 626,-240.29 459.65,-220.37 372.26,-217.43"/>
<polygon fill="midnightblue" stroke="midnightblue" points="536.6,-528.32 529.68,-536.33 540.09,-534.38 536.6,-528.32"/>
</g>
<!-- Node10 -->
<g id="node10" class="node">
<title>Node10</title>
<g id="a_node10"><a xlink:href="promise_8hpp.html" target="_top" xlink:title=" ">
<polygon fill="none" stroke="black" points="100,-134.5 100,-164.5 204,-164.5 204,-134.5 100,-134.5"/>
<text text-anchor="start" x="108" y="-152.5" font-family="Helvetica,sans-Serif" font-size="10.00">include/yaclib/async</text>
<text text-anchor="middle" x="152" y="-141.5" font-family="Helvetica,sans-Serif" font-size="10.00">/promise.hpp</text>
</a>
</g>
</g>
<!-- Node1&#45;&gt;Node10 -->
<g id="edge24" class="edge">
<title>Node1&#45;&gt;Node10</title>
<path fill="none" stroke="midnightblue" d="M445,-547.58C314.28,-539.23 0,-509.69 0,-418.5 0,-418.5 0,-418.5 0,-282.5 0,-222.56 68.22,-183.69 113.25,-164.56"/>
<polygon fill="midnightblue" stroke="midnightblue" points="445.01,-551.09 455.21,-548.21 445.45,-544.1 445.01,-551.09"/>
</g>
<!-- Node12 -->
<g id="node12" class="node">
<title>Node12</title>
<g id="a_node12"><a xlink:href="run_8hpp.html" target="_top" xlink:title=" ">
<polygon fill="none" stroke="black" points="449,-134.5 449,-164.5 553,-164.5 553,-134.5 449,-134.5"/>
<text text-anchor="start" x="457" y="-152.5" font-family="Helvetica,sans-Serif" font-size="10.00">include/yaclib/async</text>
<text text-anchor="middle" x="501" y="-141.5" font-family="Helvetica,sans-Serif" font-size="10.00">/run.hpp</text>
</a>
</g>
</g>
<!-- Node1&#45;&gt;Node12 -->
<g id="edge25" class="edge">
<title>Node1&#45;&gt;Node12</title>
<path fill="none" stroke="midnightblue" d="M553.98,-532.74C601.57,-513.03 664,-476.19 664,-418.5 664,-418.5 664,-418.5 664,-282.5 664,-220.96 592.96,-183.15 544.68,-164.55"/>
<polygon fill="midnightblue" stroke="midnightblue" points="552.67,-529.49 544.68,-536.45 555.27,-535.99 552.67,-529.49"/>
</g>
<!-- Node18 -->
<g id="node18" class="node">
<title>Node18</title>
<g id="a_node18"><a xlink:href="result_8hpp.html" target="_top" xlink:title=" ">
<polygon fill="none" stroke="black" points="455.5,-469.5 455.5,-499.5 546.5,-499.5 546.5,-469.5 455.5,-469.5"/>
<text text-anchor="start" x="463.5" y="-487.5" font-family="Helvetica,sans-Serif" font-size="10.00">include/yaclib/util</text>
<text text-anchor="middle" x="501" y="-476.5" font-family="Helvetica,sans-Serif" font-size="10.00">/result.hpp</text>
</a>
</g>
</g>
<!-- Node1&#45;&gt;Node18 -->
<g id="edge26" class="edge">
<title>Node1&#45;&gt;Node18</title>
<path fill="none" stroke="midnightblue" d="M501,-526.11C501,-517.15 501,-507.32 501,-499.58"/>
<polygon fill="midnightblue" stroke="midnightblue" points="497.5,-526.4 501,-536.4 504.5,-526.4 497.5,-526.4"/>
</g>
<!-- Node3 -->
<g id="node3" class="node">
<title>Node3</title>
<g id="a_node3"><a xlink:href="wait_8hpp.html" target="_top" xlink:title=" ">
<polygon fill="none" stroke="black" points="28,-335.5 28,-365.5 124,-365.5 124,-335.5 28,-335.5"/>
<text text-anchor="start" x="36" y="-353.5" font-family="Helvetica,sans-Serif" font-size="10.00">include/yaclib/algo</text>
<text text-anchor="middle" x="76" y="-342.5" font-family="Helvetica,sans-Serif" font-size="10.00">/wait.hpp</text>
</a>
</g>
</g>
<!-- Node2&#45;&gt;Node3 -->
<g id="edge2" class="edge">
<title>Node2&#45;&gt;Node3</title>
<path fill="none" stroke="midnightblue" d="M193.48,-474.12C147.42,-465.79 90.39,-451.98 76,-433 61.3,-413.61 66.35,-383.48 71.25,-365.8"/>
<polygon fill="midnightblue" stroke="midnightblue" points="192.97,-477.59 203.42,-475.87 194.18,-470.69 192.97,-477.59"/>
</g>
<!-- Node15 -->
<g id="node15" class="node">
<title>Node15</title>
<g id="a_node15"><a xlink:href="wait__for_8hpp.html" target="_top" xlink:title=" ">
<polygon fill="none" stroke="black" points="331,-402.5 331,-432.5 427,-432.5 427,-402.5 331,-402.5"/>
<text text-anchor="start" x="339" y="-420.5" font-family="Helvetica,sans-Serif" font-size="10.00">include/yaclib/algo</text>
<text text-anchor="middle" x="379" y="-409.5" font-family="Helvetica,sans-Serif" font-size="10.00">/wait_for.hpp</text>
</a>
</g>
</g>
<!-- Node2&#45;&gt;Node15 -->
<g id="edge20" class="edge">
<title>Node2&#45;&gt;Node15</title>
<path fill="none" stroke="midnightblue" d="M291.55,-464.71C310.95,-454.46 334.56,-441.98 352.36,-432.58"/>
<polygon fill="midnightblue" stroke="midnightblue" points="289.9,-461.63 282.69,-469.4 293.17,-467.82 289.9,-461.63"/>
</g>
<!-- Node16 -->
<g id="node16" class="node">
<title>Node16</title>
<g id="a_node16"><a xlink:href="wait__until_8hpp.html" target="_top" xlink:title=" ">
<polygon fill="none" stroke="black" points="85,-402.5 85,-432.5 181,-432.5 181,-402.5 85,-402.5"/>
<text text-anchor="start" x="93" y="-420.5" font-family="Helvetica,sans-Serif" font-size="10.00">include/yaclib/algo</text>
<text text-anchor="middle" x="133" y="-409.5" font-family="Helvetica,sans-Serif" font-size="10.00">/wait_until.hpp</text>
</a>
</g>
</g>
<!-- Node2&#45;&gt;Node16 -->
<g id="edge21" class="edge">
<title>Node2&#45;&gt;Node16</title>
<path fill="none" stroke="midnightblue" d="M220.45,-464.71C201.05,-454.46 177.44,-441.98 159.64,-432.58"/>
<polygon fill="midnightblue" stroke="midnightblue" points="218.83,-467.82 229.31,-469.4 222.1,-461.63 218.83,-467.82"/>
</g>
<!-- Node17 -->
<g id="node17" class="node">
<title>Node17</title>
<g id="a_node17"><a xlink:href="wait__impl_8cpp.html" target="_top" xlink:title=" ">
<polygon fill="none" stroke="black" points="199.5,-408 199.5,-427 312.5,-427 312.5,-408 199.5,-408"/>
<text text-anchor="middle" x="256" y="-415" font-family="Helvetica,sans-Serif" font-size="10.00">src/algo/wait_impl.cpp</text>
</a>
</g>
</g>
<!-- Node2&#45;&gt;Node17 -->
<g id="edge22" class="edge">
<title>Node2&#45;&gt;Node17</title>
<path fill="none" stroke="midnightblue" d="M256,-459.25C256,-448.02 256,-435.38 256,-427.19"/>
<polygon fill="midnightblue" stroke="midnightblue" points="252.5,-459.4 256,-469.4 259.5,-459.4 252.5,-459.4"/>
</g>
<!-- Node4 -->
<g id="node4" class="node">
<title>Node4</title>
<g id="a_node4"><a xlink:href="future__impl_8hpp.html" target="_top" xlink:title=" ">
<polygon fill="none" stroke="black" points="180,-268.5 180,-298.5 292,-298.5 292,-268.5 180,-268.5"/>
<text text-anchor="start" x="188" y="-286.5" font-family="Helvetica,sans-Serif" font-size="10.00">include/yaclib/async</text>
<text text-anchor="middle" x="236" y="-275.5" font-family="Helvetica,sans-Serif" font-size="10.00">/detail/future_impl.hpp</text>
</a>
</g>
</g>
<!-- Node3&#45;&gt;Node4 -->
<g id="edge3" class="edge">
<title>Node3&#45;&gt;Node4</title>
<path fill="none" stroke="midnightblue" d="M120.2,-331.54C145.8,-321.14 177.57,-308.24 201.35,-298.58"/>
<polygon fill="midnightblue" stroke="midnightblue" points="118.66,-328.39 110.72,-335.4 121.3,-334.87 118.66,-328.39"/>
</g>
<!-- Node4&#45;&gt;Node5 -->
<g id="edge4" class="edge">
<title>Node4&#45;&gt;Node5</title>
<path fill="none" stroke="midnightblue" d="M262.28,-262.17C275.12,-252.23 290.26,-240.51 301.81,-231.58"/>
<polygon fill="midnightblue" stroke="midnightblue" points="259.99,-259.51 254.23,-268.4 264.28,-265.04 259.99,-259.51"/>
</g>
<!-- Node4&#45;&gt;Node10 -->
<g id="edge19" class="edge">
<title>Node4&#45;&gt;Node10</title>
<path fill="none" stroke="midnightblue" d="M221.58,-259.83C204.16,-232.47 175.41,-187.28 160.92,-164.52"/>
<polygon fill="midnightblue" stroke="midnightblue" points="218.69,-261.82 227.01,-268.37 224.59,-258.06 218.69,-261.82"/>
</g>
<!-- Node6 -->
<g id="node6" class="node">
<title>Node6</title>
<g id="a_node6"><a xlink:href="when__any_8hpp.html" target="_top" xlink:title=" ">
<polygon fill="none" stroke="black" points="230,-67.5 230,-97.5 326,-97.5 326,-67.5 230,-67.5"/>
<text text-anchor="start" x="238" y="-85.5" font-family="Helvetica,sans-Serif" font-size="10.00">include/yaclib/algo</text>
<text text-anchor="middle" x="278" y="-74.5" font-family="Helvetica,sans-Serif" font-size="10.00">/when_any.hpp</text>
</a>
</g>
</g>
<!-- Node5&#45;&gt;Node6 -->
<g id="edge5" class="edge">
<title>Node5&#45;&gt;Node6</title>
<path fill="none" stroke="midnightblue" d="M342.05,-193.82C356.18,-177.19 369.99,-153.8 359,-134 349.83,-117.48 332.77,-105.66 316.66,-97.63"/>
<polygon fill="midnightblue" stroke="midnightblue" points="339.3,-191.63 335.19,-201.4 344.5,-196.33 339.3,-191.63"/>
</g>
<!-- Node8 -->
<g id="node8" class="node">
<title>Node8</title>
<g id="a_node8"><a xlink:href="when__all_8hpp.html" target="_top" xlink:title=" ">
<polygon fill="none" stroke="black" points="344,-67.5 344,-97.5 440,-97.5 440,-67.5 344,-67.5"/>
<text text-anchor="start" x="352" y="-85.5" font-family="Helvetica,sans-Serif" font-size="10.00">include/yaclib/algo</text>
<text text-anchor="middle" x="392" y="-74.5" font-family="Helvetica,sans-Serif" font-size="10.00">/when_all.hpp</text>
</a>
</g>
</g>
<!-- Node5&#45;&gt;Node8 -->
<g id="edge7" class="edge">
<title>Node5&#45;&gt;Node8</title>
<path fill="none" stroke="midnightblue" d="M348.8,-195.04C358.49,-186.76 368.49,-176.45 375,-165 387.14,-143.64 390.65,-114.71 391.64,-97.68"/>
<polygon fill="midnightblue" stroke="midnightblue" points="346.38,-192.48 340.8,-201.49 350.78,-197.93 346.38,-192.48"/>
</g>
<!-- Node5&#45;&gt;Node10 -->
<g id="edge9" class="edge">
<title>Node5&#45;&gt;Node10</title>
<path fill="none" stroke="midnightblue" d="M268.22,-197.82C240.2,-187.37 206.62,-174.32 182.71,-164.58"/>
<polygon fill="midnightblue" stroke="midnightblue" points="267.28,-201.2 277.87,-201.4 269.71,-194.64 267.28,-201.2"/>
</g>
<!-- Node5&#45;&gt;Node12 -->
<g id="edge14" class="edge">
<title>Node5&#45;&gt;Node12</title>
<path fill="none" stroke="midnightblue" d="M368.86,-197.96C398.01,-187.48 434.54,-174.37 461.8,-164.58"/>
<polygon fill="midnightblue" stroke="midnightblue" points="367.5,-194.72 359.27,-201.4 369.87,-201.31 367.5,-194.72"/>
</g>
<!-- Node14 -->
<g id="node14" class="node">
<title>Node14</title>
<g id="a_node14"><a xlink:href="future__impl_8cpp.html" target="_top" xlink:title=" ">
<polygon fill="none" stroke="black" points="222,-140 222,-159 350,-159 350,-140 222,-140"/>
<text text-anchor="middle" x="286" y="-147" font-family="Helvetica,sans-Serif" font-size="10.00">src/async/future_impl.cpp</text>
</a>
</g>
</g>
<!-- Node5&#45;&gt;Node14 -->
<g id="edge18" class="edge">
<title>Node5&#45;&gt;Node14</title>
<path fill="none" stroke="midnightblue" d="M307.86,-192.29C301.85,-180.8 294.96,-167.63 290.55,-159.19"/>
<polygon fill="midnightblue" stroke="midnightblue" points="304.89,-194.16 312.62,-201.4 311.09,-190.91 304.89,-194.16"/>
</g>
<!-- Node7 -->
<g id="node7" class="node">
<title>Node7</title>
<g id="a_node7"><a xlink:href="when__any_8cpp.html" target="_top" xlink:title=" ">
<polygon fill="none" stroke="black" points="281.5,-0.5 281.5,-30.5 382.5,-30.5 382.5,-0.5 281.5,-0.5"/>
<text text-anchor="start" x="289.5" y="-18.5" font-family="Helvetica,sans-Serif" font-size="10.00">test/example/async</text>
<text text-anchor="middle" x="332" y="-7.5" font-family="Helvetica,sans-Serif" font-size="10.00">/when_any.cpp</text>
</a>
</g>
</g>
<!-- Node6&#45;&gt;Node7 -->
<g id="edge6" class="edge">
<title>Node6&#45;&gt;Node7</title>
<path fill="none" stroke="midnightblue" d="M296.32,-59.45C304.25,-49.9 313.3,-39 320.31,-30.58"/>
<polygon fill="midnightblue" stroke="midnightblue" points="293.42,-57.47 289.72,-67.4 298.8,-61.94 293.42,-57.47"/>
</g>
<!-- Node9 -->
<g id="node9" class="node">
<title>Node9</title>
<g id="a_node9"><a xlink:href="when__all_8cpp.html" target="_top" xlink:title=" ">
<polygon fill="none" stroke="black" points="427.5,-0.5 427.5,-30.5 528.5,-30.5 528.5,-0.5 427.5,-0.5"/>
<text text-anchor="start" x="435.5" y="-18.5" font-family="Helvetica,sans-Serif" font-size="10.00">test/example/async</text>
<text text-anchor="middle" x="478" y="-7.5" font-family="Helvetica,sans-Serif" font-size="10.00">/when_all.cpp</text>
</a>
</g>
</g>
<!-- Node8&#45;&gt;Node9 -->
<g id="edge8" class="edge">
<title>Node8&#45;&gt;Node9</title>
<path fill="none" stroke="midnightblue" d="M418.9,-61.17C432.05,-51.23 447.55,-39.51 459.38,-30.58"/>
<polygon fill="midnightblue" stroke="midnightblue" points="416.53,-58.57 410.66,-67.4 420.75,-64.16 416.53,-58.57"/>
</g>
<!-- Node10&#45;&gt;Node5 -->
<g id="edge12" class="edge">
<title>Node10&#45;&gt;Node5</title>
<path fill="none" stroke="midnightblue" d="M203.7,-168.15C231.71,-178.59 265.3,-191.64 289.22,-201.4"/>
<polygon fill="midnightblue" stroke="midnightblue" points="204.65,-164.77 194.06,-164.58 202.22,-171.33 204.65,-164.77"/>
</g>
<!-- Node10&#45;&gt;Node6 -->
<g id="edge10" class="edge">
<title>Node10&#45;&gt;Node6</title>
<path fill="none" stroke="midnightblue" d="M188.42,-129.71C208.29,-119.46 232.48,-106.98 250.71,-97.58"/>
<polygon fill="midnightblue" stroke="midnightblue" points="186.62,-126.7 179.34,-134.4 189.83,-132.92 186.62,-126.7"/>
</g>
<!-- Node10&#45;&gt;Node8 -->
<g id="edge11" class="edge">
<title>Node10&#45;&gt;Node8</title>
<path fill="none" stroke="midnightblue" d="M213.56,-131.83C254.13,-120.84 306.49,-106.66 343.99,-96.5"/>
<polygon fill="midnightblue" stroke="midnightblue" points="212.52,-128.48 203.78,-134.48 214.35,-135.24 212.52,-128.48"/>
</g>
<!-- Node11 -->
<g id="node11" class="node">
<title>Node11</title>
<g id="a_node11"><a xlink:href="promise__impl_8cpp.html" target="_top" xlink:title=" ">
<polygon fill="none" stroke="black" points="74.5,-73 74.5,-92 211.5,-92 211.5,-73 74.5,-73"/>
<text text-anchor="middle" x="143" y="-80" font-family="Helvetica,sans-Serif" font-size="10.00">src/async/promise_impl.cpp</text>
</a>
</g>
</g>
<!-- Node10&#45;&gt;Node11 -->
<g id="edge13" class="edge">
<title>Node10&#45;&gt;Node11</title>
<path fill="none" stroke="midnightblue" d="M148.64,-124.25C147.09,-113.02 145.34,-100.38 144.2,-92.19"/>
<polygon fill="midnightblue" stroke="midnightblue" points="145.21,-124.97 150.05,-134.4 152.14,-124.01 145.21,-124.97"/>
</g>
<!-- Node12&#45;&gt;Node7 -->
<g id="edge17" class="edge">
<title>Node12&#45;&gt;Node7</title>
<path fill="none" stroke="midnightblue" d="M490.78,-125.08C481.94,-107.15 467.66,-82.88 449,-67 429.63,-50.51 404.05,-38.64 381.75,-30.58"/>
<polygon fill="midnightblue" stroke="midnightblue" points="487.69,-126.73 495.12,-134.29 494.02,-123.75 487.69,-126.73"/>
</g>
<!-- Node12&#45;&gt;Node9 -->
<g id="edge15" class="edge">
<title>Node12&#45;&gt;Node9</title>
<path fill="none" stroke="midnightblue" d="M496.8,-124.39C492.01,-96.9 484.34,-52.89 480.44,-30.52"/>
<polygon fill="midnightblue" stroke="midnightblue" points="493.37,-125.12 498.54,-134.37 500.27,-123.92 493.37,-125.12"/>
</g>
<!-- Node13 -->
<g id="node13" class="node">
<title>Node13</title>
<g id="a_node13"><a xlink:href="simple_8cpp.html" target="_top" xlink:title=" ">
<polygon fill="none" stroke="black" points="534.5,-67.5 534.5,-97.5 635.5,-97.5 635.5,-67.5 534.5,-67.5"/>
<text text-anchor="start" x="542.5" y="-85.5" font-family="Helvetica,sans-Serif" font-size="10.00">test/example/async</text>
<text text-anchor="middle" x="585" y="-74.5" font-family="Helvetica,sans-Serif" font-size="10.00">/simple.cpp</text>
</a>
</g>
</g>
<!-- Node12&#45;&gt;Node13 -->
<g id="edge16" class="edge">
<title>Node12&#45;&gt;Node13</title>
<path fill="none" stroke="midnightblue" d="M527.28,-128.17C540.12,-118.23 555.26,-106.51 566.81,-97.58"/>
<polygon fill="midnightblue" stroke="midnightblue" points="524.99,-125.51 519.23,-134.4 529.28,-131.04 524.99,-125.51"/>
</g>
<!-- Node19 -->
<g id="node19" class="node">
<title>Node19</title>
<g id="a_node19"><a xlink:href="result__core_8hpp.html" target="_top" xlink:title=" ">
<polygon fill="none" stroke="black" points="445,-402.5 445,-432.5 557,-432.5 557,-402.5 445,-402.5"/>
<text text-anchor="start" x="453" y="-420.5" font-family="Helvetica,sans-Serif" font-size="10.00">include/yaclib/async</text>
<text text-anchor="middle" x="501" y="-409.5" font-family="Helvetica,sans-Serif" font-size="10.00">/detail/result_core.hpp</text>
</a>
</g>
</g>
<!-- Node18&#45;&gt;Node19 -->
<g id="edge27" class="edge">
<title>Node18&#45;&gt;Node19</title>
<path fill="none" stroke="midnightblue" d="M501,-459.11C501,-450.15 501,-440.32 501,-432.58"/>
<polygon fill="midnightblue" stroke="midnightblue" points="497.5,-459.4 501,-469.4 504.5,-459.4 497.5,-459.4"/>
</g>
<!-- Node19&#45;&gt;Node5 -->
<g id="edge31" class="edge">
<title>Node19&#45;&gt;Node5</title>
<path fill="none" stroke="midnightblue" d="M435.93,-399.79C393.83,-388.38 345.65,-373.93 339,-366 306.26,-326.97 312.52,-260.66 317.25,-231.72"/>
<polygon fill="midnightblue" stroke="midnightblue" points="435.07,-403.18 445.64,-402.4 436.89,-396.42 435.07,-403.18"/>
</g>
<!-- Node19&#45;&gt;Node10 -->
<g id="edge32" class="edge">
<title>Node19&#45;&gt;Node10</title>
<path fill="none" stroke="midnightblue" d="M434.87,-400.78C400,-391.83 356.74,-379.68 319,-366 251.12,-341.39 213.92,-357.07 171,-299 140.88,-258.24 145.62,-193.41 149.59,-164.83"/>
<polygon fill="midnightblue" stroke="midnightblue" points="434.39,-404.27 444.94,-403.33 436.11,-397.48 434.39,-404.27"/>
</g>
<!-- Node20 -->
<g id="node20" class="node">
<title>Node20</title>
<g id="a_node20"><a xlink:href="core_8hpp.html" target="_top" xlink:title=" ">
<polygon fill="none" stroke="black" points="348,-335.5 348,-365.5 452,-365.5 452,-335.5 348,-335.5"/>
<text text-anchor="start" x="356" y="-353.5" font-family="Helvetica,sans-Serif" font-size="10.00">include/yaclib/async</text>
<text text-anchor="middle" x="400" y="-342.5" font-family="Helvetica,sans-Serif" font-size="10.00">/detail/core.hpp</text>
</a>
</g>
</g>
<!-- Node19&#45;&gt;Node20 -->
<g id="edge28" class="edge">
<title>Node19&#45;&gt;Node20</title>
<path fill="none" stroke="midnightblue" d="M470.29,-396.73C454.66,-386.68 436.03,-374.68 421.87,-365.58"/>
<polygon fill="midnightblue" stroke="midnightblue" points="468.78,-399.93 479.08,-402.4 472.57,-394.04 468.78,-399.93"/>
</g>
<!-- Node21 -->
<g id="node21" class="node">
<title>Node21</title>
<g id="a_node21"><a xlink:href="result__core_8cpp.html" target="_top" xlink:title=" ">
<polygon fill="none" stroke="black" points="470,-341 470,-360 598,-360 598,-341 470,-341"/>
<text text-anchor="middle" x="534" y="-348" font-family="Helvetica,sans-Serif" font-size="10.00">src/async/result_core.cpp</text>
</a>
</g>
</g>
<!-- Node19&#45;&gt;Node21 -->
<g id="edge33" class="edge">
<title>Node19&#45;&gt;Node21</title>
<path fill="none" stroke="midnightblue" d="M512.78,-393.29C518.62,-381.8 525.3,-368.63 529.59,-360.19"/>
<polygon fill="midnightblue" stroke="midnightblue" points="509.57,-391.89 508.16,-402.4 515.81,-395.06 509.57,-391.89"/>
</g>
<!-- Node20&#45;&gt;Node4 -->
<g id="edge29" class="edge">
<title>Node20&#45;&gt;Node4</title>
<path fill="none" stroke="midnightblue" d="M355.04,-331.68C328.74,-321.26 296,-308.28 271.52,-298.58"/>
<polygon fill="midnightblue" stroke="midnightblue" points="353.83,-334.97 364.41,-335.4 356.41,-328.46 353.83,-334.97"/>
</g>
<!-- Node20&#45;&gt;Node12 -->
<g id="edge30" class="edge">
<title>Node20&#45;&gt;Node12</title>
<path fill="none" stroke="midnightblue" d="M411.9,-326.06C433.05,-284.38 476.62,-198.54 493.8,-164.68"/>
<polygon fill="midnightblue" stroke="midnightblue" points="408.67,-324.69 407.26,-335.19 414.91,-327.86 408.67,-324.69"/>
</g>
</g>
</svg>
        <g id="navigator" transform="translate(0 0)" fill="#404254">
                <rect fill="#f2f5e9" fill-opacity="0.5" stroke="#606060" stroke-width=".5" x="0" y="0" width="60" height="60"/>
                <use id="zoomplus" xlink:href="#zoomPlus" x="17" y="9" onmousedown="handleZoom(evt,'in')"/>
                <use id="zoomminus" xlink:href="#zoomMin" x="42" y="9" onmousedown="handleZoom(evt,'out')"/>
                <use id="reset" xlink:href="#resetDef" x="30" y="36" onmousedown="handleReset()"/>
                <g id="arrowUp" xlink:href="#dirArrow" transform="translate(30 24)" onmousedown="handlePan(0,-1)">
                  <use xlink:href="#rim" fill="#404040">
                        <set attributeName="fill" to="#808080" begin="arrowUp.mouseover" end="arrowUp.mouseout"/>
                  </use>
                  <path fill="none" stroke="white" stroke-width="1.5" d="M0,-3.0v7 M-2.5,-0.5L0,-3.0L2.5,-0.5"/>
                </g>
                <g id="arrowRight" xlink:href="#dirArrow" transform="rotate(90) translate(36 -43)" onmousedown="handlePan(1,0)">
                  <use xlink:href="#rim" fill="#404040">
                        <set attributeName="fill" to="#808080" begin="arrowRight.mouseover" end="arrowRight.mouseout"/>
                  </use>
                  <path fill="none" stroke="white" stroke-width="1.5" d="M0,-3.0v7 M-2.5,-0.5L0,-3.0L2.5,-0.5"/>
                </g>
                <g id="arrowDown" xlink:href="#dirArrow" transform="rotate(180) translate(-30 -48)" onmousedown="handlePan(0,1)">
                  <use xlink:href="#rim" fill="#404040">
                        <set attributeName="fill" to="#808080" begin="arrowDown.mouseover" end="arrowDown.mouseout"/>
                  </use>
                  <path fill="none" stroke="white" stroke-width="1.5" d="M0,-3.0v7 M-2.5,-0.5L0,-3.0L2.5,-0.5"/>
                </g>
                <g id="arrowLeft" xlink:href="#dirArrow" transform="rotate(270) translate(-36 17)" onmousedown="handlePan(-1,0)">
                  <use xlink:href="#rim" fill="#404040">
                        <set attributeName="fill" to="#808080" begin="arrowLeft.mouseover" end="arrowLeft.mouseout"/>
                  </use>
                  <path fill="none" stroke="white" stroke-width="1.5" d="M0,-3.0v7 M-2.5,-0.5L0,-3.0L2.5,-0.5"/>
                </g>
        </g>
        <svg viewBox="0 0 15 15" width="100%" height="30px" preserveAspectRatio="xMaxYMin meet">
         <g id="arrow_out" transform="scale(0.3 0.3)">
          <a xlink:href="type__traits_8hpp__dep__incl_org.svg" target="_base">
           <rect id="button" ry="5" rx="5" y="6" x="6" height="38" width="38"
                fill="#f2f5e9" fill-opacity="0.5" stroke="#606060" stroke-width="1.0"/>
           <path id="arrow"
             d="M 11.500037,31.436501 C 11.940474,20.09759 22.043105,11.32322 32.158766,21.979434 L 37.068811,17.246167 C 37.068811,17.246167 37.088388,32 37.088388,32 L 22.160133,31.978069 C 22.160133,31.978069 26.997745,27.140456 26.997745,27.140456 C 18.528582,18.264221 13.291696,25.230495 11.500037,31.436501 z"
             style="fill:#404040;"/>
          </a>
         </g>
        </svg>
</svg>
