<?xml version="1.0" encoding="UTF-8" standalone="no"?>
<!DOCTYPE svg PUBLIC "-//W3C//DTD SVG 1.1//EN"
 "http://www.w3.org/Graphics/SVG/1.1/DTD/svg11.dtd">
<!-- Generated by graphviz version 2.44.0 ()
 -->
<!-- Title: include/yaclib/algo/wait.hpp Pages: 1 -->
<!--zoomable 531 -->
<svg id="main" version="1.1" xmlns="http://www.w3.org/2000/svg" xmlns:xlink="http://www.w3.org/1999/xlink" xml:space="preserve" onload="init(evt)">
<style type="text/css"><![CDATA[
.edge:hover path { stroke: red; }
.edge:hover polygon { stroke: red; fill: red; }
]]></style>
<script type="text/javascript"><![CDATA[
var edges = document.getElementsByTagName('g');
if (edges && edges.length) {
  for (var i=0;i<edges.length;i++) {
    if (edges[i].id.substr(0,4)=='edge') {
      edges[i].setAttribute('class','edge');
    }
  }
}
]]></script>
        <defs>
                <circle id="rim" cx="0" cy="0" r="7"/>
                <circle id="rim2" cx="0" cy="0" r="3.5"/>
                <g id="zoomPlus">
                        <use xlink:href="#rim" fill="#404040">
                                <set attributeName="fill" to="#808080" begin="zoomplus.mouseover" end="zoomplus.mouseout"/>
                        </use>
                        <path d="M-4,0h8M0,-4v8" fill="none" stroke="white" stroke-width="1.5" pointer-events="none"/>
                </g>
                <g id="zoomMin">
                        <use xlink:href="#rim" fill="#404040">
                                <set attributeName="fill" to="#808080" begin="zoomminus.mouseover" end="zoomminus.mouseout"/>
                        </use>
                        <path d="M-4,0h8" fill="none" stroke="white" stroke-width="1.5" pointer-events="none"/>
                </g>
                <g id="dirArrow">
                        <path fill="none" stroke="white" stroke-width="1.5" d="M0,-3.0v7 M-2.5,-0.5L0,-3.0L2.5,-0.5"/>
                </g>
               <g id="resetDef">
                       <use xlink:href="#rim2" fill="#404040">
                               <set attributeName="fill" to="#808080" begin="reset.mouseover" end="reset.mouseout"/>
                       </use>
               </g>
        </defs>

<script type="text/javascript">
var viewWidth = 839;
var viewHeight = 531;
var sectionId = 'dynsection-0';
</script>
<script xlink:href="svgpan.js"/>
<svg id="graph" class="graph">
<g id="viewport">
<title>include/yaclib/algo/wait.hpp</title>
<!-- Node1 -->
<g id="node1" class="node">
<title>Node1</title>
<g id="a_node1"><a xlink:title=" ">
<polygon fill="#bfbfbf" stroke="black" points="336,-492.5 336,-522.5 432,-522.5 432,-492.5 336,-492.5"/>
<text text-anchor="start" x="344" y="-510.5" font-family="Helvetica,sans-Serif" font-size="10.00">include/yaclib/algo</text>
<text text-anchor="middle" x="384" y="-499.5" font-family="Helvetica,sans-Serif" font-size="10.00">/wait.hpp</text>
</a>
</g>
</g>
<!-- Node2 -->
<g id="node2" class="node">
<title>Node2</title>
<g id="a_node2"><a xlink:href="wait__impl_8hpp.html" target="_top" xlink:title=" ">
<polygon fill="none" stroke="black" points="339.5,-425.5 339.5,-455.5 428.5,-455.5 428.5,-425.5 339.5,-425.5"/>
<text text-anchor="start" x="347.5" y="-443.5" font-family="Helvetica,sans-Serif" font-size="10.00">yaclib/algo/detail</text>
<text text-anchor="middle" x="384" y="-432.5" font-family="Helvetica,sans-Serif" font-size="10.00">/wait_impl.hpp</text>
</a>
</g>
</g>
<!-- Node1&#45;&gt;Node2 -->
<g id="edge1" class="edge">
<title>Node1&#45;&gt;Node2</title>
<path fill="none" stroke="midnightblue" d="M384,-492.4C384,-484.64 384,-474.81 384,-465.86"/>
<polygon fill="midnightblue" stroke="midnightblue" points="387.5,-465.58 384,-455.58 380.5,-465.58 387.5,-465.58"/>
</g>
<!-- Node3 -->
<g id="node3" class="node">
<title>Node3</title>
<g id="a_node3"><a xlink:href="base__core_8hpp.html" target="_top" xlink:title=" ">
<polygon fill="none" stroke="black" points="208,-358.5 208,-388.5 304,-388.5 304,-358.5 208,-358.5"/>
<text text-anchor="start" x="216" y="-376.5" font-family="Helvetica,sans-Serif" font-size="10.00">yaclib/async/detail</text>
<text text-anchor="middle" x="256" y="-365.5" font-family="Helvetica,sans-Serif" font-size="10.00">/base_core.hpp</text>
</a>
</g>
</g>
<!-- Node2&#45;&gt;Node3 -->
<g id="edge2" class="edge">
<title>Node2&#45;&gt;Node3</title>
<path fill="none" stroke="midnightblue" d="M356.23,-425.4C337.61,-415.94 312.89,-403.39 292.66,-393.12"/>
<polygon fill="midnightblue" stroke="midnightblue" points="294.22,-389.98 283.72,-388.58 291.05,-396.23 294.22,-389.98"/>
</g>
<!-- Node7 -->
<g id="node7" class="node">
<title>Node7</title>
<g id="a_node7"><a xlink:href="counters_8hpp.html" target="_top" xlink:title=" ">
<polygon fill="none" stroke="black" points="0,-62 0,-81 116,-81 116,-62 0,-62"/>
<text text-anchor="middle" x="58" y="-69" font-family="Helvetica,sans-Serif" font-size="10.00">yaclib/util/counters.hpp</text>
</a>
</g>
</g>
<!-- Node2&#45;&gt;Node7 -->
<g id="edge28" class="edge">
<title>Node2&#45;&gt;Node7</title>
<path fill="none" stroke="midnightblue" d="M339.44,-440.24C255.43,-439.06 82,-423.28 82,-313 82,-313 82,-313 82,-199 82,-160.04 70.87,-115.49 63.77,-91.02"/>
<polygon fill="midnightblue" stroke="midnightblue" points="67.08,-89.86 60.85,-81.29 60.37,-91.87 67.08,-89.86"/>
</g>
<!-- Node17 -->
<g id="node17" class="node">
<title>Node17</title>
<g id="a_node17"><a xlink:href="wait__core_8hpp.html" target="_top" xlink:title=" ">
<polygon fill="none" stroke="black" points="473,-358.5 473,-388.5 569,-388.5 569,-358.5 473,-358.5"/>
<text text-anchor="start" x="481" y="-376.5" font-family="Helvetica,sans-Serif" font-size="10.00">yaclib/async/detail</text>
<text text-anchor="middle" x="521" y="-365.5" font-family="Helvetica,sans-Serif" font-size="10.00">/wait_core.hpp</text>
</a>
</g>
</g>
<!-- Node2&#45;&gt;Node17 -->
<g id="edge24" class="edge">
<title>Node2&#45;&gt;Node17</title>
<path fill="none" stroke="midnightblue" d="M413.73,-425.4C433.74,-415.9 460.35,-403.28 482.05,-392.98"/>
<polygon fill="midnightblue" stroke="midnightblue" points="483.8,-396.03 491.33,-388.58 480.8,-389.7 483.8,-396.03"/>
</g>
<!-- Node20 -->
<g id="node20" class="node">
<title>Node20</title>
<g id="a_node20"><a xlink:href="type__traits_8hpp.html" target="_top" xlink:title=" ">
<polygon fill="none" stroke="black" points="641.5,-364 641.5,-383 764.5,-383 764.5,-364 641.5,-364"/>
<text text-anchor="middle" x="703" y="-371" font-family="Helvetica,sans-Serif" font-size="10.00">yaclib/util/type_traits.hpp</text>
</a>
</g>
</g>
<!-- Node2&#45;&gt;Node20 -->
<g id="edge29" class="edge">
<title>Node2&#45;&gt;Node20</title>
<path fill="none" stroke="midnightblue" d="M428.69,-430.39C487.17,-418.48 589.44,-397.64 651.22,-385.05"/>
<polygon fill="midnightblue" stroke="midnightblue" points="652.05,-388.45 661.15,-383.03 650.65,-381.6 652.05,-388.45"/>
</g>
<!-- Node4 -->
<g id="node4" class="node">
<title>Node4</title>
<g id="a_node4"><a xlink:href="executor_8hpp.html" target="_top" xlink:title=" ">
<polygon fill="none" stroke="black" points="281.5,-246.5 281.5,-265.5 420.5,-265.5 420.5,-246.5 281.5,-246.5"/>
<text text-anchor="middle" x="351" y="-253.5" font-family="Helvetica,sans-Serif" font-size="10.00">yaclib/executor/executor.hpp</text>
</a>
</g>
</g>
<!-- Node3&#45;&gt;Node4 -->
<g id="edge3" class="edge">
<title>Node3&#45;&gt;Node4</title>
<path fill="none" stroke="midnightblue" d="M261.89,-358.25C268.52,-343.26 280.32,-319.44 295,-302 304.76,-290.4 317.87,-279.68 328.95,-271.61"/>
<polygon fill="midnightblue" stroke="midnightblue" points="331.13,-274.35 337.3,-265.74 327.11,-268.63 331.13,-274.35"/>
</g>
<!-- Node5 -->
<g id="node5" class="node">
<title>Node5</title>
<g id="a_node5"><a xlink:href="task_8hpp.html" target="_top" xlink:title=" ">
<polygon fill="none" stroke="black" points="195.5,-190.5 195.5,-209.5 316.5,-209.5 316.5,-190.5 195.5,-190.5"/>
<text text-anchor="middle" x="256" y="-197.5" font-family="Helvetica,sans-Serif" font-size="10.00">yaclib/executor/task.hpp</text>
</a>
</g>
</g>
<!-- Node3&#45;&gt;Node5 -->
<g id="edge21" class="edge">
<title>Node3&#45;&gt;Node5</title>
<path fill="none" stroke="midnightblue" d="M243.39,-358.19C235.86,-348.66 227.01,-335.45 223,-322 217.5,-303.52 227.36,-256.81 231,-246 234.28,-236.26 239.65,-226.19 244.58,-218.05"/>
<polygon fill="midnightblue" stroke="midnightblue" points="247.6,-219.84 250.01,-209.52 241.69,-216.08 247.6,-219.84"/>
</g>
<!-- Node9 -->
<g id="node9" class="node">
<title>Node9</title>
<g id="a_node9"><a xlink:title=" ">
<polygon fill="none" stroke="#bfbfbf" points="121,-0.5 121,-19.5 167,-19.5 167,-0.5 121,-0.5"/>
<text text-anchor="middle" x="144" y="-7.5" font-family="Helvetica,sans-Serif" font-size="10.00">atomic</text>
</a>
</g>
</g>
<!-- Node3&#45;&gt;Node9 -->
<g id="edge23" class="edge">
<title>Node3&#45;&gt;Node9</title>
<path fill="none" stroke="midnightblue" d="M226.87,-358.39C193.68,-340.04 144,-304.62 144,-257 144,-257 144,-257 144,-137.5 144,-99.2 144,-54.38 144,-29.7"/>
<polygon fill="midnightblue" stroke="midnightblue" points="147.5,-29.59 144,-19.59 140.5,-29.59 147.5,-29.59"/>
</g>
<!-- Node10 -->
<g id="node10" class="node">
<title>Node10</title>
<g id="a_node10"><a xlink:href="intrusive__ptr_8hpp.html" target="_top" xlink:title=" ">
<polygon fill="none" stroke="black" points="402.5,-56.5 402.5,-86.5 499.5,-86.5 499.5,-56.5 402.5,-56.5"/>
<text text-anchor="start" x="410.5" y="-74.5" font-family="Helvetica,sans-Serif" font-size="10.00">yaclib/util/intrusive</text>
<text text-anchor="middle" x="451" y="-63.5" font-family="Helvetica,sans-Serif" font-size="10.00">_ptr.hpp</text>
</a>
</g>
</g>
<!-- Node3&#45;&gt;Node10 -->
<g id="edge22" class="edge">
<title>Node3&#45;&gt;Node10</title>
<path fill="none" stroke="midnightblue" d="M254.36,-358.36C252.2,-333.59 250.97,-281.62 273,-246 287.98,-221.78 303.21,-227.07 326,-210 357.34,-186.53 367.42,-182.75 394,-154 410.81,-135.81 426.68,-112.42 437.38,-95.37"/>
<polygon fill="midnightblue" stroke="midnightblue" points="440.51,-96.97 442.77,-86.62 434.55,-93.3 440.51,-96.97"/>
</g>
<!-- Node16 -->
<g id="node16" class="node">
<title>Node16</title>
<g id="a_node16"><a xlink:href="inline_8hpp.html" target="_top" xlink:title=" ">
<polygon fill="none" stroke="black" points="303.5,-302.5 303.5,-321.5 428.5,-321.5 428.5,-302.5 303.5,-302.5"/>
<text text-anchor="middle" x="366" y="-309.5" font-family="Helvetica,sans-Serif" font-size="10.00">yaclib/executor/inline.hpp</text>
</a>
</g>
</g>
<!-- Node3&#45;&gt;Node16 -->
<g id="edge19" class="edge">
<title>Node3&#45;&gt;Node16</title>
<path fill="none" stroke="midnightblue" d="M282.07,-358.4C299.87,-348.77 323.31,-336.09 340.9,-326.58"/>
<polygon fill="midnightblue" stroke="midnightblue" points="342.86,-329.49 349.99,-321.66 339.53,-323.34 342.86,-329.49"/>
</g>
<!-- Node4&#45;&gt;Node5 -->
<g id="edge4" class="edge">
<title>Node4&#45;&gt;Node5</title>
<path fill="none" stroke="midnightblue" d="M335.74,-246.32C320.78,-237.82 297.75,-224.73 280.27,-214.8"/>
<polygon fill="midnightblue" stroke="midnightblue" points="281.65,-211.55 271.23,-209.65 278.19,-217.64 281.65,-211.55"/>
</g>
<!-- Node4&#45;&gt;Node10 -->
<g id="edge18" class="edge">
<title>Node4&#45;&gt;Node10</title>
<path fill="none" stroke="midnightblue" d="M364.33,-246.42C376.11,-238.27 393.07,-225.04 404,-210 429.24,-175.25 441.7,-125.91 447.21,-96.75"/>
<polygon fill="midnightblue" stroke="midnightblue" points="450.7,-97.09 448.99,-86.64 443.81,-95.88 450.7,-97.09"/>
</g>
<!-- Node6 -->
<g id="node6" class="node">
<title>Node6</title>
<g id="a_node6"><a xlink:href="func_8hpp.html" target="_top" xlink:title=" ">
<polygon fill="none" stroke="black" points="287.5,-129 287.5,-148 384.5,-148 384.5,-129 287.5,-129"/>
<text text-anchor="middle" x="336" y="-136" font-family="Helvetica,sans-Serif" font-size="10.00">yaclib/util/func.hpp</text>
</a>
</g>
</g>
<!-- Node5&#45;&gt;Node6 -->
<g id="edge5" class="edge">
<title>Node5&#45;&gt;Node6</title>
<path fill="none" stroke="midnightblue" d="M267.46,-190.48C280.17,-181.02 300.91,-165.6 316.25,-154.19"/>
<polygon fill="midnightblue" stroke="midnightblue" points="318.62,-156.79 324.56,-148.01 314.45,-151.17 318.62,-156.79"/>
</g>
<!-- Node15 -->
<g id="node15" class="node">
<title>Node15</title>
<g id="a_node15"><a xlink:href="intrusive__node_8hpp.html" target="_top" xlink:title=" ">
<polygon fill="none" stroke="black" points="172.5,-123.5 172.5,-153.5 269.5,-153.5 269.5,-123.5 172.5,-123.5"/>
<text text-anchor="start" x="180.5" y="-141.5" font-family="Helvetica,sans-Serif" font-size="10.00">yaclib/util/intrusive</text>
<text text-anchor="middle" x="221" y="-130.5" font-family="Helvetica,sans-Serif" font-size="10.00">_node.hpp</text>
</a>
</g>
</g>
<!-- Node5&#45;&gt;Node15 -->
<g id="edge17" class="edge">
<title>Node5&#45;&gt;Node15</title>
<path fill="none" stroke="midnightblue" d="M250.99,-190.48C246.64,-183.09 240.16,-172.08 234.34,-162.17"/>
<polygon fill="midnightblue" stroke="midnightblue" points="237.34,-160.37 229.25,-153.52 231.3,-163.92 237.34,-160.37"/>
</g>
<!-- Node6&#45;&gt;Node7 -->
<g id="edge6" class="edge">
<title>Node6&#45;&gt;Node7</title>
<path fill="none" stroke="midnightblue" d="M302.88,-128.93C295.06,-126.95 286.74,-124.87 279,-123 219.9,-108.73 151.66,-93.3 106.83,-83.3"/>
<polygon fill="midnightblue" stroke="midnightblue" points="107.31,-79.82 96.79,-81.06 105.79,-86.65 107.31,-79.82"/>
</g>
<!-- Node6&#45;&gt;Node10 -->
<g id="edge9" class="edge">
<title>Node6&#45;&gt;Node10</title>
<path fill="none" stroke="midnightblue" d="M351.51,-128.73C368.25,-119.27 395.42,-103.91 417.14,-91.64"/>
<polygon fill="midnightblue" stroke="midnightblue" points="419.09,-94.56 426.07,-86.59 415.65,-88.46 419.09,-94.56"/>
</g>
<!-- Node11 -->
<g id="node11" class="node">
<title>Node11</title>
<g id="a_node11"><a xlink:href="ref_8hpp.html" target="_top" xlink:title=" ">
<polygon fill="none" stroke="black" points="487.5,-0.5 487.5,-19.5 576.5,-19.5 576.5,-0.5 487.5,-0.5"/>
<text text-anchor="middle" x="532" y="-7.5" font-family="Helvetica,sans-Serif" font-size="10.00">yaclib/util/ref.hpp</text>
</a>
</g>
</g>
<!-- Node6&#45;&gt;Node11 -->
<g id="edge14" class="edge">
<title>Node6&#45;&gt;Node11</title>
<path fill="none" stroke="midnightblue" d="M339.78,-128.99C347.54,-112.47 366.85,-75.95 394,-56 418.4,-38.07 450.29,-27.06 477.27,-20.42"/>
<polygon fill="midnightblue" stroke="midnightblue" points="478.4,-23.75 487.35,-18.08 476.81,-16.93 478.4,-23.75"/>
</g>
<!-- Node13 -->
<g id="node13" class="node">
<title>Node13</title>
<g id="a_node13"><a xlink:title=" ">
<polygon fill="none" stroke="#bfbfbf" points="608,-0.5 608,-19.5 670,-19.5 670,-0.5 608,-0.5"/>
<text text-anchor="middle" x="639" y="-7.5" font-family="Helvetica,sans-Serif" font-size="10.00">type_traits</text>
</a>
</g>
</g>
<!-- Node6&#45;&gt;Node13 -->
<g id="edge15" class="edge">
<title>Node6&#45;&gt;Node13</title>
<path fill="none" stroke="midnightblue" d="M375.08,-128.99C410.78,-120.55 464.6,-106.11 509,-87 549.63,-69.51 593.35,-41.93 618.32,-25.25"/>
<polygon fill="midnightblue" stroke="midnightblue" points="620.3,-28.13 626.63,-19.63 616.39,-22.33 620.3,-28.13"/>
</g>
<!-- Node14 -->
<g id="node14" class="node">
<title>Node14</title>
<g id="a_node14"><a xlink:title=" ">
<polygon fill="none" stroke="#bfbfbf" points="336.5,-0.5 336.5,-19.5 375.5,-19.5 375.5,-0.5 336.5,-0.5"/>
<text text-anchor="middle" x="356" y="-7.5" font-family="Helvetica,sans-Serif" font-size="10.00">utility</text>
</a>
</g>
</g>
<!-- Node6&#45;&gt;Node14 -->
<g id="edge16" class="edge">
<title>Node6&#45;&gt;Node14</title>
<path fill="none" stroke="midnightblue" d="M337.37,-128.81C340.59,-108.49 348.64,-57.55 353.03,-29.78"/>
<polygon fill="midnightblue" stroke="midnightblue" points="356.51,-30.18 354.62,-19.76 349.6,-29.09 356.51,-30.18"/>
</g>
<!-- Node8 -->
<g id="node8" class="node">
<title>Node8</title>
<g id="a_node8"><a xlink:title=" ">
<polygon fill="none" stroke="#bfbfbf" points="14,-0.5 14,-19.5 102,-19.5 102,-0.5 14,-0.5"/>
<text text-anchor="middle" x="58" y="-7.5" font-family="Helvetica,sans-Serif" font-size="10.00">yaclib/config.hpp</text>
</a>
</g>
</g>
<!-- Node7&#45;&gt;Node8 -->
<g id="edge7" class="edge">
<title>Node7&#45;&gt;Node8</title>
<path fill="none" stroke="midnightblue" d="M58,-61.98C58,-53.58 58,-40.48 58,-29.66"/>
<polygon fill="midnightblue" stroke="midnightblue" points="61.5,-29.51 58,-19.51 54.5,-29.51 61.5,-29.51"/>
</g>
<!-- Node7&#45;&gt;Node9 -->
<g id="edge8" class="edge">
<title>Node7&#45;&gt;Node9</title>
<path fill="none" stroke="midnightblue" d="M70.32,-61.98C84.12,-52.43 106.7,-36.81 123.23,-25.37"/>
<polygon fill="midnightblue" stroke="midnightblue" points="125.47,-28.08 131.7,-19.51 121.49,-22.32 125.47,-28.08"/>
</g>
<!-- Node10&#45;&gt;Node11 -->
<g id="edge10" class="edge">
<title>Node10&#45;&gt;Node11</title>
<path fill="none" stroke="midnightblue" d="M470.2,-56.4C482.82,-47.13 499.29,-35.03 512.06,-25.65"/>
<polygon fill="midnightblue" stroke="midnightblue" points="514.23,-28.4 520.21,-19.66 510.08,-22.76 514.23,-28.4"/>
</g>
<!-- Node12 -->
<g id="node12" class="node">
<title>Node12</title>
<g id="a_node12"><a xlink:title=" ">
<polygon fill="none" stroke="#bfbfbf" points="414,-0.5 414,-19.5 470,-19.5 470,-0.5 414,-0.5"/>
<text text-anchor="middle" x="442" y="-7.5" font-family="Helvetica,sans-Serif" font-size="10.00">algorithm</text>
</a>
</g>
</g>
<!-- Node10&#45;&gt;Node12 -->
<g id="edge11" class="edge">
<title>Node10&#45;&gt;Node12</title>
<path fill="none" stroke="midnightblue" d="M448.87,-56.4C447.65,-48.38 446.12,-38.23 444.81,-29.57"/>
<polygon fill="midnightblue" stroke="midnightblue" points="448.27,-29.02 443.31,-19.66 441.34,-30.07 448.27,-29.02"/>
</g>
<!-- Node10&#45;&gt;Node13 -->
<g id="edge12" class="edge">
<title>Node10&#45;&gt;Node13</title>
<path fill="none" stroke="midnightblue" d="M495.55,-56.4C528.04,-46.12 571.54,-32.35 602.09,-22.68"/>
<polygon fill="midnightblue" stroke="midnightblue" points="603.44,-25.93 611.92,-19.57 601.33,-19.25 603.44,-25.93"/>
</g>
<!-- Node10&#45;&gt;Node14 -->
<g id="edge13" class="edge">
<title>Node10&#45;&gt;Node14</title>
<path fill="none" stroke="midnightblue" d="M428.49,-56.4C413.4,-46.95 393.61,-34.56 378.53,-25.11"/>
<polygon fill="midnightblue" stroke="midnightblue" points="380.16,-22 369.82,-19.66 376.44,-27.93 380.16,-22"/>
</g>
<!-- Node16&#45;&gt;Node4 -->
<g id="edge20" class="edge">
<title>Node16&#45;&gt;Node4</title>
<path fill="none" stroke="midnightblue" d="M363.52,-302.08C361.51,-294.85 358.61,-284.41 356.11,-275.4"/>
<polygon fill="midnightblue" stroke="midnightblue" points="359.48,-274.45 353.43,-265.75 352.74,-276.32 359.48,-274.45"/>
</g>
<!-- Node17&#45;&gt;Node11 -->
<g id="edge25" class="edge">
<title>Node17&#45;&gt;Node11</title>
<path fill="none" stroke="midnightblue" d="M566.67,-358.46C584.03,-350.65 602.01,-338.97 612,-322 671.39,-221.12 579.54,-76.51 544.59,-27.77"/>
<polygon fill="midnightblue" stroke="midnightblue" points="547.33,-25.58 538.6,-19.57 541.68,-29.71 547.33,-25.58"/>
</g>
<!-- Node18 -->
<g id="node18" class="node">
<title>Node18</title>
<g id="a_node18"><a xlink:title=" ">
<polygon fill="none" stroke="#bfbfbf" points="446.5,-302.5 446.5,-321.5 541.5,-321.5 541.5,-302.5 446.5,-302.5"/>
<text text-anchor="middle" x="494" y="-309.5" font-family="Helvetica,sans-Serif" font-size="10.00">condition_variable</text>
</a>
</g>
</g>
<!-- Node17&#45;&gt;Node18 -->
<g id="edge26" class="edge">
<title>Node17&#45;&gt;Node18</title>
<path fill="none" stroke="midnightblue" d="M514.6,-358.4C510.88,-350.2 506.15,-339.78 502.17,-330.99"/>
<polygon fill="midnightblue" stroke="midnightblue" points="505.25,-329.32 497.93,-321.66 498.87,-332.21 505.25,-329.32"/>
</g>
<!-- Node19 -->
<g id="node19" class="node">
<title>Node19</title>
<g id="a_node19"><a xlink:title=" ">
<polygon fill="none" stroke="#bfbfbf" points="559.5,-302.5 559.5,-321.5 602.5,-321.5 602.5,-302.5 559.5,-302.5"/>
<text text-anchor="middle" x="581" y="-309.5" font-family="Helvetica,sans-Serif" font-size="10.00">mutex</text>
</a>
</g>
</g>
<!-- Node17&#45;&gt;Node19 -->
<g id="edge27" class="edge">
<title>Node17&#45;&gt;Node19</title>
<path fill="none" stroke="midnightblue" d="M535.22,-358.4C544.21,-349.49 555.84,-337.95 565.13,-328.74"/>
<polygon fill="midnightblue" stroke="midnightblue" points="567.63,-331.18 572.27,-321.66 562.7,-326.21 567.63,-331.18"/>
</g>
<!-- Node20&#45;&gt;Node13 -->
<g id="edge32" class="edge">
<title>Node20&#45;&gt;Node13</title>
<path fill="none" stroke="midnightblue" d="M699.71,-363.96C692.71,-345.01 677,-297.9 677,-257 677,-257 677,-257 677,-137.5 677,-97.35 659.22,-52.95 647.99,-28.89"/>
<polygon fill="midnightblue" stroke="midnightblue" points="651.01,-27.1 643.51,-19.63 644.71,-30.15 651.01,-27.1"/>
</g>
<!-- Node21 -->
<g id="node21" class="node">
<title>Node21</title>
<g id="a_node21"><a xlink:title=" ">
<polygon fill="none" stroke="#bfbfbf" points="705.5,-302.5 705.5,-321.5 754.5,-321.5 754.5,-302.5 705.5,-302.5"/>
<text text-anchor="middle" x="730" y="-309.5" font-family="Helvetica,sans-Serif" font-size="10.00">cassert</text>
</a>
</g>
</g>
<!-- Node20&#45;&gt;Node21 -->
<g id="edge30" class="edge">
<title>Node20&#45;&gt;Node21</title>
<path fill="none" stroke="midnightblue" d="M706.87,-363.98C710.8,-355.32 717,-341.65 721.99,-330.65"/>
<polygon fill="midnightblue" stroke="midnightblue" points="725.19,-332.06 726.14,-321.51 718.82,-329.17 725.19,-332.06"/>
</g>
<!-- Node22 -->
<g id="node22" class="node">
<title>Node22</title>
<g id="a_node22"><a xlink:title=" ">
<polygon fill="none" stroke="#bfbfbf" points="773,-302.5 773,-321.5 831,-321.5 831,-302.5 773,-302.5"/>
<text text-anchor="middle" x="802" y="-309.5" font-family="Helvetica,sans-Serif" font-size="10.00">exception</text>
</a>
</g>
</g>
<!-- Node20&#45;&gt;Node22 -->
<g id="edge31" class="edge">
<title>Node20&#45;&gt;Node22</title>
<path fill="none" stroke="midnightblue" d="M717.18,-363.98C733.36,-354.25 760.03,-338.23 779.14,-326.74"/>
<polygon fill="midnightblue" stroke="midnightblue" points="781.07,-329.66 787.84,-321.51 777.47,-323.66 781.07,-329.66"/>
</g>
</g>
</svg>
        <g id="navigator" transform="translate(0 0)" fill="#404254">
                <rect fill="#f2f5e9" fill-opacity="0.5" stroke="#606060" stroke-width=".5" x="0" y="0" width="60" height="60"/>
                <use id="zoomplus" xlink:href="#zoomPlus" x="17" y="9" onmousedown="handleZoom(evt,'in')"/>
                <use id="zoomminus" xlink:href="#zoomMin" x="42" y="9" onmousedown="handleZoom(evt,'out')"/>
                <use id="reset" xlink:href="#resetDef" x="30" y="36" onmousedown="handleReset()"/>
                <g id="arrowUp" xlink:href="#dirArrow" transform="translate(30 24)" onmousedown="handlePan(0,-1)">
                  <use xlink:href="#rim" fill="#404040">
                        <set attributeName="fill" to="#808080" begin="arrowUp.mouseover" end="arrowUp.mouseout"/>
                  </use>
                  <path fill="none" stroke="white" stroke-width="1.5" d="M0,-3.0v7 M-2.5,-0.5L0,-3.0L2.5,-0.5"/>
                </g>
                <g id="arrowRight" xlink:href="#dirArrow" transform="rotate(90) translate(36 -43)" onmousedown="handlePan(1,0)">
                  <use xlink:href="#rim" fill="#404040">
                        <set attributeName="fill" to="#808080" begin="arrowRight.mouseover" end="arrowRight.mouseout"/>
                  </use>
                  <path fill="none" stroke="white" stroke-width="1.5" d="M0,-3.0v7 M-2.5,-0.5L0,-3.0L2.5,-0.5"/>
                </g>
                <g id="arrowDown" xlink:href="#dirArrow" transform="rotate(180) translate(-30 -48)" onmousedown="handlePan(0,1)">
                  <use xlink:href="#rim" fill="#404040">
                        <set attributeName="fill" to="#808080" begin="arrowDown.mouseover" end="arrowDown.mouseout"/>
                  </use>
                  <path fill="none" stroke="white" stroke-width="1.5" d="M0,-3.0v7 M-2.5,-0.5L0,-3.0L2.5,-0.5"/>
                </g>
                <g id="arrowLeft" xlink:href="#dirArrow" transform="rotate(270) translate(-36 17)" onmousedown="handlePan(-1,0)">
                  <use xlink:href="#rim" fill="#404040">
                        <set attributeName="fill" to="#808080" begin="arrowLeft.mouseover" end="arrowLeft.mouseout"/>
                  </use>
                  <path fill="none" stroke="white" stroke-width="1.5" d="M0,-3.0v7 M-2.5,-0.5L0,-3.0L2.5,-0.5"/>
                </g>
        </g>
        <svg viewBox="0 0 15 15" width="100%" height="30px" preserveAspectRatio="xMaxYMin meet">
         <g id="arrow_out" transform="scale(0.3 0.3)">
          <a xlink:href="wait_8hpp__incl_org.svg" target="_base">
           <rect id="button" ry="5" rx="5" y="6" x="6" height="38" width="38"
                fill="#f2f5e9" fill-opacity="0.5" stroke="#606060" stroke-width="1.0"/>
           <path id="arrow"
             d="M 11.500037,31.436501 C 11.940474,20.09759 22.043105,11.32322 32.158766,21.979434 L 37.068811,17.246167 C 37.068811,17.246167 37.088388,32 37.088388,32 L 22.160133,31.978069 C 22.160133,31.978069 26.997745,27.140456 26.997745,27.140456 C 18.528582,18.264221 13.291696,25.230495 11.500037,31.436501 z"
             style="fill:#404040;"/>
          </a>
         </g>
        </svg>
</svg>
