<?xml version="1.0" encoding="UTF-8" standalone="no"?>
<!DOCTYPE svg PUBLIC "-//W3C//DTD SVG 1.1//EN"
 "http://www.w3.org/Graphics/SVG/1.1/DTD/svg11.dtd">
<!-- Generated by graphviz version 2.44.0 ()
 -->
<!-- Title: include/yaclib/algo/wait.hpp Pages: 1 -->
<svg width="499pt" height="374pt"
 viewBox="0.00 0.00 499.00 374.00" xmlns="http://www.w3.org/2000/svg" xmlns:xlink="http://www.w3.org/1999/xlink">
<g id="graph0" class="graph" transform="scale(1 1) rotate(0) translate(4 370)">
<title>include/yaclib/algo/wait.hpp</title>
<!-- Node1 -->
<g id="node1" class="node">
<title>Node1</title>
<g id="a_node1"><a xlink:title=" ">
<polygon fill="#bfbfbf" stroke="black" points="232.5,-335.5 232.5,-365.5 328.5,-365.5 328.5,-335.5 232.5,-335.5"/>
<text text-anchor="start" x="240.5" y="-353.5" font-family="Helvetica,sans-Serif" font-size="10.00">include/yaclib/algo</text>
<text text-anchor="middle" x="280.5" y="-342.5" font-family="Helvetica,sans-Serif" font-size="10.00">/wait.hpp</text>
</a>
</g>
</g>
<!-- Node2 -->
<g id="node2" class="node">
<title>Node2</title>
<g id="a_node2"><a xlink:href="future__impl_8hpp.html" target="_top" xlink:title=" ">
<polygon fill="none" stroke="black" points="224.5,-268.5 224.5,-298.5 336.5,-298.5 336.5,-268.5 224.5,-268.5"/>
<text text-anchor="start" x="232.5" y="-286.5" font-family="Helvetica,sans-Serif" font-size="10.00">include/yaclib/async</text>
<text text-anchor="middle" x="280.5" y="-275.5" font-family="Helvetica,sans-Serif" font-size="10.00">/detail/future_impl.hpp</text>
</a>
</g>
</g>
<!-- Node1&#45;&gt;Node2 -->
<g id="edge1" class="edge">
<title>Node1&#45;&gt;Node2</title>
<path fill="none" stroke="midnightblue" d="M280.5,-325.11C280.5,-316.15 280.5,-306.32 280.5,-298.58"/>
<polygon fill="midnightblue" stroke="midnightblue" points="277,-325.4 280.5,-335.4 284,-325.4 277,-325.4"/>
</g>
<!-- Node3 -->
<g id="node3" class="node">
<title>Node3</title>
<g id="a_node3"><a xlink:href="future_8hpp.html" target="_top" xlink:title=" ">
<polygon fill="none" stroke="black" points="188.5,-201.5 188.5,-231.5 292.5,-231.5 292.5,-201.5 188.5,-201.5"/>
<text text-anchor="start" x="196.5" y="-219.5" font-family="Helvetica,sans-Serif" font-size="10.00">include/yaclib/async</text>
<text text-anchor="middle" x="240.5" y="-208.5" font-family="Helvetica,sans-Serif" font-size="10.00">/future.hpp</text>
</a>
</g>
</g>
<!-- Node2&#45;&gt;Node3 -->
<g id="edge2" class="edge">
<title>Node2&#45;&gt;Node3</title>
<path fill="none" stroke="midnightblue" d="M266.57,-259.87C260.78,-250.46 254.24,-239.83 249.16,-231.58"/>
<polygon fill="midnightblue" stroke="midnightblue" points="263.6,-261.71 271.82,-268.4 269.56,-258.05 263.6,-261.71"/>
</g>
<!-- Node8 -->
<g id="node8" class="node">
<title>Node8</title>
<g id="a_node8"><a xlink:href="promise_8hpp.html" target="_top" xlink:title=" ">
<polygon fill="none" stroke="black" points="268.5,-134.5 268.5,-164.5 372.5,-164.5 372.5,-134.5 268.5,-134.5"/>
<text text-anchor="start" x="276.5" y="-152.5" font-family="Helvetica,sans-Serif" font-size="10.00">include/yaclib/async</text>
<text text-anchor="middle" x="320.5" y="-141.5" font-family="Helvetica,sans-Serif" font-size="10.00">/promise.hpp</text>
</a>
</g>
</g>
<!-- Node2&#45;&gt;Node8 -->
<g id="edge17" class="edge">
<title>Node2&#45;&gt;Node8</title>
<path fill="none" stroke="midnightblue" d="M291.24,-258.96C294.81,-250.56 298.61,-240.96 301.5,-232 308.98,-208.77 314.83,-180.93 317.96,-164.53"/>
<polygon fill="midnightblue" stroke="midnightblue" points="288.02,-257.59 287.21,-268.15 294.43,-260.4 288.02,-257.59"/>
</g>
<!-- Node4 -->
<g id="node4" class="node">
<title>Node4</title>
<g id="a_node4"><a xlink:href="when__any_8hpp.html" target="_top" xlink:title=" ">
<polygon fill="none" stroke="black" points="2.5,-67.5 2.5,-97.5 98.5,-97.5 98.5,-67.5 2.5,-67.5"/>
<text text-anchor="start" x="10.5" y="-85.5" font-family="Helvetica,sans-Serif" font-size="10.00">include/yaclib/algo</text>
<text text-anchor="middle" x="50.5" y="-74.5" font-family="Helvetica,sans-Serif" font-size="10.00">/when_any.hpp</text>
</a>
</g>
</g>
<!-- Node3&#45;&gt;Node4 -->
<g id="edge3" class="edge">
<title>Node3&#45;&gt;Node4</title>
<path fill="none" stroke="midnightblue" d="M178.26,-208.41C125.18,-200.93 54.78,-187.11 37.5,-165 22.32,-145.58 33.41,-115.47 42.32,-97.79"/>
<polygon fill="midnightblue" stroke="midnightblue" points="177.91,-211.89 188.29,-209.78 178.85,-204.96 177.91,-211.89"/>
</g>
<!-- Node6 -->
<g id="node6" class="node">
<title>Node6</title>
<g id="a_node6"><a xlink:href="when__all_8hpp.html" target="_top" xlink:title=" ">
<polygon fill="none" stroke="black" points="239.5,-67.5 239.5,-97.5 335.5,-97.5 335.5,-67.5 239.5,-67.5"/>
<text text-anchor="start" x="247.5" y="-85.5" font-family="Helvetica,sans-Serif" font-size="10.00">include/yaclib/algo</text>
<text text-anchor="middle" x="287.5" y="-74.5" font-family="Helvetica,sans-Serif" font-size="10.00">/when_all.hpp</text>
</a>
</g>
</g>
<!-- Node3&#45;&gt;Node6 -->
<g id="edge5" class="edge">
<title>Node3&#45;&gt;Node6</title>
<path fill="none" stroke="midnightblue" d="M244.31,-191.37C247.35,-174.87 252.3,-152.68 259.5,-134 264.47,-121.09 272.22,-107.42 278.31,-97.57"/>
<polygon fill="midnightblue" stroke="midnightblue" points="240.85,-190.85 242.58,-201.3 247.74,-192.05 240.85,-190.85"/>
</g>
<!-- Node3&#45;&gt;Node8 -->
<g id="edge7" class="edge">
<title>Node3&#45;&gt;Node8</title>
<path fill="none" stroke="midnightblue" d="M259.87,-194.6C271.25,-184.78 285.56,-173.34 297.5,-164.58"/>
<polygon fill="midnightblue" stroke="midnightblue" points="257.36,-192.15 252.18,-201.4 261.99,-197.4 257.36,-192.15"/>
</g>
<!-- Node10 -->
<g id="node10" class="node">
<title>Node10</title>
<g id="a_node10"><a xlink:href="run_8hpp.html" target="_top" xlink:title=" ">
<polygon fill="none" stroke="black" points="117.5,-67.5 117.5,-97.5 221.5,-97.5 221.5,-67.5 117.5,-67.5"/>
<text text-anchor="start" x="125.5" y="-85.5" font-family="Helvetica,sans-Serif" font-size="10.00">include/yaclib/async</text>
<text text-anchor="middle" x="169.5" y="-74.5" font-family="Helvetica,sans-Serif" font-size="10.00">/run.hpp</text>
</a>
</g>
</g>
<!-- Node3&#45;&gt;Node10 -->
<g id="edge12" class="edge">
<title>Node3&#45;&gt;Node10</title>
<path fill="none" stroke="midnightblue" d="M228.12,-192.48C213.38,-165.07 189.23,-120.19 177.04,-97.52"/>
<polygon fill="midnightblue" stroke="midnightblue" points="225.08,-194.22 232.9,-201.37 231.25,-190.91 225.08,-194.22"/>
</g>
<!-- Node12 -->
<g id="node12" class="node">
<title>Node12</title>
<g id="a_node12"><a xlink:href="future__impl_8cpp.html" target="_top" xlink:title=" ">
<polygon fill="none" stroke="black" points="46.5,-140 46.5,-159 174.5,-159 174.5,-140 46.5,-140"/>
<text text-anchor="middle" x="110.5" y="-147" font-family="Helvetica,sans-Serif" font-size="10.00">src/async/future_impl.cpp</text>
</a>
</g>
</g>
<!-- Node3&#45;&gt;Node12 -->
<g id="edge16" class="edge">
<title>Node3&#45;&gt;Node12</title>
<path fill="none" stroke="midnightblue" d="M203.11,-196.8C178.18,-184.34 146.61,-168.56 127.51,-159.01"/>
<polygon fill="midnightblue" stroke="midnightblue" points="201.78,-200.05 212.29,-201.4 204.91,-193.79 201.78,-200.05"/>
</g>
<!-- Node5 -->
<g id="node5" class="node">
<title>Node5</title>
<g id="a_node5"><a xlink:href="when__any_8cpp.html" target="_top" xlink:title=" ">
<polygon fill="none" stroke="black" points="0,-0.5 0,-30.5 101,-30.5 101,-0.5 0,-0.5"/>
<text text-anchor="start" x="8" y="-18.5" font-family="Helvetica,sans-Serif" font-size="10.00">test/example/async</text>
<text text-anchor="middle" x="50.5" y="-7.5" font-family="Helvetica,sans-Serif" font-size="10.00">/when_any.cpp</text>
</a>
</g>
</g>
<!-- Node4&#45;&gt;Node5 -->
<g id="edge4" class="edge">
<title>Node4&#45;&gt;Node5</title>
<path fill="none" stroke="midnightblue" d="M50.5,-57.11C50.5,-48.15 50.5,-38.32 50.5,-30.58"/>
<polygon fill="midnightblue" stroke="midnightblue" points="47,-57.4 50.5,-67.4 54,-57.4 47,-57.4"/>
</g>
<!-- Node7 -->
<g id="node7" class="node">
<title>Node7</title>
<g id="a_node7"><a xlink:href="when__all_8cpp.html" target="_top" xlink:title=" ">
<polygon fill="none" stroke="black" points="238,-0.5 238,-30.5 339,-30.5 339,-0.5 238,-0.5"/>
<text text-anchor="start" x="246" y="-18.5" font-family="Helvetica,sans-Serif" font-size="10.00">test/example/async</text>
<text text-anchor="middle" x="288.5" y="-7.5" font-family="Helvetica,sans-Serif" font-size="10.00">/when_all.cpp</text>
</a>
</g>
</g>
<!-- Node6&#45;&gt;Node7 -->
<g id="edge6" class="edge">
<title>Node6&#45;&gt;Node7</title>
<path fill="none" stroke="midnightblue" d="M287.88,-57.11C288.01,-48.15 288.16,-38.32 288.28,-30.58"/>
<polygon fill="midnightblue" stroke="midnightblue" points="284.37,-57.34 287.72,-67.4 291.37,-57.45 284.37,-57.34"/>
</g>
<!-- Node8&#45;&gt;Node3 -->
<g id="edge10" class="edge">
<title>Node8&#45;&gt;Node3</title>
<path fill="none" stroke="midnightblue" d="M301.16,-171.37C289.79,-181.18 275.49,-192.62 263.54,-201.4"/>
<polygon fill="midnightblue" stroke="midnightblue" points="303.68,-173.82 308.85,-164.58 299.04,-168.58 303.68,-173.82"/>
</g>
<!-- Node8&#45;&gt;Node4 -->
<g id="edge8" class="edge">
<title>Node8&#45;&gt;Node4</title>
<path fill="none" stroke="midnightblue" d="M258.32,-133.88C216.04,-123.89 158.86,-110.29 108.5,-98 105.27,-97.21 101.95,-96.4 98.6,-95.57"/>
<polygon fill="midnightblue" stroke="midnightblue" points="257.65,-137.32 268.19,-136.21 259.26,-130.51 257.65,-137.32"/>
</g>
<!-- Node8&#45;&gt;Node6 -->
<g id="edge9" class="edge">
<title>Node8&#45;&gt;Node6</title>
<path fill="none" stroke="midnightblue" d="M308.71,-125.28C304.01,-116.02 298.75,-105.66 294.65,-97.58"/>
<polygon fill="midnightblue" stroke="midnightblue" points="305.69,-127.06 313.34,-134.4 311.93,-123.89 305.69,-127.06"/>
</g>
<!-- Node9 -->
<g id="node9" class="node">
<title>Node9</title>
<g id="a_node9"><a xlink:href="promise__impl_8cpp.html" target="_top" xlink:title=" ">
<polygon fill="none" stroke="black" points="354,-73 354,-92 491,-92 491,-73 354,-73"/>
<text text-anchor="middle" x="422.5" y="-80" font-family="Helvetica,sans-Serif" font-size="10.00">src/async/promise_impl.cpp</text>
</a>
</g>
</g>
<!-- Node8&#45;&gt;Node9 -->
<g id="edge11" class="edge">
<title>Node8&#45;&gt;Node9</title>
<path fill="none" stroke="midnightblue" d="M351.14,-128.97C370.48,-116.65 394.5,-101.35 409.15,-92.01"/>
<polygon fill="midnightblue" stroke="midnightblue" points="349.18,-126.07 342.63,-134.4 352.95,-131.97 349.18,-126.07"/>
</g>
<!-- Node10&#45;&gt;Node5 -->
<g id="edge15" class="edge">
<title>Node10&#45;&gt;Node5</title>
<path fill="none" stroke="midnightblue" d="M134.85,-62.57C116.13,-52.35 93.41,-39.94 76.27,-30.58"/>
<polygon fill="midnightblue" stroke="midnightblue" points="133.22,-65.67 143.68,-67.4 136.58,-59.53 133.22,-65.67"/>
</g>
<!-- Node10&#45;&gt;Node7 -->
<g id="edge13" class="edge">
<title>Node10&#45;&gt;Node7</title>
<path fill="none" stroke="midnightblue" d="M204.15,-62.57C222.87,-52.35 245.59,-39.94 262.73,-30.58"/>
<polygon fill="midnightblue" stroke="midnightblue" points="202.42,-59.53 195.32,-67.4 205.78,-65.67 202.42,-59.53"/>
</g>
<!-- Node11 -->
<g id="node11" class="node">
<title>Node11</title>
<g id="a_node11"><a xlink:href="simple_8cpp.html" target="_top" xlink:title=" ">
<polygon fill="none" stroke="black" points="119,-0.5 119,-30.5 220,-30.5 220,-0.5 119,-0.5"/>
<text text-anchor="start" x="127" y="-18.5" font-family="Helvetica,sans-Serif" font-size="10.00">test/example/async</text>
<text text-anchor="middle" x="169.5" y="-7.5" font-family="Helvetica,sans-Serif" font-size="10.00">/simple.cpp</text>
</a>
</g>
</g>
<!-- Node10&#45;&gt;Node11 -->
<g id="edge14" class="edge">
<title>Node10&#45;&gt;Node11</title>
<path fill="none" stroke="midnightblue" d="M169.5,-57.11C169.5,-48.15 169.5,-38.32 169.5,-30.58"/>
<polygon fill="midnightblue" stroke="midnightblue" points="166,-57.4 169.5,-67.4 173,-57.4 166,-57.4"/>
</g>
</g>
</svg>
