<?xml version="1.0" encoding="UTF-8" standalone="no"?>
<!DOCTYPE svg PUBLIC "-//W3C//DTD SVG 1.1//EN"
 "http://www.w3.org/Graphics/SVG/1.1/DTD/svg11.dtd">
<!-- Generated by graphviz version 2.44.0 ()
 -->
<!-- Title: include/yaclib/async/detail/wait_core.hpp Pages: 1 -->
<svg width="601pt" height="508pt"
 viewBox="0.00 0.00 600.50 508.00" xmlns="http://www.w3.org/2000/svg" xmlns:xlink="http://www.w3.org/1999/xlink">
<g id="graph0" class="graph" transform="scale(1 1) rotate(0) translate(4 504)">
<title>include/yaclib/async/detail/wait_core.hpp</title>
<!-- Node1 -->
<g id="node1" class="node">
<title>Node1</title>
<g id="a_node1"><a xlink:title=" ">
<polygon fill="#bfbfbf" stroke="black" points="263.5,-469.5 263.5,-499.5 369.5,-499.5 369.5,-469.5 263.5,-469.5"/>
<text text-anchor="start" x="271.5" y="-487.5" font-family="Helvetica,sans-Serif" font-size="10.00">include/yaclib/async</text>
<text text-anchor="middle" x="316.5" y="-476.5" font-family="Helvetica,sans-Serif" font-size="10.00">/detail/wait_core.hpp</text>
</a>
</g>
</g>
<!-- Node2 -->
<g id="node2" class="node">
<title>Node2</title>
<g id="a_node2"><a xlink:href="wait__group_8hpp.html" target="_top" xlink:title=" ">
<polygon fill="none" stroke="black" points="80.5,-402.5 80.5,-432.5 176.5,-432.5 176.5,-402.5 80.5,-402.5"/>
<text text-anchor="start" x="88.5" y="-420.5" font-family="Helvetica,sans-Serif" font-size="10.00">include/yaclib/algo</text>
<text text-anchor="middle" x="128.5" y="-409.5" font-family="Helvetica,sans-Serif" font-size="10.00">/wait_group.hpp</text>
</a>
</g>
</g>
<!-- Node1&#45;&gt;Node2 -->
<g id="edge1" class="edge">
<title>Node1&#45;&gt;Node2</title>
<path fill="none" stroke="midnightblue" d="M266.15,-466.09C235.8,-455.6 197.65,-442.41 169.21,-432.58"/>
<polygon fill="midnightblue" stroke="midnightblue" points="265.11,-469.44 275.71,-469.4 267.4,-462.82 265.11,-469.44"/>
</g>
<!-- Node4 -->
<g id="node4" class="node">
<title>Node4</title>
<g id="a_node4"><a xlink:href="wait__impl_8hpp.html" target="_top" xlink:title=" ">
<polygon fill="none" stroke="black" points="264,-402.5 264,-432.5 369,-432.5 369,-402.5 264,-402.5"/>
<text text-anchor="start" x="272" y="-420.5" font-family="Helvetica,sans-Serif" font-size="10.00">include/yaclib/algo</text>
<text text-anchor="middle" x="316.5" y="-409.5" font-family="Helvetica,sans-Serif" font-size="10.00">/detail/wait_impl.hpp</text>
</a>
</g>
</g>
<!-- Node1&#45;&gt;Node4 -->
<g id="edge3" class="edge">
<title>Node1&#45;&gt;Node4</title>
<path fill="none" stroke="midnightblue" d="M316.5,-459.11C316.5,-450.15 316.5,-440.32 316.5,-432.58"/>
<polygon fill="midnightblue" stroke="midnightblue" points="313,-459.4 316.5,-469.4 320,-459.4 313,-459.4"/>
</g>
<!-- Node20 -->
<g id="node20" class="node">
<title>Node20</title>
<g id="a_node20"><a xlink:href="wait__core_8cpp.html" target="_top" xlink:title=" ">
<polygon fill="none" stroke="black" points="387.5,-408 387.5,-427 509.5,-427 509.5,-408 387.5,-408"/>
<text text-anchor="middle" x="448.5" y="-415" font-family="Helvetica,sans-Serif" font-size="10.00">src/async/wait_core.cpp</text>
</a>
</g>
</g>
<!-- Node1&#45;&gt;Node20 -->
<g id="edge25" class="edge">
<title>Node1&#45;&gt;Node20</title>
<path fill="none" stroke="midnightblue" d="M354.14,-464.97C379.49,-452.48 411.75,-436.6 431.22,-427.01"/>
<polygon fill="midnightblue" stroke="midnightblue" points="352.57,-461.84 345.14,-469.4 355.66,-468.12 352.57,-461.84"/>
</g>
<!-- Node3 -->
<g id="node3" class="node">
<title>Node3</title>
<g id="a_node3"><a xlink:href="wait__group_8cpp.html" target="_top" xlink:title=" ">
<polygon fill="none" stroke="black" points="0,-341 0,-360 119,-360 119,-341 0,-341"/>
<text text-anchor="middle" x="59.5" y="-348" font-family="Helvetica,sans-Serif" font-size="10.00">src/algo/wait_group.cpp</text>
</a>
</g>
</g>
<!-- Node2&#45;&gt;Node3 -->
<g id="edge2" class="edge">
<title>Node2&#45;&gt;Node3</title>
<path fill="none" stroke="midnightblue" d="M106.03,-395.34C93.36,-383.4 78.22,-369.14 68.73,-360.19"/>
<polygon fill="midnightblue" stroke="midnightblue" points="103.85,-398.09 113.53,-402.4 108.65,-392.99 103.85,-398.09"/>
</g>
<!-- Node5 -->
<g id="node5" class="node">
<title>Node5</title>
<g id="a_node5"><a xlink:href="wait_8hpp.html" target="_top" xlink:title=" ">
<polygon fill="none" stroke="black" points="268.5,-335.5 268.5,-365.5 364.5,-365.5 364.5,-335.5 268.5,-335.5"/>
<text text-anchor="start" x="276.5" y="-353.5" font-family="Helvetica,sans-Serif" font-size="10.00">include/yaclib/algo</text>
<text text-anchor="middle" x="316.5" y="-342.5" font-family="Helvetica,sans-Serif" font-size="10.00">/wait.hpp</text>
</a>
</g>
</g>
<!-- Node4&#45;&gt;Node5 -->
<g id="edge4" class="edge">
<title>Node4&#45;&gt;Node5</title>
<path fill="none" stroke="midnightblue" d="M316.5,-392.11C316.5,-383.15 316.5,-373.32 316.5,-365.58"/>
<polygon fill="midnightblue" stroke="midnightblue" points="313,-392.4 316.5,-402.4 320,-392.4 313,-392.4"/>
</g>
<!-- Node17 -->
<g id="node17" class="node">
<title>Node17</title>
<g id="a_node17"><a xlink:href="wait__for_8hpp.html" target="_top" xlink:title=" ">
<polygon fill="none" stroke="black" points="382.5,-335.5 382.5,-365.5 478.5,-365.5 478.5,-335.5 382.5,-335.5"/>
<text text-anchor="start" x="390.5" y="-353.5" font-family="Helvetica,sans-Serif" font-size="10.00">include/yaclib/algo</text>
<text text-anchor="middle" x="430.5" y="-342.5" font-family="Helvetica,sans-Serif" font-size="10.00">/wait_for.hpp</text>
</a>
</g>
</g>
<!-- Node4&#45;&gt;Node17 -->
<g id="edge22" class="edge">
<title>Node4&#45;&gt;Node17</title>
<path fill="none" stroke="midnightblue" d="M350.18,-397.3C368.02,-387.12 389.54,-374.85 405.81,-365.58"/>
<polygon fill="midnightblue" stroke="midnightblue" points="348.19,-394.4 341.24,-402.4 351.66,-400.48 348.19,-394.4"/>
</g>
<!-- Node18 -->
<g id="node18" class="node">
<title>Node18</title>
<g id="a_node18"><a xlink:href="wait__until_8hpp.html" target="_top" xlink:title=" ">
<polygon fill="none" stroke="black" points="496.5,-335.5 496.5,-365.5 592.5,-365.5 592.5,-335.5 496.5,-335.5"/>
<text text-anchor="start" x="504.5" y="-353.5" font-family="Helvetica,sans-Serif" font-size="10.00">include/yaclib/algo</text>
<text text-anchor="middle" x="544.5" y="-342.5" font-family="Helvetica,sans-Serif" font-size="10.00">/wait_until.hpp</text>
</a>
</g>
</g>
<!-- Node4&#45;&gt;Node18 -->
<g id="edge23" class="edge">
<title>Node4&#45;&gt;Node18</title>
<path fill="none" stroke="midnightblue" d="M375.48,-399.69C412.98,-388.99 460.94,-375.32 496.18,-365.28"/>
<polygon fill="midnightblue" stroke="midnightblue" points="374.35,-396.37 365.69,-402.48 376.27,-403.1 374.35,-396.37"/>
</g>
<!-- Node19 -->
<g id="node19" class="node">
<title>Node19</title>
<g id="a_node19"><a xlink:href="wait__impl_8cpp.html" target="_top" xlink:title=" ">
<polygon fill="none" stroke="black" points="137,-341 137,-360 250,-360 250,-341 137,-341"/>
<text text-anchor="middle" x="193.5" y="-348" font-family="Helvetica,sans-Serif" font-size="10.00">src/algo/wait_impl.cpp</text>
</a>
</g>
</g>
<!-- Node4&#45;&gt;Node19 -->
<g id="edge24" class="edge">
<title>Node4&#45;&gt;Node19</title>
<path fill="none" stroke="midnightblue" d="M280.81,-397.64C257.28,-385.2 227.59,-369.51 209.6,-360.01"/>
<polygon fill="midnightblue" stroke="midnightblue" points="279.33,-400.82 289.81,-402.4 282.6,-394.63 279.33,-400.82"/>
</g>
<!-- Node6 -->
<g id="node6" class="node">
<title>Node6</title>
<g id="a_node6"><a xlink:href="future__impl_8hpp.html" target="_top" xlink:title=" ">
<polygon fill="none" stroke="black" points="260.5,-268.5 260.5,-298.5 372.5,-298.5 372.5,-268.5 260.5,-268.5"/>
<text text-anchor="start" x="268.5" y="-286.5" font-family="Helvetica,sans-Serif" font-size="10.00">include/yaclib/async</text>
<text text-anchor="middle" x="316.5" y="-275.5" font-family="Helvetica,sans-Serif" font-size="10.00">/detail/future_impl.hpp</text>
</a>
</g>
</g>
<!-- Node5&#45;&gt;Node6 -->
<g id="edge5" class="edge">
<title>Node5&#45;&gt;Node6</title>
<path fill="none" stroke="midnightblue" d="M316.5,-325.11C316.5,-316.15 316.5,-306.32 316.5,-298.58"/>
<polygon fill="midnightblue" stroke="midnightblue" points="313,-325.4 316.5,-335.4 320,-325.4 313,-325.4"/>
</g>
<!-- Node7 -->
<g id="node7" class="node">
<title>Node7</title>
<g id="a_node7"><a xlink:href="future_8hpp.html" target="_top" xlink:title=" ">
<polygon fill="none" stroke="black" points="224.5,-201.5 224.5,-231.5 328.5,-231.5 328.5,-201.5 224.5,-201.5"/>
<text text-anchor="start" x="232.5" y="-219.5" font-family="Helvetica,sans-Serif" font-size="10.00">include/yaclib/async</text>
<text text-anchor="middle" x="276.5" y="-208.5" font-family="Helvetica,sans-Serif" font-size="10.00">/future.hpp</text>
</a>
</g>
</g>
<!-- Node6&#45;&gt;Node7 -->
<g id="edge6" class="edge">
<title>Node6&#45;&gt;Node7</title>
<path fill="none" stroke="midnightblue" d="M302.57,-259.87C296.78,-250.46 290.24,-239.83 285.16,-231.58"/>
<polygon fill="midnightblue" stroke="midnightblue" points="299.6,-261.71 307.82,-268.4 305.56,-258.05 299.6,-261.71"/>
</g>
<!-- Node12 -->
<g id="node12" class="node">
<title>Node12</title>
<g id="a_node12"><a xlink:href="promise_8hpp.html" target="_top" xlink:title=" ">
<polygon fill="none" stroke="black" points="304.5,-134.5 304.5,-164.5 408.5,-164.5 408.5,-134.5 304.5,-134.5"/>
<text text-anchor="start" x="312.5" y="-152.5" font-family="Helvetica,sans-Serif" font-size="10.00">include/yaclib/async</text>
<text text-anchor="middle" x="356.5" y="-141.5" font-family="Helvetica,sans-Serif" font-size="10.00">/promise.hpp</text>
</a>
</g>
</g>
<!-- Node6&#45;&gt;Node12 -->
<g id="edge21" class="edge">
<title>Node6&#45;&gt;Node12</title>
<path fill="none" stroke="midnightblue" d="M327.24,-258.96C330.81,-250.56 334.61,-240.96 337.5,-232 344.98,-208.77 350.83,-180.93 353.96,-164.53"/>
<polygon fill="midnightblue" stroke="midnightblue" points="324.02,-257.59 323.21,-268.15 330.43,-260.4 324.02,-257.59"/>
</g>
<!-- Node8 -->
<g id="node8" class="node">
<title>Node8</title>
<g id="a_node8"><a xlink:href="when__any_8hpp.html" target="_top" xlink:title=" ">
<polygon fill="none" stroke="black" points="38.5,-67.5 38.5,-97.5 134.5,-97.5 134.5,-67.5 38.5,-67.5"/>
<text text-anchor="start" x="46.5" y="-85.5" font-family="Helvetica,sans-Serif" font-size="10.00">include/yaclib/algo</text>
<text text-anchor="middle" x="86.5" y="-74.5" font-family="Helvetica,sans-Serif" font-size="10.00">/when_any.hpp</text>
</a>
</g>
</g>
<!-- Node7&#45;&gt;Node8 -->
<g id="edge7" class="edge">
<title>Node7&#45;&gt;Node8</title>
<path fill="none" stroke="midnightblue" d="M214.26,-208.41C161.18,-200.93 90.78,-187.11 73.5,-165 58.32,-145.58 69.41,-115.47 78.32,-97.79"/>
<polygon fill="midnightblue" stroke="midnightblue" points="213.91,-211.89 224.29,-209.78 214.85,-204.96 213.91,-211.89"/>
</g>
<!-- Node10 -->
<g id="node10" class="node">
<title>Node10</title>
<g id="a_node10"><a xlink:href="when__all_8hpp.html" target="_top" xlink:title=" ">
<polygon fill="none" stroke="black" points="275.5,-67.5 275.5,-97.5 371.5,-97.5 371.5,-67.5 275.5,-67.5"/>
<text text-anchor="start" x="283.5" y="-85.5" font-family="Helvetica,sans-Serif" font-size="10.00">include/yaclib/algo</text>
<text text-anchor="middle" x="323.5" y="-74.5" font-family="Helvetica,sans-Serif" font-size="10.00">/when_all.hpp</text>
</a>
</g>
</g>
<!-- Node7&#45;&gt;Node10 -->
<g id="edge9" class="edge">
<title>Node7&#45;&gt;Node10</title>
<path fill="none" stroke="midnightblue" d="M280.31,-191.37C283.35,-174.87 288.3,-152.68 295.5,-134 300.47,-121.09 308.22,-107.42 314.31,-97.57"/>
<polygon fill="midnightblue" stroke="midnightblue" points="276.85,-190.85 278.58,-201.3 283.74,-192.05 276.85,-190.85"/>
</g>
<!-- Node7&#45;&gt;Node12 -->
<g id="edge11" class="edge">
<title>Node7&#45;&gt;Node12</title>
<path fill="none" stroke="midnightblue" d="M295.87,-194.6C307.25,-184.78 321.56,-173.34 333.5,-164.58"/>
<polygon fill="midnightblue" stroke="midnightblue" points="293.36,-192.15 288.18,-201.4 297.99,-197.4 293.36,-192.15"/>
</g>
<!-- Node14 -->
<g id="node14" class="node">
<title>Node14</title>
<g id="a_node14"><a xlink:href="run_8hpp.html" target="_top" xlink:title=" ">
<polygon fill="none" stroke="black" points="153.5,-67.5 153.5,-97.5 257.5,-97.5 257.5,-67.5 153.5,-67.5"/>
<text text-anchor="start" x="161.5" y="-85.5" font-family="Helvetica,sans-Serif" font-size="10.00">include/yaclib/async</text>
<text text-anchor="middle" x="205.5" y="-74.5" font-family="Helvetica,sans-Serif" font-size="10.00">/run.hpp</text>
</a>
</g>
</g>
<!-- Node7&#45;&gt;Node14 -->
<g id="edge16" class="edge">
<title>Node7&#45;&gt;Node14</title>
<path fill="none" stroke="midnightblue" d="M264.12,-192.48C249.38,-165.07 225.23,-120.19 213.04,-97.52"/>
<polygon fill="midnightblue" stroke="midnightblue" points="261.08,-194.22 268.9,-201.37 267.25,-190.91 261.08,-194.22"/>
</g>
<!-- Node16 -->
<g id="node16" class="node">
<title>Node16</title>
<g id="a_node16"><a xlink:href="future__impl_8cpp.html" target="_top" xlink:title=" ">
<polygon fill="none" stroke="black" points="82.5,-140 82.5,-159 210.5,-159 210.5,-140 82.5,-140"/>
<text text-anchor="middle" x="146.5" y="-147" font-family="Helvetica,sans-Serif" font-size="10.00">src/async/future_impl.cpp</text>
</a>
</g>
</g>
<!-- Node7&#45;&gt;Node16 -->
<g id="edge20" class="edge">
<title>Node7&#45;&gt;Node16</title>
<path fill="none" stroke="midnightblue" d="M239.11,-196.8C214.18,-184.34 182.61,-168.56 163.51,-159.01"/>
<polygon fill="midnightblue" stroke="midnightblue" points="237.78,-200.05 248.29,-201.4 240.91,-193.79 237.78,-200.05"/>
</g>
<!-- Node9 -->
<g id="node9" class="node">
<title>Node9</title>
<g id="a_node9"><a xlink:href="when__any_8cpp.html" target="_top" xlink:title=" ">
<polygon fill="none" stroke="black" points="36,-0.5 36,-30.5 137,-30.5 137,-0.5 36,-0.5"/>
<text text-anchor="start" x="44" y="-18.5" font-family="Helvetica,sans-Serif" font-size="10.00">test/example/async</text>
<text text-anchor="middle" x="86.5" y="-7.5" font-family="Helvetica,sans-Serif" font-size="10.00">/when_any.cpp</text>
</a>
</g>
</g>
<!-- Node8&#45;&gt;Node9 -->
<g id="edge8" class="edge">
<title>Node8&#45;&gt;Node9</title>
<path fill="none" stroke="midnightblue" d="M86.5,-57.11C86.5,-48.15 86.5,-38.32 86.5,-30.58"/>
<polygon fill="midnightblue" stroke="midnightblue" points="83,-57.4 86.5,-67.4 90,-57.4 83,-57.4"/>
</g>
<!-- Node11 -->
<g id="node11" class="node">
<title>Node11</title>
<g id="a_node11"><a xlink:href="when__all_8cpp.html" target="_top" xlink:title=" ">
<polygon fill="none" stroke="black" points="274,-0.5 274,-30.5 375,-30.5 375,-0.5 274,-0.5"/>
<text text-anchor="start" x="282" y="-18.5" font-family="Helvetica,sans-Serif" font-size="10.00">test/example/async</text>
<text text-anchor="middle" x="324.5" y="-7.5" font-family="Helvetica,sans-Serif" font-size="10.00">/when_all.cpp</text>
</a>
</g>
</g>
<!-- Node10&#45;&gt;Node11 -->
<g id="edge10" class="edge">
<title>Node10&#45;&gt;Node11</title>
<path fill="none" stroke="midnightblue" d="M323.88,-57.11C324.01,-48.15 324.16,-38.32 324.28,-30.58"/>
<polygon fill="midnightblue" stroke="midnightblue" points="320.37,-57.34 323.72,-67.4 327.37,-57.45 320.37,-57.34"/>
</g>
<!-- Node12&#45;&gt;Node7 -->
<g id="edge14" class="edge">
<title>Node12&#45;&gt;Node7</title>
<path fill="none" stroke="midnightblue" d="M337.16,-171.37C325.79,-181.18 311.49,-192.62 299.54,-201.4"/>
<polygon fill="midnightblue" stroke="midnightblue" points="339.68,-173.82 344.85,-164.58 335.04,-168.58 339.68,-173.82"/>
</g>
<!-- Node12&#45;&gt;Node8 -->
<g id="edge12" class="edge">
<title>Node12&#45;&gt;Node8</title>
<path fill="none" stroke="midnightblue" d="M294.32,-133.88C252.04,-123.89 194.86,-110.29 144.5,-98 141.27,-97.21 137.95,-96.4 134.6,-95.57"/>
<polygon fill="midnightblue" stroke="midnightblue" points="293.65,-137.32 304.19,-136.21 295.26,-130.51 293.65,-137.32"/>
</g>
<!-- Node12&#45;&gt;Node10 -->
<g id="edge13" class="edge">
<title>Node12&#45;&gt;Node10</title>
<path fill="none" stroke="midnightblue" d="M344.71,-125.28C340.01,-116.02 334.75,-105.66 330.65,-97.58"/>
<polygon fill="midnightblue" stroke="midnightblue" points="341.69,-127.06 349.34,-134.4 347.93,-123.89 341.69,-127.06"/>
</g>
<!-- Node13 -->
<g id="node13" class="node">
<title>Node13</title>
<g id="a_node13"><a xlink:href="promise__impl_8cpp.html" target="_top" xlink:title=" ">
<polygon fill="none" stroke="black" points="390,-73 390,-92 527,-92 527,-73 390,-73"/>
<text text-anchor="middle" x="458.5" y="-80" font-family="Helvetica,sans-Serif" font-size="10.00">src/async/promise_impl.cpp</text>
</a>
</g>
</g>
<!-- Node12&#45;&gt;Node13 -->
<g id="edge15" class="edge">
<title>Node12&#45;&gt;Node13</title>
<path fill="none" stroke="midnightblue" d="M387.14,-128.97C406.48,-116.65 430.5,-101.35 445.15,-92.01"/>
<polygon fill="midnightblue" stroke="midnightblue" points="385.18,-126.07 378.63,-134.4 388.95,-131.97 385.18,-126.07"/>
</g>
<!-- Node14&#45;&gt;Node9 -->
<g id="edge19" class="edge">
<title>Node14&#45;&gt;Node9</title>
<path fill="none" stroke="midnightblue" d="M170.85,-62.57C152.13,-52.35 129.41,-39.94 112.27,-30.58"/>
<polygon fill="midnightblue" stroke="midnightblue" points="169.22,-65.67 179.68,-67.4 172.58,-59.53 169.22,-65.67"/>
</g>
<!-- Node14&#45;&gt;Node11 -->
<g id="edge17" class="edge">
<title>Node14&#45;&gt;Node11</title>
<path fill="none" stroke="midnightblue" d="M240.15,-62.57C258.87,-52.35 281.59,-39.94 298.73,-30.58"/>
<polygon fill="midnightblue" stroke="midnightblue" points="238.42,-59.53 231.32,-67.4 241.78,-65.67 238.42,-59.53"/>
</g>
<!-- Node15 -->
<g id="node15" class="node">
<title>Node15</title>
<g id="a_node15"><a xlink:href="simple_8cpp.html" target="_top" xlink:title=" ">
<polygon fill="none" stroke="black" points="155,-0.5 155,-30.5 256,-30.5 256,-0.5 155,-0.5"/>
<text text-anchor="start" x="163" y="-18.5" font-family="Helvetica,sans-Serif" font-size="10.00">test/example/async</text>
<text text-anchor="middle" x="205.5" y="-7.5" font-family="Helvetica,sans-Serif" font-size="10.00">/simple.cpp</text>
</a>
</g>
</g>
<!-- Node14&#45;&gt;Node15 -->
<g id="edge18" class="edge">
<title>Node14&#45;&gt;Node15</title>
<path fill="none" stroke="midnightblue" d="M205.5,-57.11C205.5,-48.15 205.5,-38.32 205.5,-30.58"/>
<polygon fill="midnightblue" stroke="midnightblue" points="202,-57.4 205.5,-67.4 209,-57.4 202,-57.4"/>
</g>
</g>
</svg>
