<?xml version="1.0" encoding="UTF-8" standalone="no"?>
<!DOCTYPE svg PUBLIC "-//W3C//DTD SVG 1.1//EN"
 "http://www.w3.org/Graphics/SVG/1.1/DTD/svg11.dtd">
<!-- Generated by graphviz version 2.44.0 ()
 -->
<!-- Title: include/yaclib/algo/wait_group.hpp Pages: 1 -->
<svg width="442pt" height="162pt"
 viewBox="0.00 0.00 441.50 162.00" xmlns="http://www.w3.org/2000/svg" xmlns:xlink="http://www.w3.org/1999/xlink">
<g id="graph0" class="graph" transform="scale(1 1) rotate(0) translate(4 158)">
<title>include/yaclib/algo/wait_group.hpp</title>
<!-- Node1 -->
<g id="node1" class="node">
<title>Node1</title>
<g id="a_node1"><a xlink:title=" ">
<polygon fill="#bfbfbf" stroke="black" points="192.5,-123.5 192.5,-153.5 288.5,-153.5 288.5,-123.5 192.5,-123.5"/>
<text text-anchor="start" x="200.5" y="-141.5" font-family="Helvetica,sans-Serif" font-size="10.00">include/yaclib/algo</text>
<text text-anchor="middle" x="240.5" y="-130.5" font-family="Helvetica,sans-Serif" font-size="10.00">/wait_group.hpp</text>
</a>
</g>
</g>
<!-- Node2 -->
<g id="node2" class="node">
<title>Node2</title>
<g id="a_node2"><a xlink:href="wait__core_8hpp.html" target="_top" xlink:title=" ">
<polygon fill="none" stroke="black" points="130.5,-56.5 130.5,-86.5 226.5,-86.5 226.5,-56.5 130.5,-56.5"/>
<text text-anchor="start" x="138.5" y="-74.5" font-family="Helvetica,sans-Serif" font-size="10.00">yaclib/async/detail</text>
<text text-anchor="middle" x="178.5" y="-63.5" font-family="Helvetica,sans-Serif" font-size="10.00">/wait_core.hpp</text>
</a>
</g>
</g>
<!-- Node1&#45;&gt;Node2 -->
<g id="edge1" class="edge">
<title>Node1&#45;&gt;Node2</title>
<path fill="none" stroke="midnightblue" d="M227.05,-123.4C218.84,-114.79 208.19,-103.63 198.95,-93.94"/>
<polygon fill="midnightblue" stroke="midnightblue" points="201.36,-91.4 191.93,-86.58 196.3,-96.23 201.36,-91.4"/>
</g>
<!-- Node6 -->
<g id="node6" class="node">
<title>Node6</title>
<g id="a_node6"><a xlink:href="counters_8hpp.html" target="_top" xlink:title=" ">
<polygon fill="none" stroke="black" points="267.5,-62 267.5,-81 383.5,-81 383.5,-62 267.5,-62"/>
<text text-anchor="middle" x="325.5" y="-69" font-family="Helvetica,sans-Serif" font-size="10.00">yaclib/util/counters.hpp</text>
</a>
</g>
</g>
<!-- Node1&#45;&gt;Node6 -->
<g id="edge5" class="edge">
<title>Node1&#45;&gt;Node6</title>
<path fill="none" stroke="midnightblue" d="M258.94,-123.4C272.85,-112.76 291.89,-98.2 306.04,-87.38"/>
<polygon fill="midnightblue" stroke="midnightblue" points="308.31,-90.05 314.13,-81.19 304.06,-84.49 308.31,-90.05"/>
</g>
<!-- Node3 -->
<g id="node3" class="node">
<title>Node3</title>
<g id="a_node3"><a xlink:href="ref_8hpp.html" target="_top" xlink:title=" ">
<polygon fill="none" stroke="black" points="0,-0.5 0,-19.5 89,-19.5 89,-0.5 0,-0.5"/>
<text text-anchor="middle" x="44.5" y="-7.5" font-family="Helvetica,sans-Serif" font-size="10.00">yaclib/util/ref.hpp</text>
</a>
</g>
</g>
<!-- Node2&#45;&gt;Node3 -->
<g id="edge2" class="edge">
<title>Node2&#45;&gt;Node3</title>
<path fill="none" stroke="midnightblue" d="M146.74,-56.4C124.46,-46.51 94.91,-33.38 73.31,-23.79"/>
<polygon fill="midnightblue" stroke="midnightblue" points="74.56,-20.52 64,-19.66 71.72,-26.91 74.56,-20.52"/>
</g>
<!-- Node4 -->
<g id="node4" class="node">
<title>Node4</title>
<g id="a_node4"><a xlink:title=" ">
<polygon fill="none" stroke="#bfbfbf" points="107,-0.5 107,-19.5 202,-19.5 202,-0.5 107,-0.5"/>
<text text-anchor="middle" x="154.5" y="-7.5" font-family="Helvetica,sans-Serif" font-size="10.00">condition_variable</text>
</a>
</g>
</g>
<!-- Node2&#45;&gt;Node4 -->
<g id="edge3" class="edge">
<title>Node2&#45;&gt;Node4</title>
<path fill="none" stroke="midnightblue" d="M172.81,-56.4C169.5,-48.2 165.3,-37.78 161.76,-28.99"/>
<polygon fill="midnightblue" stroke="midnightblue" points="164.98,-27.62 157.99,-19.66 158.49,-30.24 164.98,-27.62"/>
</g>
<!-- Node5 -->
<g id="node5" class="node">
<title>Node5</title>
<g id="a_node5"><a xlink:title=" ">
<polygon fill="none" stroke="#bfbfbf" points="220,-0.5 220,-19.5 263,-19.5 263,-0.5 220,-0.5"/>
<text text-anchor="middle" x="241.5" y="-7.5" font-family="Helvetica,sans-Serif" font-size="10.00">mutex</text>
</a>
</g>
</g>
<!-- Node2&#45;&gt;Node5 -->
<g id="edge4" class="edge">
<title>Node2&#45;&gt;Node5</title>
<path fill="none" stroke="midnightblue" d="M193.43,-56.4C202.87,-47.49 215.08,-35.95 224.83,-26.74"/>
<polygon fill="midnightblue" stroke="midnightblue" points="227.47,-29.07 232.33,-19.66 222.66,-23.98 227.47,-29.07"/>
</g>
<!-- Node7 -->
<g id="node7" class="node">
<title>Node7</title>
<g id="a_node7"><a xlink:title=" ">
<polygon fill="none" stroke="#bfbfbf" points="281.5,-0.5 281.5,-19.5 369.5,-19.5 369.5,-0.5 281.5,-0.5"/>
<text text-anchor="middle" x="325.5" y="-7.5" font-family="Helvetica,sans-Serif" font-size="10.00">yaclib/config.hpp</text>
</a>
</g>
</g>
<!-- Node6&#45;&gt;Node7 -->
<g id="edge6" class="edge">
<title>Node6&#45;&gt;Node7</title>
<path fill="none" stroke="midnightblue" d="M325.5,-61.98C325.5,-53.58 325.5,-40.48 325.5,-29.66"/>
<polygon fill="midnightblue" stroke="midnightblue" points="329,-29.51 325.5,-19.51 322,-29.51 329,-29.51"/>
</g>
<!-- Node8 -->
<g id="node8" class="node">
<title>Node8</title>
<g id="a_node8"><a xlink:title=" ">
<polygon fill="none" stroke="#bfbfbf" points="387.5,-0.5 387.5,-19.5 433.5,-19.5 433.5,-0.5 387.5,-0.5"/>
<text text-anchor="middle" x="410.5" y="-7.5" font-family="Helvetica,sans-Serif" font-size="10.00">atomic</text>
</a>
</g>
</g>
<!-- Node6&#45;&gt;Node8 -->
<g id="edge7" class="edge">
<title>Node6&#45;&gt;Node8</title>
<path fill="none" stroke="midnightblue" d="M337.68,-61.98C351.31,-52.43 373.63,-36.81 389.97,-25.37"/>
<polygon fill="midnightblue" stroke="midnightblue" points="392.16,-28.11 398.34,-19.51 388.14,-22.38 392.16,-28.11"/>
</g>
</g>
</svg>
