<?xml version="1.0" encoding="UTF-8" standalone="no"?>
<!DOCTYPE svg PUBLIC "-//W3C//DTD SVG 1.1//EN"
 "http://www.w3.org/Graphics/SVG/1.1/DTD/svg11.dtd">
<!-- Generated by graphviz version 2.44.0 ()
 -->
<!-- Title: include/yaclib/algo/when_any.hpp Pages: 1 -->
<svg width="1087pt" height="777pt"
 viewBox="0.00 0.00 1086.50 777.00" xmlns="http://www.w3.org/2000/svg" xmlns:xlink="http://www.w3.org/1999/xlink">
<g id="graph0" class="graph" transform="scale(1 1) rotate(0) translate(4 773)">
<title>include/yaclib/algo/when_any.hpp</title>
<!-- Node1 -->
<g id="node1" class="node">
<title>Node1</title>
<g id="a_node1"><a xlink:title=" ">
<polygon fill="#bfbfbf" stroke="black" points="180,-738.5 180,-768.5 276,-768.5 276,-738.5 180,-738.5"/>
<text text-anchor="start" x="188" y="-756.5" font-family="Helvetica,sans-Serif" font-size="10.00">include/yaclib/algo</text>
<text text-anchor="middle" x="228" y="-745.5" font-family="Helvetica,sans-Serif" font-size="10.00">/when_any.hpp</text>
</a>
</g>
</g>
<!-- Node2 -->
<g id="node2" class="node">
<title>Node2</title>
<g id="a_node2"><a xlink:href="future_8hpp.html" target="_top" xlink:title=" ">
<polygon fill="none" stroke="black" points="170,-682.5 170,-701.5 286,-701.5 286,-682.5 170,-682.5"/>
<text text-anchor="middle" x="228" y="-689.5" font-family="Helvetica,sans-Serif" font-size="10.00">yaclib/async/future.hpp</text>
</a>
</g>
</g>
<!-- Node1&#45;&gt;Node2 -->
<g id="edge1" class="edge">
<title>Node1&#45;&gt;Node2</title>
<path fill="none" stroke="midnightblue" d="M228,-738.4C228,-730.47 228,-720.46 228,-711.86"/>
<polygon fill="midnightblue" stroke="midnightblue" points="231.5,-711.66 228,-701.66 224.5,-711.66 231.5,-711.66"/>
</g>
<!-- Node14 -->
<g id="node14" class="node">
<title>Node14</title>
<g id="a_node14"><a xlink:title=" ">
<polygon fill="none" stroke="#bfbfbf" points="311,-0.5 311,-19.5 373,-19.5 373,-0.5 311,-0.5"/>
<text text-anchor="middle" x="342" y="-7.5" font-family="Helvetica,sans-Serif" font-size="10.00">type_traits</text>
</a>
</g>
</g>
<!-- Node1&#45;&gt;Node14 -->
<g id="edge57" class="edge">
<title>Node1&#45;&gt;Node14</title>
<path fill="none" stroke="midnightblue" d="M179.93,-749.16C113.03,-741.59 0,-716.98 0,-637 0,-637 0,-637 0,-137.5 0,-74.03 209.83,-32.38 300.78,-17.31"/>
<polygon fill="midnightblue" stroke="midnightblue" points="301.44,-20.74 310.74,-15.68 300.31,-13.84 301.44,-20.74"/>
</g>
<!-- Node15 -->
<g id="node15" class="node">
<title>Node15</title>
<g id="a_node15"><a xlink:title=" ">
<polygon fill="none" stroke="#bfbfbf" points="699.5,-0.5 699.5,-19.5 738.5,-19.5 738.5,-0.5 699.5,-0.5"/>
<text text-anchor="middle" x="719" y="-7.5" font-family="Helvetica,sans-Serif" font-size="10.00">utility</text>
</a>
</g>
</g>
<!-- Node1&#45;&gt;Node15 -->
<g id="edge58" class="edge">
<title>Node1&#45;&gt;Node15</title>
<path fill="none" stroke="midnightblue" d="M276.19,-750.43C445.5,-742.51 1003,-710.84 1003,-637 1003,-637 1003,-637 1003,-311 1003,-163.39 819.43,-59.21 747.46,-24.05"/>
<polygon fill="midnightblue" stroke="midnightblue" points="748.61,-20.71 738.08,-19.54 745.58,-27.03 748.61,-20.71"/>
</g>
<!-- Node24 -->
<g id="node24" class="node">
<title>Node24</title>
<g id="a_node24"><a xlink:href="promise_8hpp.html" target="_top" xlink:title=" ">
<polygon fill="none" stroke="black" points="74.5,-626.5 74.5,-645.5 199.5,-645.5 199.5,-626.5 74.5,-626.5"/>
<text text-anchor="middle" x="137" y="-633.5" font-family="Helvetica,sans-Serif" font-size="10.00">yaclib/async/promise.hpp</text>
</a>
</g>
</g>
<!-- Node1&#45;&gt;Node24 -->
<g id="edge55" class="edge">
<title>Node1&#45;&gt;Node24</title>
<path fill="none" stroke="midnightblue" d="M202.84,-738.47C188.87,-729.59 172.12,-716.96 161,-702 150.69,-688.14 144.4,-669.37 140.86,-655.57"/>
<polygon fill="midnightblue" stroke="midnightblue" points="144.25,-654.7 138.58,-645.75 137.43,-656.28 144.25,-654.7"/>
</g>
<!-- Node33 -->
<g id="node33" class="node">
<title>Node33</title>
<g id="a_node33"><a xlink:title=" ">
<polygon fill="none" stroke="#bfbfbf" points="1031.5,-682.5 1031.5,-701.5 1078.5,-701.5 1078.5,-682.5 1031.5,-682.5"/>
<text text-anchor="middle" x="1055" y="-689.5" font-family="Helvetica,sans-Serif" font-size="10.00">iterator</text>
</a>
</g>
</g>
<!-- Node1&#45;&gt;Node33 -->
<g id="edge56" class="edge">
<title>Node1&#45;&gt;Node33</title>
<path fill="none" stroke="midnightblue" d="M276.33,-752.23C400.17,-750.94 738.7,-743.56 1017,-702 1018.47,-701.78 1019.96,-701.53 1021.47,-701.26"/>
<polygon fill="midnightblue" stroke="midnightblue" points="1022.3,-704.67 1031.4,-699.24 1020.91,-697.81 1022.3,-704.67"/>
</g>
<!-- Node3 -->
<g id="node3" class="node">
<title>Node3</title>
<g id="a_node3"><a xlink:href="result__core_8hpp.html" target="_top" xlink:title=" ">
<polygon fill="none" stroke="black" points="211,-425.5 211,-455.5 307,-455.5 307,-425.5 211,-425.5"/>
<text text-anchor="start" x="219" y="-443.5" font-family="Helvetica,sans-Serif" font-size="10.00">yaclib/async/detail</text>
<text text-anchor="middle" x="259" y="-432.5" font-family="Helvetica,sans-Serif" font-size="10.00">/result_core.hpp</text>
</a>
</g>
</g>
<!-- Node2&#45;&gt;Node3 -->
<g id="edge2" class="edge">
<title>Node2&#45;&gt;Node3</title>
<path fill="none" stroke="midnightblue" d="M230.17,-682.43C234.44,-665.11 243.77,-624.64 247,-590 251.04,-546.63 241.93,-535.26 247,-492 248.02,-483.32 249.99,-473.96 252.04,-465.69"/>
<polygon fill="midnightblue" stroke="midnightblue" points="255.45,-466.49 254.62,-455.92 248.68,-464.7 255.45,-466.49"/>
</g>
<!-- Node5 -->
<g id="node5" class="node">
<title>Node5</title>
<g id="a_node5"><a xlink:href="executor_8hpp.html" target="_top" xlink:title=" ">
<polygon fill="none" stroke="black" points="386.5,-246.5 386.5,-265.5 525.5,-265.5 525.5,-246.5 386.5,-246.5"/>
<text text-anchor="middle" x="456" y="-253.5" font-family="Helvetica,sans-Serif" font-size="10.00">yaclib/executor/executor.hpp</text>
</a>
</g>
</g>
<!-- Node2&#45;&gt;Node5 -->
<g id="edge33" class="edge">
<title>Node2&#45;&gt;Node5</title>
<path fill="none" stroke="midnightblue" d="M279.67,-682.48C335.93,-669.92 418,-640.45 418,-575.5 418,-575.5 418,-575.5 418,-372.5 418,-336.25 435.09,-296.67 446.35,-274.53"/>
<polygon fill="midnightblue" stroke="midnightblue" points="449.46,-276.14 451.03,-265.66 443.27,-272.87 449.46,-276.14"/>
</g>
<!-- Node19 -->
<g id="node19" class="node">
<title>Node19</title>
<g id="a_node19"><a xlink:href="type__traits_8hpp.html" target="_top" xlink:title=" ">
<polygon fill="none" stroke="black" points="35.5,-302.5 35.5,-321.5 158.5,-321.5 158.5,-302.5 35.5,-302.5"/>
<text text-anchor="middle" x="97" y="-309.5" font-family="Helvetica,sans-Serif" font-size="10.00">yaclib/util/type_traits.hpp</text>
</a>
</g>
</g>
<!-- Node2&#45;&gt;Node19 -->
<g id="edge34" class="edge">
<title>Node2&#45;&gt;Node19</title>
<path fill="none" stroke="midnightblue" d="M169.73,-687.78C135.49,-683.03 93.47,-671.85 65,-646 40.16,-623.45 38,-609.05 38,-575.5 38,-575.5 38,-575.5 38,-439.5 38,-396.71 66.07,-352.77 83.48,-329.62"/>
<polygon fill="midnightblue" stroke="midnightblue" points="86.38,-331.59 89.77,-321.55 80.86,-327.29 86.38,-331.59"/>
</g>
<!-- Node2&#45;&gt;Node24 -->
<g id="edge35" class="edge">
<title>Node2&#45;&gt;Node24</title>
<path fill="none" stroke="midnightblue" d="M208.26,-682.32C192.39,-673.98 170.57,-661.21 155.14,-651.35"/>
<polygon fill="midnightblue" stroke="midnightblue" points="156.75,-648.22 146.47,-645.65 152.91,-654.07 156.75,-648.22"/>
</g>
<!-- Node25 -->
<g id="node25" class="node">
<title>Node25</title>
<g id="a_node25"><a xlink:href="future__impl_8hpp.html" target="_top" xlink:title=" ">
<polygon fill="none" stroke="black" points="294,-559.5 294,-589.5 390,-589.5 390,-559.5 294,-559.5"/>
<text text-anchor="start" x="302" y="-577.5" font-family="Helvetica,sans-Serif" font-size="10.00">yaclib/async/detail</text>
<text text-anchor="middle" x="342" y="-566.5" font-family="Helvetica,sans-Serif" font-size="10.00">/future_impl.hpp</text>
</a>
</g>
</g>
<!-- Node2&#45;&gt;Node25 -->
<g id="edge53" class="edge">
<title>Node2&#45;&gt;Node25</title>
<path fill="none" stroke="midnightblue" d="M238.73,-682.44C249.52,-673.67 266.44,-659.45 280,-646 295.67,-630.45 312.11,-611.63 324.12,-597.34"/>
<polygon fill="midnightblue" stroke="midnightblue" points="326.93,-599.44 330.64,-589.51 321.55,-594.96 326.93,-599.44"/>
</g>
<!-- Node32 -->
<g id="node32" class="node">
<title>Node32</title>
<g id="a_node32"><a xlink:href="promise__impl_8hpp.html" target="_top" xlink:title=" ">
<polygon fill="none" stroke="black" points="142,-559.5 142,-589.5 238,-589.5 238,-559.5 142,-559.5"/>
<text text-anchor="start" x="150" y="-577.5" font-family="Helvetica,sans-Serif" font-size="10.00">yaclib/async/detail</text>
<text text-anchor="middle" x="190" y="-566.5" font-family="Helvetica,sans-Serif" font-size="10.00">/promise_impl.hpp</text>
</a>
</g>
</g>
<!-- Node2&#45;&gt;Node32 -->
<g id="edge54" class="edge">
<title>Node2&#45;&gt;Node32</title>
<path fill="none" stroke="midnightblue" d="M225.41,-682.13C221.7,-669.58 214.62,-645.95 208,-626 205.08,-617.21 201.71,-607.62 198.68,-599.18"/>
<polygon fill="midnightblue" stroke="midnightblue" points="201.91,-597.8 195.21,-589.59 195.32,-600.19 201.91,-597.8"/>
</g>
<!-- Node4 -->
<g id="node4" class="node">
<title>Node4</title>
<g id="a_node4"><a xlink:href="base__core_8hpp.html" target="_top" xlink:title=" ">
<polygon fill="none" stroke="black" points="571,-358.5 571,-388.5 667,-388.5 667,-358.5 571,-358.5"/>
<text text-anchor="start" x="579" y="-376.5" font-family="Helvetica,sans-Serif" font-size="10.00">yaclib/async/detail</text>
<text text-anchor="middle" x="619" y="-365.5" font-family="Helvetica,sans-Serif" font-size="10.00">/base_core.hpp</text>
</a>
</g>
</g>
<!-- Node3&#45;&gt;Node4 -->
<g id="edge3" class="edge">
<title>Node3&#45;&gt;Node4</title>
<path fill="none" stroke="midnightblue" d="M307.18,-430.8C372.83,-418.95 490.26,-397.74 560.77,-385.01"/>
<polygon fill="midnightblue" stroke="midnightblue" points="561.6,-388.42 570.82,-383.2 560.36,-381.53 561.6,-388.42"/>
</g>
<!-- Node18 -->
<g id="node18" class="node">
<title>Node18</title>
<g id="a_node18"><a xlink:href="result_8hpp.html" target="_top" xlink:title=" ">
<polygon fill="none" stroke="black" points="208,-364 208,-383 310,-383 310,-364 208,-364"/>
<text text-anchor="middle" x="259" y="-371" font-family="Helvetica,sans-Serif" font-size="10.00">yaclib/util/result.hpp</text>
</a>
</g>
</g>
<!-- Node3&#45;&gt;Node18 -->
<g id="edge25" class="edge">
<title>Node3&#45;&gt;Node18</title>
<path fill="none" stroke="midnightblue" d="M259,-425.4C259,-416.06 259,-403.71 259,-393.52"/>
<polygon fill="midnightblue" stroke="midnightblue" points="262.5,-393.19 259,-383.19 255.5,-393.19 262.5,-393.19"/>
</g>
<!-- Node4&#45;&gt;Node5 -->
<g id="edge4" class="edge">
<title>Node4&#45;&gt;Node5</title>
<path fill="none" stroke="midnightblue" d="M570.88,-366.71C539.89,-360.56 500.89,-347.93 476,-322 464.13,-309.63 459.29,-290.39 457.33,-276.04"/>
<polygon fill="midnightblue" stroke="midnightblue" points="460.78,-275.41 456.29,-265.81 453.82,-276.12 460.78,-275.41"/>
</g>
<!-- Node6 -->
<g id="node6" class="node">
<title>Node6</title>
<g id="a_node6"><a xlink:href="task_8hpp.html" target="_top" xlink:title=" ">
<polygon fill="none" stroke="black" points="457.5,-190.5 457.5,-209.5 578.5,-209.5 578.5,-190.5 457.5,-190.5"/>
<text text-anchor="middle" x="518" y="-197.5" font-family="Helvetica,sans-Serif" font-size="10.00">yaclib/executor/task.hpp</text>
</a>
</g>
</g>
<!-- Node4&#45;&gt;Node6 -->
<g id="edge22" class="edge">
<title>Node4&#45;&gt;Node6</title>
<path fill="none" stroke="midnightblue" d="M622.07,-358.37C624.57,-343.68 626.59,-320.32 619,-302 603.2,-263.84 565.21,-232.59 540.59,-215.4"/>
<polygon fill="midnightblue" stroke="midnightblue" points="542.43,-212.42 532.19,-209.72 538.51,-218.22 542.43,-212.42"/>
</g>
<!-- Node10 -->
<g id="node10" class="node">
<title>Node10</title>
<g id="a_node10"><a xlink:title=" ">
<polygon fill="none" stroke="#bfbfbf" points="819,-0.5 819,-19.5 865,-19.5 865,-0.5 819,-0.5"/>
<text text-anchor="middle" x="842" y="-7.5" font-family="Helvetica,sans-Serif" font-size="10.00">atomic</text>
</a>
</g>
</g>
<!-- Node4&#45;&gt;Node10 -->
<g id="edge24" class="edge">
<title>Node4&#45;&gt;Node10</title>
<path fill="none" stroke="midnightblue" d="M642,-358.45C670.11,-339.3 714,-302.18 714,-257 714,-257 714,-257 714,-199 714,-122.97 786.42,-54.95 822.32,-25.9"/>
<polygon fill="midnightblue" stroke="midnightblue" points="824.51,-28.63 830.19,-19.69 820.17,-23.14 824.51,-28.63"/>
</g>
<!-- Node11 -->
<g id="node11" class="node">
<title>Node11</title>
<g id="a_node11"><a xlink:href="intrusive__ptr_8hpp.html" target="_top" xlink:title=" ">
<polygon fill="none" stroke="black" points="511.5,-56.5 511.5,-86.5 608.5,-86.5 608.5,-56.5 511.5,-56.5"/>
<text text-anchor="start" x="519.5" y="-74.5" font-family="Helvetica,sans-Serif" font-size="10.00">yaclib/util/intrusive</text>
<text text-anchor="middle" x="560" y="-63.5" font-family="Helvetica,sans-Serif" font-size="10.00">_ptr.hpp</text>
</a>
</g>
</g>
<!-- Node4&#45;&gt;Node11 -->
<g id="edge23" class="edge">
<title>Node4&#45;&gt;Node11</title>
<path fill="none" stroke="midnightblue" d="M625.67,-358.26C631.5,-344.08 638.53,-321.64 635,-302 622.58,-232.93 600.62,-221.08 580,-154 574.14,-134.92 568.82,-112.92 565.15,-96.59"/>
<polygon fill="midnightblue" stroke="midnightblue" points="568.55,-95.78 562.98,-86.77 561.72,-97.29 568.55,-95.78"/>
</g>
<!-- Node17 -->
<g id="node17" class="node">
<title>Node17</title>
<g id="a_node17"><a xlink:href="inline_8hpp.html" target="_top" xlink:title=" ">
<polygon fill="none" stroke="black" points="484.5,-302.5 484.5,-321.5 609.5,-321.5 609.5,-302.5 484.5,-302.5"/>
<text text-anchor="middle" x="547" y="-309.5" font-family="Helvetica,sans-Serif" font-size="10.00">yaclib/executor/inline.hpp</text>
</a>
</g>
</g>
<!-- Node4&#45;&gt;Node17 -->
<g id="edge20" class="edge">
<title>Node4&#45;&gt;Node17</title>
<path fill="none" stroke="midnightblue" d="M601.94,-358.4C590.94,-349.31 576.63,-337.49 565.38,-328.19"/>
<polygon fill="midnightblue" stroke="midnightblue" points="567.41,-325.33 557.48,-321.66 562.96,-330.73 567.41,-325.33"/>
</g>
<!-- Node5&#45;&gt;Node6 -->
<g id="edge5" class="edge">
<title>Node5&#45;&gt;Node6</title>
<path fill="none" stroke="midnightblue" d="M465.96,-246.32C475.13,-238.34 488.94,-226.31 500.03,-216.65"/>
<polygon fill="midnightblue" stroke="midnightblue" points="502.62,-219.04 507.86,-209.83 498.02,-213.76 502.62,-219.04"/>
</g>
<!-- Node5&#45;&gt;Node11 -->
<g id="edge19" class="edge">
<title>Node5&#45;&gt;Node11</title>
<path fill="none" stroke="midnightblue" d="M449.75,-246.42C434.28,-224.04 397.36,-162.85 425,-123 442.21,-98.19 473.2,-85.54 501.14,-79.11"/>
<polygon fill="midnightblue" stroke="midnightblue" points="502.19,-82.47 511.27,-77.01 500.77,-75.62 502.19,-82.47"/>
</g>
<!-- Node7 -->
<g id="node7" class="node">
<title>Node7</title>
<g id="a_node7"><a xlink:href="func_8hpp.html" target="_top" xlink:title=" ">
<polygon fill="none" stroke="black" points="588.5,-129 588.5,-148 685.5,-148 685.5,-129 588.5,-129"/>
<text text-anchor="middle" x="637" y="-136" font-family="Helvetica,sans-Serif" font-size="10.00">yaclib/util/func.hpp</text>
</a>
</g>
</g>
<!-- Node6&#45;&gt;Node7 -->
<g id="edge6" class="edge">
<title>Node6&#45;&gt;Node7</title>
<path fill="none" stroke="midnightblue" d="M535.05,-190.48C554.84,-180.58 587.72,-164.14 610.77,-152.62"/>
<polygon fill="midnightblue" stroke="midnightblue" points="612.6,-155.61 619.98,-148.01 609.47,-149.35 612.6,-155.61"/>
</g>
<!-- Node16 -->
<g id="node16" class="node">
<title>Node16</title>
<g id="a_node16"><a xlink:href="intrusive__node_8hpp.html" target="_top" xlink:title=" ">
<polygon fill="none" stroke="black" points="434.5,-123.5 434.5,-153.5 531.5,-153.5 531.5,-123.5 434.5,-123.5"/>
<text text-anchor="start" x="442.5" y="-141.5" font-family="Helvetica,sans-Serif" font-size="10.00">yaclib/util/intrusive</text>
<text text-anchor="middle" x="483" y="-130.5" font-family="Helvetica,sans-Serif" font-size="10.00">_node.hpp</text>
</a>
</g>
</g>
<!-- Node6&#45;&gt;Node16 -->
<g id="edge18" class="edge">
<title>Node6&#45;&gt;Node16</title>
<path fill="none" stroke="midnightblue" d="M512.99,-190.48C508.64,-183.09 502.16,-172.08 496.34,-162.17"/>
<polygon fill="midnightblue" stroke="midnightblue" points="499.34,-160.37 491.25,-153.52 493.3,-163.92 499.34,-160.37"/>
</g>
<!-- Node8 -->
<g id="node8" class="node">
<title>Node8</title>
<g id="a_node8"><a xlink:href="counters_8hpp.html" target="_top" xlink:title=" ">
<polygon fill="none" stroke="black" points="919,-62 919,-81 1035,-81 1035,-62 919,-62"/>
<text text-anchor="middle" x="977" y="-69" font-family="Helvetica,sans-Serif" font-size="10.00">yaclib/util/counters.hpp</text>
</a>
</g>
</g>
<!-- Node7&#45;&gt;Node8 -->
<g id="edge7" class="edge">
<title>Node7&#45;&gt;Node8</title>
<path fill="none" stroke="midnightblue" d="M681.8,-128.94C743.8,-117.08 855.67,-95.7 922.46,-82.93"/>
<polygon fill="midnightblue" stroke="midnightblue" points="923.21,-86.35 932.37,-81.03 921.89,-79.47 923.21,-86.35"/>
</g>
<!-- Node7&#45;&gt;Node11 -->
<g id="edge10" class="edge">
<title>Node7&#45;&gt;Node11</title>
<path fill="none" stroke="midnightblue" d="M626.62,-128.73C615.91,-119.7 598.82,-105.27 584.64,-93.3"/>
<polygon fill="midnightblue" stroke="midnightblue" points="586.59,-90.37 576.69,-86.59 582.07,-95.71 586.59,-90.37"/>
</g>
<!-- Node12 -->
<g id="node12" class="node">
<title>Node12</title>
<g id="a_node12"><a xlink:href="ref_8hpp.html" target="_top" xlink:title=" ">
<polygon fill="none" stroke="black" points="592.5,-0.5 592.5,-19.5 681.5,-19.5 681.5,-0.5 592.5,-0.5"/>
<text text-anchor="middle" x="637" y="-7.5" font-family="Helvetica,sans-Serif" font-size="10.00">yaclib/util/ref.hpp</text>
</a>
</g>
</g>
<!-- Node7&#45;&gt;Node12 -->
<g id="edge15" class="edge">
<title>Node7&#45;&gt;Node12</title>
<path fill="none" stroke="midnightblue" d="M637,-128.81C637,-108.49 637,-57.55 637,-29.78"/>
<polygon fill="midnightblue" stroke="midnightblue" points="640.5,-29.76 637,-19.76 633.5,-29.76 640.5,-29.76"/>
</g>
<!-- Node7&#45;&gt;Node14 -->
<g id="edge16" class="edge">
<title>Node7&#45;&gt;Node14</title>
<path fill="none" stroke="midnightblue" d="M612.56,-128.96C585.52,-119.35 540.77,-103 503,-87 454.77,-66.57 399.84,-39.88 368.22,-24.18"/>
<polygon fill="midnightblue" stroke="midnightblue" points="369.7,-21 359.18,-19.67 366.57,-27.27 369.7,-21"/>
</g>
<!-- Node7&#45;&gt;Node15 -->
<g id="edge17" class="edge">
<title>Node7&#45;&gt;Node15</title>
<path fill="none" stroke="midnightblue" d="M642.64,-128.81C656.04,-108.13 690,-55.73 707.77,-28.32"/>
<polygon fill="midnightblue" stroke="midnightblue" points="710.82,-30.05 713.32,-19.76 704.95,-26.24 710.82,-30.05"/>
</g>
<!-- Node9 -->
<g id="node9" class="node">
<title>Node9</title>
<g id="a_node9"><a xlink:title=" ">
<polygon fill="none" stroke="#bfbfbf" points="933,-0.5 933,-19.5 1021,-19.5 1021,-0.5 933,-0.5"/>
<text text-anchor="middle" x="977" y="-7.5" font-family="Helvetica,sans-Serif" font-size="10.00">yaclib/config.hpp</text>
</a>
</g>
</g>
<!-- Node8&#45;&gt;Node9 -->
<g id="edge8" class="edge">
<title>Node8&#45;&gt;Node9</title>
<path fill="none" stroke="midnightblue" d="M977,-61.98C977,-53.58 977,-40.48 977,-29.66"/>
<polygon fill="midnightblue" stroke="midnightblue" points="980.5,-29.51 977,-19.51 973.5,-29.51 980.5,-29.51"/>
</g>
<!-- Node8&#45;&gt;Node10 -->
<g id="edge9" class="edge">
<title>Node8&#45;&gt;Node10</title>
<path fill="none" stroke="midnightblue" d="M957.66,-61.98C934.9,-51.95 896.91,-35.2 870.71,-23.65"/>
<polygon fill="midnightblue" stroke="midnightblue" points="871.87,-20.34 861.31,-19.51 869.05,-26.74 871.87,-20.34"/>
</g>
<!-- Node11&#45;&gt;Node12 -->
<g id="edge11" class="edge">
<title>Node11&#45;&gt;Node12</title>
<path fill="none" stroke="midnightblue" d="M578.25,-56.4C590.13,-47.22 605.61,-35.26 617.69,-25.92"/>
<polygon fill="midnightblue" stroke="midnightblue" points="620.02,-28.54 625.8,-19.66 615.74,-23 620.02,-28.54"/>
</g>
<!-- Node13 -->
<g id="node13" class="node">
<title>Node13</title>
<g id="a_node13"><a xlink:title=" ">
<polygon fill="none" stroke="#bfbfbf" points="519,-0.5 519,-19.5 575,-19.5 575,-0.5 519,-0.5"/>
<text text-anchor="middle" x="547" y="-7.5" font-family="Helvetica,sans-Serif" font-size="10.00">algorithm</text>
</a>
</g>
</g>
<!-- Node11&#45;&gt;Node13 -->
<g id="edge12" class="edge">
<title>Node11&#45;&gt;Node13</title>
<path fill="none" stroke="midnightblue" d="M556.92,-56.4C555.17,-48.38 552.95,-38.23 551.06,-29.57"/>
<polygon fill="midnightblue" stroke="midnightblue" points="554.45,-28.68 548.89,-19.66 547.61,-30.17 554.45,-28.68"/>
</g>
<!-- Node11&#45;&gt;Node14 -->
<g id="edge13" class="edge">
<title>Node11&#45;&gt;Node14</title>
<path fill="none" stroke="midnightblue" d="M511.35,-57.22C472.69,-46.67 419.25,-32.08 382.81,-22.14"/>
<polygon fill="midnightblue" stroke="midnightblue" points="383.58,-18.72 373.01,-19.46 381.73,-25.47 383.58,-18.72"/>
</g>
<!-- Node11&#45;&gt;Node15 -->
<g id="edge14" class="edge">
<title>Node11&#45;&gt;Node15</title>
<path fill="none" stroke="midnightblue" d="M597.68,-56.4C625.89,-45.84 663.93,-31.61 689.84,-21.91"/>
<polygon fill="midnightblue" stroke="midnightblue" points="691.33,-25.09 699.47,-18.31 688.88,-18.54 691.33,-25.09"/>
</g>
<!-- Node17&#45;&gt;Node5 -->
<g id="edge21" class="edge">
<title>Node17&#45;&gt;Node5</title>
<path fill="none" stroke="midnightblue" d="M532.38,-302.32C518.05,-293.82 495.99,-280.73 479.25,-270.8"/>
<polygon fill="midnightblue" stroke="midnightblue" points="480.97,-267.75 470.58,-265.65 477.4,-273.77 480.97,-267.75"/>
</g>
<!-- Node18&#45;&gt;Node19 -->
<g id="edge26" class="edge">
<title>Node18&#45;&gt;Node19</title>
<path fill="none" stroke="midnightblue" d="M235.79,-363.98C208,-353.77 161.28,-336.61 129.81,-325.05"/>
<polygon fill="midnightblue" stroke="midnightblue" points="130.76,-321.67 120.17,-321.51 128.35,-328.24 130.76,-321.67"/>
</g>
<!-- Node21 -->
<g id="node21" class="node">
<title>Node21</title>
<g id="a_node21"><a xlink:title=" ">
<polygon fill="none" stroke="#bfbfbf" points="199,-246.5 199,-265.5 257,-265.5 257,-246.5 199,-246.5"/>
<text text-anchor="middle" x="228" y="-253.5" font-family="Helvetica,sans-Serif" font-size="10.00">exception</text>
</a>
</g>
</g>
<!-- Node18&#45;&gt;Node21 -->
<g id="edge30" class="edge">
<title>Node18&#45;&gt;Node21</title>
<path fill="none" stroke="midnightblue" d="M277.18,-363.99C301.23,-351.51 338.82,-327 323,-302 310.67,-282.52 287.38,-271.31 266.94,-264.95"/>
<polygon fill="midnightblue" stroke="midnightblue" points="267.77,-261.54 257.2,-262.2 265.87,-268.28 267.77,-261.54"/>
</g>
<!-- Node22 -->
<g id="node22" class="node">
<title>Node22</title>
<g id="a_node22"><a xlink:title=" ">
<polygon fill="none" stroke="#bfbfbf" points="176.5,-302.5 176.5,-321.5 249.5,-321.5 249.5,-302.5 176.5,-302.5"/>
<text text-anchor="middle" x="213" y="-309.5" font-family="Helvetica,sans-Serif" font-size="10.00">system_error</text>
</a>
</g>
</g>
<!-- Node18&#45;&gt;Node22 -->
<g id="edge31" class="edge">
<title>Node18&#45;&gt;Node22</title>
<path fill="none" stroke="midnightblue" d="M252.41,-363.98C245.51,-355.05 234.5,-340.81 225.87,-329.64"/>
<polygon fill="midnightblue" stroke="midnightblue" points="228.46,-327.28 219.58,-321.51 222.93,-331.56 228.46,-327.28"/>
</g>
<!-- Node23 -->
<g id="node23" class="node">
<title>Node23</title>
<g id="a_node23"><a xlink:title=" ">
<polygon fill="none" stroke="#bfbfbf" points="268,-302.5 268,-321.5 314,-321.5 314,-302.5 268,-302.5"/>
<text text-anchor="middle" x="291" y="-309.5" font-family="Helvetica,sans-Serif" font-size="10.00">variant</text>
</a>
</g>
</g>
<!-- Node18&#45;&gt;Node23 -->
<g id="edge32" class="edge">
<title>Node18&#45;&gt;Node23</title>
<path fill="none" stroke="midnightblue" d="M263.58,-363.98C268.24,-355.32 275.59,-341.65 281.51,-330.65"/>
<polygon fill="midnightblue" stroke="midnightblue" points="284.77,-331.97 286.42,-321.51 278.6,-328.66 284.77,-331.97"/>
</g>
<!-- Node19&#45;&gt;Node14 -->
<g id="edge29" class="edge">
<title>Node19&#45;&gt;Node14</title>
<path fill="none" stroke="midnightblue" d="M105.45,-302.44C121.77,-284.96 156,-243.26 156,-201 156,-201 156,-201 156,-137.5 156,-67.83 246.32,-33.83 301.09,-19.62"/>
<polygon fill="midnightblue" stroke="midnightblue" points="302.01,-23 310.87,-17.19 300.32,-16.2 302.01,-23"/>
</g>
<!-- Node20 -->
<g id="node20" class="node">
<title>Node20</title>
<g id="a_node20"><a xlink:title=" ">
<polygon fill="none" stroke="#bfbfbf" points="304.5,-246.5 304.5,-265.5 353.5,-265.5 353.5,-246.5 304.5,-246.5"/>
<text text-anchor="middle" x="329" y="-253.5" font-family="Helvetica,sans-Serif" font-size="10.00">cassert</text>
</a>
</g>
</g>
<!-- Node19&#45;&gt;Node20 -->
<g id="edge27" class="edge">
<title>Node19&#45;&gt;Node20</title>
<path fill="none" stroke="midnightblue" d="M133.76,-302.44C177.88,-292.17 251.3,-275.09 294.42,-265.05"/>
<polygon fill="midnightblue" stroke="midnightblue" points="295.24,-268.45 304.18,-262.78 293.65,-261.63 295.24,-268.45"/>
</g>
<!-- Node19&#45;&gt;Node21 -->
<g id="edge28" class="edge">
<title>Node19&#45;&gt;Node21</title>
<path fill="none" stroke="midnightblue" d="M117.76,-302.44C139.32,-293.56 173.26,-279.56 197.79,-269.45"/>
<polygon fill="midnightblue" stroke="midnightblue" points="199.43,-272.56 207.34,-265.52 196.76,-266.09 199.43,-272.56"/>
</g>
<!-- Node24&#45;&gt;Node2 -->
<g id="edge38" class="edge">
<title>Node24&#45;&gt;Node2</title>
<path fill="none" stroke="midnightblue" d="M156.69,-645.65C172.55,-653.99 194.38,-666.76 209.82,-676.62"/>
<polygon fill="midnightblue" stroke="midnightblue" points="208.21,-679.76 218.49,-682.32 212.06,-673.91 208.21,-679.76"/>
</g>
<!-- Node24&#45;&gt;Node3 -->
<g id="edge36" class="edge">
<title>Node24&#45;&gt;Node3</title>
<path fill="none" stroke="midnightblue" d="M134.07,-626.12C129.75,-611.45 123.2,-581.54 133,-559 151.78,-515.81 195.12,-481.3 225.71,-461.13"/>
<polygon fill="midnightblue" stroke="midnightblue" points="227.83,-463.93 234.36,-455.58 224.05,-458.03 227.83,-463.93"/>
</g>
<!-- Node24&#45;&gt;Node19 -->
<g id="edge37" class="edge">
<title>Node24&#45;&gt;Node19</title>
<path fill="none" stroke="midnightblue" d="M129.52,-626.49C113.23,-607.04 76,-557.26 76,-508.5 76,-508.5 76,-508.5 76,-439.5 76,-400.5 85.83,-355.64 92.04,-331.21"/>
<polygon fill="midnightblue" stroke="midnightblue" points="95.43,-332.07 94.59,-321.51 88.66,-330.29 95.43,-332.07"/>
</g>
<!-- Node24&#45;&gt;Node25 -->
<g id="edge39" class="edge">
<title>Node24&#45;&gt;Node25</title>
<path fill="none" stroke="midnightblue" d="M166.37,-626.48C196.86,-617.63 245.36,-603.55 283.68,-592.43"/>
<polygon fill="midnightblue" stroke="midnightblue" points="285.06,-595.67 293.69,-589.52 283.11,-588.95 285.06,-595.67"/>
</g>
<!-- Node24&#45;&gt;Node32 -->
<g id="edge52" class="edge">
<title>Node24&#45;&gt;Node32</title>
<path fill="none" stroke="midnightblue" d="M144.59,-626.48C151.37,-618.87 161.59,-607.4 170.61,-597.26"/>
<polygon fill="midnightblue" stroke="midnightblue" points="173.47,-599.32 177.51,-589.52 168.24,-594.66 173.47,-599.32"/>
</g>
<!-- Node25&#45;&gt;Node20 -->
<g id="edge51" class="edge">
<title>Node25&#45;&gt;Node20</title>
<path fill="none" stroke="midnightblue" d="M348.97,-559.24C359.94,-535.44 380,-485.86 380,-441.5 380,-441.5 380,-441.5 380,-372.5 380,-334.72 356.88,-295.45 341.77,-273.83"/>
<polygon fill="midnightblue" stroke="midnightblue" points="344.58,-271.74 335.88,-265.7 338.91,-275.85 344.58,-271.74"/>
</g>
<!-- Node26 -->
<g id="node26" class="node">
<title>Node26</title>
<g id="a_node26"><a xlink:href="wait_8hpp.html" target="_top" xlink:title=" ">
<polygon fill="none" stroke="black" points="507.5,-498 507.5,-517 608.5,-517 608.5,-498 507.5,-498"/>
<text text-anchor="middle" x="558" y="-505" font-family="Helvetica,sans-Serif" font-size="10.00">yaclib/algo/wait.hpp</text>
</a>
</g>
</g>
<!-- Node25&#45;&gt;Node26 -->
<g id="edge40" class="edge">
<title>Node25&#45;&gt;Node26</title>
<path fill="none" stroke="midnightblue" d="M388.6,-559.48C427.83,-547.67 483.23,-531 519.85,-519.98"/>
<polygon fill="midnightblue" stroke="midnightblue" points="521.09,-523.26 529.66,-517.03 519.07,-516.56 521.09,-523.26"/>
</g>
<!-- Node31 -->
<g id="node31" class="node">
<title>Node31</title>
<g id="a_node31"><a xlink:href="core_8hpp.html" target="_top" xlink:title=" ">
<polygon fill="none" stroke="black" points="256,-492.5 256,-522.5 352,-522.5 352,-492.5 256,-492.5"/>
<text text-anchor="start" x="264" y="-510.5" font-family="Helvetica,sans-Serif" font-size="10.00">yaclib/async/detail</text>
<text text-anchor="middle" x="304" y="-499.5" font-family="Helvetica,sans-Serif" font-size="10.00">/core.hpp</text>
</a>
</g>
</g>
<!-- Node25&#45;&gt;Node31 -->
<g id="edge49" class="edge">
<title>Node25&#45;&gt;Node31</title>
<path fill="none" stroke="midnightblue" d="M333.75,-559.4C328.97,-551.22 322.84,-540.73 317.38,-531.39"/>
<polygon fill="midnightblue" stroke="midnightblue" points="320.3,-529.44 312.23,-522.58 314.25,-532.98 320.3,-529.44"/>
</g>
<!-- Node27 -->
<g id="node27" class="node">
<title>Node27</title>
<g id="a_node27"><a xlink:href="wait__impl_8hpp.html" target="_top" xlink:title=" ">
<polygon fill="none" stroke="black" points="574.5,-425.5 574.5,-455.5 663.5,-455.5 663.5,-425.5 574.5,-425.5"/>
<text text-anchor="start" x="582.5" y="-443.5" font-family="Helvetica,sans-Serif" font-size="10.00">yaclib/algo/detail</text>
<text text-anchor="middle" x="619" y="-432.5" font-family="Helvetica,sans-Serif" font-size="10.00">/wait_impl.hpp</text>
</a>
</g>
</g>
<!-- Node26&#45;&gt;Node27 -->
<g id="edge41" class="edge">
<title>Node26&#45;&gt;Node27</title>
<path fill="none" stroke="midnightblue" d="M566.23,-497.73C574.55,-488.86 587.74,-474.81 598.85,-462.97"/>
<polygon fill="midnightblue" stroke="midnightblue" points="601.49,-465.28 605.78,-455.59 596.38,-460.49 601.49,-465.28"/>
</g>
<!-- Node27&#45;&gt;Node4 -->
<g id="edge42" class="edge">
<title>Node27&#45;&gt;Node4</title>
<path fill="none" stroke="midnightblue" d="M619,-425.4C619,-417.64 619,-407.81 619,-398.86"/>
<polygon fill="midnightblue" stroke="midnightblue" points="622.5,-398.58 619,-388.58 615.5,-398.58 622.5,-398.58"/>
</g>
<!-- Node27&#45;&gt;Node8 -->
<g id="edge47" class="edge">
<title>Node27&#45;&gt;Node8</title>
<path fill="none" stroke="midnightblue" d="M663.53,-432.83C756.97,-417.57 965,-376.48 965,-313 965,-313 965,-313 965,-199 965,-160.53 970.57,-115.77 974.12,-91.14"/>
<polygon fill="midnightblue" stroke="midnightblue" points="977.61,-91.47 975.62,-81.06 970.69,-90.44 977.61,-91.47"/>
</g>
<!-- Node27&#45;&gt;Node19 -->
<g id="edge48" class="edge">
<title>Node27&#45;&gt;Node19</title>
<path fill="none" stroke="midnightblue" d="M574.49,-437.05C480.84,-431.43 266.52,-415.97 199,-389 164.7,-375.3 131.68,-347.06 112.91,-329.13"/>
<polygon fill="midnightblue" stroke="midnightblue" points="115.15,-326.42 105.55,-321.93 110.25,-331.42 115.15,-326.42"/>
</g>
<!-- Node28 -->
<g id="node28" class="node">
<title>Node28</title>
<g id="a_node28"><a xlink:href="wait__core_8hpp.html" target="_top" xlink:title=" ">
<polygon fill="none" stroke="black" points="723,-358.5 723,-388.5 819,-388.5 819,-358.5 723,-358.5"/>
<text text-anchor="start" x="731" y="-376.5" font-family="Helvetica,sans-Serif" font-size="10.00">yaclib/async/detail</text>
<text text-anchor="middle" x="771" y="-365.5" font-family="Helvetica,sans-Serif" font-size="10.00">/wait_core.hpp</text>
</a>
</g>
</g>
<!-- Node27&#45;&gt;Node28 -->
<g id="edge43" class="edge">
<title>Node27&#45;&gt;Node28</title>
<path fill="none" stroke="midnightblue" d="M651.98,-425.4C674.49,-415.77 704.5,-402.94 728.76,-392.56"/>
<polygon fill="midnightblue" stroke="midnightblue" points="730.26,-395.73 738.08,-388.58 727.51,-389.29 730.26,-395.73"/>
</g>
<!-- Node28&#45;&gt;Node12 -->
<g id="edge44" class="edge">
<title>Node28&#45;&gt;Node12</title>
<path fill="none" stroke="midnightblue" d="M767.16,-358.4C761.6,-336.76 752,-293.99 752,-257 752,-257 752,-257 752,-199 752,-125.59 687.41,-56.62 655.04,-26.67"/>
<polygon fill="midnightblue" stroke="midnightblue" points="656.97,-23.7 647.21,-19.6 652.29,-28.9 656.97,-23.7"/>
</g>
<!-- Node29 -->
<g id="node29" class="node">
<title>Node29</title>
<g id="a_node29"><a xlink:title=" ">
<polygon fill="none" stroke="#bfbfbf" points="780.5,-302.5 780.5,-321.5 875.5,-321.5 875.5,-302.5 780.5,-302.5"/>
<text text-anchor="middle" x="828" y="-309.5" font-family="Helvetica,sans-Serif" font-size="10.00">condition_variable</text>
</a>
</g>
</g>
<!-- Node28&#45;&gt;Node29 -->
<g id="edge45" class="edge">
<title>Node28&#45;&gt;Node29</title>
<path fill="none" stroke="midnightblue" d="M784.51,-358.4C792.96,-349.58 803.88,-338.18 812.66,-329.02"/>
<polygon fill="midnightblue" stroke="midnightblue" points="815.32,-331.3 819.71,-321.66 810.26,-326.46 815.32,-331.3"/>
</g>
<!-- Node30 -->
<g id="node30" class="node">
<title>Node30</title>
<g id="a_node30"><a xlink:title=" ">
<polygon fill="none" stroke="#bfbfbf" points="893.5,-302.5 893.5,-321.5 936.5,-321.5 936.5,-302.5 893.5,-302.5"/>
<text text-anchor="middle" x="915" y="-309.5" font-family="Helvetica,sans-Serif" font-size="10.00">mutex</text>
</a>
</g>
</g>
<!-- Node28&#45;&gt;Node30 -->
<g id="edge46" class="edge">
<title>Node28&#45;&gt;Node30</title>
<path fill="none" stroke="midnightblue" d="M805.13,-358.4C829.29,-348.42 861.4,-335.15 884.67,-325.53"/>
<polygon fill="midnightblue" stroke="midnightblue" points="886.14,-328.71 894.05,-321.66 883.47,-322.24 886.14,-328.71"/>
</g>
<!-- Node31&#45;&gt;Node3 -->
<g id="edge50" class="edge">
<title>Node31&#45;&gt;Node3</title>
<path fill="none" stroke="midnightblue" d="M294.24,-492.4C288.46,-484.05 281.01,-473.29 274.45,-463.81"/>
<polygon fill="midnightblue" stroke="midnightblue" points="277.32,-461.81 268.75,-455.58 271.56,-465.79 277.32,-461.81"/>
</g>
</g>
</svg>
