<?xml version="1.0" encoding="UTF-8" standalone="no"?>
<!DOCTYPE svg PUBLIC "-//W3C//DTD SVG 1.1//EN"
 "http://www.w3.org/Graphics/SVG/1.1/DTD/svg11.dtd">
<!-- Generated by graphviz version 2.44.0 ()
 -->
<!-- Title: include/yaclib/algo/when_all.hpp Pages: 1 -->
<svg width="1199pt" height="777pt"
 viewBox="0.00 0.00 1199.00 777.00" xmlns="http://www.w3.org/2000/svg" xmlns:xlink="http://www.w3.org/1999/xlink">
<g id="graph0" class="graph" transform="scale(1 1) rotate(0) translate(4 773)">
<title>include/yaclib/algo/when_all.hpp</title>
<!-- Node1 -->
<g id="node1" class="node">
<title>Node1</title>
<g id="a_node1"><a xlink:title=" ">
<polygon fill="#bfbfbf" stroke="black" points="949,-738.5 949,-768.5 1045,-768.5 1045,-738.5 949,-738.5"/>
<text text-anchor="start" x="957" y="-756.5" font-family="Helvetica,sans-Serif" font-size="10.00">include/yaclib/algo</text>
<text text-anchor="middle" x="997" y="-745.5" font-family="Helvetica,sans-Serif" font-size="10.00">/when_all.hpp</text>
</a>
</g>
</g>
<!-- Node2 -->
<g id="node2" class="node">
<title>Node2</title>
<g id="a_node2"><a xlink:href="future_8hpp.html" target="_top" xlink:title=" ">
<polygon fill="none" stroke="black" points="197,-682.5 197,-701.5 313,-701.5 313,-682.5 197,-682.5"/>
<text text-anchor="middle" x="255" y="-689.5" font-family="Helvetica,sans-Serif" font-size="10.00">yaclib/async/future.hpp</text>
</a>
</g>
</g>
<!-- Node1&#45;&gt;Node2 -->
<g id="edge1" class="edge">
<title>Node1&#45;&gt;Node2</title>
<path fill="none" stroke="midnightblue" d="M948.89,-748.64C820.93,-738.38 471.91,-710.39 323.38,-698.48"/>
<polygon fill="midnightblue" stroke="midnightblue" points="323.29,-694.96 313.04,-697.65 322.73,-701.94 323.29,-694.96"/>
</g>
<!-- Node14 -->
<g id="node14" class="node">
<title>Node14</title>
<g id="a_node14"><a xlink:title=" ">
<polygon fill="none" stroke="#bfbfbf" points="261,-0.5 261,-19.5 323,-19.5 323,-0.5 261,-0.5"/>
<text text-anchor="middle" x="292" y="-7.5" font-family="Helvetica,sans-Serif" font-size="10.00">type_traits</text>
</a>
</g>
</g>
<!-- Node1&#45;&gt;Node14 -->
<g id="edge58" class="edge">
<title>Node1&#45;&gt;Node14</title>
<path fill="none" stroke="midnightblue" d="M948.91,-752.05C749.76,-749.55 0,-733.71 0,-637 0,-637 0,-637 0,-137.5 0,-29.64 169.83,-12.72 250.45,-10.77"/>
<polygon fill="midnightblue" stroke="midnightblue" points="250.81,-14.26 260.75,-10.59 250.69,-7.26 250.81,-14.26"/>
</g>
<!-- Node15 -->
<g id="node15" class="node">
<title>Node15</title>
<g id="a_node15"><a xlink:title=" ">
<polygon fill="none" stroke="#bfbfbf" points="693.5,-0.5 693.5,-19.5 732.5,-19.5 732.5,-0.5 693.5,-0.5"/>
<text text-anchor="middle" x="713" y="-7.5" font-family="Helvetica,sans-Serif" font-size="10.00">utility</text>
</a>
</g>
</g>
<!-- Node1&#45;&gt;Node15 -->
<g id="edge59" class="edge">
<title>Node1&#45;&gt;Node15</title>
<path fill="none" stroke="midnightblue" d="M997,-738.28C997,-716.48 997,-673.49 997,-637 997,-637 997,-637 997,-311 997,-163.39 813.43,-59.21 741.46,-24.05"/>
<polygon fill="midnightblue" stroke="midnightblue" points="742.61,-20.71 732.08,-19.54 739.58,-27.03 742.61,-20.71"/>
</g>
<!-- Node24 -->
<g id="node24" class="node">
<title>Node24</title>
<g id="a_node24"><a xlink:href="promise_8hpp.html" target="_top" xlink:title=" ">
<polygon fill="none" stroke="black" points="74.5,-626.5 74.5,-645.5 199.5,-645.5 199.5,-626.5 74.5,-626.5"/>
<text text-anchor="middle" x="137" y="-633.5" font-family="Helvetica,sans-Serif" font-size="10.00">yaclib/async/promise.hpp</text>
</a>
</g>
</g>
<!-- Node1&#45;&gt;Node24 -->
<g id="edge55" class="edge">
<title>Node1&#45;&gt;Node24</title>
<path fill="none" stroke="midnightblue" d="M948.85,-751.78C784.96,-749 255.27,-737.36 188,-702 168.42,-691.71 153.92,-670.23 145.49,-654.77"/>
<polygon fill="midnightblue" stroke="midnightblue" points="148.5,-652.98 140.83,-645.67 142.27,-656.16 148.5,-652.98"/>
</g>
<!-- Node33 -->
<g id="node33" class="node">
<title>Node33</title>
<g id="a_node33"><a xlink:title=" ">
<polygon fill="none" stroke="#bfbfbf" points="1025,-682.5 1025,-701.5 1063,-701.5 1063,-682.5 1025,-682.5"/>
<text text-anchor="middle" x="1044" y="-689.5" font-family="Helvetica,sans-Serif" font-size="10.00">array</text>
</a>
</g>
</g>
<!-- Node1&#45;&gt;Node33 -->
<g id="edge56" class="edge">
<title>Node1&#45;&gt;Node33</title>
<path fill="none" stroke="midnightblue" d="M1008.14,-738.4C1014.97,-729.75 1023.74,-718.64 1030.91,-709.58"/>
<polygon fill="midnightblue" stroke="midnightblue" points="1033.71,-711.67 1037.16,-701.66 1028.22,-707.34 1033.71,-711.67"/>
</g>
<!-- Node34 -->
<g id="node34" class="node">
<title>Node34</title>
<g id="a_node34"><a xlink:title=" ">
<polygon fill="none" stroke="#bfbfbf" points="1081.5,-682.5 1081.5,-701.5 1128.5,-701.5 1128.5,-682.5 1081.5,-682.5"/>
<text text-anchor="middle" x="1105" y="-689.5" font-family="Helvetica,sans-Serif" font-size="10.00">iterator</text>
</a>
</g>
</g>
<!-- Node1&#45;&gt;Node34 -->
<g id="edge57" class="edge">
<title>Node1&#45;&gt;Node34</title>
<path fill="none" stroke="midnightblue" d="M1022.59,-738.4C1040.07,-728.77 1063.09,-716.09 1080.36,-706.58"/>
<polygon fill="midnightblue" stroke="midnightblue" points="1082.22,-709.55 1089.29,-701.66 1078.84,-703.42 1082.22,-709.55"/>
</g>
<!-- Node35 -->
<g id="node35" class="node">
<title>Node35</title>
<g id="a_node35"><a xlink:title=" ">
<polygon fill="none" stroke="#bfbfbf" points="1147,-682.5 1147,-701.5 1191,-701.5 1191,-682.5 1147,-682.5"/>
<text text-anchor="middle" x="1169" y="-689.5" font-family="Helvetica,sans-Serif" font-size="10.00">vector</text>
</a>
</g>
</g>
<!-- Node1&#45;&gt;Node35 -->
<g id="edge60" class="edge">
<title>Node1&#45;&gt;Node35</title>
<path fill="none" stroke="midnightblue" d="M1037.76,-738.4C1068.2,-727.87 1109.2,-713.69 1137.23,-703.99"/>
<polygon fill="midnightblue" stroke="midnightblue" points="1138.61,-707.21 1146.92,-700.64 1136.33,-700.6 1138.61,-707.21"/>
</g>
<!-- Node3 -->
<g id="node3" class="node">
<title>Node3</title>
<g id="a_node3"><a xlink:href="result__core_8hpp.html" target="_top" xlink:title=" ">
<polygon fill="none" stroke="black" points="208,-425.5 208,-455.5 304,-455.5 304,-425.5 208,-425.5"/>
<text text-anchor="start" x="216" y="-443.5" font-family="Helvetica,sans-Serif" font-size="10.00">yaclib/async/detail</text>
<text text-anchor="middle" x="256" y="-432.5" font-family="Helvetica,sans-Serif" font-size="10.00">/result_core.hpp</text>
</a>
</g>
</g>
<!-- Node2&#45;&gt;Node3 -->
<g id="edge2" class="edge">
<title>Node2&#45;&gt;Node3</title>
<path fill="none" stroke="midnightblue" d="M254.54,-682.35C253.42,-661.25 250.35,-605.49 247,-559 245.85,-542.99 244.67,-539.04 244,-523 243.43,-509.23 242.4,-505.68 244,-492 245.02,-483.32 246.99,-473.96 249.04,-465.69"/>
<polygon fill="midnightblue" stroke="midnightblue" points="252.45,-466.49 251.62,-455.92 245.68,-464.7 252.45,-466.49"/>
</g>
<!-- Node5 -->
<g id="node5" class="node">
<title>Node5</title>
<g id="a_node5"><a xlink:href="executor_8hpp.html" target="_top" xlink:title=" ">
<polygon fill="none" stroke="black" points="380.5,-246.5 380.5,-265.5 519.5,-265.5 519.5,-246.5 380.5,-246.5"/>
<text text-anchor="middle" x="450" y="-253.5" font-family="Helvetica,sans-Serif" font-size="10.00">yaclib/executor/executor.hpp</text>
</a>
</g>
</g>
<!-- Node2&#45;&gt;Node5 -->
<g id="edge33" class="edge">
<title>Node2&#45;&gt;Node5</title>
<path fill="none" stroke="midnightblue" d="M276.79,-682.4C309.27,-668.35 369.69,-637.22 399,-590 463.66,-485.84 456.62,-328.99 451.95,-275.57"/>
<polygon fill="midnightblue" stroke="midnightblue" points="455.43,-275.17 450.99,-265.55 448.46,-275.84 455.43,-275.17"/>
</g>
<!-- Node19 -->
<g id="node19" class="node">
<title>Node19</title>
<g id="a_node19"><a xlink:href="type__traits_8hpp.html" target="_top" xlink:title=" ">
<polygon fill="none" stroke="black" points="29.5,-302.5 29.5,-321.5 152.5,-321.5 152.5,-302.5 29.5,-302.5"/>
<text text-anchor="middle" x="91" y="-309.5" font-family="Helvetica,sans-Serif" font-size="10.00">yaclib/util/type_traits.hpp</text>
</a>
</g>
</g>
<!-- Node2&#45;&gt;Node19 -->
<g id="edge34" class="edge">
<title>Node2&#45;&gt;Node19</title>
<path fill="none" stroke="midnightblue" d="M196.96,-683.3C148.57,-675.81 84.52,-663.08 65,-646 39.75,-623.91 38,-609.05 38,-575.5 38,-575.5 38,-575.5 38,-439.5 38,-397.64 62.99,-353.63 78.65,-330.15"/>
<polygon fill="midnightblue" stroke="midnightblue" points="81.7,-331.89 84.5,-321.67 75.94,-327.91 81.7,-331.89"/>
</g>
<!-- Node2&#45;&gt;Node24 -->
<g id="edge35" class="edge">
<title>Node2&#45;&gt;Node24</title>
<path fill="none" stroke="midnightblue" d="M231.21,-682.44C210.22,-673.71 180.13,-660.06 159.53,-649.99"/>
<polygon fill="midnightblue" stroke="midnightblue" points="161.04,-646.84 150.53,-645.52 157.92,-653.11 161.04,-646.84"/>
</g>
<!-- Node25 -->
<g id="node25" class="node">
<title>Node25</title>
<g id="a_node25"><a xlink:href="future__impl_8hpp.html" target="_top" xlink:title=" ">
<polygon fill="none" stroke="black" points="294,-559.5 294,-589.5 390,-589.5 390,-559.5 294,-559.5"/>
<text text-anchor="start" x="302" y="-577.5" font-family="Helvetica,sans-Serif" font-size="10.00">yaclib/async/detail</text>
<text text-anchor="middle" x="342" y="-566.5" font-family="Helvetica,sans-Serif" font-size="10.00">/future_impl.hpp</text>
</a>
</g>
</g>
<!-- Node2&#45;&gt;Node25 -->
<g id="edge53" class="edge">
<title>Node2&#45;&gt;Node25</title>
<path fill="none" stroke="midnightblue" d="M261.54,-682.32C274.96,-664.5 305.98,-623.32 325.34,-597.61"/>
<polygon fill="midnightblue" stroke="midnightblue" points="328.2,-599.64 331.42,-589.55 322.61,-595.43 328.2,-599.64"/>
</g>
<!-- Node32 -->
<g id="node32" class="node">
<title>Node32</title>
<g id="a_node32"><a xlink:href="promise__impl_8hpp.html" target="_top" xlink:title=" ">
<polygon fill="none" stroke="black" points="142,-559.5 142,-589.5 238,-589.5 238,-559.5 142,-559.5"/>
<text text-anchor="start" x="150" y="-577.5" font-family="Helvetica,sans-Serif" font-size="10.00">yaclib/async/detail</text>
<text text-anchor="middle" x="190" y="-566.5" font-family="Helvetica,sans-Serif" font-size="10.00">/promise_impl.hpp</text>
</a>
</g>
</g>
<!-- Node2&#45;&gt;Node32 -->
<g id="edge54" class="edge">
<title>Node2&#45;&gt;Node32</title>
<path fill="none" stroke="midnightblue" d="M250.11,-682.32C240.17,-664.66 217.32,-624.04 202.83,-598.29"/>
<polygon fill="midnightblue" stroke="midnightblue" points="205.86,-596.54 197.9,-589.55 199.76,-599.98 205.86,-596.54"/>
</g>
<!-- Node4 -->
<g id="node4" class="node">
<title>Node4</title>
<g id="a_node4"><a xlink:href="base__core_8hpp.html" target="_top" xlink:title=" ">
<polygon fill="none" stroke="black" points="550,-358.5 550,-388.5 646,-388.5 646,-358.5 550,-358.5"/>
<text text-anchor="start" x="558" y="-376.5" font-family="Helvetica,sans-Serif" font-size="10.00">yaclib/async/detail</text>
<text text-anchor="middle" x="598" y="-365.5" font-family="Helvetica,sans-Serif" font-size="10.00">/base_core.hpp</text>
</a>
</g>
</g>
<!-- Node3&#45;&gt;Node4 -->
<g id="edge3" class="edge">
<title>Node3&#45;&gt;Node4</title>
<path fill="none" stroke="midnightblue" d="M304.27,-430.32C366.27,-418.54 473.76,-398.11 540.09,-385.51"/>
<polygon fill="midnightblue" stroke="midnightblue" points="540.8,-388.93 549.97,-383.63 539.49,-382.06 540.8,-388.93"/>
</g>
<!-- Node18 -->
<g id="node18" class="node">
<title>Node18</title>
<g id="a_node18"><a xlink:href="result_8hpp.html" target="_top" xlink:title=" ">
<polygon fill="none" stroke="black" points="205,-364 205,-383 307,-383 307,-364 205,-364"/>
<text text-anchor="middle" x="256" y="-371" font-family="Helvetica,sans-Serif" font-size="10.00">yaclib/util/result.hpp</text>
</a>
</g>
</g>
<!-- Node3&#45;&gt;Node18 -->
<g id="edge25" class="edge">
<title>Node3&#45;&gt;Node18</title>
<path fill="none" stroke="midnightblue" d="M256,-425.4C256,-416.06 256,-403.71 256,-393.52"/>
<polygon fill="midnightblue" stroke="midnightblue" points="259.5,-393.19 256,-383.19 252.5,-393.19 259.5,-393.19"/>
</g>
<!-- Node4&#45;&gt;Node5 -->
<g id="edge4" class="edge">
<title>Node4&#45;&gt;Node5</title>
<path fill="none" stroke="midnightblue" d="M549.89,-364.16C523.02,-357.16 490.85,-344.53 470,-322 458.36,-309.42 453.49,-290.2 451.45,-275.92"/>
<polygon fill="midnightblue" stroke="midnightblue" points="454.91,-275.32 450.35,-265.75 447.95,-276.07 454.91,-275.32"/>
</g>
<!-- Node6 -->
<g id="node6" class="node">
<title>Node6</title>
<g id="a_node6"><a xlink:href="task_8hpp.html" target="_top" xlink:title=" ">
<polygon fill="none" stroke="black" points="474.5,-190.5 474.5,-209.5 595.5,-209.5 595.5,-190.5 474.5,-190.5"/>
<text text-anchor="middle" x="535" y="-197.5" font-family="Helvetica,sans-Serif" font-size="10.00">yaclib/executor/task.hpp</text>
</a>
</g>
</g>
<!-- Node4&#45;&gt;Node6 -->
<g id="edge22" class="edge">
<title>Node4&#45;&gt;Node6</title>
<path fill="none" stroke="midnightblue" d="M605.35,-358.46C611.9,-344.04 619.51,-321.07 613,-302 601.11,-267.14 571.76,-234.96 552.65,-216.68"/>
<polygon fill="midnightblue" stroke="midnightblue" points="554.88,-213.97 545.17,-209.73 550.12,-219.1 554.88,-213.97"/>
</g>
<!-- Node10 -->
<g id="node10" class="node">
<title>Node10</title>
<g id="a_node10"><a xlink:title=" ">
<polygon fill="none" stroke="#bfbfbf" points="813,-0.5 813,-19.5 859,-19.5 859,-0.5 813,-0.5"/>
<text text-anchor="middle" x="836" y="-7.5" font-family="Helvetica,sans-Serif" font-size="10.00">atomic</text>
</a>
</g>
</g>
<!-- Node4&#45;&gt;Node10 -->
<g id="edge24" class="edge">
<title>Node4&#45;&gt;Node10</title>
<path fill="none" stroke="midnightblue" d="M626.33,-358.42C658.92,-339.98 708,-304.35 708,-257 708,-257 708,-257 708,-199 708,-122.97 780.42,-54.95 816.32,-25.9"/>
<polygon fill="midnightblue" stroke="midnightblue" points="818.51,-28.63 824.19,-19.69 814.17,-23.14 818.51,-28.63"/>
</g>
<!-- Node11 -->
<g id="node11" class="node">
<title>Node11</title>
<g id="a_node11"><a xlink:href="intrusive__ptr_8hpp.html" target="_top" xlink:title=" ">
<polygon fill="none" stroke="black" points="505.5,-56.5 505.5,-86.5 602.5,-86.5 602.5,-56.5 505.5,-56.5"/>
<text text-anchor="start" x="513.5" y="-74.5" font-family="Helvetica,sans-Serif" font-size="10.00">yaclib/util/intrusive</text>
<text text-anchor="middle" x="554" y="-63.5" font-family="Helvetica,sans-Serif" font-size="10.00">_ptr.hpp</text>
</a>
</g>
</g>
<!-- Node4&#45;&gt;Node11 -->
<g id="edge23" class="edge">
<title>Node4&#45;&gt;Node11</title>
<path fill="none" stroke="midnightblue" d="M609.17,-358.43C616.09,-348.79 624.33,-335.37 628,-322 630.35,-313.43 628.9,-310.84 628,-302 622.86,-251.44 627.41,-235.61 605,-190 595.69,-171.05 583.67,-172.77 574,-154 564.75,-136.05 559.65,-113.64 556.92,-96.86"/>
<polygon fill="midnightblue" stroke="midnightblue" points="560.36,-96.15 555.45,-86.76 553.43,-97.16 560.36,-96.15"/>
</g>
<!-- Node17 -->
<g id="node17" class="node">
<title>Node17</title>
<g id="a_node17"><a xlink:href="inline_8hpp.html" target="_top" xlink:title=" ">
<polygon fill="none" stroke="black" points="478.5,-302.5 478.5,-321.5 603.5,-321.5 603.5,-302.5 478.5,-302.5"/>
<text text-anchor="middle" x="541" y="-309.5" font-family="Helvetica,sans-Serif" font-size="10.00">yaclib/executor/inline.hpp</text>
</a>
</g>
</g>
<!-- Node4&#45;&gt;Node17 -->
<g id="edge20" class="edge">
<title>Node4&#45;&gt;Node17</title>
<path fill="none" stroke="midnightblue" d="M584.49,-358.4C576.04,-349.58 565.12,-338.18 556.34,-329.02"/>
<polygon fill="midnightblue" stroke="midnightblue" points="558.74,-326.46 549.29,-321.66 553.68,-331.3 558.74,-326.46"/>
</g>
<!-- Node5&#45;&gt;Node6 -->
<g id="edge5" class="edge">
<title>Node5&#45;&gt;Node6</title>
<path fill="none" stroke="midnightblue" d="M463.66,-246.32C476.92,-237.9 497.27,-224.97 512.85,-215.07"/>
<polygon fill="midnightblue" stroke="midnightblue" points="514.81,-217.97 521.38,-209.65 511.06,-212.06 514.81,-217.97"/>
</g>
<!-- Node5&#45;&gt;Node11 -->
<g id="edge19" class="edge">
<title>Node5&#45;&gt;Node11</title>
<path fill="none" stroke="midnightblue" d="M443.75,-246.42C428.28,-224.04 391.36,-162.85 419,-123 436.21,-98.19 467.2,-85.54 495.14,-79.11"/>
<polygon fill="midnightblue" stroke="midnightblue" points="496.19,-82.47 505.27,-77.01 494.77,-75.62 496.19,-82.47"/>
</g>
<!-- Node7 -->
<g id="node7" class="node">
<title>Node7</title>
<g id="a_node7"><a xlink:href="func_8hpp.html" target="_top" xlink:title=" ">
<polygon fill="none" stroke="black" points="582.5,-129 582.5,-148 679.5,-148 679.5,-129 582.5,-129"/>
<text text-anchor="middle" x="631" y="-136" font-family="Helvetica,sans-Serif" font-size="10.00">yaclib/util/func.hpp</text>
</a>
</g>
</g>
<!-- Node6&#45;&gt;Node7 -->
<g id="edge6" class="edge">
<title>Node6&#45;&gt;Node7</title>
<path fill="none" stroke="midnightblue" d="M548.75,-190.48C564.37,-180.8 590.06,-164.87 608.58,-153.39"/>
<polygon fill="midnightblue" stroke="midnightblue" points="610.62,-156.25 617.27,-148.01 606.93,-150.3 610.62,-156.25"/>
</g>
<!-- Node16 -->
<g id="node16" class="node">
<title>Node16</title>
<g id="a_node16"><a xlink:href="intrusive__node_8hpp.html" target="_top" xlink:title=" ">
<polygon fill="none" stroke="black" points="428.5,-123.5 428.5,-153.5 525.5,-153.5 525.5,-123.5 428.5,-123.5"/>
<text text-anchor="start" x="436.5" y="-141.5" font-family="Helvetica,sans-Serif" font-size="10.00">yaclib/util/intrusive</text>
<text text-anchor="middle" x="477" y="-130.5" font-family="Helvetica,sans-Serif" font-size="10.00">_node.hpp</text>
</a>
</g>
</g>
<!-- Node6&#45;&gt;Node16 -->
<g id="edge18" class="edge">
<title>Node6&#45;&gt;Node16</title>
<path fill="none" stroke="midnightblue" d="M526.69,-190.48C519.2,-182.79 507.87,-171.17 497.92,-160.96"/>
<polygon fill="midnightblue" stroke="midnightblue" points="500.16,-158.24 490.67,-153.52 495.14,-163.13 500.16,-158.24"/>
</g>
<!-- Node8 -->
<g id="node8" class="node">
<title>Node8</title>
<g id="a_node8"><a xlink:href="counters_8hpp.html" target="_top" xlink:title=" ">
<polygon fill="none" stroke="black" points="913,-62 913,-81 1029,-81 1029,-62 913,-62"/>
<text text-anchor="middle" x="971" y="-69" font-family="Helvetica,sans-Serif" font-size="10.00">yaclib/util/counters.hpp</text>
</a>
</g>
</g>
<!-- Node7&#45;&gt;Node8 -->
<g id="edge7" class="edge">
<title>Node7&#45;&gt;Node8</title>
<path fill="none" stroke="midnightblue" d="M675.8,-128.94C737.8,-117.08 849.67,-95.7 916.46,-82.93"/>
<polygon fill="midnightblue" stroke="midnightblue" points="917.21,-86.35 926.37,-81.03 915.89,-79.47 917.21,-86.35"/>
</g>
<!-- Node7&#45;&gt;Node11 -->
<g id="edge10" class="edge">
<title>Node7&#45;&gt;Node11</title>
<path fill="none" stroke="midnightblue" d="M620.62,-128.73C609.91,-119.7 592.82,-105.27 578.64,-93.3"/>
<polygon fill="midnightblue" stroke="midnightblue" points="580.59,-90.37 570.69,-86.59 576.07,-95.71 580.59,-90.37"/>
</g>
<!-- Node12 -->
<g id="node12" class="node">
<title>Node12</title>
<g id="a_node12"><a xlink:href="ref_8hpp.html" target="_top" xlink:title=" ">
<polygon fill="none" stroke="black" points="586.5,-0.5 586.5,-19.5 675.5,-19.5 675.5,-0.5 586.5,-0.5"/>
<text text-anchor="middle" x="631" y="-7.5" font-family="Helvetica,sans-Serif" font-size="10.00">yaclib/util/ref.hpp</text>
</a>
</g>
</g>
<!-- Node7&#45;&gt;Node12 -->
<g id="edge15" class="edge">
<title>Node7&#45;&gt;Node12</title>
<path fill="none" stroke="midnightblue" d="M631,-128.81C631,-108.49 631,-57.55 631,-29.78"/>
<polygon fill="midnightblue" stroke="midnightblue" points="634.5,-29.76 631,-19.76 627.5,-29.76 634.5,-29.76"/>
</g>
<!-- Node7&#45;&gt;Node14 -->
<g id="edge16" class="edge">
<title>Node7&#45;&gt;Node14</title>
<path fill="none" stroke="midnightblue" d="M607.97,-128.9C549.02,-106.91 392.57,-48.53 324.45,-23.11"/>
<polygon fill="midnightblue" stroke="midnightblue" points="325.66,-19.82 315.07,-19.61 323.21,-26.38 325.66,-19.82"/>
</g>
<!-- Node7&#45;&gt;Node15 -->
<g id="edge17" class="edge">
<title>Node7&#45;&gt;Node15</title>
<path fill="none" stroke="midnightblue" d="M636.64,-128.81C650.04,-108.13 684,-55.73 701.77,-28.32"/>
<polygon fill="midnightblue" stroke="midnightblue" points="704.82,-30.05 707.32,-19.76 698.95,-26.24 704.82,-30.05"/>
</g>
<!-- Node9 -->
<g id="node9" class="node">
<title>Node9</title>
<g id="a_node9"><a xlink:title=" ">
<polygon fill="none" stroke="#bfbfbf" points="927,-0.5 927,-19.5 1015,-19.5 1015,-0.5 927,-0.5"/>
<text text-anchor="middle" x="971" y="-7.5" font-family="Helvetica,sans-Serif" font-size="10.00">yaclib/config.hpp</text>
</a>
</g>
</g>
<!-- Node8&#45;&gt;Node9 -->
<g id="edge8" class="edge">
<title>Node8&#45;&gt;Node9</title>
<path fill="none" stroke="midnightblue" d="M971,-61.98C971,-53.58 971,-40.48 971,-29.66"/>
<polygon fill="midnightblue" stroke="midnightblue" points="974.5,-29.51 971,-19.51 967.5,-29.51 974.5,-29.51"/>
</g>
<!-- Node8&#45;&gt;Node10 -->
<g id="edge9" class="edge">
<title>Node8&#45;&gt;Node10</title>
<path fill="none" stroke="midnightblue" d="M951.66,-61.98C928.9,-51.95 890.91,-35.2 864.71,-23.65"/>
<polygon fill="midnightblue" stroke="midnightblue" points="865.87,-20.34 855.31,-19.51 863.05,-26.74 865.87,-20.34"/>
</g>
<!-- Node11&#45;&gt;Node12 -->
<g id="edge11" class="edge">
<title>Node11&#45;&gt;Node12</title>
<path fill="none" stroke="midnightblue" d="M572.25,-56.4C584.13,-47.22 599.61,-35.26 611.69,-25.92"/>
<polygon fill="midnightblue" stroke="midnightblue" points="614.02,-28.54 619.8,-19.66 609.74,-23 614.02,-28.54"/>
</g>
<!-- Node13 -->
<g id="node13" class="node">
<title>Node13</title>
<g id="a_node13"><a xlink:title=" ">
<polygon fill="none" stroke="#bfbfbf" points="513,-0.5 513,-19.5 569,-19.5 569,-0.5 513,-0.5"/>
<text text-anchor="middle" x="541" y="-7.5" font-family="Helvetica,sans-Serif" font-size="10.00">algorithm</text>
</a>
</g>
</g>
<!-- Node11&#45;&gt;Node13 -->
<g id="edge12" class="edge">
<title>Node11&#45;&gt;Node13</title>
<path fill="none" stroke="midnightblue" d="M550.92,-56.4C549.17,-48.38 546.95,-38.23 545.06,-29.57"/>
<polygon fill="midnightblue" stroke="midnightblue" points="548.45,-28.68 542.89,-19.66 541.61,-30.17 548.45,-28.68"/>
</g>
<!-- Node11&#45;&gt;Node14 -->
<g id="edge13" class="edge">
<title>Node11&#45;&gt;Node14</title>
<path fill="none" stroke="midnightblue" d="M505.33,-59.45C455.7,-48.18 379.55,-30.88 332.92,-20.29"/>
<polygon fill="midnightblue" stroke="midnightblue" points="333.68,-16.88 323.16,-18.08 332.13,-23.7 333.68,-16.88"/>
</g>
<!-- Node11&#45;&gt;Node15 -->
<g id="edge14" class="edge">
<title>Node11&#45;&gt;Node15</title>
<path fill="none" stroke="midnightblue" d="M591.68,-56.4C619.89,-45.84 657.93,-31.61 683.84,-21.91"/>
<polygon fill="midnightblue" stroke="midnightblue" points="685.33,-25.09 693.47,-18.31 682.88,-18.54 685.33,-25.09"/>
</g>
<!-- Node17&#45;&gt;Node5 -->
<g id="edge21" class="edge">
<title>Node17&#45;&gt;Node5</title>
<path fill="none" stroke="midnightblue" d="M526.38,-302.32C512.05,-293.82 489.99,-280.73 473.25,-270.8"/>
<polygon fill="midnightblue" stroke="midnightblue" points="474.97,-267.75 464.58,-265.65 471.4,-273.77 474.97,-267.75"/>
</g>
<!-- Node18&#45;&gt;Node19 -->
<g id="edge26" class="edge">
<title>Node18&#45;&gt;Node19</title>
<path fill="none" stroke="midnightblue" d="M232.36,-363.98C204.06,-353.77 156.47,-336.61 124.41,-325.05"/>
<polygon fill="midnightblue" stroke="midnightblue" points="125.19,-321.61 114.6,-321.51 122.82,-328.19 125.19,-321.61"/>
</g>
<!-- Node21 -->
<g id="node21" class="node">
<title>Node21</title>
<g id="a_node21"><a xlink:title=" ">
<polygon fill="none" stroke="#bfbfbf" points="193,-246.5 193,-265.5 251,-265.5 251,-246.5 193,-246.5"/>
<text text-anchor="middle" x="222" y="-253.5" font-family="Helvetica,sans-Serif" font-size="10.00">exception</text>
</a>
</g>
</g>
<!-- Node18&#45;&gt;Node21 -->
<g id="edge30" class="edge">
<title>Node18&#45;&gt;Node21</title>
<path fill="none" stroke="midnightblue" d="M273.44,-363.85C296.5,-351.19 332.49,-326.48 317,-302 304.67,-282.52 281.38,-271.31 260.94,-264.95"/>
<polygon fill="midnightblue" stroke="midnightblue" points="261.77,-261.54 251.2,-262.2 259.87,-268.28 261.77,-261.54"/>
</g>
<!-- Node22 -->
<g id="node22" class="node">
<title>Node22</title>
<g id="a_node22"><a xlink:title=" ">
<polygon fill="none" stroke="#bfbfbf" points="170.5,-302.5 170.5,-321.5 243.5,-321.5 243.5,-302.5 170.5,-302.5"/>
<text text-anchor="middle" x="207" y="-309.5" font-family="Helvetica,sans-Serif" font-size="10.00">system_error</text>
</a>
</g>
</g>
<!-- Node18&#45;&gt;Node22 -->
<g id="edge31" class="edge">
<title>Node18&#45;&gt;Node22</title>
<path fill="none" stroke="midnightblue" d="M248.98,-363.98C241.56,-354.96 229.67,-340.52 220.43,-329.31"/>
<polygon fill="midnightblue" stroke="midnightblue" points="223.07,-327 214.01,-321.51 217.66,-331.45 223.07,-327"/>
</g>
<!-- Node23 -->
<g id="node23" class="node">
<title>Node23</title>
<g id="a_node23"><a xlink:title=" ">
<polygon fill="none" stroke="#bfbfbf" points="262,-302.5 262,-321.5 308,-321.5 308,-302.5 262,-302.5"/>
<text text-anchor="middle" x="285" y="-309.5" font-family="Helvetica,sans-Serif" font-size="10.00">variant</text>
</a>
</g>
</g>
<!-- Node18&#45;&gt;Node23 -->
<g id="edge32" class="edge">
<title>Node18&#45;&gt;Node23</title>
<path fill="none" stroke="midnightblue" d="M260.15,-363.98C264.38,-355.32 271.04,-341.65 276.4,-330.65"/>
<polygon fill="midnightblue" stroke="midnightblue" points="279.62,-332.03 280.85,-321.51 273.33,-328.96 279.62,-332.03"/>
</g>
<!-- Node19&#45;&gt;Node14 -->
<g id="edge29" class="edge">
<title>Node19&#45;&gt;Node14</title>
<path fill="none" stroke="midnightblue" d="M92.96,-302.5C97.03,-284.09 106,-239.16 106,-201 106,-201 106,-201 106,-137.5 106,-67.83 196.32,-33.83 251.09,-19.62"/>
<polygon fill="midnightblue" stroke="midnightblue" points="252.01,-23 260.87,-17.19 250.32,-16.2 252.01,-23"/>
</g>
<!-- Node20 -->
<g id="node20" class="node">
<title>Node20</title>
<g id="a_node20"><a xlink:title=" ">
<polygon fill="none" stroke="#bfbfbf" points="298.5,-246.5 298.5,-265.5 347.5,-265.5 347.5,-246.5 298.5,-246.5"/>
<text text-anchor="middle" x="323" y="-253.5" font-family="Helvetica,sans-Serif" font-size="10.00">cassert</text>
</a>
</g>
</g>
<!-- Node19&#45;&gt;Node20 -->
<g id="edge27" class="edge">
<title>Node19&#45;&gt;Node20</title>
<path fill="none" stroke="midnightblue" d="M127.76,-302.44C171.88,-292.17 245.3,-275.09 288.42,-265.05"/>
<polygon fill="midnightblue" stroke="midnightblue" points="289.24,-268.45 298.18,-262.78 287.65,-261.63 289.24,-268.45"/>
</g>
<!-- Node19&#45;&gt;Node21 -->
<g id="edge28" class="edge">
<title>Node19&#45;&gt;Node21</title>
<path fill="none" stroke="midnightblue" d="M111.76,-302.44C133.32,-293.56 167.26,-279.56 191.79,-269.45"/>
<polygon fill="midnightblue" stroke="midnightblue" points="193.43,-272.56 201.34,-265.52 190.76,-266.09 193.43,-272.56"/>
</g>
<!-- Node24&#45;&gt;Node2 -->
<g id="edge38" class="edge">
<title>Node24&#45;&gt;Node2</title>
<path fill="none" stroke="midnightblue" d="M161.02,-645.65C181.9,-654.35 211.67,-667.85 232.18,-677.86"/>
<polygon fill="midnightblue" stroke="midnightblue" points="230.64,-681.01 241.16,-682.32 233.76,-674.74 230.64,-681.01"/>
</g>
<!-- Node24&#45;&gt;Node3 -->
<g id="edge36" class="edge">
<title>Node24&#45;&gt;Node3</title>
<path fill="none" stroke="midnightblue" d="M134.1,-626.13C129.83,-611.48 123.34,-581.6 133,-559 151.34,-516.12 193.85,-481.43 223.74,-461.15"/>
<polygon fill="midnightblue" stroke="midnightblue" points="225.77,-464 232.19,-455.57 221.92,-458.16 225.77,-464"/>
</g>
<!-- Node24&#45;&gt;Node19 -->
<g id="edge37" class="edge">
<title>Node24&#45;&gt;Node19</title>
<path fill="none" stroke="midnightblue" d="M129.52,-626.49C113.23,-607.04 76,-557.26 76,-508.5 76,-508.5 76,-508.5 76,-439.5 76,-400.93 82.96,-356.21 87.4,-331.62"/>
<polygon fill="midnightblue" stroke="midnightblue" points="90.88,-332.02 89.28,-321.55 84,-330.73 90.88,-332.02"/>
</g>
<!-- Node24&#45;&gt;Node25 -->
<g id="edge39" class="edge">
<title>Node24&#45;&gt;Node25</title>
<path fill="none" stroke="midnightblue" d="M166.37,-626.48C196.86,-617.63 245.36,-603.55 283.68,-592.43"/>
<polygon fill="midnightblue" stroke="midnightblue" points="285.06,-595.67 293.69,-589.52 283.11,-588.95 285.06,-595.67"/>
</g>
<!-- Node24&#45;&gt;Node32 -->
<g id="edge52" class="edge">
<title>Node24&#45;&gt;Node32</title>
<path fill="none" stroke="midnightblue" d="M144.59,-626.48C151.37,-618.87 161.59,-607.4 170.61,-597.26"/>
<polygon fill="midnightblue" stroke="midnightblue" points="173.47,-599.32 177.51,-589.52 168.24,-594.66 173.47,-599.32"/>
</g>
<!-- Node25&#45;&gt;Node20 -->
<g id="edge51" class="edge">
<title>Node25&#45;&gt;Node20</title>
<path fill="none" stroke="midnightblue" d="M347.83,-559.2C351.56,-549.24 356.06,-535.54 358,-523 360.11,-509.38 358.9,-505.75 358,-492 352.43,-407.01 347.81,-385.88 333,-302 331.45,-293.22 329.36,-283.56 327.48,-275.45"/>
<polygon fill="midnightblue" stroke="midnightblue" points="330.86,-274.5 325.14,-265.58 324.05,-276.12 330.86,-274.5"/>
</g>
<!-- Node26 -->
<g id="node26" class="node">
<title>Node26</title>
<g id="a_node26"><a xlink:href="wait_8hpp.html" target="_top" xlink:title=" ">
<polygon fill="none" stroke="black" points="480.5,-498 480.5,-517 581.5,-517 581.5,-498 480.5,-498"/>
<text text-anchor="middle" x="531" y="-505" font-family="Helvetica,sans-Serif" font-size="10.00">yaclib/algo/wait.hpp</text>
</a>
</g>
</g>
<!-- Node25&#45;&gt;Node26 -->
<g id="edge40" class="edge">
<title>Node25&#45;&gt;Node26</title>
<path fill="none" stroke="midnightblue" d="M383.01,-559.4C416.91,-547.74 464.49,-531.37 496.47,-520.38"/>
<polygon fill="midnightblue" stroke="midnightblue" points="497.95,-523.57 506.26,-517.01 495.67,-516.95 497.95,-523.57"/>
</g>
<!-- Node31 -->
<g id="node31" class="node">
<title>Node31</title>
<g id="a_node31"><a xlink:href="core_8hpp.html" target="_top" xlink:title=" ">
<polygon fill="none" stroke="black" points="253,-492.5 253,-522.5 349,-522.5 349,-492.5 253,-492.5"/>
<text text-anchor="start" x="261" y="-510.5" font-family="Helvetica,sans-Serif" font-size="10.00">yaclib/async/detail</text>
<text text-anchor="middle" x="301" y="-499.5" font-family="Helvetica,sans-Serif" font-size="10.00">/core.hpp</text>
</a>
</g>
</g>
<!-- Node25&#45;&gt;Node31 -->
<g id="edge49" class="edge">
<title>Node25&#45;&gt;Node31</title>
<path fill="none" stroke="midnightblue" d="M333.1,-559.4C327.89,-551.13 321.19,-540.51 315.26,-531.1"/>
<polygon fill="midnightblue" stroke="midnightblue" points="318.17,-529.17 309.88,-522.58 312.25,-532.9 318.17,-529.17"/>
</g>
<!-- Node27 -->
<g id="node27" class="node">
<title>Node27</title>
<g id="a_node27"><a xlink:href="wait__impl_8hpp.html" target="_top" xlink:title=" ">
<polygon fill="none" stroke="black" points="553.5,-425.5 553.5,-455.5 642.5,-455.5 642.5,-425.5 553.5,-425.5"/>
<text text-anchor="start" x="561.5" y="-443.5" font-family="Helvetica,sans-Serif" font-size="10.00">yaclib/algo/detail</text>
<text text-anchor="middle" x="598" y="-432.5" font-family="Helvetica,sans-Serif" font-size="10.00">/wait_impl.hpp</text>
</a>
</g>
</g>
<!-- Node26&#45;&gt;Node27 -->
<g id="edge41" class="edge">
<title>Node26&#45;&gt;Node27</title>
<path fill="none" stroke="midnightblue" d="M540.04,-497.73C549.26,-488.78 563.94,-474.54 576.22,-462.63"/>
<polygon fill="midnightblue" stroke="midnightblue" points="578.74,-465.06 583.48,-455.59 573.86,-460.04 578.74,-465.06"/>
</g>
<!-- Node27&#45;&gt;Node4 -->
<g id="edge42" class="edge">
<title>Node27&#45;&gt;Node4</title>
<path fill="none" stroke="midnightblue" d="M598,-425.4C598,-417.64 598,-407.81 598,-398.86"/>
<polygon fill="midnightblue" stroke="midnightblue" points="601.5,-398.58 598,-388.58 594.5,-398.58 601.5,-398.58"/>
</g>
<!-- Node27&#45;&gt;Node8 -->
<g id="edge47" class="edge">
<title>Node27&#45;&gt;Node8</title>
<path fill="none" stroke="midnightblue" d="M642.63,-433.47C739.21,-419.16 959,-379.33 959,-313 959,-313 959,-313 959,-199 959,-160.53 964.57,-115.77 968.12,-91.14"/>
<polygon fill="midnightblue" stroke="midnightblue" points="971.61,-91.47 969.62,-81.06 964.69,-90.44 971.61,-91.47"/>
</g>
<!-- Node27&#45;&gt;Node19 -->
<g id="edge48" class="edge">
<title>Node27&#45;&gt;Node19</title>
<path fill="none" stroke="midnightblue" d="M553.36,-436.69C462.73,-430.54 260.29,-414.36 196,-389 160.65,-375.05 126.25,-346.44 106.92,-328.57"/>
<polygon fill="midnightblue" stroke="midnightblue" points="109.28,-325.98 99.61,-321.65 104.46,-331.06 109.28,-325.98"/>
</g>
<!-- Node28 -->
<g id="node28" class="node">
<title>Node28</title>
<g id="a_node28"><a xlink:href="wait__core_8hpp.html" target="_top" xlink:title=" ">
<polygon fill="none" stroke="black" points="736,-358.5 736,-388.5 832,-388.5 832,-358.5 736,-358.5"/>
<text text-anchor="start" x="744" y="-376.5" font-family="Helvetica,sans-Serif" font-size="10.00">yaclib/async/detail</text>
<text text-anchor="middle" x="784" y="-365.5" font-family="Helvetica,sans-Serif" font-size="10.00">/wait_core.hpp</text>
</a>
</g>
</g>
<!-- Node27&#45;&gt;Node28 -->
<g id="edge43" class="edge">
<title>Node27&#45;&gt;Node28</title>
<path fill="none" stroke="midnightblue" d="M638.36,-425.4C666.51,-415.56 704.26,-402.37 734.27,-391.88"/>
<polygon fill="midnightblue" stroke="midnightblue" points="735.43,-395.18 743.72,-388.58 733.12,-388.57 735.43,-395.18"/>
</g>
<!-- Node28&#45;&gt;Node12 -->
<g id="edge44" class="edge">
<title>Node28&#45;&gt;Node12</title>
<path fill="none" stroke="midnightblue" d="M776.13,-358.41C765,-337.13 746,-295.21 746,-257 746,-257 746,-257 746,-199 746,-125.59 681.41,-56.62 649.04,-26.67"/>
<polygon fill="midnightblue" stroke="midnightblue" points="650.97,-23.7 641.21,-19.6 646.29,-28.9 650.97,-23.7"/>
</g>
<!-- Node29 -->
<g id="node29" class="node">
<title>Node29</title>
<g id="a_node29"><a xlink:title=" ">
<polygon fill="none" stroke="#bfbfbf" points="774.5,-302.5 774.5,-321.5 869.5,-321.5 869.5,-302.5 774.5,-302.5"/>
<text text-anchor="middle" x="822" y="-309.5" font-family="Helvetica,sans-Serif" font-size="10.00">condition_variable</text>
</a>
</g>
</g>
<!-- Node28&#45;&gt;Node29 -->
<g id="edge45" class="edge">
<title>Node28&#45;&gt;Node29</title>
<path fill="none" stroke="midnightblue" d="M793.01,-358.4C798.41,-349.93 805.33,-339.1 811.05,-330.14"/>
<polygon fill="midnightblue" stroke="midnightblue" points="814.04,-331.97 816.47,-321.66 808.14,-328.2 814.04,-331.97"/>
</g>
<!-- Node30 -->
<g id="node30" class="node">
<title>Node30</title>
<g id="a_node30"><a xlink:title=" ">
<polygon fill="none" stroke="#bfbfbf" points="887.5,-302.5 887.5,-321.5 930.5,-321.5 930.5,-302.5 887.5,-302.5"/>
<text text-anchor="middle" x="909" y="-309.5" font-family="Helvetica,sans-Serif" font-size="10.00">mutex</text>
</a>
</g>
</g>
<!-- Node28&#45;&gt;Node30 -->
<g id="edge46" class="edge">
<title>Node28&#45;&gt;Node30</title>
<path fill="none" stroke="midnightblue" d="M813.62,-358.4C834.22,-348.59 861.48,-335.62 881.58,-326.05"/>
<polygon fill="midnightblue" stroke="midnightblue" points="883.29,-329.12 890.81,-321.66 880.28,-322.8 883.29,-329.12"/>
</g>
<!-- Node31&#45;&gt;Node3 -->
<g id="edge50" class="edge">
<title>Node31&#45;&gt;Node3</title>
<path fill="none" stroke="midnightblue" d="M291.24,-492.4C285.46,-484.05 278.01,-473.29 271.45,-463.81"/>
<polygon fill="midnightblue" stroke="midnightblue" points="274.32,-461.81 265.75,-455.58 268.56,-465.79 274.32,-461.81"/>
</g>
</g>
</svg>
