<?xml version="1.0" encoding="UTF-8" standalone="no"?>
<!DOCTYPE svg PUBLIC "-//W3C//DTD SVG 1.1//EN"
 "http://www.w3.org/Graphics/SVG/1.1/DTD/svg11.dtd">
<!-- Generated by graphviz version 2.44.0 ()
 -->
<!-- Title: test/example/async/when_all.cpp Pages: 1 -->
<svg width="1447pt" height="855pt"
 viewBox="0.00 0.00 1446.50 855.00" xmlns="http://www.w3.org/2000/svg" xmlns:xlink="http://www.w3.org/1999/xlink">
<g id="graph0" class="graph" transform="scale(1 1) rotate(0) translate(4 851)">
<title>test/example/async/when_all.cpp</title>
<!-- Node1 -->
<g id="node1" class="node">
<title>Node1</title>
<g id="a_node1"><a xlink:title=" ">
<polygon fill="#bfbfbf" stroke="black" points="1203.5,-816.5 1203.5,-846.5 1304.5,-846.5 1304.5,-816.5 1203.5,-816.5"/>
<text text-anchor="start" x="1211.5" y="-834.5" font-family="Helvetica,sans-Serif" font-size="10.00">test/example/async</text>
<text text-anchor="middle" x="1254" y="-823.5" font-family="Helvetica,sans-Serif" font-size="10.00">/when_all.cpp</text>
</a>
</g>
</g>
<!-- Node2 -->
<g id="node2" class="node">
<title>Node2</title>
<g id="a_node2"><a xlink:href="when__all_8hpp.html" target="_top" xlink:title=" ">
<polygon fill="none" stroke="black" points="522,-760.5 522,-779.5 644,-779.5 644,-760.5 522,-760.5"/>
<text text-anchor="middle" x="583" y="-767.5" font-family="Helvetica,sans-Serif" font-size="10.00">yaclib/algo/when_all.hpp</text>
</a>
</g>
</g>
<!-- Node1&#45;&gt;Node2 -->
<g id="edge1" class="edge">
<title>Node1&#45;&gt;Node2</title>
<path fill="none" stroke="midnightblue" d="M1203.29,-826C1085.16,-815.53 791.33,-789.47 654.82,-777.37"/>
<polygon fill="midnightblue" stroke="midnightblue" points="654.75,-773.85 644.48,-776.45 654.13,-780.82 654.75,-773.85"/>
</g>
<!-- Node37 -->
<g id="node37" class="node">
<title>Node37</title>
<g id="a_node37"><a xlink:href="run_8hpp.html" target="_top" xlink:title=" ">
<polygon fill="none" stroke="black" points="851,-760.5 851,-779.5 955,-779.5 955,-760.5 851,-760.5"/>
<text text-anchor="middle" x="903" y="-767.5" font-family="Helvetica,sans-Serif" font-size="10.00">yaclib/async/run.hpp</text>
</a>
</g>
</g>
<!-- Node1&#45;&gt;Node37 -->
<g id="edge62" class="edge">
<title>Node1&#45;&gt;Node37</title>
<path fill="none" stroke="midnightblue" d="M1203.34,-821.91C1139.86,-811.15 1031.22,-792.74 963.46,-781.25"/>
<polygon fill="midnightblue" stroke="midnightblue" points="963.81,-777.76 953.36,-779.54 962.64,-784.66 963.81,-777.76"/>
</g>
<!-- Node38 -->
<g id="node38" class="node">
<title>Node38</title>
<g id="a_node38"><a xlink:href="thread__pool_8hpp.html" target="_top" xlink:title=" ">
<polygon fill="none" stroke="black" points="1135.5,-313.5 1135.5,-343.5 1246.5,-343.5 1246.5,-313.5 1135.5,-313.5"/>
<text text-anchor="start" x="1143.5" y="-331.5" font-family="Helvetica,sans-Serif" font-size="10.00">yaclib/executor/thread</text>
<text text-anchor="middle" x="1191" y="-320.5" font-family="Helvetica,sans-Serif" font-size="10.00">_pool.hpp</text>
</a>
</g>
</g>
<!-- Node1&#45;&gt;Node38 -->
<g id="edge67" class="edge">
<title>Node1&#45;&gt;Node38</title>
<path fill="none" stroke="midnightblue" d="M1245.09,-816.16C1232.76,-794.91 1212,-753.41 1212,-715 1212,-715 1212,-715 1212,-461.5 1212,-423.36 1203.34,-379.79 1197.15,-353.47"/>
<polygon fill="midnightblue" stroke="midnightblue" points="1200.52,-352.53 1194.75,-343.64 1193.72,-354.19 1200.52,-352.53"/>
</g>
<!-- Node42 -->
<g id="node42" class="node">
<title>Node42</title>
<g id="a_node42"><a xlink:title=" ">
<polygon fill="none" stroke="#bfbfbf" points="1253,-252 1253,-271 1297,-271 1297,-252 1253,-252"/>
<text text-anchor="middle" x="1275" y="-259" font-family="Helvetica,sans-Serif" font-size="10.00">thread</text>
</a>
</g>
</g>
<!-- Node1&#45;&gt;Node42 -->
<g id="edge77" class="edge">
<title>Node1&#45;&gt;Node42</title>
<path fill="none" stroke="midnightblue" d="M1258.25,-816.43C1264.39,-794.82 1275,-752.09 1275,-715 1275,-715 1275,-715 1275,-394.5 1275,-354.16 1275,-306.88 1275,-281.28"/>
<polygon fill="midnightblue" stroke="midnightblue" points="1278.5,-281.15 1275,-271.15 1271.5,-281.15 1278.5,-281.15"/>
</g>
<!-- Node43 -->
<g id="node43" class="node">
<title>Node43</title>
<g id="a_node43"><a xlink:title=" ">
<polygon fill="none" stroke="#bfbfbf" points="1303,-760.5 1303,-779.5 1349,-779.5 1349,-760.5 1303,-760.5"/>
<text text-anchor="middle" x="1326" y="-767.5" font-family="Helvetica,sans-Serif" font-size="10.00">chrono</text>
</a>
</g>
</g>
<!-- Node1&#45;&gt;Node43 -->
<g id="edge76" class="edge">
<title>Node1&#45;&gt;Node43</title>
<path fill="none" stroke="midnightblue" d="M1271.06,-816.4C1282.06,-807.31 1296.37,-795.49 1307.62,-786.19"/>
<polygon fill="midnightblue" stroke="midnightblue" points="1310.04,-788.73 1315.52,-779.66 1305.59,-783.33 1310.04,-788.73"/>
</g>
<!-- Node44 -->
<g id="node44" class="node">
<title>Node44</title>
<g id="a_node44"><a xlink:title=" ">
<polygon fill="none" stroke="#bfbfbf" points="1367.5,-760.5 1367.5,-779.5 1438.5,-779.5 1438.5,-760.5 1367.5,-760.5"/>
<text text-anchor="middle" x="1403" y="-767.5" font-family="Helvetica,sans-Serif" font-size="10.00">gtest/gtest.h</text>
</a>
</g>
</g>
<!-- Node1&#45;&gt;Node44 -->
<g id="edge78" class="edge">
<title>Node1&#45;&gt;Node44</title>
<path fill="none" stroke="midnightblue" d="M1289.31,-816.4C1314.42,-806.37 1347.84,-793.03 1371.94,-783.4"/>
<polygon fill="midnightblue" stroke="midnightblue" points="1373.33,-786.62 1381.32,-779.66 1370.73,-780.12 1373.33,-786.62"/>
</g>
<!-- Node3 -->
<g id="node3" class="node">
<title>Node3</title>
<g id="a_node3"><a xlink:href="future_8hpp.html" target="_top" xlink:title=" ">
<polygon fill="none" stroke="black" points="655,-704.5 655,-723.5 771,-723.5 771,-704.5 655,-704.5"/>
<text text-anchor="middle" x="713" y="-711.5" font-family="Helvetica,sans-Serif" font-size="10.00">yaclib/async/future.hpp</text>
</a>
</g>
</g>
<!-- Node2&#45;&gt;Node3 -->
<g id="edge2" class="edge">
<title>Node2&#45;&gt;Node3</title>
<path fill="none" stroke="midnightblue" d="M603.6,-760.44C624.99,-751.56 658.68,-737.56 683.02,-727.45"/>
<polygon fill="midnightblue" stroke="midnightblue" points="684.61,-730.58 692.5,-723.52 681.92,-724.12 684.61,-730.58"/>
</g>
<!-- Node15 -->
<g id="node15" class="node">
<title>Node15</title>
<g id="a_node15"><a xlink:title=" ">
<polygon fill="none" stroke="#bfbfbf" points="230,-0.5 230,-19.5 292,-19.5 292,-0.5 230,-0.5"/>
<text text-anchor="middle" x="261" y="-7.5" font-family="Helvetica,sans-Serif" font-size="10.00">type_traits</text>
</a>
</g>
</g>
<!-- Node2&#45;&gt;Node15 -->
<g id="edge59" class="edge">
<title>Node2&#45;&gt;Node15</title>
<path fill="none" stroke="midnightblue" d="M521.87,-768.57C386.23,-765.96 72,-750.09 72,-659 72,-659 72,-659 72,-260.5 72,-253.2 205.35,-82.13 248.03,-27.56"/>
<polygon fill="midnightblue" stroke="midnightblue" points="250.87,-29.62 254.27,-19.58 245.35,-25.3 250.87,-29.62"/>
</g>
<!-- Node16 -->
<g id="node16" class="node">
<title>Node16</title>
<g id="a_node16"><a xlink:title=" ">
<polygon fill="none" stroke="#bfbfbf" points="505.5,-0.5 505.5,-19.5 544.5,-19.5 544.5,-0.5 505.5,-0.5"/>
<text text-anchor="middle" x="525" y="-7.5" font-family="Helvetica,sans-Serif" font-size="10.00">utility</text>
</a>
</g>
</g>
<!-- Node2&#45;&gt;Node16 -->
<g id="edge60" class="edge">
<title>Node2&#45;&gt;Node16</title>
<path fill="none" stroke="midnightblue" d="M644.09,-765.92C685.3,-761.35 739.37,-750.33 780,-724 957.38,-609.03 998.99,-544.47 1066,-344 1070.37,-330.93 1066.55,-326.77 1066,-313 1064,-263.1 1057,-250.94 1057,-201 1057,-201 1057,-201 1057,-137.5 1057,-33.45 666.95,-14.84 554.82,-11.64"/>
<polygon fill="midnightblue" stroke="midnightblue" points="554.65,-8.13 544.57,-11.37 554.47,-15.13 554.65,-8.13"/>
</g>
<!-- Node25 -->
<g id="node25" class="node">
<title>Node25</title>
<g id="a_node25"><a xlink:href="promise_8hpp.html" target="_top" xlink:title=" ">
<polygon fill="none" stroke="black" points="498.5,-648.5 498.5,-667.5 623.5,-667.5 623.5,-648.5 498.5,-648.5"/>
<text text-anchor="middle" x="561" y="-655.5" font-family="Helvetica,sans-Serif" font-size="10.00">yaclib/async/promise.hpp</text>
</a>
</g>
</g>
<!-- Node2&#45;&gt;Node25 -->
<g id="edge56" class="edge">
<title>Node2&#45;&gt;Node25</title>
<path fill="none" stroke="midnightblue" d="M564.02,-760.4C550.11,-752.95 532.29,-740.74 524,-724 515.43,-706.68 529.32,-687.54 542.46,-674.54"/>
<polygon fill="midnightblue" stroke="midnightblue" points="544.95,-677.01 549.93,-667.66 540.21,-671.86 544.95,-677.01"/>
</g>
<!-- Node34 -->
<g id="node34" class="node">
<title>Node34</title>
<g id="a_node34"><a xlink:title=" ">
<polygon fill="none" stroke="#bfbfbf" points="533,-704.5 533,-723.5 571,-723.5 571,-704.5 533,-704.5"/>
<text text-anchor="middle" x="552" y="-711.5" font-family="Helvetica,sans-Serif" font-size="10.00">array</text>
</a>
</g>
</g>
<!-- Node2&#45;&gt;Node34 -->
<g id="edge57" class="edge">
<title>Node2&#45;&gt;Node34</title>
<path fill="none" stroke="midnightblue" d="M577.88,-760.08C573.59,-752.61 567.34,-741.72 562.06,-732.52"/>
<polygon fill="midnightblue" stroke="midnightblue" points="565.04,-730.68 557.02,-723.75 558.97,-734.17 565.04,-730.68"/>
</g>
<!-- Node35 -->
<g id="node35" class="node">
<title>Node35</title>
<g id="a_node35"><a xlink:title=" ">
<polygon fill="none" stroke="#bfbfbf" points="589.5,-704.5 589.5,-723.5 636.5,-723.5 636.5,-704.5 589.5,-704.5"/>
<text text-anchor="middle" x="613" y="-711.5" font-family="Helvetica,sans-Serif" font-size="10.00">iterator</text>
</a>
</g>
</g>
<!-- Node2&#45;&gt;Node35 -->
<g id="edge58" class="edge">
<title>Node2&#45;&gt;Node35</title>
<path fill="none" stroke="midnightblue" d="M587.95,-760.08C592.1,-752.61 598.15,-741.72 603.27,-732.52"/>
<polygon fill="midnightblue" stroke="midnightblue" points="606.34,-734.19 608.14,-723.75 600.22,-730.79 606.34,-734.19"/>
</g>
<!-- Node36 -->
<g id="node36" class="node">
<title>Node36</title>
<g id="a_node36"><a xlink:title=" ">
<polygon fill="none" stroke="#bfbfbf" points="0,-704.5 0,-723.5 44,-723.5 44,-704.5 0,-704.5"/>
<text text-anchor="middle" x="22" y="-711.5" font-family="Helvetica,sans-Serif" font-size="10.00">vector</text>
</a>
</g>
</g>
<!-- Node2&#45;&gt;Node36 -->
<g id="edge61" class="edge">
<title>Node2&#45;&gt;Node36</title>
<path fill="none" stroke="midnightblue" d="M521.98,-766.93C423.69,-762.88 224.48,-751.76 58,-724 56.75,-723.79 55.48,-723.56 54.2,-723.32"/>
<polygon fill="midnightblue" stroke="midnightblue" points="54.87,-719.88 44.35,-721.17 53.38,-726.72 54.87,-719.88"/>
</g>
<!-- Node4 -->
<g id="node4" class="node">
<title>Node4</title>
<g id="a_node4"><a xlink:href="result__core_8hpp.html" target="_top" xlink:title=" ">
<polygon fill="none" stroke="black" points="627,-447.5 627,-477.5 723,-477.5 723,-447.5 627,-447.5"/>
<text text-anchor="start" x="635" y="-465.5" font-family="Helvetica,sans-Serif" font-size="10.00">yaclib/async/detail</text>
<text text-anchor="middle" x="675" y="-454.5" font-family="Helvetica,sans-Serif" font-size="10.00">/result_core.hpp</text>
</a>
</g>
</g>
<!-- Node3&#45;&gt;Node4 -->
<g id="edge3" class="edge">
<title>Node3&#45;&gt;Node4</title>
<path fill="none" stroke="midnightblue" d="M711.81,-704.34C708.89,-683.24 701.1,-627.46 694,-581 689.05,-548.58 682.93,-511.2 679,-487.47"/>
<polygon fill="midnightblue" stroke="midnightblue" points="682.45,-486.89 677.36,-477.6 675.55,-488.03 682.45,-486.89"/>
</g>
<!-- Node6 -->
<g id="node6" class="node">
<title>Node6</title>
<g id="a_node6"><a xlink:href="executor_8hpp.html" target="_top" xlink:title=" ">
<polygon fill="none" stroke="black" points="715.5,-252 715.5,-271 854.5,-271 854.5,-252 715.5,-252"/>
<text text-anchor="middle" x="785" y="-259" font-family="Helvetica,sans-Serif" font-size="10.00">yaclib/executor/executor.hpp</text>
</a>
</g>
</g>
<!-- Node3&#45;&gt;Node6 -->
<g id="edge34" class="edge">
<title>Node3&#45;&gt;Node6</title>
<path fill="none" stroke="midnightblue" d="M717.42,-704.21C721.79,-695.26 728.47,-680.91 733,-668 782.28,-527.52 798.95,-491.65 818,-344 819.76,-330.34 821.93,-326.2 818,-313 814.29,-300.52 806.4,-288.26 799.27,-278.94"/>
<polygon fill="midnightblue" stroke="midnightblue" points="801.84,-276.56 792.82,-271 796.41,-280.97 801.84,-276.56"/>
</g>
<!-- Node20 -->
<g id="node20" class="node">
<title>Node20</title>
<g id="a_node20"><a xlink:href="type__traits_8hpp.html" target="_top" xlink:title=" ">
<polygon fill="none" stroke="black" points="685.5,-319 685.5,-338 808.5,-338 808.5,-319 685.5,-319"/>
<text text-anchor="middle" x="747" y="-326" font-family="Helvetica,sans-Serif" font-size="10.00">yaclib/util/type_traits.hpp</text>
</a>
</g>
</g>
<!-- Node3&#45;&gt;Node20 -->
<g id="edge35" class="edge">
<title>Node3&#45;&gt;Node20</title>
<path fill="none" stroke="midnightblue" d="M714.28,-704.39C715.59,-695.34 717.63,-680.69 719,-668 732.12,-546.44 742.36,-399.73 745.77,-348.36"/>
<polygon fill="midnightblue" stroke="midnightblue" points="749.28,-348.35 746.44,-338.15 742.3,-347.89 749.28,-348.35"/>
</g>
<!-- Node3&#45;&gt;Node25 -->
<g id="edge36" class="edge">
<title>Node3&#45;&gt;Node25</title>
<path fill="none" stroke="midnightblue" d="M683.83,-704.44C656.62,-695.48 616.53,-681.31 589.54,-671.18"/>
<polygon fill="midnightblue" stroke="midnightblue" points="590.48,-667.8 579.89,-667.52 588,-674.34 590.48,-667.8"/>
</g>
<!-- Node26 -->
<g id="node26" class="node">
<title>Node26</title>
<g id="a_node26"><a xlink:href="future__impl_8hpp.html" target="_top" xlink:title=" ">
<polygon fill="none" stroke="black" points="399,-581.5 399,-611.5 495,-611.5 495,-581.5 399,-581.5"/>
<text text-anchor="start" x="407" y="-599.5" font-family="Helvetica,sans-Serif" font-size="10.00">yaclib/async/detail</text>
<text text-anchor="middle" x="447" y="-588.5" font-family="Helvetica,sans-Serif" font-size="10.00">/future_impl.hpp</text>
</a>
</g>
</g>
<!-- Node3&#45;&gt;Node26 -->
<g id="edge54" class="edge">
<title>Node3&#45;&gt;Node26</title>
<path fill="none" stroke="midnightblue" d="M659.33,-704.48C597.85,-694.36 503.77,-677.65 490,-668 473.72,-656.6 462.46,-636.87 455.56,-621.18"/>
<polygon fill="midnightblue" stroke="midnightblue" points="458.66,-619.51 451.65,-611.58 452.18,-622.16 458.66,-619.51"/>
</g>
<!-- Node33 -->
<g id="node33" class="node">
<title>Node33</title>
<g id="a_node33"><a xlink:href="promise__impl_8hpp.html" target="_top" xlink:title=" ">
<polygon fill="none" stroke="black" points="589,-581.5 589,-611.5 685,-611.5 685,-581.5 589,-581.5"/>
<text text-anchor="start" x="597" y="-599.5" font-family="Helvetica,sans-Serif" font-size="10.00">yaclib/async/detail</text>
<text text-anchor="middle" x="637" y="-588.5" font-family="Helvetica,sans-Serif" font-size="10.00">/promise_impl.hpp</text>
</a>
</g>
</g>
<!-- Node3&#45;&gt;Node33 -->
<g id="edge55" class="edge">
<title>Node3&#45;&gt;Node33</title>
<path fill="none" stroke="midnightblue" d="M707.29,-704.32C695.62,-686.58 668.7,-645.68 651.77,-619.95"/>
<polygon fill="midnightblue" stroke="midnightblue" points="654.66,-617.98 646.24,-611.55 648.81,-621.82 654.66,-617.98"/>
</g>
<!-- Node5 -->
<g id="node5" class="node">
<title>Node5</title>
<g id="a_node5"><a xlink:href="base__core_8hpp.html" target="_top" xlink:title=" ">
<polygon fill="none" stroke="black" points="351,-380.5 351,-410.5 447,-410.5 447,-380.5 351,-380.5"/>
<text text-anchor="start" x="359" y="-398.5" font-family="Helvetica,sans-Serif" font-size="10.00">yaclib/async/detail</text>
<text text-anchor="middle" x="399" y="-387.5" font-family="Helvetica,sans-Serif" font-size="10.00">/base_core.hpp</text>
</a>
</g>
</g>
<!-- Node4&#45;&gt;Node5 -->
<g id="edge4" class="edge">
<title>Node4&#45;&gt;Node5</title>
<path fill="none" stroke="midnightblue" d="M626.92,-450.18C579.72,-439.06 507.66,-422.09 457.23,-410.21"/>
<polygon fill="midnightblue" stroke="midnightblue" points="457.99,-406.8 447.45,-407.91 456.38,-413.61 457.99,-406.8"/>
</g>
<!-- Node19 -->
<g id="node19" class="node">
<title>Node19</title>
<g id="a_node19"><a xlink:href="result_8hpp.html" target="_top" xlink:title=" ">
<polygon fill="none" stroke="black" points="903,-386 903,-405 1005,-405 1005,-386 903,-386"/>
<text text-anchor="middle" x="954" y="-393" font-family="Helvetica,sans-Serif" font-size="10.00">yaclib/util/result.hpp</text>
</a>
</g>
</g>
<!-- Node4&#45;&gt;Node19 -->
<g id="edge26" class="edge">
<title>Node4&#45;&gt;Node19</title>
<path fill="none" stroke="midnightblue" d="M723.28,-450.25C775.04,-438.19 856.64,-419.18 907.64,-407.3"/>
<polygon fill="midnightblue" stroke="midnightblue" points="908.47,-410.7 917.42,-405.02 906.89,-403.88 908.47,-410.7"/>
</g>
<!-- Node5&#45;&gt;Node6 -->
<g id="edge5" class="edge">
<title>Node5&#45;&gt;Node6</title>
<path fill="none" stroke="midnightblue" d="M447.12,-384.92C514.4,-371.44 629.35,-348.07 638,-344 658.03,-334.57 658.18,-324.66 677,-313 701.53,-297.81 731.36,-284.19 753.45,-274.94"/>
<polygon fill="midnightblue" stroke="midnightblue" points="754.79,-278.17 762.71,-271.12 752.13,-271.7 754.79,-278.17"/>
</g>
<!-- Node7 -->
<g id="node7" class="node">
<title>Node7</title>
<g id="a_node7"><a xlink:href="task_8hpp.html" target="_top" xlink:title=" ">
<polygon fill="none" stroke="black" points="597.5,-190.5 597.5,-209.5 718.5,-209.5 718.5,-190.5 597.5,-190.5"/>
<text text-anchor="middle" x="658" y="-197.5" font-family="Helvetica,sans-Serif" font-size="10.00">yaclib/executor/task.hpp</text>
</a>
</g>
</g>
<!-- Node5&#45;&gt;Node7 -->
<g id="edge23" class="edge">
<title>Node5&#45;&gt;Node7</title>
<path fill="none" stroke="midnightblue" d="M403.61,-380.27C415.18,-344.91 445.28,-255.24 456,-246 475.6,-229.09 537.12,-216.96 587.16,-209.59"/>
<polygon fill="midnightblue" stroke="midnightblue" points="587.93,-213.02 597.33,-208.13 586.93,-206.09 587.93,-213.02"/>
</g>
<!-- Node11 -->
<g id="node11" class="node">
<title>Node11</title>
<g id="a_node11"><a xlink:title=" ">
<polygon fill="none" stroke="#bfbfbf" points="25,-0.5 25,-19.5 71,-19.5 71,-0.5 25,-0.5"/>
<text text-anchor="middle" x="48" y="-7.5" font-family="Helvetica,sans-Serif" font-size="10.00">atomic</text>
</a>
</g>
</g>
<!-- Node5&#45;&gt;Node11 -->
<g id="edge25" class="edge">
<title>Node5&#45;&gt;Node11</title>
<path fill="none" stroke="midnightblue" d="M390.58,-380.4C380.11,-363.44 361.14,-334.59 341,-313 233.08,-197.32 149.73,-221.23 66,-87 55.14,-69.6 50.83,-46.22 49.12,-30.01"/>
<polygon fill="midnightblue" stroke="midnightblue" points="52.58,-29.34 48.28,-19.66 45.6,-29.91 52.58,-29.34"/>
</g>
<!-- Node12 -->
<g id="node12" class="node">
<title>Node12</title>
<g id="a_node12"><a xlink:href="intrusive__ptr_8hpp.html" target="_top" xlink:title=" ">
<polygon fill="none" stroke="black" points="399.5,-56.5 399.5,-86.5 496.5,-86.5 496.5,-56.5 399.5,-56.5"/>
<text text-anchor="start" x="407.5" y="-74.5" font-family="Helvetica,sans-Serif" font-size="10.00">yaclib/util/intrusive</text>
<text text-anchor="middle" x="448" y="-63.5" font-family="Helvetica,sans-Serif" font-size="10.00">_ptr.hpp</text>
</a>
</g>
</g>
<!-- Node5&#45;&gt;Node12 -->
<g id="edge24" class="edge">
<title>Node5&#45;&gt;Node12</title>
<path fill="none" stroke="midnightblue" d="M401.17,-380.25C408.82,-329.96 434.62,-160.41 444.3,-96.84"/>
<polygon fill="midnightblue" stroke="midnightblue" points="447.81,-97 445.86,-86.59 440.89,-95.95 447.81,-97"/>
</g>
<!-- Node18 -->
<g id="node18" class="node">
<title>Node18</title>
<g id="a_node18"><a xlink:href="inline_8hpp.html" target="_top" xlink:title=" ">
<polygon fill="none" stroke="black" points="503.5,-319 503.5,-338 628.5,-338 628.5,-319 503.5,-319"/>
<text text-anchor="middle" x="566" y="-326" font-family="Helvetica,sans-Serif" font-size="10.00">yaclib/executor/inline.hpp</text>
</a>
</g>
</g>
<!-- Node5&#45;&gt;Node18 -->
<g id="edge21" class="edge">
<title>Node5&#45;&gt;Node18</title>
<path fill="none" stroke="midnightblue" d="M435.24,-380.4C464.93,-368.84 506.51,-352.66 534.75,-341.66"/>
<polygon fill="midnightblue" stroke="midnightblue" points="536.09,-344.9 544.14,-338.01 533.56,-338.37 536.09,-344.9"/>
</g>
<!-- Node6&#45;&gt;Node7 -->
<g id="edge6" class="edge">
<title>Node6&#45;&gt;Node7</title>
<path fill="none" stroke="midnightblue" d="M766.8,-251.98C745.49,-241.99 709.97,-225.35 685.34,-213.81"/>
<polygon fill="midnightblue" stroke="midnightblue" points="686.7,-210.58 676.16,-209.51 683.73,-216.92 686.7,-210.58"/>
</g>
<!-- Node6&#45;&gt;Node12 -->
<g id="edge20" class="edge">
<title>Node6&#45;&gt;Node12</title>
<path fill="none" stroke="midnightblue" d="M785.09,-251.77C784.84,-227.27 780.52,-157.38 741,-123 706.87,-93.31 582.15,-80.61 506.87,-75.54"/>
<polygon fill="midnightblue" stroke="midnightblue" points="506.8,-72.03 496.59,-74.88 506.34,-79.02 506.8,-72.03"/>
</g>
<!-- Node8 -->
<g id="node8" class="node">
<title>Node8</title>
<g id="a_node8"><a xlink:href="func_8hpp.html" target="_top" xlink:title=" ">
<polygon fill="none" stroke="black" points="323.5,-129 323.5,-148 420.5,-148 420.5,-129 323.5,-129"/>
<text text-anchor="middle" x="372" y="-136" font-family="Helvetica,sans-Serif" font-size="10.00">yaclib/util/func.hpp</text>
</a>
</g>
</g>
<!-- Node7&#45;&gt;Node8 -->
<g id="edge7" class="edge">
<title>Node7&#45;&gt;Node8</title>
<path fill="none" stroke="midnightblue" d="M617.02,-190.48C565.84,-179.83 478.27,-161.61 422.86,-150.08"/>
<polygon fill="midnightblue" stroke="midnightblue" points="423.4,-146.62 412.9,-148.01 421.98,-153.47 423.4,-146.62"/>
</g>
<!-- Node17 -->
<g id="node17" class="node">
<title>Node17</title>
<g id="a_node17"><a xlink:href="intrusive__node_8hpp.html" target="_top" xlink:title=" ">
<polygon fill="none" stroke="black" points="634.5,-123.5 634.5,-153.5 731.5,-153.5 731.5,-123.5 634.5,-123.5"/>
<text text-anchor="start" x="642.5" y="-141.5" font-family="Helvetica,sans-Serif" font-size="10.00">yaclib/util/intrusive</text>
<text text-anchor="middle" x="683" y="-130.5" font-family="Helvetica,sans-Serif" font-size="10.00">_node.hpp</text>
</a>
</g>
</g>
<!-- Node7&#45;&gt;Node17 -->
<g id="edge19" class="edge">
<title>Node7&#45;&gt;Node17</title>
<path fill="none" stroke="midnightblue" d="M661.58,-190.48C664.62,-183.25 669.12,-172.53 673.22,-162.78"/>
<polygon fill="midnightblue" stroke="midnightblue" points="676.46,-164.1 677.11,-153.52 670.01,-161.39 676.46,-164.1"/>
</g>
<!-- Node9 -->
<g id="node9" class="node">
<title>Node9</title>
<g id="a_node9"><a xlink:href="counters_8hpp.html" target="_top" xlink:title=" ">
<polygon fill="none" stroke="black" points="75,-62 75,-81 191,-81 191,-62 75,-62"/>
<text text-anchor="middle" x="133" y="-69" font-family="Helvetica,sans-Serif" font-size="10.00">yaclib/util/counters.hpp</text>
</a>
</g>
</g>
<!-- Node8&#45;&gt;Node9 -->
<g id="edge8" class="edge">
<title>Node8&#45;&gt;Node9</title>
<path fill="none" stroke="midnightblue" d="M340.26,-128.87C297.56,-117.25 221.52,-96.58 174.38,-83.75"/>
<polygon fill="midnightblue" stroke="midnightblue" points="175.06,-80.31 164.49,-81.06 173.22,-87.07 175.06,-80.31"/>
</g>
<!-- Node8&#45;&gt;Node12 -->
<g id="edge11" class="edge">
<title>Node8&#45;&gt;Node12</title>
<path fill="none" stroke="midnightblue" d="M382.25,-128.73C392.82,-119.7 409.68,-105.27 423.68,-93.3"/>
<polygon fill="midnightblue" stroke="midnightblue" points="426.2,-95.75 431.53,-86.59 421.65,-90.43 426.2,-95.75"/>
</g>
<!-- Node13 -->
<g id="node13" class="node">
<title>Node13</title>
<g id="a_node13"><a xlink:href="ref_8hpp.html" target="_top" xlink:title=" ">
<polygon fill="none" stroke="black" points="318.5,-0.5 318.5,-19.5 407.5,-19.5 407.5,-0.5 318.5,-0.5"/>
<text text-anchor="middle" x="363" y="-7.5" font-family="Helvetica,sans-Serif" font-size="10.00">yaclib/util/ref.hpp</text>
</a>
</g>
</g>
<!-- Node8&#45;&gt;Node13 -->
<g id="edge16" class="edge">
<title>Node8&#45;&gt;Node13</title>
<path fill="none" stroke="midnightblue" d="M371.38,-128.81C369.94,-108.49 366.31,-57.55 364.34,-29.78"/>
<polygon fill="midnightblue" stroke="midnightblue" points="367.82,-29.48 363.62,-19.76 360.84,-29.98 367.82,-29.48"/>
</g>
<!-- Node8&#45;&gt;Node15 -->
<g id="edge17" class="edge">
<title>Node8&#45;&gt;Node15</title>
<path fill="none" stroke="midnightblue" d="M364.37,-128.81C346.07,-107.95 299.45,-54.81 275.57,-27.61"/>
<polygon fill="midnightblue" stroke="midnightblue" points="277.91,-24.96 268.68,-19.76 272.65,-29.58 277.91,-24.96"/>
</g>
<!-- Node8&#45;&gt;Node16 -->
<g id="edge18" class="edge">
<title>Node8&#45;&gt;Node16</title>
<path fill="none" stroke="midnightblue" d="M420.68,-130.34C449.04,-123.71 483.36,-111.05 505,-87 519.09,-71.34 523.46,-46.93 524.71,-30.02"/>
<polygon fill="midnightblue" stroke="midnightblue" points="528.22,-29.85 525.15,-19.71 521.22,-29.55 528.22,-29.85"/>
</g>
<!-- Node10 -->
<g id="node10" class="node">
<title>Node10</title>
<g id="a_node10"><a xlink:title=" ">
<polygon fill="none" stroke="#bfbfbf" points="89,-0.5 89,-19.5 177,-19.5 177,-0.5 89,-0.5"/>
<text text-anchor="middle" x="133" y="-7.5" font-family="Helvetica,sans-Serif" font-size="10.00">yaclib/config.hpp</text>
</a>
</g>
</g>
<!-- Node9&#45;&gt;Node10 -->
<g id="edge9" class="edge">
<title>Node9&#45;&gt;Node10</title>
<path fill="none" stroke="midnightblue" d="M133,-61.98C133,-53.58 133,-40.48 133,-29.66"/>
<polygon fill="midnightblue" stroke="midnightblue" points="136.5,-29.51 133,-19.51 129.5,-29.51 136.5,-29.51"/>
</g>
<!-- Node9&#45;&gt;Node11 -->
<g id="edge10" class="edge">
<title>Node9&#45;&gt;Node11</title>
<path fill="none" stroke="midnightblue" d="M120.82,-61.98C107.19,-52.43 84.87,-36.81 68.53,-25.37"/>
<polygon fill="midnightblue" stroke="midnightblue" points="70.36,-22.38 60.16,-19.51 66.34,-28.11 70.36,-22.38"/>
</g>
<!-- Node12&#45;&gt;Node13 -->
<g id="edge12" class="edge">
<title>Node12&#45;&gt;Node13</title>
<path fill="none" stroke="midnightblue" d="M427.86,-56.4C414.61,-47.13 397.32,-35.03 383.92,-25.65"/>
<polygon fill="midnightblue" stroke="midnightblue" points="385.57,-22.53 375.37,-19.66 381.55,-28.26 385.57,-22.53"/>
</g>
<!-- Node14 -->
<g id="node14" class="node">
<title>Node14</title>
<g id="a_node14"><a xlink:title=" ">
<polygon fill="none" stroke="#bfbfbf" points="425,-0.5 425,-19.5 481,-19.5 481,-0.5 425,-0.5"/>
<text text-anchor="middle" x="453" y="-7.5" font-family="Helvetica,sans-Serif" font-size="10.00">algorithm</text>
</a>
</g>
</g>
<!-- Node12&#45;&gt;Node14 -->
<g id="edge13" class="edge">
<title>Node12&#45;&gt;Node14</title>
<path fill="none" stroke="midnightblue" d="M449.18,-56.4C449.85,-48.47 450.69,-38.46 451.42,-29.86"/>
<polygon fill="midnightblue" stroke="midnightblue" points="454.92,-29.92 452.27,-19.66 447.95,-29.33 454.92,-29.92"/>
</g>
<!-- Node12&#45;&gt;Node15 -->
<g id="edge14" class="edge">
<title>Node12&#45;&gt;Node15</title>
<path fill="none" stroke="midnightblue" d="M403.68,-56.4C371.37,-46.12 328.1,-32.35 297.71,-22.68"/>
<polygon fill="midnightblue" stroke="midnightblue" points="298.53,-19.27 287.94,-19.57 296.41,-25.94 298.53,-19.27"/>
</g>
<!-- Node12&#45;&gt;Node16 -->
<g id="edge15" class="edge">
<title>Node12&#45;&gt;Node16</title>
<path fill="none" stroke="midnightblue" d="M466.25,-56.4C478.13,-47.22 493.61,-35.26 505.69,-25.92"/>
<polygon fill="midnightblue" stroke="midnightblue" points="508.02,-28.54 513.8,-19.66 503.74,-23 508.02,-28.54"/>
</g>
<!-- Node18&#45;&gt;Node6 -->
<g id="edge22" class="edge">
<title>Node18&#45;&gt;Node6</title>
<path fill="none" stroke="midnightblue" d="M595.08,-318.87C634.05,-307.3 703.3,-286.75 746.54,-273.91"/>
<polygon fill="midnightblue" stroke="midnightblue" points="747.56,-277.26 756.15,-271.06 745.56,-270.55 747.56,-277.26"/>
</g>
<!-- Node19&#45;&gt;Node20 -->
<g id="edge27" class="edge">
<title>Node19&#45;&gt;Node20</title>
<path fill="none" stroke="midnightblue" d="M926.51,-385.87C889.83,-374.35 824.77,-353.92 783.87,-341.08"/>
<polygon fill="midnightblue" stroke="midnightblue" points="784.86,-337.72 774.27,-338.06 782.76,-344.4 784.86,-337.72"/>
</g>
<!-- Node22 -->
<g id="node22" class="node">
<title>Node22</title>
<g id="a_node22"><a xlink:title=" ">
<polygon fill="none" stroke="#bfbfbf" points="948,-252 948,-271 1006,-271 1006,-252 948,-252"/>
<text text-anchor="middle" x="977" y="-259" font-family="Helvetica,sans-Serif" font-size="10.00">exception</text>
</a>
</g>
</g>
<!-- Node19&#45;&gt;Node22 -->
<g id="edge31" class="edge">
<title>Node19&#45;&gt;Node22</title>
<path fill="none" stroke="midnightblue" d="M989.26,-385.9C1010.88,-378.62 1036.86,-365.76 1050,-344 1057.12,-332.21 1056.4,-325.2 1050,-313 1041.23,-296.27 1024.13,-283.99 1008.68,-275.72"/>
<polygon fill="midnightblue" stroke="midnightblue" points="1009.87,-272.41 999.36,-271.09 1006.76,-278.68 1009.87,-272.41"/>
</g>
<!-- Node23 -->
<g id="node23" class="node">
<title>Node23</title>
<g id="a_node23"><a xlink:title=" ">
<polygon fill="none" stroke="#bfbfbf" points="903.5,-319 903.5,-338 976.5,-338 976.5,-319 903.5,-319"/>
<text text-anchor="middle" x="940" y="-326" font-family="Helvetica,sans-Serif" font-size="10.00">system_error</text>
</a>
</g>
</g>
<!-- Node19&#45;&gt;Node23 -->
<g id="edge32" class="edge">
<title>Node19&#45;&gt;Node23</title>
<path fill="none" stroke="midnightblue" d="M952.11,-385.73C950.03,-376.09 946.63,-360.3 943.96,-347.91"/>
<polygon fill="midnightblue" stroke="midnightblue" points="947.39,-347.17 941.86,-338.13 940.54,-348.64 947.39,-347.17"/>
</g>
<!-- Node24 -->
<g id="node24" class="node">
<title>Node24</title>
<g id="a_node24"><a xlink:title=" ">
<polygon fill="none" stroke="#bfbfbf" points="995,-319 995,-338 1041,-338 1041,-319 995,-319"/>
<text text-anchor="middle" x="1018" y="-326" font-family="Helvetica,sans-Serif" font-size="10.00">variant</text>
</a>
</g>
</g>
<!-- Node19&#45;&gt;Node24 -->
<g id="edge33" class="edge">
<title>Node19&#45;&gt;Node24</title>
<path fill="none" stroke="midnightblue" d="M962.63,-385.73C972.8,-375.4 989.9,-358.04 1002.41,-345.33"/>
<polygon fill="midnightblue" stroke="midnightblue" points="1004.98,-347.71 1009.51,-338.13 1000,-342.8 1004.98,-347.71"/>
</g>
<!-- Node20&#45;&gt;Node15 -->
<g id="edge30" class="edge">
<title>Node20&#45;&gt;Node15</title>
<path fill="none" stroke="midnightblue" d="M724.05,-318.9C636.75,-286.09 329.5,-169.92 314,-154 279.76,-118.85 267.32,-59.65 263.06,-29.64"/>
<polygon fill="midnightblue" stroke="midnightblue" points="266.53,-29.16 261.8,-19.68 259.58,-30.04 266.53,-29.16"/>
</g>
<!-- Node21 -->
<g id="node21" class="node">
<title>Node21</title>
<g id="a_node21"><a xlink:title=" ">
<polygon fill="none" stroke="#bfbfbf" points="465.5,-252 465.5,-271 514.5,-271 514.5,-252 465.5,-252"/>
<text text-anchor="middle" x="490" y="-259" font-family="Helvetica,sans-Serif" font-size="10.00">cassert</text>
</a>
</g>
</g>
<!-- Node20&#45;&gt;Node21 -->
<g id="edge28" class="edge">
<title>Node20&#45;&gt;Node21</title>
<path fill="none" stroke="midnightblue" d="M702.72,-318.98C658.37,-310.04 588.35,-294.83 529,-277 526.43,-276.23 523.78,-275.37 521.14,-274.48"/>
<polygon fill="midnightblue" stroke="midnightblue" points="522.29,-271.18 511.7,-271.13 519.95,-277.77 522.29,-271.18"/>
</g>
<!-- Node20&#45;&gt;Node22 -->
<g id="edge29" class="edge">
<title>Node20&#45;&gt;Node22</title>
<path fill="none" stroke="midnightblue" d="M777.54,-318.87C818.89,-307.18 892.72,-286.32 938.02,-273.52"/>
<polygon fill="midnightblue" stroke="midnightblue" points="939.12,-276.84 947.79,-270.76 937.21,-270.11 939.12,-276.84"/>
</g>
<!-- Node25&#45;&gt;Node3 -->
<g id="edge39" class="edge">
<title>Node25&#45;&gt;Node3</title>
<path fill="none" stroke="midnightblue" d="M590.05,-667.52C617.22,-676.47 657.31,-690.63 684.34,-700.77"/>
<polygon fill="midnightblue" stroke="midnightblue" points="683.41,-704.16 694,-704.44 685.9,-697.62 683.41,-704.16"/>
</g>
<!-- Node25&#45;&gt;Node4 -->
<g id="edge37" class="edge">
<title>Node25&#45;&gt;Node4</title>
<path fill="none" stroke="midnightblue" d="M560.87,-648.43C561.09,-633.17 563.62,-600.98 580,-581 603.7,-552.1 632.54,-574.09 656,-545 668.99,-528.89 673.41,-505.48 674.77,-487.88"/>
<polygon fill="midnightblue" stroke="midnightblue" points="678.27,-487.94 675.27,-477.78 671.28,-487.6 678.27,-487.94"/>
</g>
<!-- Node25&#45;&gt;Node20 -->
<g id="edge38" class="edge">
<title>Node25&#45;&gt;Node20</title>
<path fill="none" stroke="midnightblue" d="M556.86,-648.49C546.35,-625.63 520.91,-561.36 542,-514 579.27,-430.32 675.33,-368.67 721.49,-342.86"/>
<polygon fill="midnightblue" stroke="midnightblue" points="723.2,-345.91 730.29,-338.04 719.83,-339.77 723.2,-345.91"/>
</g>
<!-- Node25&#45;&gt;Node26 -->
<g id="edge40" class="edge">
<title>Node25&#45;&gt;Node26</title>
<path fill="none" stroke="midnightblue" d="M544.67,-648.48C528.58,-640.08 503.47,-626.97 482.74,-616.15"/>
<polygon fill="midnightblue" stroke="midnightblue" points="484.35,-613.05 473.87,-611.52 481.11,-619.25 484.35,-613.05"/>
</g>
<!-- Node25&#45;&gt;Node33 -->
<g id="edge53" class="edge">
<title>Node25&#45;&gt;Node33</title>
<path fill="none" stroke="midnightblue" d="M571.89,-648.48C582.09,-640.49 597.72,-628.25 611.11,-617.77"/>
<polygon fill="midnightblue" stroke="midnightblue" points="613.37,-620.44 619.09,-611.52 609.06,-614.93 613.37,-620.44"/>
</g>
<!-- Node26&#45;&gt;Node21 -->
<g id="edge52" class="edge">
<title>Node26&#45;&gt;Node21</title>
<path fill="none" stroke="midnightblue" d="M452.01,-581.45C460.06,-557.55 475,-507.31 475,-463.5 475,-463.5 475,-463.5 475,-394.5 475,-353.9 482.09,-306.72 486.52,-281.21"/>
<polygon fill="midnightblue" stroke="midnightblue" points="490.01,-281.57 488.34,-271.11 483.12,-280.33 490.01,-281.57"/>
</g>
<!-- Node27 -->
<g id="node27" class="node">
<title>Node27</title>
<g id="a_node27"><a xlink:href="wait_8hpp.html" target="_top" xlink:title=" ">
<polygon fill="none" stroke="black" points="345.5,-520 345.5,-539 446.5,-539 446.5,-520 345.5,-520"/>
<text text-anchor="middle" x="396" y="-527" font-family="Helvetica,sans-Serif" font-size="10.00">yaclib/algo/wait.hpp</text>
</a>
</g>
</g>
<!-- Node26&#45;&gt;Node27 -->
<g id="edge41" class="edge">
<title>Node26&#45;&gt;Node27</title>
<path fill="none" stroke="midnightblue" d="M435.93,-581.4C428.06,-571.36 417.45,-557.84 409.15,-547.25"/>
<polygon fill="midnightblue" stroke="midnightblue" points="411.75,-544.9 402.82,-539.19 406.24,-549.22 411.75,-544.9"/>
</g>
<!-- Node32 -->
<g id="node32" class="node">
<title>Node32</title>
<g id="a_node32"><a xlink:href="core_8hpp.html" target="_top" xlink:title=" ">
<polygon fill="none" stroke="black" points="551,-514.5 551,-544.5 647,-544.5 647,-514.5 551,-514.5"/>
<text text-anchor="start" x="559" y="-532.5" font-family="Helvetica,sans-Serif" font-size="10.00">yaclib/async/detail</text>
<text text-anchor="middle" x="599" y="-521.5" font-family="Helvetica,sans-Serif" font-size="10.00">/core.hpp</text>
</a>
</g>
</g>
<!-- Node26&#45;&gt;Node32 -->
<g id="edge50" class="edge">
<title>Node26&#45;&gt;Node32</title>
<path fill="none" stroke="midnightblue" d="M479.98,-581.4C502.49,-571.77 532.5,-558.94 556.76,-548.56"/>
<polygon fill="midnightblue" stroke="midnightblue" points="558.26,-551.73 566.08,-544.58 555.51,-545.29 558.26,-551.73"/>
</g>
<!-- Node28 -->
<g id="node28" class="node">
<title>Node28</title>
<g id="a_node28"><a xlink:href="wait__impl_8hpp.html" target="_top" xlink:title=" ">
<polygon fill="none" stroke="black" points="351.5,-447.5 351.5,-477.5 440.5,-477.5 440.5,-447.5 351.5,-447.5"/>
<text text-anchor="start" x="359.5" y="-465.5" font-family="Helvetica,sans-Serif" font-size="10.00">yaclib/algo/detail</text>
<text text-anchor="middle" x="396" y="-454.5" font-family="Helvetica,sans-Serif" font-size="10.00">/wait_impl.hpp</text>
</a>
</g>
</g>
<!-- Node27&#45;&gt;Node28 -->
<g id="edge42" class="edge">
<title>Node27&#45;&gt;Node28</title>
<path fill="none" stroke="midnightblue" d="M396,-519.73C396,-511.54 396,-498.92 396,-487.71"/>
<polygon fill="midnightblue" stroke="midnightblue" points="399.5,-487.59 396,-477.59 392.5,-487.59 399.5,-487.59"/>
</g>
<!-- Node28&#45;&gt;Node5 -->
<g id="edge43" class="edge">
<title>Node28&#45;&gt;Node5</title>
<path fill="none" stroke="midnightblue" d="M396.65,-447.4C397.01,-439.64 397.46,-429.81 397.88,-420.86"/>
<polygon fill="midnightblue" stroke="midnightblue" points="401.39,-420.73 398.35,-410.58 394.39,-420.4 401.39,-420.73"/>
</g>
<!-- Node28&#45;&gt;Node9 -->
<g id="edge48" class="edge">
<title>Node28&#45;&gt;Node9</title>
<path fill="none" stroke="midnightblue" d="M351.35,-460.05C307.91,-456.53 242.06,-445.37 197,-411 95.58,-333.63 118.73,-150.22 129.28,-91.17"/>
<polygon fill="midnightblue" stroke="midnightblue" points="132.77,-91.56 131.18,-81.08 125.89,-90.26 132.77,-91.56"/>
</g>
<!-- Node28&#45;&gt;Node20 -->
<g id="edge49" class="edge">
<title>Node28&#45;&gt;Node20</title>
<path fill="none" stroke="midnightblue" d="M416.07,-447.39C442.59,-429.34 491.31,-398.25 537,-380 565.38,-368.66 642.75,-351.29 695.22,-340.16"/>
<polygon fill="midnightblue" stroke="midnightblue" points="695.98,-343.58 705.04,-338.09 694.53,-336.73 695.98,-343.58"/>
</g>
<!-- Node29 -->
<g id="node29" class="node">
<title>Node29</title>
<g id="a_node29"><a xlink:href="wait__core_8hpp.html" target="_top" xlink:title=" ">
<polygon fill="none" stroke="black" points="206,-380.5 206,-410.5 302,-410.5 302,-380.5 206,-380.5"/>
<text text-anchor="start" x="214" y="-398.5" font-family="Helvetica,sans-Serif" font-size="10.00">yaclib/async/detail</text>
<text text-anchor="middle" x="254" y="-387.5" font-family="Helvetica,sans-Serif" font-size="10.00">/wait_core.hpp</text>
</a>
</g>
</g>
<!-- Node28&#45;&gt;Node29 -->
<g id="edge44" class="edge">
<title>Node28&#45;&gt;Node29</title>
<path fill="none" stroke="midnightblue" d="M365.19,-447.4C344.35,-437.86 316.62,-425.16 294.07,-414.84"/>
<polygon fill="midnightblue" stroke="midnightblue" points="295.3,-411.56 284.75,-410.58 292.39,-417.92 295.3,-411.56"/>
</g>
<!-- Node29&#45;&gt;Node13 -->
<g id="edge45" class="edge">
<title>Node29&#45;&gt;Node13</title>
<path fill="none" stroke="midnightblue" d="M211.19,-380.42C194.31,-372.52 176.67,-360.8 167,-344 160.13,-332.06 163.09,-326.21 167,-313 203.43,-189.95 307.49,-70.02 347.28,-27.36"/>
<polygon fill="midnightblue" stroke="midnightblue" points="350.02,-29.55 354.34,-19.88 344.93,-24.75 350.02,-29.55"/>
</g>
<!-- Node30 -->
<g id="node30" class="node">
<title>Node30</title>
<g id="a_node30"><a xlink:title=" ">
<polygon fill="none" stroke="#bfbfbf" points="176.5,-319 176.5,-338 271.5,-338 271.5,-319 176.5,-319"/>
<text text-anchor="middle" x="224" y="-326" font-family="Helvetica,sans-Serif" font-size="10.00">condition_variable</text>
</a>
</g>
</g>
<!-- Node29&#45;&gt;Node30 -->
<g id="edge46" class="edge">
<title>Node29&#45;&gt;Node30</title>
<path fill="none" stroke="midnightblue" d="M247.49,-380.4C243.04,-370.76 237.11,-357.91 232.32,-347.54"/>
<polygon fill="midnightblue" stroke="midnightblue" points="235.38,-345.81 228.01,-338.19 229.03,-348.74 235.38,-345.81"/>
</g>
<!-- Node31 -->
<g id="node31" class="node">
<title>Node31</title>
<g id="a_node31"><a xlink:title=" ">
<polygon fill="none" stroke="#bfbfbf" points="289.5,-319 289.5,-338 332.5,-338 332.5,-319 289.5,-319"/>
<text text-anchor="middle" x="311" y="-326" font-family="Helvetica,sans-Serif" font-size="10.00">mutex</text>
</a>
</g>
</g>
<!-- Node29&#45;&gt;Node31 -->
<g id="edge47" class="edge">
<title>Node29&#45;&gt;Node31</title>
<path fill="none" stroke="midnightblue" d="M266.37,-380.4C275.26,-370.26 287.26,-356.57 296.59,-345.94"/>
<polygon fill="midnightblue" stroke="midnightblue" points="299.41,-348.02 303.38,-338.19 294.15,-343.41 299.41,-348.02"/>
</g>
<!-- Node32&#45;&gt;Node4 -->
<g id="edge51" class="edge">
<title>Node32&#45;&gt;Node4</title>
<path fill="none" stroke="midnightblue" d="M615.49,-514.4C625.85,-505.54 639.38,-493.96 650.93,-484.09"/>
<polygon fill="midnightblue" stroke="midnightblue" points="653.22,-486.74 658.54,-477.58 648.67,-481.42 653.22,-486.74"/>
</g>
<!-- Node37&#45;&gt;Node3 -->
<g id="edge64" class="edge">
<title>Node37&#45;&gt;Node3</title>
<path fill="none" stroke="midnightblue" d="M872.89,-760.44C840.37,-751.2 788.42,-736.44 752.61,-726.26"/>
<polygon fill="midnightblue" stroke="midnightblue" points="753.54,-722.88 742.97,-723.52 751.63,-729.62 753.54,-722.88"/>
</g>
<!-- Node37&#45;&gt;Node6 -->
<g id="edge65" class="edge">
<title>Node37&#45;&gt;Node6</title>
<path fill="none" stroke="midnightblue" d="M903.55,-760.33C906.23,-712.53 914.61,-477.26 833,-313 826.2,-299.32 814.44,-286.85 804.26,-277.73"/>
<polygon fill="midnightblue" stroke="midnightblue" points="806.44,-274.99 796.55,-271.17 801.9,-280.32 806.44,-274.99"/>
</g>
<!-- Node37&#45;&gt;Node20 -->
<g id="edge66" class="edge">
<title>Node37&#45;&gt;Node20</title>
<path fill="none" stroke="midnightblue" d="M899.88,-760.22C880.85,-706.6 780.21,-423.06 753.51,-347.84"/>
<polygon fill="midnightblue" stroke="midnightblue" points="756.77,-346.55 750.12,-338.3 750.17,-348.89 756.77,-346.55"/>
</g>
<!-- Node37&#45;&gt;Node32 -->
<g id="edge63" class="edge">
<title>Node37&#45;&gt;Node32</title>
<path fill="none" stroke="midnightblue" d="M894.88,-760.31C868.13,-732.02 779.57,-640.88 694,-581 676.96,-569.07 656.76,-557.97 639.38,-549.22"/>
<polygon fill="midnightblue" stroke="midnightblue" points="640.57,-545.91 630.06,-544.62 637.47,-552.18 640.57,-545.91"/>
</g>
<!-- Node38&#45;&gt;Node6 -->
<g id="edge68" class="edge">
<title>Node38&#45;&gt;Node6</title>
<path fill="none" stroke="midnightblue" d="M1135.4,-318.6C1060.47,-306.6 927.42,-285.3 848.6,-272.68"/>
<polygon fill="midnightblue" stroke="midnightblue" points="848.75,-269.16 838.32,-271.04 847.64,-276.07 848.75,-269.16"/>
</g>
<!-- Node39 -->
<g id="node39" class="node">
<title>Node39</title>
<g id="a_node39"><a xlink:href="thread__factory_8hpp.html" target="_top" xlink:title=" ">
<polygon fill="none" stroke="black" points="1085.5,-246.5 1085.5,-276.5 1196.5,-276.5 1196.5,-246.5 1085.5,-246.5"/>
<text text-anchor="start" x="1093.5" y="-264.5" font-family="Helvetica,sans-Serif" font-size="10.00">yaclib/executor/thread</text>
<text text-anchor="middle" x="1141" y="-253.5" font-family="Helvetica,sans-Serif" font-size="10.00">_factory.hpp</text>
</a>
</g>
</g>
<!-- Node38&#45;&gt;Node39 -->
<g id="edge69" class="edge">
<title>Node38&#45;&gt;Node39</title>
<path fill="none" stroke="midnightblue" d="M1180.15,-313.4C1173.66,-304.96 1165.28,-294.07 1157.94,-284.52"/>
<polygon fill="midnightblue" stroke="midnightblue" points="1160.7,-282.37 1151.83,-276.58 1155.15,-286.64 1160.7,-282.37"/>
</g>
<!-- Node40 -->
<g id="node40" class="node">
<title>Node40</title>
<g id="a_node40"><a xlink:title=" ">
<polygon fill="none" stroke="#bfbfbf" points="1189.5,-190.5 1189.5,-209.5 1238.5,-209.5 1238.5,-190.5 1189.5,-190.5"/>
<text text-anchor="middle" x="1214" y="-197.5" font-family="Helvetica,sans-Serif" font-size="10.00">cstddef</text>
</a>
</g>
</g>
<!-- Node38&#45;&gt;Node40 -->
<g id="edge74" class="edge">
<title>Node38&#45;&gt;Node40</title>
<path fill="none" stroke="midnightblue" d="M1196.05,-313.09C1199.37,-303.09 1203.53,-289.38 1206,-277 1209.85,-257.71 1211.92,-235.28 1212.98,-219.82"/>
<polygon fill="midnightblue" stroke="midnightblue" points="1216.5,-219.71 1213.62,-209.51 1209.51,-219.28 1216.5,-219.71"/>
</g>
<!-- Node38&#45;&gt;Node42 -->
<g id="edge75" class="edge">
<title>Node38&#45;&gt;Node42</title>
<path fill="none" stroke="midnightblue" d="M1209.23,-313.4C1222.97,-302.76 1241.78,-288.2 1255.77,-277.38"/>
<polygon fill="midnightblue" stroke="midnightblue" points="1258,-280.08 1263.76,-271.19 1253.71,-274.55 1258,-280.08"/>
</g>
<!-- Node39&#45;&gt;Node7 -->
<g id="edge70" class="edge">
<title>Node39&#45;&gt;Node7</title>
<path fill="none" stroke="midnightblue" d="M1085.12,-253.62C996.86,-242.74 825.31,-221.61 728.64,-209.7"/>
<polygon fill="midnightblue" stroke="midnightblue" points="729.02,-206.22 718.67,-208.47 728.16,-213.17 729.02,-206.22"/>
</g>
<!-- Node39&#45;&gt;Node17 -->
<g id="edge71" class="edge">
<title>Node39&#45;&gt;Node17</title>
<path fill="none" stroke="midnightblue" d="M1087.57,-246.38C1001.02,-223.52 830.88,-178.57 741.31,-154.9"/>
<polygon fill="midnightblue" stroke="midnightblue" points="742.15,-151.51 731.58,-152.34 740.36,-158.27 742.15,-151.51"/>
</g>
<!-- Node39&#45;&gt;Node40 -->
<g id="edge72" class="edge">
<title>Node39&#45;&gt;Node40</title>
<path fill="none" stroke="midnightblue" d="M1158.3,-246.4C1169.45,-237.31 1183.95,-225.49 1195.36,-216.19"/>
<polygon fill="midnightblue" stroke="midnightblue" points="1197.84,-218.69 1203.38,-209.66 1193.42,-213.26 1197.84,-218.69"/>
</g>
<!-- Node41 -->
<g id="node41" class="node">
<title>Node41</title>
<g id="a_node41"><a xlink:title=" ">
<polygon fill="none" stroke="#bfbfbf" points="1120.5,-190.5 1120.5,-209.5 1161.5,-209.5 1161.5,-190.5 1120.5,-190.5"/>
<text text-anchor="middle" x="1141" y="-197.5" font-family="Helvetica,sans-Serif" font-size="10.00">string</text>
</a>
</g>
</g>
<!-- Node39&#45;&gt;Node41 -->
<g id="edge73" class="edge">
<title>Node39&#45;&gt;Node41</title>
<path fill="none" stroke="midnightblue" d="M1141,-246.4C1141,-238.47 1141,-228.46 1141,-219.86"/>
<polygon fill="midnightblue" stroke="midnightblue" points="1144.5,-219.66 1141,-209.66 1137.5,-219.66 1144.5,-219.66"/>
</g>
</g>
</svg>
