<?xml version="1.0" encoding="UTF-8" standalone="no"?>
<!DOCTYPE svg PUBLIC "-//W3C//DTD SVG 1.1//EN"
 "http://www.w3.org/Graphics/SVG/1.1/DTD/svg11.dtd">
<!-- Generated by graphviz version 2.44.0 ()
 -->
<!-- Title: test/example/async/when_any.cpp Pages: 1 -->
<svg width="1428pt" height="855pt"
 viewBox="0.00 0.00 1427.50 855.00" xmlns="http://www.w3.org/2000/svg" xmlns:xlink="http://www.w3.org/1999/xlink">
<g id="graph0" class="graph" transform="scale(1 1) rotate(0) translate(4 851)">
<title>test/example/async/when_any.cpp</title>
<!-- Node1 -->
<g id="node1" class="node">
<title>Node1</title>
<g id="a_node1"><a xlink:title=" ">
<polygon fill="#bfbfbf" stroke="black" points="1163.5,-816.5 1163.5,-846.5 1264.5,-846.5 1264.5,-816.5 1163.5,-816.5"/>
<text text-anchor="start" x="1171.5" y="-834.5" font-family="Helvetica,sans-Serif" font-size="10.00">test/example/async</text>
<text text-anchor="middle" x="1214" y="-823.5" font-family="Helvetica,sans-Serif" font-size="10.00">/when_any.cpp</text>
</a>
</g>
</g>
<!-- Node2 -->
<g id="node2" class="node">
<title>Node2</title>
<g id="a_node2"><a xlink:href="when__any_8hpp.html" target="_top" xlink:title=" ">
<polygon fill="none" stroke="black" points="578.5,-760.5 578.5,-779.5 705.5,-779.5 705.5,-760.5 578.5,-760.5"/>
<text text-anchor="middle" x="642" y="-767.5" font-family="Helvetica,sans-Serif" font-size="10.00">yaclib/algo/when_any.hpp</text>
</a>
</g>
</g>
<!-- Node1&#45;&gt;Node2 -->
<g id="edge1" class="edge">
<title>Node1&#45;&gt;Node2</title>
<path fill="none" stroke="midnightblue" d="M1163.24,-825.22C1061.75,-814.66 833.46,-790.92 715.57,-778.65"/>
<polygon fill="midnightblue" stroke="midnightblue" points="715.85,-775.16 705.55,-777.61 715.13,-782.13 715.85,-775.16"/>
</g>
<!-- Node35 -->
<g id="node35" class="node">
<title>Node35</title>
<g id="a_node35"><a xlink:href="run_8hpp.html" target="_top" xlink:title=" ">
<polygon fill="none" stroke="black" points="842,-760.5 842,-779.5 946,-779.5 946,-760.5 842,-760.5"/>
<text text-anchor="middle" x="894" y="-767.5" font-family="Helvetica,sans-Serif" font-size="10.00">yaclib/async/run.hpp</text>
</a>
</g>
</g>
<!-- Node1&#45;&gt;Node35 -->
<g id="edge60" class="edge">
<title>Node1&#45;&gt;Node35</title>
<path fill="none" stroke="midnightblue" d="M1163.3,-821.07C1105.15,-810.26 1010.13,-792.59 949.89,-781.39"/>
<polygon fill="midnightblue" stroke="midnightblue" points="950.27,-777.9 939.8,-779.52 948.99,-784.79 950.27,-777.9"/>
</g>
<!-- Node36 -->
<g id="node36" class="node">
<title>Node36</title>
<g id="a_node36"><a xlink:href="thread__pool_8hpp.html" target="_top" xlink:title=" ">
<polygon fill="none" stroke="black" points="1116.5,-313.5 1116.5,-343.5 1227.5,-343.5 1227.5,-313.5 1116.5,-313.5"/>
<text text-anchor="start" x="1124.5" y="-331.5" font-family="Helvetica,sans-Serif" font-size="10.00">yaclib/executor/thread</text>
<text text-anchor="middle" x="1172" y="-320.5" font-family="Helvetica,sans-Serif" font-size="10.00">_pool.hpp</text>
</a>
</g>
</g>
<!-- Node1&#45;&gt;Node36 -->
<g id="edge65" class="edge">
<title>Node1&#45;&gt;Node36</title>
<path fill="none" stroke="midnightblue" d="M1210.16,-816.4C1204.6,-794.76 1195,-751.99 1195,-715 1195,-715 1195,-715 1195,-461.5 1195,-423.27 1185.52,-379.72 1178.73,-353.44"/>
<polygon fill="midnightblue" stroke="midnightblue" points="1182.07,-352.38 1176.11,-343.62 1175.31,-354.18 1182.07,-352.38"/>
</g>
<!-- Node40 -->
<g id="node40" class="node">
<title>Node40</title>
<g id="a_node40"><a xlink:title=" ">
<polygon fill="none" stroke="#bfbfbf" points="1234,-252 1234,-271 1278,-271 1278,-252 1234,-252"/>
<text text-anchor="middle" x="1256" y="-259" font-family="Helvetica,sans-Serif" font-size="10.00">thread</text>
</a>
</g>
</g>
<!-- Node1&#45;&gt;Node40 -->
<g id="edge75" class="edge">
<title>Node1&#45;&gt;Node40</title>
<path fill="none" stroke="midnightblue" d="M1222.91,-816.16C1235.24,-794.91 1256,-753.41 1256,-715 1256,-715 1256,-715 1256,-394.5 1256,-354.16 1256,-306.88 1256,-281.28"/>
<polygon fill="midnightblue" stroke="midnightblue" points="1259.5,-281.15 1256,-271.15 1252.5,-281.15 1259.5,-281.15"/>
</g>
<!-- Node41 -->
<g id="node41" class="node">
<title>Node41</title>
<g id="a_node41"><a xlink:title=" ">
<polygon fill="none" stroke="#bfbfbf" points="1284,-760.5 1284,-779.5 1330,-779.5 1330,-760.5 1284,-760.5"/>
<text text-anchor="middle" x="1307" y="-767.5" font-family="Helvetica,sans-Serif" font-size="10.00">chrono</text>
</a>
</g>
</g>
<!-- Node1&#45;&gt;Node41 -->
<g id="edge74" class="edge">
<title>Node1&#45;&gt;Node41</title>
<path fill="none" stroke="midnightblue" d="M1236.04,-816.4C1250.81,-806.95 1270.18,-794.56 1284.95,-785.11"/>
<polygon fill="midnightblue" stroke="midnightblue" points="1286.93,-788 1293.47,-779.66 1283.16,-782.1 1286.93,-788"/>
</g>
<!-- Node42 -->
<g id="node42" class="node">
<title>Node42</title>
<g id="a_node42"><a xlink:title=" ">
<polygon fill="none" stroke="#bfbfbf" points="1348.5,-760.5 1348.5,-779.5 1419.5,-779.5 1419.5,-760.5 1348.5,-760.5"/>
<text text-anchor="middle" x="1384" y="-767.5" font-family="Helvetica,sans-Serif" font-size="10.00">gtest/gtest.h</text>
</a>
</g>
</g>
<!-- Node1&#45;&gt;Node42 -->
<g id="edge76" class="edge">
<title>Node1&#45;&gt;Node42</title>
<path fill="none" stroke="midnightblue" d="M1254.29,-816.4C1283.32,-806.24 1322.08,-792.67 1349.65,-783.02"/>
<polygon fill="midnightblue" stroke="midnightblue" points="1350.98,-786.26 1359.26,-779.66 1348.67,-779.66 1350.98,-786.26"/>
</g>
<!-- Node3 -->
<g id="node3" class="node">
<title>Node3</title>
<g id="a_node3"><a xlink:href="future_8hpp.html" target="_top" xlink:title=" ">
<polygon fill="none" stroke="black" points="627,-704.5 627,-723.5 743,-723.5 743,-704.5 627,-704.5"/>
<text text-anchor="middle" x="685" y="-711.5" font-family="Helvetica,sans-Serif" font-size="10.00">yaclib/async/future.hpp</text>
</a>
</g>
</g>
<!-- Node2&#45;&gt;Node3 -->
<g id="edge2" class="edge">
<title>Node2&#45;&gt;Node3</title>
<path fill="none" stroke="midnightblue" d="M649.1,-760.08C655.24,-752.38 664.27,-741.03 671.74,-731.65"/>
<polygon fill="midnightblue" stroke="midnightblue" points="674.54,-733.75 678.03,-723.75 669.06,-729.39 674.54,-733.75"/>
</g>
<!-- Node15 -->
<g id="node15" class="node">
<title>Node15</title>
<g id="a_node15"><a xlink:title=" ">
<polygon fill="none" stroke="#bfbfbf" points="205,-0.5 205,-19.5 267,-19.5 267,-0.5 205,-0.5"/>
<text text-anchor="middle" x="236" y="-7.5" font-family="Helvetica,sans-Serif" font-size="10.00">type_traits</text>
</a>
</g>
</g>
<!-- Node2&#45;&gt;Node15 -->
<g id="edge58" class="edge">
<title>Node2&#45;&gt;Node15</title>
<path fill="none" stroke="midnightblue" d="M578.29,-763.92C424.2,-750.77 44,-712.87 44,-659 44,-659 44,-659 44,-260.5 44,-253.15 179.46,-82.12 222.82,-27.56"/>
<polygon fill="midnightblue" stroke="midnightblue" points="225.68,-29.59 229.17,-19.58 220.2,-25.23 225.68,-29.59"/>
</g>
<!-- Node16 -->
<g id="node16" class="node">
<title>Node16</title>
<g id="a_node16"><a xlink:title=" ">
<polygon fill="none" stroke="#bfbfbf" points="480.5,-0.5 480.5,-19.5 519.5,-19.5 519.5,-0.5 480.5,-0.5"/>
<text text-anchor="middle" x="500" y="-7.5" font-family="Helvetica,sans-Serif" font-size="10.00">utility</text>
</a>
</g>
</g>
<!-- Node2&#45;&gt;Node16 -->
<g id="edge59" class="edge">
<title>Node2&#45;&gt;Node16</title>
<path fill="none" stroke="midnightblue" d="M675.12,-760.42C698.25,-753.29 728.99,-741.47 752,-724 922.28,-594.7 977.72,-546.27 1047,-344 1051.46,-330.97 1047.55,-326.77 1047,-313 1045,-263.1 1038,-250.94 1038,-201 1038,-201 1038,-201 1038,-137.5 1038,-32.23 642.76,-14.48 529.81,-11.56"/>
<polygon fill="midnightblue" stroke="midnightblue" points="529.87,-8.06 519.79,-11.32 529.7,-15.06 529.87,-8.06"/>
</g>
<!-- Node25 -->
<g id="node25" class="node">
<title>Node25</title>
<g id="a_node25"><a xlink:href="promise_8hpp.html" target="_top" xlink:title=" ">
<polygon fill="none" stroke="black" points="512.5,-648.5 512.5,-667.5 637.5,-667.5 637.5,-648.5 512.5,-648.5"/>
<text text-anchor="middle" x="575" y="-655.5" font-family="Helvetica,sans-Serif" font-size="10.00">yaclib/async/promise.hpp</text>
</a>
</g>
</g>
<!-- Node2&#45;&gt;Node25 -->
<g id="edge56" class="edge">
<title>Node2&#45;&gt;Node25</title>
<path fill="none" stroke="midnightblue" d="M636.74,-760.37C625.73,-742.3 600.08,-700.18 585.54,-676.31"/>
<polygon fill="midnightblue" stroke="midnightblue" points="588.42,-674.31 580.23,-667.59 582.45,-677.95 588.42,-674.31"/>
</g>
<!-- Node34 -->
<g id="node34" class="node">
<title>Node34</title>
<g id="a_node34"><a xlink:title=" ">
<polygon fill="none" stroke="#bfbfbf" points="523.5,-704.5 523.5,-723.5 570.5,-723.5 570.5,-704.5 523.5,-704.5"/>
<text text-anchor="middle" x="547" y="-711.5" font-family="Helvetica,sans-Serif" font-size="10.00">iterator</text>
</a>
</g>
</g>
<!-- Node2&#45;&gt;Node34 -->
<g id="edge57" class="edge">
<title>Node2&#45;&gt;Node34</title>
<path fill="none" stroke="midnightblue" d="M626.74,-760.32C611.78,-751.82 588.75,-738.73 571.27,-728.8"/>
<polygon fill="midnightblue" stroke="midnightblue" points="572.65,-725.55 562.23,-723.65 569.19,-731.64 572.65,-725.55"/>
</g>
<!-- Node4 -->
<g id="node4" class="node">
<title>Node4</title>
<g id="a_node4"><a xlink:href="result__core_8hpp.html" target="_top" xlink:title=" ">
<polygon fill="none" stroke="black" points="618,-447.5 618,-477.5 714,-477.5 714,-447.5 618,-447.5"/>
<text text-anchor="start" x="626" y="-465.5" font-family="Helvetica,sans-Serif" font-size="10.00">yaclib/async/detail</text>
<text text-anchor="middle" x="666" y="-454.5" font-family="Helvetica,sans-Serif" font-size="10.00">/result_core.hpp</text>
</a>
</g>
</g>
<!-- Node3&#45;&gt;Node4 -->
<g id="edge3" class="edge">
<title>Node3&#45;&gt;Node4</title>
<path fill="none" stroke="midnightblue" d="M685.48,-704.33C686.54,-683.2 688.72,-627.37 685,-581 682.37,-548.31 675.7,-511 671.01,-487.35"/>
<polygon fill="midnightblue" stroke="midnightblue" points="674.43,-486.62 669.02,-477.52 667.57,-488.02 674.43,-486.62"/>
</g>
<!-- Node6 -->
<g id="node6" class="node">
<title>Node6</title>
<g id="a_node6"><a xlink:href="executor_8hpp.html" target="_top" xlink:title=" ">
<polygon fill="none" stroke="black" points="680.5,-252 680.5,-271 819.5,-271 819.5,-252 680.5,-252"/>
<text text-anchor="middle" x="750" y="-259" font-family="Helvetica,sans-Serif" font-size="10.00">yaclib/executor/executor.hpp</text>
</a>
</g>
</g>
<!-- Node3&#45;&gt;Node6 -->
<g id="edge34" class="edge">
<title>Node3&#45;&gt;Node6</title>
<path fill="none" stroke="midnightblue" d="M697.75,-704.42C731.04,-680.89 818,-611.65 818,-530.5 818,-530.5 818,-530.5 818,-394.5 818,-357.31 816.82,-345.65 799,-313 791.61,-299.46 779.59,-287 769.31,-277.84"/>
<polygon fill="midnightblue" stroke="midnightblue" points="771.44,-275.05 761.55,-271.24 766.9,-280.39 771.44,-275.05"/>
</g>
<!-- Node20 -->
<g id="node20" class="node">
<title>Node20</title>
<g id="a_node20"><a xlink:href="type__traits_8hpp.html" target="_top" xlink:title=" ">
<polygon fill="none" stroke="black" points="666.5,-319 666.5,-338 789.5,-338 789.5,-319 666.5,-319"/>
<text text-anchor="middle" x="728" y="-326" font-family="Helvetica,sans-Serif" font-size="10.00">yaclib/util/type_traits.hpp</text>
</a>
</g>
</g>
<!-- Node3&#45;&gt;Node20 -->
<g id="edge35" class="edge">
<title>Node3&#45;&gt;Node20</title>
<path fill="none" stroke="midnightblue" d="M688.53,-704.19C691.97,-695.22 697.11,-680.86 700,-668 726.88,-548.44 728.57,-399.93 728.25,-348.26"/>
<polygon fill="midnightblue" stroke="midnightblue" points="731.75,-347.97 728.15,-338 724.75,-348.04 731.75,-347.97"/>
</g>
<!-- Node3&#45;&gt;Node25 -->
<g id="edge36" class="edge">
<title>Node3&#45;&gt;Node25</title>
<path fill="none" stroke="midnightblue" d="M662.48,-704.44C642.96,-695.79 615.22,-682.31 596.12,-672.27"/>
<polygon fill="midnightblue" stroke="midnightblue" points="597.73,-669.16 587.27,-667.52 594.42,-675.33 597.73,-669.16"/>
</g>
<!-- Node26 -->
<g id="node26" class="node">
<title>Node26</title>
<g id="a_node26"><a xlink:href="future__impl_8hpp.html" target="_top" xlink:title=" ">
<polygon fill="none" stroke="black" points="390,-581.5 390,-611.5 486,-611.5 486,-581.5 390,-581.5"/>
<text text-anchor="start" x="398" y="-599.5" font-family="Helvetica,sans-Serif" font-size="10.00">yaclib/async/detail</text>
<text text-anchor="middle" x="438" y="-588.5" font-family="Helvetica,sans-Serif" font-size="10.00">/future_impl.hpp</text>
</a>
</g>
</g>
<!-- Node3&#45;&gt;Node26 -->
<g id="edge54" class="edge">
<title>Node3&#45;&gt;Node26</title>
<path fill="none" stroke="midnightblue" d="M626.77,-707.12C589.61,-701.36 541.55,-690.05 504,-668 483.51,-655.96 465.47,-635.64 453.46,-619.9"/>
<polygon fill="midnightblue" stroke="midnightblue" points="456.17,-617.68 447.42,-611.71 450.54,-621.84 456.17,-617.68"/>
</g>
<!-- Node33 -->
<g id="node33" class="node">
<title>Node33</title>
<g id="a_node33"><a xlink:href="promise__impl_8hpp.html" target="_top" xlink:title=" ">
<polygon fill="none" stroke="black" points="580,-581.5 580,-611.5 676,-611.5 676,-581.5 580,-581.5"/>
<text text-anchor="start" x="588" y="-599.5" font-family="Helvetica,sans-Serif" font-size="10.00">yaclib/async/detail</text>
<text text-anchor="middle" x="628" y="-588.5" font-family="Helvetica,sans-Serif" font-size="10.00">/promise_impl.hpp</text>
</a>
</g>
</g>
<!-- Node3&#45;&gt;Node33 -->
<g id="edge55" class="edge">
<title>Node3&#45;&gt;Node33</title>
<path fill="none" stroke="midnightblue" d="M680.72,-704.32C672.04,-686.73 652.13,-646.39 639.41,-620.63"/>
<polygon fill="midnightblue" stroke="midnightblue" points="642.5,-618.96 634.93,-611.55 636.22,-622.06 642.5,-618.96"/>
</g>
<!-- Node5 -->
<g id="node5" class="node">
<title>Node5</title>
<g id="a_node5"><a xlink:href="base__core_8hpp.html" target="_top" xlink:title=" ">
<polygon fill="none" stroke="black" points="332,-380.5 332,-410.5 428,-410.5 428,-380.5 332,-380.5"/>
<text text-anchor="start" x="340" y="-398.5" font-family="Helvetica,sans-Serif" font-size="10.00">yaclib/async/detail</text>
<text text-anchor="middle" x="380" y="-387.5" font-family="Helvetica,sans-Serif" font-size="10.00">/base_core.hpp</text>
</a>
</g>
</g>
<!-- Node4&#45;&gt;Node5 -->
<g id="edge4" class="edge">
<title>Node4&#45;&gt;Node5</title>
<path fill="none" stroke="midnightblue" d="M617.81,-450.55C568.3,-439.3 491.21,-421.78 438.3,-409.75"/>
<polygon fill="midnightblue" stroke="midnightblue" points="438.92,-406.3 428.39,-407.5 437.37,-413.13 438.92,-406.3"/>
</g>
<!-- Node19 -->
<g id="node19" class="node">
<title>Node19</title>
<g id="a_node19"><a xlink:href="result_8hpp.html" target="_top" xlink:title=" ">
<polygon fill="none" stroke="black" points="884,-386 884,-405 986,-405 986,-386 884,-386"/>
<text text-anchor="middle" x="935" y="-393" font-family="Helvetica,sans-Serif" font-size="10.00">yaclib/util/result.hpp</text>
</a>
</g>
</g>
<!-- Node4&#45;&gt;Node19 -->
<g id="edge26" class="edge">
<title>Node4&#45;&gt;Node19</title>
<path fill="none" stroke="midnightblue" d="M714.09,-449.88C763.9,-437.85 841.11,-419.19 889.81,-407.42"/>
<polygon fill="midnightblue" stroke="midnightblue" points="890.85,-410.77 899.75,-405.02 889.21,-403.96 890.85,-410.77"/>
</g>
<!-- Node5&#45;&gt;Node6 -->
<g id="edge5" class="edge">
<title>Node5&#45;&gt;Node6</title>
<path fill="none" stroke="midnightblue" d="M428.12,-384.92C495.4,-371.44 610.35,-348.07 619,-344 639.03,-334.57 639.56,-325.26 658,-313 679.06,-299 704.33,-285.33 723.05,-275.76"/>
<polygon fill="midnightblue" stroke="midnightblue" points="724.84,-278.77 732.19,-271.14 721.68,-272.53 724.84,-278.77"/>
</g>
<!-- Node7 -->
<g id="node7" class="node">
<title>Node7</title>
<g id="a_node7"><a xlink:href="task_8hpp.html" target="_top" xlink:title=" ">
<polygon fill="none" stroke="black" points="562.5,-190.5 562.5,-209.5 683.5,-209.5 683.5,-190.5 562.5,-190.5"/>
<text text-anchor="middle" x="623" y="-197.5" font-family="Helvetica,sans-Serif" font-size="10.00">yaclib/executor/task.hpp</text>
</a>
</g>
</g>
<!-- Node5&#45;&gt;Node7 -->
<g id="edge23" class="edge">
<title>Node5&#45;&gt;Node7</title>
<path fill="none" stroke="midnightblue" d="M384.62,-380.28C396.21,-344.95 426.37,-255.34 437,-246 468.5,-218.32 514.16,-207 552.35,-202.63"/>
<polygon fill="midnightblue" stroke="midnightblue" points="552.8,-206.1 562.39,-201.62 552.09,-199.14 552.8,-206.1"/>
</g>
<!-- Node11 -->
<g id="node11" class="node">
<title>Node11</title>
<g id="a_node11"><a xlink:title=" ">
<polygon fill="none" stroke="#bfbfbf" points="0,-0.5 0,-19.5 46,-19.5 46,-0.5 0,-0.5"/>
<text text-anchor="middle" x="23" y="-7.5" font-family="Helvetica,sans-Serif" font-size="10.00">atomic</text>
</a>
</g>
</g>
<!-- Node5&#45;&gt;Node11 -->
<g id="edge25" class="edge">
<title>Node5&#45;&gt;Node11</title>
<path fill="none" stroke="midnightblue" d="M371.62,-380.36C361.18,-363.37 342.25,-334.48 322,-313 212.05,-196.39 126.54,-222.53 41,-87 30.05,-69.65 25.76,-46.27 24.08,-30.04"/>
<polygon fill="midnightblue" stroke="midnightblue" points="27.53,-29.37 23.26,-19.68 20.56,-29.92 27.53,-29.37"/>
</g>
<!-- Node12 -->
<g id="node12" class="node">
<title>Node12</title>
<g id="a_node12"><a xlink:href="intrusive__ptr_8hpp.html" target="_top" xlink:title=" ">
<polygon fill="none" stroke="black" points="374.5,-56.5 374.5,-86.5 471.5,-86.5 471.5,-56.5 374.5,-56.5"/>
<text text-anchor="start" x="382.5" y="-74.5" font-family="Helvetica,sans-Serif" font-size="10.00">yaclib/util/intrusive</text>
<text text-anchor="middle" x="423" y="-63.5" font-family="Helvetica,sans-Serif" font-size="10.00">_ptr.hpp</text>
</a>
</g>
</g>
<!-- Node5&#45;&gt;Node12 -->
<g id="edge24" class="edge">
<title>Node5&#45;&gt;Node12</title>
<path fill="none" stroke="midnightblue" d="M381.9,-380.25C388.62,-329.96 411.26,-160.41 419.75,-96.84"/>
<polygon fill="midnightblue" stroke="midnightblue" points="423.26,-96.96 421.12,-86.59 416.33,-96.04 423.26,-96.96"/>
</g>
<!-- Node18 -->
<g id="node18" class="node">
<title>Node18</title>
<g id="a_node18"><a xlink:href="inline_8hpp.html" target="_top" xlink:title=" ">
<polygon fill="none" stroke="black" points="484.5,-319 484.5,-338 609.5,-338 609.5,-319 484.5,-319"/>
<text text-anchor="middle" x="547" y="-326" font-family="Helvetica,sans-Serif" font-size="10.00">yaclib/executor/inline.hpp</text>
</a>
</g>
</g>
<!-- Node5&#45;&gt;Node18 -->
<g id="edge21" class="edge">
<title>Node5&#45;&gt;Node18</title>
<path fill="none" stroke="midnightblue" d="M416.24,-380.4C445.93,-368.84 487.51,-352.66 515.75,-341.66"/>
<polygon fill="midnightblue" stroke="midnightblue" points="517.09,-344.9 525.14,-338.01 514.56,-338.37 517.09,-344.9"/>
</g>
<!-- Node6&#45;&gt;Node7 -->
<g id="edge6" class="edge">
<title>Node6&#45;&gt;Node7</title>
<path fill="none" stroke="midnightblue" d="M731.8,-251.98C710.49,-241.99 674.97,-225.35 650.34,-213.81"/>
<polygon fill="midnightblue" stroke="midnightblue" points="651.7,-210.58 641.16,-209.51 648.73,-216.92 651.7,-210.58"/>
</g>
<!-- Node6&#45;&gt;Node12 -->
<g id="edge20" class="edge">
<title>Node6&#45;&gt;Node12</title>
<path fill="none" stroke="midnightblue" d="M750.08,-251.79C749.8,-227.31 745.42,-157.5 706,-123 673.42,-94.49 555.05,-81.43 482.12,-75.97"/>
<polygon fill="midnightblue" stroke="midnightblue" points="481.93,-72.45 471.7,-75.22 481.42,-79.43 481.93,-72.45"/>
</g>
<!-- Node8 -->
<g id="node8" class="node">
<title>Node8</title>
<g id="a_node8"><a xlink:href="func_8hpp.html" target="_top" xlink:title=" ">
<polygon fill="none" stroke="black" points="298.5,-129 298.5,-148 395.5,-148 395.5,-129 298.5,-129"/>
<text text-anchor="middle" x="347" y="-136" font-family="Helvetica,sans-Serif" font-size="10.00">yaclib/util/func.hpp</text>
</a>
</g>
</g>
<!-- Node7&#45;&gt;Node8 -->
<g id="edge7" class="edge">
<title>Node7&#45;&gt;Node8</title>
<path fill="none" stroke="midnightblue" d="M583.46,-190.48C534.17,-179.85 449.91,-161.68 396.41,-150.15"/>
<polygon fill="midnightblue" stroke="midnightblue" points="396.98,-146.7 386.47,-148.01 395.51,-153.54 396.98,-146.7"/>
</g>
<!-- Node17 -->
<g id="node17" class="node">
<title>Node17</title>
<g id="a_node17"><a xlink:href="intrusive__node_8hpp.html" target="_top" xlink:title=" ">
<polygon fill="none" stroke="black" points="599.5,-123.5 599.5,-153.5 696.5,-153.5 696.5,-123.5 599.5,-123.5"/>
<text text-anchor="start" x="607.5" y="-141.5" font-family="Helvetica,sans-Serif" font-size="10.00">yaclib/util/intrusive</text>
<text text-anchor="middle" x="648" y="-130.5" font-family="Helvetica,sans-Serif" font-size="10.00">_node.hpp</text>
</a>
</g>
</g>
<!-- Node7&#45;&gt;Node17 -->
<g id="edge19" class="edge">
<title>Node7&#45;&gt;Node17</title>
<path fill="none" stroke="midnightblue" d="M626.58,-190.48C629.62,-183.25 634.12,-172.53 638.22,-162.78"/>
<polygon fill="midnightblue" stroke="midnightblue" points="641.46,-164.1 642.11,-153.52 635.01,-161.39 641.46,-164.1"/>
</g>
<!-- Node9 -->
<g id="node9" class="node">
<title>Node9</title>
<g id="a_node9"><a xlink:href="counters_8hpp.html" target="_top" xlink:title=" ">
<polygon fill="none" stroke="black" points="50,-62 50,-81 166,-81 166,-62 50,-62"/>
<text text-anchor="middle" x="108" y="-69" font-family="Helvetica,sans-Serif" font-size="10.00">yaclib/util/counters.hpp</text>
</a>
</g>
</g>
<!-- Node8&#45;&gt;Node9 -->
<g id="edge8" class="edge">
<title>Node8&#45;&gt;Node9</title>
<path fill="none" stroke="midnightblue" d="M315.26,-128.87C272.56,-117.25 196.52,-96.58 149.38,-83.75"/>
<polygon fill="midnightblue" stroke="midnightblue" points="150.06,-80.31 139.49,-81.06 148.22,-87.07 150.06,-80.31"/>
</g>
<!-- Node8&#45;&gt;Node12 -->
<g id="edge11" class="edge">
<title>Node8&#45;&gt;Node12</title>
<path fill="none" stroke="midnightblue" d="M357.25,-128.73C367.82,-119.7 384.68,-105.27 398.68,-93.3"/>
<polygon fill="midnightblue" stroke="midnightblue" points="401.2,-95.75 406.53,-86.59 396.65,-90.43 401.2,-95.75"/>
</g>
<!-- Node13 -->
<g id="node13" class="node">
<title>Node13</title>
<g id="a_node13"><a xlink:href="ref_8hpp.html" target="_top" xlink:title=" ">
<polygon fill="none" stroke="black" points="293.5,-0.5 293.5,-19.5 382.5,-19.5 382.5,-0.5 293.5,-0.5"/>
<text text-anchor="middle" x="338" y="-7.5" font-family="Helvetica,sans-Serif" font-size="10.00">yaclib/util/ref.hpp</text>
</a>
</g>
</g>
<!-- Node8&#45;&gt;Node13 -->
<g id="edge16" class="edge">
<title>Node8&#45;&gt;Node13</title>
<path fill="none" stroke="midnightblue" d="M346.38,-128.81C344.94,-108.49 341.31,-57.55 339.34,-29.78"/>
<polygon fill="midnightblue" stroke="midnightblue" points="342.82,-29.48 338.62,-19.76 335.84,-29.98 342.82,-29.48"/>
</g>
<!-- Node8&#45;&gt;Node15 -->
<g id="edge17" class="edge">
<title>Node8&#45;&gt;Node15</title>
<path fill="none" stroke="midnightblue" d="M339.37,-128.81C321.07,-107.95 274.45,-54.81 250.57,-27.61"/>
<polygon fill="midnightblue" stroke="midnightblue" points="252.91,-24.96 243.68,-19.76 247.65,-29.58 252.91,-24.96"/>
</g>
<!-- Node8&#45;&gt;Node16 -->
<g id="edge18" class="edge">
<title>Node8&#45;&gt;Node16</title>
<path fill="none" stroke="midnightblue" d="M395.68,-130.34C424.04,-123.71 458.36,-111.05 480,-87 494.09,-71.34 498.46,-46.93 499.71,-30.02"/>
<polygon fill="midnightblue" stroke="midnightblue" points="503.22,-29.85 500.15,-19.71 496.22,-29.55 503.22,-29.85"/>
</g>
<!-- Node10 -->
<g id="node10" class="node">
<title>Node10</title>
<g id="a_node10"><a xlink:title=" ">
<polygon fill="none" stroke="#bfbfbf" points="64,-0.5 64,-19.5 152,-19.5 152,-0.5 64,-0.5"/>
<text text-anchor="middle" x="108" y="-7.5" font-family="Helvetica,sans-Serif" font-size="10.00">yaclib/config.hpp</text>
</a>
</g>
</g>
<!-- Node9&#45;&gt;Node10 -->
<g id="edge9" class="edge">
<title>Node9&#45;&gt;Node10</title>
<path fill="none" stroke="midnightblue" d="M108,-61.98C108,-53.58 108,-40.48 108,-29.66"/>
<polygon fill="midnightblue" stroke="midnightblue" points="111.5,-29.51 108,-19.51 104.5,-29.51 111.5,-29.51"/>
</g>
<!-- Node9&#45;&gt;Node11 -->
<g id="edge10" class="edge">
<title>Node9&#45;&gt;Node11</title>
<path fill="none" stroke="midnightblue" d="M95.82,-61.98C82.19,-52.43 59.87,-36.81 43.53,-25.37"/>
<polygon fill="midnightblue" stroke="midnightblue" points="45.36,-22.38 35.16,-19.51 41.34,-28.11 45.36,-22.38"/>
</g>
<!-- Node12&#45;&gt;Node13 -->
<g id="edge12" class="edge">
<title>Node12&#45;&gt;Node13</title>
<path fill="none" stroke="midnightblue" d="M402.86,-56.4C389.61,-47.13 372.32,-35.03 358.92,-25.65"/>
<polygon fill="midnightblue" stroke="midnightblue" points="360.57,-22.53 350.37,-19.66 356.55,-28.26 360.57,-22.53"/>
</g>
<!-- Node14 -->
<g id="node14" class="node">
<title>Node14</title>
<g id="a_node14"><a xlink:title=" ">
<polygon fill="none" stroke="#bfbfbf" points="400,-0.5 400,-19.5 456,-19.5 456,-0.5 400,-0.5"/>
<text text-anchor="middle" x="428" y="-7.5" font-family="Helvetica,sans-Serif" font-size="10.00">algorithm</text>
</a>
</g>
</g>
<!-- Node12&#45;&gt;Node14 -->
<g id="edge13" class="edge">
<title>Node12&#45;&gt;Node14</title>
<path fill="none" stroke="midnightblue" d="M424.18,-56.4C424.85,-48.47 425.69,-38.46 426.42,-29.86"/>
<polygon fill="midnightblue" stroke="midnightblue" points="429.92,-29.92 427.27,-19.66 422.95,-29.33 429.92,-29.92"/>
</g>
<!-- Node12&#45;&gt;Node15 -->
<g id="edge14" class="edge">
<title>Node12&#45;&gt;Node15</title>
<path fill="none" stroke="midnightblue" d="M378.68,-56.4C346.37,-46.12 303.1,-32.35 272.71,-22.68"/>
<polygon fill="midnightblue" stroke="midnightblue" points="273.53,-19.27 262.94,-19.57 271.41,-25.94 273.53,-19.27"/>
</g>
<!-- Node12&#45;&gt;Node16 -->
<g id="edge15" class="edge">
<title>Node12&#45;&gt;Node16</title>
<path fill="none" stroke="midnightblue" d="M441.25,-56.4C453.13,-47.22 468.61,-35.26 480.69,-25.92"/>
<polygon fill="midnightblue" stroke="midnightblue" points="483.02,-28.54 488.8,-19.66 478.74,-23 483.02,-28.54"/>
</g>
<!-- Node18&#45;&gt;Node6 -->
<g id="edge22" class="edge">
<title>Node18&#45;&gt;Node6</title>
<path fill="none" stroke="midnightblue" d="M573.96,-318.87C609.85,-307.38 673.46,-287.01 713.59,-274.16"/>
<polygon fill="midnightblue" stroke="midnightblue" points="714.8,-277.45 723.25,-271.06 712.66,-270.78 714.8,-277.45"/>
</g>
<!-- Node19&#45;&gt;Node20 -->
<g id="edge27" class="edge">
<title>Node19&#45;&gt;Node20</title>
<path fill="none" stroke="midnightblue" d="M907.51,-385.87C870.83,-374.35 805.77,-353.92 764.87,-341.08"/>
<polygon fill="midnightblue" stroke="midnightblue" points="765.86,-337.72 755.27,-338.06 763.76,-344.4 765.86,-337.72"/>
</g>
<!-- Node22 -->
<g id="node22" class="node">
<title>Node22</title>
<g id="a_node22"><a xlink:title=" ">
<polygon fill="none" stroke="#bfbfbf" points="900,-252 900,-271 958,-271 958,-252 900,-252"/>
<text text-anchor="middle" x="929" y="-259" font-family="Helvetica,sans-Serif" font-size="10.00">exception</text>
</a>
</g>
</g>
<!-- Node19&#45;&gt;Node22 -->
<g id="edge31" class="edge">
<title>Node19&#45;&gt;Node22</title>
<path fill="none" stroke="midnightblue" d="M970.26,-385.9C991.88,-378.62 1017.86,-365.76 1031,-344 1038.12,-332.21 1038.27,-324.71 1031,-313 1017.29,-290.92 990.74,-278.2 968.17,-271.04"/>
<polygon fill="midnightblue" stroke="midnightblue" points="969.04,-267.65 958.46,-268.22 967.09,-274.38 969.04,-267.65"/>
</g>
<!-- Node23 -->
<g id="node23" class="node">
<title>Node23</title>
<g id="a_node23"><a xlink:title=" ">
<polygon fill="none" stroke="#bfbfbf" points="884.5,-319 884.5,-338 957.5,-338 957.5,-319 884.5,-319"/>
<text text-anchor="middle" x="921" y="-326" font-family="Helvetica,sans-Serif" font-size="10.00">system_error</text>
</a>
</g>
</g>
<!-- Node19&#45;&gt;Node23 -->
<g id="edge32" class="edge">
<title>Node19&#45;&gt;Node23</title>
<path fill="none" stroke="midnightblue" d="M933.11,-385.73C931.03,-376.09 927.63,-360.3 924.96,-347.91"/>
<polygon fill="midnightblue" stroke="midnightblue" points="928.39,-347.17 922.86,-338.13 921.54,-348.64 928.39,-347.17"/>
</g>
<!-- Node24 -->
<g id="node24" class="node">
<title>Node24</title>
<g id="a_node24"><a xlink:title=" ">
<polygon fill="none" stroke="#bfbfbf" points="976,-319 976,-338 1022,-338 1022,-319 976,-319"/>
<text text-anchor="middle" x="999" y="-326" font-family="Helvetica,sans-Serif" font-size="10.00">variant</text>
</a>
</g>
</g>
<!-- Node19&#45;&gt;Node24 -->
<g id="edge33" class="edge">
<title>Node19&#45;&gt;Node24</title>
<path fill="none" stroke="midnightblue" d="M943.63,-385.73C953.8,-375.4 970.9,-358.04 983.41,-345.33"/>
<polygon fill="midnightblue" stroke="midnightblue" points="985.98,-347.71 990.51,-338.13 981,-342.8 985.98,-347.71"/>
</g>
<!-- Node20&#45;&gt;Node15 -->
<g id="edge30" class="edge">
<title>Node20&#45;&gt;Node15</title>
<path fill="none" stroke="midnightblue" d="M704.73,-318.9C616.23,-286.13 304.73,-170.07 289,-154 254.68,-118.93 242.27,-59.7 238.04,-29.66"/>
<polygon fill="midnightblue" stroke="midnightblue" points="241.51,-29.18 236.79,-19.69 234.56,-30.05 241.51,-29.18"/>
</g>
<!-- Node21 -->
<g id="node21" class="node">
<title>Node21</title>
<g id="a_node21"><a xlink:title=" ">
<polygon fill="none" stroke="#bfbfbf" points="446.5,-252 446.5,-271 495.5,-271 495.5,-252 446.5,-252"/>
<text text-anchor="middle" x="471" y="-259" font-family="Helvetica,sans-Serif" font-size="10.00">cassert</text>
</a>
</g>
</g>
<!-- Node20&#45;&gt;Node21 -->
<g id="edge28" class="edge">
<title>Node20&#45;&gt;Node21</title>
<path fill="none" stroke="midnightblue" d="M683.72,-318.98C639.37,-310.04 569.35,-294.83 510,-277 507.43,-276.23 504.78,-275.37 502.14,-274.48"/>
<polygon fill="midnightblue" stroke="midnightblue" points="503.29,-271.18 492.7,-271.13 500.95,-277.77 503.29,-271.18"/>
</g>
<!-- Node20&#45;&gt;Node22 -->
<g id="edge29" class="edge">
<title>Node20&#45;&gt;Node22</title>
<path fill="none" stroke="midnightblue" d="M754.69,-318.87C790.23,-307.38 853.21,-287.01 892.95,-274.16"/>
<polygon fill="midnightblue" stroke="midnightblue" points="894.08,-277.47 902.52,-271.06 891.93,-270.81 894.08,-277.47"/>
</g>
<!-- Node25&#45;&gt;Node3 -->
<g id="edge39" class="edge">
<title>Node25&#45;&gt;Node3</title>
<path fill="none" stroke="midnightblue" d="M597.74,-667.65C617.15,-676.27 644.59,-689.61 663.61,-699.59"/>
<polygon fill="midnightblue" stroke="midnightblue" points="661.97,-702.69 672.44,-704.32 665.28,-696.52 661.97,-702.69"/>
</g>
<!-- Node25&#45;&gt;Node4 -->
<g id="edge37" class="edge">
<title>Node25&#45;&gt;Node4</title>
<path fill="none" stroke="midnightblue" d="M571.49,-648.2C566.1,-633.14 557.72,-601.99 571,-581 590.99,-549.42 623.54,-574.09 647,-545 659.99,-528.89 664.41,-505.48 665.77,-487.88"/>
<polygon fill="midnightblue" stroke="midnightblue" points="669.27,-487.94 666.27,-477.78 662.28,-487.6 669.27,-487.94"/>
</g>
<!-- Node25&#45;&gt;Node20 -->
<g id="edge38" class="edge">
<title>Node25&#45;&gt;Node20</title>
<path fill="none" stroke="midnightblue" d="M568.41,-648.37C551.96,-625.72 511.92,-562.96 533,-514 568.2,-432.24 659.41,-369.79 703.47,-343.34"/>
<polygon fill="midnightblue" stroke="midnightblue" points="705.52,-346.19 712.36,-338.1 701.97,-340.16 705.52,-346.19"/>
</g>
<!-- Node25&#45;&gt;Node26 -->
<g id="edge40" class="edge">
<title>Node25&#45;&gt;Node26</title>
<path fill="none" stroke="midnightblue" d="M555.37,-648.48C535.69,-639.93 504.78,-626.5 479.61,-615.57"/>
<polygon fill="midnightblue" stroke="midnightblue" points="480.85,-612.3 470.29,-611.52 478.07,-618.72 480.85,-612.3"/>
</g>
<!-- Node25&#45;&gt;Node33 -->
<g id="edge53" class="edge">
<title>Node25&#45;&gt;Node33</title>
<path fill="none" stroke="midnightblue" d="M582.59,-648.48C589.37,-640.87 599.59,-629.4 608.61,-619.26"/>
<polygon fill="midnightblue" stroke="midnightblue" points="611.47,-621.32 615.51,-611.52 606.24,-616.66 611.47,-621.32"/>
</g>
<!-- Node26&#45;&gt;Node21 -->
<g id="edge52" class="edge">
<title>Node26&#45;&gt;Node21</title>
<path fill="none" stroke="midnightblue" d="M441.22,-581.33C446.4,-557.25 456,-506.75 456,-463.5 456,-463.5 456,-463.5 456,-394.5 456,-353.9 463.09,-306.72 467.52,-281.21"/>
<polygon fill="midnightblue" stroke="midnightblue" points="471.01,-281.57 469.34,-271.11 464.12,-280.33 471.01,-281.57"/>
</g>
<!-- Node27 -->
<g id="node27" class="node">
<title>Node27</title>
<g id="a_node27"><a xlink:href="wait_8hpp.html" target="_top" xlink:title=" ">
<polygon fill="none" stroke="black" points="326.5,-520 326.5,-539 427.5,-539 427.5,-520 326.5,-520"/>
<text text-anchor="middle" x="377" y="-527" font-family="Helvetica,sans-Serif" font-size="10.00">yaclib/algo/wait.hpp</text>
</a>
</g>
</g>
<!-- Node26&#45;&gt;Node27 -->
<g id="edge41" class="edge">
<title>Node26&#45;&gt;Node27</title>
<path fill="none" stroke="midnightblue" d="M424.76,-581.4C415.16,-571.16 402.15,-557.3 392.13,-546.62"/>
<polygon fill="midnightblue" stroke="midnightblue" points="394.55,-544.09 385.16,-539.19 389.45,-548.88 394.55,-544.09"/>
</g>
<!-- Node32 -->
<g id="node32" class="node">
<title>Node32</title>
<g id="a_node32"><a xlink:href="core_8hpp.html" target="_top" xlink:title=" ">
<polygon fill="none" stroke="black" points="542,-514.5 542,-544.5 638,-544.5 638,-514.5 542,-514.5"/>
<text text-anchor="start" x="550" y="-532.5" font-family="Helvetica,sans-Serif" font-size="10.00">yaclib/async/detail</text>
<text text-anchor="middle" x="590" y="-521.5" font-family="Helvetica,sans-Serif" font-size="10.00">/core.hpp</text>
</a>
</g>
</g>
<!-- Node26&#45;&gt;Node32 -->
<g id="edge50" class="edge">
<title>Node26&#45;&gt;Node32</title>
<path fill="none" stroke="midnightblue" d="M470.98,-581.4C493.49,-571.77 523.5,-558.94 547.76,-548.56"/>
<polygon fill="midnightblue" stroke="midnightblue" points="549.26,-551.73 557.08,-544.58 546.51,-545.29 549.26,-551.73"/>
</g>
<!-- Node28 -->
<g id="node28" class="node">
<title>Node28</title>
<g id="a_node28"><a xlink:href="wait__impl_8hpp.html" target="_top" xlink:title=" ">
<polygon fill="none" stroke="black" points="332.5,-447.5 332.5,-477.5 421.5,-477.5 421.5,-447.5 332.5,-447.5"/>
<text text-anchor="start" x="340.5" y="-465.5" font-family="Helvetica,sans-Serif" font-size="10.00">yaclib/algo/detail</text>
<text text-anchor="middle" x="377" y="-454.5" font-family="Helvetica,sans-Serif" font-size="10.00">/wait_impl.hpp</text>
</a>
</g>
</g>
<!-- Node27&#45;&gt;Node28 -->
<g id="edge42" class="edge">
<title>Node27&#45;&gt;Node28</title>
<path fill="none" stroke="midnightblue" d="M377,-519.73C377,-511.54 377,-498.92 377,-487.71"/>
<polygon fill="midnightblue" stroke="midnightblue" points="380.5,-487.59 377,-477.59 373.5,-487.59 380.5,-487.59"/>
</g>
<!-- Node28&#45;&gt;Node5 -->
<g id="edge43" class="edge">
<title>Node28&#45;&gt;Node5</title>
<path fill="none" stroke="midnightblue" d="M377.65,-447.4C378.01,-439.64 378.46,-429.81 378.88,-420.86"/>
<polygon fill="midnightblue" stroke="midnightblue" points="382.39,-420.73 379.35,-410.58 375.39,-420.4 382.39,-420.73"/>
</g>
<!-- Node28&#45;&gt;Node9 -->
<g id="edge48" class="edge">
<title>Node28&#45;&gt;Node9</title>
<path fill="none" stroke="midnightblue" d="M332.24,-459.85C289.08,-456.17 223.88,-444.88 179,-411 76.79,-333.83 95.61,-150.29 104.73,-91.19"/>
<polygon fill="midnightblue" stroke="midnightblue" points="108.22,-91.53 106.39,-81.09 101.32,-90.39 108.22,-91.53"/>
</g>
<!-- Node28&#45;&gt;Node20 -->
<g id="edge49" class="edge">
<title>Node28&#45;&gt;Node20</title>
<path fill="none" stroke="midnightblue" d="M397.07,-447.39C423.59,-429.34 472.31,-398.25 518,-380 546.38,-368.66 623.75,-351.29 676.22,-340.16"/>
<polygon fill="midnightblue" stroke="midnightblue" points="676.98,-343.58 686.04,-338.09 675.53,-336.73 676.98,-343.58"/>
</g>
<!-- Node29 -->
<g id="node29" class="node">
<title>Node29</title>
<g id="a_node29"><a xlink:href="wait__core_8hpp.html" target="_top" xlink:title=" ">
<polygon fill="none" stroke="black" points="188,-380.5 188,-410.5 284,-410.5 284,-380.5 188,-380.5"/>
<text text-anchor="start" x="196" y="-398.5" font-family="Helvetica,sans-Serif" font-size="10.00">yaclib/async/detail</text>
<text text-anchor="middle" x="236" y="-387.5" font-family="Helvetica,sans-Serif" font-size="10.00">/wait_core.hpp</text>
</a>
</g>
</g>
<!-- Node28&#45;&gt;Node29 -->
<g id="edge44" class="edge">
<title>Node28&#45;&gt;Node29</title>
<path fill="none" stroke="midnightblue" d="M346.41,-447.4C325.71,-437.86 298.18,-425.16 275.78,-414.84"/>
<polygon fill="midnightblue" stroke="midnightblue" points="277.08,-411.58 266.54,-410.58 274.15,-417.94 277.08,-411.58"/>
</g>
<!-- Node29&#45;&gt;Node13 -->
<g id="edge45" class="edge">
<title>Node29&#45;&gt;Node13</title>
<path fill="none" stroke="midnightblue" d="M192.25,-380.32C175.32,-372.45 157.71,-360.77 148,-344 141.1,-332.08 144.18,-326.24 148,-313 183.24,-190.8 284.17,-70.36 322.75,-27.46"/>
<polygon fill="midnightblue" stroke="midnightblue" points="325.45,-29.69 329.6,-19.93 320.28,-24.97 325.45,-29.69"/>
</g>
<!-- Node30 -->
<g id="node30" class="node">
<title>Node30</title>
<g id="a_node30"><a xlink:title=" ">
<polygon fill="none" stroke="#bfbfbf" points="157.5,-319 157.5,-338 252.5,-338 252.5,-319 157.5,-319"/>
<text text-anchor="middle" x="205" y="-326" font-family="Helvetica,sans-Serif" font-size="10.00">condition_variable</text>
</a>
</g>
</g>
<!-- Node29&#45;&gt;Node30 -->
<g id="edge46" class="edge">
<title>Node29&#45;&gt;Node30</title>
<path fill="none" stroke="midnightblue" d="M229.27,-380.4C224.68,-370.76 218.55,-357.91 213.6,-347.54"/>
<polygon fill="midnightblue" stroke="midnightblue" points="216.61,-345.71 209.15,-338.19 210.29,-348.73 216.61,-345.71"/>
</g>
<!-- Node31 -->
<g id="node31" class="node">
<title>Node31</title>
<g id="a_node31"><a xlink:title=" ">
<polygon fill="none" stroke="#bfbfbf" points="270.5,-319 270.5,-338 313.5,-338 313.5,-319 270.5,-319"/>
<text text-anchor="middle" x="292" y="-326" font-family="Helvetica,sans-Serif" font-size="10.00">mutex</text>
</a>
</g>
</g>
<!-- Node29&#45;&gt;Node31 -->
<g id="edge47" class="edge">
<title>Node29&#45;&gt;Node31</title>
<path fill="none" stroke="midnightblue" d="M248.15,-380.4C256.88,-370.26 268.68,-356.57 277.84,-345.94"/>
<polygon fill="midnightblue" stroke="midnightblue" points="280.63,-348.06 284.51,-338.19 275.33,-343.49 280.63,-348.06"/>
</g>
<!-- Node32&#45;&gt;Node4 -->
<g id="edge51" class="edge">
<title>Node32&#45;&gt;Node4</title>
<path fill="none" stroke="midnightblue" d="M606.49,-514.4C616.85,-505.54 630.38,-493.96 641.93,-484.09"/>
<polygon fill="midnightblue" stroke="midnightblue" points="644.22,-486.74 649.54,-477.58 639.67,-481.42 644.22,-486.74"/>
</g>
<!-- Node35&#45;&gt;Node3 -->
<g id="edge62" class="edge">
<title>Node35&#45;&gt;Node3</title>
<path fill="none" stroke="midnightblue" d="M860.88,-760.44C824.88,-751.14 767.23,-736.25 727.81,-726.06"/>
<polygon fill="midnightblue" stroke="midnightblue" points="728.52,-722.63 717.96,-723.52 726.77,-729.41 728.52,-722.63"/>
</g>
<!-- Node35&#45;&gt;Node6 -->
<g id="edge63" class="edge">
<title>Node35&#45;&gt;Node6</title>
<path fill="none" stroke="midnightblue" d="M894.93,-760.35C899.7,-711.67 917.64,-468.48 819,-313 809.02,-297.27 792.24,-284.82 777.73,-276.22"/>
<polygon fill="midnightblue" stroke="midnightblue" points="779.05,-272.95 768.61,-271.13 775.64,-279.06 779.05,-272.95"/>
</g>
<!-- Node35&#45;&gt;Node20 -->
<g id="edge64" class="edge">
<title>Node35&#45;&gt;Node20</title>
<path fill="none" stroke="midnightblue" d="M890.76,-760.16C886.18,-747.65 877.5,-724.05 870,-704 818.7,-566.91 755.76,-402.07 735,-347.8"/>
<polygon fill="midnightblue" stroke="midnightblue" points="738.17,-346.29 731.33,-338.2 731.63,-348.79 738.17,-346.29"/>
</g>
<!-- Node35&#45;&gt;Node32 -->
<g id="edge61" class="edge">
<title>Node35&#45;&gt;Node32</title>
<path fill="none" stroke="midnightblue" d="M885.88,-760.31C859.13,-732.02 770.57,-640.88 685,-581 667.96,-569.07 647.76,-557.97 630.38,-549.22"/>
<polygon fill="midnightblue" stroke="midnightblue" points="631.57,-545.91 621.06,-544.62 628.47,-552.18 631.57,-545.91"/>
</g>
<!-- Node36&#45;&gt;Node6 -->
<g id="edge66" class="edge">
<title>Node36&#45;&gt;Node6</title>
<path fill="none" stroke="midnightblue" d="M1116.4,-318.94C1038.73,-306.97 898.03,-285.3 815.42,-272.58"/>
<polygon fill="midnightblue" stroke="midnightblue" points="815.81,-269.09 805.39,-271.03 814.74,-276.01 815.81,-269.09"/>
</g>
<!-- Node37 -->
<g id="node37" class="node">
<title>Node37</title>
<g id="a_node37"><a xlink:href="thread__factory_8hpp.html" target="_top" xlink:title=" ">
<polygon fill="none" stroke="black" points="1066.5,-246.5 1066.5,-276.5 1177.5,-276.5 1177.5,-246.5 1066.5,-246.5"/>
<text text-anchor="start" x="1074.5" y="-264.5" font-family="Helvetica,sans-Serif" font-size="10.00">yaclib/executor/thread</text>
<text text-anchor="middle" x="1122" y="-253.5" font-family="Helvetica,sans-Serif" font-size="10.00">_factory.hpp</text>
</a>
</g>
</g>
<!-- Node36&#45;&gt;Node37 -->
<g id="edge67" class="edge">
<title>Node36&#45;&gt;Node37</title>
<path fill="none" stroke="midnightblue" d="M1161.15,-313.4C1154.66,-304.96 1146.28,-294.07 1138.94,-284.52"/>
<polygon fill="midnightblue" stroke="midnightblue" points="1141.7,-282.37 1132.83,-276.58 1136.15,-286.64 1141.7,-282.37"/>
</g>
<!-- Node38 -->
<g id="node38" class="node">
<title>Node38</title>
<g id="a_node38"><a xlink:title=" ">
<polygon fill="none" stroke="#bfbfbf" points="1170.5,-190.5 1170.5,-209.5 1219.5,-209.5 1219.5,-190.5 1170.5,-190.5"/>
<text text-anchor="middle" x="1195" y="-197.5" font-family="Helvetica,sans-Serif" font-size="10.00">cstddef</text>
</a>
</g>
</g>
<!-- Node36&#45;&gt;Node38 -->
<g id="edge72" class="edge">
<title>Node36&#45;&gt;Node38</title>
<path fill="none" stroke="midnightblue" d="M1177.05,-313.09C1180.37,-303.09 1184.53,-289.38 1187,-277 1190.85,-257.71 1192.92,-235.28 1193.98,-219.82"/>
<polygon fill="midnightblue" stroke="midnightblue" points="1197.5,-219.71 1194.62,-209.51 1190.51,-219.28 1197.5,-219.71"/>
</g>
<!-- Node36&#45;&gt;Node40 -->
<g id="edge73" class="edge">
<title>Node36&#45;&gt;Node40</title>
<path fill="none" stroke="midnightblue" d="M1190.23,-313.4C1203.97,-302.76 1222.78,-288.2 1236.77,-277.38"/>
<polygon fill="midnightblue" stroke="midnightblue" points="1239,-280.08 1244.76,-271.19 1234.71,-274.55 1239,-280.08"/>
</g>
<!-- Node37&#45;&gt;Node7 -->
<g id="edge68" class="edge">
<title>Node37&#45;&gt;Node7</title>
<path fill="none" stroke="midnightblue" d="M1066.44,-253.9C985.42,-244.27 830.12,-225.8 698,-210 696.54,-209.82 695.05,-209.65 693.56,-209.47"/>
<polygon fill="midnightblue" stroke="midnightblue" points="693.93,-205.99 683.58,-208.27 693.09,-212.94 693.93,-205.99"/>
</g>
<!-- Node37&#45;&gt;Node17 -->
<g id="edge69" class="edge">
<title>Node37&#45;&gt;Node17</title>
<path fill="none" stroke="midnightblue" d="M1066.7,-246.38C976.45,-223.35 798.37,-177.89 706.25,-154.37"/>
<polygon fill="midnightblue" stroke="midnightblue" points="707.09,-150.97 696.53,-151.89 705.36,-157.75 707.09,-150.97"/>
</g>
<!-- Node37&#45;&gt;Node38 -->
<g id="edge70" class="edge">
<title>Node37&#45;&gt;Node38</title>
<path fill="none" stroke="midnightblue" d="M1139.3,-246.4C1150.45,-237.31 1164.95,-225.49 1176.36,-216.19"/>
<polygon fill="midnightblue" stroke="midnightblue" points="1178.84,-218.69 1184.38,-209.66 1174.42,-213.26 1178.84,-218.69"/>
</g>
<!-- Node39 -->
<g id="node39" class="node">
<title>Node39</title>
<g id="a_node39"><a xlink:title=" ">
<polygon fill="none" stroke="#bfbfbf" points="1101.5,-190.5 1101.5,-209.5 1142.5,-209.5 1142.5,-190.5 1101.5,-190.5"/>
<text text-anchor="middle" x="1122" y="-197.5" font-family="Helvetica,sans-Serif" font-size="10.00">string</text>
</a>
</g>
</g>
<!-- Node37&#45;&gt;Node39 -->
<g id="edge71" class="edge">
<title>Node37&#45;&gt;Node39</title>
<path fill="none" stroke="midnightblue" d="M1122,-246.4C1122,-238.47 1122,-228.46 1122,-219.86"/>
<polygon fill="midnightblue" stroke="midnightblue" points="1125.5,-219.66 1122,-209.66 1118.5,-219.66 1125.5,-219.66"/>
</g>
</g>
</svg>
